<?xml version="1.0" encoding="UTF-8"?><svg id="_圖層_1" xmlns="http://www.w3.org/2000/svg" viewBox="0 0 52.01 45.72"><defs><style>.cls-1{fill:#fff;stroke-width:0px;}</style></defs><path class="cls-1" d="m40,35.53c-1.68-1.25-3.57-2.12-5.6-2.56-.45-.12-.9-.22-1.36-.32l-.28-.06s.05-.07.08-.1c.49-.63.99-1.26,1.49-1.88,1.07-1.34,2.17-2.73,3.2-4.13,2.95-3.74,4.3-8.59,3.71-13.31-.46-3.75-2.47-7.2-5.5-9.45C31.39.15,25.47-.73,20.29,1.41c-5.82,2.12-9.71,7.71-9.68,13.9.03,3.24.92,6.43,2.58,9.22,1.13,1.78,2.39,3.5,3.75,5.1.57.74,1.15,1.47,1.74,2.22l.58.74c-1.24.24-2.46.58-3.64.99-1.55.49-2.99,1.34-4.17,2.45-.09.08-.17.16-.25.24-.65.69-.99,1.6-.96,2.55.03.95.43,1.83,1.11,2.47.8.84,1.74,1.49,2.81,1.95,2.57,1.13,5.28,1.81,8.1,2.04,9.37.59,11.24-.49,13.59-1.24,1.64-.47,3.19-1.31,4.48-2.42.88-.71,1.4-1.77,1.43-2.91-.06-1.28-.72-2.47-1.76-3.19Zm-24.11-10.02c-1.8-2.29-2.99-5.02-3.42-7.9-1.04-5.99,2.13-11.87,7.71-14.3,1.89-.88,3.89-1.31,5.87-1.31,3.77,0,7.46,1.54,10.15,4.44,1.87,1.96,3.07,4.53,3.38,7.22.04.33.06.66.08.98.01.25.03.48.05.69h0c-.03,3.43-1.1,6.71-3.1,9.5-1.13,1.62-2.38,3.18-3.6,4.7-.6.75-1.2,1.49-1.78,2.25-.96,1.24-1.94,2.47-2.91,3.71-.74.95-1.49,1.89-2.23,2.84-.02.02-.06.07-.09.11-.02-.02-.04-.04-.07-.08-1.43-1.84-2.87-3.67-4.32-5.51-1.91-2.44-3.83-4.87-5.73-7.33Zm23.68,14.44c-.74.84-1.69,1.5-2.75,1.9-1.92.81-3.94,1.34-6,1.59-1.56.2-3.16.32-4.73.34-3.32.04-6.59-.46-9.74-1.48-1.24-.39-2.38-1-3.39-1.83-.45-.35-.78-.82-.94-1.36-.13-.54,0-1.12.37-1.54.71-.84,1.62-1.5,2.65-1.9,1.69-.74,3.47-1.26,5.31-1.56.01,0,.03,0,.04,0,.07,0,.15.04.2.13,1.52,1.93,3.03,3.86,4.54,5.79.24.3.52.61.88.61h0c.36,0,.65-.31.89-.61l4.55-5.79c.11-.14.14-.14.21-.13,2.07.31,4.07.94,5.95,1.87.76.37,1.43.88,1.98,1.54.63.68.62,1.75-.03,2.43Z"/><path class="cls-1" d="m22.12,19.29c0-1.61-.01-3.22,0-4.82.06-1.54,1.28-2.85,2.99-3.2,2.09-.43,4.18.7,4.67,2.53.13,1.04.17,2.08.12,3.13h-.01v2.76c.02.12.02.24,0,.37-.11.75-.88,1.28-1.73,1.18-.78,0-1.56-.01-2.33,0-.67.02-1,.31-1,.82,0,.03,0,.07,0,.1.06.44.52.75,1.02.69.82,0,1.64,0,2.46,0,1.5.02,2.83-.83,3.25-2.09.04-.26.3-.44.6-.43,1.45-.08,2.56-1.16,2.52-2.43,0-.47,0-.95,0-1.42,0-1.24-1.1-2.27-2.52-2.36-.35-.02-.43-.1-.5-.4-.38-2.17-2.32-3.87-4.8-4.2-3.13-.42-6.05,1.46-6.53,4.2-.06.3-.14.38-.49.4-1.42.07-2.53,1.11-2.53,2.35,0,.51,0,1.02,0,1.53.03,1.03.81,1.93,1.94,2.23.53.11,1.07.14,1.6.11.93,0,1.25-.27,1.25-1.08Zm9.61-3.18c-.03-.42.16-.34.53-.31,1,.08.98,2.39.08,2.85-.34.17-.67.17-.61-.34.04-.35.03-1.83,0-2.2Zm-11.43,2.29c.02.35-.16.37-.47.3-.37-.07-.65-.35-.66-.68-.04-.51-.08-1.74.28-2.06.18-.17.45-.24.71-.19.25.08.16.34.17.51.02.32-.05,1.73-.03,2.13Z"/></svg>