<?xml version="1.0" encoding="UTF-8"?><svg id="_圖層_1" xmlns="http://www.w3.org/2000/svg" viewBox="0 0 14.89 16.93"><defs><style>.cls-1{fill:#ef821d;}.cls-1,.cls-2{stroke-width:0px;}.cls-2{fill:#3d61ab;}</style></defs><path class="cls-2" d="m14.57,8.59c-.42-.57-.84-1.12-1.31-1.75l-.28-.38c-.07-.09-.1-.19-.11-.29-.05-1.47-.61-2.87-1.59-3.96-1.31-1.47-2.93-2.2-4.8-2.2-.34,0-.69.03-1.06.08-1.3.17-2.5.78-3.43,1.71C.44,3.25-.27,5.38.1,7.49c.19,1.28.77,2.45,1.67,3.38.17.18.27.42.27.66v4.87c-.03.21.09.45.26.53h6.25c.21-.06.34-.28.3-.51v-1.24c0-.09,0-.17.06-.23s.15-.07.22-.07h2.32c.21,0,.44-.05.63-.15.51-.24.81-.75.79-1.3v-2.32c0-.06,0-.14.06-.19.05-.05.11-.06.2-.06h.21c.21,0,.41-.03.61-.09.15-.05.29-.13.42-.23.29-.23.47-.57.51-.94.04-.37-.07-.74-.3-1.03l-.02.02Zm-.52,1.12c-.09.24-.32.38-.59.38h-1.02c-.1.02-.2.07-.27.15-.07.09-.09.19-.08.31v2.81c0,.51-.23.75-.75.75h-2.93c-.1.02-.2.07-.27.15-.07.09-.09.2-.08.32v1.29c0,.08,0,.16-.06.22-.07.06-.15.07-.23.07H3.08c-.19,0-.27-.08-.27-.27v-4.31c.02-.47-.16-.94-.5-1.28-.71-.75-1.19-1.66-1.4-2.68C.29,4.72,1.97,1.87,4.81,1c.16-.04.33-.09.49-.12.37-.07.74-.11,1.11-.11,2.7,0,5.04,1.93,5.57,4.58.07.33.1.66.1.99,0,.15.05.3.15.43l1.69,2.26c.17.18.22.45.13.68h0Z"/><path class="cls-1" d="m8.97,3.05c-.12,0-.23-.08-.27-.19-.04-.09-.09-.19-.16-.28-.27-.34-.67-.54-1.1-.54-.3,0-.59.09-.82.27-.05.05-.11.08-.18.08s-.14-.03-.17-.07c-.09-.07-.19-.13-.29-.17-.17-.08-.36-.11-.55-.11-.55,0-1.05.33-1.26.82-.03.12-.15.19-.27.19-.5,0-.99.22-1.34.58-.35.36-.53.84-.52,1.35,0,.51.21.97.57,1.32.15.1.17.29.07.46-.19.46-.18.98.02,1.44s.57.82,1.02,1c.21.04.36.23.35.44.03.23.11.45.24.63.26.37.68.58,1.13.58.28,0,.56-.09.78-.24.06-.06.15-.09.22-.09s.16.03.21.09c.22.17.51.27.79.27.21,0,.4-.05.59-.15.46-.2.77-.65.8-1.15,0-.16.1-.32.25-.34.06-.02.12-.04.18-.08.45-.21.8-.59.98-1.06s.15-.98-.05-1.42c-.03-.06-.05-.13-.03-.2.02-.06.05-.12.1-.15.36-.32.58-.77.61-1.24,0-1.15-.81-2.02-1.87-2.03h-.03Zm-2.92,6.39h-.02c0,.08,0,.15-.03.24-.09.24-.32.41-.57.41-.07,0-.14,0-.28-.07-.14-.07-.25-.19-.29-.33-.05-.15-.04-.31.03-.45.05-.09.08-.17.09-.29,0-.21-.17-.37-.38-.37h-.1c-.27,0-.54-.08-.76-.24-.4-.33-.53-.87-.32-1.35.04-.08.1-.16.29-.16h0c.09,0,.16.02.25.02.21,0,.42-.04.62-.12l.1-.03c.09-.04.16-.12.21-.22.03-.09.03-.21-.02-.3-.06-.14-.21-.22-.35-.22-.06,0-.11.02-.17.04-.13.05-.27.08-.4.08-.39,0-.75-.21-.96-.54-.14-.23-.19-.5-.15-.76.09-.53.55-.93,1.09-.93.06,0,.12,0,.19.02l.26.07h.11c.1,0,.2-.05.27-.13s.09-.18.09-.27v-.11c.02-.33.29-.58.63-.58.16,0,.31.08.42.2.11.12.16.27.15.44m3.86,2.03c-.21.34-.57.56-.98.56-.11,0-.22-.02-.34-.05-.08-.03-.16-.05-.25-.05-.17,0-.33.13-.37.3-.04.18.05.36.22.44.21.1.45.15.69.15.08,0,.15,0,.3-.03.18,0,.25.12.29.22.06.16.09.33.08.51-.04.57-.53,1.03-1.12,1.03h-.12c-.17,0-.32.06-.39.17s-.07.27,0,.42c.15.23.12.52-.06.72-.11.13-.28.21-.45.21-.08,0-.15-.02-.22-.04-.26-.1-.41-.35-.39-.63V3.5c-.03-.31.17-.58.47-.66.05,0,.09-.02.15-.02.22,0,.43.12.53.31.06.09.09.21.08.33-.02.08,0,.16.03.24.06.14.2.22.35.22.06,0,.11,0,.17-.04.11-.04.23-.06.35-.06.27,0,.54.1.74.29.39.34.48.93.22,1.37h.02Z"/></svg>