<?xml version="1.0" encoding="UTF-8"?><svg id="_圖層_1" xmlns="http://www.w3.org/2000/svg" viewBox="0 0 15.13 12.34"><defs><style>.cls-1{fill:#ef821d;}.cls-1,.cls-2,.cls-3{stroke-width:0px;}.cls-2{fill:none;}.cls-3{fill:#3d61ab;}</style></defs><path class="cls-2" d="m10.11,12.34c-.2,0-.39-.03-.58-.09"/><path class="cls-2" d="m9.83,9.98c.06.07.15.11.24.11h4.27s.12,0,.17-.06c.05-.05.05-.11.04-.16v-.34c-.02-.61-.46-1.13-1.05-1.25-.13-.02-.26-.03-.39-.03-.09,0-.17,0-.25-.01-.07,0-.13-.01-.17-.01-.23,0-.24.16-.25.37,0,.09-.02.17-.08.22-.05.06-.12.09-.21.1-.17,0-.31-.12-.31-.28v-.41c.01-.17-.12-.22-.16-.24-.12-.05-.25-.11-.37-.17-.04-.02-.07-.04-.1-.07-.09-.07-.18-.13-.28-.13-.14.01-.22.11-.3.2-.02.03-.06.07-.08.09-.06.06-.13.09-.21.09s-.16-.03-.21-.09c-.12-.12-.11-.31,0-.42.06-.06.27-.27.27-.27.03-.03.11-.11.04-.22-.18-.41-.24-.85-.17-1.3.01-.14-.04-.22-.17-.24-.19-.03-.38-.08-.56-.16-.66-.26-1.01-.69-1.07-1.32-.02-.24-.1-.47-.22-.69-.02-.04-.08-.13-.17-.13-.07,0-.12.04-.17.09-.73.74-1.46,1.47-2.2,2.2-.05.05-.1.11-.1.18s.05.14.09.18c1.38,1.38,2.76,2.78,4.15,4.17h0Z"/><path class="cls-2" d="m9.06,3.94c.01.25.14.49.36.62.31.19.66.3,1.02.32h.01c.09,0,.14-.04.16-.07l1.82-1.81s.07-.08.07-.14-.04-.11-.07-.14c-.62-.62-1.24-1.24-1.85-1.86-.04-.04-.08-.07-.15-.07s-.11.04-.14.07c-.55.55-1.1,1.1-1.65,1.65-.03.03-.13.13-.02.27.26.34.42.74.45,1.16h0Z"/><path class="cls-2" d="m14.31,10.67h-4.39c-.16,0-.3-.06-.4-.16-1.36-1.37-2.73-2.74-4.09-4.12-.03-.03-.06-.06-.09-.1-.09-.11-.19-.24-.34-.25h-.02c-.12,0-.22.07-.33.14-.05.03-.09.06-.13.08-.14.07-.22.2-.22.36-.01.17.07.35.21.47,1.39,1.39,2.78,2.78,4.18,4.18.27.27.64.44,1.02.44h4.29c.29,0,.52-.21.54-.49v-.3s.01-.11-.04-.18c-.05-.06-.12-.07-.19-.07h0Z"/><path class="cls-3" d="m15.13,9.26c-.12-.77-.7-1.39-1.45-1.57-.31-.04-.62-.07-.94-.07-.57-.03-1.12-.26-1.56-.63-.19-.18-.31-.42-.34-.69-.02-.19-.02-.38,0-.57.01-.22.11-.44.28-.59.51-.49,1-.99,1.5-1.48l.51-.51c.11-.11.16-.19.16-.28,0-.08-.05-.17-.16-.28L10.69.16c-.11-.11-.19-.16-.27-.16s-.17.05-.28.16l-1.25,1.25c-1.14,1.14-2.28,2.28-3.41,3.42-.37.4-.81.72-1.3.97-.07.03-.13.07-.18.13-.41.46-.37,1.16.08,1.57l4.23,4.23c.37.37.87.58,1.4.58h4.33c.51,0,.95-.35,1.08-.84.01-.11.01-2.09.01-2.21Zm-6.5-6.74c.55-.55,1.1-1.1,1.65-1.65.03-.03.08-.07.14-.07s.11.04.15.07c.62.62,1.24,1.24,1.85,1.86.03.03.07.07.07.14s-.04.11-.07.14l-1.82,1.81s-.06.07-.16.07h-.01c-.36-.02-.71-.14-1.02-.32-.21-.14-.34-.37-.36-.62-.04-.42-.19-.82-.45-1.16-.11-.14-.01-.24.02-.27h0Zm-2.93,2.93c.74-.73,1.47-1.46,2.2-2.2.05-.05.1-.09.17-.09.1,0,.15.09.17.13.12.21.2.44.22.69.06.63.4,1.06,1.07,1.32.18.07.37.12.56.16.13.02.19.09.17.24-.07.44,0,.89.17,1.3.06.12-.01.2-.04.22,0,0-.21.21-.27.27-.12.12-.12.31,0,.42.06.06.13.09.21.09s.16-.03.21-.09c.03-.02.06-.06.08-.09.07-.09.16-.19.3-.2.1,0,.19.06.28.13.03.02.07.05.1.07.12.06.24.12.37.17.04.02.17.07.16.24,0,.12,0,.25,0,.41,0,.16.14.28.31.28.08,0,.15-.04.21-.1.06-.06.08-.14.08-.22,0-.22.01-.37.25-.37.04,0,.1,0,.17.01.08,0,.17.01.25.01.13,0,.26,0,.39.03.6.12,1.04.64,1.05,1.25v.34s0,.11-.04.16c-.05.06-.13.06-.17.06h-4.27c-.09,0-.18-.04-.24-.11-1.38-1.39-2.76-2.78-4.15-4.17-.05-.05-.09-.11-.09-.18s.05-.13.1-.18h0Zm8.86,5.48v.3c-.02.27-.26.49-.54.49h-4.29c-.39,0-.76-.16-1.02-.43-1.4-1.4-2.79-2.79-4.18-4.18-.14-.11-.22-.29-.21-.47,0-.15.09-.29.22-.36.04-.02.09-.05.13-.08.1-.07.21-.14.33-.14h.02c.15,0,.24.13.34.25.02.04.06.07.09.1,1.37,1.37,2.73,2.74,4.09,4.12.1.11.24.16.4.16h4.39c.07,0,.14,0,.19.07.06.06.05.15.04.18h0Z"/><path class="cls-1" d="m4.75,11.37H.32s-.07,0-.11.01c-.14.04-.23.18-.21.33.02.15.16.26.33.26h4.49c.17-.02.28-.17.26-.34-.02-.15-.14-.26-.33-.26Z"/><path class="cls-1" d="m1.92,10.89h2.86c.08,0,.15-.04.21-.11.05-.06.07-.14.07-.22,0-.08-.04-.15-.11-.21-.06-.04-.12-.07-.21-.07H1.89c-.08,0-.16.03-.21.09s-.09.13-.09.21c0,.09.04.17.1.22.06.05.12.07.22.07Z"/><path class="cls-1" d="m2.78,9.8h1.25c.09,0,.17-.04.22-.1.06-.06.08-.14.08-.21,0-.16-.14-.29-.31-.29h-1.23c-.08,0-.15.03-.21.08-.06.06-.09.13-.09.21,0,.16.12.3.29.31h0Z"/></svg>