<?xml version="1.0" encoding="UTF-8"?><svg id="_圖層_1" xmlns="http://www.w3.org/2000/svg" viewBox="0 0 52.01 45.72"><defs><style>.cls-1{fill:#fff;stroke-width:0px;}</style></defs><path id="_路径_11446" class="cls-1" d="m21.97,27.31c0-5.53-.02-11.07.02-16.6,0-.77-.21-1-.95-.93-.63.06-1.28,0-1.92.01-.4.04-.77-.19-.92-.55-.15-.33-.07-.72.19-.98,2.28-2.55,4.57-5.09,6.86-7.63.29-.42.86-.52,1.27-.23.09.06.16.14.23.22,2.3,2.53,4.59,5.08,6.87,7.63.26.26.34.64.19.98-.15.37-.52.59-.92.56-.63,0-1.28.05-1.92,0-.73-.07-.97.14-.96.92.04,5.02.02,10.04.02,15.06,0,6.01,0,12.03,0,18.04,0,1.41-.27,1.68-1.67,1.68h-4.8c-1.28,0-1.58-.31-1.58-1.58v-16.6"/><path id="_路径_11447" class="cls-1" d="m5.06,30.77c0-2.3-.02-4.6.01-6.9,0-.57-.11-.81-.73-.76-.7.06-1.4.02-2.11,0-.4.03-.77-.18-.94-.54-.16-.4-.06-.85.25-1.14,2.23-2.46,4.45-4.93,6.67-7.41.29-.47.9-.62,1.36-.33.13.08.25.2.33.33,2.2,2.45,4.4,4.89,6.61,7.34.3.33.59.68.33,1.19-.22.4-.67.62-1.12.56-.1,0-.19,0-.29,0-.75.07-1.75-.34-2.19.17-.37.43-.13,1.39-.13,2.13,0,3.93,0,7.86,0,11.79,0,1.47-.3,1.76-1.8,1.77-1.63,0-3.26.01-4.89,0-1.03-.01-1.35-.35-1.36-1.39,0-2.27,0-4.54,0-6.81"/><path id="_路径_11448" class="cls-1" d="m38.88,30.69c0-2.27-.03-4.54.02-6.81.01-.65-.2-.82-.81-.77-.67.05-1.34.05-2.01,0-.99-.08-1.36-.86-.71-1.59,2.26-2.56,4.56-5.1,6.86-7.63.29-.39.85-.47,1.24-.18.07.05.13.11.18.18,2.3,2.53,4.59,5.07,6.86,7.62.6.68.24,1.47-.66,1.59-.29.02-.58.03-.86.01q-2.05,0-2.05,2.1v12.08c0,1.43-.25,1.68-1.65,1.68-1.6,0-3.2,0-4.79,0-1.24,0-1.6-.35-1.6-1.58v-6.71"/></svg>