<?xml version="1.0" encoding="UTF-8"?><svg id="_圖層_1" xmlns="http://www.w3.org/2000/svg" viewBox="0 0 52.01 45.72"><defs><style>.cls-1{fill:#fff;stroke-width:0px;}</style></defs><path class="cls-1" d="m48.77,7.11c0-.43-.03-.85-.09-1.27-.54-3.12-3.24-5.46-6.42-5.55H13.64c-.66,0-1.32.09-1.97.24C6.73,1.63,3.18,6.11,3.22,11.17c.04,3.81.03,7.69.02,11.44,0,1.66,0,3.31,0,4.97v15c0,.13,0,.23,0,.33.04.72.36,1.37.89,1.85.53.48,1.22.72,1.94.68h28.61c.14,0,.26,0,.37,0,1.48-.1,2.6-1.38,2.5-2.86,0-6.23,0-10.43-.01-16.63,0-.23.03-.52.24-.74.24-.24.59-.24.75-.24,1.08,0,2.16,0,3.24,0,1.88,0,3.76-.01,5.65.03.06,0,.11,0,.15,0,.35-.02.66-.17.9-.42s.35-.58.34-.93c-.03-4.08-.03-8.15-.02-12.22v-4.31Zm-12.25-4.53c.19.09-.1.69-.1.69-.53.83-.88,1.75-1.05,2.73-.03.24-.05.5-.04.75,0,12.48,0,22.95,0,35.42,0,.27-.03.58-.26.81-.23.23-.54.26-.81.26-9.26-.01-18.52-.01-27.78,0h0c-.27,0-.57-.03-.8-.26-.23-.23-.26-.54-.26-.81V11.17c.01-2.38.91-4.53,2.53-6.16,1.62-1.62,3.78-2.52,6.07-2.52h21.96m10.34,20.03c-.21.21-.5.24-.72.24-2.37-.02-4.74-.02-7.11,0h-.04c-.18,0-.48-.01-.7-.23-.21-.21-.24-.49-.24-.72,0-2.75.01-14.58.01-14.58-.12-2.42,1.77-4.55,4.22-4.71,2.25-.18,4.28,1.37,4.69,3.6.08.43.12.86.11,1.3,0,0,0,12.53,0,14.37,0,.26-.02.52-.23.73Z"/><polygon class="cls-1" points="15.58 14.18 15.58 14.21 15.58 14.21 15.58 14.18"/><path class="cls-1" d="m9.94,17.45c-.06,1.74.52,3.44,1.63,4.79,1.33,1.62,2.77,3.18,4.28,4.63,1.04,1.07,2.21,1.96,3.5,2.67.64.35,1.41.35,2.06,0,.69-.35,1.33-.77,1.92-1.26,2.08-1.78,4.01-3.76,5.73-5.89,1.42-1.59,2.03-3.76,1.65-5.83-.18-1.54-.93-2.89-2.11-3.84-2.25-1.73-5.43-1.59-7.53.33-.47.41-.88.41-1.34,0-1.12-1.02-2.54-1.55-3.97-1.55-1.12,0-2.25.32-3.24.98-1.59,1.12-2.56,2.97-2.57,4.94h0Zm2.81-2c.52-1.06,1.61-1.74,2.82-1.74h0c.98-.04,1.95.33,2.66,1.01.24.23.47.46.7.7.19.19.38.39.58.58.06.07.1.1.14.14.47.41,1.17.36,1.58-.11.35-.34.66-.65.97-.97l.22-.23c.93-1.02,2.39-1.4,3.72-.95,1.31.43,2.24,1.6,2.36,2.98.29,1.37-.08,2.82-1.02,3.93-1.89,2.39-4.08,4.56-6.5,6.43-.17.15-.38.23-.6.23-.02,0-.04,0-.06,0-.24-.01-.46-.12-.62-.3-2.37-1.81-4.58-3.99-6.48-6.42-1.24-1.47-1.43-3.6-.48-5.29Z"/><path class="cls-1" d="m29.09,36.19c.09,0,.14,0,.2,0,.29-.02.56-.15.76-.37.2-.22.29-.51.28-.8s-.15-.57-.37-.76c-.22-.2-.51-.3-.8-.28H11.66c-.08,0-.14,0-.19,0-.61.05-1.06.58-1.02,1.19.02.29.16.56.38.76s.51.29.81.26h17.44Z"/></svg>