<?xml version="1.0" encoding="UTF-8"?><svg id="_圖層_1" xmlns="http://www.w3.org/2000/svg" xmlns:xlink="http://www.w3.org/1999/xlink" viewBox="0 0 34.13 33.47"><defs><style>.cls-1{stroke:#3d61ab;stroke-width:.5px;}.cls-1,.cls-2{fill:#3d61ab;}.cls-3{fill:#ef821d;}.cls-3,.cls-4,.cls-2{stroke-width:0px;}.cls-4,.cls-5{fill:none;}.cls-5{stroke:#ef821d;stroke-width:2px;}.cls-6{clip-path:url(#clippath);}</style><clipPath id="clippath"><rect class="cls-4" x="1.19" y=".02" width="16.62" height="8.35"/></clipPath></defs><g id="_组_4721"><path id="_路径_9847" class="cls-2" d="m27.86,23.67c.4,0,.72-.32.72-.72,0-.4-.33-.72-.73-.71-.38,0-.69.3-.71.67-.02.4.3.74.7.76,0,0,.01,0,.02,0"/><path id="_路径_9848" class="cls-2" d="m27.27,15.87c-.01.77-.01,3.09,0,3.85,0,.49.24.78.64.83.46.06.8-.29.81-.85.01-.77,0-3.09,0-3.85"/><path id="_路径_9849" class="cls-1" d="m31.03,9.54c.51-.4.99-.83,1.46-1.28,1.13-1.01,1.62-2.56,1.29-4.04-.19-1.24-1.05-2.28-2.24-2.69-.22-.08-1.24-.26-2.25,0-.47.16-.91.43-1.26.78-.07.07-.12.12-.22.02-.53-.53-1.22-.87-1.97-.95,0,0-.55-.09-1.04.02-.65.11-1.25.42-1.72.88-1.4,1.52-1.49,3.84-.2,5.46.54.61,1.13,1.16,1.78,1.65.08.06.11.11.11.18l.65-.85c-.07.02-.13,0-.22-.08-.55-.42-1.06-.89-1.53-1.41-.49-.55-.77-1.26-.77-2-.04-.72.17-1.43.58-2.01.85-1.08,2.42-1.26,3.49-.4.16.12.3.26.42.42.04.05.08.11.12.17.12.22.41.3.63.18.08-.04.14-.1.18-.18.25-.36.58-.65.96-.85,1.2-.64,2.69-.18,3.33,1.03.12.23.21.48.25.73.29,1.19-.09,2.44-.99,3.27-.44.44-.94.83-1.41,1.24-.03.03-.06.04-.1.04l.58.89c-.02-.09.01-.15.1-.22"/><g id="_椭圆_128"><circle class="cls-4" cx="27.92" cy="11.79" r="4.14"/><circle class="cls-5" cx="27.92" cy="11.79" r="3.63"/></g><circle id="_椭圆_129" class="cls-3" cx="27.92" cy="11.79" r="1.26"/><g id="_组_4720"><g class="cls-6"><g id="_组_4720-2"><path id="_路径_9850" class="cls-3" d="m6.28.51C5.59.04,4.72-.11,3.9.08c-.35.05-.5.36-.53.72-.03.34.17.8-.09.98-.24.16-.67.04-1.02.04-.77,0-1.02.25-1.02,1.02,0,1.72-.01,3.45,0,5.17.01.12,0,.25-.07.35h1.56s-.02-.09-.02-.13c0-1.56,0-3.12,0-4.69,0-.16.03-.24.22-.25.31-.02.47.03.44.4-.11,1.48.46,1.42,1.47,1.38,1.04,0,1.96-.67,2.26-1.66.37-1.05.04-2.22-.83-2.91m-1.65,3.33V1.28c.91.07,1.36.49,1.37,1.25.01.79-.41,1.2-1.37,1.31"/><path id="_路径_9851" class="cls-3" d="m17.8,8.37c-.06-.11-.09-.24-.07-.36.02-1.74.01-3.47,0-5.21,0-.73-.25-.97-.98-.98-.06,0-.12,0-.19,0-.31-.02-.7.13-.9-.06-.18-.18-.04-.57-.05-.86v-.04c.04-.42-.27-.79-.69-.83-.05,0-.1,0-.15,0-.2,0-.4,0-.6,0-.95-.05-1.82.51-2.19,1.38-.44.89-.33,1.95.27,2.74.68.92,1.8,1.05,2.82.87.28-.05.49-.28.5-.57.03-.28.04-.57.02-.85-.03-.29.11-.31.34-.31.24,0,.31.06.3.31-.01,1.44,0,2.88,0,4.32.02.15,0,.3-.05.45h1.6Zm-3.39-4.52c-.97-.12-1.38-.53-1.37-1.31.01-.76.47-1.18,1.37-1.25v2.56Z"/></g></g></g><path id="_路径_9846" class="cls-2" d="m28.57,26.06c0-.1-.02-.19-.04-.29-.05-.27-.26-.48-.53-.53-.28-.07-.57.04-.74.28-.12.19-.17.41-.15.63-.02,1.01.04,2.02-.04,3.02-.21,1.75-1.8,2.99-3.54,2.78-1.65-.2-2.87-1.62-2.8-3.28,0-2.14,0-4.28,0-6.42,0-.32-.02-.63-.06-.94-.29-1.78-1.98-2.99-3.76-2.7-1.63.27-2.81,1.72-2.74,3.37-.01,2.61-.01,5.23,0,7.84.03.63-.22,1.24-.68,1.66-.58.56-1.44.71-2.17.36-.76-.3-1.26-1.04-1.23-1.86-.02-1.69,0-3.38,0-5.07q0-.62.62-.62c.73,0,.98-.25.98-.99,0-.89.02-1.78,0-2.66,0-.28.1-.36.34-.43,3.72-1.13,6.16-3.62,6.83-7.41.29-1.31.15-2.64.16-3.96,0-.69-.26-.96-.94-.94-.29.01-2.08.01-2.37,0-.7-.03-.95.25-.95.96,0,.69,0,1.39,0,2.08.04,2.9-2.27,5.28-5.17,5.32-.3,0-.6-.02-.89-.06-2.18-.39-3.88-2.08-4.29-4.25-.09-.93-.11-1.87-.07-2.8-.01-1.07-.12-1.2-1.2-1.25-.09,0-1.89.02-2.02,0C.24,7.86,0,8.01,0,8.38v3.72c.35,3.97,3.36,6.96,7.06,8.12.19.03.32.2.29.39,0,0,0,.01,0,.02-.01.91,0,1.82,0,2.73,0,.67.25.94.92.92.31,0,.35.1.35.37-.01,1.74,0,3.48,0,5.22,0,.51.09,1.02.29,1.49.76,1.78,2.82,2.6,4.59,1.84,1.29-.55,2.12-1.82,2.12-3.22,0-.63,0-1.26,0-1.9,0-2.04,0-4.08,0-6.13-.03-1.01.76-1.85,1.76-1.88,1.01-.03,1.85.76,1.88,1.76,0,.03,0,.05,0,.08.01,2.22,0,4.45,0,6.67,0,.3.02.61.06.91.38,2.53,2.74,4.28,5.27,3.91,2.16-.32,3.8-2.1,3.95-4.27.06-1.02.03-2.04.03-3.06m-18.65-3.23c-.29-.02-.58-.02-.87,0-.19.01-.25-.06-.24-.25.01-.46,0-.92,0-1.39v-1.28c0-.63-.18-.84-.8-.97-3.07-.55-5.54-2.86-6.29-5.89-.25-1.15-.33-2.34-.26-3.51,0-.16.05-.22.21-.21.37.02.84-.14,1.1.06.23.19.08.66.07,1.01-.09,1.48.27,2.94,1.04,4.21,1.99,3.11,6.12,4.02,9.23,2.03.46-.3.89-.65,1.26-1.05,1.18-1.28,1.83-2.96,1.81-4.71,0-.44,0-.88,0-1.31,0-.19.06-.26.25-.25.36.03,1-.08,1.05.08.17.18.05.65.06.98.1,1.56-.23,3.12-.97,4.49-1.14,2.12-3.18,3.61-5.54,4.05-.65.14-.81.33-.81.99,0,.86,0,1.73,0,2.59,0,.24-.06.32-.3.3"/></g></svg>