<?xml version="1.0" encoding="UTF-8"?><svg id="_圖層_1" xmlns="http://www.w3.org/2000/svg" viewBox="0 0 25.67 19.22"><defs><style>.cls-1{fill:#ef821d;}.cls-1,.cls-2{stroke-width:0px;}.cls-2{fill:#3d61ab;}</style></defs><path class="cls-2" d="m17.7,8.75l-3.43.03h-2.69s.05-.04.09-.05c0,0,2.38-1.26,3.1-1.65.23-.13.4-.34.47-.59.07-.25.04-.52-.08-.74-.28-.55-.57-1.1-.89-1.69-.13-.23-.34-.39-.6-.46-.09-.02-.17-.03-.26-.03-.17,0-.34.04-.49.13-.25.13-.5.26-.75.39l-.7.37-.05.06h-.02c-.08-.98-.59-1.61-1.45-1.77-.11-.02-.21-.02-.32-.02-.44,0-.87.13-1.24.38-.68.41-1.26.99-1.69,1.67-.04.08-.13.13-.25.13h0c-.5,0-.97.25-1.25.67-.05.08-.14.14-.28.14h-.17c-.87,0-1.73.22-2.49.64-.71.37-1.09,1.15-.93,1.94.08.42.32.79.65,1.03.04.03.08.07.12.1-.51.27-1,.53-1.49.79-.06.02-.11.05-.16.08-.22.15-.37.37-.43.63-.05.26,0,.53.14.74l.78,1.46c.23.42.53.64.9.64.19,0,.4-.06.62-.18l.84-.45.4-.25.19-.1v5.18c0,.81.44,1.25,1.24,1.25h12.13c.3-.03.57-.18.76-.41.19-.24.28-.53.24-.82v-8.64c0-.45-.15-.61-.6-.61h.04ZM9.1,3.76c.15-.07.33-.11.5-.12v-.03.03c.15,0,.29.04.42.1.45.23.62.79.39,1.23-.02.03-.05.06-.09.08l-.33.18c-.59.31-1.19.63-1.78.95l-.05.04h-.01l-.05-.09c-.13-.33-.34-.63-.6-.92.39-.62.94-1.13,1.59-1.47v.02Zm-1.02,3.52l.05-.04h0v.02l.04.06c.26.49.56,1.08.88,1.65l.05.08h0l-.09.04c-.59.31-1.21.63-1.91.95-.22-.43-.8-1.51-.8-1.51l-.15-.22.22-.12c.58-.31,1.14-.6,1.7-.91h.01Zm-1.83-1.41c.07-.03.15-.04.23-.04.2,0,.4.1.53.26.14.15.24.34.29.53,0,.09-.08.12-.24.18-.07.02-.14.05-.21.09-.11.07-.22.13-.36.2-.1.05-.19.1-.29.16l-.05.05h-.01l-.05-.1c-.14-.21-.24-.45-.28-.69,0-.28.17-.54.43-.64h.01Zm-3.65,1.38c.44-.32.97-.52,1.52-.57.12-.02.23-.03.4-.05l.13-.04v.02h.08s.07,0,.13.02c.05.03.08.11.1.24.05.28.16.54.32.78l.02-.02-.04.12c-.49.26-.99.52-1.47.78l-.65.35-.1.03c-.35-.13-.71-.3-.81-.71-.08-.36.06-.73.36-.94h0Zm-.58,5.56v.03l-.11.02c-.07,0-.09-.03-.12-.1l-.8-1.5c-.03-.06-.04-.1-.03-.13,0-.03.05-.07.11-.1,1.42-.75,2.84-1.51,4.24-2.25l.07-.05v.03l.06.08c.28.55.58,1.1.87,1.63l-.04.11-4.24,2.25v-.02Zm7.47,5.5s-.04.02-.12.02h-4.22c-.28,0-.32-.04-.32-.33v-5.5c0-.1.05-.19.14-.22l4.42-2.34s.11-.06.11-.08v8.31c0,.08,0,.12-.03.14h.02Zm-.5-11.39l.03-.12,4.26-2.26s.07-.03.1-.04c.05,0,.09.04.12.1l.16.3c.21.41.44.84.66,1.25.02.04.03.08.02.1-.01.04-.07.07-.15.11l-3.47,1.84c-.24.13-.49.26-.82.42,0,0-.03-.02-.06-.08,0,0-.59-1.15-.85-1.62Zm2.79,2.85v8.44c0,.07-.01.09-.12.12h-.56c-.17,0-.35,0-.54.01-.06,0-.09,0-.11-.02-.02-.02-.03-.06-.03-.14v-8.35c0-.09.01-.12.03-.14.02-.02.05-.02.1-.02h1.14s.08,0,.09,0c0,.01,0,.09,0,.09Zm5.6,8.2c0,.32-.04.35-.35.35h-4.21c-.07,0-.1-.01-.11-.02-.02-.02-.03-.06-.03-.13v-8.37c0-.13,0-.14.14-.14h4.41c.08,0,.11.01.12.03.02.02.02.07.02.15v8.13h0Z"/><g id="_路径_8197"><path class="cls-1" d="m22.39,5.43c.02.44-.14.87-.45,1.19-.5.52-1.02,1.03-1.53,1.53-.13.17-.37.21-.54.08-.03-.02-.06-.05-.08-.09-.54-.53-1.09-1.07-1.62-1.61-.53-.56-.51-1.44.05-1.98.47-.44,1.17-.51,1.72-.16.1.09.25.09.35,0,.43-.3.99-.32,1.43-.06.4.22.66.63.68,1.09m-.77.09c.02-.31-.22-.58-.53-.59-.07,0-.13,0-.2.03-.19.05-.35.16-.49.3-.14.16-.38.18-.54.04-.14-.1-.27-.2-.42-.29-.21-.12-.47-.11-.66.04-.18.13-.26.37-.19.58.03.18.11.34.24.46.39.39.78.78,1.17,1.18.07.07.11.09.19,0,.39-.4.79-.8,1.18-1.2.15-.15.24-.35.24-.56"/></g><g id="_路径_8198"><path class="cls-1" d="m21.72,2v.78c0,.38-.14.52-.52.53-.54,0-1.07,0-1.61.01-.57.01-1.06-.39-1.16-.95-.12-.56.19-1.11.74-1.31.15-.03.26-.15.3-.29.19-.55.77-.87,1.33-.74.54.12.93.61.92,1.17v.81h0m-1.51.47h.54c.08,0,.14,0,.13-.11.02-.4.01-.8-.03-1.19-.04-.17-.1-.36-.31-.35s-.29.18-.32.38c-.08.51-.1.52-.57.59-.19.03-.4.1-.4.34s.21.31.4.34c.19.01.38.01.57,0"/></g><g id="_路径_8199"><path class="cls-1" d="m22.6,2.65c-.02-.53.36-1,.88-1.11.52-.1,1.03.19,1.21.68.04.13.15.24.28.27.51.19.8.73.68,1.26-.13.52-.63.88-1.16.84-.46-.03-.93-.01-1.39-.02-.35,0-.47-.13-.47-.48l-.03-1.44Zm1.42,1.13h0c.19.02.38,0,.58,0,.16,0,.29-.12.31-.28.02-.19-.12-.27-.28-.3-.08-.02-.16-.03-.24-.03-.19,0-.35-.17-.36-.36-.01-.07,0-.15-.02-.22-.04-.16-.11-.33-.3-.33-.2,0-.28.18-.3.35-.02.18-.02.37-.01.55,0,.2-.09.48.04.6.11.1.38.02.58.02"/></g></svg>