<?xml version="1.0" encoding="UTF-8"?><svg id="_圖層_1" xmlns="http://www.w3.org/2000/svg" viewBox="0 0 50.24 34.25"><defs><style>.cls-1{fill:#ef821d;}.cls-1,.cls-2{stroke-width:0px;}.cls-2{fill:#365d96;}</style></defs><g id="_组_4974"><path id="_路径_10588" class="cls-2" d="m29.84,21.4c3.95-2.61,5.03-7.92,2.42-11.87-2.61-3.95-7.92-5.03-11.87-2.42-3.95,2.61-5.03,7.92-2.42,11.87.64.96,1.46,1.78,2.42,2.42-5.39,1.98-8.97,7.11-8.98,12.85h2.28c-.05-6.31,5.02-11.46,11.33-11.51,6.31-.05,11.46,5.02,11.51,11.33,0,.06,0,.12,0,.18h2.28c0-5.74-3.59-10.86-8.98-12.85m-11-7.14c0-3.47,2.81-6.28,6.28-6.28s6.28,2.81,6.28,6.28-2.81,6.28-6.28,6.28h0c-3.47,0-6.28-2.81-6.28-6.28"/><path id="_路径_10589" class="cls-1" d="m41.26,15.69c3.94-2.61,5.02-7.92,2.41-11.86-2.61-3.94-7.92-5.02-11.86-2.41-1.08.72-1.99,1.67-2.65,2.79.71.28,1.39.64,2.02,1.07.4-.66.92-1.23,1.53-1.7,2.75-2.1,6.69-1.56,8.79,1.19,2.1,2.75,1.56,6.69-1.19,8.79-1.09.83-2.41,1.28-3.78,1.28-.2,0-.4-.01-.6-.03-.04.81-.17,1.61-.38,2.38.33-.03.65-.07.98-.07,6.29.04,11.38,5.12,11.42,11.41h2.28c-.01-5.74-3.59-10.86-8.98-12.84"/><path id="_路径_10590" class="cls-1" d="m13.7,17.12c.33,0,.66.04.98.07-.22-.78-.35-1.58-.38-2.38-.2.02-.4.03-.6.03-3.47.01-6.29-2.79-6.31-6.26-.01-3.47,2.79-6.29,6.26-6.31,1.4,0,2.76.46,3.86,1.31.61.47,1.13,1.05,1.53,1.7.63-.43,1.31-.79,2.02-1.07-.4-.68-.89-1.3-1.47-1.84-3.42-3.26-8.83-3.14-12.1.28-3.26,3.42-3.14,8.83.28,12.1.37.35.76.67,1.19.95C3.59,17.67.01,22.8,0,28.53h2.28c.04-6.29,5.13-11.38,11.42-11.41"/></g></svg>