<?xml version="1.0" encoding="UTF-8"?><svg id="_圖層_1" xmlns="http://www.w3.org/2000/svg" viewBox="0 0 36.77 20.07"><defs><style>.cls-1{fill:#ef821d;}.cls-1,.cls-2,.cls-3{stroke-width:0px;}.cls-2{fill:#fff;}.cls-3{fill:#3d61ab;}</style></defs><g id="_组_3388"><g id="_组_3376"><g id="_路径_8202"><path class="cls-3" d="m8.24,10.02C8.25,4.48,12.75,0,18.29,0c5.54,0,10.03,4.51,10.02,10.05,0,5.54-4.5,10.03-10.04,10.02-5.53,0-10.02-4.47-10.03-10.01,0-.01,0-.03,0-.04m1.07-.03c-.02,4.96,3.98,9,8.94,9.02,4.96.02,9-3.98,9.02-8.94.02-4.95-3.96-8.98-8.91-9.02-4.94-.06-9,3.9-9.06,8.84,0,.03,0,.07,0,.1"/></g><g id="_椭圆_114"><circle class="cls-2" cx="18.5" cy="10.27" r="1.14"/><path class="cls-1" d="m18.5,11.41c-.63,0-1.14-.51-1.14-1.14s.51-1.14,1.14-1.14,1.14.51,1.14,1.14-.51,1.14-1.14,1.14Zm0-1.62c-.27,0-.48.22-.48.48s.22.48.48.48.48-.22.48-.48-.22-.48-.48-.48Z"/></g><g id="_直线_35"><path class="cls-1" d="m17.59,10.6h-3.12c-.18,0-.33-.15-.33-.33s.15-.33.33-.33h3.12c.18,0,.33.15.33.33s-.15.33-.33.33Z"/></g><g id="_直线_36"><path class="cls-1" d="m18.5,9.71c-.18,0-.33-.15-.33-.33v-5.04c0-.18.15-.33.33-.33s.33.15.33.33v5.04c0,.18-.15.33-.33.33Z"/></g><g id="_组_3372"><g id="_组_3371"><g id="_椭圆_117"><circle class="cls-3" cx="18.5" cy="2.52" r=".68"/></g><g id="_椭圆_118"><circle class="cls-3" cx="18.5" cy="17.57" r=".68"/></g></g><g id="_组_3367"><g id="_椭圆_115"><circle class="cls-3" cx="10.75" cy="10.27" r=".68"/></g><g id="_椭圆_116"><circle class="cls-3" cx="25.8" cy="10.27" r=".68"/></g></g><g id="_组_3368"><g id="_椭圆_115-2"><circle class="cls-3" cx="12.86" cy="4.63" r=".68"/></g><g id="_椭圆_116-2"><circle class="cls-3" cx="23.5" cy="15.27" r=".68"/></g></g><g id="_组_3369"><g id="_椭圆_115-3"><circle class="cls-3" cx="12.86" cy="15.27" r=".68"/></g><g id="_椭圆_116-3"><circle class="cls-3" cx="23.5" cy="4.63" r=".68"/></g></g></g></g><g id="_路径_8229"><path class="cls-1" d="m7.39,10.54c0-.41-.33-.74-.74-.74s-.74.33-.74.74h0s-1.7.8-1.7.8c-.11.05-.16.18-.1.29.05.11.18.16.3.11l1.64-.77c.09.13.23.22.38.27v3.13c0,.12.09.22.21.22,0,0,0,0,0,0,.12,0,.22-.1.22-.22v-3.13c.31-.09.52-.38.52-.7m-.75.26c-.16,0-.29-.13-.29-.29,0-.16.13-.29.29-.29s.29.13.29.29c0,0,0,0,0,0,0,.16-.13.29-.29.29"/></g><g id="_路径_8230"><path class="cls-3" d="m7.09,5.54c0-.24-.2-.44-.44-.44-.24,0-.44.2-.44.44,0,.24.2.44.44.44.24,0,.44-.19.44-.44,0,0,0,0,0,0"/></g><g id="_路径_8231"><path class="cls-3" d="m6.21,15.25c0,.24.2.44.44.44s.44-.2.44-.44c0-.24-.2-.44-.44-.44,0,0,0,0,0,0-.24,0-.44.2-.44.44,0,0,0,0,0,0"/></g><g id="_路径_8232"><path class="cls-3" d="m1.21,10.54c0,.24.2.44.44.44.24,0,.44-.2.44-.44,0-.24-.2-.44-.44-.44-.24,0-.44.2-.44.44,0,0,0,0,0,0"/></g><g id="_路径_8233"><path class="cls-3" d="m3.32,6.59c-.18-.17-.46-.16-.63.02-.16.17-.16.43,0,.6.17.17.45.17.63,0,.17-.17.17-.45,0-.62"/></g><g id="_路径_8234"><path class="cls-3" d="m2.7,13.45c-.17.17-.17.45,0,.62,0,0,0,0,0,0,.18.16.46.15.62-.03.15-.17.15-.43,0-.6-.17-.17-.45-.17-.62,0,0,0,0,0,0,0"/></g><g id="_路径_8235"><path class="cls-3" d="m7.51,16.11h0c-.07-.01-.14-.01-.21,0-.25.04-.5.06-.76.07-.48,0-.97-.05-1.44-.17h0c-2.58-.65-4.39-2.98-4.38-5.64v-.07c.04-3.19,2.65-5.74,5.84-5.7.25,0,.51.03.76.07.04,0,.09.01.13,0h.02s.05,0,.05,0h.01s.08-.02.11-.04c.03-.02.06-.04.09-.07l.02-.03s.03-.04.04-.07c.02-.04.02-.08.03-.12,0-.04,0-.08-.03-.12-.01-.02-.02-.04-.04-.06l-.02-.03s-.05-.05-.09-.07c-.04-.02-.07-.03-.11-.04h0c-.34-.06-.68-.09-1.02-.1C2.94,3.91.04,6.8.03,10.38c0,0,0,0,0,0v.02c0,2.87,1.9,5.4,4.66,6.2h0c.58.16,1.18.25,1.79.25.34,0,.69-.03,1.02-.09h0c.18-.03.31-.19.29-.37-.02-.15-.14-.27-.29-.29"/><path class="cls-3" d="m6.49,16.89c-.6,0-1.2-.09-1.77-.25h-.03C1.93,15.83,0,13.27,0,10.4v-.02C0,6.79,2.92,3.88,6.51,3.88h0c.34,0,.69.03,1.03.09h.03s.07.03.1.05c.04.02.07.04.1.07l.03.04s.03.04.04.07c.02.04.03.09.03.13,0,.05-.01.09-.03.14-.01.03-.03.05-.05.07l-.02.03s-.06.06-.1.08c-.03.02-.06.03-.1.04h0s-.04,0-.04,0h-.05s-.03,0-.03,0c-.04,0-.09,0-.13,0-.25-.04-.5-.06-.76-.07-.02,0-.04,0-.07,0C3.37,4.62.8,7.15.76,10.29v.07c-.01,2.66,1.78,4.96,4.36,5.61h.06s0,.02,0,.02c.43.1.87.16,1.31.16.02,0,.04,0,.06,0,.25,0,.51-.03.75-.07.07-.01.15-.01.22,0h0c.17.02.3.15.32.32.02.19-.11.36-.29.39h0s-.03.01-.03.01c-.34.06-.69.09-1.03.09Zm-1.81-.33h.03c.58.17,1.18.26,1.78.26.33,0,.67-.03.99-.08h0s.03-.01.03-.01c.16-.02.28-.16.26-.32-.02-.14-.12-.24-.26-.26v-.03s0,.03,0,.03c-.07,0-.14,0-.2,0-.25.04-.51.06-.76.07-.49,0-.97-.05-1.45-.17h-.06s0-.02,0-.02c-2.57-.67-4.36-2.99-4.35-5.66v-.07c.04-3.18,2.64-5.74,5.81-5.74.02,0,.04,0,.07,0,.26,0,.51.03.77.07.04,0,.08.01.12,0h.02s.06,0,.06,0c.04,0,.07-.02.1-.03.03-.02.06-.04.08-.06l.02-.03s.03-.04.04-.06c.01-.03.02-.07.02-.11,0-.04,0-.07-.02-.11,0-.02-.02-.04-.04-.06l-.02-.03s-.04-.04-.07-.06c-.03-.02-.07-.03-.1-.04h-.03c-.33-.06-.66-.09-.99-.09h0C2.96,3.95.07,6.83.07,10.38v.02c0,2.83,1.9,5.36,4.61,6.16h0Z"/></g><g id="_路径_8236"><path class="cls-3" d="m29.68,5.54c0-.24.2-.44.44-.44.24,0,.44.2.44.44,0,.24-.2.44-.44.44,0,0,0,0,0,0-.24,0-.44-.2-.44-.44,0,0,0,0,0,0"/></g><g id="_路径_8237"><path class="cls-3" d="m30.56,15.25c0,.24-.2.44-.44.44-.24,0-.44-.2-.44-.44,0-.24.2-.44.44-.44.24,0,.44.19.44.44,0,0,0,0,0,0"/></g><g id="_路径_8238"><path class="cls-3" d="m35.56,10.54c0,.24-.2.44-.44.44-.24,0-.44-.2-.44-.44,0-.24.2-.44.44-.44.24,0,.44.2.44.44,0,0,0,0,0,0"/></g><g id="_路径_8239"><path class="cls-3" d="m33.45,6.59c.17-.17.45-.17.62,0,0,0,0,0,0,0,.16.18.15.46-.03.62-.17.15-.43.15-.6,0-.17-.17-.17-.45,0-.62,0,0,0,0,0,0"/></g><g id="_路径_8240"><path class="cls-3" d="m34.07,13.45c.17.17.17.45,0,.62,0,0,0,0,0,0-.18.16-.46.15-.62-.03-.15-.17-.15-.43,0-.6.17-.17.45-.17.62,0,0,0,0,0,0,0"/></g><g id="_路径_8241"><path class="cls-3" d="m29.26,16.11h0c.07-.01.14-.01.21,0,.25.04.5.06.76.07.48,0,.97-.05,1.44-.17h0c2.58-.65,4.39-2.98,4.38-5.64v-.07c-.04-3.19-2.65-5.74-5.84-5.7-.25,0-.51.03-.76.07-.04,0-.09.01-.13,0h-.02s-.05,0-.05,0h-.01s-.08-.02-.11-.04c-.03-.02-.06-.04-.09-.07l-.02-.03s-.03-.04-.04-.07c-.02-.04-.02-.08-.03-.12,0-.04,0-.08.03-.12.01-.02.02-.04.04-.06l.02-.03s.05-.05.09-.07c.04-.02.07-.03.11-.04h0c.34-.06.68-.09,1.03-.1,3.57,0,6.48,2.89,6.48,6.46,0,0,0,0,0,0v.02c0,2.87-1.9,5.4-4.66,6.2h0c-.58.16-1.18.25-1.79.25-.34,0-.69-.03-1.02-.09h0c-.18-.03-.31-.19-.29-.37.02-.15.14-.27.29-.29"/><path class="cls-3" d="m30.28,16.89c-.34,0-.69-.03-1.03-.09h-.03c-.08-.03-.16-.07-.21-.14-.06-.07-.09-.17-.08-.26.02-.17.15-.3.32-.32h0c.07-.01.15-.01.22,0,.25.04.5.06.75.07.02,0,.04,0,.06,0,.44,0,.88-.05,1.31-.16l.05-.02c2.58-.65,4.37-2.95,4.36-5.61v-.07c-.04-3.14-2.61-5.67-5.74-5.67-.02,0-.04,0-.07,0-.25,0-.51.03-.76.07-.04,0-.09.01-.13,0h-.02s-.06,0-.06,0h-.04s0,0,0,0c-.03,0-.07-.02-.1-.04-.04-.02-.07-.05-.1-.08l-.02-.03s-.03-.05-.04-.07c-.02-.04-.03-.09-.03-.14,0-.05.01-.09.03-.13.01-.03.03-.05.04-.07l.02-.03s.06-.06.1-.08c.03-.02.06-.03.1-.04h0s.03-.01.03-.01c.34-.06.69-.09,1.03-.09h0c3.58,0,6.5,2.91,6.51,6.5v.02c0,2.87-1.93,5.43-4.69,6.23h-.03s0,0,0,0c-.58.17-1.17.25-1.77.25Zm-.99-.15c.33.05.66.08.99.08.6,0,1.2-.09,1.78-.26h.03s0,0,0,0c2.72-.8,4.61-3.33,4.61-6.16v-.02c0-3.55-2.89-6.43-6.44-6.43h0c-.33,0-.67.03-.99.08h-.03s-.07.03-.1.05c-.03.02-.06.03-.08.06l-.02.03s-.03.04-.04.06c-.01.03-.02.07-.02.11,0,.04,0,.07.02.11,0,.02.02.04.04.06l.02.03s.05.05.08.06c.03.02.07.03.1.03h.06s.02,0,.02,0h0s.08,0,.12,0c.25-.04.51-.06.77-.07,3.2-.03,5.84,2.54,5.88,5.73v.07c.01,2.67-1.77,4.98-4.35,5.66l-.06.02c-.47.12-.96.18-1.45.17-.26,0-.51-.03-.76-.07-.07-.01-.14,0-.2,0v-.03s0,.03,0,.03c-.14.02-.24.12-.26.26,0,.08.01.15.06.22.05.06.12.1.2.11h.03Z"/></g><g id="_路径_8242"><path class="cls-1" d="m30.12,9.8c-.4,0-.73.32-.74.73,0,.32.21.61.52.71v3.13c0,.12.1.22.22.22s.22-.1.22-.22h0v-3.13c.13-.05.24-.13.33-.23.11-.14.17-.31.18-.49-.01-.39-.33-.7-.72-.71m.01,1c-.16,0-.29-.13-.29-.29s.13-.29.29-.29.29.13.29.29h0c0,.16-.13.29-.29.29"/></g><g id="_路径_8243"><path class="cls-1" d="m30.12,11.27c-.4,0-.73-.33-.73-.73s.33-.73.73-.73c.4,0,.73.33.73.73,0,.4-.33.73-.73.73,0,0,0,0,0,0m0-1.32c-.32,0-.58.26-.58.58,0,.32.26.58.58.58.32,0,.58-.26.58-.58,0,0,0,0,0,0,0-.32-.26-.58-.58-.58"/></g></g></svg>