<?xml version="1.0" encoding="UTF-8"?><svg id="_圖層_1" xmlns="http://www.w3.org/2000/svg" xmlns:xlink="http://www.w3.org/1999/xlink" viewBox="0 0 23.34 19.87"><defs><style>.cls-1{fill:#ef821d;}.cls-1,.cls-2,.cls-3{stroke-width:0px;}.cls-2{fill:none;}.cls-3{fill:#3d61ab;}.cls-4{clip-path:url(#clippath);}</style><clipPath id="clippath"><rect class="cls-2" x="0" y="0" width="23.34" height="19.86"/></clipPath></defs><g class="cls-4"><g id="_组_3385-2"><path id="_路径_8248" class="cls-3" d="m23.31,10.74c-.07-.22-.3-.35-.52-.28-.13.03-.26.1-.4.14-.23.09-.48.1-.72.03.04-.05.07-.09.1-.12.55-.53.8-1.31.64-2.07-.12-.68-.53-1.1-1.17-1.13-.77-.04-1.24.3-1.4,1.02-.17.7-.07,1.43.26,2.06.04.07.16.15.06.22-.11.1-.25.16-.4.17-.11,0-.07-.16-.09-.24-.39-1.95-1.58-3.65-3.28-4.67-.11-.08-.24-.12-.37-.1-.24.04-.41.26-.38.51.02.14.11.27.24.33.54.31,1.03.71,1.44,1.17,1.51,1.75,1.99,3.77,1.04,5.8-.39.87-1.03,1.61-1.83,2.11-.24.12-.39.38-.37.65.02.81,0,1.63.01,2.44,0,.15-.04.19-.19.19-.77,0-1.54,0-2.31,0-.15,0-.2-.04-.19-.19.01-.4,0-.81,0-1.21,0-.43-.18-.6-.6-.54-1.41.19-2.84.18-4.24-.03-.24-.05-.47.09-.53.33,0,.04-.01.09-.01.13,0,.41-.01.82,0,1.24,0,.21-.04.29-.27.28-.72-.02-1.44-.02-2.16,0-.25,0-.28-.08-.28-.3.01-.78,0-1.56.01-2.34.02-.31-.14-.6-.41-.75-.99-.64-1.79-1.54-2.31-2.6-.08-.2-.28-.33-.5-.31-.37,0-.74,0-1.1,0-.13,0-.18-.03-.18-.17,0-.78,0-1.56,0-2.34,0-.16.06-.18.2-.18.37,0,.74,0,1.1,0,.22.02.42-.12.48-.33.32-.79.84-1.49,1.5-2.03.27-.18.37-.53.23-.83-.23-.7-.43-1.4-.65-2.16.8.13,1.55.44,2.2.92.12.1.23.22.31.35.11.22.38.32.61.2.01,0,.03-.01.04-.02.21-.14.27-.42.13-.64,0-.01-.02-.02-.03-.03-.19-.3-.45-.56-.76-.76-.88-.57-1.89-.9-2.93-.96-.54-.03-.73.21-.58.72.23.79.47,1.57.71,2.36.06.13.02.28-.1.36-.56.5-1.01,1.1-1.34,1.77-.05.12-.17.2-.3.18-.4,0-.81,0-1.21,0-.25-.04-.48.14-.52.39,0,.04,0,.09,0,.13,0,1.15,0,2.3,0,3.44-.04.25.13.48.38.52.04,0,.09,0,.13,0,.42,0,.84,0,1.26,0,.11-.01.22.05.27.15.56.99,1.33,1.84,2.26,2.48.13.08.2.22.18.37,0,.91,0,1.82,0,2.73,0,.38.17.55.54.55,1.14,0,2.28,0,3.42,0,.26.04.5-.14.53-.4,0-.05,0-.09,0-.14,0-.39,0-.79,0-1.18,0-.12.01-.19.17-.17,1.08.12,2.17.12,3.25,0,.15-.02.17.04.17.17,0,.38,0,.75,0,1.13,0,.43.16.58.59.58,1.1,0,2.21,0,3.31,0,.43,0,.58-.15.58-.59,0-.87,0-1.74,0-2.6,0-.16.07-.3.2-.39,1.42-1.03,2.32-2.64,2.47-4.39,0-.11.07-.2.18-.21.28-.07.55-.19.79-.34.1-.07.23-.07.33,0,.71.37,1.41.25,2.09-.07.2-.09.29-.33.2-.54m-2.37-.69c-.29-.48-.37-1.06-.21-1.61.06-.24.26-.25.46-.24.2,0,.27.12.31.29.17.59-.06,1.21-.56,1.56"/><path id="_路径_8249" class="cls-1" d="m8.93,6.21c-.57-.59-.88-1.37-.87-2.19,0-1.73,1.42-3.13,3.15-3.13,1.73,0,3.13,1.42,3.13,3.15,0,.84-.35,1.65-.95,2.24-.08.09-.2.14-.33.14l1.19.29c1.47-1.68,1.3-4.24-.38-5.71-1.68-1.47-4.24-1.3-5.71.38-1.29,1.48-1.34,3.67-.11,5.2l1.31-.19c-.16.01-.32-.05-.43-.18"/><path id="_路径_8250" class="cls-3" d="m7.43,7.72c.88-.28,1.78-.45,2.7-.5,1.55-.1,3.08-.04,4.52.65.21.13.48.07.61-.13.01-.02.02-.04.03-.06.1-.22,0-.49-.22-.6-.02,0-.04-.02-.06-.02-.25-.12-.51-.22-.77-.33h0s-1.19-.29-1.19-.29c-.04,0-.07,0-.11,0-1.16-.17-2.34-.19-3.51-.04-.03,0-.05,0-.08,0l-1.31.19h0c-.31.1-.6.18-.89.28-.24.04-.41.27-.37.51s.27.41.51.37c.04,0,.08-.02.11-.03"/></g></g></svg>