<?xml version="1.0" encoding="UTF-8"?><svg id="_圖層_1" xmlns="http://www.w3.org/2000/svg" viewBox="0 0 38.01 34.67"><defs><style>.cls-1{fill:#ef821d;}.cls-1,.cls-2{stroke-width:0px;}.cls-2{fill:#3d61ab;}</style></defs><g id="_组_4975"><path class="cls-1" d="m16.54,15.71c-.08.11-.17.22-.25.33-.07,0-.14-.02-.23-.02-.68,0-1.35,0-2.03,0s-1.41,0-2.12,0c-.47,0-.65.17-.66.62,0,1.4,0,2.79,0,4.19,0,.46.18.65.64.66h0c1.4,0,2.79,0,4.19,0,.47,0,.64-.18.64-.64,0-1.26,0-2.51,0-3.77.19-.26.39-.51.58-.77.12-.13.18-.3.17-.47-.01-.05-.03-.1-.05-.15-.19-.37-.59-.38-.89,0Zm-.82,4.43c0,.23-.04.34-.31.33-.95-.02-1.91-.01-2.86,0-.22,0-.27-.07-.27-.28.01-.48,0-.97,0-1.45s.01-.94,0-1.41c0-.23.07-.3.3-.3h0c.94,0,1.88,0,2.82,0,.05,0,.1,0,.13.01-.4.53-.8,1.05-1.18,1.58-.17.23-.21.22-.41.04-.26-.23-.05-.04-.56-.52-.24-.22-.34-.26-.55-.14-.32.19-.27.55-.04.81.32.36.67.71,1.04,1.02h0c.35.33.54.41.83.02.36-.47.71-.94,1.06-1.42,0,.57,0,1.14,0,1.71Z"/><path class="cls-1" d="m16.54,4.97c-.11.15-.22.3-.33.44-.05,0-.09,0-.15,0-.68,0-1.35,0-2.03,0s-1.41,0-2.12,0c-.47,0-.65.17-.66.62,0,1.4,0,2.79,0,4.19,0,.46.18.65.64.66h0c1.4,0,2.79,0,4.19,0,.47,0,.64-.18.64-.64,0-1.3,0-2.59,0-3.89.19-.26.39-.51.58-.77.12-.13.18-.3.17-.47-.01-.05-.03-.1-.05-.15-.19-.37-.59-.38-.89,0Zm-.82,4.55c0,.23-.04.34-.31.33-.95-.02-1.91-.01-2.86,0-.22,0-.27-.07-.27-.28.01-.48,0-.97,0-1.45s.01-.94,0-1.41c0-.23.07-.3.3-.3h0c.94,0,1.88,0,2.82,0,.02,0,.03,0,.05,0-.37.49-.74.97-1.1,1.47-.17.23-.21.22-.41.04-.26-.23-.05-.04-.56-.52-.24-.22-.34-.26-.55-.14-.32.19-.27.55-.04.81.32.36.67.71,1.04,1.02h0c.35.33.54.41.83.02.36-.47.71-.94,1.06-1.42,0,.61,0,1.22,0,1.83Z"/><path class="cls-1" d="m18.63,9.96h4.88c.93,0,1.86,0,2.8,0h.04c.23,0,.79-.03.86-.67.02-.19-.03-.36-.15-.49-.15-.17-.41-.26-.75-.26v.2h0v-.2c-2.56,0-5.12,0-7.68,0-.23,0-.85,0-.89.68-.01.2.04.37.16.5.15.16.39.24.73.24Z"/><path class="cls-1" d="m18.59,7.18h.03v-.2s0,0,0,0h0v.2c.85,0,1.71,0,2.56,0h5.16c.31,0,.55-.09.7-.25.12-.13.17-.3.16-.48-.02-.31-.19-.69-.84-.69-2.59,0-5.18,0-7.77,0-.31,0-.55.08-.69.24-.12.13-.18.3-.16.5.04.67.62.69.85.69Z"/><path class="cls-1" d="m18.64,16.53c-.35,0-.59.08-.74.24-.12.12-.17.29-.16.49.03.7.67.7.88.7h7.72c.31,0,.55-.09.71-.26.12-.13.17-.3.16-.48-.04-.46-.34-.69-.88-.69-.92,0-1.85,0-2.77,0h-1.07s0,.2,0,.2h0v-.2h-3.84Z"/><path class="cls-1" d="m27.02,19.56c-.16-.16-.41-.24-.74-.24h-7.64c-.61,0-.92.24-.92.71,0,.2.06.37.18.49.15.16.39.23.73.23v-.2s0,0,0,0h0v.2h7.64c.83,0,.93-.49.93-.71,0-.19-.06-.35-.18-.48Z"/><path class="cls-2" d="m35.81,4.82h0s-1.54,0-1.54,0c-1.46,0-2.92,0-4.39.01,0,0-.01,0-.02,0-.16,0-.21-.02-.21-.01,0,0-.01-.05.01-.16.09-.47-.12-.95-.5-1.19-1.11-.9-2.29-1.86-3.41-2.84C25.29.2,24.66-.02,24.04,0c-3.65.02-7.31.02-10.96.02h-3.7c-.78,0-1.03.25-1.03,1.03v1c0,.87,0,1.75,0,2.62,0,.09,0,.14,0,.14-.02,0-.06.02-.14.01-1.72-.02-3.44-.01-5.17-.01h-.86C1.1,4.71.13,5.49.01,6.58c-.01.14-.01.28,0,.39v17.92c0,.27.01.53.05.8.29,1.6,1.67,2.75,3.28,2.75h.03c2.57.02,5.17.01,7.38,0,.08,0,.12,0,.13,0,0,.02,0,.05,0,.13-.02.81-.02,1.66,0,2.62,0,.06,0,.1,0,.11-.02,0-.04,0-.09,0-.37-.02-.74-.02-1.1-.01h-.45c-2.05,0-3.27,1.14-3.35,3.11v.27s1.55,0,1.55,0v-.26c-.01-.14,0-.28.02-.41.15-.71.82-1.21,1.57-1.15,4.36,0,8.72,0,13.08,0,.6,0,1.2,0,1.79,0,1.63,0,3.31.01,4.99-.03.86-.09,1.63.53,1.72,1.38,0,.07.01.13,0,.2v.26s1.52,0,1.52,0v-.25c.03-.81-.27-1.59-.83-2.18s-1.31-.93-2.13-.95c-.07,0-.14,0-.2,0h-.28c-.5,0-1-.01-1.5,0-.04,0-.06,0-.08,0,0-.02,0-.04,0-.08.02-.97.02-1.84,0-2.66,0-.06,0-.1,0-.11.02,0,.05-.01.14,0,2.07.01,4.13,0,6.2,0h.87c2.26,0,3.67-1.4,3.67-3.65V7.04c0-1.43-.78-2.22-2.2-2.22ZM8.33,13c0,3.7,0,7.89-.01,9.82-.03,1.12.86,2.06,1.98,2.08.04,0,.09,0,.12,0,5.71-.03,11.51-.03,17.22,0,1.11.05,2.05-.85,2.08-1.97v-.09c-.03-3.72-.03-15.35.02-15.79,0-.04,0-.07,0-.14-.02-.38.02-.52.04-.58.81-.12,2.74-.06,4.3,0,.71.02,1.35.05,1.78.05.54,0,.64.1.64.64v6.77c0,3.42,0,6.28,0,11.12h0c0,.62-.18,1.12-.52,1.46-.36.36-.92.56-1.61.56h0c-7.38,0-14.75-.02-22.13-.03-1.7,0-3.4,0-5.1.02-1.11,0-2.22.01-3.34.01-.81,0-1.34-.17-1.7-.54-.36-.36-.54-.91-.54-1.68V7.16c0-.75.04-.79.8-.79h1.47c1.47,0,2.94,0,4.41,0,.08,0,.12,0,.13,0,0,.02,0,.05,0,.11-.01.19-.01,2.6-.01,6.52ZM23.93,3.85v.27c0,.66.29.94,1,.94,1.03,0,2.06,0,3.09,0,.01,0,.02,0,.03,0,.05,0,.07,0,.08,0,0,.02,0,.05,0,.09,0,3.69-.01,8.65-.01,13.03v4.66c0,.39-.1.48-.5.48H10.4c-.41,0-.5-.09-.5-.52v-12.03s0-1.74,0-1.74c0-2.44,0-4.89,0-7.33,0-.11,0-.15,0-.15.01,0,.04-.01.14-.01h0c4.56.01,9.18.01,13.74,0,.11,0,.16.02.16.01,0,.01.02.05.01.18-.02.71-.01,1.42,0,2.13Zm.71-2.8h0s0,0,0,0h0Zm3.75,3.36h0s0,0,0,0h0Zm-.45-.25c-.65,0-2.51.03-3.05-.09,0-.43,0-1.46,0-2.24v-.55s3.21,2.88,3.21,2.88c-.05,0-.11,0-.17,0Zm-7.35,27.13h-1.6s-1.52,0-1.52,0c-1.64,0-3.29,0-4.93,0-.09,0-.13,0-.13,0,0-.02,0-.05,0-.12.02-.84.02-1.7,0-2.57,0-.09,0-.13,0-.13.01,0,.05-.01.12-.01h0c4.31.01,8.63.01,12.94,0,.09,0,.13,0,.13,0,0,.01.01.05,0,.13-.02.86-.02,1.71,0,2.53,0,.12,0,.16,0,.16,0,0-.05.03-.17.02v.26h0v-.26c-1.61-.01-3.23-.01-4.85-.01Z"/></g></svg>