<?xml version="1.0" encoding="UTF-8"?><svg id="_圖層_1" xmlns="http://www.w3.org/2000/svg" viewBox="0 0 725.67 725.67"><defs><style>.cls-1{fill:#e57f24;}.cls-1,.cls-2{stroke-width:0px;}.cls-2{fill:#d51;}</style></defs><path class="cls-1" d="m220.3,475.71c23.46,29.59,46.58,51.7,69.39,66.35,22.79,14.64,45.53,21.97,68.2,21.97,21.09,0,38.41-6.29,52-18.91,13.56-12.58,20.37-28.54,20.37-47.86,0-21.38-5.87-37.85-17.59-49.43-11.74-11.56-38.29-23.49-79.68-35.79-56.67-16.99-96.73-39.12-120.2-66.35-23.46-27.24-35.19-64.58-35.19-112.02,0-61.5,18.52-111.65,55.56-150.45,37.02-38.8,85.06-58.2,144.11-58.2,31.9,0,62.14,4.75,90.75,14.27,28.59,9.53,55.66,23.93,81.23,43.26l-49.41,126.1c-17.93-16.99-36.32-29.8-55.16-38.45-18.86-8.65-37.5-12.97-55.95-12.97s-34.39,5.06-46.25,15.17c-11.86,10.11-17.8,23.07-17.8,38.89s5.2,28.99,15.62,38.66c10.4,9.66,30.5,18.87,60.29,27.66l7.12,2.21c64.31,19.33,106.63,40.56,126.93,63.7,13.7,15.81,24.1,34.78,31.22,56.88,7.12,22.12,10.68,46.65,10.68,73.57,0,68.25-20.17,123.09-60.5,164.53-40.32,41.46-94.1,62.16-161.31,62.16-40.33,0-77.04-7.61-110.11-22.84-33.09-15.22-64.92-39.08-95.49-71.59l71.17-130.49Z"/><path class="cls-2" d="m430.25,497.29c0,19.33-6.8,35.29-20.37,47.86-13.59,12.62-30.91,18.91-52,18.91-22.67,0-45.4-7.33-68.2-21.97-22.81-14.65-45.93-36.76-69.39-66.35l-71.17,130.5c30.57,32.5,62.4,56.37,95.49,71.59,33.07,15.24,69.78,22.84,110.11,22.84,67.21,0,120.99-20.7,161.31-62.15,40.33-41.43,60.5-96.28,60.5-164.53,0-21.89-2.47-42.12-7.19-60.85l-194.44,13.3c18,7.28,30.63,14.41,37.75,21.43,11.72,11.58,17.59,28.04,17.59,49.43Z"/></svg>