<?xml version="1.0" encoding="UTF-8"?><svg id="_圖層_1" xmlns="http://www.w3.org/2000/svg" viewBox="0 0 36.79 33.87"><defs><style>.cls-1{fill:#fff;stroke-width:0px;}</style></defs><path class="cls-1" d="m2.83,6.35v-.02c0-.11,0-.22,0-.33,0-.24.01-.47-.01-.7-.01-.16-.02-.4.14-.56.15-.17.39-.19.6-.19,4.92,0,9.85.02,14.77,0,.73,0,1.47.06,2.2.18,5.54.96,9.74,5.54,10.2,11.15.36,3.72-1.06,7.46-3.79,10.01-.26.25-.54.48-.82.71h1.13c.9,0,1.8,0,2.7,0,.06,0,.12-.04.16-.1,2.76-3.36,3.93-7.71,3.22-11.96-.4-2.79-1.6-5.37-3.47-7.48-2.74-3.3-6.77-5.21-11.05-5.25-3.56-.06-7.17-.05-10.67-.04-1.49,0-2.98.01-4.48.01h-.11c-.06,0-.11,0-.17,0-.17.02-.31-.02-.41-.11-.15-.14-.15-.36-.15-.43,0-.26,0-.51,0-.77V.1s0-.07,0-.07c0,0,0-.02,0-.03,0,0-.01.01-.02.02l-.05.05L.06,3.1c-.06.06-.06.1-.04.11l2.81,3.14Z"/><path class="cls-1" d="m36.15,29.97h0s-2.15-2.42-2.15-2.42c0,0-.02-.03-.04-.04,0,.01,0,.03,0,.04v.34c0,.25-.01.5,0,.75.01.14,0,.35-.13.5-.14.15-.34.17-.52.17-5.08,0-10.15-.01-15.23-.01-1.16,0-2.31-.2-3.41-.56-5.63-1.77-9.24-7.31-8.57-13.18.28-2.73,1.5-5.32,3.43-7.28.35-.36.73-.7,1.12-1.02h-.88c-.98,0-1.96,0-2.94,0-.06,0-.13.04-.16.1-2.9,3.52-4.03,8.06-3.12,12.48,1.35,6.92,7.45,12.06,14.5,12.21,3.56.04,7.18.03,10.69.02,1.46,0,2.92,0,4.38,0h.11c.06,0,.12,0,.18,0,.03,0,.05,0,.07,0,.14,0,.25.04.33.12.15.14.15.35.14.42,0,.37,0,.75,0,1.12,0,.04,0,.07,0,.11,0,.01,0,.03,0,.04,0-.01.01-.02.02-.03.02-.03.05-.06.07-.08l1.08-1.2c.53-.6,1.07-1.19,1.61-1.79.06-.06.05-.11.03-.13-.22-.24-.42-.45-.61-.67Z"/><path class="cls-1" d="m26.34,18.13c.44-.05.48-.09.48-.54v-.47c0-.31,0-.62,0-.93,0-.36-.06-.42-.4-.45-.85-.01-1.6-.55-1.91-1.35-.35-.79-.18-1.71.43-2.34.04-.03.06-.05.07-.08.1-.14.07-.33-.07-.43-.32-.32-.61-.61-.9-.9l-.21-.2c-.26-.26-.35-.26-.63-.02-.29.27-.66.45-1.06.52-.08.02-.18.03-.27.03-1.19.07-2.23-.83-2.3-2.02-.05-.43-.08-.46-.51-.46h-1.41c-.39,0-.44.05-.47.41-.02.85-.55,1.6-1.36,1.9-.77.34-1.68.17-2.3-.42-.23-.2-.32-.22-.59.05-.34.34-.68.68-1.02,1.02-.28.29-.28.36-.03.65.33.36.53.84.54,1.35v.5s-.03-.03-.03-.03c-.04.23-.11.45-.22.66-.34.67-1.03,1.11-1.78,1.15-.4.03-.44.08-.44.48v1.44c0,.36.05.42.4.46.17.01.35.04.53.08.3.09.57.24.79.44.44.38.71.91.75,1.49.04.58-.14,1.15-.52,1.59-.27.33-.27.39.03.69.34.34.67.68,1.02,1.02.05.07.08.1.11.12.07.05.15.07.24.06.09-.01.16-.06.22-.13.39-.36.85-.56,1.33-.6.06,0,.12,0,.18,0,.52,0,1.01.18,1.41.52.44.38.71.9.76,1.48.05.45.08.48.53.48h1.41c.38,0,.43-.08.45-.39.01-.85.57-1.64,1.39-1.93.78-.33,1.69-.16,2.3.44.04.05.06.07.09.08.14.1.34.06.44-.09.39-.38.73-.72,1.08-1.08.26-.27.27-.35.03-.63-.32-.35-.52-.81-.56-1.29-.04-.58.14-1.14.52-1.58.38-.44.9-.71,1.48-.75Zm-4.79,1.99c-.85.84-1.97,1.31-3.17,1.31h-.05c-2.47-.02-4.46-2.04-4.44-4.51,0-2.48,2.02-4.49,4.5-4.49h.02c1.2,0,2.33.48,3.18,1.33s1.31,1.98,1.31,3.18c0,1.2-.48,2.33-1.33,3.18Z"/><path class="cls-1" d="m31.39,4.55h.04s.56,0,.56,0c.44,0,.87,0,1.31-.01.02,0,.04,0,.06,0,.14,0,.32.02.45.16.15.15.15.36.14.52-.01.23,0,.47,0,.71v.37s0,.03,0,.05c0-.01.02-.02.03-.04l2.68-3c.05-.06.11-.12.12-.15-.97-1.07-1.9-2.1-2.83-3.14,0,0,0,0-.01-.01v.31c0,.3-.02.6,0,.9,0,.12,0,.31-.13.44-.13.14-.31.15-.46.15-.89,0-1.79,0-2.68,0h-2.75c1.17.79,2.26,1.7,3.26,2.7.05.04.13.07.21.05Z"/><path class="cls-1" d="m5.39,29.3h-.05s-.56,0-.56,0c-.45,0-.89,0-1.34,0-.14,0-.33,0-.47-.15-.14-.14-.15-.34-.14-.48,0-.25,0-.51,0-.76v-.39s-.18.2-.18.2c-.08.1-.17.19-.25.29-.77.85-1.53,1.7-2.3,2.55-.06.07-.1.11-.1.14,0,0,0,.02.04.05.53.58,1.06,1.17,1.58,1.76l1.15,1.28s.04.04.06.07c0-.01,0-.02,0-.03v-.08s0-.19,0-.19c0-.28.01-.57,0-.85,0-.14,0-.35.14-.5.14-.15.35-.16.49-.15.45.02.9.01,1.35,0h4.04c-1.18-.8-2.28-1.72-3.29-2.73-.03-.03-.1-.05-.17-.03Z"/></svg>