<?xml version="1.0" encoding="UTF-8"?><svg id="_圖層_1" xmlns="http://www.w3.org/2000/svg" xmlns:xlink="http://www.w3.org/1999/xlink" viewBox="0 0 34.77 34.72"><defs><style>.cls-1{fill:#ef821d;}.cls-1,.cls-2,.cls-3{stroke-width:0px;}.cls-2{fill:none;}.cls-3{fill:#3d61ab;}.cls-4{clip-path:url(#clippath);}</style><clipPath id="clippath"><rect class="cls-2" y="0" width="34.77" height="34.72"/></clipPath></defs><g class="cls-4"><g id="_组_609"><path id="_路径_709" class="cls-3" d="m34.76,17.34c0,.75,0,1.5,0,2.25,0,.83-.29,1.11-1.13,1.21-.76.09-1.52.22-2.28.31-.24,0-.45.17-.49.41-.24.84-.58,1.66-1.01,2.42-.14.2-.12.47.06.64.51.65,1.01,1.3,1.51,1.96.38.35.4.93.06,1.31-.04.05-.09.09-.14.12-1.1,1.11-2.2,2.2-3.3,3.3-.32.42-.92.51-1.34.19-.04-.03-.07-.06-.1-.09-.61-.46-1.24-.91-1.83-1.4-.24-.27-.65-.31-.93-.09-.68.4-1.41.7-2.16.9-.34.06-.58.36-.56.7-.09.8-.2,1.59-.33,2.39-.01.5-.43.89-.92.87-.02,0-.04,0-.06,0-1.6.01-3.19.01-4.79,0-.5.06-.95-.3-1.01-.8,0-.03,0-.06,0-.1-.13-.79-.23-1.59-.32-2.39,0-.32-.22-.6-.54-.66-.81-.22-1.59-.55-2.32-.97-.2-.15-.48-.13-.65.05-.64.52-1.3,1.01-1.96,1.51-.37.38-.98.4-1.37.03-.04-.04-.08-.09-.12-.14-1.08-1.07-2.15-2.14-3.23-3.22-.54-.54-.57-.91-.11-1.52.48-.64.97-1.28,1.47-1.91.19-.18.21-.48.06-.69-.42-.75-.75-1.54-.99-2.37-.08-.27-.17-.4-.48-.43-.78-.08-1.56-.22-2.34-.31-.81-.1-1.1-.38-1.1-1.18C0,18.09,0,16.58,0,15.06c0-.77.26-1.02,1.02-1.13.82-.11,1.63-.23,2.45-.33.21,0,.38-.16.41-.36.25-.86.59-1.69,1.03-2.47.14-.2.12-.48-.06-.65-.51-.64-1.01-1.3-1.51-1.95-.38-.35-.4-.94-.05-1.32.04-.05.09-.09.14-.12,1.11-1.12,2.22-2.23,3.35-3.34.29-.39.85-.48,1.24-.18.04.03.07.06.11.09.69.51,1.38,1.04,2.05,1.57.16.16.41.18.59.05.71-.42,1.47-.74,2.26-.96.39-.07.66-.42.64-.81.08-.76.19-1.52.31-2.28C14.1.22,14.38,0,15.06,0,16.62,0,18.18,0,19.74,0c.64,0,.94.23,1.04.85.13.79.23,1.59.32,2.39-.02.34.22.64.55.7.81.22,1.59.54,2.32.97.2.14.47.12.64-.05.64-.51,1.31-1.01,1.96-1.5.58-.43.94-.43,1.43.06,1.12,1.11,2.24,2.22,3.34,3.34.4.31.48.88.18,1.29-.03.04-.06.08-.1.11-.5.67-1.02,1.34-1.54,2-.16.16-.18.41-.05.6.43.78.78,1.61,1.03,2.47.03.22.23.39.45.39.86.09,1.71.22,2.56.33.49,0,.89.42.88.91,0,.02,0,.04,0,.06.02.8,0,1.61,0,2.42h0Zm-1.83,0c0-.43-.01-.86,0-1.29.01-.29-.04-.42-.38-.45-.78-.07-1.56-.22-2.34-.31-.45-.02-.82-.35-.89-.79-.3-1.25-.79-2.45-1.47-3.55-.28-.38-.25-.89.07-1.23.49-.62.95-1.26,1.44-1.87.17-.22.18-.34-.03-.54-.64-.61-1.26-1.23-1.87-1.87-.22-.23-.37-.21-.6-.02-.6.48-1.22.93-1.82,1.4-.34.32-.86.35-1.24.08-1.08-.67-2.26-1.16-3.5-1.46-.52-.09-.89-.54-.89-1.07-.08-.74-.22-1.48-.29-2.22-.03-.3-.16-.36-.42-.35-.88.01-1.76.01-2.65,0-.26,0-.35.06-.38.33-.08.74-.23,1.48-.29,2.22,0,.55-.38,1.02-.92,1.11-1.22.28-2.39.76-3.45,1.42-.4.28-.93.24-1.29-.09-.6-.48-1.23-.92-1.83-1.4-.22-.18-.36-.17-.56.03-.61.64-1.23,1.26-1.87,1.86-.24.22-.2.36-.02.59.48.6.93,1.22,1.4,1.82.32.34.36.85.09,1.23-.69,1.11-1.19,2.33-1.49,3.6-.08.42-.44.74-.87.76-.78.09-1.56.24-2.34.31-.32.03-.41.12-.4.43.02.84.03,1.69,0,2.53-.01.39.11.52.49.55.76.07,1.52.2,2.28.3.43.03.77.36.84.78.3,1.25.79,2.45,1.47,3.55.28.38.25.89-.07,1.24-.49.62-.95,1.26-1.44,1.87-.17.22-.18.34.03.54.64.61,1.27,1.23,1.87,1.87.23.24.38.2.6.02.57-.45,1.17-.87,1.74-1.34.39-.38,1-.41,1.44-.09,1.03.64,2.16,1.11,3.35,1.38.54.08.93.55.93,1.09.07.74.21,1.48.3,2.22.03.22.08.33.34.32.92-.01,1.84-.01,2.76,0,.24,0,.32-.07.35-.31.09-.76.22-1.52.3-2.28,0-.53.39-.97.91-1.05,1.19-.27,2.32-.73,3.35-1.37.45-.34,1.08-.3,1.48.1.57.46,1.16.88,1.73,1.34.22.18.36.17.56-.04.61-.64,1.23-1.26,1.87-1.86.25-.23.2-.36.02-.59-.47-.58-.9-1.2-1.37-1.78-.36-.36-.4-.92-.1-1.33.67-1.08,1.16-2.26,1.45-3.49.06-.42.4-.75.83-.79.74-.1,1.48-.23,2.23-.29.41-.04.62-.13.57-.6-.03-.39-.03-.79,0-1.18"/><path id="_路径_710" class="cls-3" d="m17.45,7.48c5.45.05,9.83,4.52,9.78,9.97-.05,5.45-4.52,9.83-9.97,9.78-5.45-.05-9.83-4.52-9.78-9.97,0,0,0-.01,0-.02.08-5.44,4.53-9.79,9.97-9.76m7.98,9.92c.02-4.45-3.56-8.07-8.01-8.09-4.45-.02-8.07,3.56-8.09,8.01-.02,4.45,3.56,8.07,8.01,8.09.03,0,.05,0,.08,0,4.42,0,8-3.59,8.01-8.01"/><path id="_路径_711" class="cls-1" d="m19.39,13.4c-.2.75-.43,1.57-.65,2.4-.5,1.89-1,3.78-1.5,5.67-.06.47-.45.82-.91.84-.51.01-.93-.39-.94-.89,0-.1.01-.19.04-.29.71-2.64,1.41-5.29,2.13-7.93.07-.51.53-.87,1.04-.82.48.09.83.53.81,1.02"/><path id="_路径_712" class="cls-1" d="m12.75,17.35c.72.72,1.42,1.4,2.1,2.09.47.48.51.97.12,1.38-.41.43-.92.4-1.42-.1-.88-.87-1.75-1.74-2.62-2.62-.53-.53-.53-.97,0-1.5.88-.89,1.77-1.78,2.66-2.66.31-.4.89-.47,1.3-.16.03.02.06.05.09.08.36.36.36.94,0,1.29-.03.03-.07.06-.11.09-.69.7-1.4,1.39-2.11,2.1"/><path id="_路径_713" class="cls-1" d="m22.05,17.34c-.75-.73-1.48-1.43-2.19-2.14-.34-.27-.42-.75-.21-1.12.17-.35.55-.54.93-.48.24.04.46.17.62.36.89.88,1.78,1.77,2.66,2.66.4.29.5.86.2,1.26-.06.08-.12.14-.2.2-.89.91-1.79,1.8-2.7,2.69-.32.39-.9.44-1.29.12-.39-.32-.44-.9-.12-1.29.04-.05.09-.09.14-.13.7-.7,1.41-1.39,2.15-2.13"/></g></g></svg>