<?xml version="1.0" encoding="UTF-8"?><svg id="_圖層_1" xmlns="http://www.w3.org/2000/svg" xmlns:xlink="http://www.w3.org/1999/xlink" viewBox="0 0 47.4 47.69"><defs><style>.cls-1{fill:#ef821d;}.cls-1,.cls-2,.cls-3,.cls-4,.cls-5{stroke-width:0px;}.cls-2{fill:none;}.cls-3{fill:#3d61ab;}.cls-4{fill:#e95505;}.cls-6{clip-path:url(#clippath);}.cls-5{fill:#ffbc00;}</style><clipPath id="clippath"><rect class="cls-2" x="0" y="1.96" width="47.34" height="43.76"/></clipPath></defs><g id="_组_538"><g class="cls-6"><g id="_组_537"><path id="_路径_634" class="cls-1" d="m32.65,36.37c.56-.46,1.14-.89,1.66-1.39,3.42-3.19,5.15-7.79,4.7-12.45-.57-6.97-5.78-12.66-12.67-13.85-.99-.16-2-.23-3.01-.22-6.16,0-12.32,0-18.49,0-.47,0-.65.11-.6.6.04.44,0,.89,0,1.34,0,.15-.02.3-.19.36-.15.05-.31-.01-.39-.14L.13,6.67c-.16-.14-.17-.39-.03-.55.02-.02.04-.04.06-.05,1.15-1.27,2.29-2.55,3.44-3.83.12-.13.23-.32.44-.25.25.08.21.31.21.5,0,.5.01.99,0,1.49,0,.25.07.37.34.35.13-.01.26,0,.4,0,6.41,0,12.82-.08,19.23.03,5.52.05,10.74,2.52,14.27,6.77,2.4,2.71,3.96,6.07,4.48,9.65.91,5.49-.6,11.1-4.13,15.4-.1.17-.29.28-.49.28-1.87-.01-3.73,0-5.6-.01-.02,0-.05-.03-.1-.07"/><path id="_路径_635" class="cls-3" d="m14.7,11.33c-.73.53-1.42,1.13-2.05,1.77-2.41,2.44-3.91,5.63-4.27,9.04-.83,7.31,3.63,14.18,10.65,16.38,1.36.45,2.79.68,4.23.69,6.44,0,12.89,0,19.33.01.38,0,.53-.09.5-.49-.03-.46,0-.92,0-1.39,0-.17,0-.34.19-.41.19-.06.31.05.43.18l2.74,3.06c.24.27.49.54.73.81.18.14.21.4.06.58-.02.02-.04.04-.06.06-1.14,1.26-2.27,2.53-3.41,3.79-.13.14-.24.36-.48.28-.28-.09-.2-.35-.2-.55,0-.48-.01-.96,0-1.44,0-.25-.08-.37-.34-.35-.13.01-.26,0-.4,0-6.38,0-12.75.05-19.13-.02-9.17-.2-16.96-6.76-18.72-15.76-1.16-5.69.31-11.6,4.01-16.08.1-.17.29-.28.49-.28,1.87.01,3.73.01,5.6.01.02,0,.05.03.11.08"/><path id="_路径_636" class="cls-5" d="m15.78,19.45c-.02-.56-.23-1.09-.61-1.5-.44-.51-.42-.79.06-1.28.43-.44.86-.87,1.3-1.3s.75-.45,1.2-.06c.69.66,1.71.84,2.58.46.9-.33,1.5-1.18,1.52-2.13.05-.64.27-.82.93-.83.59,0,1.19,0,1.78,0,.72,0,.9.17.98.89.09,1.33,1.24,2.35,2.57,2.26.1,0,.2-.02.31-.04.44-.08.85-.28,1.18-.58.49-.42.79-.41,1.24.04s.92.9,1.37,1.37c.32.23.39.68.16,1-.04.05-.08.09-.12.13-.68.69-.87,1.73-.48,2.62.34.89,1.19,1.49,2.14,1.51.62.05.81.27.82.89,0,.59,0,1.19,0,1.78,0,.75-.16.93-.9,1.01-1.34.1-2.35,1.27-2.24,2.61.04.54.26,1.05.63,1.45.41.49.4.78-.06,1.24-.44.45-.88.89-1.33,1.33-.22.33-.68.42-1.01.2-.06-.04-.11-.09-.16-.14-.68-.67-1.7-.86-2.58-.49-.92.33-1.53,1.19-1.54,2.17-.04.61-.28.8-.9.8-.59,0-1.19,0-1.78,0-.75,0-.92-.16-1-.91-.11-1.34-1.28-2.34-2.62-2.23-.54.04-1.05.27-1.45.63-.25.33-.72.39-1.04.14-.06-.05-.12-.11-.16-.17-.44-.43-.87-.86-1.3-1.3-.5-.5-.5-.76-.05-1.32.88-1.02.77-2.57-.26-3.45-.25-.22-.55-.38-.87-.48-.21-.05-.42-.08-.63-.1-.6-.08-.79-.28-.79-.91,0-.61,0-1.22,0-1.83,0-.68.18-.88.88-.94.84-.04,1.6-.53,1.99-1.28.21-.39.3-.83.28-1.27m7.87,9.77c2.97.01,5.39-2.39,5.4-5.36.01-2.97-2.39-5.39-5.36-5.4-2.97-.01-5.39,2.39-5.4,5.36,0,0,0,0,0,.01-.02,2.95,2.35,5.37,5.31,5.39.02,0,.04,0,.05,0"/><path id="_路径_637" class="cls-3" d="m34.67,4.31h2.9c1.7,0,3.4,0,5.1,0,.32,0,.44-.08.43-.41-.03-.49,0-.99,0-1.48,0-.16-.02-.34.17-.43s.31.04.42.17c1.18,1.31,2.36,2.62,3.54,3.94.26.28.08.48-.11.68-.94,1.04-1.87,2.09-2.81,3.13-.2.22-.39.44-.59.67-.11.13-.24.24-.43.18-.2-.07-.2-.24-.2-.41,0-.46-.02-.92,0-1.39.02-.38-.08-.53-.49-.51-.79.03-1.58,0-2.38,0-.2.03-.4-.03-.55-.16-1.51-1.52-3.19-2.86-5.02-3.99"/><path id="_路径_638" class="cls-4" d="m12.67,43.38h-5.53c-.81,0-1.62.02-2.43,0-.38-.01-.49.12-.46.48.03.44,0,.89,0,1.34,0,.19.05.41-.19.51-.23.09-.33-.1-.44-.23-1.16-1.28-2.31-2.58-3.47-3.86-.26-.28-.11-.48.08-.68.97-1.08,1.94-2.16,2.92-3.23.19-.21.37-.42.55-.63.09-.12.26-.17.4-.1.14.06.16.19.16.33,0,.5.02.99,0,1.49-.02.34.09.47.44.46.81-.02,1.62,0,2.43,0,.18-.03.37.02.51.14,1.52,1.53,3.22,2.88,5.05,4.02"/></g></g></g></svg>