<?xml version="1.0" encoding="UTF-8"?><svg id="_圖層_1" xmlns="http://www.w3.org/2000/svg" viewBox="0 0 33.63 33.64"><defs><style>.cls-1{fill:#ef821d;}.cls-1,.cls-2{stroke-width:0px;}.cls-2{fill:#3d61ab;}</style></defs><g id="_组_4976"><path id="_路径_9829" class="cls-2" d="m24.32.09c.38.15.61.54.56.94-.02,1.94-.01,3.89,0,5.83,0,.27-.06.38-.35.35-.35-.04-.82.15-1.02-.08-.17-.2-.06-.66-.06-1,0-1.43,0-2.87,0-4.3,0-.24-.05-.32-.31-.32-6.42,0-12.84,0-19.26,0-.27,0-.33.09-.33.34,0,4.52,0,9.04,0,13.56,0,.28.1.32.34.32,4.25,0,8.51,0,12.76-.01.32,0,.43.08.4.4-.02.28-.02.56,0,.83,0,.14-.04.21-.19.19-.08,0-.16,0-.23,0-4.94,0-9.89,0-14.83,0-.31,0-.42.08-.37.38.02.14,0,.29.02.43.03.31.27.56.58.59.13.01.27.02.4.02,3.8,0,7.6,0,11.4,0,.33,0,.43.09.4.41-.02.23-.02.47,0,.7.02.25-.05.38-.33.34-.1,0-.2,0-.3,0H2.38c-.72.05-1.42-.25-1.89-.81-.24-.29-.39-.65-.44-1.02-.06-.56-.07-1.13-.03-1.7-.02-.39.28-.72.66-.74.04,0,.07,0,.11,0,.33-.02.67-.02,1,0,.31.03.37-.1.36-.37-.02-.63,0-1.27,0-1.9,0-4.13,0-8.27,0-12.4-.06-.43.18-.84.59-.98h21.59Z"/><path id="_路径_9830" class="cls-1" d="m33.61,2.5c-.06.39-.33,1-.79,1.23-.56.28-.62.68-.65,1.24.01,1.17-.93,2.12-2.1,2.13-.06,0-.12,0-.18,0-1.27,0-2.53,0-3.8,0-.22,0-.32-.05-.3-.29.02-.29.02-.58,0-.87-.02-.25.09-.29.31-.29,1.24,0,2.49,0,3.73,0,.71,0,.93-.22.93-.94,0-.09,0-.18,0-.27.05-.21-.08-.42-.29-.48-.75-.38-1.2-1.19-1.12-2.03.06-.85.62-1.57,1.42-1.84,1.2-.26,1.6.08,1.84.22.51.33.87.86,1,1.46,0,0,.06.34,0,.73Zm-2.15-1.09c-.38,0-.69.32-.69.7,0,.39.33.7.72.69.39,0,.7-.33.69-.72-.02-.38-.34-.68-.72-.67"/><path id="_路径_9831" class="cls-1" d="m8.79,26.51c-.58,0-1.16.02-1.73,0-1.08-.04-1.95-.9-2-1.99-.03-1.15,0-2.31-.02-3.46,0-.19.07-.22.24-.22.31,0,.62.02.93,0,.22-.01.25.08.25.27,0,1.01,0,2.02,0,3.03,0,.71.25.97.96.97,1.06,0,2.11,0,3.17,0,1.17-.08,2.19.81,2.27,1.98,0,.1,0,.19,0,.29,0,.61,0,1.22,0,1.83-.03.18.08.34.24.4.88.43,1.35,1.41,1.13,2.36-.25,1.14-1.39,1.87-2.53,1.61-.79-.17-1.41-.78-1.6-1.57-.25-.95.2-1.94,1.07-2.39.2-.07.32-.27.29-.48-.02-.57,0-1.13,0-1.7,0-.68-.27-.94-.95-.94h-1.7m3.37,5.68c.38,0,.69-.32.69-.7,0-.39-.31-.7-.7-.7-.39,0-.7.31-.7.7,0,0,0,.02,0,.03.01.38.33.68.71.68"/><path id="_路径_9832" class="cls-2" d="m18.5,21.97c0,.6.25.86.85.86,3.7,0,7.39,0,11.09,0,.58,0,.83-.25.84-.83,0-.17,0-.33,0-.5h0s0-9.36,0-11.9c0-.75-.22-.98-.96-.98-2.2,0-4.39,0-6.59,0-.36-.01-.7.13-.94.39-.46.5-.94.97-1.45,1.41-.76.84-1.59,1.62-2.39,2.42-.23.2-.39.47-.46.77m4.27-2.48v1.6c0,.15-.1.15-.2.15h-1.55l1.75-1.75m-2.47,3.15c1.01.01,2.02,0,3.03,0,.61,0,.87-.25.88-.86,0-1.02,0-2.04,0-3.06,0-.25.06-.35.33-.34,1.68.01,3.35.01,5.03,0,.25,0,.32.07.32.32,0,1.8,0,3.6,0,5.4s0,3.55,0,5.33c0,.27-.06.36-.35.36-3.09-.01-6.17-.01-9.26,0-.26,0-.34-.06-.34-.33.01-2.15.01-4.31,0-6.46,0-.29.1-.35.36-.34"/><path id="_路径_9834" class="cls-1" d="m18.71,7.05c-1.51-1.33-3.46-2.03-5.47-1.98-1.93.03-4.11,1.22-5.04,2.09-.17.16-.18.28,0,.43.19.17.37.35.54.54.18.21.29.2.5.01,1.05-.99,2.42-1.57,3.86-1.65,1.52-.1,3.03.35,4.24,1.26.24.18.45.57.72.5.26-.06.45-.4.67-.62.31-.31.31-.31-.02-.6"/><path id="_路径_9835" class="cls-1" d="m16.88,9.21c-.94-.84-2.16-1.31-3.42-1.3-1.2.07-2.35.52-3.27,1.29-.13.12-.16.22-.02.36.23.22.46.45.68.68.11.11.18.1.3,0,1.33-1.22,3.37-1.22,4.7,0,.12.1.19.12.3,0,.24-.25.48-.49.73-.73.12-.11.12-.19,0-.3"/><path id="_路径_9836" class="cls-1" d="m14.83,11.23c-.38-.29-.83-.45-1.31-.46-.45.02-.88.16-1.26.41-.21.15-.26.27-.04.45.17.15.32.3.47.47.03.03.05.05.08.08l.02.02.59.59c.06.06.16.06.23,0l.55-.55c.11-.09.2-.19.3-.29.13-.13.26-.28.4-.4s.11-.21-.02-.31"/></g></svg>