<?xml version="1.0" encoding="UTF-8"?><svg id="_圖層_1" xmlns="http://www.w3.org/2000/svg" xmlns:xlink="http://www.w3.org/1999/xlink" viewBox="0 0 35.64 22.01"><defs><style>.cls-1{fill:#bfbeed;}.cls-1,.cls-2,.cls-3,.cls-4,.cls-5,.cls-6,.cls-7,.cls-8,.cls-9,.cls-10,.cls-11,.cls-12,.cls-13{stroke-width:0px;}.cls-14{clip-path:url(#clippath-2);}.cls-2{fill:#ef821d;}.cls-3{fill:#dddefa;}.cls-4{fill:none;}.cls-5{fill:#98a4e0;}.cls-15{clip-path:url(#clippath-1);}.cls-16{clip-path:url(#clippath-4);}.cls-6{fill:#f8f9fc;}.cls-7{fill:#edecf8;}.cls-8{fill:#fff;}.cls-9{fill:#e95505;}.cls-10{fill:#1499fc;}.cls-17{clip-path:url(#clippath);}.cls-11{fill:#cccbf6;}.cls-18{clip-path:url(#clippath-3);}.cls-12{fill:#0086ec;}.cls-13{fill:#05dcff;}.cls-19{clip-path:url(#clippath-5);}</style><clipPath id="clippath"><path class="cls-4" d="m17.31,9.44s.1.02.18.04.16.04.26.06.2.05.32.08c.12.03.23.06.36.1v-.24c-.12-.03-.24-.07-.36-.1-.11-.03-.22-.06-.32-.08-.1-.02-.18-.05-.26-.06-.07-.02-.13-.03-.18-.04v.24Z"/></clipPath><clipPath id="clippath-1"><path class="cls-4" d="m17.31,9.44s.1.02.18.04.16.04.26.06.2.05.32.08c.12.03.23.06.36.1v-.24c-.12-.03-.24-.07-.36-.1-.11-.03-.22-.06-.32-.08-.1-.02-.18-.05-.26-.06-.07-.02-.13-.03-.18-.04v.24Z"/></clipPath><clipPath id="clippath-2"><path class="cls-4" d="m19.23,9.97c.11.03.21.06.3.09v-.24c-.1-.03-.2-.06-.3-.09v.24Z"/></clipPath><clipPath id="clippath-3"><path class="cls-4" d="m19.23,9.97c.11.03.21.06.3.09v-.24c-.1-.03-.2-.06-.3-.09v.24Z"/></clipPath><clipPath id="clippath-4"><path class="cls-4" d="m16.61,9.29c.08.13.16.25.25.38.09.13.18.26.29.4.1.14.22.29.34.44.12.15.26.32.41.5v-.24c-.15-.18-.29-.35-.41-.5-.12-.15-.24-.3-.34-.44-.1-.14-.2-.27-.29-.4s-.17-.26-.25-.38v.24Z"/></clipPath><clipPath id="clippath-5"><path class="cls-4" d="m16.61,9.29c.08.13.16.25.25.38.09.13.18.26.29.4.1.14.22.29.34.44.12.15.26.32.41.5v-.24c-.15-.18-.29-.35-.41-.5-.12-.15-.24-.3-.34-.44-.1-.14-.2-.27-.29-.4s-.17-.26-.25-.38v.24Z"/></clipPath></defs><path id="_路径_9501" class="cls-5" d="m12.3,8.79v.14l.41-.24v-.14s-.41.24-.41.24Z"/><path id="_路径_9502" class="cls-5" d="m12.3,8.79v.14l.41-.24v-.14s-.41.24-.41.24Z"/><path id="_路径_9507" class="cls-7" d="m8.8,9.49l.41-.24.55.32-.41.24-.55-.32Z"/><path id="_路径_9508" class="cls-7" d="m8.8,9.49l.41-.24.55.32-.41.24-.55-.32Z"/><path id="_路径_9509" class="cls-1" d="m9.84,9.31l.41-.24-.42.68-.41.24.42-.68Z"/><path id="_路径_9510" class="cls-1" d="m9.84,9.31l.41-.24-.42.68-.41.24.42-.68Z"/><path id="_路径_9511" class="cls-5" d="m10.81,9.72v.14s.41-.24.41-.24v-.14s-.41.24-.41.24Z"/><path id="_路径_9512" class="cls-5" d="m10.81,9.72v.14s.41-.24.41-.24v-.14s-.41.24-.41.24Z"/><path id="_路径_9513" class="cls-7" d="m9.77,9.13l.41-.24,1.04.6-.41.24-1.04-.6Z"/><path id="_路径_9514" class="cls-7" d="m9.77,9.13l.41-.24,1.04.6-.41.24-1.04-.6Z"/><path id="_路径_9515" class="cls-5" d="m10.81,9.72v.14s-.96-.56-.96-.56l-.42.68-.63-.36v-.14s.55.32.55.32l.42-.68,1.04.6Z"/><path id="_路径_9516" class="cls-5" d="m10.81,9.72v.14s-.96-.56-.96-.56l-.42.68-.63-.36v-.14s.55.32.55.32l.42-.68,1.04.6Z"/><path id="_路径_9519" class="cls-5" d="m24.46,8.71l.41.24v-.14s-.41-.24-.41-.24v.14Z"/><path id="_路径_9522" class="cls-7" d="m28.37,9.51l-.41-.24-.55.32.41.24.55-.32Z"/><path id="_路径_9523" class="cls-1" d="m27.33,9.33l-.41-.24.42.68.41.24-.42-.68Z"/><path id="_路径_9524" class="cls-5" d="m25.96,9.65l.41.24v-.14s-.41-.24-.41-.24v.14Z"/><path id="_路径_9525" class="cls-7" d="m27.4,9.15l-.41-.24-1.04.6.41.24,1.04-.6Z"/><path id="_路径_9526" class="cls-5" d="m26.36,9.75v.14s.96-.56.96-.56l.42.68.63-.36v-.14s-.55.32-.55.32l-.42-.68-1.04.6Z"/><path id="_路径_9527" class="cls-9" d="m27.38,9.49v.98s-8.73,5.07-8.73,5.07v-.97s8.73-5.07,8.73-5.07Z"/><path id="_路径_9529" class="cls-9" d="m18.65,14.56v.98s-8.79-5.07-8.79-5.07v-.98s8.79,5.07,8.79,5.07Z"/><polygon class="cls-9" points="18.65 14.56 18.65 15.54 27.38 10.47 27.38 9.49 18.65 14.56"/><polygon class="cls-9" points="9.87 9.49 9.86 10.47 18.65 15.54 18.65 14.56 9.87 9.49"/><path id="_路径_9531" class="cls-2" d="m27.38,9.49l-8.73,5.07-8.79-5.07,8.73-5.07,8.79,5.07Z"/><path id="_路径_9533" class="cls-3" d="m25.29,9.24v.49s-6.64,3.86-6.64,3.86v-.49s6.64-3.86,6.64-3.86Z"/><path id="_路径_9534" class="cls-3" d="m25.29,9.24v.49s-6.64,3.86-6.64,3.86v-.49s6.64-3.86,6.64-3.86Z"/><path id="_路径_9535" class="cls-11" d="m18.65,13.11v.49s-6.69-3.86-6.69-3.86v-.49s6.69,3.86,6.69,3.86Z"/><path id="_路径_9536" class="cls-11" d="m18.65,13.11v.49s-6.69-3.86-6.69-3.86v-.49s6.69,3.86,6.69,3.86Z"/><path id="_路径_9537" class="cls-8" d="m25.29,9.24l-6.64,3.86-6.69-3.86,6.64-3.86,6.69,3.86Z"/><path id="_路径_9538" class="cls-8" d="m25.29,9.24l-6.64,3.86-6.69-3.86,6.64-3.86,6.69,3.86Z"/><path id="_路径_9539" class="cls-11" d="m9.15,12.01l-.41-.24.41-1.16.41.24-.41,1.16Z"/><path id="_路径_9540" class="cls-11" d="m9.15,12.01l-.41-.24.41-1.16.41.24-.41,1.16Z"/><path id="_路径_9541" class="cls-7" d="m9.56,10.85l-.41-.24,1.04-.6.41.24-1.04.6Z"/><path id="_路径_9542" class="cls-7" d="m9.56,10.85l-.41-.24,1.04-.6.41.24-1.04.6Z"/><path id="_路径_9543" class="cls-7" d="m8.6,12.33l-.41-.24.55-.32.41.24-.55.32Z"/><path id="_路径_9544" class="cls-7" d="m8.6,12.33l-.41-.24.55-.32.41.24-.55.32Z"/><path id="_路径_9545" class="cls-1" d="m8.19,12.23l.41.24v-.14s-.41-.24-.41-.24v.14Z"/><path id="_路径_9546" class="cls-1" d="m8.19,12.23l.41.24v-.14s-.41-.24-.41-.24v.14Z"/><path id="_路径_9547" class="cls-5" d="m10.6,10.25v.14s-.96.56-.96.56l-.41,1.16-.63.36v-.14s.55-.32.55-.32l.41-1.16,1.04-.6Z"/><path id="_路径_9548" class="cls-5" d="m10.6,10.25v.14s-.96.56-.96.56l-.41,1.16-.63.36v-.14s.55-.32.55-.32l.41-1.16,1.04-.6Z"/><path id="_路径_9549" class="cls-11" d="m10.68,12.88l-.41-.24.41-1.16.41.24-.41,1.16Z"/><path id="_路径_9550" class="cls-11" d="m10.68,12.88l-.41-.24.41-1.16.41.24-.41,1.16Z"/><path id="_路径_9551" class="cls-7" d="m11.09,11.72l-.41-.24,1.04-.6.41.24-1.04.6Z"/><path id="_路径_9552" class="cls-7" d="m11.09,11.72l-.41-.24,1.04-.6.41.24-1.04.6Z"/><path id="_路径_9553" class="cls-7" d="m10.13,13.2l-.41-.24.55-.32.41.24-.55.32Z"/><path id="_路径_9554" class="cls-7" d="m10.13,13.2l-.41-.24.55-.32.41.24-.55.32Z"/><path id="_路径_9555" class="cls-1" d="m9.72,13.11l.41.24v-.14s-.41-.24-.41-.24v.14Z"/><path id="_路径_9556" class="cls-1" d="m9.72,13.11l.41.24v-.14s-.41-.24-.41-.24v.14Z"/><path id="_路径_9557" class="cls-5" d="m12.13,11.13v.14s-.96.56-.96.56l-.41,1.16-.63.36v-.14s.55-.32.55-.32l.41-1.16,1.04-.6Z"/><path id="_路径_9558" class="cls-5" d="m12.13,11.13v.14s-.96.56-.96.56l-.41,1.16-.63.36v-.14s.55-.32.55-.32l.41-1.16,1.04-.6Z"/><path id="_路径_9559" class="cls-11" d="m12.2,13.77l-.41-.24.41-1.16.41.24-.41,1.16Z"/><path id="_路径_9560" class="cls-11" d="m12.2,13.77l-.41-.24.41-1.16.41.24-.41,1.16Z"/><path id="_路径_9561" class="cls-7" d="m12.61,12.61l-.41-.24,1.04-.6.41.24-1.04.6Z"/><path id="_路径_9562" class="cls-7" d="m12.61,12.61l-.41-.24,1.04-.6.41.24-1.04.6Z"/><path id="_路径_9563" class="cls-7" d="m11.65,14.09l-.41-.24.55-.32.41.24-.55.32Z"/><path id="_路径_9564" class="cls-7" d="m11.65,14.09l-.41-.24.55-.32.41.24-.55.32Z"/><path id="_路径_9565" class="cls-1" d="m11.24,13.99l.41.24v-.14s-.41-.24-.41-.24v.14Z"/><path id="_路径_9566" class="cls-1" d="m11.24,13.99l.41.24v-.14s-.41-.24-.41-.24v.14Z"/><path id="_路径_9567" class="cls-5" d="m13.65,12.01v.14s-.96.56-.96.56l-.41,1.16-.63.36v-.14s.55-.32.55-.32l.41-1.16,1.04-.6Z"/><path id="_路径_9568" class="cls-5" d="m13.65,12.01v.14s-.96.56-.96.56l-.41,1.16-.63.36v-.14s.55-.32.55-.32l.41-1.16,1.04-.6Z"/><path id="_路径_9569" class="cls-11" d="m13.72,14.65l-.41-.24.41-1.16.41.24-.41,1.16Z"/><path id="_路径_9570" class="cls-11" d="m13.72,14.65l-.41-.24.41-1.16.41.24-.41,1.16Z"/><path id="_路径_9571" class="cls-7" d="m14.13,13.49l-.41-.24,1.04-.6.41.24-1.04.6Z"/><path id="_路径_9572" class="cls-7" d="m14.13,13.49l-.41-.24,1.04-.6.41.24-1.04.6Z"/><path id="_路径_9573" class="cls-7" d="m13.17,14.97l-.41-.24.55-.32.41.24-.55.32Z"/><path id="_路径_9574" class="cls-7" d="m13.17,14.97l-.41-.24.55-.32.41.24-.55.32Z"/><path id="_路径_9575" class="cls-1" d="m12.76,14.87l.41.24v-.14s-.41-.24-.41-.24v.14Z"/><path id="_路径_9576" class="cls-1" d="m12.76,14.87l.41.24v-.14s-.41-.24-.41-.24v.14Z"/><path id="_路径_9577" class="cls-5" d="m15.17,12.89v.14s-.96.56-.96.56l-.41,1.16-.63.36v-.14s.55-.32.55-.32l.41-1.16,1.04-.6Z"/><path id="_路径_9578" class="cls-5" d="m15.17,12.89v.14s-.96.56-.96.56l-.41,1.16-.63.36v-.14s.55-.32.55-.32l.41-1.16,1.04-.6Z"/><path id="_路径_9579" class="cls-11" d="m15.26,15.52l-.41-.24.41-1.16.41.24-.41,1.16Z"/><path id="_路径_9580" class="cls-11" d="m15.26,15.52l-.41-.24.41-1.16.41.24-.41,1.16Z"/><path id="_路径_9581" class="cls-7" d="m15.67,14.36l-.41-.24,1.04-.6.41.24-1.04.6Z"/><path id="_路径_9582" class="cls-7" d="m15.67,14.36l-.41-.24,1.04-.6.41.24-1.04.6Z"/><path id="_路径_9583" class="cls-7" d="m14.7,15.84l-.41-.24.55-.32.41.24-.55.32Z"/><path id="_路径_9584" class="cls-7" d="m14.7,15.84l-.41-.24.55-.32.41.24-.55.32Z"/><path id="_路径_9585" class="cls-1" d="m14.3,15.74l.41.24v-.14s-.41-.24-.41-.24v.14Z"/><path id="_路径_9586" class="cls-1" d="m14.3,15.74l.41.24v-.14s-.41-.24-.41-.24v.14Z"/><path id="_路径_9587" class="cls-5" d="m16.71,13.76v.14s-.96.56-.96.56l-.41,1.16-.63.36v-.14s.55-.32.55-.32l.41-1.16,1.04-.6Z"/><path id="_路径_9588" class="cls-5" d="m16.71,13.76v.14s-.96.56-.96.56l-.41,1.16-.63.36v-.14s.55-.32.55-.32l.41-1.16,1.04-.6Z"/><path id="_路径_9589" class="cls-11" d="m16.77,16.4l-.41-.24.41-1.16.41.24-.41,1.16Z"/><path id="_路径_9590" class="cls-11" d="m16.77,16.4l-.41-.24.41-1.16.41.24-.41,1.16Z"/><path id="_路径_9591" class="cls-7" d="m17.18,15.24l-.41-.24,1.04-.6.41.24-1.04.6Z"/><path id="_路径_9592" class="cls-7" d="m17.18,15.24l-.41-.24,1.04-.6.41.24-1.04.6Z"/><path id="_路径_9593" class="cls-7" d="m16.21,16.72l-.41-.24.55-.32.41.24-.55.32Z"/><path id="_路径_9594" class="cls-7" d="m16.21,16.72l-.41-.24.55-.32.41.24-.55.32Z"/><path id="_路径_9595" class="cls-1" d="m15.81,16.63l.41.24v-.14s-.41-.24-.41-.24v.14Z"/><path id="_路径_9596" class="cls-1" d="m15.81,16.63l.41.24v-.14s-.41-.24-.41-.24v.14Z"/><path id="_路径_9597" class="cls-5" d="m18.22,14.64v.14l-.96.56-.41,1.16-.63.36v-.14l.55-.32.41-1.16,1.04-.6Z"/><path id="_路径_9598" class="cls-5" d="m18.22,14.64v.14l-.96.56-.41,1.16-.63.36v-.14l.55-.32.41-1.16,1.04-.6Z"/><path id="_路径_9599" class="cls-11" d="m28.13,12.02l.41-.24-.41-1.16-.41.24.41,1.16Z"/><path id="_路径_9600" class="cls-7" d="m27.72,10.86l.41-.24-1.04-.6-.41.24,1.04.6Z"/><path id="_路径_9601" class="cls-7" d="m28.68,12.34l.41-.24-.55-.32-.41.24.55.32Z"/><path id="_路径_9602" class="cls-1" d="m28.68,12.34v.14s.41-.24.41-.24v-.14s-.41.24-.41.24Z"/><path id="_路径_9603" class="cls-5" d="m26.68,10.27v.14s.96.56.96.56l.41,1.16.63.36v-.14s-.55-.32-.55-.32l-.41-1.16-1.04-.6Z"/><path id="_路径_9604" class="cls-11" d="m26.6,12.9l.41-.24-.41-1.16-.41.24.41,1.16Z"/><path id="_路径_9605" class="cls-7" d="m26.18,11.74l.41-.24-1.04-.6-.41.24,1.04.6Z"/><path id="_路径_9606" class="cls-7" d="m27.15,13.22l.41-.24-.55-.32-.41.24.55.32Z"/><path id="_路径_9607" class="cls-1" d="m27.15,13.22v.14s.41-.24.41-.24v-.14s-.41.24-.41.24Z"/><path id="_路径_9608" class="cls-5" d="m25.15,11.14v.14s.96.56.96.56l.41,1.16.63.36v-.14s-.55-.32-.55-.32l-.41-1.16-1.04-.6Z"/><path id="_路径_9609" class="cls-11" d="m25.08,13.79l.41-.24-.41-1.16-.41.24.41,1.16Z"/><path id="_路径_9610" class="cls-7" d="m24.67,12.63l.41-.24-1.04-.6-.41.24,1.04.6Z"/><path id="_路径_9611" class="cls-7" d="m25.63,14.1l.41-.24-.55-.32-.41.24.55.32Z"/><path id="_路径_9612" class="cls-1" d="m25.63,14.1v.14l.41-.24v-.14s-.41.24-.41.24Z"/><path id="_路径_9613" class="cls-5" d="m23.63,12.03v.14s.96.56.96.56l.41,1.16.63.36v-.14s-.55-.32-.55-.32l-.41-1.16-1.04-.6Z"/><path id="_路径_9614" class="cls-11" d="m23.56,14.66l.41-.24-.41-1.16-.41.24.41,1.16Z"/><path id="_路径_9615" class="cls-7" d="m23.15,13.51l.41-.24-1.04-.6-.41.24,1.04.6Z"/><path id="_路径_9616" class="cls-7" d="m24.11,14.98l.41-.24-.55-.32-.41.24.55.32Z"/><path id="_路径_9617" class="cls-1" d="m24.11,14.98v.14s.41-.24.41-.24v-.14s-.41.24-.41.24Z"/><path id="_路径_9618" class="cls-5" d="m22.11,12.91v.14s.96.56.96.56l.41,1.16.63.36v-.14s-.55-.32-.55-.32l-.41-1.16-1.04-.6Z"/><path id="_路径_9619" class="cls-11" d="m22.02,15.54l.41-.24-.41-1.16-.41.24.41,1.16Z"/><path id="_路径_9620" class="cls-7" d="m21.61,14.38l.41-.24-1.04-.6-.41.24,1.04.6Z"/><path id="_路径_9621" class="cls-7" d="m21.61,14.38l.41-.24-1.04-.6-.41.24,1.04.6Z"/><path id="_路径_9622" class="cls-7" d="m22.57,15.86l.41-.24-.55-.32-.41.24.55.32Z"/><path id="_路径_9623" class="cls-1" d="m22.57,15.86v.14s.41-.24.41-.24v-.14s-.41.24-.41.24Z"/><path id="_路径_9624" class="cls-5" d="m20.57,13.78v.14s.96.56.96.56l.41,1.16.63.36v-.14s-.55-.32-.55-.32l-.41-1.16-1.04-.6Z"/><path id="_路径_9625" class="cls-5" d="m20.57,13.78v.14s.96.56.96.56l.41,1.16.63.36v-.14s-.55-.32-.55-.32l-.41-1.16-1.04-.6Z"/><path id="_路径_9626" class="cls-11" d="m20.51,16.42l.41-.24-.41-1.16-.41.24.41,1.16Z"/><path id="_路径_9627" class="cls-11" d="m20.51,16.42l.41-.24-.41-1.16-.41.24.41,1.16Z"/><path id="_路径_9628" class="cls-7" d="m20.1,15.26l.41-.24-1.04-.6-.41.24,1.04.6Z"/><path id="_路径_9629" class="cls-7" d="m20.1,15.26l.41-.24-1.04-.6-.41.24,1.04.6Z"/><path id="_路径_9630" class="cls-7" d="m21.06,16.74l.41-.24-.55-.32-.41.24.55.32Z"/><path id="_路径_9631" class="cls-7" d="m21.06,16.74l.41-.24-.55-.32-.41.24.55.32Z"/><path id="_路径_9632" class="cls-1" d="m21.07,16.74v.14s.41-.24.41-.24v-.14s-.41.24-.41.24Z"/><path id="_路径_9633" class="cls-5" d="m19.06,14.66v.14s.96.56.96.56l.41,1.16.63.36v-.14s-.55-.32-.55-.32l-.41-1.16-1.04-.6Z"/><path id="_路径_9634" class="cls-5" d="m19.06,14.66v.14s.96.56.96.56l.41,1.16.63.36v-.14s-.55-.32-.55-.32l-.41-1.16-1.04-.6Z"/><path id="_路径_9635" class="cls-3" d="m14.26,9.24l.33.19,4.02,2.32v-5.03l-4.34,2.52Z"/><path id="_路径_9636" class="cls-3" d="m14.26,9.24l.33.19,4.02,2.32v-5.03l-4.34,2.52Z"/><path id="_路径_9637" class="cls-11" d="m18.61,6.72v5.03l.03.02,4.02-2.34.33-.19-4.37-2.52Z"/><path id="_路径_9638" class="cls-11" d="m18.61,6.72v5.03l.03.02,4.02-2.34.33-.19-4.37-2.52Z"/><path id="_路径_9639" class="cls-13" d="m22.66,9.43l-4.02,2.33-4.05-2.34,4.02-2.34,4.05,2.34Z"/><path id="_路径_9640" class="cls-13" d="m22.66,9.43l-4.02,2.33-4.05-2.34,4.02-2.34,4.05,2.34Z"/><path id="_路径_9641" class="cls-2" d="m22.66,9.43l-4.02,2.33-4.05-2.34,4.02-2.34,4.05,2.34Z"/><path id="_路径_9642" class="cls-2" d="m22.66,9.43l-4.02,2.33-4.05-2.34,4.02-2.34,4.05,2.34Z"/><path id="_路径_9643" class="cls-3" d="m20.32,9.36v.24s.48-.28.48-.28v-.24s-.48.28-.48.28Z"/><path id="_路径_9644" class="cls-3" d="m20.32,9.36v.24s.48-.28.48-.28v-.24s-.48.28-.48.28Z"/><path id="_路径_9645" class="cls-11" d="m20.32,9.36v.24s-2.13-1.23-2.13-1.23v-.24s2.13,1.23,2.13,1.23Z"/><path id="_路径_9646" class="cls-11" d="m20.32,9.36v.24s-2.13-1.23-2.13-1.23v-.24s2.13,1.23,2.13,1.23Z"/><path id="_路径_9647" class="cls-6" d="m20.8,9.09l-.48.28-2.13-1.23.48-.28,2.13,1.23Z"/><path id="_路径_9648" class="cls-6" d="m20.8,9.09l-.48.28-2.13-1.23.48-.28,2.13,1.23Z"/><g id="_组_4681"><g id="_组_4486"><path id="_路径_9152" class="cls-10" d="m18.42,9.49v.24c-.13-.03-.25-.07-.36-.1-.11-.03-.22-.06-.32-.08s-.18-.05-.26-.06-.13-.03-.18-.04v-.24s.1.02.18.04.16.04.26.06.2.05.32.08.23.06.36.1"/></g></g><g id="_组_4682"><g id="_组_4486-2"><path id="_路径_9152-2" class="cls-10" d="m18.42,9.49v.24c-.13-.03-.25-.07-.36-.1-.11-.03-.22-.06-.32-.08s-.18-.05-.26-.06-.13-.03-.18-.04v-.24s.1.02.18.04.16.04.26.06.2.05.32.08.23.06.36.1"/></g></g><g id="_组_4683"><g class="cls-17"><g id="_组_4488"><path id="_路径_9153" class="cls-11" d="m18.42,9.49v.24c-.13-.03-.25-.07-.36-.1-.11-.03-.22-.06-.32-.08s-.18-.05-.26-.06-.13-.03-.18-.04v-.24s.1.02.18.04.16.04.26.06.2.05.32.08.23.06.36.1"/></g></g></g><g id="_组_4684"><g class="cls-15"><g id="_组_4488-2"><path id="_路径_9153-2" class="cls-11" d="m18.42,9.49v.24c-.13-.03-.25-.07-.36-.1-.11-.03-.22-.06-.32-.08s-.18-.05-.26-.06-.13-.03-.18-.04v-.24s.1.02.18.04.16.04.26.06.2.05.32.08.23.06.36.1"/></g></g></g><g id="_组_4685"><g id="_组_4490"><path id="_路径_9155" class="cls-10" d="m19.23,9.73v.24c-.11-.03-.21-.06-.31-.09v-.24c.1.03.21.06.31.09"/></g></g><g id="_组_4686"><g id="_组_4490-2"><path id="_路径_9155-2" class="cls-11" d="m19.23,9.73v.24c-.11-.03-.21-.06-.31-.09v-.24c.1.03.21.06.31.09"/></g></g><path class="cls-4" d="m18.92,9.89c.1.03.21.06.31.09v-.24c-.1-.03-.21-.06-.31-.09v.24Z"/><path class="cls-4" d="m18.92,9.89c.1.03.21.06.31.09v-.24c-.1-.03-.21-.06-.31-.09v.24Z"/><g id="_组_4689"><g id="_组_4494"><path id="_路径_9158" class="cls-10" d="m19.54,9.82v.24c-.1-.03-.2-.06-.3-.09v-.24c.11.03.21.06.3.09"/></g></g><g id="_组_4690"><g id="_组_4494-2"><path id="_路径_9158-2" class="cls-10" d="m19.54,9.82v.24c-.1-.03-.2-.06-.3-.09v-.24c.11.03.21.06.3.09"/></g></g><g id="_组_4691"><g class="cls-14"><g id="_组_4496"><path id="_路径_9159" class="cls-11" d="m19.54,9.82v.24c-.1-.03-.2-.06-.3-.09v-.24c.11.03.21.06.3.09"/></g></g></g><g id="_组_4692"><g class="cls-18"><path class="cls-11" d="m19.54,9.82h0c-.1-.03-.2-.06-.3-.09h0s0,0,0,0c0,0,0,0,0,0h0c-.11-.03-.21-.06-.31-.09v.24c.1.03.21.06.31.09h0c.1.03.21.06.3.09v-.24Z"/></g></g><path id="_路径_9649" class="cls-3" d="m20.05,9.52v.24s-.51.3-.51.3v-.24s.51-.3.51-.3Z"/><path id="_路径_9650" class="cls-3" d="m20.05,9.52v.24s-.51.3-.51.3v-.24s.51-.3.51-.3Z"/><path id="_路径_9651" class="cls-3" d="m18.92,9.64v.24s-.83.48-.83.48v-.24s.83-.48.83-.48Z"/><path id="_路径_9652" class="cls-3" d="m18.92,9.64v.24s-.83.48-.83.48v-.24s.83-.48.83-.48Z"/><g id="_组_4693"><g id="_组_4498"><path id="_路径_9163" class="cls-10" d="m17.9,10.77v.24c-.15-.18-.29-.35-.41-.5-.12-.15-.24-.3-.34-.44s-.2-.27-.29-.4-.17-.25-.25-.38v-.24c.08.13.16.25.25.38s.18.26.29.4c.1.14.22.29.34.44.12.15.26.32.41.5"/></g></g><g id="_组_4694"><g id="_组_4498-2"><path id="_路径_9163-2" class="cls-10" d="m17.9,10.77v.24c-.15-.18-.29-.35-.41-.5-.12-.15-.24-.3-.34-.44s-.2-.27-.29-.4-.17-.25-.25-.38v-.24c.08.13.16.25.25.38s.18.26.29.4c.1.14.22.29.34.44.12.15.26.32.41.5"/></g></g><g id="_组_4695"><g class="cls-16"><g id="_组_4500"><path id="_路径_9164" class="cls-11" d="m17.9,10.77v.24c-.15-.18-.29-.35-.41-.5-.12-.15-.24-.3-.34-.44s-.2-.27-.29-.4-.17-.25-.25-.38v-.24c.08.13.16.25.25.38s.18.26.29.4c.1.14.22.29.34.44.12.15.26.32.41.5"/></g></g></g><g id="_组_4696"><g class="cls-19"><g id="_组_4500-2"><path id="_路径_9164-2" class="cls-11" d="m17.9,10.77v.24c-.15-.18-.29-.35-.41-.5-.12-.15-.24-.3-.34-.44s-.2-.27-.29-.4-.17-.25-.25-.38v-.24c.08.13.16.25.25.38s.18.26.29.4c.1.14.22.29.34.44.12.15.26.32.41.5"/></g></g></g><path id="_路径_9653" class="cls-3" d="m18.4,10.48v.24s-.5.29-.5.29v-.24s.5-.29.5-.29Z"/><path id="_路径_9654" class="cls-3" d="m18.4,10.48v.24s-.5.29-.5.29v-.24s.5-.29.5-.29Z"/><g id="_组_4697"><g id="_组_4502"><path id="_路径_9167" class="cls-6" d="m19.23,9.73c-.11-.03-.21-.06-.31-.09l-.83.48c.05.06.1.12.15.18s.1.12.15.18l-.5.29c-.15-.18-.29-.35-.41-.5-.12-.15-.24-.3-.34-.44-.1-.14-.2-.27-.29-.4-.09-.13-.17-.26-.25-.38l.45-.26c.22.04.44.09.66.14.22.05.45.11.69.16.24.06.49.12.76.2.27.07.55.15.86.24l-.51.3c-.1-.03-.2-.06-.3-.09m-1.41.11l.61-.35c-.13-.03-.24-.07-.36-.1-.11-.03-.22-.06-.32-.08-.1-.02-.18-.05-.26-.06-.07-.02-.13-.03-.18-.04.02.02.05.06.08.1s.07.09.11.15.09.12.14.18.11.14.17.21"/></g></g><g id="_组_4698"><g id="_组_4502-2"><path id="_路径_9167-2" class="cls-6" d="m19.23,9.73c-.11-.03-.21-.06-.31-.09l-.83.48c.05.06.1.12.15.18s.1.12.15.18l-.5.29c-.15-.18-.29-.35-.41-.5-.12-.15-.24-.3-.34-.44-.1-.14-.2-.27-.29-.4-.09-.13-.17-.26-.25-.38l.45-.26c.22.04.44.09.66.14.22.05.45.11.69.16.24.06.49.12.76.2.27.07.55.15.86.24l-.51.3c-.1-.03-.2-.06-.3-.09m-1.41.11l.61-.35c-.13-.03-.24-.07-.36-.1-.11-.03-.22-.06-.32-.08-.1-.02-.18-.05-.26-.06-.07-.02-.13-.03-.18-.04.02.02.05.06.08.1s.07.09.11.15.09.12.14.18.11.14.17.21"/></g></g><g id="_组_4699"><path id="_路径_9664" class="cls-12" d="m.66,14.24c.15.09.15.23,0,.31-.17.09-.37.09-.55,0-.15-.09-.15-.23,0-.31.17-.09.37-.09.55,0"/><path id="_路径_9673" class="cls-12" d="m11.43,19.47c.15.09.15.23,0,.32-.17.09-.37.09-.55,0-.15-.09-.15-.23,0-.32.17-.09.37-.09.55,0"/><path id="_路径_9691" class="cls-12" d="m32.87,18.24c.15.09.15.23,0,.32-.17.09-.37.09-.55,0-.15-.09-.15-.23,0-.32.17-.09.37-.09.55,0"/><path id="_路径_9710" class="cls-12" d="m17.6,3.49l-.1.06-.17-.1-1.83-1.06s-.03-.04-.02-.07c0,0,.01-.01.02-.02l.85-.49-2.09-1.23-.2-.12s-.03-.05-.02-.07c.01-.02.04-.03.07-.02l.25.15,2.11,1.24s.03.05.02.07c0,0-.01.01-.02.02l-.85.49,1.8,1.04.17.1Z"/><path id="_路径_9711" class="cls-12" d="m14.33.24c.15.09.15.23,0,.32-.17.09-.37.09-.55,0-.15-.09-.15-.23,0-.32.17-.09.37-.09.55,0"/><path id="_路径_9714" class="cls-12" d="m10.94.07c.15.09.15.23,0,.32-.17.09-.37.09-.55,0-.15-.09-.15-.23,0-.32.17-.09.37-.09.55,0"/><path id="_路径_9718" class="cls-12" d="m29.56,4.31l-.2.12-2.09,1.23.85.49s.03.05.02.07c0,0-.01.01-.02.02l-1.74,1-.17.1-.1-.06.17-.1,1.71-.99-.85-.49s-.03-.03-.03-.04c0-.02,0-.03.03-.04l2.11-1.24.25-.15s.06,0,.07.02c.01.02,0,.06-.02.07"/><path id="_路径_9719" class="cls-12" d="m27.4,2.12l-.32.19-1.63.94,1.27.73s.03.03.03.04c0,.02,0,.03-.03.04l-2.91,1.68-.17.1-.1-.06.17-.1,2.89-1.67-1.27-.73s-.03-.05-.02-.07c0,0,.01-.01.02-.02l1.67-.96.36-.21s.06,0,.07.02c.01.02,0,.06-.02.07"/><path id="_路径_9723" class="cls-12" d="m28.39,4.09l-.24.14-3.49,2.01-.17.1-.1-.06.17-.1,3.48-2.01.3-.17s.05-.01.07.01.01.05-.01.07c0,0,0,0,0,0"/><path id="_路径_9727" class="cls-12" d="m29.29,4.08c-.15.09-.15.23,0,.32.17.09.37.09.55,0,.15-.09.15-.23,0-.32-.17-.09-.37-.09-.55,0"/><path id="_路径_9732" class="cls-12" d="m28.07,3.88c-.15.09-.15.23,0,.32.17.09.37.09.55,0,.15-.09.15-.23,0-.32-.17-.09-.37-.09-.55,0"/><path id="_路径_9733" class="cls-12" d="m27.06,1.98c-.15.09-.15.23,0,.32.17.09.37.09.55,0,.15-.09.15-.23,0-.32-.17-.09-.37-.09-.55,0"/><path id="_路径_9734" class="cls-12" d="m26.27.15c-.15.09-.15.23,0,.32.17.09.37.09.55,0,.15-.09.15-.23,0-.32-.17-.09-.37-.09-.55,0"/><path id="_路径_9735" class="cls-12" d="m30.44,4.49c-.15.09-.15.23,0,.32.17.09.37.09.55,0,.15-.09.15-.23,0-.32-.17-.09-.37-.09-.55,0"/></g><g id="_组_4700"><path id="_路径_9745" class="cls-12" d="m.66,14.24c.15.09.15.23,0,.31-.17.09-.37.09-.55,0-.15-.09-.15-.23,0-.31.17-.09.37-.09.55,0"/><path id="_路径_9754" class="cls-12" d="m11.43,19.47c.15.09.15.23,0,.32-.17.09-.37.09-.55,0-.15-.09-.15-.23,0-.32.17-.09.37-.09.55,0"/><path id="_路径_9772" class="cls-12" d="m32.87,18.24c.15.09.15.23,0,.32-.17.09-.37.09-.55,0-.15-.09-.15-.23,0-.32.17-.09.37-.09.55,0"/><path id="_路径_9791" class="cls-12" d="m17.6,3.49l-.1.06-.17-.1-1.83-1.06s-.03-.04-.02-.07c0,0,.01-.01.02-.02l.85-.49-2.09-1.23-.2-.12s-.03-.05-.02-.07c.01-.02.04-.03.07-.02l.25.15,2.11,1.24s.03.05.02.07c0,0-.01.01-.02.02l-.85.49,1.8,1.04.17.1Z"/><path id="_路径_9792" class="cls-12" d="m14.33.24c.15.09.15.23,0,.32-.17.09-.37.09-.55,0-.15-.09-.15-.23,0-.32.17-.09.37-.09.55,0"/><path id="_路径_9795" class="cls-12" d="m10.94.07c.15.09.15.23,0,.32-.17.09-.37.09-.55,0-.15-.09-.15-.23,0-.32.17-.09.37-.09.55,0"/><path id="_路径_9799" class="cls-12" d="m29.56,4.31l-.2.12-2.09,1.23.85.49s.03.05.02.07c0,0-.01.01-.02.02l-1.74,1-.17.1-.1-.06.17-.1,1.71-.99-.85-.49s-.03-.03-.03-.04c0-.02,0-.03.03-.04l2.11-1.24.25-.15s.06,0,.07.02c.01.02,0,.06-.02.07"/><path id="_路径_9800" class="cls-12" d="m27.4,2.12l-.32.19-1.63.94,1.27.73s.03.03.03.04c0,.02,0,.03-.03.04l-2.91,1.68-.17.1-.1-.06.17-.1,2.89-1.67-1.27-.73s-.03-.05-.02-.07c0,0,.01-.01.02-.02l1.67-.96.36-.21s.06,0,.07.02c.01.02,0,.06-.02.07"/><path id="_路径_9804" class="cls-12" d="m28.39,4.09l-.24.14-3.49,2.01-.17.1-.1-.06.17-.1,3.48-2.01.3-.17s.05-.01.07.01.01.05-.01.07c0,0,0,0,0,0"/><path id="_路径_9808" class="cls-12" d="m29.29,4.08c-.15.09-.15.23,0,.32.17.09.37.09.55,0,.15-.09.15-.23,0-.32-.17-.09-.37-.09-.55,0"/><path id="_路径_9813" class="cls-12" d="m28.07,3.88c-.15.09-.15.23,0,.32.17.09.37.09.55,0,.15-.09.15-.23,0-.32-.17-.09-.37-.09-.55,0"/><path id="_路径_9814" class="cls-12" d="m27.06,1.98c-.15.09-.15.23,0,.32.17.09.37.09.55,0,.15-.09.15-.23,0-.32-.17-.09-.37-.09-.55,0"/><path id="_路径_9815" class="cls-12" d="m26.27.15c-.15.09-.15.23,0,.32.17.09.37.09.55,0,.15-.09.15-.23,0-.32-.17-.09-.37-.09-.55,0"/><path id="_路径_9816" class="cls-12" d="m30.44,4.49c-.15.09-.15.23,0,.32.17.09.37.09.55,0,.15-.09.15-.23,0-.32-.17-.09-.37-.09-.55,0"/></g><path class="cls-12" d="m35.53,13.86c-.16-.08-.34-.08-.5-.02h0s-3.41-1.97-3.41-1.97l1.4-.81-2.51-1.45,1.34-.77,1.1.64s.03,0,.05,0l1.47-.85h0c.15.04.31.03.45-.04.15-.09.15-.23,0-.32-.17-.09-.37-.09-.55,0-.14.08-.15.21-.02.3h0s-1.38.8-1.38.8l-1.1-.64s-.03,0-.05,0l-1.41.82-.97-.56,2.5-1.44s.02-.03.03-.04h0s0-.03-.02-.04l-2.31-1.38h0s1.5-.87,1.5-.87l.76.44h0c-.1.09-.09.21.04.28.17.09.37.09.55,0,.15-.09.15-.23,0-.32-.15-.08-.32-.08-.48-.02h0s0,0,0,0l-.84-.49s-.03,0-.05,0l-1.58.91h0s0,0,0,0l-.54-.32,1.49-.86.25-.15s.03-.04.02-.07-.04-.03-.07-.02l-.3.17-1.51.87s-.01.01-.02.02c-.01.02,0,.06.02.07l.56.34h0s-2.52,1.46-2.52,1.46l-4.16-2.4,1.48-.86h0c.15.05.32.04.47-.03.15-.09.15-.23,0-.32-.17-.09-.37-.09-.55,0-.14.08-.14.2-.03.29h0s-1.48.86-1.48.86l-.97-.56,3.45-2h0c.15.04.31.03.45-.04.15-.09.15-.23,0-.32-.17-.09-.37-.09-.55,0-.14.08-.15.21-.02.3h0s-3.44,1.99-3.44,1.99l-.99-.57,5.82-3.36.16-.09h0s.03-.04.02-.07c-.01-.02-.04-.03-.07-.02l-.24.14-5.8,3.34-.54-.31,1.77-1.02s.01-.01.02-.02c.01-.02,0-.06-.02-.07l-.85-.49,2.09-1.23h0c.15.05.32.04.47-.03.15-.09.15-.23,0-.32-.17-.09-.37-.09-.55,0-.14.08-.14.2-.03.29h0s-2.11,1.24-2.11,1.24c0,0-.01.01-.02.02-.01.02,0,.06.02.07l.85.49-1.74,1.01-1.27-.73-1.8,1.05-2.67-1.54h0s0,0,0,0l.8-.48s.02-.03.02-.04h0s0-.03-.03-.04l-1.51-.87h0c.09-.09.08-.2-.05-.27-.17-.09-.37-.09-.55,0-.15.09-.15.23,0,.31.16.08.34.08.5.02h0s1.49.86,1.49.86l-.78.46h0s-3.08-1.77-3.08-1.77l-.24-.14s-.06,0-.07.02h0s0,.06.02.07l.16.09,3.1,1.79h0s-1.01.6-1.01.6h0s0,0,0,0l-.81-.47h0c.13-.09.13-.22-.02-.3-.17-.09-.37-.09-.55,0-.15.09-.15.23,0,.32.14.07.3.08.45.04h0s.83.48.83.48h0s0,0,0,0l-.97.58s-.03.03-.03.04c0,.02.01.03.03.04l2.66,1.54-1.25.72-2.78-1.6,1.24-.72s.01-.01.02-.02c.01-.02,0-.06-.02-.07l-1.61-.93h0c.09-.09.08-.2-.05-.28-.17-.09-.37-.09-.55,0-.15.09-.15.23,0,.32.16.08.34.08.5.02h0s1.58.92,1.58.92l-1.24.72s-.03.03-.03.04c0,.02,0,.03.03.04l2.8,1.62-.45.26-3.53-2.04h0c.12-.09.12-.22-.02-.3-.17-.09-.37-.09-.55,0-.15.09-.15.23,0,.32.14.07.3.08.45.03h0s3.54,2.05,3.54,2.05l-1.61.94-1.77-1.02.85-.49s.01-.01.02-.02c.01-.02,0-.05-.02-.07l-2.11-1.24h0c.11-.09.11-.21-.03-.29-.17-.09-.37-.09-.55,0-.15.09-.15.23,0,.31.15.07.31.08.47.03h0s2.09,1.23,2.09,1.23l-.85.49s-.01.01-.02.02c-.01.02,0,.05.02.07l1.8,1.04-.51.29-4.27-2.47s-.04,0-.05,0l-.84.48h0c-.16-.05-.33-.05-.48.03-.15.09-.15.23,0,.32.17.09.37.09.55,0,.13-.08.14-.19.04-.28h0s.76-.44.76-.44l4.2,2.42-.57.33-1.9-1.1s-.03,0-.05,0l-1.31.76-1.71-.99h0c.08-.09.07-.2-.06-.27-.17-.09-.37-.09-.55,0-.15.09-.15.23,0,.32.16.08.35.08.51.01h0s1.78,1.03,1.78,1.03c.02,0,.03,0,.05,0l1.31-.76,1.83,1.05-1.91,1.11-1.57-.91h0c.11-.09.11-.21-.03-.29-.17-.09-.37-.09-.55,0-.15.09-.15.23,0,.32.15.07.32.08.47.03h0s1.58.91,1.58.91l-1.83,1.06-2.51-1.45,1.13-.65s.03-.03.03-.04c0-.02,0-.03-.03-.04l-1.53-.88h0c.14-.09.14-.22,0-.31-.17-.09-.37-.09-.55,0-.15.09-.15.23,0,.32.13.07.29.08.43.04h0s1.52.88,1.52.88l-1.13.65s-.03.05-.02.07c0,0,.01.01.02.02l2.53,1.46-1.45.84.97.56,1.07.62-.9.52-1.1-.63s-.03,0-.05,0l-3.63,2.1-.28.16s0,0,0,0c-.02.01-.03.04-.02.07,0,.02.03.02.04.03,0,0,.02,0,.03,0l.33-.19,3.55-2.05,1.1.63s.03,0,.05,0l.97-.56.74.43-1.1.64s-.03.03-.03.04c0,.02,0,.03.03.04l1.13.65-3.03,1.75h0c-.16-.06-.34-.06-.49.02-.15.09-.15.23,0,.32.17.09.37.09.55,0,.13-.08.14-.19.05-.27h0s3.06-1.77,3.06-1.77c.02,0,.03-.03.03-.04h0s0-.03-.03-.04l-1.13-.65,1.08-.62,1.61.93-3.55,2.05h0c-.16-.06-.34-.06-.5.02-.15.09-.15.23,0,.32.17.09.37.09.55,0,.13-.07.14-.18.05-.27h0s3.56-2.06,3.56-2.06l.54.31-2.45,1.43.88.51h0s-2,1.15-2,1.15c0,0,0,0,0,0-.17-.09-.37-.09-.55,0-.15.09-.15.23,0,.32.17.09.37.09.55,0,.11-.07.14-.16.08-.24h0s2.02-1.17,2.02-1.17h0s2.16,1.24,2.16,1.24h0s-1.08.62-1.08.62h0c-.16-.06-.34-.05-.49.02-.15.09-.15.23,0,.32.17.09.37.09.55,0,.13-.08.14-.19.04-.28h0s0,0,0,0l1.08-.62h0s0,0,0,0l.96.56h0s-2.08,1.2-2.08,1.2h0c-.17-.08-.37-.08-.54,0-.15.09-.15.23,0,.31.17.09.37.09.55,0,.12-.07.14-.17.08-.25h0s2.1-1.21,2.1-1.21h0s1.33.77,1.33.77l-1.22.7-.34.19.05.09.37-.22h0l1.33-.77-1.43-.83,1.38-.8,1.09.63s.03,0,.05,0l.96-.55,1.12.65-3.51,2.03h0c-.16-.05-.33-.05-.48.03-.15.09-.15.23,0,.32.17.09.37.09.55,0,.13-.08.14-.2.04-.28h0s3.51-2.03,3.51-2.03l.61.35-1.04.6s-.01.01-.02.02c-.01.02,0,.05.02.07l1.13.65-2.95,1.7h0c-.16-.06-.34-.06-.5.02-.15.09-.15.23,0,.32.17.09.37.09.55,0,.13-.07.14-.19.05-.27h0s2.98-1.72,2.98-1.72c.02,0,.03-.03.03-.04h0s0-.04-.03-.04l-1.13-.65,1.02-.59,1.84,1.06,1.41-.82.98.56-1.13.65s-.03.03-.03.04c0,.02,0,.03.03.04l3.04,1.76h0c-.14.09-.14.23,0,.31.17.09.37.09.55,0,.15-.09.15-.23,0-.32-.13-.07-.29-.08-.43-.04h0s-3.03-1.75-3.03-1.75l1.13-.65s.02-.03.03-.04c0-.02,0-.03-.03-.04l-1-.58.53-.31,3.43,1.98h0c-.12.09-.11.22.03.3.17.09.37.09.55,0,.15-.09.15-.23,0-.32-.14-.07-.31-.08-.46-.03h0s-3.44-1.99-3.44-1.99l.66-.38,1.73,1s.03,0,.05,0l1.64-.95,2.97,1.72h0c-.1.09-.09.21.04.28.17.09.37.09.55,0,.15-.09.15-.23,0-.32-.15-.08-.32-.08-.48-.02h0s-3.05-1.76-3.05-1.76c-.02,0-.03,0-.05,0l-1.64.95-1.65-.95,3.64-2.11.63.37h0s0,0,0,0l-2.01,1.16h0c-.17-.08-.37-.08-.54,0-.15.09-.15.23,0,.32.17.09.37.09.55,0,.12-.07.14-.17.08-.25h0s2.03-1.17,2.03-1.17h0s.77.45.77.45l-.85.49s-.01.01-.02.02c-.01.02,0,.06.02.07l2.3,1.33h0s-.03.01-.05.02c-.15.09-.15.23,0,.32.17.09.37.09.55,0,.15-.09.15-.23,0-.32-.11-.06-.24-.07-.36-.06h0s-2.31-1.34-2.31-1.34l.85-.49s.02-.03.03-.04c0-.02,0-.03-.03-.04l-.79-.47h0s0,0,0,0l.45-.26h0s2.66,1.53,2.66,1.53h0c-.08.09-.06.19.06.27.17.09.37.09.55,0,.15-.09.15-.23,0-.32-.16-.08-.35-.08-.51-.01h0s-2.65-1.53-2.65-1.53h0s0,0,0,0l1.62-.94-.75-.43.62-.36,1.59.92-1.54.89s-.03.03-.03.04c0,.02,0,.03.03.04l4.2,2.42.3.17s.02,0,.03,0c.02,0,.03,0,.04-.03h0s0,0,0,0c.01-.02,0-.06-.02-.07l-.23-.13-4.19-2.42,1.54-.89s.01-.01.02-.02c.01-.02,0-.05-.02-.07l-1.61-.93.65-.38,3.46,2h0c-.12.09-.11.22.03.3.17.09.37.09.55,0,.15-.09.15-.23,0-.32-.14-.07-.31-.08-.46-.03h0s-3.46-2-3.46-2l1.61-.93,1,.58-1.13.65s-.03.03-.03.04c0,.02,0,.03.03.04l3.03,1.75h0c-.13.09-.13.22.01.3.17.09.37.09.55,0,.15-.09.15-.23,0-.32-.14-.07-.3-.08-.45-.04h0s-3.02-1.75-3.02-1.75l1.13-.65s.01-.01.02-.02c.01-.02,0-.05-.02-.07l-1.02-.59.88-.51,3.42,1.97h0c-.09.09-.08.2.05.28.17.09.37.09.55,0,.15-.09.15-.23,0-.32Zm-6-7.73l2.28,1.37-2.48,1.43-2.33-1.34,2.52-1.46ZM13,2.88l1.01-.6,2.67,1.54-1.02.59-2.65-1.53h0Zm-1.04.62l.94-.56h0s2.65,1.53,2.65,1.53l-.96.56-2.64-1.52Zm-3.97,12.45h0s-.78-.45-.78-.45l2.35-1.38,1.91,1.1-.86.49-1.09-.63s-.03,0-.05,0l-1.48.86h0Zm2.26,1.3l-2.16-1.24,1.41-.81,1.09.63s.03,0,.05,0l.93-.54,1.04.6-2.37,1.37h0Zm3.67.41l-1.09-.63s-.04,0-.05,0l-1.46.84h0s-.96-.56-.96-.56l2.37-1.37,2.08,1.2-.88.51Zm12.02-1.76h0s-.63-.37-.63-.37l.44-.25.64.37h0s-.44.26-.44.26Zm2.06-1.19l-1.52.88h0s-.64-.37-.64-.37l1.51-.88.65.37Zm-9.33,4.45L4.61,11.05,18.58,2.94l14.06,8.12-13.97,8.12Z"/></svg>