<?xml version="1.0" encoding="UTF-8"?><svg id="_圖層_1" xmlns="http://www.w3.org/2000/svg" viewBox="0 0 36.42 34.59"><defs><style>.cls-1{fill:#ef821d;}.cls-1,.cls-2{stroke-width:0px;}.cls-2{fill:#3d61ab;}</style></defs><g id="_组_589"><path id="_路径_520" class="cls-2" d="m0,18.81c.06-.08.11-.15.17-.23.22-.32.61-.45.98-.34.38.08.65.41.66.79.02.81.03,1.62.02,2.43,0,.3.08.4.38.38.34-.03.68-.03,1.02,0,.32.03.41-.08.4-.4-.02-1.91,0-3.81,0-5.72-.11-2.55,1.86-4.7,4.41-4.81.14,0,.27,0,.41,0,2.8,0,5.6,0,8.4.01.36,0,.45-.11.44-.45-.02-.97-.02-1.93,0-2.9.04-.24-.12-.47-.36-.52-1.47-.53-2.43-1.96-2.37-3.52C14.62,1.52,16.3-.06,18.32,0c2.01.06,3.59,1.74,3.53,3.76-.05,1.45-.95,2.74-2.31,3.27-.29.06-.48.34-.43.63.02.97.02,1.93,0,2.9,0,.3.09.37.38.36,2.81-.01,5.63,0,8.45-.01,1.38-.07,2.72.49,3.65,1.51.77.83,1.19,1.93,1.18,3.06,0,1.99,0,3.98,0,5.97,0,.32.08.41.4.39.45-.03,1.07.16,1.32-.07.29-.26.07-.88.09-1.35.01-.41,0-.82,0-1.24-.03-.51.37-.95.88-.97.51-.03.95.37.97.88,0,.03,0,.06,0,.1,0,2.37,0,4.75,0,7.12.04.51-.34.96-.85,1-.51.04-.96-.34-1-.85,0-.05,0-.1,0-.15,0-.78-.01-1.56,0-2.35,0-.24-.07-.32-.31-.3-.49-.01-.99,0-1.48.05,0,.47-.02.93-.02,1.4,0,1.66,0,3.33,0,4.99-.01,2.22-1.65,4.09-3.84,4.41-.03,0-.06.05-.08.07H7.42c-.04-.11-.14-.07-.21-.09-2-.42-3.47-2.14-3.54-4.19-.08-2.07-.04-4.14-.03-6.22,0-.31-.04-.47-.41-.43-.34.03-.68.03-1.02,0-.29-.02-.39.06-.38.37.02.75.02,1.5,0,2.26.06.49-.28.94-.77,1.02-.46.07-.91-.21-1.06-.65v-7.85m18.18,13.95h9.72c.41.02.82-.03,1.22-.16,1.15-.41,1.88-1.54,1.8-2.76,0-2.36-.02-4.72-.02-7.08s.03-4.75.02-7.12c.1-1.5-1.04-2.8-2.54-2.89-.12,0-.25,0-.37,0-6.55,0-13.11,0-19.66,0-1.52-.07-2.8,1.1-2.88,2.61,0,.08,0,.16,0,.25,0,4.76,0,9.52,0,14.29,0,.33.05.65.15.96.39,1.21,1.39,1.89,2.81,1.89,3.26,0,6.51,0,9.77,0m0-27.33c.97.03,1.78-.73,1.81-1.7,0-.03,0-.06,0-.09,0-1-.82-1.81-1.82-1.81-.98.03-1.77.82-1.8,1.8,0,.99.8,1.79,1.79,1.8,0,0,.02,0,.03,0"/><path id="_路径_521" class="cls-1" d="m12.73,18.42c2.01,0,3.65,1.62,3.65,3.64,0,2.01-1.62,3.65-3.64,3.65-2.01,0-3.64-1.61-3.65-3.62-.02-2.01,1.59-3.65,3.6-3.67.01,0,.02,0,.03,0m1.81,3.65c0-1-.81-1.81-1.81-1.82-1,.03-1.8.84-1.81,1.84.02.98.82,1.77,1.81,1.78.99.01,1.8-.77,1.81-1.76,0-.01,0-.03,0-.04"/><path id="_路径_522" class="cls-1" d="m20.01,22.13c-.03-2.01,1.57-3.67,3.59-3.7,2.01-.03,3.67,1.57,3.7,3.59.03,1.94-1.47,3.57-3.41,3.7-2.01.13-3.75-1.4-3.88-3.41,0-.06,0-.11,0-.17m3.65,1.75c.99,0,1.79-.8,1.79-1.79,0-.01,0-.03,0-.04-.01-.98-.81-1.78-1.79-1.8-1,.02-1.81.82-1.83,1.82.01,1,.83,1.81,1.83,1.81"/></g></svg>