<?xml version="1.0" encoding="UTF-8"?><svg id="_圖層_1" xmlns="http://www.w3.org/2000/svg" viewBox="0 0 37.06 30.67"><defs><style>.cls-1{fill:#fff;stroke-width:0px;}</style></defs><g id="_组_5069"><g id="_路径_10790"><path class="cls-1" d="m9.24,6.64c.01-1.68,1.38-3.02,3.06-3.01,1.68.01,3.02,1.38,3.01,3.06s-1.38,3.02-3.06,3.01h0c-1.67-.01-3.02-1.38-3.01-3.05,0,0,0,0,0,0m3.01-1.86c-1.04,0-1.88.85-1.88,1.89,0,0,0,.02,0,.02.05,1.05.94,1.86,1.99,1.81,1-.05,1.79-.86,1.81-1.86,0-1.04-.85-1.87-1.89-1.87-.01,0-.03,0-.04,0"/><path class="cls-1" d="m12.27,9.77h-.02c-1.71-.01-3.1-1.41-3.09-3.13h0c0-.84.34-1.62.93-2.2.59-.58,1.36-.9,2.18-.9,0,0,.02,0,.02,0,1.72.01,3.1,1.42,3.09,3.14,0,.83-.34,1.61-.93,2.19-.59.58-1.36.9-2.18.9Zm-2.96-3.14h0c-.01,1.63,1.3,2.97,2.93,2.98.8,0,1.53-.3,2.1-.85.56-.55.88-1.29.88-2.08.01-1.63-1.3-2.96-2.93-2.98,0,0-.02,0-.02,0-.78,0-1.52.3-2.07.85-.56.55-.87,1.29-.88,2.08Zm2.95,1.95c-.49,0-.96-.18-1.33-.52-.39-.36-.62-.84-.64-1.37v-.03c0-1.08.88-1.96,1.96-1.97h.04c.53,0,1.01.2,1.39.57.37.37.58.86.58,1.38-.02,1.04-.85,1.89-1.89,1.94-.03,0-.06,0-.09,0Zm.03-3.73h-.05c-1,0-1.8.81-1.8,1.81v.02c.05,1,.9,1.79,1.91,1.74.95-.04,1.72-.83,1.74-1.78,0-.48-.19-.93-.53-1.27-.34-.34-.79-.52-1.27-.52Z"/></g><g id="_路径_10791"><path class="cls-1" d="m18.93,23.56c.02-1.05.01-5.04,0-6.09-.01-1.35-.64-2.17-1.93-2.52-.15-.04-.28-.05-.37-.22-.31-.61-.96-.97-1.64-.91-.84,0-1.68-.03-2.52.01-.39.05-.75-.17-.9-.53-.4-.76-.85-1.49-1.28-2.23-.31-.54-.88-.89-1.5-.91-1.41-.17-2.79.42-3.65,1.55-1.11,1.43-1.87,3.09-2.22,4.87-.22.94-.18,1.92-.38,2.85-.38,1.72-.9,3.41-1.36,5.11-.35,1.32-.72,2.63-1.05,3.95-.27.87.22,1.8,1.09,2.07,0,0,.02,0,.03,0,.89.24,1.81-.29,2.05-1.17.01-.04.02-.07.03-.11.34-1.28.67-2.57,1.02-3.85.23-.87.48-1.73.72-2.6h.06v.52c0,1.87,0,3.75,0,5.62-.04.87.64,1.61,1.52,1.65.06,0,.13,0,.19,0,.92-.03,1.56-.73,1.56-1.75,0-3.13,0-6.27,0-9.4.02-1.25.3-2.49.82-3.63.06.06.12.13.16.21.41.86,1.12,1.13,2.03,1.09.79-.03,1.58,0,2.36,0,.23,0,.4,0,.4.31,0,.24-.16.8.45.77.43.02.47-.37.5-.54.1-.55.56-.62.94-.82.17-.1.31-.23.43-.38.35-.43.52-.44.92-.06.27.26.41.62.39,1,0,1.09,0,5.11,0,6.2,0,.06,0,.11,0,.17h1.15c-.01-.07-.02-.13-.02-.2m-15.01-.99c-.56,2.09-1.11,4.18-1.67,6.27-.02.1-.05.2-.1.3-.13.25-.31.44-.62.32-.26-.07-.41-.34-.34-.6,0-.01,0-.02,0-.03.69-2.56,1.38-5.12,2.09-7.78.28.36.77.3.84.62.06.27-.14.6-.22.9m11.26-6.61c-1.4.02-2.8,0-4.2,0-.23,0-.44-.15-.53-.37-.25-.42-.48-.85-.74-1.27-.33-.51-.82-.49-1.09.05-.91,1.69-1.38,3.57-1.38,5.48.02,1.36,0,2.73,0,4.1,0,1.59,0,3.19,0,4.78,0,.37-.06.72-.48.74-.45.01-.54-.35-.54-.74,0-2.47,0-4.94,0-7.4,0-.74-.12-.86-.85-.86-.21,0-.42,0-.63,0-.63-.03-1.03-.39-1.01-1.03.07-2.48.65-4.81,2.15-6.84.56-.86,1.52-1.36,2.54-1.32.44-.02.86.22,1.05.63.47.86.98,1.7,1.45,2.55.16.34.51.55.88.51,1.05-.02,2.1,0,3.15,0,.27,0,.53.02.67.31.12.24.02.53-.21.65-.07.04-.16.05-.24.05"/><path class="cls-1" d="m1.68,30.67c-.15,0-.3-.02-.45-.06h-.03c-.43-.14-.79-.44-1-.84s-.25-.86-.12-1.3c.25-.99.52-1.98.78-2.95.09-.33.18-.66.27-1,.14-.52.29-1.05.43-1.55.33-1.16.66-2.36.93-3.55.1-.45.14-.93.19-1.39.04-.48.09-.98.2-1.46.35-1.77,1.12-3.46,2.23-4.89.86-1.13,2.28-1.73,3.69-1.57.64.03,1.22.38,1.54.94l.17.29c.37.63.76,1.28,1.11,1.94.14.35.48.55.85.51.53-.03,1.07-.02,1.59-.02.31,0,.63,0,.94,0,.7-.07,1.37.3,1.69.93.07.13.16.15.28.18.02,0,.04,0,.06.02,1.31.35,1.95,1.19,1.96,2.56,0,1.07.01,5.06,0,6.09h-.1c.02-1.03.01-5.02,0-6.09-.01-1.32-.63-2.13-1.89-2.47-.02,0-.04-.01-.06-.01-.13-.03-.26-.06-.34-.23-.3-.6-.93-.95-1.6-.88-.32,0-.64,0-.95,0-.52,0-1.05-.01-1.58.02-.4.05-.79-.18-.94-.56-.35-.65-.73-1.3-1.11-1.93l-.17-.29c-.31-.53-.85-.86-1.46-.89-1.39-.16-2.77.42-3.61,1.53-1.1,1.41-1.87,3.09-2.21,4.85-.11.48-.15.97-.2,1.45-.04.46-.09.94-.19,1.4-.26,1.2-.6,2.4-.93,3.56-.14.51-.29,1.03-.43,1.55-.09.33-.18.67-.27,1-.26.97-.53,1.96-.78,2.95-.13.41-.09.85.11,1.23.2.38.54.66.95.79h.03c.86.24,1.75-.27,1.99-1.13,0-.04.02-.07.03-.11.15-.56.29-1.11.44-1.67.19-.73.38-1.46.58-2.18.17-.62.34-1.24.51-1.85.07-.25.14-.5.21-.75v-.04s.16.03.16.03v.54c0,.53,0,1.06,0,1.59,0,1.32,0,2.69,0,4.03-.02.41.13.8.4,1.11s.66.48,1.07.49c.06,0,.12,0,.19,0,.91-.03,1.52-.71,1.52-1.7,0-3.13,0-6.3,0-9.4.02-1.27.3-2.49.82-3.65l.03-.06.05.05c.06.07.12.14.17.21.37.77,1,1.1,1.99,1.07.51-.02,1.02-.02,1.52-.01.28,0,.56,0,.84,0,.23,0,.44,0,.45.36,0,.04,0,.09,0,.15-.01.17-.03.37.08.48.07.07.17.1.32.09.34.01.41-.24.45-.47v-.03c.09-.46.42-.61.74-.74.08-.03.16-.07.24-.11.16-.09.3-.22.41-.37.17-.21.31-.34.48-.35.16-.02.33.11.51.29.28.27.42.65.4,1.03,0,1.08,0,5.11,0,6.2,0,.04,0,.08,0,.12h1.05c0-.05,0-.1,0-.16h.1c0,.07,0,.13.02.19v.06s-1.25,0-1.25,0v-.05c0-.05.01-.11,0-.16,0-1.09,0-5.11,0-6.2.02-.36-.12-.71-.37-.96-.2-.19-.33-.27-.44-.26-.11,0-.23.1-.41.32-.12.16-.27.29-.44.39-.08.04-.16.08-.24.11-.31.13-.6.26-.68.67v.03c-.04.17-.1.58-.55.55-.17.01-.31-.03-.39-.12-.14-.14-.12-.37-.1-.56,0-.05,0-.1,0-.14,0-.27-.13-.26-.35-.27-.29,0-.57,0-.85,0-.5,0-1.01,0-1.52.01-1.03.04-1.69-.31-2.07-1.12-.03-.05-.07-.1-.11-.14-.5,1.12-.76,2.31-.79,3.54,0,3.1,0,6.27,0,9.4,0,1.03-.66,1.77-1.61,1.8-.06,0-.13,0-.19,0-.44-.02-.84-.2-1.13-.52-.29-.32-.45-.74-.43-1.17,0-1.34,0-2.71,0-4.03,0-.53,0-1.06,0-1.59v-.4c-.06.21-.12.43-.18.64-.17.61-.34,1.23-.51,1.85-.19.73-.39,1.46-.58,2.18-.15.56-.29,1.11-.44,1.67,0,.04-.02.07-.03.11-.21.76-.9,1.27-1.66,1.27Zm.04-1.13c-.06,0-.13-.01-.2-.04-.28-.08-.44-.37-.36-.65,0-.01,0-.02.01-.03.49-1.84.99-3.68,1.49-5.56l.62-2.31.06.08c.12.16.3.23.45.3.18.08.35.15.39.34.04.2-.04.42-.12.64-.04.09-.07.19-.1.28h0l-1.67,6.27c-.02.1-.05.21-.1.31-.05.11-.2.38-.48.38Zm1.6-8.39l-.57,2.13c-.51,1.88-1,3.72-1.5,5.56,0,.01,0,.02,0,.03-.06.23.07.47.3.54.24.1.41,0,.57-.29.04-.09.07-.19.09-.29l1.67-6.27c.03-.1.06-.2.1-.29.08-.2.16-.41.12-.59-.03-.14-.17-.2-.34-.27-.14-.06-.3-.13-.43-.26Zm3.42,8.38c-.16,0-.28-.05-.37-.13-.13-.13-.19-.34-.19-.65,0-2.46,0-4.95,0-7.4,0-.71-.1-.81-.8-.82-.06,0-.12,0-.19,0-.15,0-.3,0-.45,0-.68-.03-1.07-.44-1.06-1.08.08-2.76.79-5,2.16-6.87.54-.83,1.48-1.34,2.48-1.34.03,0,.07,0,.1,0,.46-.02.89.23,1.09.65.26.47.53.95.8,1.41.22.37.44.75.65,1.14.15.32.48.52.84.49.74-.02,1.49-.01,2.21-.01.31,0,.63,0,.94,0,.29,0,.57.03.71.33.06.12.07.27.03.4-.04.13-.14.24-.26.31-.08.04-.17.06-.26.06h0c-.88,0-1.76,0-2.63,0-.52,0-1.05,0-1.57,0-.25,0-.48-.16-.57-.4-.08-.13-.16-.28-.24-.42-.16-.28-.32-.57-.5-.84-.15-.23-.34-.35-.53-.35-.19,0-.36.15-.48.39-.9,1.67-1.38,3.56-1.38,5.46.01.94.01,1.9,0,2.83,0,.42,0,.84,0,1.27s0,.85,0,1.28c0,1.15,0,2.33,0,3.5,0,.36-.06.77-.52.79,0,0-.02,0-.03,0Zm-1.37-9.1c.75,0,.9.15.9.91,0,2.46,0,4.95,0,7.4,0,.28.05.48.16.58.08.08.19.11.33.11.31,0,.43-.21.43-.69,0-1.17,0-2.35,0-3.5,0-.43,0-.85,0-1.28s0-.84,0-1.27c0-.93,0-1.89,0-2.83,0-1.92.48-3.82,1.39-5.51.14-.27.34-.43.56-.44.22,0,.44.13.61.39.18.28.34.56.5.84.08.14.16.28.24.42.08.2.27.34.49.34.52,0,1.05,0,1.57,0,.86,0,1.75,0,2.63,0h0c.07,0,.15-.01.21-.04.1-.05.18-.14.22-.25s.03-.23-.03-.33c-.13-.28-.39-.28-.68-.28-.3,0-.59,0-.89,0-.72,0-1.47,0-2.21.01-.39.04-.76-.18-.93-.54-.21-.38-.43-.76-.65-1.13-.27-.46-.55-.94-.81-1.42-.18-.39-.58-.62-1-.6-.03,0-.07,0-.1,0-.97,0-1.88.49-2.4,1.3-1.37,1.85-2.07,4.08-2.15,6.82-.02.59.34.95.97.98.15,0,.3,0,.44,0,.06,0,.12,0,.19,0Z"/></g><g id="_路径_10794"><path class="cls-1" d="m33.3,24.34c.36,0,.71,0,1.07.01h0c-.36,0-.72-.01-1.08-.01"/><path class="cls-1" d="m34.37,24.43h0c-.36,0-.72-.01-1.07-.01v-.16h0c.34,0,.68,0,1.01.01.02,0,.04,0,.06,0v.16Z"/></g><g id="_路径_10795"><path class="cls-1" d="m28.93,24.34c.36,0,.71,0,1.07.01h0c-.36,0-.72-.01-1.07-.01"/><path class="cls-1" d="m30,24.43h0c-.09,0-.18,0-.27,0-.22,0-.44,0-.69,0-.04,0-.07,0-.11,0h0s0,0,0,0v-.16s0,0,0,0h0s.08,0,.12,0c.31,0,.63,0,.96.01v.16Z"/></g><path class="cls-1" d="m18.92,28.2c0-.06,0-.13,0-.2,0-.06,0-.12,0-.18,0-.52,0-1.04,0-1.57,0-.84,0-1.7,0-2.55v-.08h-1.3v.08c0,.09,0,.18,0,.28,0,.09,0,.18,0,.28v1.15s0,0,0,0v.08c0,.09,0,.18,0,.28,0,.09,0,.18,0,.27v1.9s0,.09,0,.13v1.63c-.04.29.12.57.39.68.09.04.18.06.27.06.17,0,.34-.07.46-.2.15-.2.22-.45.18-.69,0-.45,0-.9,0-1.35Z"/><g id="_组_5092"><g id="_路径_10788"><path class="cls-1" d="m28.31,9.33c1.1,0,2.2,0,3.3,0,.54,0,.68.14.68.68,0,.66,0,1.31,0,1.97.05.28-.14.54-.42.59-.05,0-.11,0-.16,0h-6.77c-.29.04-.56-.16-.6-.45,0-.05,0-.09,0-.14,0-.69,0-1.37,0-2.06,0-.41.23-.6.64-.59,1.11,0,2.23,0,3.34,0m.03,1.01h-2.2c-.82,0-.81,0-.82.81,0,.32.09.41.41.41,1.59-.02,3.18,0,4.76,0,.86,0,.85,0,.84-.87,0-.26-.07-.34-.33-.34-.89.01-1.77,0-2.66,0"/><path class="cls-1" d="m24.85,12.65c-.29,0-.55-.22-.6-.52,0-.05,0-.1,0-.16,0-.67,0-1.37,0-2.05,0-.44.25-.67.71-.67h0c.8,0,1.6,0,2.39,0h.95s0,.16,0,.16h-.95c-.8,0-1.6,0-2.39,0h0c-.38,0-.55.16-.55.52,0,.68,0,1.37,0,2.06,0,.05,0,.09,0,.13.04.25.27.42.51.38h6.78c.06,0,.1,0,.15,0,.11-.02.21-.08.28-.18.07-.09.09-.21.07-.32,0-.36,0-.71,0-1.06,0-.31,0-.61,0-.92,0-.49-.1-.59-.6-.6-.73,0-1.46,0-2.2,0h-1.1s0-.16,0-.16h1.1c.73,0,1.47,0,2.2,0,.58,0,.75.17.76.75,0,.31,0,.61,0,.92,0,.35,0,.7,0,1.05.03.14-.01.3-.1.43-.09.13-.23.21-.38.24-.06.01-.12.01-.19,0h-6.76s-.06,0-.08,0Zm.86-1.02c-.13,0-.27-.01-.37-.11-.08-.08-.11-.19-.1-.38v-.05c.02-.8.05-.84.9-.84h2.2c.25,0,.49,0,.74,0,.63,0,1.28,0,1.92,0,.16,0,.25.02.32.09.08.08.1.21.1.33v.03c0,.44,0,.66-.12.79-.13.13-.35.13-.8.13h-1.26c-1.15,0-2.34,0-3.51,0h-.02Zm.43-1.21q-.73,0-.74.68v.05c0,.14.01.22.06.27s.12.06.27.06c1.17-.01,2.36,0,3.51,0h1.26c.39,0,.61,0,.69-.08.08-.08.08-.29.07-.68v-.03c0-.12-.02-.18-.05-.21-.03-.03-.1-.04-.2-.04-.64.01-1.29,0-1.92,0-.25,0-.49,0-.74,0h0s-2.2,0-2.2,0Z"/></g><g id="_路径_10789"><path class="cls-1" d="m28.31,3.93c1.1,0,2.2,0,3.3,0,.54,0,.68.14.68.68,0,.66,0,1.31,0,1.97.05.28-.14.54-.42.59-.05,0-.11,0-.16,0h-6.77c-.29.04-.56-.16-.6-.45,0-.05,0-.09,0-.14,0-.69,0-1.37,0-2.06,0-.41.23-.6.64-.59,1.11,0,2.23,0,3.34,0m.03,1.01h-2.2c-.82,0-.81,0-.82.81,0,.32.09.41.41.41,1.59-.02,3.18,0,4.76,0,.86,0,.85,0,.84-.87,0-.26-.07-.34-.33-.34-.89.01-1.77,0-2.66,0"/><path class="cls-1" d="m24.85,7.24c-.29,0-.55-.22-.6-.52,0-.05,0-.1,0-.16,0-.67,0-1.37,0-2.05,0-.44.25-.67.71-.67h0c.8,0,1.59,0,2.39,0h.95s0,.16,0,.16h-.95c-.8,0-1.59,0-2.39,0h0c-.38,0-.55.16-.55.52,0,.68,0,1.37,0,2.06,0,.05,0,.09,0,.13.04.25.26.42.51.38h6.78c.06,0,.1,0,.15,0,.11-.02.21-.08.28-.18.07-.09.09-.21.07-.32,0-.36,0-.71,0-1.06,0-.31,0-.61,0-.92,0-.49-.1-.59-.6-.6-.73,0-1.46,0-2.2,0h-1.1s0-.16,0-.16h1.1c.73,0,1.46,0,2.2,0,.58,0,.75.17.76.75,0,.31,0,.61,0,.92,0,.35,0,.7,0,1.05.03.14-.01.3-.1.43-.09.13-.23.21-.38.24-.06.01-.13.01-.19,0h-6.76s-.06,0-.08,0Zm.86-1.02c-.13,0-.27-.01-.36-.11-.08-.08-.11-.19-.1-.38v-.05c.02-.8.05-.84.9-.84h2.2c.25,0,.49,0,.74,0,.63,0,1.28,0,1.92,0,.15,0,.25.02.32.09.08.08.1.21.1.33v.03c0,.44,0,.66-.12.79-.13.13-.35.13-.8.13h-1.23c-1.16,0-2.35,0-3.53,0h-.02Zm.43-1.21q-.73,0-.74.68v.05c0,.14.01.22.06.27.04.04.12.06.27.06,1.18-.01,2.37-.01,3.53,0h1.23c.39,0,.61,0,.69-.08.08-.08.08-.29.07-.68v-.03c0-.12-.02-.18-.05-.21-.03-.03-.1-.04-.2-.04-.64.01-1.29,0-1.92,0-.25,0-.49,0-.74,0h0s-2.2,0-2.2,0Z"/></g><g id="_路径_10802"><path class="cls-1" d="m36.97,23.56s0-.06-.03-.08c-.11-.22-.34-.36-.59-.36h-.75c-.02-.09-.02-.18-.02-.26.02-8.06.01-13.92.01-21.98,0-.75-.09-.83-.84-.83h-12.41c-.64,0-.75.11-.75.74,0,1.94-.01,2.96,0,4.9,0,.35-.1.43-.43.42-2-.02-1.71,0-3.71-.01-.39,0-.67.11-.68.54-.01.52,0,.26,0,.78,0,.19.07.35.28.38.09.02.18.01.26-.02v6.7c0,.22.18.4.4.4s.4-.18.4-.4v-7.16c0-.08-.02-.15-.06-.21h.06c.91,0,1.83,0,2.74,0s-.49,0,.41,0c.21,0,.33,0,.33.28,0,.06-.01,11.7,0,15.59,0,.05.02.1.05.14h-6.45c-.37,0-.66.3-.66.67,0,.22.11.43.3.55.1.08.23.11.36.11h21.16c.37,0,.66-.3.67-.66,0-.08-.01-.15-.04-.23M23,1h.01c1.48,0,4.15.01,5.63.01s4.06,0,5.54-.01h.01c.37,0,.41.12.41.44-.01,3.97,0,5.74,0,9.71v11.98c-.04.1-.14.17-.25.17h-1.55c-.11,0-.2-.07-.23-.17h0v-.11c0-1.8,0-3.6,0-5.4,0-.72-.07-.8-.78-.8h-6.45c-.59,0-.72.13-.73.73,0,1.82-.01,3.63,0,5.45,0,.04,0,.09,0,.13h0c-.03.1-.13.17-.24.17h-1.56c-.13-.05-.22-.16-.23-.3,0-7.92,0-13.64,0-21.56,0-.34.08-.43.43-.43m6.07,22.12v-.02c.01-.84,0-1.68,0-2.51s.02-1.62,0-2.42c0-.29.08-.38.34-.38h.06c.3,0,.61.01.91.01s.61,0,.91-.01h.01c.24,0,.31.07.31.31,0,1.68,0,3.35,0,5.03h-2.53Zm-3.48,0c0-1.68,0-3.36,0-5.05,0-.22.07-.29.29-.29h.01c.32,0,.64,0,.95,0s.63,0,.95-.01h.01c.27,0,.29.12.29.34,0,.84,0,1.68,0,2.51s0,1.64,0,2.47v.02h-2.51Z"/><path class="cls-1" d="m15.16,24.5c-.13,0-.26-.04-.36-.12-.2-.13-.32-.35-.32-.59,0-.39.32-.72.71-.72h6.37s-.02-.06-.02-.09c-.01-3.4,0-12.69,0-15.46v-.13c0-.09-.02-.16-.05-.19-.04-.04-.12-.05-.24-.05-.03,0-.05,0-.08,0,0,0,0,0-.01,0h0s-.03,0-.04,0c-.07,0-.12,0-.15,0-.01,0-.02,0-.02,0h0s-.06,0-.09,0h-.91c-.6,0-1.21,0-1.81,0,.02.05.03.11.03.16v7.16c0,.25-.2.45-.45.45s-.45-.2-.45-.45v-6.64c-.07.02-.15.02-.23,0-.14-.02-.31-.11-.32-.43,0-.18,0-.26,0-.32,0-.11,0-.12,0-.46.01-.52.4-.59.73-.59.85,0,1.28,0,1.66,0,.5,0,.9,0,2.05,0,0,0,.01,0,.02,0,.16,0,.25-.02.3-.07.05-.05.07-.14.07-.3-.01-1.5-.01-2.47-.01-3.7V.79c0-.66.14-.79.8-.79h12.41c.78,0,.89.11.89.88v3.88c0,6.11,0,11.38-.01,18.09,0,.07,0,.15.01.22h.71c.26,0,.5.14.63.37.03.03.05.07.05.11.02.07.04.15.04.23,0,.39-.32.71-.71.71H15.19s-.02,0-.03,0Zm.03-1.33c-.17,0-.32.07-.44.18-.12.12-.18.27-.18.44,0,.21.11.4.28.51.1.07.22.1.33.1h21.16s0,0,0,0c.34,0,.62-.28.62-.61,0-.07-.01-.14-.04-.21h.04s-.04-.02-.04-.02c0-.01,0-.02-.01-.03h-.01s0-.02,0-.02c-.11-.21-.32-.33-.55-.33h-.79v-.04c-.02-.09-.03-.18-.03-.27.01-6.71.01-11.98.01-18.09V.88c0-.72-.07-.78-.8-.78h-12.41c-.61,0-.7.09-.71.69v1.2c0,1.23,0,2.2,0,3.7,0,.19-.03.3-.1.37-.09.09-.23.1-.38.1-1.15,0-1.55-.01-2.05,0-.37,0-.81,0-1.66,0-.44,0-.63.14-.64.5,0,.34,0,.34,0,.45,0,.06,0,.14,0,.32,0,.21.08.31.24.34.08.02.16.01.24-.01l.06-.02v6.77c0,.19.16.35.35.35s.35-.16.35-.35v-7.16c0-.07-.02-.13-.06-.19l-.05-.07h.15c.61,0,1.22,0,1.83,0h.91c.07,0,.12,0,.17,0,.05,0,.13,0,.24,0,.12,0,.23,0,.31.07.05.05.08.13.08.25v.13c0,2.77-.01,12.06,0,15.46,0,.04.02.07.04.1l.07.08h-4.41s-2.15,0-2.15,0Zm19.14.17h-1.55c-.11,0-.22-.07-.26-.17h-.01v-.05s0-.11,0-.11c0-1.31,0-2.63,0-3.94v-1.46c0-.69-.05-.75-.73-.75h-6.45c-.57,0-.68.11-.68.68v.76c0,1.54,0,3.13,0,4.69,0,.05,0,.09,0,.13v.04h-.02c-.05.1-.15.17-.27.17h-1.57c-.14-.05-.25-.19-.26-.34,0-8.25,0-13.89,0-21.57,0-.2.03-.31.1-.38.07-.07.18-.1.37-.1h0s.01,0,.01,0c1.56,0,4.28.01,5.63.01,1.22,0,3.94,0,5.54-.01.19,0,.3.03.37.1.08.08.1.2.1.39,0,3.12,0,4.93,0,7.42v14.27s0,0,0,0c-.05.12-.17.2-.3.2Zm-1.74-.24h0c.02.09.1.15.18.15h1.55c.09,0,.17-.05.2-.13v-14.25c0-2.5,0-4.3,0-7.42,0-.16-.01-.27-.07-.32-.05-.05-.15-.07-.3-.07-1.61.01-4.33.01-5.55.01-1.35,0-4.07,0-5.63-.01v-.08s0,.09,0,.09c-.17,0-.26.02-.31.07-.05.05-.07.14-.07.31,0,7.68,0,13.32,0,21.56.01.11.09.21.19.25h1.55c.09,0,.17-.06.19-.14h0s0-.08,0-.11c-.02-1.56-.01-3.16,0-4.69v-.76c0-.62.15-.78.77-.78h6.45c.73,0,.82.1.82.85v1.46c0,1.31,0,2.63,0,3.94v.09Zm-4.46.07h-2.6s0-.05,0-.05c0-1.67,0-3.37,0-5.05,0-.13.02-.21.08-.27.05-.05.13-.08.26-.07.34,0,.68,0,1.01,0,.33,0,.62,0,.91-.01.13,0,.22.02.27.08.08.07.08.19.08.31,0,.61,0,1.23,0,1.83v.69c0,.23,0,.46,0,.69,0,.58,0,1.18,0,1.77v.07Zm-2.51-.1h2.41c0-.58,0-1.17,0-1.75,0-.23,0-.46,0-.69v-.69c0-.6,0-1.22,0-1.83,0-.12,0-.2-.05-.24-.04-.03-.1-.05-.19-.05-.31,0-.62,0-.97.01-.32,0-.64,0-.96,0-.1,0-.16.01-.2.05-.03.03-.05.1-.05.2,0,1.66,0,3.34,0,5Zm6.01.1h-2.63v-.07c.01-.6,0-1.22,0-1.81,0-.24,0-.47,0-.71s0-.46,0-.69c0-.57,0-1.15-.01-1.73,0-.17.02-.27.09-.34.06-.06.15-.09.3-.09h.06c.28,0,.58.01.91.01.27,0,.57,0,.91-.01h.01c.13,0,.22.02.28.08.06.06.08.14.08.28,0,1.67,0,3.36,0,5.03v.05Zm-2.53-.1h2.44c0-1.65,0-3.33,0-4.98,0-.11-.02-.18-.05-.22-.04-.04-.1-.05-.21-.05-.37,0-.67.01-.96.01-.31,0-.6,0-.88-.01h-.05c-.12,0-.19.02-.23.06-.05.05-.06.13-.06.27.02.58.01,1.16.01,1.73,0,.23,0,.46,0,.69s0,.47,0,.71c0,.58,0,1.19,0,1.78Z"/></g></g></g></svg>