<?xml version="1.0" encoding="UTF-8"?><svg id="_圖層_1" xmlns="http://www.w3.org/2000/svg" viewBox="0 0 52.01 45.72"><defs><style>.cls-1{fill:#fff;stroke-width:0px;}</style></defs><path class="cls-1" d="m17.69,12.25c1.53,1.11,3.6,1.15,5.19.1.19-.15.45-.18.67-.06,1.57.71,3.36.71,4.94,0,.21-.11.47-.09.67.07.76.51,1.64.76,2.52.76.94,0,1.87-.29,2.66-.86,1.53-1.11,2.22-3.08,1.73-4.9-.51-1.85-2.14-3.18-4.06-3.32-.25,0-.47-.15-.57-.39-.81-1.51-2.23-2.62-3.85-3.03-.71-.39-2.9-.06-2.91-.06-1.81.41-3.33,1.6-4.17,3.26-.09.18-.2.19-.4.2h-.09c-1.21.1-2.32.65-3.11,1.57-.79.92-1.18,2.09-1.1,3.3.1,1.35.78,2.57,1.88,3.36Zm.27-4.37s0,0,0,0l.16.04c.29-1.05,1.26-1.75,2.33-1.7h.11c.08.02.16.03.25.04.83.07,1.16-.13,1.45-.9.33-1.01,1.03-1.82,1.97-2.3.94-.48,2.02-.56,3.02-.23,1.19.39,2.14,1.33,2.53,2.53.31.83.59.98,1.64.88,1.28-.16,2.44.76,2.6,2.04.13,1.11-.54,2.16-1.6,2.5-.85.31-1.8.08-2.42-.59-.7-.68-.99-.72-1.83-.22-1.27.84-2.93.85-4.22.03-.93-.54-1.16-.51-1.93.22-.77.75-1.94.89-2.86.34-.9-.54-1.33-1.63-1.03-2.64l-.15-.04h0s0,0,0,0Z"/><path class="cls-1" d="m42.8,19.89c-.15-.02-.31-.02-.45,0H9.7c-.47-.06-.93.06-1.3.35-.37.29-.61.7-.68,1.17-.02.16-.02.31,0,.45v11.58c-.01.15,0,.3.01.44.06.46.45.81.9.78.45.03.87-.31.93-.77.02-.16.03-.33.02-.48v-1.6c0-1.45,0-2.9,0-4.36,0-.13,0-.27.05-.31.02-.02.07-.05.27-.05,2.91.02,5.85.02,8.76,0,.15,0,.25.02.28.06.05.05.05.19.05.3-.01,5.18-.01,10.42,0,15.6,0,.12,0,.26-.05.3-.02.02-.1.06-.27.05-2.91-.02-5.85-.02-8.76,0-.15,0-.25-.02-.28-.05-.03-.04-.05-.13-.05-.29.02-1.76.01-3.55,0-5.28v-.36c0-.41-.16-.75-.44-.94-.24-.16-.54-.19-.83-.07-.41.17-.66.6-.59,1.02,0,.49,0,.98.01,1.48.01,1.38.02,2.81-.02,4.19-.07.51.05,1.02.36,1.43.31.41.76.68,1.27.75.09.01.18.02.28.02.08,0,.17,0,.25-.02,3.93-.03,7.93-.03,11.79-.02,1.46,0,2.91,0,4.37,0h16.29c1.34,0,1.99-.66,1.99-2.01v-21.38c.13-.96-.55-1.85-1.51-1.98Zm-33.23,2.17c0-.05,0-.22.04-.27.03-.03.12-.05.27-.05,1.8.01,3.6.01,5.4.01h1.77c8.33,0,16.66,0,24.99-.01.2,0,.31.02.36.07.05.05.06.16.06.35-.03.86-.03,1.77,0,2.78,0,.14,0,.23-.04.26-.03.03-.12.05-.27.05h0c-5.32-.01-10.75-.02-16.13,0h-3.26c-4.27,0-8.55,0-12.82.01-.17,0-.28-.02-.32-.06-.04-.04-.05-.14-.05-.3.03-.86.03-1.79,0-2.83Zm32.89,21c0,.1,0,.25-.05.29-.03.03-.14.05-.28.05-2.72-.01-5.44-.01-8.16-.01h-2.33s-2.48,0-2.48,0c-2.66,0-5.31,0-7.96.01-.17,0-.26-.02-.3-.06-.05-.05-.05-.2-.05-.31.02-5.17.02-10.42,0-15.59,0-.1,0-.24.05-.29.04-.04.13-.05.28-.05h0c6.96.01,14.02.01,20.99,0,.17,0,.24.03.26.05.04.04.04.17.04.28-.01,5.19-.01,10.45,0,15.64Z"/><path class="cls-1" d="m11.98,28.8c-.53-.06-1,.31-1.06.84,0,.03,0,.06,0,.1,0,.54.43.91,1.06.92.26,0,.51,0,.77,0s.51,0,.77,0h.76s.76,0,.76,0c.51,0,1.03,0,1.54,0,.64,0,1.06-.36,1.08-.9,0-.25-.08-.47-.24-.64-.2-.2-.5-.32-.85-.32v.16h0s0-.16,0-.16c-1.53,0-3.06,0-4.58,0Z"/><path class="cls-1" d="m11.18,40.07c.18.18.42.28.68.28.03,0,.07,0,.08,0,.76,0,1.52,0,2.28,0s1.58,0,2.35,0c.52.05,1.01-.33,1.06-.86,0-.03,0-.05,0-.08h-.16s.16,0,.16,0c0-.54-.43-.91-1.06-.92-.51,0-1.03,0-1.54,0h-.76s-.76,0-.76,0c-.51,0-1.03,0-1.54,0-.64,0-1.06.36-1.08.9,0,.26.1.5.28.68Z"/><path class="cls-1" d="m11.13,35.18c.16.19.39.3.63.32.03,0,.07,0,.1,0h0c.13,0,.26,0,.4,0s.26,0,.39,0c.13,0,.26,0,.39,0h1.17c.25.01.49-.08.68-.25.19-.17.3-.4.31-.65v-.05c0-.25-.11-.48-.29-.65-.18-.17-.41-.25-.68-.26-.78-.02-1.57-.02-2.33,0-.25-.02-.49.06-.68.22-.19.16-.3.39-.32.64-.02.25.06.49.22.68Z"/><path class="cls-1" d="m26.01,17.14h-.02c-.61.01-1.09.51-1.08,1.12,0,.29.13.57.34.77.21.2.48.31.76.31h.02c.61-.01,1.09-.51,1.08-1.13v-.04c-.04-.58-.51-1.04-1.1-1.04Z"/><path class="cls-1" d="m26.8,14.3c-.2-.2-.47-.32-.76-.32-.02,0-.05,0-.07,0-.59.02-1.06.51-1.04,1.1,0,.6.5,1.08,1.09,1.08h.01c.29,0,.57-.12.77-.33.2-.21.31-.48.31-.77,0-.29-.11-.56-.31-.76Zm-.83-.16h0v-.02s0,.02,0,.02Z"/></svg>