<?xml version="1.0" encoding="UTF-8"?><svg id="_圖層_1" xmlns="http://www.w3.org/2000/svg" viewBox="0 0 49.08 35.06"><defs><style>.cls-1{fill:#ef821d;}.cls-1,.cls-2,.cls-3{stroke-width:0px;}.cls-2{fill:none;}.cls-4{stroke:#3d61ab;stroke-miterlimit:10;stroke-width:.25px;}.cls-4,.cls-3{fill:#3d61ab;}</style></defs><path class="cls-2" d="m25.52,18.24v.03s0,0,0,0v-.03Z"/><polygon class="cls-2" points="19.23 20.13 19.23 20.14 19.23 20.13 19.23 20.13 19.23 20.13"/><polygon class="cls-2" points="22.87 23.14 22.87 23.14 22.87 23.14 22.87 23.14"/><path class="cls-2" d="m13.8,14.78c-.04-.16-.07-.32-.11-.48-.09-.41-.07-.7.08-.88.15-.19.41-.28.83-.28.22,0,.45,0,.67,0,.2,0,.41,0,.61,0,.57,0,.74-.18.74-.73,0-1.66,0-3.31,0-4.97,0-.59-.17-.76-.75-.76-4.52,0-9.03,0-13.54,0-.58,0-.76.18-.76.77,0,1.61,0,3.22,0,4.83,0,.53.1.69.28.78.17.07.37.1.56.08.02,0,.67,0,1.61,0,1.96,0,5.19,0,6.54,0h.04c.39,0,.78.13,1.09.38.54.41,1.11.81,1.65,1.2.18.13.35.25.52.37l-.07-.31ZM2.75,8.46c.11-.11.26-.18.42-.18h0s.02,0,.04,0h1.74c.15-.02.3.01.43.1.12.09.2.22.23.37,0,.04,0,.08,0,.11.02.31-.23.59-.55.61-.03,0-.06,0-.1,0-.29,0-.6.01-.92.01-.29,0-.58,0-.87-.01-.16,0-.31-.06-.42-.18-.11-.11-.18-.26-.18-.42s.06-.31.18-.42Zm6.62,3.24c-.13.14-.35.2-.66.21-.3,0-.59,0-.89,0s-.59,0-.89,0h-.89s-.89,0-.89,0c-.59,0-1.19,0-1.78,0-.52,0-.78-.2-.79-.59,0-.18.04-.32.15-.42.13-.14.35-.2.66-.21,1.78,0,3.56,0,5.35,0,.64,0,.78.32.79.59,0,.17-.04.32-.14.42Zm.52-2.21c-.79,0-1.58,0-2.36,0-.31,0-.67-.06-.76-.52-.03-.18,0-.34.1-.46.13-.15.34-.23.63-.23,2.18,0,4.35,0,6.53,0h.23c.16,0,.31,0,.47,0,.23-.01.4.05.52.17.11.11.16.25.15.44,0,.38-.26.6-.69.6h-4.82Zm2.56,2.42c-.46,0-.86,0-1.06,0h0c-.26,0-.47-.08-.59-.22-.1-.11-.14-.25-.13-.4.03-.4.28-.6.74-.6h1.08c.72,0,1.44,0,2.16,0,.28,0,.5.08.63.22.1.11.14.25.13.41-.03.39-.27.59-.73.59-.09,0-.23,0-.4,0-.48,0-1.21,0-1.82,0Z"/><path class="cls-2" d="m21.41,20.4c.18.1.36.21.54.31.02.01.03.01.05,0,.16-.1.32-.19.48-.28l.18-.1c.06-.04.12-.07.19-.11l-2.62-1.52s-.08-.05-.11-.07c-.12-.1-.18-.24-.17-.39,0-.89,0-1.78,0-2.68-.46.2-.84.55-1.07.99-.42.82-.28,1.81.35,2.47.14.14.29.27.47.37l1.71.99Z"/><path class="cls-2" d="m24.76,21.03c0-.23,0-.46,0-.68v-.29c-.11.07-.22.13-.33.19l-2.34,1.35c-.14.09-.33.09-.48,0l-2.22-1.28s-.08-.05-.12-.07c-.02.18-.02.35,0,.53.04.32.15.63.32.9.1.16.22.31.37.43.38.34.87.54,1.38.56.17,0,.35-.01.52-.05.24-.05.46-.14.67-.26.73-.42,1.46-.85,2.2-1.27.02-.01.03-.03.03-.04Z"/><path class="cls-2" d="m21.52,18.52l.22.13v-3.04c-.01-.2.09-.39.28-.48.06-.03.12-.07.18-.1l.07-.04,2.05-1.18c-.32-.24-.71-.39-1.12-.42-.07,0-.13,0-.2,0-.36,0-.71.09-1.02.27-.48.26-.83.69-.99,1.21-.07.23-.11.46-.11.7,0,.85,0,1.7,0,2.55,0,.03,0,.04.02.05.21.12.42.24.62.36Z"/><path class="cls-2" d="m23.32,15.45c-.25.14-.49.28-.74.43-.02.01-.04.03-.03.05,0,.23,0,.46,0,.68v.29s1.82-1.05,1.82-1.05c.27-.16.55-.32.82-.48.16-.1.37-.1.53,0,.12.07.24.14.36.21l.06.03,1.89,1.09c.07-.57-.09-1.13-.44-1.58-.35-.46-.87-.75-1.44-.82-.09-.01-.2-.02-.29-.02-.14,0-.29.02-.43.05-.2.05-.4.12-.58.22-.39.22-.79.45-1.18.68l-.36.21Z"/><path class="cls-2" d="m23.65,19.75h.03c.35-.2.71-.41,1.07-.61.02,0,.03-.02.02-.03,0-.42,0-.83,0-1.24,0-.02,0-.03-.02-.04-.36-.2-.71-.4-1.05-.61-.02-.01-.04-.01-.06,0-.36.21-.71.41-1.06.61-.02,0-.02.02-.02.03,0,.14,0,.28,0,.42v.2h-.08s.07,0,.07,0v.62s0,.03.01.03c.36.21.72.41,1.08.62h0Z"/><rect class="cls-2" x="22.99" y="20.22" width="0" height="0" transform="translate(-7.56 22.18) rotate(-45)"/><path class="cls-2" d="m25.57,18.31v3.07c0,.18-.09.35-.26.44-.71.41-1.43.82-2.14,1.23-.06.03-.12.07-.18.1.43.33.97.48,1.52.42.57-.06,1.09-.34,1.45-.79.17-.21.3-.46.38-.72.06-.21.1-.43.1-.66v-2.57s0-.04-.02-.05l-.85-.49Z"/><path class="cls-2" d="m46.7,19.56c-2.22,0-4.43,0-6.65,0h0s-.08,0-.08,0h-6.77c-.59,0-.75.16-.75.76,0,1.66,0,3.31,0,4.97,0,.55.17.72.74.73.29,0,.57,0,.85,0h.43c.42,0,.68.09.83.28.15.19.18.47.08.88-.03.11-.05.22-.08.33l-.02.06c-.02.08-.04.17-.06.25,0,.03-.02.06-.03.1,0,.02-.01.05-.02.08.03-.02.05-.04.06-.05.03-.02.05-.04.08-.06.16-.12.32-.23.49-.35l.1-.07c.46-.33.98-.7,1.47-1.08.35-.27.76-.39,1.19-.38,1.92,0,3.89,0,5.79,0h2.34c.65,0,.8-.16.8-.82,0-1.61,0-3.22,0-4.83,0-.65-.17-.81-.81-.81Zm-9.05,4.97h0c-.38,0-.76,0-1.13,0h-.57s0-.07,0-.07h0v.07h-.54c-.36,0-.72,0-1.08,0h-.01c-.43,0-.66-.19-.7-.57-.01-.16.03-.31.13-.42.13-.14.33-.22.57-.22,1.1,0,2.22,0,3.32,0,.24,0,.45.08.58.22.1.11.15.26.14.41-.03.26-.17.58-.7.58Zm.28-2.41c-1.18,0-2.36,0-3.55,0-.27,0-.49-.07-.62-.21-.1-.1-.16-.24-.16-.41,0-.27.14-.59.78-.6.8,0,1.6,0,2.39,0h4.7c.29,0,.5.07.63.2.1.1.15.24.15.4,0,.39-.29.61-.78.61-1.18,0-2.37,0-3.55,0Zm7.73,2.41c-.6,0-1.21,0-1.81,0h-.9s0,0,0,0h-.9c-.6,0-1.2,0-1.81,0-.3,0-.71-.06-.74-.59-.01-.17.04-.31.14-.42.13-.14.35-.21.62-.21,1.81,0,3.62,0,5.42,0,.28,0,.48.07.61.2.1.1.16.25.15.42,0,.4-.26.59-.78.59Zm.22-2.42c-.3.01-.61.02-.94.02-.3,0-.61,0-.94-.02-.16,0-.31-.07-.42-.18-.11-.12-.17-.27-.17-.43,0-.33.27-.59.61-.59.2,0,.41,0,.61,0h.31v.08h0v-.08c.09,0,.18,0,.27,0,.21,0,.43,0,.65,0,.33,0,.59.27.59.6,0,.32-.25.58-.57.59Z"/><path class="cls-2" d="m34.14,30.05c-.15.02-.4.16-.6.27-.29.17-.5.29-.65.18-.05-.04-.11-.12-.08-.27.04-.21.22-.57.41-.96v-.02c.17-.32.35-.69.38-.86.03-.11.07-.23.1-.34.07-.2.15-.45.09-.55-.05-.1-.26-.07-.47-.05-.13.02-.26.03-.38.02-1.07-.01-1.94-.9-1.94-1.97-.02-1.81-.02-3.64,0-5.45,0-1.06.87-1.93,1.93-1.94.32-.02.64-.02.96,0,.14.01.21,0,.25-.03.02-.02.05-.07.05-.26,0-2.57,0-6.6,0-10.57,0-1.8,0-3.46,0-4.75,0-.72-.24-.95-.98-.95-.58,0-2.81-.01-3.05-.03-.52-.04-1.05-.07-1.45.11-.38.17-.69.58-.99.99l-.03.04c-.12.16-.24.32-.37.47-.2.26-.52.41-.85.41h-.04c-1.68-.01-3.38-.01-5.06,0-.35.01-.71-.14-.93-.44-.21-.26-.45-.53-.65-.76l-.03-.04c-.16-.18-.32-.37-.48-.56-.09-.13-.24-.2-.39-.2,0,0,0,0,0,0-.8,0-3.71,0-4.36,0-.65,0-.91.26-.91.88,0,.75,0,1.01,0,1.22,0,.26,0,.46,0,1.35,0,.14.02.18.03.19.01.01.05.03.19.03.86-.02,1.64-.02,2.37,0,1.03.01,1.86.83,1.9,1.85.03,1.87.03,3.77,0,5.64-.04.96-.76,1.73-1.71,1.83-.27.04-.55.05-.83.03-.2-.02-.23.02-.23.02,0,0-.03.06.03.27.08.29.15.59.21.87v.02c.06.25.12.51.18.76.13.31.01.67-.28.87-.29.19-.68.16-.93-.08-.24-.18-.5-.36-.79-.57l-.14-.1c0,.09,0,.17,0,.25v15.46c0,.93.19,1.12,1.15,1.12h4.56c5.06,0,12.05,0,13.96,0,.66,0,.94-.26.94-.86,0-.4,0-.67,0-.86v-1.23s0-.1.01-.15h0c0-.09.03-.3-.01-.34,0,0-.01,0-.04,0Zm-5.2-8.71c-.33.42-.78.75-1.28.94-.13.05-.28.1-.42.13-.01,0-.02,0-.02.02-.17.49-.45.92-.83,1.27-.41.38-.92.64-1.48.76-.2.04-.41.06-.62.06-.05,0-.1,0-.15,0-.64-.03-1.24-.25-1.74-.64-.13-.1-.25-.21-.36-.33h0s-.01,0-.01,0c-.24.05-.48.07-.72.05-.43-.01-.87-.13-1.26-.33-.85-.42-1.45-1.19-1.64-2.12-.06-.26-.08-.52-.07-.79.01-.25.05-.49.13-.73,0-.02,0-.04,0-.05-.15-.18-.28-.36-.39-.57-.16-.3-.27-.62-.32-.96-.04-.25-.05-.5-.03-.75.03-.35.12-.69.26-1.01.18-.4.44-.75.77-1.05.37-.34.83-.57,1.32-.69.03,0,.04-.02.05-.04.25-.71.74-1.3,1.4-1.67.35-.2.74-.33,1.14-.37.85-.11,1.71.15,2.36.7.09.07.18.16.26.25h0s.02,0,.02,0c.25-.05.51-.07.77-.05,1.06.06,2.03.67,2.53,1.61.19.34.31.7.36,1.08.02.14.02.28.02.42h0c0,.29-.04.58-.13.86h0s0,.03,0,.03c.98,1.13,1.01,2.8.08,3.96Z"/><path class="cls-2" d="m27.55,17.51c-.25-.14-.49-.28-.74-.43l-.52-.3c-.31-.18-.62-.36-.93-.54-.02-.01-.03-.01-.04,0-.14.08-.27.16-.4.23l-.45.26,2.65,1.53s.06.04.09.06c.12.1.18.25.17.4v2.66c.45-.19.81-.53,1.04-.95.45-.81.32-1.82-.31-2.49-.16-.17-.35-.32-.55-.43Z"/><polygon class="cls-2" points="4.95 8.36 4.96 8.36 4.95 8.35 4.95 8.36 4.95 8.36 4.95 8.36"/><path class="cls-4" d="m46.68,18.11c-.08,0-7.84,0-10.66,0-.18,0-.29-.02-.34-.06-.04-.04-.07-.15-.07-.32.01-2.87.02-8.12,0-15.17,0-1.55-.89-2.44-2.44-2.44H14.58c-1.59,0-2.46.87-2.47,2.46v.31c0,.49,0,1.1,0,1.79v.2c0,.18-.01.27-.05.31-.04.04-.14.06-.31.06-1.25,0-4.46-.01-6.8-.01-1.25,0-2.29,0-2.73,0-.1,0-.2,0-.31,0-.65-.02-1.38-.04-1.67.59-.08.3-.12.6-.13.92v6.34c-.02.34.09.64.32.88.57.59,1.71.67,2.26.67.03,0,.06,0,.09,0,.5-.01,1.75-.01,3.06-.02,1.46,0,2.97,0,3.58-.02.85-.07,1.71.21,2.36.78.21.15.33.4.32.66,0,4.43,0,8.34,0,12.98v3.42c0,1.65.86,2.52,2.5,2.52h18.48c1.71,0,2.55-.84,2.55-2.57,0-.65,0-1.01,0-1.18,0-.03,0-.07,0-.12,0,0,0-.02,0-.02v-.02c0-.16,0-.44,0-.95v-.19c-.03-.28.12-.56.37-.71.69-.46,1.32-.93,2.08-1.5.19-.15.42-.22.65-.2,2.64,0,5.28,0,7.91,0,1.53,0,2.31-.77,2.31-2.29v-4.78c0-1.49-.78-2.28-2.27-2.28ZM21.13,1.49h5.27c.33,0,.61.27.61.61s-.27.61-.61.61h-5.27c-.33,0-.61-.27-.61-.61s.27-.61.61-.61Zm-9.43,12.02c-.31-.24-.7-.38-1.09-.38h-.04c-1.36,0-4.58,0-6.54,0-.94,0-1.59,0-1.61,0-.19.02-.39-.01-.56-.08-.18-.1-.28-.26-.28-.78,0-1.61,0-3.22,0-4.83,0-.59.18-.77.76-.77,4.51,0,9.03,0,13.54,0,.58,0,.75.17.75.76,0,1.66,0,3.31,0,4.97,0,.55-.18.72-.74.73-.2,0-.41,0-.61,0-.22,0-.45,0-.67,0-.41,0-.68.09-.83.28-.15.19-.18.47-.08.88.04.16.07.32.11.48l.07.31c-.17-.12-.34-.25-.52-.37-.55-.39-1.11-.79-1.65-1.2Zm22.49,16.87h0c0,.07-.01.12-.01.16v.51c0,.16,0,.29,0,.38v.33c0,.19,0,.46,0,.86,0,.6-.28.86-.94.86-1.91,0-8.9,0-13.96,0h-4.56c-.96,0-1.15-.19-1.15-1.12v-15.46c0-.08,0-.16,0-.25l.14.1c.28.2.54.39.79.57.25.24.64.27.93.08.29-.2.4-.56.28-.87-.07-.25-.12-.52-.18-.76v-.02c-.07-.29-.14-.58-.21-.87-.06-.22-.03-.27-.03-.27,0,0,.04-.04.23-.02.28.02.56.01.83-.03.95-.1,1.67-.87,1.71-1.83.03-1.88.03-3.78,0-5.64-.04-1.03-.87-1.84-1.9-1.85-.73-.02-1.51-.02-2.37,0-.15,0-.18-.02-.19-.03-.01,0-.03-.05-.03-.19,0-.88,0-1.08,0-1.35,0-.22,0-.47,0-1.22,0-.62.27-.88.91-.88.65,0,3.56,0,4.36,0,0,0,0,0,0,0,.16,0,.3.07.39.2.16.19.32.37.48.56l.03.04c.21.23.44.5.65.76.22.3.58.45.93.44,1.68-.01,3.39-.01,5.06,0h.04c.33,0,.65-.15.85-.41.13-.15.25-.31.37-.47l.03-.04c.3-.4.6-.82.99-.99.41-.18.94-.14,1.45-.11.24.02,2.46.03,3.05.03.75,0,.98.23.98.95,0,1.29,0,2.95,0,4.75,0,3.97,0,8,0,10.57,0,.18-.03.24-.05.26-.03.03-.1.04-.25.03-.32-.02-.64-.02-.96,0-1.06,0-1.93.88-1.93,1.94-.02,1.81-.02,3.64,0,5.45,0,1.07.87,1.96,1.94,1.97.12,0,.25,0,.38-.02.21-.02.42-.05.47.05.06.1-.03.35-.09.55-.04.11-.08.22-.1.34-.04.17-.22.53-.37.86v.02c-.2.39-.38.75-.42.96-.03.16.03.24.08.27.15.11.36-.02.65-.18.2-.11.45-.25.6-.27.03,0,.04,0,.04,0,.04.04.02.25.01.33Zm13.31-5.18c0,.66-.16.82-.8.82h-2.34c-1.9,0-3.87,0-5.79,0-.43-.02-.84.11-1.19.38-.49.38-1.01.75-1.47,1.08l-.1.07c-.16.12-.33.23-.49.35-.03.02-.05.04-.08.06-.01.01-.04.03-.06.05,0-.03.02-.07.02-.08.01-.04.02-.07.03-.1.02-.08.04-.17.06-.25l.02-.06c.03-.11.06-.22.08-.33.09-.41.07-.69-.08-.88-.15-.19-.41-.28-.83-.28h-.43c-.28,0-.57,0-.85,0-.57,0-.74-.17-.74-.73,0-1.66,0-3.31,0-4.97,0-.6.16-.76.75-.76h6.85c2.22,0,4.43,0,6.65,0,.64,0,.81.17.81.81,0,1.61,0,3.22,0,4.83Z"/><path class="cls-1" d="m42.26,21.5c0-.17-.05-.3-.15-.4-.13-.13-.34-.2-.63-.2h-4.7c-.8,0-1.6,0-2.39,0-.65,0-.78.32-.78.6,0,.16.05.3.16.41.13.13.35.21.62.21,1.18,0,2.36,0,3.55,0s2.37,0,3.55,0c.49,0,.78-.22.78-.61Z"/><path class="cls-1" d="m45.68,23.31c-1.81,0-3.62,0-5.42,0-.28,0-.49.08-.62.21-.1.11-.15.25-.14.42.04.52.44.59.74.59.6,0,1.2,0,1.81,0h.9s0,0,0,0h.9c.6,0,1.21,0,1.81,0,.52,0,.78-.2.78-.59,0-.18-.05-.32-.15-.42-.13-.13-.34-.2-.61-.2Z"/><path class="cls-1" d="m37.64,23.31c-1.1,0-2.22,0-3.32,0-.24,0-.44.08-.57.22-.1.11-.15.26-.13.42.03.38.27.57.7.57h.01c.36,0,.72,0,1.08,0h.54s0-.07,0-.07h0v.07h.57c.38,0,.76,0,1.13,0h0c.53,0,.68-.31.7-.58.01-.16-.03-.3-.14-.41-.13-.14-.34-.22-.58-.22Z"/><path class="cls-1" d="m45.86,20.91c-.22,0-.44,0-.65,0-.09,0-.18,0-.27,0v.07h0s0-.07,0-.07h-.31c-.21,0-.41,0-.61,0-.34,0-.6.26-.61.59,0,.16.06.31.17.43.11.12.26.18.42.18.33.01.64.02.94.02.33,0,.64,0,.94-.02.32-.01.57-.27.57-.59,0-.33-.27-.6-.59-.6Z"/><path class="cls-1" d="m15.39,8.89c0-.19-.05-.33-.15-.44-.12-.12-.29-.18-.52-.17-.15,0-.31,0-.47,0h-.23c-2.17,0-4.35,0-6.53,0-.29,0-.5.08-.63.23-.1.12-.13.28-.1.46.08.46.45.52.76.52.79,0,1.58,0,2.36,0h4.82c.43,0,.69-.22.69-.6Z"/><path class="cls-1" d="m8.72,10.69c-1.78,0-3.56,0-5.35,0-.3,0-.52.07-.66.21-.1.1-.15.25-.15.42.01.39.27.59.79.59.6,0,1.19,0,1.78,0h.89s.89,0,.89,0c.3,0,.59,0,.89,0s.59,0,.89,0c.31,0,.53-.07.66-.21.1-.1.15-.24.14-.42,0-.27-.15-.59-.79-.59Z"/><path class="cls-1" d="m14.67,11.91c.46,0,.7-.2.73-.59.01-.16-.03-.3-.13-.41-.13-.14-.35-.22-.63-.22-.72,0-1.44,0-2.16,0h-1.08c-.46,0-.71.2-.74.6-.01.15.03.29.13.4.13.14.34.22.59.22h0c.2,0,.6,0,1.06,0,.61,0,1.35,0,1.82,0,.17,0,.31,0,.4,0Z"/><path class="cls-1" d="m3.17,9.48c.29.01.59.01.87.01.32,0,.62,0,.92-.01.03,0,.06,0,.1,0,.32-.02.57-.3.55-.61,0-.04,0-.08,0-.11-.02-.15-.1-.28-.23-.37-.12-.09-.28-.13-.43-.1h-1.74s-.02,0-.04,0h0c-.16,0-.31.06-.42.18-.11.11-.18.26-.18.42s.06.31.18.42c.11.11.26.18.42.18Zm1.79-1.13h0s0,0,0,0h0s0,0,0,0h0Z"/><path class="cls-3" d="m28.85,17.35h0c.09-.28.13-.57.13-.87h0c0-.14,0-.28-.02-.42-.05-.38-.17-.75-.36-1.08-.5-.93-1.47-1.55-2.53-1.61-.26-.02-.51,0-.77.05h-.02s0,0,0,0c-.08-.09-.17-.18-.26-.25-.65-.55-1.51-.81-2.36-.7-.41.04-.79.17-1.14.37-.66.36-1.15.95-1.4,1.67,0,.02-.02.04-.05.04-.49.12-.95.35-1.32.69-.33.29-.59.65-.77,1.05-.15.32-.23.66-.26,1.01-.02.25-.01.5.03.75.05.33.16.66.32.96.11.2.24.39.39.57.01.01.02.03,0,.05-.07.24-.12.48-.13.73-.02.26,0,.53.07.79.2.93.8,1.7,1.64,2.12.39.2.82.31,1.26.33.24.01.48,0,.72-.05h.01s0,0,0,0c.11.12.23.23.36.33.5.39,1.11.61,1.74.64.05,0,.1,0,.15,0,.21,0,.41-.02.62-.06.55-.11,1.06-.37,1.48-.76.38-.34.66-.78.83-1.27,0,0,0-.01.02-.02.14-.03.28-.07.42-.13.5-.19.95-.52,1.28-.94.93-1.17.9-2.83-.08-3.96v-.03Zm-3.41-3c.14-.04.28-.05.43-.05.09,0,.19,0,.29.02.57.07,1.08.36,1.44.82.35.45.51,1.01.44,1.58l-1.89-1.09-.06-.03c-.12-.07-.25-.14-.36-.21-.16-.11-.37-.11-.53,0-.27.16-.55.32-.82.48l-1.82,1.05v-.29c0-.23,0-.45,0-.68,0-.02,0-.04.03-.05.25-.14.49-.28.74-.43l.36-.21c.39-.23.79-.45,1.18-.68.18-.1.38-.17.58-.22Zm-2.88,4.78s-.02-.01-.01-.03v-.62h-.07,0s.07,0,.07,0v-.2c0-.14,0-.27,0-.42,0-.01,0-.02.02-.03.35-.2.7-.4,1.06-.61.01-.01.04-.01.06,0,.35.2.7.41,1.05.61.01,0,.02.02.02.04,0,.41,0,.82,0,1.24,0,.01,0,.02-.02.03-.36.2-.71.41-1.07.61h-.03s0,0,0,0c-.36-.21-.71-.41-1.08-.62Zm.42,1.09h0s0,0,0,0h0s0,0,0,0h0Zm-2.11-4.66c0-.24.04-.47.11-.7.16-.52.51-.95.99-1.21.31-.18.66-.27,1.02-.27.07,0,.13,0,.2,0,.41.03.8.18,1.12.42l-2.05,1.18-.07.04c-.06.04-.12.07-.18.1-.18.09-.29.28-.28.48v3.04l-.22-.13c-.21-.12-.41-.24-.62-.36-.02,0-.03-.02-.02-.05,0-.85,0-1.7,0-2.55Zm-2.01,1c.23-.44.61-.8,1.07-.99,0,.89,0,1.79,0,2.68,0,.15.05.29.17.39.04.03.07.05.11.07l2.62,1.52c-.06.04-.13.07-.19.11l-.18.1c-.16.09-.32.18-.48.28-.01,0-.03,0-.05,0-.18-.1-.36-.21-.54-.31l-1.71-.99c-.17-.1-.33-.23-.47-.37-.63-.66-.78-1.66-.35-2.47Zm.36,3.58h0s0,0,0,0h0s0,0,0,0Zm2.63,2.47c-.17.04-.34.06-.52.05-.51-.02-1-.22-1.38-.56-.14-.13-.27-.27-.37-.43-.17-.27-.28-.58-.32-.9-.02-.17-.02-.35,0-.53.04.02.08.04.12.07l2.22,1.28c.15.09.34.09.48,0l2.34-1.35c.11-.06.21-.12.33-.19v.29c0,.23,0,.45,0,.68,0,.02,0,.03-.03.04-.73.42-1.47.84-2.2,1.27-.21.12-.43.21-.67.26Zm1.01.54s0,0,0,0h0s0,0,0,0Zm3.57-1.73c0,.22-.04.44-.1.66-.08.26-.21.5-.38.72-.36.45-.88.73-1.45.79-.55.06-1.09-.09-1.52-.42.06-.04.12-.07.18-.1.71-.41,1.43-.82,2.14-1.23.16-.08.27-.26.26-.44v-3.07s.85.49.85.49c.02,0,.03.02.02.05v2.57Zm-.94-3.15v-.03s.02.03.02.03c-.01,0-.02,0-.02,0Zm2.92,2.17c-.23.42-.59.75-1.04.95v-2.66c0-.15-.05-.3-.17-.4-.03-.02-.06-.05-.09-.06l-2.65-1.53.45-.26c.13-.08.26-.15.4-.23,0,0,.02,0,.04,0,.31.18.62.36.93.54l.52.3c.25.14.49.29.74.43.21.12.39.26.55.43.63.68.76,1.68.31,2.49Z"/></svg>