<?xml version="1.0" encoding="UTF-8"?><svg id="_圖層_1" xmlns="http://www.w3.org/2000/svg" viewBox="0 0 17.97 17.97"><defs><style>.cls-1{fill:#ef821d;stroke-width:0px;}</style></defs><path class="cls-1" d="m17.55,3.71c-.16-.4-.4-.48-.57-.48-.23,0-.41.15-.52.26l-1.96,2.02c-.62-.06-1.25-.12-1.88-.17-.05-.61-.1-1.22-.16-1.82.57-.57,2.04-2.03,2.04-2.03.2-.2.27-.4.23-.61-.04-.2-.19-.36-.45-.46-.71-.28-1.45-.42-2.19-.42-.31,0-.62.02-.93.07-1.77.28-3.3,1.33-4.19,2.9-.89,1.56-1.01,3.42-.33,5.02-1,1-2,2-3,3l-1.1,1.09c-.64.64-1.28,1.28-1.91,1.93-.46.48-.69,1.13-.63,1.8.06.68.41,1.3.97,1.7.41.3.88.45,1.37.45.63,0,1.25-.27,1.73-.75l5.83-5.9c.7.29,1.41.43,2.24.43h.11c.26,0,.57-.03.91-.09,1.74-.32,3.24-1.4,4.09-2.95.85-1.54.97-3.37.31-5Zm-7.4,6.46c-.14-.06-.24-.1-.36-.1-.22,0-.35.13-.48.26,0,0-4.43,4.43-6.14,6.13-.25.25-.52.37-.82.37-.12,0-.25-.02-.38-.06-.46-.14-.74-.46-.82-.95-.07-.4.06-.75.38-1.06l3.72-3.72c.82-.82,1.63-1.63,2.45-2.44.2-.2.24-.45.1-.74-.32-.69-.47-1.44-.43-2.23.09-2.01,1.58-3.83,3.53-4.31.39-.1.79-.15,1.17-.15.32,0,.65.03.97.1l-.05.05c-.49.49-.98.98-1.47,1.46-.21.21-.29.43-.26.71.06.61.12,1.22.17,1.83l.05.56c.03.33.24.55.58.58,0,0,1.72.15,2.51.23.23,0,.41-.08.59-.26.33-.34,1.22-1.22,1.53-1.53.04.19.07.38.08.59.18,2.36-1.3,4.4-3.59,4.96-.37.09-.75.14-1.12.14-.64,0-1.29-.14-1.92-.42Z"/><path class="cls-1" d="m2.66,14.61c-.21,0-.38.07-.51.2-.14.13-.22.31-.22.51,0,.39.31.71.7.73h.02c.18,0,.36-.07.49-.2.14-.13.22-.32.22-.51,0-.39-.31-.72-.7-.73Z"/></svg>