<?xml version="1.0" encoding="UTF-8"?><svg id="_圖層_1" xmlns="http://www.w3.org/2000/svg" viewBox="0 0 52.01 45.72"><defs><style>.cls-1{fill:#fff;stroke-width:0px;}</style></defs><path class="cls-1" d="m21.01,45.54c-.39,0-.67-.11-.82-.31-.15-.2-.16-.51-.03-.88,1.68-5.04,3.36-10.09,5.04-15.13.16-.48.4-.69.8-.69.42,0,.65.21.8.69,1.68,5.05,3.36,10.09,5.04,15.13.12.37.11.68-.03.88-.14.2-.43.31-.81.31h-2.52s-7.46,0-7.46,0Zm.94-1.57h6.35l-5.3-3.18-1.05,3.18Zm5.71-6.46c-.25,0-.51.2-.77.39-.12.09-.24.19-.36.25-.51.3-1.01.6-1.53.92l-.9.54,5.64,3.38-1.4-4.17c-.04-.13-.08-.28-.11-.43-.09-.4-.18-.78-.42-.86-.05-.02-.1-.02-.15-.02Zm-3.68.33l3.05-1.82c.13-.08.31-.19.22-.43l-1.26-3.78-2.02,6.04Z"/><path id="_路径_11455" class="cls-1" d="m15.7,29.36c-.03-5.7,4.57-10.34,10.27-10.36,5.03-.02,9.34,3.58,10.21,8.53.6,3.22-.4,6.54-2.68,8.89-.25.34-.68.5-1.09.38-.64-.19-.77-.96-.24-1.52.84-.88,1.49-1.92,1.91-3.06,1.61-4.45-.7-9.36-5.15-10.96-4.45-1.61-9.36.7-10.96,5.15-.23.63-.38,1.28-.45,1.94-.31,2.5.52,5.01,2.26,6.83.24.19.39.47.43.78.03.35-.18.68-.5.81-.35.17-.77.08-1.03-.21-1.27-1.27-2.17-2.85-2.63-4.59-.24-.85-.36-1.72-.34-2.6"/><path class="cls-1" d="m21.67,9.46c-.85,0-1.54-.66-1.59-1.51,0-.06,0-.12,0-.19,0-1.97,0-3.94,0-5.9-.02-.43.12-.84.4-1.16.28-.32.67-.51,1.1-.53,0,0,8.67,0,8.67,0,.94,0,1.63.66,1.68,1.5,0,.06,0,.13,0,.19,0,1.97,0,3.94,0,5.9.04.89-.64,1.64-1.52,1.68h-8.75Zm8.33-1.55c.15,0,.24-.03.31-.1.08-.09.09-.22.08-.35,0-.65,0-1.31,0-1.97v-2.99s-3.68,2.76-3.68,2.76c-.33.24-.52.34-.69.34s-.36-.09-.68-.33l-3.56-2.66h-.07s-.07.07-.07.07v4.83c0,.2.03.41.37.41,1.33,0,2.67,0,4,0s2.67,0,4,0Zm-4.29-4.3c.12.1.2.16.3.16.06,0,.12-.02.18-.07l2.62-1.96h-5.58l2.49,1.87Z"/><path class="cls-1" d="m47.9,19.21c-.19,0-.37-.07-.51-.19l-.7-.46c-.53-.35-1.06-.69-1.58-1.06-.28-.21-.64-.33-.99-.33-.76.01-1.48.01-2.19.01h-2.19c-1.36,0-2.46-1.09-2.48-2.43,0-1.53,0-3.03,0-4.53-.04-1.28.94-2.34,2.21-2.43.6-.03,1.2-.04,1.8-.04.47,0,.94,0,1.4.01.47,0,.94.01,1.41.01h.08v-.03h2.6s1.34,0,1.34,0c.09,0,.17-.01.25-.01,1.3,0,2.37.97,2.49,2.27.02.16.01.33,0,.49v4.19c.02,1.09-.68,2.06-1.72,2.38-.34.11-.45.27-.43.61.01.11,0,.22,0,.33,0,.1,0,.21,0,.31.03.21-.03.42-.16.59-.13.17-.32.27-.53.3h-.09Zm-4.02-3.65c1.04,0,2.03.4,2.78,1.11.11.08.22.15.33.21l.08.04.03-.09c.03-.95.26-1.2,1.09-1.22.03,0,.07,0,.11,0,.48,0,.9-.36.96-.84.01-.08.01-.17,0-.25,0-1.35,0-2.71,0-4.06,0-.79-.33-1.11-1.12-1.11h-8.2c-.79,0-1.11.33-1.11,1.12,0,1.32,0,2.65,0,3.97,0,.83.35,1.17,1.2,1.17.34,0,.67,0,1.01.02.34,0,.68.01,1.01.01.42,0,.84-.01,1.25-.05.19-.03.39-.04.57-.04Z"/><path class="cls-1" d="m9.32,18.91c-1.23-.04-2.38-.53-3.26-1.38-1.07-1.03-2.33-2.26-3.52-3.53-.94-1.02-1.42-2.35-1.36-3.74.06-1.39.66-2.66,1.68-3.6l.08-.08c.15-.18.38-.28.61-.28.2,0,.39.07.54.2.9.85,1.51,1.47,2.07,2.08.52.53.56,1.38.11,1.96-.26.35-.17.55.09.8.82.79,1.63,1.61,2.43,2.43.11.11.21.2.35.2.09,0,.19-.04.32-.13.28-.23.63-.35.99-.35.43,0,.85.18,1.14.5.65.62,1.28,1.26,1.9,1.9.35.27.41.76.15,1.1-.04.05-.08.09-.13.13-1.01,1.14-2.45,1.78-3.96,1.78h-.23ZM3.56,8.28c-1.13,1.38-1.06,3.4.17,4.69,1,1.04,2.07,2.11,3.38,3.38.67.64,1.55.99,2.47.99.54,0,1.06-.12,1.55-.35.4-.19.59-.28.61-.43.03-.15-.11-.29-.42-.6l-.3-.3c-.28-.27-.41-.41-.58-.41s-.3.13-.57.4c-.28.27-.51.4-.72.4s-.44-.13-.71-.4c-1.34-1.33-2.68-2.67-4.02-4.02-.19-.14-.31-.33-.35-.54s.01-.44.14-.62c.05-.07.11-.14.19-.19.12-.13.23-.24.35-.35.07-.05.16-.14.16-.26,0-.12-.09-.22-.15-.29-.25-.24-.49-.5-.74-.76l-.39-.41-.06.07Z"/><path id="_路径_11459" class="cls-1" d="m19.13,29.31c-.01-3.8,3.06-6.89,6.86-6.9,3.25,0,6.07,2.26,6.75,5.44.5,2.17-.11,4.44-1.62,6.07-.52.59-.99.67-1.43.28s-.39-.88.12-1.45c1.91-2.1,1.75-5.34-.35-7.25-2.1-1.91-5.34-1.75-7.25.35-1.75,1.92-1.78,4.85-.08,6.81.58.66.65,1.13.22,1.53-.46.42-.93.32-1.54-.38-1.1-1.25-1.69-2.85-1.68-4.51"/><path class="cls-1" d="m19.09,29.31h.12c-.02,1.64.57,3.22,1.66,4.45.34.39.63.58.89.6.01,0,.02,0,.03,0,.17,0,.33-.07.5-.23.39-.36.32-.78-.23-1.41-1.73-2-1.69-4.97.08-6.93.94-1.03,2.22-1.64,3.61-1.7.08,0,.17,0,.25,0,1.3,0,2.54.48,3.5,1.36,1.03.94,1.64,2.22,1.7,3.61s-.41,2.73-1.35,3.76c-.28.31-.41.59-.4.84.01.18.1.34.27.49.16.15.33.22.5.22.25,0,.52-.16.81-.49,1.5-1.61,2.1-3.85,1.6-6-.66-3.12-3.46-5.38-6.64-5.38h-.02c-3.75.01-6.78,3.07-6.77,6.81h-.12Z"/><path id="_路径_11460" class="cls-1" d="m26.86,13.84c0,.7,0,1.4,0,2.09,0,.47-.38.86-.86.86s-.86-.38-.86-.86c0-1.4,0-2.79,0-4.19,0-.47.38-.86.86-.86s.86.38.86.86h0c0,.7,0,1.4,0,2.09"/><path id="_路径_11461" class="cls-1" d="m25.78,25.87c.95-.06,1.88.27,2.58.92.38.29.46.83.17,1.22-.02.02-.03.04-.05.06-.33.36-.89.38-1.25.05-.65-.68-1.73-.69-2.41-.04-.01.01-.03.03-.04.04-.36.33-.92.3-1.25-.05-.32-.36-.29-.91.07-1.23,0,0,0,0,.01-.01.58-.57,1.35-.91,2.16-.95"/><path id="_路径_11462" class="cls-1" d="m37.24,21.57c-.35.03-.68-.15-.83-.47-.18-.28-.15-.65.07-.9.61-.65,1.23-1.29,1.89-1.89.31-.29.8-.28,1.09.03,0,0,.01.01.02.02.33.25.4.73.15,1.06-.01.01-.02.03-.04.04-.6.68-1.26,1.31-1.92,1.94-.11.12-.27.18-.44.16"/><path class="cls-1" d="m13.51,18.64c-.14,0-.27.04-.39.11-.17.1-.29.27-.33.46-.05.19-.01.39.09.56.44.6.98,1.14,1.58,1.6.12.08.25.13.39.13s.29-.05.41-.14c.24-.15.38-.42.36-.69-.02-.49-1.58-2.03-2.06-2.03v-.02s0,.02,0,.02c-.01,0-.03,0-.04,0Z"/><path id="_路径_11464" class="cls-1" d="m40.59,12.39c0-.48.41-.87.89-.86.48,0,.87.41.86.89h0c0,.49-.38.89-.86.9-.49,0-.89-.38-.9-.86,0-.02,0-.04,0-.07"/><path class="cls-1" d="m41.48,11.61c-.44,0-.8.35-.81.78,0,.02,0,.04,0,.06,0,.43.36.78.79.78v.08l.02-.08c.44,0,.79-.37.78-.81,0-.44-.34-.8-.78-.81h0Z"/><path id="_路径_11465" class="cls-1" d="m44.04,11.54c.47-.02.87.35.89.82,0,.01,0,.03,0,.04,0,.48-.38.88-.87.89s-.88-.38-.89-.87c-.01-.47.36-.87.83-.88.01,0,.03,0,.04,0"/><path class="cls-1" d="m44.07,11.62h-.03s-.04,0-.04,0c-.43.01-.76.37-.75.79,0,.43.36.79.79.79v.08-.08c.22,0,.42-.09.57-.24.15-.15.23-.35.23-.56,0-.01,0-.03,0-.04-.02-.42-.35-.74-.77-.74Z"/><path id="_路径_11466" class="cls-1" d="m47.5,12.38c.03.48-.34.9-.83.93-.48.03-.9-.34-.93-.83,0-.02,0-.04,0-.06,0-.49.4-.88.88-.87.46,0,.84.36.87.83"/><path class="cls-1" d="m46.63,11.64c-.44,0-.8.35-.8.79,0,.02,0,.03,0,.05.02.42.37.75.79.75.02,0,.03,0,.05,0,.21-.01.41-.11.55-.27.14-.16.21-.36.2-.57-.02-.42-.37-.74-.79-.75Z"/></svg>