<?xml version="1.0" encoding="UTF-8"?><svg id="_圖層_1" xmlns="http://www.w3.org/2000/svg" viewBox="0 0 29.96 15.04"><defs><style>.cls-1{fill:#fff;stroke-width:0px;}</style></defs><g id="_组_5097"><path id="_路径_10812" class="cls-1" d="m13.42,8.47c-.35.49-.72.95-1.12,1.4-.98,1.05-2.1,1.88-3.51,2.28-2.5.76-5.15-.65-5.91-3.16-.18-.6-.24-1.22-.18-1.85.05-.69.25-1.36.57-1.97.22-.41.45-.53.71-.4s.29.39.08.81c-.7,1.4-.67,2.79.15,4.12.95,1.54,2.69,2.11,4.45,1.54,1.9-.61,3.17-1.96,4.2-3.58.07-.08.07-.19.01-.28-1.03-1.61-2.27-2.97-4.16-3.57-1.2-.38-2.35-.33-3.43.39-.25.17-.5.18-.68-.09s-.05-.5.19-.66c1.4-.92,2.9-.98,4.43-.42,1.87.67,3.15,2.05,4.23,3.64.61.9,1,1.93,1.63,2.83,1.22,1.75,2.67,3.23,4.68,4.04,2.23.9,4.41.84,6.46-.54.26-.17.5-.24.72.03.18.22.09.48-.23.7-2.18,1.48-4.52,1.61-6.95.76-1.85-.65-3.31-1.86-4.54-3.36-.2-.25-.29-.24-.49,0-1.25,1.52-2.73,2.73-4.61,3.4C5.24,16.27.9,13.23.13,8.86-.54,5.33,1.4,1.82,4.75.5c1.99-.79,3.97-.59,5.91.22,1.65.7,2.97,1.83,4.1,3.21.18.22.26.22.44,0,1.28-1.56,2.81-2.78,4.75-3.47,3.83-1.43,8.1.53,9.52,4.36.16.44.29.9.36,1.36.38,2.09-.13,4.24-1.4,5.93-.05.07-.11.14-.17.21-.13.21-.4.27-.61.14-.21-.13-.27-.4-.14-.61.02-.03.04-.05.06-.07.39-.5.72-1.05.97-1.63,1.62-3.69-.6-8.24-4.44-9.08-2.5-.54-4.66.23-6.6,1.78-.67.55-1.28,1.18-1.81,1.87-.09.11-.18.2-.07.37.31.48.6.96.91,1.48.38-.49.72-.99,1.14-1.43,1.09-1.16,2.34-2.05,3.94-2.35,1-.22,2.04-.1,2.96.34.35.17.49.41.35.66-.17.3-.41.28-.7.15-1.55-.7-2.99-.32-4.37.5-1.18.71-2.04,1.75-2.76,2.91-.07.09-.07.22,0,.31,1,1.58,2.23,2.9,4.06,3.53,1.7.59,3.35.15,4.38-1.18,1.05-1.39,1.12-3.28.18-4.74-.06-.09-.12-.17-.18-.25-.16-.16-.16-.42,0-.58.03-.02.05-.05.08-.06.19-.14.47-.11.61.09.01.02.02.03.03.05.48.64.8,1.38.93,2.16.4,2.17-.73,4.34-2.73,5.27-1.5.69-3,.48-4.43-.24-1.82-.91-3.09-2.39-4.02-4.16-.88-1.67-1.88-3.22-3.31-4.48-1.4-1.28-3.2-2.05-5.09-2.17-2.47-.15-4.9,1.31-6.03,3.61-1.66,3.3-.33,7.33,2.98,8.99.04.02.09.04.13.06,1.81.85,3.66.73,5.48,0,1.68-.68,2.98-1.85,4.09-3.26.08-.1.17-.18.07-.34-.31-.49-.61-.98-.93-1.51"/></g></svg>