<?xml version="1.0" encoding="UTF-8"?><svg id="_圖層_1" xmlns="http://www.w3.org/2000/svg" viewBox="0 0 16.9 23.91"><defs><style>.cls-1{fill:#ef821d;stroke-width:0px;}</style></defs><path class="cls-1" d="m14.88,2.89c-1.51-1.82-3.78-2.89-6.14-2.89-.1,0-.19,0-.29,0-.1,0-.19,0-.29,0C5.81,0,3.53,1.07,2.02,2.89.68,4.63-.04,6.81,0,9.01c.15,3.84,1.49,7.47,3.87,10.49.8,1.07,1.68,2.08,2.62,3.02.38.38.69.65.87.82.11.1.2.17.25.22l.11.09c.21.16.47.26.73.26.25,0,.5-.08.7-.23l.14-.11c.06-.05.15-.13.25-.22.18-.16.48-.43.87-.82.95-.94,1.83-1.95,2.62-3.02,2.38-3.02,3.72-6.65,3.87-10.5.04-2.2-.67-4.38-2.02-6.12Zm-3.73,15.26c-.73.97-1.53,1.9-2.39,2.75-.09.09-.19.19-.28.27l-.03.03-.03-.03c-.09-.08-.18-.17-.28-.27-.86-.85-1.67-1.78-2.39-2.75-2.08-2.63-3.26-5.79-3.42-9.14-.04-1.68.49-3.34,1.51-4.68,1.07-1.29,2.67-2.03,4.34-2.03.09,0,.18,0,.28,0,1.82,0,3.48.68,4.61,2.04,1.02,1.34,1.56,3,1.51,4.68-.15,3.35-1.33,6.51-3.42,9.14Z"/><path class="cls-1" d="m8.45,5.1c-1.85,0-3.35,1.5-3.35,3.35s1.5,3.35,3.35,3.35,3.35-1.5,3.35-3.35-1.5-3.35-3.35-3.35Zm0,4.67c-.73,0-1.32-.59-1.32-1.32s.59-1.32,1.32-1.32c.73,0,1.32.59,1.32,1.32,0,.73-.59,1.31-1.32,1.31Z"/></svg>