<?xml version="1.0" encoding="UTF-8"?><svg id="_圖層_1" xmlns="http://www.w3.org/2000/svg" viewBox="0 0 48.53 34.42"><defs><style>.cls-1{fill:#ef821d;}.cls-1,.cls-2{stroke-width:0px;}.cls-2{fill:#3d61ab;}</style></defs><g id="_组_4973"><path class="cls-1" d="m39.17,3.06l-.02.4s0,0,0,0h0s0,0,0,0v-.4c-.4,0-.74.09-.95.29-.17.16-.26.38-.27.64-.01.56.42.96,1.07.99,2.05.05,3.69,1.69,3.73,3.75.02.34.14.63.35.81.17.15.38.23.61.23.02,0,.04,0,.06,0,.55-.03.9-.46.9-1.1-.07-3.01-2.48-5.48-5.49-5.62Z"/><path class="cls-1" d="m37.82,6.03l-.02.4s0,0,0,0h0v-.4c-.6.01-1.05.33-1.09.88-.02.25.06.49.21.67.18.21.47.34.82.37.74.03,1.34.63,1.36,1.39.05.6.43,1,.96,1,.02,0,.03,0,.05,0,.55-.02.93-.47.92-1.09-.07-1.73-1.48-3.15-3.21-3.23Z"/><path class="cls-1" d="m30.82,18.79c0-.11,0-.21,0-.32-.05-.49-.29-.94-.67-1.25-.38-.31-.87-.46-1.29-.41-.69-.02-1.43-.03-2.17,0-.03,0-.06,0-.08,0,0-.02,0-.04,0-.06.03-.73.02-1.47,0-2.03.02-.16.02-.32,0-.48-.07-.51-.32-.96-.73-1.27-.4-.31-.9-.45-1.34-.39-.83,0-1.66,0-2.41,0-.18-.03-.36-.03-.55,0-1.05.15-1.78,1.13-1.63,2.09v.24c-.02.59-.03,1.19,0,1.8,0,.03,0,.06,0,.08-.03,0-.07,0-.11,0-.64-.03-1.34-.03-2.12,0-.07,0-.15,0-.22,0-1.02.04-1.81.91-1.77,1.89-.03.98-.03,1.94,0,2.83,0,.08,0,.16,0,.25.05.5.29.95.68,1.27.39.32.88.47,1.32.42h.39c.52.02,1.05.03,1.59-.01.14-.01.22,0,.24-.01,0,.04,0,.1,0,.22-.04.64-.04,1.28,0,1.82-.02.17-.03.34,0,.51.06.51.32.97.73,1.29.35.27.77.41,1.15.41.07,0,.14,0,.21-.01.28,0,.56,0,.84,0h.41v-.5h0s0,.5,0,.5h.37c.25,0,.5,0,.74,0,1.48-.01,2.23-.78,2.24-2.25.02-.54.02-1.09-.01-1.66-.02-.23,0-.32-.01-.34.03,0,.11-.02.32,0,.62.05,1.24.05,1.76,0,.13.02.26.02.39.01,1.05-.08,1.83-1,1.76-1.99.02-.9.02-1.81,0-2.67Zm-6-2.44h0,0Zm-2.58,9.05s0-.04,0-.07c0-.48,0-.95,0-1.43,0-.47,0-.93,0-1.4,0-.44-.11-.78-.35-1.02-.24-.24-.56-.35-1-.35-.01,0-.03,0-.04,0-.41,0-.83,0-1.24,0-.51,0-1.01,0-1.52,0-.02,0-.04,0-.05,0,.04-.66.04-1.32,0-1.98,0-.05,0-.08,0-.11.02,0,.06,0,.1,0,.54.02,1.07.02,1.61.01.39,0,.77,0,1.16,0,.44,0,.77-.1,1-.34.23-.23.34-.56.33-1,0-.45,0-2.34-.01-2.83,0-.02,0-.04,0-.05.01,0,.02,0,.03,0,.67.02,1.33.02,2.07,0-.01.35,0,.7,0,1.05v1.05c0,.28,0,.56,0,.84,0,.4.1.71.31.93.22.22.53.34.93.34h.01c.36,0,.72,0,1.07,0,.61,0,1.22,0,1.83-.01.01,0,.02,0,.04,0,0,.01,0,.02,0,.04-.02.72-.02,1.39,0,2.04,0,.01,0,.02,0,.04,0,0-.02,0-.02,0-.57-.02-1.15-.01-1.72-.01-.37,0-.74,0-1.11,0-.44,0-.77.11-1,.35-.23.23-.35.57-.34.99,0,.43,0,.87,0,1.3,0,.51,0,1.02,0,1.53,0,.04,0,.08,0,.09-.02,0-.05,0-.09,0-.73-.02-1.37-.02-1.97,0,0,0-.01,0-.02,0Z"/></g><path class="cls-2" d="m46.47,22.64s0-.06,0-.06c-.08-1.65-.57-3.28-1.4-4.71-2.45-4.08-6.07-6-10.76-5.68.11-1.03.07-2.06-.13-3.08C33.33,4.51,29.66.91,25.04.15c-6.03-.99-11.73,3.07-12.79,9.13-5.77.14-10.63,4.1-11.96,9.76,0,.04-.02.07-.02.11-.15.58-.41,2.05-.17,4.3,0,.06,0,.1,0,.1.01.03.02.12.02.18,0,.07.01.15.02.22,0,.03.01.06.02.09,0,0,0,.01,0,.02h0c1.05,5.8,6.06,10.14,11.98,10.32,2.36.02,4.71.02,7.07.02,1.55,0,3.1,0,4.66,0h4.64c.08,0,.16,0,.23,0,.49-.03.91-.37,1.04-.85.17-.62-.19-1.26-.84-1.44-.21-.04-.42-.06-.59-.04-5.18,0-10.36,0-15.54,0-.68,0-1.4-.05-2.08-.16-4.96-.88-8.58-5.34-8.43-10.38.17-5.64,4.91-10.11,10.53-9.92,1.17.02,1.52-.27,1.65-1.45.04-.32.09-.63.16-.94,1.06-4.74,5.78-7.73,10.51-6.67,4.74,1.06,7.73,5.78,6.67,10.52-.13.61-.05,1.07.25,1.36.3.3.77.38,1.38.24,1.06-.24,2.14-.28,3.22-.11,4.22.65,7.35,4.22,7.46,8.48.12,4.85-3.73,8.9-8.58,9.03-.85.01-1.69,0-2.54,0h-.97c-1.25,0-1.37.88-1.37,1.14,0,.41.16.67.3.82.24.25.61.37,1.09.37h.89c.86,0,1.73,0,2.59,0,4.75-.09,8.87-3.2,10.36-7.64h0s.02-.08.04-.13c.07-.22.14-.43.19-.65.4-1.5.39-2.68.33-3.35Z"/><path class="cls-1" d="m48.46,8.63c.12-.33.4-3.55-2.83-6.51-1.44-1.32-3.34-2.02-5.28-2.03-.34,0-.7.14-.9.4-.18.23-.23.52-.15.8.2.71.88.73,1.1.73,3.33.09,6.02,2.78,6.13,6.1,0,.3.02.87.65,1.1.12.04.23.06.34.06.04,0,.08-.02.12-.02h0s.57-.01.81-.59v-.02s.01-.03.01-.03Z"/></svg>