<?xml version="1.0" encoding="UTF-8"?><svg id="_圖層_1" xmlns="http://www.w3.org/2000/svg" viewBox="0 0 52.01 45.72"><defs><style>.cls-1{fill:#fff;stroke-width:0px;}</style></defs><g id="_组_5498"><g id="_组_4728"><g id="_路径_9887"><path class="cls-1" d="m3.27,27.87c-.34,0-.69,0-1.04,0-.67.05-1.25-.46-1.29-1.13,0,0,0,0,0-.01-.04-.65.46-1.21,1.12-1.25.04,0,.08,0,.12,0,.95-.03,1.9-.03,2.85-.03,2.7,0,5.4,0,8.1.02.19,0,.39,0,.58.01.66.01,1.18.56,1.17,1.22s-.56,1.18-1.22,1.17c-.02,0-.04,0-.05,0-2.41.01-4.82.02-7.22,0-.32-.05-.62.16-.68.48,0,0,0,0,0,.01-.78,2.41-1.59,4.82-2.38,7.22-.26.8-.14.97.71.97,4.43,0,8.86,0,13.29.01.45,0,.58-.12.61-.57.47-8.51,7.3-15.28,15.81-15.68,3.28-.17,6.53.64,9.35,2.34.38-1.15.75-2.28,1.12-3.41.72-2.19,1.43-4.38,2.18-6.56.17-.48.07-.57-.41-.57-5.77.01-11.53.01-17.3,0-5.67,0-11.34-.01-17.01-.02-.45,0-.67.12-.76.57-.07.32-.18.63-.31.93-.25.58-.91.87-1.51.65-.58-.21-.89-.83-.72-1.41.81-2.52,1.57-5.07,2.51-7.54.64-1.82,2.39-3,4.32-2.91,10.99-.02,21.99-.02,32.97,0,1.57-.1,2.93,1.09,3.03,2.67.03.44-.04.87-.21,1.28-1.88,5.76-3.78,11.51-5.69,17.26-.15.31-.05.69.25.87,5.06,4.44,6.92,11.5,4.73,17.86-.12.67-.75,1.12-1.42,1.03-9.53,0-19.07,0-28.61,0-.69.11-1.34-.36-1.46-1.05-.33-.91-.57-1.85-.69-2.82-.05-.42-.19-.53-.61-.53-4.56.02-9.13.02-13.69,0-1.4.08-2.64-.89-2.91-2.26-.11-.58-.07-1.17.14-1.72.73-2.17,1.44-4.33,2.16-6.5.1-.18.14-.39.11-.59m40.45-1.75c-.26-.32-.57-.59-.93-.79-1.96-1.42-4.25-2.3-6.65-2.58-.3-.04-.48,0-.44.38.03.25,0,.51-.1.74-.23.49-.76.77-1.29.67-.61-.09-1.04-.64-.96-1.25.02-.48-.13-.58-.58-.52-2.59.34-5.04,1.37-7.09,2.98-.28.21-.37.35-.05.6.26.18.43.46.48.77.11.51-.14,1.04-.61,1.27-.49.29-1.12.17-1.47-.28-.32-.35-.47-.31-.75.05-1.57,2.03-2.58,4.44-2.91,6.99-.06.47.01.6.5.59.65-.06,1.23.42,1.29,1.08.06.65-.42,1.23-1.08,1.29-.07,0-.13,0-.2,0-.52-.02-.63.13-.5.61.13.55.23,1.1.31,1.66.06.45.27.57.73.57,6.87-.02,13.74-.02,20.61-.01,1.88,0,3.77-.02,5.65.01.45,0,.61-.16.68-.55.1-.59.21-1.18.34-1.77.09-.42-.04-.52-.46-.51-.67.08-1.28-.39-1.36-1.06,0-.04,0-.08,0-.13,0-.67.55-1.2,1.21-1.2.05,0,.1,0,.15.01.41,0,.53-.09.47-.52-.32-2.49-1.27-4.86-2.78-6.87q-.45-.6-1-.14c-.48.44-1.23.42-1.68-.06-.45-.45-.45-1.18,0-1.63.15-.15.31-.29.48-.41M11.87,9.71h8.74c8.7,0,17.4,0,26.09.02.4.07.79-.19.86-.6,0-.02,0-.04,0-.05.3-1.08.69-2.13,1.04-3.2.33-1,.25-1.1-.82-1.1h-.58l-20.03-.02c-3.9,0-7.8-.01-11.71-.02-1-.11-1.96.44-2.37,1.37-.48,1.15-.82,2.37-1.23,3.6"/></g><g id="_路径_9888"><path class="cls-1" d="m13.21,16.69h10.89c.86,0,1.38.49,1.34,1.25-.01.57-.44,1.04-1,1.1-.23.02-.46.03-.7.03-4.79,0-9.59,0-14.38,0-.35-.06-.69.17-.75.52,0,.01,0,.03,0,.04-.23.84-.53,1.66-.81,2.48-.14.65-.78,1.08-1.43.94s-1.08-.78-.94-1.43c.02-.09.05-.18.09-.27.19-.59.36-1.18.59-1.76.16-.4.11-.53-.36-.53-1.24.02-2.48,0-3.73,0-.53.03-1-.31-1.15-.82-.16-.43-.04-.92.31-1.22.3-.26.69-.38,1.08-.33,3.65,0,7.29,0,10.94,0"/></g><g id="_路径_9889"><path class="cls-1" d="m34.52,40.02c-1.26,0-2.39-.76-2.86-1.92-.49-1.2-.17-2.58.78-3.46.94-.87,2.33-1.06,3.46-.46.27.18.62.16.87-.04,1.85-1.18,3.7-2.34,5.56-3.5.44-.33,1.04-.3,1.46.05.4.31.55.84.37,1.31-.13.33-.38.6-.7.75-1.79,1.12-3.58,2.25-5.37,3.36-.31.14-.5.47-.47.81.02,1.69-1.33,3.08-3.01,3.1-.03,0-.05,0-.08,0m.7-3.12c-.08-.36-.25-.65-.71-.65-.38,0-.7.29-.71.67,0,.02,0,.05,0,.07.02.39.36.69.75.66s.69-.36.66-.75h0"/></g><g id="_路径_9890"><path class="cls-1" d="m38.13,6.1c.44-.06.85.25.91.69,0,.04,0,.08,0,.12-.07.86-.78,1.53-1.64,1.56-.46.04-.87-.3-.91-.76,0-.03,0-.05,0-.08.12-.83.8-1.47,1.64-1.53"/></g><g id="_路径_9891"><path class="cls-1" d="m44.84,8.44c-.43.07-.83-.23-.9-.66,0-.05-.01-.1,0-.16.1-.84.79-1.48,1.63-1.52.45-.04.85.3.88.75,0,.02,0,.03,0,.05-.08.84-.76,1.49-1.6,1.54"/></g><g id="_路径_9892"><path class="cls-1" d="m41.11,8.44c-.44.05-.84-.26-.89-.7,0-.04,0-.09,0-.13.13-.83.83-1.46,1.67-1.5.46-.02.85.34.87.8,0,0,0,.02,0,.03-.1.84-.8,1.48-1.64,1.51"/></g></g></g></svg>