<?xml version="1.0" encoding="UTF-8"?><svg id="_圖層_1" xmlns="http://www.w3.org/2000/svg" viewBox="0 0 37.2 31.07"><defs><style>.cls-1{fill:#fff;stroke-width:0px;}</style></defs><g id="_组_5063"><g id="_路径_10746"><path class="cls-1" d="m29.17,15.48c.65,0,1.31,0,1.97,0s1.31,0,1.97,0c.37,0,.56-.16.56-.54,0-1.32,0-2.65,0-3.97,0-.37-.17-.55-.55-.55-1.32,0-2.65,0-3.97,0-.37,0-.54.18-.54.56,0,1.31,0,2.62,0,3.93,0,.42.14.57.56.57m.56-4.23c.93.01,1.85.01,2.78,0,.22,0,.31.04.31.29-.01.94-.01,1.88,0,2.82,0,.23-.07.3-.3.3-.93-.01-1.85-.02-2.78,0-.27,0-.32-.09-.31-.33.02-.45,0-.9,0-1.35,0-.48.01-.96,0-1.43,0-.24.07-.3.3-.3"/><path class="cls-1" d="m29.82,15.64c-.22,0-.44,0-.66,0v-.32c.44,0,.87,0,1.31,0h1.24c.46,0,.92,0,1.38,0,.15,0,.25-.03.31-.09.06-.06.09-.15.09-.29v-1.32c0-.88,0-1.77,0-2.65,0-.15-.03-.25-.09-.31-.06-.06-.16-.09-.3-.09h0c-1.32,0-2.65,0-3.97,0-.14,0-.24.03-.29.09-.06.06-.09.16-.09.31,0,.74,0,1.48,0,2.22,0,.57,0,1.14,0,1.71,0,.34.07.41.4.41v.32c-.5,0-.72-.22-.72-.73,0-.57,0-1.14,0-1.71,0-.74,0-1.48,0-2.22,0-.24.06-.41.18-.54.12-.12.29-.18.52-.18,1.32,0,2.65,0,3.97,0h0c.23,0,.4.06.52.18.12.12.18.3.18.53,0,.88,0,1.77,0,2.65v1.32c0,.22-.06.4-.18.52-.12.12-.29.18-.54.18-.46,0-.92,0-1.38,0h-1.24c-.22,0-.44,0-.66,0Zm-.1-.82c-.1,0-.24-.01-.34-.11-.1-.1-.11-.24-.11-.38.01-.32,0-.63,0-.95v-.4s0-.42,0-.42c0-.33,0-.67,0-1.01,0-.1,0-.25.1-.35.1-.1.25-.11.36-.11h0c.92.01,1.86.01,2.78,0,.13,0,.26.01.36.11.1.1.11.24.11.34-.01.94-.01,1.88,0,2.82,0,.11,0,.25-.11.35-.1.1-.24.11-.35.11-1.09-.01-1.97-.01-2.78,0,0,0-.02,0-.02,0Zm-.12-3.39s-.02.02-.01.12c.01.34,0,.69,0,1.02v.42s0,.39,0,.39c0,.32,0,.64,0,.96,0,.13.01.15.01.15,0,0,.02.02.13.02.81-.02,1.69-.02,2.79,0,.1,0,.12-.01.13-.02,0,0,.02-.02.01-.12-.01-.94-.01-1.89,0-2.83,0-.09-.01-.12-.01-.12,0,0-.03-.01-.13-.01-.92.01-1.86.01-2.78,0h0c-.1,0-.13.02-.13.02h0Z"/></g><g id="_路径_10748"><path class="cls-1" d="m13.06,13.38c0,.64,0,1.29,0,1.93,0,.47.12.59.57.59,1.28,0,2.57,0,3.86,0,.44,0,.57-.13.58-.56,0-1.31,0-2.62,0-3.94,0-.35-.15-.52-.52-.52-1.33.01-2.65.01-3.98,0-.38,0-.51.17-.51.52,0,.66,0,1.31,0,1.97m.79-1.38c0-.22.04-.32.29-.32.94.01,1.88.01,2.83,0,.23,0,.3.07.3.31-.01.93-.01,1.86,0,2.79,0,.26-.09.32-.33.32-.46-.02-.93,0-1.39,0s-.93-.01-1.39,0c-.24,0-.3-.07-.3-.3.01-.93.01-1.86,0-2.79"/><path class="cls-1" d="m15.56,16.06c-.64,0-1.29,0-1.93,0-.54,0-.73-.19-.73-.75,0-.43,0-.86,0-1.29v-.64h.32v.64c0,.43,0,.86,0,1.28,0,.39.05.44.42.44,1.28,0,2.57,0,3.85,0,.36,0,.42-.06.42-.4,0-1,0-2.01,0-3.01v-.92c0-.14-.03-.23-.08-.28-.05-.05-.15-.07-.28-.08-1.32.01-2.66.01-3.98,0-.13,0-.23.02-.28.07-.05.05-.08.15-.07.29,0,.46,0,.93,0,1.39v.58h-.32v-.58c0-.46,0-.92,0-1.39,0-.23.05-.4.17-.51.11-.11.26-.17.5-.17,1.32.01,2.66.01,3.97,0,.22,0,.39.05.51.17.12.11.17.28.17.51v.92c0,1,0,2.01,0,3.01,0,.51-.21.71-.73.71-.64,0-1.29,0-1.93,0Zm1.42-.81s-.03,0-.05,0c-.32-.01-.66,0-.98,0h-.41s-.41,0-.41,0c-.33,0-.65,0-.98,0-.1,0-.25,0-.35-.1-.1-.1-.11-.24-.11-.36.01-.92.01-1.86,0-2.78h0c0-.13.01-.27.11-.37.1-.1.24-.11.34-.11.94.01,1.89.01,2.82,0,.11,0,.25.01.35.11.1.1.11.24.11.36-.01,1.04-.01,1.95,0,2.78,0,.12,0,.27-.11.37-.09.09-.21.11-.33.11Zm-.63-.33c.2,0,.39,0,.59,0,.13,0,.15-.01.15-.02,0,0,.02-.02.02-.14-.01-.84-.01-1.75,0-2.79,0-.11-.02-.13-.02-.13,0,0-.02-.02-.12-.02-.94.01-1.89.01-2.83,0-.09,0-.11.02-.11.02,0,0-.02.02-.02.14h0c.01.93.01,1.86,0,2.79,0,.11.02.13.02.13s.02.02.12.01c.33-.01.67,0,.99,0h.41s.41,0,.41,0c.13,0,.27,0,.41,0Z"/></g><g id="_路径_10749"><path class="cls-1" d="m19.81,10.89c-.39-.01-.54.17-.54.54,0,1.31,0,2.62,0,3.94,0,.38.19.54.56.54,1.3,0,2.6,0,3.9,0,.37,0,.56-.15.56-.54,0-1.33,0-2.65,0-3.98,0-.37-.17-.51-.53-.5-.64.01-1.28,0-1.93,0s-1.34.01-2.01,0m3.41.79c.22,0,.27.09.27.29-.01.48,0,.96,0,1.43s0,.93,0,1.39c0,.21-.06.29-.28.28-.96-.01-1.91-.01-2.87,0-.23,0-.27-.09-.27-.29,0-.94,0-1.88,0-2.83,0-.21.06-.29.28-.29.96,0,1.91,0,2.87,0"/><path class="cls-1" d="m19.83,16.06c-.24,0-.41-.06-.54-.18-.12-.12-.18-.29-.18-.52,0-1.31,0-2.62,0-3.94,0-.24.06-.41.18-.53.12-.12.3-.17.53-.17v.32c-.15,0-.25.02-.31.08-.06.06-.08.15-.08.3,0,1.31,0,2.62,0,3.94,0,.14.03.23.09.29.06.06.16.09.31.09h0c1.3,0,2.6,0,3.9,0,.15,0,.26-.03.32-.09.05-.06.08-.15.08-.29,0-1.33,0-2.65,0-3.98,0-.13-.03-.22-.08-.27-.05-.05-.15-.07-.29-.07-.45.01-.91,0-1.37,0h-.57c-.2,0-.39,0-.59,0-.47,0-.95,0-1.42,0v-.32c.48.01.96.01,1.42,0,.2,0,.4,0,.59,0h.57c.45,0,.9,0,1.36,0,.23,0,.41.05.52.16.11.11.17.27.17.5,0,1.33,0,2.65,0,3.98,0,.23-.06.39-.17.51-.12.12-.3.18-.54.18-1.3,0-2.6,0-3.9,0h0Zm3.4-.82s-.01,0-.02,0c-.95-.01-1.91-.01-2.87,0-.09,0-.23,0-.32-.1-.09-.09-.11-.22-.11-.35,0-.94,0-1.89,0-2.83,0-.11.01-.24.11-.34.1-.1.23-.11.33-.11.95,0,1.91,0,2.87,0h0c.1,0,.23.01.32.11.1.1.11.24.1.35,0,.34,0,.68,0,1.02v.41s0,.4,0,.4c0,.33,0,.66,0,.98,0,.11,0,.24-.1.34-.09.09-.22.11-.32.11Zm-1.45-.32c.48,0,.96,0,1.44,0,.09,0,.11-.01.11-.01h0s.01-.02.01-.11c0-.33,0-.66,0-.99v-.4s0-.41,0-.41c0-.34,0-.68,0-1.02,0-.1-.01-.12-.01-.12h0s-.02-.02-.1-.01h0c-.95,0-1.92,0-2.87,0-.08,0-.1.01-.1.01,0,0-.01.02-.01.11,0,.94,0,1.89,0,2.83,0,.09.01.12.01.12h0s.03.01.1.01c.48,0,.96,0,1.44,0Zm1.54,0h0Z"/></g><g id="_路径_10754"><path class="cls-1" d="m33.05,17.04c-1.28,0-2.57,0-3.85,0-.47,0-.59.14-.6.62,0,.64,0,1.28,0,1.92v1.88c0,.5.13.63.62.64,1.27,0,2.54,0,3.81,0,.48,0,.62-.13.62-.6,0-1.28,0-2.57,0-3.85,0-.48-.13-.61-.6-.61m-.23,3.96c0,.21-.07.28-.28.28-.48-.01-.96,0-1.43,0s-.93,0-1.39,0c-.21,0-.28-.06-.28-.28.01-.96.01-1.91,0-2.87,0-.22.07-.28.28-.28.94,0,1.88,0,2.82,0,.21,0,.28.06.28.28,0,.96,0,1.91,0,2.87"/><path class="cls-1" d="m31.13,22.26c-.63,0-1.27,0-1.9,0-.58,0-.78-.2-.78-.79v-2.53c0-.43,0-.86,0-1.28,0-.57.2-.78.75-.78,1.28,0,2.57,0,3.85,0h0c.56,0,.76.2.76.77,0,1.28,0,2.57,0,3.85,0,.56-.2.76-.78.76-.63,0-1.27,0-1.9,0Zm0-5.07c-.64,0-1.28,0-1.93,0-.38,0-.44.06-.44.46,0,.43,0,.86,0,1.28v2.53c0,.42.06.48.47.48,1.27,0,2.54,0,3.81,0,.39,0,.46-.06.46-.44,0-1.28,0-2.56,0-3.85,0-.39-.06-.45-.45-.46h0c-.64,0-1.28,0-1.92,0Zm1.43,4.24s-.02,0-.03,0c-.34,0-.68,0-1.02,0h-.41s-.4,0-.4,0c-.33,0-.66,0-.99,0-.11,0-.24,0-.34-.1-.1-.09-.11-.23-.11-.34.01-.95.01-1.91,0-2.86,0-.1,0-.24.1-.33.09-.09.23-.1.34-.1.94,0,1.88,0,2.82,0,.11,0,.24,0,.34.1.09.09.11.23.11.33,0,.95,0,1.91,0,2.86h0c0,.11-.01.24-.11.34-.09.09-.21.1-.31.1Zm-.64-.32c.21,0,.41,0,.62,0,.08,0,.11-.01.11-.01h0s.01-.02.01-.11h0c0-.95,0-1.92,0-2.87,0-.08-.01-.1-.01-.1h0s-.02,0-.11-.01c-.94,0-1.89,0-2.83,0-.08,0-.11.01-.11.01h0s-.01.02-.01.1c.01.95.01,1.92,0,2.87,0,.09.01.11.01.11h0s.02.01.11,0c.33,0,.66,0,1,0h.4s.41,0,.41,0c.14,0,.27,0,.41,0Z"/></g><g id="_路径_10755"><path class="cls-1" d="m23.75,16.7c-1.31,0-2.62,0-3.94,0-.38,0-.55.17-.55.54,0,.64,0,1.28,0,1.93s0,1.31,0,1.97c0,.45.11.56.55.57,1.3,0,2.6,0,3.89,0,.47,0,.56-.09.56-.55,0-1.3,0-2.6,0-3.89,0-.38-.15-.56-.53-.55m-.59,4.22c-.91-.01-1.83-.01-2.75,0-.28,0-.35-.09-.34-.35.02-.46,0-.93,0-1.39s0-.9,0-1.35c0-.22.04-.32.29-.32.94.01,1.89.01,2.83,0,.24,0,.3.09.3.31,0,.93-.01,1.86,0,2.79,0,.26-.09.32-.33.32"/><path class="cls-1" d="m21.77,21.86c-.65,0-1.3,0-1.95,0-.53,0-.71-.19-.71-.72,0-.46,0-.93,0-1.39v-1.22c0-.43,0-.86,0-1.28,0-.23.06-.4.18-.52.12-.12.3-.18.53-.18,1.31,0,2.62,0,3.93,0h0s0,0,0,0c.23,0,.39.06.51.17.12.12.18.3.18.54,0,.74,0,1.47,0,2.21,0,.56,0,1.12,0,1.68,0,.55-.16.71-.72.71-.65,0-1.3,0-1.95,0Zm-1.96-5.01c-.14,0-.24.03-.3.09-.06.06-.08.16-.08.3,0,.43,0,.86,0,1.29v1.22c0,.46,0,.93,0,1.39,0,.37.04.41.4.41,1.3,0,2.59,0,3.89,0,.38,0,.4-.02.4-.4,0-.56,0-1.12,0-1.68,0-.74,0-1.47,0-2.21,0-.16-.03-.26-.08-.32-.05-.05-.14-.08-.29-.08h0c-1.31,0-2.62,0-3.94,0h0Zm.57,4.22c-.12,0-.26-.02-.36-.12-.11-.11-.11-.26-.11-.4.01-.32.01-.65,0-.97,0-.14,0-.28,0-.42v-.4c0-.32,0-.63,0-.95,0-.13,0-.27.11-.37.1-.1.25-.11.34-.11.94.01,1.89.01,2.83,0,.1,0,.25,0,.35.11.1.1.11.24.11.36-.01,1.08-.01,1.96,0,2.78,0,.11,0,.26-.11.37-.1.1-.24.11-.38.11h0c-1.05-.01-1.92-.01-2.74,0,0,0-.02,0-.03,0Zm-.04-3.42c-.08,0-.1.02-.1.02,0,0-.02.02-.01.14,0,.32,0,.64,0,.96v.4c0,.14,0,.27,0,.41,0,.32,0,.66,0,.99,0,.13.02.16.02.17,0,0,.03.03.16.02.82-.01,1.7-.01,2.75,0h0c.13,0,.15-.02.15-.02,0,0,.02-.02.02-.14-.01-.82-.01-1.71,0-2.79,0-.11-.02-.13-.02-.13,0,0-.02-.02-.12-.02-.94.01-1.89.01-2.83,0,0,0,0,0,0,0Z"/></g><g id="_路径_10756"><path class="cls-1" d="m17.49,16.7c-1.28,0-2.57,0-3.85,0-.48,0-.57.1-.58.58,0,1.28,0,2.57,0,3.85,0,.48.09.56.59.56.63,0,3.17,0,3.81,0,.5,0,.6-.1.61-.6,0-1.27,0-2.54,0-3.81,0-.47-.11-.59-.58-.59m-.52,4.21c-.94,0-1.89-.01-2.83,0-.25,0-.29-.1-.29-.32,0-.93.01-1.86,0-2.79,0-.27.11-.32.34-.31.46.01.93,0,1.39,0s.93,0,1.39,0c.21,0,.29.05.29.28-.01.96-.01,1.91,0,2.87,0,.23-.1.27-.3.27"/><path class="cls-1" d="m15.48,21.86c-.76,0-1.51,0-1.83,0-.59,0-.74-.15-.75-.72,0-1.28,0-2.57,0-3.85,0-.57.17-.74.73-.74,1.28,0,2.57,0,3.85,0h0c.55,0,.73.18.73.75,0,1.27,0,2.54,0,3.81,0,.58-.17.75-.76.76-.32,0-1.16,0-1.99,0Zm.09-5.01c-.64,0-1.28,0-1.93,0-.39,0-.42.03-.42.42,0,1.28,0,2.57,0,3.85,0,.39.02.4.43.41.65,0,3.19,0,3.81,0,.41,0,.45-.04.45-.44,0-1.27,0-2.54,0-3.81,0-.39-.04-.43-.42-.43v-.16s0,.16,0,.16c-.64,0-1.28,0-1.93,0Zm-1.44,4.22c-.1,0-.23-.01-.32-.11-.1-.1-.11-.24-.11-.37,0-.88.01-1.83,0-2.78,0-.11,0-.26.11-.36.1-.1.25-.11.39-.11.33.01.65,0,.98,0h.41s.4,0,.4,0c.33,0,.66,0,.99,0,.11,0,.25,0,.34.1.1.1.11.24.11.33-.01.95-.01,1.92,0,2.87,0,.09,0,.23-.1.32-.09.09-.22.11-.35.11h0c-1.05,0-1.93,0-2.83,0,0,0,0,0-.01,0Zm1.35-.32c.47,0,.96,0,1.5,0v.14s0-.14,0-.14c.11,0,.12-.01.13-.01h0s.01-.02.01-.1c-.01-.95-.01-1.92,0-2.87,0-.08-.01-.1-.01-.1h0s-.02-.01-.11-.01c-.33,0-.66,0-1,0h-.4s-.41,0-.41,0c-.33,0-.66,0-.99,0-.13,0-.15.01-.16.02,0,0-.02.02-.02.13.02.96.01,1.91,0,2.79,0,.12.02.14.02.14,0,0,.02.01.11.02.44,0,.88,0,1.34,0Z"/></g><g id="_路径_10759"><path class="cls-1" d="m17.5,26.65c0-.22,0-.44,0-.65,0-.2-.15-.38-.36-.38-.01,0-.02,0-.04,0-.2-.02-.38.13-.4.33,0,.02,0,.03,0,.05,0,.45,0,.9,0,1.35,0,.19.14.35.33.35.01,0,.03,0,.04,0,.19.04.38-.09.41-.28,0-.02,0-.04,0-.06.02-.23,0-.46,0-.69h0"/><path class="cls-1" d="m17.14,27.85s-.05,0-.08,0c-.01,0-.02,0-.03,0-.28-.01-.49-.24-.48-.52-.01-.48,0-.95,0-1.35,0-.02,0-.04,0-.06.01-.14.08-.26.19-.35.11-.09.24-.13.38-.12,0,0,.01,0,.03,0,.14,0,.27.07.37.17s.15.24.14.38c0,.14,0,.28,0,.43v.22s-.16,0-.16,0h.16c0,.07,0,.14,0,.21,0,.16,0,.33,0,.5,0,.02,0,.05,0,.08-.03.13-.1.25-.21.33-.09.06-.18.09-.29.09Zm-.08-.32h.04c.05.01.1,0,.15-.03.04-.03.07-.07.08-.12,0-.01,0-.02,0-.04.01-.16,0-.32,0-.48,0-.07,0-.14,0-.21v-.22c0-.14,0-.29,0-.43,0-.07-.02-.12-.06-.16-.04-.04-.09-.07-.15-.07h-.01s-.03,0-.03,0c-.05,0-.11.01-.15.05s-.07.08-.07.14h0s0,.04,0,.04c0,.4-.01.86,0,1.34,0,.11.08.2.18.2h.02Z"/></g><g id="_路径_10760"><path class="cls-1" d="m20.64,26.66c0-.22,0-.44,0-.66.01-.2-.14-.38-.35-.39-.01,0-.03,0-.04,0-.2-.02-.38.13-.4.33,0,.02,0,.04,0,.05,0,.44-.01.87,0,1.31-.02.19.13.36.32.38.02,0,.04,0,.07,0,.2.02.38-.13.4-.33,0-.03,0-.06,0-.08,0-.2,0-.41,0-.61h0Z"/><path class="cls-1" d="m20.28,27.85s-.03,0-.04,0c-.03,0-.05,0-.08,0-.14-.01-.26-.08-.35-.18-.09-.1-.13-.24-.12-.37,0-.36,0-.78,0-1.3,0-.01,0-.04,0-.07.01-.14.08-.26.19-.35.11-.09.24-.13.38-.12,0,0,.02,0,.04,0,.14,0,.27.07.36.17.09.1.14.24.13.38,0,.14,0,.28,0,.43v.11s0,0,0,0v.32c0,.14,0,.28,0,.42,0,.02,0,.06,0,.1-.01.14-.08.26-.19.35-.09.08-.21.12-.33.12Zm-.04-.32h.02c.06,0,.11,0,.15-.04.04-.04.07-.09.08-.14,0-.02,0-.03,0-.05,0-.16,0-.29,0-.43v-.21s0-.22,0-.22c0-.15,0-.29,0-.43,0-.13-.08-.23-.2-.23h-.01s-.04,0-.04,0c-.11,0-.21.07-.22.18h0s0,.04,0,.04c0,.51,0,.93,0,1.31,0,.07.01.12.04.16.03.04.08.06.13.07.01,0,.03,0,.04,0h.02Z"/></g><path class="cls-1" d="m36.42,29.65h-.85c0-4.77,0-16.31,0-20.98v-.23c.02-.21-.14-.4-.36-.42-.01,0-.03,0-.04,0-.11-.01-.23,0-.34,0-2.52,0-5.04,0-7.56,0-.22,0-.39,0-.38-.3,0-.28-.04-.56-.11-.83-.83-4.47-5.13-7.41-9.59-6.58,0,0-.02,0-.03,0-3.51.59-6.42,3.78-6.67,7.34-.02.33-.14.38-.43.38-2.52-.01-5.04,0-7.56,0-.64,0-.7.06-.7.7v18.8c0,.71,0,1.43,0,2.14h-.99c-.35,0-.63.28-.63.63s.28.63.63.63h35.63c.35,0,.63-.28.63-.63s-.28-.63-.63-.63Zm-20.88-2.38c0-.83,0-1.66,0-2.49,0-.22.06-.28.28-.28.73.01,1.46.01,2.19,0,.21,0,.28.05.28.28,0,1.62,0,3.25,0,4.87h-2.75c0-.79,0-1.59,0-2.38Zm3.52-2.48c0-.2.03-.3.27-.29.74.01,1.48.01,2.22,0,.24,0,.27.09.26.29,0,.82,0,1.64,0,2.45s0,1.61,0,2.41h-2.76c.01-1.62,0-3.24,0-4.86Zm8.22-15.98c2.38,0,4.76,0,7.13,0,.31,0,.37.08.37.38,0,4.5,0,15.96,0,20.47h-7.85c0-6.84,0-13.68,0-20.52,0-.3.11-.32.36-.32ZM13.12,3.42c1.59-1.81,3.96-2.72,6.35-2.44,3.25.35,5.89,2.76,6.54,5.96.11.58.16,1.17.14,1.75,0,6.97,0,13.94.01,20.91,0,.02,0,.03,0,.05h-3.58c.01-1.76,0-3.53,0-5.29,0-.52-.09-.61-.59-.62-2.21,0-4.43,0-6.64,0-.51,0-.6.09-.6.6,0,1.77,0,3.53,0,5.3h-3.58c.01-3.66,0-7.31,0-10.97,0-3.35,0-6.7,0-10.05-.06-1.92.63-3.79,1.93-5.21ZM2.56,19.38h0c0-3.4,0-6.8,0-10.2,0-.28.05-.39.37-.39,2.38.02,4.76.02,7.13,0,.33,0,.39.1.39.41,0,6.81,0,13.63,0,20.44,0,0,0,0,0,0H2.55c.01-3.43,0-6.85,0-10.27Z"/><path class="cls-1" d="m36.42,31.07H.79c-.43,0-.79-.35-.79-.79s.35-.79.79-.79h.83c0-.51,0-1.01,0-1.52V8.71c0-.72.14-.86.86-.86h1.59c1.99,0,3.98,0,5.97,0,.23,0,.26,0,.27-.23.25-3.59,3.24-6.88,6.8-7.48,4.57-.85,8.96,2.16,9.8,6.7.07.28.11.57.11.86,0,.11.02.13.02.13.02.02.12.02.19.02,2.54,0,5.06,0,7.58,0h.08c.09,0,.19,0,.28,0,0,0,.02,0,.04,0,.3.02.53.29.5.59v5.71c0,5.25,0,11.9,0,15.34h.69c.43,0,.79.35.79.79s-.35.79-.79.79ZM.79,29.81c-.26,0-.47.21-.47.47s.21.47.47.47h35.63c.26,0,.47-.21.47-.47s-.21-.47-.47-.47h-1.01v-.16c0-3.38,0-10.17,0-15.49v-5.72c.01-.14-.09-.25-.21-.26h-.01s-.04,0-.04,0c-.08,0-.16,0-.24,0h-.09c-2.52,0-5.04,0-7.56,0-.17,0-.32,0-.43-.11-.08-.08-.11-.19-.11-.35,0-.26-.04-.53-.1-.79C25.8,2.53,21.58-.37,17.2.45c-3.46.59-6.33,3.74-6.57,7.2-.03.44-.24.53-.59.53-1.99,0-3.98,0-5.96,0h-1.59q-.55,0-.55.54v19.27c0,.56,0,1.12,0,1.68v.16H.79Zm34.15,0h-8.17v-.16c0-6.81,0-13.71,0-20.52,0-.12.01-.27.11-.37.1-.1.24-.11.4-.11h0c2.12,0,4.62,0,7.13,0,.13,0,.3.01.41.12.11.11.12.26.12.42,0,4.34,0,15.28,0,19.96v.66Zm-7.85-.32h7.54v-.35c0-4.67,0-15.62,0-19.96,0-.15-.02-.18-.03-.19,0,0-.03-.03-.19-.03-2.52.02-5.02.01-7.14,0-.13,0-.17.01-.18.02,0,0-.02.02-.02.14,0,6.75,0,13.6,0,20.36Zm-.93.32h-3.74v-.16c.01-1.36,0-2.72,0-4.08v-1.2c0-.44-.02-.46-.43-.46-2.21,0-4.43,0-6.64,0-.42,0-.45.02-.45.44v1.34c0,1.32,0,2.64,0,3.96v.16s-3.89,0-3.89,0v-.16c0-2.91,0-5.81,0-8.72v-2.25s0-2.99,0-2.99c0-2.35,0-4.71,0-7.06-.06-1.97.63-3.86,1.97-5.32,1.62-1.85,4.04-2.78,6.49-2.49,3.33.36,6.01,2.8,6.68,6.08.11.59.16,1.19.15,1.79,0,6.97,0,13.94.01,20.91v.19s-.16.02-.16.02Zm0-.21h0s0,0,0,0h0Zm-3.42-.11h3.26c0-6.93,0-13.87-.01-20.8.01-.58-.03-1.16-.14-1.72-.64-3.15-3.21-5.49-6.4-5.83-2.34-.27-4.66.62-6.21,2.39h0c-1.28,1.4-1.95,3.21-1.89,5.1,0,2.36,0,4.71,0,7.07v2.99s0,2.25,0,2.25c0,2.85,0,5.71,0,8.56h3.26c-.01-1.27,0-2.54,0-3.81v-1.34c0-.6.16-.76.76-.76,2.21,0,4.43,0,6.64,0,.59,0,.75.17.75.77v1.2c0,1.31,0,2.62,0,3.93Zm-.77.32h-3.08v-.16c.01-1.73,0-3.43,0-4.86h0c0-.12,0-.26.1-.35.09-.09.23-.1.32-.1.74.01,1.48.01,2.22,0,.09,0,.23,0,.32.1.1.1.1.23.1.35,0,.6,0,1.2,0,1.8v.66s0,.65,0,.65c0,.58,0,1.17,0,1.75v.16Zm-2.76-.32h2.44c0-.53,0-1.07,0-1.6v-.65s0-.66,0-.66c0-.6,0-1.2,0-1.8,0-.09,0-.12-.01-.13,0,0-.02,0-.08,0,0,0,0,0-.01,0-.74.01-1.49.01-2.23,0-.08,0-.1.01-.1.01,0,0,0,.03,0,.12,0,1.39.01,3.03,0,4.71Zm-.78.32h-3.06v-.16c0-.58,0-1.16,0-1.74v-.64s0-.68,0-.68c0-.6,0-1.21,0-1.81,0-.11,0-.24.1-.33.09-.09.22-.1.34-.1.72.01,1.46.01,2.18,0,.11,0,.24,0,.34.1.09.09.11.23.11.33,0,1.59,0,3.23,0,4.87v.16Zm-2.75-.32h2.43c0-1.59,0-3.18,0-4.72,0-.09-.01-.11-.01-.11,0,0-.02,0-.09,0,0,0-.01,0-.02,0-.73.01-1.46.01-2.19,0-.09,0-.11,0-.11.01,0,0,0,.03,0,.1,0,.61,0,1.21,0,1.82v.68s0,.64,0,.64c0,.53,0,1.05,0,1.58Zm-5.25.32H2.4v-.16c.01-2.71,0-5.41,0-8.12v-2.16c0-3.4,0-6.8,0-10.2,0-.15,0-.31.12-.42.11-.11.27-.12.4-.12,2.36.02,4.76.02,7.13,0,.15,0,.31.01.42.13.11.11.13.28.13.44,0,6.78,0,13.66,0,20.44v.16s-.16,0-.16,0Zm-7.73-.32h7.58c0-6.73,0-13.56,0-20.29,0-.15-.02-.2-.04-.22-.01-.01-.05-.03-.2-.03-2.38.01-4.78.01-7.14,0-.14,0-.17.02-.18.03-.01.01-.03.06-.03.2,0,3.35,0,6.7,0,10.05v.16s0,2.16,0,2.16c0,2.65,0,5.31,0,7.96Z"/><g id="_组_5075"><g id="_组_5074"><g id="_路径_10811"><path class="cls-1" d="m18.8,9.43c-.14,0-.28,0-.42,0-.47,0-.84-.38-.84-.84,0,0,0,0,0-.01,0-.2,0-.39,0-.59.01-.17-.05-.23-.22-.22-.22.01-.44.01-.65,0-.46-.02-.82-.41-.8-.87,0,0,0,0,0,0-.01-.26-.01-.52,0-.78-.01-.47.36-.87.84-.88.02,0,.04,0,.06,0,.25-.01.57.1.72-.05s.04-.47.05-.72c-.02-.47.34-.87.81-.9.02,0,.04,0,.06,0,.29-.02.59-.01.88.01.43.03.77.38.78.82.02.27-.11.62.05.79s.51.03.78.06c.47,0,.85.39.84.86,0,0,0,0,0,0,.01.25,0,.5,0,.75.03.48-.34.89-.81.92-.03,0-.05,0-.08,0-.25.02-.59-.13-.74.07-.12.16-.03.48-.04.73.01.47-.36.85-.83.86-.01,0-.03,0-.04,0-.13,0-.26,0-.39,0h0Zm0-5.01c-.45,0-.45.08-.41.4.01.15.01.3,0,.46-.02.47-.42.83-.88.81,0,0,0,0,0,0-.2,0-.39,0-.59,0-.09,0-.16-.01-.19.12-.12.52,0,.69.53.69.13,0,.26,0,.39.01.36.04.65.3.72.65.04.19.05.39.03.58-.04.33.06.44.41.43.32,0,.45-.08.4-.41-.02-.18-.01-.37.02-.55.05-.41.39-.71.8-.72.15-.01.3-.01.46,0,.3.04.42-.05.4-.38-.03-.43,0-.44-.43-.43-.11,0-.22,0-.33,0-.47.03-.88-.32-.91-.79,0-.02,0-.04,0-.06-.02-.15-.02-.3,0-.46.04-.31-.03-.35-.4-.36"/><path class="cls-1" d="m18.51,9.59s-.1,0-.15,0c-.26,0-.51-.1-.7-.29-.19-.19-.29-.44-.29-.71,0-.2,0-.41,0-.61,0-.03,0-.05,0-.06,0,0-.01,0-.03,0,0,0-.02,0-.03,0-.22.01-.45.01-.67-.01-.26,0-.5-.12-.68-.32-.18-.19-.27-.45-.26-.71-.01-.25-.01-.52,0-.78,0-.26.09-.52.28-.71.19-.2.44-.31.71-.31.02,0,.05,0,.07,0,.08,0,.17,0,.26.02.14.01.29.03.34-.02.05-.05.04-.21.02-.34-.01-.09-.02-.19-.02-.27-.01-.26.08-.51.26-.72.18-.2.43-.32.7-.33.03,0,.05,0,.08,0,.29-.02.59-.01.89.01.51.03.92.46.92.97,0,.1,0,.21-.02.31-.02.15-.03.31.02.37.05.06.21.04.36.02.11-.01.22-.02.32-.01.26,0,.51.11.7.3.19.19.29.45.29.72.01.26,0,.52,0,.76.03.55-.4,1.04-.96,1.07-.03,0-.06,0-.09,0-.08,0-.18,0-.28-.02-.17-.02-.28-.03-.33.02-.05.06-.03.22-.02.37,0,.09.01.19.01.28,0,.26-.09.51-.28.71-.19.19-.44.3-.7.31h-.05c-.08,0-.17,0-.26,0h-.16s-.11,0-.11,0c-.05,0-.1,0-.14,0Zm-1.18-1.99c.07,0,.18.01.26.09.1.1.09.25.09.3,0,.19,0,.38,0,.57,0,.2.07.38.2.51.13.13.3.2.49.2.1,0,.19,0,.28,0h.18s0,0,0,0h.09c.08,0,.17,0,.25,0h.04c.18,0,.36-.08.48-.21.13-.13.2-.31.19-.49,0-.08,0-.17-.01-.25-.02-.21-.03-.42.08-.58.15-.21.41-.17.62-.15.09.01.17.02.24.02.04,0,.06,0,.08,0,.39-.02.69-.36.67-.75,0-.25.01-.5,0-.75,0-.4-.3-.71-.68-.72-.09,0-.18,0-.27.01-.22.02-.46.05-.62-.12-.16-.17-.13-.41-.11-.62.01-.1.02-.19.01-.26,0-.36-.28-.65-.63-.67-.29-.02-.58-.03-.86,0-.03,0-.05,0-.06,0-.19,0-.36.09-.48.23-.12.14-.19.32-.18.5,0,.09,0,.16.01.24.02.21.05.44-.11.6-.16.16-.39.13-.6.11-.08,0-.16-.02-.23-.01-.03,0-.05,0-.06,0-.19,0-.36.08-.49.22s-.2.31-.19.5c-.01.27-.01.52,0,.78,0,.19.06.37.18.5.12.13.29.21.47.22.22.02.43.02.64.01,0,0,.02,0,.04,0Zm1.43,1.14c-.15,0-.33-.02-.45-.15-.12-.13-.11-.32-.1-.46.02-.18.01-.36-.03-.53-.06-.29-.29-.5-.58-.53-.12,0-.25-.01-.37,0-.23,0-.49-.03-.63-.2-.14-.18-.11-.45-.06-.68.05-.24.25-.24.33-.24.1,0,.18,0,.26,0,.11,0,.23,0,.34,0,.4.02.72-.28.73-.66.02-.15.02-.29,0-.43-.02-.17-.03-.32.07-.44.1-.11.25-.13.5-.14v.17s0-.17,0-.17c.21,0,.38.02.48.13.1.11.09.27.07.4-.01.14-.01.28,0,.42,0,.03,0,.05,0,.06.01.19.1.36.24.48.14.12.32.18.51.17.09,0,.16,0,.23,0h.11s0,0,0,0c.48,0,.55.06.58.52v.07c.01.13.01.33-.12.45-.13.12-.32.11-.45.09-.14-.01-.28-.01-.42,0-.34,0-.62.25-.66.58-.03.18-.04.35-.02.52.02.12.03.3-.08.43-.11.13-.29.15-.47.15,0,0-.02,0-.03,0Zm-1.43-2c.1,0,.21,0,.31.01.43.05.77.36.86.78.05.21.06.42.03.63-.02.15,0,.2.02.21.02.02.06.04.24.04.18,0,.23-.03.24-.04,0,0,.03-.05.01-.19-.02-.2-.01-.4.02-.6.06-.47.47-.84.95-.85.15-.01.31-.01.47,0,.16.02.2,0,.2-.01,0,0,.04-.04.02-.2v-.07c-.01-.1-.02-.2-.03-.22-.01,0-.14,0-.24,0h-.11c-.07,0-.15,0-.22,0-.25.02-.52-.07-.72-.25-.2-.18-.33-.42-.35-.69,0-.02,0-.05,0-.07-.02-.15-.02-.31,0-.47.02-.13,0-.16,0-.17-.01,0-.07-.02-.24-.02h0c-.21,0-.26.02-.27.03,0,.02,0,.13.01.19.02.17.01.33,0,.49-.02.54-.49.97-1.05.95-.11,0-.23,0-.34,0-.08,0-.16,0-.24,0-.02,0-.03,0-.04,0-.05.22-.05.35,0,.41.04.06.17.09.38.09.03,0,.06,0,.09,0Z"/></g></g></g><g id="_路径_10842"><path class="cls-1" d="m4.57,15.44c1.31,0,2.62,0,3.94,0,.27.04.51-.15.55-.42,0-.05,0-.09,0-.14,0-1.31,0-2.62,0-3.94,0-.35-.15-.53-.52-.52-.66.01-1.31,0-1.97,0s-1.34.01-2.01,0c-.39,0-.53.16-.53.54.01,1.31.01,2.62,0,3.94,0,.39.19.54.55.54m.27-3.97c0-.2.07-.26.26-.25.96,0,1.91.01,2.87,0,.24,0,.26.11.26.3,0,.48,0,.96,0,1.43s0,.93,0,1.39c0,.2-.03.29-.26.29-.96-.01-1.91,0-2.87,0-.19,0-.26-.05-.26-.25,0-.97,0-1.94,0-2.91"/><path class="cls-1" d="m8.57,15.6s-.06,0-.08,0h-3.91c-.24,0-.41-.06-.53-.18-.12-.12-.18-.29-.17-.52.01-1.31.01-2.63,0-3.93,0-.25.05-.42.17-.54.12-.11.29-.17.52-.16.47.01.94,0,1.41,0h.59s.59,0,.59,0c.46,0,.92,0,1.38,0,.22,0,.39.05.51.17.12.12.18.28.18.51v1.31c0,.87,0,1.75,0,2.62,0,.04,0,.1,0,.16-.04.33-.32.56-.64.56Zm-4-.32h3.94c.2.03.37-.1.39-.28,0-.03,0-.06,0-.09,0-.9,0-1.77,0-2.65v-1.31c0-.14-.03-.23-.08-.29-.05-.05-.15-.08-.28-.08-.46,0-.92,0-1.38,0h-.59s-.59,0-.59,0c-.47,0-.95,0-1.42,0-.14,0-.24.02-.29.07-.05.05-.08.15-.08.31.01,1.31.01,2.63,0,3.94,0,.14.03.24.08.3.06.06.16.09.31.09h0Zm3.41-.5h-.01c-.86-.01-1.77-.01-2.86,0-.1,0-.23,0-.32-.1-.09-.09-.1-.22-.1-.31,0-.96,0-1.94,0-2.91h.32c0,.96,0,1.94,0,2.91,0,.06,0,.08,0,.09,0,0,.02,0,.09,0h0c1.1-.01,2.01-.01,2.87,0,.08,0,.1-.01.1-.01,0,0,0-.02,0-.12,0-.33,0-.66,0-.99v-.4s0-.41,0-.41c0-.34,0-.68,0-1.02,0-.1,0-.12-.01-.13,0,0-.02,0-.08,0h0c-.83,0-1.71,0-2.87,0-.07,0-.09,0-.1.01,0,0,0,.02,0,.09h-.32c0-.09.01-.22.1-.31.09-.09.21-.1.32-.1,1.16,0,2.04,0,2.86,0,.09,0,.22,0,.32.1.1.1.1.24.1.36,0,.34,0,.68,0,1.02v.41s0,.4,0,.4c0,.33,0,.66,0,.99,0,.13,0,.25-.1.35-.09.09-.22.1-.31.1Z"/></g><g id="_路径_10843"><path class="cls-1" d="m4.03,19.52c0,.68,0,1.37,0,2.05-.04.22.11.44.33.48.05,0,.09,0,.14,0h4.06c.24.03.47-.14.5-.38,0-.04,0-.08,0-.13,0-1.33,0-2.65,0-3.98.04-.25-.14-.49-.39-.53-.04,0-.09,0-.14,0h-3.98c-.38,0-.53.18-.52.56.02.64,0,1.28,0,1.93m1.09-1.69c.94,0,1.89,0,2.83,0,.22,0,.28.07.28.28-.01.46,0,.93,0,1.39s0,.96,0,1.43c0,.21-.03.32-.28.32-.94-.01-1.89-.01-2.83,0-.22,0-.28-.07-.28-.28,0-.96,0-1.91,0-2.87,0-.22.08-.27.29-.27"/><path class="cls-1" d="m4.43,22.21s-.07,0-.1,0c-.15-.03-.28-.11-.37-.23-.09-.12-.12-.28-.09-.42,0-.46,0-.94,0-1.42v-.6s.31,0,.31,0v.6c0,.48,0,.97,0,1.45-.01.09,0,.16.04.21.04.06.1.09.16.1.03,0,.06,0,.08,0h4.08c.1,0,.17-.01.23-.06.06-.05.1-.11.11-.19,0-.03,0-.05,0-.08,0-1.35,0-2.67,0-4,.03-.19-.09-.35-.26-.37-.03,0-.06,0-.09,0h-4c-.14,0-.24.03-.29.08-.06.06-.08.16-.08.31.01.46.01.92,0,1.36,0,.19,0,.38,0,.57h-.32c0-.19,0-.38,0-.57,0-.44,0-.9,0-1.35,0-.24.05-.42.17-.54.12-.12.28-.18.51-.18h3.98s.1,0,.16,0c.34.05.58.37.53.71,0,1.3,0,2.63,0,3.95,0,.03,0,.09,0,.15-.04.33-.35.56-.68.52h-4.04s-.04,0-.06,0Zm3.53-.79s-.01,0-.02,0c-.86-.01-1.78-.01-2.82,0-.1,0-.24,0-.33-.1-.1-.09-.11-.23-.11-.34,0-.95,0-1.92,0-2.87,0-.09,0-.23.1-.33.09-.09.22-.11.34-.1h0c.94,0,1.89,0,2.83,0,.11,0,.24,0,.34.11.09.1.1.23.1.34,0,.33,0,.65,0,.98v.41s0,.42,0,.42c0,.34,0,.68,0,1.01,0,.13,0,.27-.1.37-.09.09-.23.11-.32.11Zm-1.36-.33c.47,0,.92,0,1.35,0,.09,0,.11-.01.11-.01,0,0,.02-.03.01-.14,0-.34,0-.68,0-1.02v-.42s0-.41,0-.41c0-.33,0-.66,0-.99,0-.08,0-.11-.01-.11,0,0-.02-.01-.1-.01h0c-.94,0-1.89,0-2.83,0h0c-.09,0-.11.01-.12.01,0,0-.01.02-.01.1,0,.95,0,1.92,0,2.87,0,.09.01.11.01.11h0s.02.01.11.01c.52,0,1.01,0,1.48,0Z"/></g><g id="_路径_10844"><path class="cls-1" d="m8.51,23.66c-1.32,0-2.65,0-3.97,0-.35,0-.52.16-.51.53,0,1.32,0,2.65,0,3.97,0,.4.17.53.55.52.64-.02,1.28,0,1.92,0h0c.67,0,1.34,0,2.01,0,.38,0,.55-.16.55-.53v-3.93c.04-.27-.14-.52-.41-.56-.05,0-.09,0-.14,0m-.29,3.97c0,.17-.05.24-.23.24-.98,0-1.96,0-2.94,0-.16,0-.21-.06-.21-.21,0-.98,0-1.96,0-2.94,0-.21.09-.24.27-.24.48,0,.95,0,1.43,0s.95,0,1.43,0c.19,0,.26.05.26.25-.01.97,0,1.94,0,2.9"/><path class="cls-1" d="m8.53,28.85s-.02,0-.03,0c-.47-.01-.94,0-1.41,0h-.75s0,0,0,0h-.41c-.45,0-.9,0-1.35,0-.25,0-.42-.05-.54-.16-.12-.11-.17-.28-.17-.52,0-1.32,0-2.65,0-3.97,0-.23.05-.4.17-.51.11-.11.28-.17.5-.17,1.32,0,2.65,0,3.97,0h0c.05,0,.11,0,.16,0,.35.06.59.39.54.74v3.91c0,.23-.06.4-.18.52-.12.11-.28.17-.51.17Zm-.85-.32c.28,0,.55,0,.83,0,.15,0,.25-.02.31-.08.06-.06.09-.15.08-.29v-3.93c.03-.21-.09-.38-.27-.4-.03,0-.06,0-.09,0l-.02-.14v.14c-1.32,0-2.65,0-3.97,0-.13,0-.22.03-.28.08-.05.05-.08.15-.08.29,0,1.32,0,2.66,0,3.97,0,.14.02.24.07.29.05.05.15.08.31.07.45-.01.91,0,1.36,0h.72s.43,0,.43,0c.2,0,.39,0,.59,0Zm-2.63-.49c-.08,0-.19,0-.28-.09-.08-.08-.09-.2-.09-.28,0-.98,0-1.96,0-2.94,0-.09,0-.21.1-.3.09-.09.21-.1.33-.1.34,0,.68,0,1.02,0h.41s.42,0,.42,0c.34,0,.67,0,1.01,0,.1,0,.23,0,.32.1.09.09.1.22.1.31,0,.87-.01,1.79,0,2.9h-.1s.1,0,.1,0c0,.09-.01.21-.1.3-.09.09-.21.09-.29.1-.98,0-1.96,0-2.94,0Zm-.05-.32s.02,0,.04,0c.98,0,1.96,0,2.94,0,.05,0,.06,0,.07,0,0,0,0-.02,0-.07,0-1.11,0-2.03,0-2.91,0-.06,0-.08,0-.09,0,0-.02,0-.07,0,0,0-.01,0-.02,0-.34,0-.68,0-1.02,0h-.41s-.41,0-.41,0c-.34,0-.68,0-1.03,0-.07,0-.1,0-.1,0,0,0,0,.02,0,.07,0,.98,0,1.96,0,2.95,0,.03,0,.05,0,.05,0,0,0,0,0,0Z"/></g><g id="_路径_10845"><path class="cls-1" d="m33.11,23.51c-1.32,0-2.65,0-3.97,0-.35,0-.52.16-.51.53,0,1.32,0,2.65,0,3.97,0,.4.17.53.55.52.64-.02,1.28,0,1.92,0h0c.67,0,1.34,0,2.01,0,.38,0,.55-.16.55-.53v-3.93c.04-.27-.14-.52-.41-.56-.05,0-.09,0-.14,0m-.29,3.97c0,.17-.05.24-.23.24-.98,0-1.96,0-2.94,0-.16,0-.21-.06-.21-.21,0-.98,0-1.96,0-2.94,0-.21.09-.24.27-.24.48,0,.95,0,1.43,0s.95,0,1.43,0c.19,0,.26.05.26.25-.01.97,0,1.94,0,2.9"/><path class="cls-1" d="m33.13,28.7s-.02,0-.03,0c-.47-.01-.94,0-1.41,0h-.75s0,0,0,0h-.41c-.45,0-.9,0-1.35,0-.25,0-.42-.05-.54-.16-.12-.11-.17-.28-.17-.52,0-1.32,0-2.65,0-3.97,0-.23.05-.4.17-.51.11-.11.28-.17.5-.17,1.32,0,2.65,0,3.97,0h0c.05,0,.11,0,.16,0,.17.03.32.12.42.26s.14.31.12.48v3.91c0,.23-.06.4-.18.52-.12.11-.28.17-.51.17Zm-.85-.32c.28,0,.55,0,.83,0,.15,0,.25-.02.31-.08.06-.06.08-.15.08-.29v-3.93c.02-.11,0-.2-.06-.27-.05-.07-.13-.12-.22-.13-.03,0-.06,0-.09,0l-.02-.14v.14c-1.32,0-2.65,0-3.97,0-.13,0-.22.03-.28.08-.05.05-.08.15-.08.29,0,1.32,0,2.66,0,3.97,0,.14.02.24.07.29.05.05.15.08.31.07.45-.01.9,0,1.36,0h.73s.43,0,.43,0c.2,0,.39,0,.59,0Zm-2.63-.49c-.08,0-.19,0-.28-.09s-.09-.2-.09-.28c0-.98,0-1.96,0-2.94,0-.09,0-.21.1-.3.09-.09.21-.1.33-.1.34,0,.68,0,1.02,0h.41s.42,0,.42,0c.34,0,.67,0,1.01,0,.1,0,.23,0,.32.1.09.09.1.22.1.31,0,.87-.01,1.8,0,2.9h-.1s.1,0,.1,0c0,.09-.01.21-.1.3-.09.09-.21.09-.29.1-.98,0-1.96,0-2.94,0Zm-.05-.32s.02,0,.04,0c.98,0,1.96,0,2.94,0,.04,0,.06,0,.07,0,0,0,0-.03,0-.07,0-1.11,0-2.03,0-2.91,0-.06,0-.08,0-.09,0,0-.02,0-.07,0,0,0-.01,0-.02,0-.34,0-.68,0-1.02,0h-.41s-.41,0-.41,0c-.34,0-.69,0-1.03,0-.07,0-.1,0-.11,0,0,0,0,.02,0,.07,0,.98,0,1.96,0,2.95,0,.03,0,.05,0,.05,0,0,0,0,0,0Z"/></g></g></svg>