<?xml version="1.0" encoding="UTF-8"?><svg id="_圖層_1" xmlns="http://www.w3.org/2000/svg" viewBox="0 0 47.37 47.69"><defs><style>.cls-1{fill:#ef821d;}.cls-1,.cls-2,.cls-3{stroke-width:0px;}.cls-2{fill:#ffc0ca;}.cls-3{fill:#3d61ab;}</style></defs><g id="_组_547"><path id="_路径_500" class="cls-3" d="m23.94,44.28h-13.89c-.25,0-.51-.02-.75-.09-.57-.14-.95-.67-.9-1.25,0-.59.43-1.09,1.01-1.17.24-.04.48-.05.72-.05,0,0,4.04,0,4.68.01h.02c.21,0,.26-.02.35-.26.28-.76.58-3.43.9-4.21l.18-.45H4.71c-2.39.2-4.5-1.58-4.7-3.97-.02-.24-.02-.47,0-.71V8.03C-.13,5.63,1.7,3.57,4.1,3.42c.17-.01.33-.01.5,0,6.36,0,12.73,0,19.09,0s12.73,0,19.09,0c2.4-.13,4.45,1.71,4.58,4.12,0,.17,0,.33,0,.5v24.16c.14,2.4-1.69,4.46-4.09,4.61-.17,0-.33.01-.5,0h-11.66l.2.48c.34.83.65,3.55.96,4.35,0,.03.02.05.04.07.06.01.11.02.17.01h4.77c.24,0,.48.02.72.05.58.08,1.01.58,1,1.17.05.58-.33,1.11-.9,1.25-.25.06-.5.09-.75.08h-13.37m-6.12-2.55c.8,0,10.64-.01,11.71-.01h.03c-.38-.91-.78-3.82-1.16-4.81-.04-.1-.04-.11-.22-.11h-.09c-1.44,0-7.52,0-8.9,0h0c-.17,0-.2.01-.28.22l-.07.18c-.33.85-.67,3.66-1.05,4.52v.02s.02,0,.02,0M13.38,5.98H4.75c-1.56,0-2.2.64-2.2,2.22v23.86c0,1.55.67,2.21,2.23,2.21h37.82c1.56,0,2.23-.66,2.23-2.21V8.32c0-1.75-.59-2.35-2.32-2.35H13.38Z"/><path id="_路径_502" class="cls-3" d="m6.58,14.78h-.06c-.76-.05-1.33-.7-1.3-1.46-.02-1.16-.02-2.21,0-3.23-.06-.75.5-1.4,1.25-1.45.08,0,.16,0,.24,0h2.91c.24,0,.47,0,.71,0,.41,0,.8.15,1.09.44.24.25.37.59.35.94-.02.75-.65,1.34-1.4,1.31-.01,0-.02,0-.03,0h-.16c-.36,0-.72.01-1.09.01-.38,0-.72,0-1.03-.02h-.06s-.06,0-.09,0c0,.05,0,.11,0,.16.03.53.03,1.1,0,1.83.03.77-.58,1.42-1.34,1.45"/><path id="_路径_503" class="cls-3" d="m8.53,9.01c.6,0,1.2-.01,1.8,0,.54-.05,1.02.35,1.08.89s-.35,1.02-.89,1.08c-.06,0-.12,0-.18,0-.75.01-1.5.03-2.25,0-.44-.02-.55.14-.53.55.03.6.02,1.2,0,1.8.06.54-.34,1.03-.88,1.09-.54.06-1.03-.34-1.09-.88,0-.07,0-.14,0-.21-.02-1.07-.02-2.14,0-3.22.01-.74.38-1.07,1.14-1.09h1.8"/><path id="_路径_504" class="cls-3" d="m40.8,14.78c-.75-.03-1.34-.64-1.34-1.39-.03-.73-.02-1.46,0-2.02v-.03h-.04c-.35,0-.72.01-1.13.01s-.8,0-1.2,0c-.74.07-1.41-.47-1.48-1.21-.07-.74.47-1.41,1.21-1.48.08,0,.16,0,.24,0,.24,0,.49,0,.73,0h2.24c.27,0,.5,0,.71,0,.72-.06,1.36.48,1.41,1.21,0,.06,0,.12,0,.18.02,1.1.02,2.23,0,3.36,0,.74-.58,1.34-1.32,1.38h-.03Z"/><path id="_路径_505" class="cls-3" d="m38.92,9.01c.6,0,1.2-.01,1.8,0,.53-.05,1,.33,1.06.86,0,.06,0,.12,0,.17.02,1.11.02,2.23,0,3.35,0,.54-.42.99-.96,1.02-.56-.01-1.01-.48-1-1.04-.03-.66-.02-1.33,0-1.99,0-.31-.1-.41-.41-.4-.77.02-1.54.01-2.32,0-.55.07-1.05-.33-1.12-.88,0-.03,0-.05,0-.08,0-.55.44-1,.99-1,.04,0,.07,0,.11,0,.62-.01,1.24,0,1.87,0"/><path id="_路径_639" class="cls-2" d="m11.52,20.44c-.51-2.65.08-5.39,1.63-7.59,2.25-3.24,6.09-3.7,8.93-1.09.66.62,1.15,1.39,1.43,2.26.04.12.08.25.12.37,0,.02.04.03.1.07.21-.68.51-1.32.9-1.91,1.75-2.57,5.25-3.24,7.82-1.49.32.22.62.47.89.75,2.21,2.29,3.15,5.52,2.52,8.63-1.28,0-2.56,0-3.84.02-1.32.05-2.36,1.16-2.33,2.48-.04.8-.4,1.24-1.02,1.22-.6-.02-.88-.43-.89-1.28,0-1.33.01-2.66,0-3.99.1-1.45-1-2.71-2.45-2.81,0,0-.02,0-.03,0-1.32,0-2.32,1.23-2.32,2.84v4.69c.04.4-.13.78-.45,1.03-.64.46-1.43-.02-1.45-.92-.03-1.36,0-2.73-.01-4.09-.02-2.09-1.49-3.36-3.15-2.76-1.03.41-1.68,1.42-1.65,2.53-.04.67-.34,1.05-.91,1.05-1.28,0-2.56,0-3.84-.01"/><path id="_路径_640" class="cls-2" d="m35.35,21.45c-.45,1.49-1.17,2.88-2.13,4.1-1.83,2.32-4.23,4.13-6.96,5.25-.1.04-.19.08-.29.13-2.18.97-2.18.99-4.36.09-2.63-1.01-4.98-2.63-6.86-4.73-1.25-1.39-2.18-3.05-2.73-4.84,1.13,0,2.25,0,3.38-.02,1.34-.05,2.38-1.17,2.33-2.51,0,0,0,0,0-.01,0-.25.06-.49.18-.71.21-.39.67-.58,1.09-.44.41.15.66.55.62.98,0,1.41-.01,2.83.01,4.24.03,1.63,1.1,2.86,2.45,2.82,1.43-.16,2.47-1.44,2.33-2.88-.05-1.56-.02-3.13,0-4.69,0-.77.42-1.2,1.07-1.12.5.06.81.46.82,1.11.01,1.35,0,2.69,0,4.04.03,2.08,1.49,3.36,3.14,2.75,1.02-.42,1.67-1.43,1.63-2.54.04-.66.35-1.04.91-1.04,1.13,0,2.25,0,3.38.01"/><path id="_路径_641" class="cls-1" d="m35.58,21.73c-1.15,0-2.3-.02-3.44-.01-.58,0-.89.38-.93,1.04.03,1.11-.63,2.12-1.66,2.54-1.68.61-3.18-.67-3.2-2.75-.02-1.35,0-2.69,0-4.04,0-.65-.32-1.05-.83-1.11-.66-.08-1.08.34-1.09,1.12,0,1.56-.05,3.13,0,4.69.13,1.45-.93,2.73-2.38,2.88-1.45-.07-2.57-1.3-2.5-2.75,0-.03,0-.05,0-.08-.02-1.41,0-2.83-.01-4.24.04-.43-.22-.84-.64-.98-.43-.14-.9.04-1.12.44-.12.22-.18.46-.18.71.04,1.35-1.01,2.48-2.36,2.52,0,0-.01,0-.02,0-1.15.01-2.3.01-3.44.02-.48,0-.96,0-1.45-.02-.44,0-.8-.36-.79-.81,0-.44.36-.8.81-.79.33,0,.66,0,.99-.01,1.3,0,2.6.02,3.89.01.57,0,.88-.38.92-1.05-.03-1.11.64-2.12,1.67-2.53,1.68-.6,3.17.68,3.19,2.76.02,1.36-.01,2.73.01,4.09.02.9.82,1.38,1.47.92.32-.24.49-.63.45-1.03,0-1.56,0-3.12,0-4.69,0-1.61,1.02-2.83,2.35-2.84,1.46.07,2.59,1.32,2.51,2.78,0,.01,0,.02,0,.03.02,1.33,0,2.66,0,3.99,0,.85.3,1.26.9,1.28.62.02.99-.42,1.03-1.22-.02-1.33,1.03-2.44,2.37-2.48,1.3-.01,2.6-.01,3.89-.02.35,0,.69,0,1.04.01.44.03.78.4.75.85-.02.4-.34.72-.74.75-.5.02-.99.01-1.49.02"/></g></svg>