<?xml version="1.0" encoding="UTF-8"?><svg id="_圖層_1" xmlns="http://www.w3.org/2000/svg" viewBox="0 0 52.01 45.72"><defs><style>.cls-1{fill:#fff;stroke-width:0px;}</style></defs><path class="cls-1" d="m39.92,22.04c-.28-.21-.45-.03-.66.1-.94.56-1.88,1.12-2.85,1.7h0c-.02-.12-.04-.19-.05-.25-.03-1.3-1.08-2.35-2.38-2.38-.25-.03-.31-.17-.41-.35-.57-1.08-1.84-1.58-2.99-1.18-.81.29-1.42.96-1.63,1.79-.05-.03-.07-.03-.08-.04-.03-.04-.05-.09-.06-.13-.27-.97-1.11-1.66-2.11-1.73-1.03-.14-2.03.41-2.46,1.37-.13.26-.31.25-.52.28-1.31.11-2.3,1.24-2.25,2.55,0,1.59,0,3.17,0,4.76,0,.08,0,.16,0,.24.04,1.35,1.16,2.41,2.51,2.37,3.29.03,6.58.02,9.87,0,1.04.04,1.98-.6,2.33-1.58.11-.27.18-.28.41-.14.89.55,1.79,1.09,2.7,1.62.14.09.3.13.47.12.44-.02.78-.4.75-.84,0-2.49-.02-4.98.02-7.46,0-.5-.32-.59-.59-.8Zm-8.51-.84c.45.02.81.4.79.85,0,0,0,0,0,.01-.02.46-.4.81-.86.79-.46-.02-.81-.4-.79-.86.02-.46.4-.81.86-.79Zm-4.97,0c.46,0,.82.39.81.85-.02.45-.39.81-.85.81h0c-.46,0-.82-.39-.81-.85,0-.46.39-.82.85-.81Zm8.27,7.28c0,.7-.3,1.01-1,1.01h-9.57c-.71,0-1.01-.29-1.01-1,0-1.54,0-3.07,0-4.61-.03-.29.07-.57.26-.78.35-.33.64-.29.88.13.45.87,1.39,1.38,2.37,1.27.96-.06,1.79-.68,2.12-1.59.05-.1.03-.24.18-.34h0c.27,1.15,1.31,1.96,2.5,1.94.87,0,1.67-.48,2.1-1.24.1-.16.09-.45.42-.4.29.03.54.21.66.47.07.17.1.35.09.54,0,1.54,0,3.07,0,4.61Zm4.11.35h0c-.8-.48-1.53-.92-2.27-1.36-.13-.08-.2-.22-.19-.37-.07-1.24-.08-1.24.98-1.87.48-.29.96-.57,1.48-.88v4.49Z"/><path class="cls-1" d="m46.04,23.07c-1.52-8.31-9.5-13.82-17.81-12.29-8.31,1.52-13.82,9.5-12.29,17.81,1.94,10.53,14.14,16.11,23.06,10.2,1.77-1.24,3.33-2.75,4.64-4.47,2.27-3.28,3.13-7.33,2.4-11.25Zm-1.41,2.72c-.02,7.53-6.12,13.62-13.64,13.62-7.54,0-13.65-6.1-13.66-13.64,0-7.54,6.1-13.65,13.64-13.66s13.65,6.1,13.66,13.64v.04Z"/><path class="cls-1" d="m38.82,42.3h0c0-1.29,0-1.28-1.28-1.26-.27,0-.38.07-.37.36.02.53-.03,1.07.02,1.6.04.44-.1.55-.54.55-9.57-.01-19.14-.01-28.72,0-.43,0-.55-.09-.55-.54.02-9.86.02-19.71,0-29.57,0-.47.15-.53.56-.52,3.22.02,6.45,0,9.67.02.42,0,.56-.07.55-.53-.02-3.26,0-6.52-.02-9.77,0-.35.05-.48.45-.48,6.05.02,12.09.02,18.14,0,.38,0,.47.1.46.47-.02,2.2,0,4.41,0,6.62,0,1.2,0,1.18,1.22,1.2.36,0,.43-.1.43-.44-.01-3.01-.01-6.01,0-9.02,0-.4-.11-.48-.49-.48-6.99.01-13.97.01-20.95,0-.28-.01-.55.1-.74.31-3.53,3.54-7.06,7.07-10.6,10.59-.24.23-.37.55-.35.88,0,5.38.01,10.76,0,16.14,0,5.43,0,10.86-.01,16.29,0,.42.11.51.52.51,7.22-.01,14.43-.02,21.65,0,3.49,0,6.98,0,10.47,0,.37,0,.49-.08.47-.46-.03-.82,0-1.64,0-2.46ZM16.48,3.45v.44c0,2.3,0,4.61,0,6.91,0,.34-.04.49-.45.48-2.45-.02-4.9-.01-7.38-.01l7.82-7.81Z"/></svg>