<?xml version="1.0" encoding="UTF-8"?><svg id="_圖層_1" xmlns="http://www.w3.org/2000/svg" viewBox="0 0 52.01 45.72"><defs><style>.cls-1{fill:#fff;stroke-width:0px;}</style></defs><path class="cls-1" d="m19.99,12.13s.08,0,.12,0c.04,0,.08,0,.11,0,1.06,0,2.12,0,3.15,0,.24.03.49-.03.68-.18s.32-.37.35-.61c.07-.5-.29-.97-.79-1.04-.09-.01-.17-.01-.21,0-.35,0-.69,0-1.04,0h-.51s-.55,0-.55,0c-.37,0-.74,0-1.07,0-.25-.03-.49.03-.68.18-.2.15-.32.37-.35.61-.03.24.03.49.18.68.15.2.37.32.61.36Z"/><path class="cls-1" d="m7.44,8.03h.16c.09,0,.18,0,.27,0,.18.02.66.05.76-.56.05-.29.28-.51.6-.54.34-.06.63.01.82.2.21.21.28.56.21.95-.14.5-.45.96-.88,1.28-.5.41-.84.99-.97,1.64v.07c-.07.37-.1.59.05.77.15.18.38.18.83.18h.11l.03-.03s.05,0,.07.01c.06.01.14.03.23.03.09,0,.2-.02.29-.09.13-.1.19-.25.2-.47.02-.47.26-.9.67-1.17.22-.16.42-.35.58-.54.81-.83,1.02-2.09.52-3.13l-.24.12.22-.14c-.9-1.41-2.78-1.81-4.18-.91-.48.31-.86.74-1.12,1.3-.1.35-.15.62,0,.82.15.2.42.22.76.22Z"/><path class="cls-1" d="m9.26,12.5h0c-.56,0-1.02.46-1.03,1.02,0,.05,0,.1,0,.11,0,.5.44.83,1.09.83,0,0,.01,0,.02,0,.65,0,1.05-.37,1.06-.96,0-.28-.09-.52-.27-.7-.21-.2-.49-.31-.88-.3Z"/><path class="cls-1" d="m51.6,15.17h0c.06-1.42-.6-2.75-1.78-3.57-.16-.1-.29-.26-.35-.44v-.42c0-1.13-.92-2.05-2.05-2.05s-2.05.92-2.05,2.05v1.9c0,.55.21,1.06.6,1.45.39.39.9.6,1.45.6h0c.72,0,1.39-.39,1.75-.98.24.31.38.68.4,1.08.02.73-.03,4.78-.03,4.81-.11,2.93-.88,3.59-2.13,4.45-1.92,1.36-4.43,1.58-6.55.59-1.43-.72-2.63-1.6-2.84-5.01,0,0,.06-3.71.06-4.93.02-.33.14-.64.35-.92.24.37.6.65,1.03.8.52.18,1.07.15,1.57-.08.71-.34,1.16-1.07,1.16-1.85v-1.9c0-1.13-.92-2.05-2.05-2.05s-2.05.92-2.05,2.05v.55c-.05.13-.15.24-.28.32-1.17.82-1.83,2.15-1.77,3.56,0,1.41,0,1.92,0,2.63v1.86c0,3.95,2.64,6.91,6.7,7.54.03,0,.06,0,.09.01,0,.94,0,1.87,0,2.81,0,.99,0,1.98,0,2.97-.02,2.14-1.52,3.52-3.83,3.53-.5,0-1.01,0-1.51,0-.92,0-1.84,0-2.76.01-.02,0-.04,0-.06,0-.15,0-.2-.02-.19,0,0-.01-.03-.07-.03-.26.02-8.64.02-15.2.01-23.36v-3.31c.02-.33,0-.67-.07-1.02-.32-1.15-1.4-1.89-2.55-1.77h-13.73q-.2,0-.25-.13C16.37,2.76,12.28.36,8.12,1,4.02,1.62.87,4.92.44,9.05c-.2,2.42.55,4.77,2.12,6.62,1.57,1.85,3.76,2.98,6.18,3.18h.2c.13.02.19.04.19.03,0,.02.02.07.01.22-.01,8.39,0,12.21,0,19.33v3.69c-.08.64.09,1.26.48,1.77.39.51.96.83,1.59.91.11.01.21.02.31.02.09,0,.18,0,.26-.02h20c.63.07,1.26-.1,1.76-.49.5-.39.82-.96.9-1.59.02-.19.02-.39,0-.54v-1.44c0-.46,0-.5,0-1.98,0-.13,0-.19,0-.21.02,0,.08-.02.18-.01,1,.03,2.01.02,3.01.02h1.26c.48,0,.99-.05,1.46-.15,2.64-.46,4.56-2.82,4.48-5.48.02-1.95,0-3.9,0-5.85,0-.06,0-.1,0-.11.02,0,.04-.01.08-.02,4.05-.64,6.67-3.6,6.69-7.55,0-.93,0-1.43,0-1.84,0-.6,0-1.02.01-2.39Zm-31.01,8.44c0,.34-.15.66-.4.89-.25.23-.56.35-.99.35l-.03.36-.02-.35c-.72.02-1.26-.5-1.29-1.18,0-.05,0-.09,0-.13.05-.66.64-1.14,1.28-1.1h.1c.45.02.83.16,1.06.4.19.19.27.45.27.76ZM3.61,6.02c1.03-1.54,2.6-2.59,4.42-2.95.11-.02.22-.04.33-.06,3.52-.58,6.86,1.58,7.77,5.04.61,2.08.18,4.34-1.15,6.01-.41.43-.4,1.11-.02,1.5.48.62.94,1.25,1.41,1.88l.08.11-.26-.07c-.88-.22-1.76-.44-2.61-.66-.51-.17-1.05-.26-1.59-.26-.33,0-.66.03-.98.1-3.75.88-7.52-1.46-8.4-5.22-.02-.07-.03-.14-.04-.21h0c-.36-1.82,0-3.68,1.04-5.22Zm28.82,36.14c0,.58-.01.63-.65.63H11.79c-.6,0-.63-.03-.63-.64v-11.7c0-3.85,0-7.59-.01-11.51,0-.19.02-.23.03-.24,0,0,.03-.03.18-.06.26-.05.69-.12.72-.14l.07.07,1.65.42h.05c.06,0,.12,0,.19.03.8.23,1.61.42,2.42.62l.54.13c.67.19,1.37-.08,1.76-.64.4-.57.38-1.33-.04-1.87-.36-.5-.72-1-1.09-1.49l-.62-.85-.08-.1s.07-.08.11-.12l.87-1.88s.02-.09.04-.14c.05-.13.09-.27.13-.4l.06-.2c.02-.09.05-.18.06-.26l.09-.47.12-1.6c0-.08,0-.17-.01-.3,0-.07,0-.13,0-.17-.01-.14-.02-.28-.04-.43,1.5,0,3,0,4.51,0h8.77q.8,0,.8.78v17.42c0,3.16,0,5.54.01,9.35,0,.08,0,.12,0,.14-.03,0-.07,0-.14,0-.39-.01-1.96,0-2.57,0h-.23c-2.66-.01-5.33-.01-7.99,0h-2.49c-.28.04-.55-.16-.59-.45,0-.05,0-.1,0-.15v-.05s0-.05,0-.05c-.03-.28.17-.54.45-.57.04,0,.08,0,.17,0h7.45c.69.02,1.32-.22,1.81-.68.49-.46.78-1.09.8-1.76,0-.12,0-.23-.01-.28.14-1.39-.88-2.63-2.27-2.77-.12-.01-.23-.01-.33-.01h-4.74c-.39.02-.77-.1-1.07-.36-.3-.26-.47-.62-.5-1.09,0-.08,0-.16,0-.23,0-.11,0-.21-.02-.38-.15-.53.14-1.08.69-1.26,1.44-.59,2.14-2.26,1.57-3.7-.53-1.42-2.01-2.26-3.44-2.01-1.51.02-2.82,1.1-3.11,2.6-.23,1.53.72,2.98,2.22,3.39.05.01.09.06.07.16-.05.69-.01,1.39.1,2.08.3,1.65,1.8,2.88,3.47,2.81,1.06,0,2.12,0,3.17,0h1.59c.41,0,.6.11.6.73,0,.66-.19.74-.59.74h-7.45c-.67-.04-1.31.2-1.81.65-.5.45-.79,1.07-.82,1.74,0,.09,0,.18,0,.23-.03.69.2,1.35.67,1.85.46.51,1.1.81,1.78.84.06,0,.12,0,.18,0,2.1-.03,4.21-.02,6.31-.02,1.39,0,2.77,0,4.16,0h.25c.59,0,2.02.02,2.46,0,.03,0,.06,0,.09,0,.06,0,.09,0,.1,0,0,.02.02.08.01.19-.02,1.47-.02,1.52-.02,1.97v1.46s.37,0,.37,0h0s-.36,0-.36,0Z"/></svg>