<?xml version="1.0" encoding="UTF-8"?><svg id="_圖層_1" xmlns="http://www.w3.org/2000/svg" viewBox="0 0 37.33 44.85"><defs><style>.cls-1{fill:#fff;stroke-width:0px;}</style></defs><g id="_组_4750"><path id="_路径_10214" class="cls-1" d="m18.9,6.93c4.9.23,8.59,2.45,10.58,6.96,1.99,4.51,1.28,8.8-1.99,12.5-2.13,2.24-3.46,5.12-3.79,8.19-.07.27.09.54.35.62,1.09.51,1.56,1.8,1.05,2.88-.02.05-.05.1-.07.14-.13.21-.12.48.01.68.58,1.07.17,2.41-.9,2.99-.2.11-.42.19-.65.23-.3.05-.56.26-.65.55-.51,1.29-1.76,2.14-3.16,2.14-.75.07-1.51.05-2.25-.06-1.16-.2-2.13-.99-2.56-2.08-.09-.29-.34-.51-.65-.55-1.2-.22-1.99-1.37-1.77-2.56.04-.23.12-.45.23-.65.13-.21.13-.48,0-.7-.57-1-.23-2.27.76-2.86.63-.34.6-.74.52-1.28-.41-2.78-1.65-5.38-3.55-7.44-4.43-4.68-4.24-12.06.44-16.5,1.7-1.61,3.85-2.68,6.16-3.05.63-.09,1.26-.13,1.91-.16m1.56,28.02c.45-.01,1.09.1,1.32-.09.24-.24.15-.82.21-1.25,0-.06.03-.12.04-.17.5-3.05,1.9-5.88,4.03-8.11,2.2-2.27,3.12-5.48,2.47-8.57-.78-4.19-4.17-7.39-8.39-7.94-4.05-.49-7.99,1.54-9.94,5.13-2,3.62-1.49,8.1,1.27,11.18,2.44,2.58,3.97,5.89,4.33,9.43.03.35.19.41.5.4m2.58,4.51h-3.98c-.34,0-.68.02-.68.46s.33.48.67.48h7.9c.36,0,.73-.05.71-.51-.02-.42-.37-.44-.71-.44-1.31,0-2.61,0-3.92,0m.06-2.73h-4.04c-.34,0-.67.04-.67.47s.33.47.68.47c2.63,0,5.26,0,7.89,0,.36,0,.73-.05.7-.51-.02-.42-.37-.44-.71-.44-1.29,0-2.57,0-3.86,0m2.05,5.5h-4.3c.84,1.17,3.6,1.15,4.3,0"/><path id="_路径_10215" class="cls-1" d="m19.56,2.47c0,.51.02,1.03,0,1.54.03.49-.35.91-.84.94-.49.03-.91-.35-.94-.84,0-.03,0-.07,0-.1-.02-1.01-.02-2.02,0-3.02-.04-.49.32-.93.81-.98.49-.04.93.32.98.81,0,.06,0,.11,0,.17v.12c0,.45,0,.91,0,1.36h0"/><path id="_路径_10216" class="cls-1" d="m34.87,17.78c.51,0,1.03,0,1.54,0,.47-.03.88.32.91.8,0,.01,0,.02,0,.03.04.48-.31.9-.79.94-.02,0-.04,0-.07,0-1.07.04-2.14.03-3.2,0-.49,0-.89-.39-.89-.88,0-.01,0-.03,0-.04.02-.49.44-.88.94-.85,0,0,0,0,.01,0,.51-.01,1.03,0,1.54,0"/><path id="_路径_10217" class="cls-1" d="m32.14,31.18c.02.35-.17.68-.48.85-.3.19-.68.16-.95-.07-.82-.78-1.62-1.57-2.39-2.39-.31-.31-.31-.8,0-1.11.02-.02.04-.04.07-.06.28-.34.79-.39,1.13-.11.02.01.03.03.05.04.83.77,1.61,1.58,2.4,2.39.12.13.19.3.19.47"/><path id="_路径_10218" class="cls-1" d="m6.05,5.19c.29,0,.57.12.76.33.7.7,1.4,1.39,2.09,2.1.39.31.45.87.14,1.26-.03.04-.06.07-.1.1-.35.34-.91.33-1.25-.02-.02-.02-.04-.05-.06-.07-.72-.7-1.43-1.42-2.14-2.14-.29-.26-.38-.68-.21-1.03.13-.31.42-.52.76-.53"/><path id="_路径_10219" class="cls-1" d="m32.13,6.08c0,.28-.12.55-.33.73-.7.7-1.39,1.41-2.1,2.09-.31.39-.88.45-1.27.14-.39-.31-.45-.88-.14-1.27.04-.05.09-.1.13-.14.7-.73,1.42-1.43,2.14-2.14.25-.3.68-.38,1.03-.21.32.14.53.44.54.78"/><path id="_路径_10220" class="cls-1" d="m2.49,17.79c.51,0,1.03-.01,1.54,0,.49-.03.91.35.93.84.03.49-.35.91-.84.93-.01,0-.02,0-.04,0-1.09.03-2.18.03-3.26,0-.48-.02-.85-.43-.83-.91,0,0,0,0,0,0,.02-.48.41-.85.89-.85.53-.02,1.07,0,1.6,0h0"/><path id="_路径_10221" class="cls-1" d="m9.24,29.01c-.02.26-.13.5-.32.68-.7.7-1.4,1.41-2.1,2.1-.31.39-.88.46-1.27.15-.39-.31-.46-.88-.15-1.27.04-.05.09-.1.15-.15.71-.73,1.43-1.43,2.14-2.14.35-.36.92-.37,1.28-.02.17.17.27.4.27.64"/><path id="_路径_10222" class="cls-1" d="m15.07,26.61c-.13,0-.25-.06-.34-.15-.17-.14-.31-.31-.09-.81s.44-1,.65-1.49c.37-.86.76-1.76,1.16-2.62.14-.24.17-.53.08-.79-.12-.24-.34-.42-.6-.5-.53-.2-1.09-.44-1.81-.79-.23-.08-.4-.28-.45-.52,0-.22.11-.43.3-.55,2.4-1.83,4.86-3.67,7.24-5.45l.62-.46c.12-.1.26-.15.41-.16.13,0,.25.05.35.14.24.16.31.49.15.73,0,0,0,0,0,0-.2.45-.4.91-.6,1.36-.4.92-.82,1.88-1.25,2.81-.1.22-.36.57-.24.87s.55.38.78.47c.49.18.98.41,1.45.63l.37.17c.25.08.42.32.4.58,0,.2-.12.39-.3.49l-3.52,2.63c-1.43,1.07-2.87,2.15-4.3,3.22-.13.11-.29.18-.45.19m-.01-7.88l1.02.35c.2.09.39.17.57.25.37.16.72.31,1.05.47.45.22.54.45.35.91-.17.42-2.15,4.12-2.15,4.12l1.74-1.4,4.57-3.27-1.38-.48-.92-.41c-.8-.36-.85-.48-.5-1.31.04-.1,1.67-3.49,1.67-3.49l-6.02,4.27Z"/></g></svg>