<?xml version="1.0" encoding="UTF-8"?><svg id="_圖層_1" xmlns="http://www.w3.org/2000/svg" viewBox="0 0 21.43 21.3"><defs><style>.cls-1{fill:#ef821d;}.cls-1,.cls-2{stroke-width:0px;}.cls-2{fill:#3d61ab;}</style></defs><path class="cls-2" d="m21.32,9.46c-.25-1.4-.82-2.73-1.65-3.89-.85-1.14-1.91-2.1-3.14-2.82-1.54-.92-3.3-1.45-5.1-1.53-.13,0-.21-.03-.24-.07-.04-.06-.05-.14-.03-.21.02-.16.01-.32,0-.49-.02-.29-.17-.46-.46-.46h0c-.25.02-.4.18-.4.47v.5c.02.07,0,.14-.02.19-.05.04-.11.07-.21.07h0c-1.06.05-2.12.25-3.13.61-1.87.64-3.52,1.77-4.79,3.29C.87,6.63.1,8.57,0,10.55v.52c0,.22.02.53.44.57.27,0,.36-.25.44-.48l.04-.11c.03-.09.06-.18.09-.26.14-.36.43-.66.78-.82.36-.18.77-.27,1.17-.27.33,0,.66.06.97.18.49.16.86.55,1.01,1.04.06.18.13.36.19.51.04.17.2.29.37.3h.01c.23,0,.32-.2.37-.3.03-.07.06-.14.07-.22.16-.72.63-1.17,1.43-1.41.26-.07.52-.11.77-.11.98,0,1.78.58,2.14,1.54l.07.2c.04.17.2.3.38.3s.33-.13.37-.3c.04-.09.07-.18.09-.27l.03-.11c.11-.45.42-.83.82-1.04.37-.18.8-.28,1.23-.28s.84.09,1.22.27c.53.24.89.74.97,1.31,0,.13.06.25.17.33.07.06.15.09.26.1.25,0,.33-.21.43-.47.05-.12.09-.25.13-.37.11-.36.35-.67.69-.85.4-.22.84-.34,1.3-.34s.92.12,1.33.36c.47.25.64.72.77,1.19.05.2.12.48.5.48h0c.35-.04.35-.33.36-.61.03-.65-.1-1.65-.1-1.65Zm-4.83.04c0-1.41-.29-2.84-.88-4.12-.59-1.22-1.48-2.26-2.57-3.05.51.08,1.01.22,1.49.42,2.59,1.02,4.43,2.75,5.44,5.13.24.48.38.98.43,1.52-.52-.36-1.13-.57-1.77-.57-.67.02-1.33.2-1.87.54-.09.04-.17.08-.26.13h.01Zm-.89.13c-.63-.48-1.37-.76-2.21-.81h-.05c-.76.02-1.49.26-2.12.69l-.06-5.1v-2.12c2.93,1.35,4.5,3.94,4.44,7.32h0Zm-10.41-.03c-.61-.47-1.34-.73-2.16-.78h-.04c-.69.02-1.36.21-1.93.58.6-3.56,4.04-6.64,7.95-7.15-1.1.88-2,1.94-2.67,3.19-.23.44-.44.9-.61,1.4-.15.44-.28.88-.38,1.33-.09.44-.14.87-.13,1.27,0,.06-.02.12-.03.18h.01Zm5.13-.07c-.62-.45-1.37-.69-2.17-.7-.76,0-1.52.24-2.14.7.32-3.05,1.73-5.37,4.29-7.1v7.11h.01Z"/><path id="_路径_8246" class="cls-1" d="m10.7,21.3c-2.43,0-4.38-1.99-4.38-4.42s1.99-4.38,4.42-4.38,4.38,1.99,4.38,4.42v.06c-.06,2.41-2.01,4.32-4.42,4.32m.04-7.83c-1.9,0-3.44,1.54-3.44,3.44s1.54,3.44,3.44,3.44,3.38-1.47,3.44-3.33c.07-1.89-1.4-3.47-3.29-3.55h-.13"/><path class="cls-1" d="m12.01,16.96c-.26-.22-.58-.38-.93-.43l-.15-.02v-1.36c.18,0,.34.09.45.22.11.16.18.34.21.53h.01c.03.16.16.28.31.28.19,0,.35-.16.35-.35,0-.01-.01-.02-.01-.03h.02c-.02-.13-.06-.27-.1-.4s-.12-.27-.22-.37c-.11-.12-.25-.22-.39-.29-.2-.09-.4-.13-.63-.15v-.55h-.37v.55c-.35,0-.67.12-.96.34-.22.18-.36.44-.39.72v.22c0,.18.03.35.1.51.06.13.15.26.26.36.12.1.27.19.42.25.19.07.38.11.57.15v1.42c-.19-.01-.38-.09-.53-.22-.13-.16-.21-.36-.21-.57h-.02s.02-.03.02-.07h0c-.02-.19-.2-.33-.39-.3-.18.02-.31.19-.3.37h0c0,.18.03.35.09.52.06.16.15.3.26.42.12.12.27.22.44.29.2.08.42.12.63.13v.63h.37v-.63c.21,0,.43-.06.62-.13.16-.07.31-.17.44-.29.11-.11.2-.25.26-.39.06-.15.09-.3.09-.47.02-.33-.09-.64-.3-.89v.03Zm-1.46-.53c-.18-.02-.36-.1-.49-.21-.1-.11-.16-.26-.16-.42v-.1c0-.13.06-.26.16-.36.13-.12.31-.2.49-.2v1.28h0Zm.89,1.9c-.13.13-.31.21-.51.21v-1.35c.11.02.22.06.33.1.08.04.15.09.2.16.04.06.08.12.1.19s.03.13.03.2c0,.17-.04.34-.16.47h0Z"/></svg>