<?xml version="1.0" encoding="UTF-8"?><svg id="_圖層_1" xmlns="http://www.w3.org/2000/svg" viewBox="0 0 44.21 35.3"><defs><style>.cls-1{fill:#ef821d;}.cls-1,.cls-2{stroke-width:0px;}.cls-2{fill:#3d61ab;}</style></defs><g id="_组_4972"><path id="_路径_10591" class="cls-1" d="m44.2,17.59c-.04-.61-.56-1.07-1.17-1.03-.5-.02-1.88,0-1.99-.02h-2.91c-.1.02-.2.03-.31.02-2.86-.01-5.72,0-8.57,0-1.18,0-1.33.11-1.79,1.23-.65,1.56-1.32,3.1-2.04,4.82h0c-1.05-2.47-2.04-4.79-3.02-7.1-.82-1.92-1.64-3.85-2.45-5.77-.22-.52-.51-.92-1.13-.92s-.91.43-1.13.93c-.89,2.1-1.8,4.19-2.66,6.3-.09.35-.42.57-.77.52-2.62-.02-5.24,0-7.86,0-.12,0-.25,0-.37-.02h-2.78c-.13.04-.27.05-.4.03-.55-.04-1.73,0-1.77,0-.61.02-1.08.53-1.06,1.14.02.61.53,1.08,1.14,1.06,0,0,.01,0,.02,0,.62.05,2.36-.04,2.56,0h3.77c2.53.02,5.05,0,7.57,0,1.05,0,1.24-.13,1.66-1.11.67-1.59,1.35-3.18,2.09-4.92h0c.61,1.43,1.17,2.73,1.73,4.03,1.26,2.95,2.51,5.9,3.76,8.85.21.49.48.87,1.08.89.54,0,1.02-.36,1.16-.89.9-2.12,1.81-4.24,2.69-6.37.08-.32.39-.54.72-.49,2.24.02,4.48.01,6.72.01h.21s3.55-.01,3.55-.01c.88-.06,1.77-.06,2.65,0h.02c.62,0,1.12-.5,1.12-1.11v-.05"/><path id="_路径_10592" class="cls-2" d="m41.16,14.7c.34-1.71.36-3.47.04-5.19C40.01,3.19,33.91-.97,27.58.22c-1.81.34-3.51,1.11-4.96,2.23-.02.03-.05.05-.07.07-.28.24-.7.2-.93-.07C19.81,1.01,17.61.17,15.31.03,15.05,0,14.79,0,14.53,0,8.06,0,2.8,5.23,2.79,11.71c-.02,1,.07,2.01.27,2.99.08.39.17.78.28,1.17.11.35.12.58-.11.67h2.78c-.15-.04-.27-.16-.3-.32-.16-.51-.29-1.01-.4-1.52-.68-2.64-.31-5.43,1.04-7.8C8.92,2.4,14.67.85,19.17,3.44c.62.36,1.2.79,1.73,1.28,1.11,1,1.28.99,2.43,0,2.96-2.57,6.31-3.27,9.96-1.78,3.46,1.42,5.36,4.11,5.85,7.82.18,1.8-.02,3.63-.58,5.35-.03.22-.2.4-.42.44h2.91c-.32-.04-.28-.2-.12-.81.1-.34.17-.69.24-1.03"/><path id="_路径_10593" class="cls-2" d="m36.87,18.75h0c.54.02.52.09.19.67-.06.1-.12.2-.19.3-1.9,3.14-4.29,5.96-7.08,8.35-1.98,1.79-4.17,3.33-6.54,4.56-.7.4-1.56.4-2.27,0-3.68-1.98-6.98-4.59-9.75-7.71-1.4-1.51-2.65-3.16-3.72-4.92-.13-.21-.27-.42-.39-.63-.28-.48-.22-.61.33-.61h-3.73c.57.15,1.03.57,1.23,1.13.12.24.27.47.4.71,2.41,4.11,5.59,7.71,9.38,10.6,2,1.7,4.27,3.05,6.72,3.99.42.16.89.16,1.31,0,2.27-.86,4.39-2.09,6.27-3.63,3.94-3.06,7.39-6.58,9.83-10.95.06-.11.14-.22.2-.34.25-.65.74-1.18,1.36-1.5h-3.55Z"/></g></svg>