<?xml version="1.0" encoding="UTF-8"?><svg id="_圖層_1" xmlns="http://www.w3.org/2000/svg" viewBox="0 0 52.01 45.72"><defs><style>.cls-1{fill:#fff;stroke-width:0px;}</style></defs><path class="cls-1" d="m47.36,22.12h.06c.22,0,.44,0,.59-.16.15-.15.17-.37.17-.59-.02-6.63-.02-13.35,0-19.98,0-.21-.02-.44-.17-.58-.14-.14-.34-.17-.59-.17-14.38.01-28.78.01-42.81,0-.58,0-.79.21-.79.8.02,4.41.02,38.8,0,42.79,0,.29.03.52.18.67.17.17.42.19.66.19,5.68-.02,11.37-.02,17.05-.02h4.26s0-.2,0-.2h0s0,.2,0,.2c7.09,0,14.28,0,21.37.01h0c.27,0,.48-.03.63-.18.16-.16.18-.4.18-.64-.02-5.2-.02-10.39-.01-15.59v-3.67c0-1.28-.09-1.37-1.31-1.41h-.08c-.22-.01-.47,0-.63.16-.15.15-.19.37-.19.66.01,3.37.01,6.75.02,10.13,0,2.65,0,5.29,0,7.94,0,.07,0,.28-.05.33-.03.03-.1.06-.31.06-12.99-.01-26.17-.02-39.17,0h0c-.18,0-.3-.02-.34-.06s-.06-.16-.06-.36c.01-13,.01-26.18,0-39.18,0-.39.03-.42.41-.42,12.99.01,26.17.01,39.17,0h0c.21,0,.28.03.31.06.06.06.06.26.06.33,0,5.8-.01,11.61-.01,17.41,0,1.35.09,1.45,1.39,1.48Z"/><path class="cls-1" d="m26.91,30.62c3.22-.58,5.85-3,6.71-6.14.06-.18.09-.39.12-.6.04-.28.08-.59.2-.67.19-.14.56-.1.92-.08.16.01.32.03.48.03.75,0,1.13,0,1.36-.24.23-.23.22-.6.2-1.38,0-.14-.02-.34-.16-.48-.14-.13-.33-.14-.51-.14-.33.01-.66,0-.99,0-.35,0-.7,0-1.04,0-.25.01-.3,0-.36-.29-.52-3.37-2.97-6.14-6.25-7.06-.19-.06-.39-.08-.59-.09-.35-.03-.57-.06-.65-.21-.12-.21-.09-.56-.06-.89.01-.16.03-.32.03-.48,0-.79,0-1.18-.25-1.42-.24-.23-.62-.21-1.42-.18-.4.02-.56.2-.56.59,0,.29,0,.58,0,.86,0,.4,0,.82.01,1.23.01.28-.02.32-.34.38-3.34.53-6.08,2.98-6.99,6.22-.06.19-.09.4-.12.6-.04.28-.08.59-.2.67-.19.13-.55.1-.91.07-.17-.01-.33-.03-.5-.03-.75,0-1.13,0-1.36.24-.23.23-.22.6-.2,1.38,0,.14.02.34.16.48.14.13.34.14.51.14.22,0,.45,0,.67,0,.35,0,.71.02,1.07-.02.48-.05.6.05.72.58.59,3.29,3.06,5.95,6.29,6.79.17.05.35.07.53.09.26.03.53.05.61.19.11.17.07.48.04.78-.02.16-.03.31-.03.46h.21,0s.01,0,.01,0h0s-.19,0-.19,0v.18c0,.76,0,1.14.24,1.37.17.16.4.2.79.2.17,0,.37,0,.6-.02.53-.02.59-.33.58-.64,0-.23,0-.45,0-.68,0-.35.01-.71-.02-1.06-.04-.49.03-.64.6-.77Zm-.6-15.03s.07,0,.16.02c2.6.54,4.63,2.57,5.16,5.16.02.11.02.16.02.16-.01,0-.05.02-.15.02-.83,0-1.67-.01-2.5-.01s-1.67,0-2.5.01c-.14,0-.17-.02-.17-.03,0,0-.02-.03-.02-.18.01-.6.01-1.2,0-1.8v-.71h0v-.69c0-.6,0-1.21,0-1.81,0-.09,0-.13,0-.14Zm-.2,10.27h0s.21,0,.21,0v-.7c0-.6,0-1.21,0-1.81,0-.14.02-.16.02-.16,0,0,.03-.02.18-.02,1.66.01,3.35.01,5.01,0h.01c.08,0,.12.01.13,0,0,.02,0,.07-.02.17-.54,2.6-2.57,4.62-5.16,5.16-.09.02-.14.02-.15.02,0-.02-.01-.06,0-.15.01-.6.01-1.21,0-1.81v-.7h-.21Zm-7.21-2.7c.59.01,1.19,0,1.78,0h.72s.69,0,.69,0c.6,0,1.21,0,1.81,0,.14,0,.17.02.17.03,0,0,.03.03.03.18-.01,1.67,0,3.35,0,5.02,0,.08,0,.12,0,.13-.02,0-.05,0-.12,0-2.63-.52-4.68-2.56-5.22-5.18-.02-.1-.02-.15-.03-.16.02,0,.06-.01.14,0Zm5.21-4.87v.69c0,.59,0,1.17,0,1.76,0,.2,0,.2-.2.2-1.67,0-3.34,0-5.01,0-.09,0-.13,0-.14,0,0-.02,0-.07.02-.16.54-2.63,2.59-4.67,5.21-5.19.07-.01.11-.01.12-.02,0,.02,0,.06,0,.14,0,.57,0,1.14,0,1.71v.86h.21s0,0,0,0h0s-.21,0-.21,0Z"/><path class="cls-1" d="m9.72,6.24c.96.02,1.92.01,2.89.01h1.11c.73,0,1.1,0,1.33-.23.23-.23.22-.59.21-1.35,0-.33-.08-.64-.63-.64-2.24.02-4.5.02-6.74,0-.18.01-.38.02-.52.16-.14.14-.15.35-.15.52.02.8.01,1.61.01,2.41v.93s.2,0,.2,0h0s0,0,0,0h-.21v2.57c0,1.34.09,1.44,1.39,1.48h.09s.04,0,.06,0c.18,0,.38-.03.52-.16.16-.15.17-.38.17-.62,0-.75,0-1.5,0-2.25,0-.84,0-1.69-.01-2.53,0-.19.03-.24.04-.25.01-.01.06-.04.25-.04Z"/><path class="cls-1" d="m7.38,40.63c.15.15.38.18.58.18h.04c1.38-.02,2.79-.02,4.15-.02h1.58c1.44,0,1.52-.08,1.53-1.52,0-.19-.02-.4-.16-.54-.14-.14-.36-.16-.54-.16-.74,0-1.47.01-2.21,0-.85,0-1.71,0-2.56.01-.17,0-.28-.01-.32-.05-.02-.02-.05-.09-.05-.29.02-.95.02-1.91.02-2.83,0-.37,0-.74,0-1.12,0-.76,0-1.15-.24-1.37-.24-.23-.61-.22-1.39-.19-.52.02-.59.31-.59.63.01.83,0,1.65,0,2.48v.92s.2,0,.2,0h0s-.21,0-.21,0c0,.31,0,.62,0,.93,0,.75,0,1.53-.01,2.29,0,.23,0,.47.17.63Z"/><path class="cls-1" d="m43.92,4.74c0-.2-.02-.41-.16-.55-.15-.14-.36-.16-.54-.15-.79.02-1.6.02-2.39.01h-3.45c-1.39,0-1.49.09-1.51,1.44v.07c0,.17.01.4.16.55.15.15.38.17.6.17.73,0,1.46,0,2.19,0,.86,0,1.72,0,2.58-.01.2,0,.25.03.26.04.02.02.05.09.04.28-.02.96-.02,1.93-.01,2.89v1.12c0,.71,0,1.07.22,1.29.22.22.56.23,1.28.23.42,0,.72-.09.72-.66-.02-2.22-.02-4.47,0-6.69Z"/><path class="cls-1" d="m36.52,40.81c2.52-.02,4.72-.02,6.74,0h.02c.16,0,.36-.02.49-.16.14-.14.15-.34.15-.53-.01-.8-.01-1.6,0-2.41v-3.5c0-1.35-.09-1.44-1.42-1.46h-.06c-.21,0-.43.01-.58.16-.15.15-.17.37-.16.56.02.91.01,1.82.01,2.73,0,.72,0,1.45,0,2.17,0,.16-.02.19-.03.2s-.03.03-.2.03c-.98-.01-1.96-.01-2.94,0h-1.12c-.74,0-1.12,0-1.35.23-.23.23-.22.59-.2,1.35,0,.45.2.64.65.64Z"/></svg>