<?xml version="1.0" encoding="UTF-8"?><svg id="_圖層_1" xmlns="http://www.w3.org/2000/svg" viewBox="0 0 27.45 35.13"><defs><style>.cls-1{fill:#ef821d;}.cls-1,.cls-2{stroke-width:0px;}.cls-2{fill:#3d61ab;}</style></defs><g id="_组_608"><path class="cls-2" d="m23.21,23.38l.04-.03c2.56-2.42,4.04-5.69,4.18-9.2.29-5.66-2.86-10.84-8.02-13.17-.71-.33-1.45-.59-2.18-.78-.19-.07-.4-.08-.59-.03-.25.07-.45.23-.58.45-.13.22-.16.48-.09.73.15.53.63.66.88.73,1.84.51,3.54,1.46,4.94,2.76,2.31,2.16,3.64,5.09,3.75,8.24s-1.02,6.17-3.18,8.48c-2.16,2.31-5.09,3.64-8.24,3.75-3.16.11-6.17-1.02-8.48-3.18C.87,17.68.62,10.18,5.07,5.41c1.48-1.6,3.38-2.74,5.48-3.31,1.07-.29.97-1.04.91-1.26-.06-.25-.2-.43-.4-.55-.27-.15-.62-.16-1.05-.03-.45.13-.94.28-1.4.47-1.84.73-3.46,1.83-4.82,3.26-5.23,5.47-5.04,14.18.44,19.41l.06.04c.06.05.07.15,0,.24-.66,1.15-1.34,1.96-1.99,2.73-.67.8-1.37,1.63-2.04,2.81-.27.35-.27.84,0,1.19.26.33.7.45,1.07.33.68-.15,1.37-.29,2.05-.43.8-.16,1.59-.33,2.39-.5.05-.01.07-.01.08-.01,0,.01.02.04.04.09.25.71.5,1.42.75,2.13.26.73.51,1.45.76,2.16.1.36.34.66.67.84,0,0,.06.04.1.06.36.13.58-.07.58-.07.27-.18.5-.42.63-.7.71-1.26,1.44-2.15,2.15-3.02.72-.88,1.46-1.79,2.19-3.07v-.02c.74,1.28,1.48,2.19,2.2,3.07.71.87,1.44,1.77,2.15,3.03.16.3.36.54.64.72,0,0-.16-.1.06.04.27.17.56,0,.56,0l.06-.03c.32-.18.57-.49.66-.83.23-.67.47-1.34.71-2.01.27-.75.53-1.51.8-2.27.03-.08.05-.11.04-.11,0,0,.04,0,.12.01,1.09.24,2.18.46,3.27.69l1.18.24c.38.1.79-.03,1.02-.34.25-.31.28-.75.07-1.07l-.12-.22c-.67-1.19-1.35-1.98-2.01-2.75-.63-.74-1.29-1.51-1.93-2.63l-.04-.06c-.03-.05-.04-.11-.03-.17s.05-.11.1-.14Zm1.2,5.06c-.8-.16-1.59-.32-2.39-.49l-.69-.14c-.06-.02-.11-.04-.17-.05-.26-.05-.52,0-.73.15s-.36.37-.4.59l-.54,1.53c-.21.6-.42,1.2-.64,1.8-.59-.96-1.18-1.65-1.76-2.33-.58-.68-1.18-1.38-1.77-2.36.87-.11,1.73-.3,2.56-.56,1.3-.41,2.52-1.01,3.64-1.79.01,0,.03-.02.06-.04,0,0,.01.02.02.04.52.93,1.05,1.46,1.56,1.98.48.48.94.94,1.4,1.72-.05-.01-.1-.03-.15-.04Zm-12.29-1.31c-.59.97-1.18,1.67-1.76,2.34-.58.68-1.17,1.37-1.77,2.34-.22-.62-.44-1.24-.66-1.86l-.5-1.39c-.01-.07-.03-.14-.06-.21-.16-.39-.53-.62-.91-.62-.11,0-.22.02-.33.06-1.08.23-2.16.45-3.23.67.46-.73.92-1.22,1.4-1.73.51-.55,1.04-1.12,1.57-1.99,1.86,1.29,4.01,2.1,6.26,2.37Z"/><path class="cls-2" d="m13.72,0c-.39,0-.71.31-.71.7,0,0,0,0,0,0,0,.39.33.71.72.71.38-.01.69-.32.69-.71C14.43.32,14.11,0,13.72,0Z"/><g id="_路径_704"><path class="cls-1" d="m13.71,5.13c.38,0,.72.25.85.61.62,1.24,1.25,2.48,1.85,3.73.1.26.33.43.61.45,1.38.19,2.75.41,4.13.61.49,0,.89.41.89.9,0,.28-.13.54-.36.7-1.02.99-2.02,2-3.04,2.99-.17.14-.24.36-.19.57.25,1.43.49,2.85.72,4.28.07.34-.06.68-.33.89-.28.22-.67.24-.98.05-1.27-.66-2.54-1.31-3.81-1.99-.21-.13-.47-.13-.68,0-1.21.65-2.44,1.26-3.65,1.9-.33.25-.79.26-1.13.02-.32-.27-.43-.71-.3-1.1.25-1.37.45-2.74.7-4.11.04-.2-.04-.4-.2-.52-.99-.97-1.98-1.96-2.98-2.93-.34-.24-.49-.68-.37-1.08.15-.37.52-.61.92-.6,1.35-.19,2.69-.41,4.04-.6.27-.02.51-.2.61-.45.6-1.25,1.23-2.49,1.85-3.73.13-.36.46-.6.85-.61m-3.45,13.45c.93-.48,1.82-.9,2.67-1.39.48-.32,1.1-.32,1.57,0,.84.48,1.73.9,2.66,1.39-.19-1.14-.35-2.19-.54-3.24-.08-.36.03-.73.3-.98.54-.53,1.07-1.06,1.61-1.58.24-.23.5-.45.84-.75-1.21-.19-2.25-.36-3.3-.5-.43-.04-.79-.32-.95-.72-.4-.83-.82-1.66-1.24-2.48-.05-.11-.06-.26-.23-.3-.33.66-.66,1.32-.99,1.97-.83,1.64-.48,1.38-2.34,1.67-.72.11-1.43.22-2.1.33.74.77,1.47,1.54,2.21,2.3.31.28.44.7.34,1.1-.2,1.03-.34,2.08-.53,3.19"/></g></g></svg>