<?xml version="1.0" encoding="UTF-8"?><svg id="_圖層_1" xmlns="http://www.w3.org/2000/svg" viewBox="0 0 33.61 28.98"><defs><style>.cls-1{fill:#fff;stroke-width:0px;}</style></defs><g id="_组_5459"><path class="cls-1" d="m32.71,27.64h-.01s-3.93.01-3.93.01v-.16c.01-1.91,0-3.81,0-5.72V6.09c0-1.18-.56-1.72-1.73-1.72,0,0-3.22-.01-4.32,0-.19,0-.43-.01-.58-.16-.15-.15-.16-.37-.15-.58.03-.74.02-1.49,0-2.22v-.44c-.03-.29-.18-.56-.41-.74-.24-.18-.51-.27-.81-.22h-8.23c-.82,0-1.21.4-1.22,1.24-.01.74-.02,1.61,0,2.45,0,.16,0,.36-.14.5-.14.14-.34.16-.52.15-.62,0-2.64-.01-3.03-.01h-1.15c-1.47,0-1.96.5-1.96,1.99v21.3H.94c-.57,0-.94.24-.94.6v.06c.03.29.15.67.88.67h31.79c.57,0,.94-.24.94-.6v-.06c-.03-.29-.17-.67-.9-.67ZM22.17,5.9v-.02s0,0,0,0c.21-.22.38-.25.67-.22.19,0,3.53.03,3.92.03.24,0,.43.02.56.15.11.11.15.27.13.49-.03.56-.03,1.12,0,1.69,0,.14,0,.35-.13.48-.13.14-.34.15-.5.14-.48-.02-.97-.01-1.45,0h-1.21c-.47,0-.96,0-1.43.01h-.1c-.18,0-.36-.02-.49-.15-.14-.15-.14-.37-.13-.54.02-.22,0-.48-.02-.73-.04-.5-.09-1.02.18-1.34ZM12.81,1.47c.13-.13.32-.15.48-.15,2.27.02,4.55.02,6.8,0,.15,0,.34.01.47.14.12.12.14.28.14.49-.01,2.03-.02,4.04,0,6.02,0,.25-.04.41-.15.52-.14.14-.35.15-.57.14-.8-.01-1.62-.01-2.41,0h-1.87c-.77,0-1.56,0-2.35.01h-.06c-.16,0-.34-.02-.47-.15-.14-.14-.16-.34-.15-.56.02-1.8.02-3.75,0-5.95v-.02h-.01c0-.17.02-.36.15-.49Zm-6.97,4.9h.02c-.01-.16-.01-.39.13-.54.15-.15.36-.16.58-.15.46.02,3.59.01,4.08.01.19,0,.41,0,.55.15.14.14.14.35.13.5-.03.54-.03,1.08,0,1.62.02.25-.02.42-.13.52-.13.13-.31.16-.54.16h-.04c-1.37-.02-2.73-.02-4.1,0-.2,0-.41-.01-.55-.16-.14-.14-.14-.35-.13-.5.04-.54.04-1.08,0-1.62Zm10.19,21.1l-.03.02v.16h-3.33v-3.12c0-.74,0-1.5-.01-2.24,0-.18,0-.4.15-.55.13-.14.32-.14.46-.15h.11c.63.03,1.26.03,1.9,0,.2-.01.43,0,.59.14.15.15.17.39.17.57-.02,1.71-.02,3.45,0,5.16Zm4.66-2.91h-.01v3.09h-3.35v-.16c.01-1.93,0-3.62,0-5.15,0-.2.01-.43.16-.58.14-.14.33-.15.47-.15h.11c.65.03,1.32.03,1.96,0,.18,0,.39,0,.52.14.14.14.15.34.15.51-.02.76-.02,1.54-.01,2.29Zm6.77,2.92h0v.17h-5.45v-.16c.01-1.3,0-2.58,0-3.88v-1.71c0-1.24-.37-1.62-1.58-1.62h-7.46c-1.25,0-1.64.39-1.64,1.66v.78c0,1.56-.01,3.17,0,4.75v.16h-5.46v-.16c.01-5.07.01-12.45,0-16.83,0-.26.05-.42.16-.54.15-.16.39-.16.61-.16h12.55c2.44,0,4.97,0,7.44-.01.24,0,.48.02.65.18.16.16.18.42.18.66-.01,4.37-.01,11.7,0,16.69Z"/><path class="cls-1" d="m19.32,13.48c-.13,0-.26,0-.39.02-.18.01-.36.03-.43-.03-.07-.07-.05-.27-.03-.45.02-.13.02-.25.02-.37-.01-.62-.49-1.12-1.1-1.17-.35-.02-.71-.03-1.06-.01h-.1c-.66.03-1.17.59-1.15,1.25,0,.11.01.21.02.32.02.16.04.34-.02.41s-.25.04-.41.02c-.1-.02-.2-.02-.31-.02h-.09c-.32.01-.62.14-.85.37-.21.24-.33.54-.33.86v.94c-.02.65.48,1.2,1.14,1.23.27.02.54.03.8.01h.06v.07c-.01.25-.01.48,0,.73,0,.65.52,1.2,1.19,1.2h.66l-.02.03h.36c.66-.02,1.18-.56,1.18-1.22,0-.11,0-.22-.01-.33-.02-.15-.01-.3.03-.44.04-.06.18-.05.39-.03.12.02.22.02.34.02h.11c.67-.04,1.19-.61,1.16-1.28,0-.29.01-.6,0-.91.01-.66-.51-1.21-1.18-1.22Zm.79,1c-.03-.14-.11-.27-.21-.37.11.1.18.24.21.37Zm-1.79-1.81c-.01-.51-.42-.94-.93-.97.51.03.93.46.93.97Zm-2.96,3.95c-.08-.08-.17-.1-.27-.11.1,0,.2.04.27.1h0Zm.03-.76h.04c-.11-.01-.21-.01-.33-.01h-.11c-.28.03-.56-.05-.76-.25-.14-.25-.16-.55-.06-.81.02-.19.2-.31.39-.29h.74c.45.02.84-.33.86-.79.01-.18.01-.35,0-.52-.05-.18-.02-.37.07-.52.11-.13.3-.16.6-.16h.17c.15-.01.3.04.41.15.09.14.13.32.09.48-.02.17-.02.33,0,.5v.07c.03.46.43.8.89.77h.41c.57,0,.65.07.7.62v.07c.03.19-.02.4-.15.55-.15.12-.34.16-.54.12-.16-.02-.33-.02-.5,0-.41,0-.74.3-.79.7-.04.2-.05.42-.03.62.04.18.01.36-.1.51-.16.14-.36.2-.57.18h-.03c-.19.02-.4-.04-.54-.17-.12-.16-.16-.36-.12-.56.02-.21.01-.43-.03-.63-.06-.33-.35-.59-.7-.63Zm.07,1.78s.01.05.01.07c0-.02-.01-.04-.01-.06h0Zm1.83.86c.44-.01.8-.37.8-.82,0,.45-.35.82-.8.82Zm.9-1.83c.08-.1.2-.15.32-.18-.12.03-.23.09-.32.18Zm.4-.19s.05-.01.08-.01c.09,0,.18.01.27.02-.11-.03-.23-.03-.34,0Z"/></g></svg>