<?xml version="1.0" encoding="UTF-8"?><svg id="_圖層_1" xmlns="http://www.w3.org/2000/svg" xmlns:xlink="http://www.w3.org/1999/xlink" viewBox="0 0 1.38 1.39"><defs><style>.cls-1{fill:#ef821d;}.cls-1,.cls-2{stroke-width:0px;}.cls-2{fill:none;}.cls-3{clip-path:url(#clippath);}</style><clipPath id="clippath"><rect class="cls-2" width="1.38" height="1.39"/></clipPath></defs><g class="cls-3"><g id="_组_3606"><path id="_路径_8283" class="cls-1" d="m.7,1.39c-.38,0-.7-.3-.7-.69C0,.38.22.09.54.02c.1-.02.2-.02.3,0,.04,0,.07.04.06.09h0s-.05.07-.09.06h0c-.29-.06-.59.12-.65.42-.06.29.12.59.42.65.29.06.58-.12.65-.41,0-.04.04-.06.07-.07.03,0,.06.02.07.05v.05c-.06.27-.27.47-.54.52h-.13"/><path id="_路径_8284" class="cls-1" d="m.69.94s-.03,0-.05-.02c-.09-.09-.18-.18-.27-.27-.03-.03-.03-.08,0-.11.03-.03.08-.03.11,0,.07.07.14.13.2.2,0,0,.02,0,.03,0,.16-.16.31-.32.47-.47.02-.02.05-.03.08-.02.04.01.06.05.05.09,0,0,0,.02,0,.02,0,0,0,0,0,.02-.18.18-.35.35-.53.53-.02.02-.04.03-.07.03"/></g></g></svg>