<?xml version="1.0" encoding="UTF-8"?><svg id="_圖層_1" xmlns="http://www.w3.org/2000/svg" viewBox="0 0 30.91 30.71"><defs><style>.cls-1{fill:#fff;stroke-width:0px;}</style></defs><path class="cls-1" d="m30.26,9.92c-3.08-1.25-6.16-2.51-9.24-3.77q-.53-.22-.53-.79c0-.21,0-.43-.03-.64C20.13,1.81,17.51-.29,14.6.03c-1.41.16-2.67.85-3.55,1.96-.88,1.11-1.28,2.49-1.13,3.9v.04c.04.14-.05.27-.21.31-.8.31-1.6.64-2.38.96l-2.56,1.05c-1.44.59-2.88,1.18-4.3,1.76-.3.08-.49.37-.44.65.01.4.01.8,0,1.2,0,.22,0,.44,0,.66,0,.08,0,.17-.01.26-.02.27-.04.55.11.74.17.22.46.19.71.16.1-.01.21-.02.28-.02.05,0,.1,0,.16,0,0,0,.01,0,.01,0,0,0,0,.02,0,.03,0,.23,0,.45,0,.68v.28c0,.37,0,.58.15.71.15.14.38.13.69.11.17,0,.21.02.21.03.01.01.04.06.03.24,0,1.74,0,3.48,0,5.22,0,1.12,0,2.23,0,3.35,0,.1.01.2.02.31.02.19.05.39-.03.48-.07.07-.28.05-.46.02-.1-.01-.19-.02-.28-.02-.13,0-.29,0-.41.12-.11.12-.12.28-.11.38.01.2,0,.42,0,.62,0,.09,0,.19,0,.28,0,.29,0,.54-.05.59-.05.05-.31.05-.56.05-.12,0-.26.02-.36.12-.1.1-.11.25-.11.36.01.85.02,1.68,0,2.49,0,.16,0,.34.13.46.12.12.3.14.47.14,4.93,0,9.86,0,14.8,0h12.41s.7,0,.7,0c.63,0,1.25,0,1.88,0,.12,0,.26,0,.37-.11.1-.1.11-.25.11-.36-.01-.79-.01-1.63,0-2.65,0-.1-.01-.24-.11-.33-.1-.1-.23-.11-.33-.11-.08,0-.18.01-.27.02-.09.01-.34.04-.37,0-.06-.08-.04-.27-.03-.45,0-.1.02-.2.01-.29v-.04s0-.06,0-.1c0-.09,0-.2.02-.31.03-.26.06-.55-.13-.76-.2-.21-.51-.18-.78-.14-.09.01-.18.02-.27.02h0c-.06,0-.09,0-.09,0,0,0,0-.04,0-.1,0-3.15,0-6.29,0-9.44,0-.05,0-.07,0-.08.01,0,.03,0,.08,0,.07,0,.14.01.21.02.23.03.51.06.69-.13.18-.19.15-.45.12-.67,0-.09-.02-.18-.02-.25,0-.11,0-.23-.01-.34-.01-.16-.03-.37.02-.43.07-.08.28-.05.48-.03.1.01.19.03.28.03.11,0,.28,0,.39-.12.12-.11.12-.28.12-.42v-.34c-.02-.64-.03-1.3,0-1.93.07-.43-.2-.84-.63-.94Zm-.46,19.1c.02.23.05.47-.04.55-.1.09-.41.06-.66.04-.14-.01-.27-.02-.4-.02h-13.25c-4.69,0-9.43,0-14.08.01-.22,0-.24-.03-.24-.03,0,0-.02-.03,0-.18.02-.18,0-.37-.02-.55-.03-.24-.05-.49.05-.58.11-.1.43-.07.69-.04.14.01.28.03.41.03,9.1,0,18.27,0,27.25,0,.2,0,.27.02.28.04,0,0,.03.04,0,.2-.02.18,0,.36.01.54Zm-1.11-2.52v.08c-.02.26-.03.48-.07.52-.05.04-.29.04-.57.04h-12.65s-2.66,0-2.66,0c-3.44,0-6.87,0-10.31,0-.18,0-.21-.03-.21-.03,0,0-.03-.04-.02-.21v-.05c0-.31.02-.55.07-.6.06-.05.31-.05.62-.05,8.45,0,17.01,0,25.45,0,.06,0,.26,0,.3.05.01.01.05.07.04.26Zm-8.71-6.23v1.17c0,1.16,0,2.32,0,3.48,0,.14-.02.17-.02.17,0,0-.03.02-.15.01-.42-.03-.83-.02-1.29,0-.01,0-.03,0-.04,0-.04,0-.06,0-.06,0,0-.01,0-.04,0-.09,0-3.15,0-6.29,0-9.44,0-.06,0-.09,0-.09.01,0,.04,0,.09,0,.36.01.84.03,1.33,0,.02,0,.03,0,.05,0,.06,0,.08,0,.08,0,0,0,.02.03.02.16,0,1.16,0,2.32,0,3.47v1.17h.19s-.19,0-.19,0Zm-.28-6.47c.41,0,.83,0,1.25,0,.01,0,.02,0,.03,0,.07,0,.1,0,.1,0,0,0,0,.04,0,.11-.02.12-.02.24,0,.37,0,.05,0,.08,0,.08-.01,0-.04.01-.13.01-1.16-.01-2.33-.01-3.49,0-.1,0-.13-.01-.14-.01,0,0,0,0,0,0,0,0,0-.04,0-.11.02-.12.02-.25,0-.37,0-.05,0-.07,0-.08.01,0,.05-.01.13,0,.42.01.83,0,1.25,0h.5s0,0,0,0c.17,0,.34,0,.5,0Zm2.48-.09s0-.05,0-.06c.01,0,.04,0,.08,0,.48.01.91.01,1.32,0,.01,0,.03,0,.04,0,.03,0,.05,0,.05,0,0,.01,0,.04,0,.09,0,.21,0,.42,0,.63,0,.2,0,.4,0,.6,0,.13,0,.28.11.39.11.11.26.13.38.13.24,0,.51,0,.55.05.05.05.05.29.05.57v2.03c0,2.26,0,4.52,0,6.77,0,.15-.02.18-.02.18,0,0-.03.02-.18.02-.51,0-1.03-.01-1.58-.01s-1.13,0-1.75.01h-.01c-.08,0-.11,0-.11,0,0,0-.01-.03-.01-.13,0-1.17,0-2.34,0-3.51v-1.17s0-1.17,0-1.17c0-1.14,0-2.28,0-3.43,0-.16.02-.19.02-.2,0,0,.03-.02.16-.02.36.01.6.02.76-.13.15-.15.15-.36.15-.78,0-.08,0-.17,0-.25,0-.2,0-.4,0-.59Zm-19.77.15s0-.06,0-.07c.01,0,.04,0,.1,0,.43.01.87,0,1.3,0h.52s.49,0,.49,0c.4,0,.81,0,1.22,0,.01,0,.02,0,.03,0,.05,0,.07,0,.07,0,0,0,.01.04.01.11v.04c0,.17,0,.35-.02.39-.04.03-.24.03-.43.03h-.86c-.74,0-1.51,0-2.27,0-.11,0-.15-.01-.15-.01h0s-.01-.04,0-.12c.02-.12.02-.24,0-.36Zm.89,6.37h0s.19,0,.19,0v-1.18c0-1.14,0-2.28,0-3.43,0-.12.01-.15.01-.15,0,0,.03-.02.13,0,.42.03.84.03,1.25,0,.02,0,.04,0,.06,0,.07,0,.08,0,.08,0,0,0,.02.04.02.18,0,2.12,0,4.24,0,6.37v1.84c0,.11,0,.22,0,.34,0,.26,0,.52,0,.78,0,.08,0,.11,0,.11,0,0-.04,0-.1,0-.44-.02-.89-.02-1.33,0-.01,0-.03,0-.04,0-.06,0-.08-.01-.08,0,0,0-.02-.04-.01-.14,0-1.18,0-2.36,0-3.53v-1.19h-.19Zm13.04-4.88c.11.11.26.13.39.13.25,0,.51,0,.56.05.05.05.05.29.05.56v1.99c0,2.27,0,4.54,0,6.81,0,.16-.02.18-.02.18s-.03.02-.18.02c-1.04-.02-2.15-.02-3.38,0h-.01c-.08,0-.11,0-.11,0,0,0-.01-.04-.01-.14,0-1.18,0-2.36,0-3.54v-1.18h-.19s0,0,0,0h.19v-1.18c0-1.13,0-2.25,0-3.38,0-.16.02-.19.02-.19,0,0,.03-.02.17-.02.37.01.6.02.75-.13.15-.14.15-.36.15-.75,0-.09,0-.17,0-.26,0-.2,0-.41,0-.62,0-.03,0-.05,0-.06.01,0,.04,0,.08,0,.45.01.92.01,1.4,0,.02,0,.04,0,.05,0,0,.01,0,.03,0,.05,0,.19,0,.39,0,.59,0,.23,0,.45,0,.68,0,.12,0,.28.11.39Zm-3.82,4.92v1.19c0,1.15,0,2.3,0,3.45,0,.14-.01.18-.02.18,0,0-.03.02-.15,0-.43-.02-.86-.02-1.29,0-.02,0-.03,0-.05,0-.03,0-.04,0-.05,0,0-.01,0-.04,0-.09,0-3.14,0-6.33,0-9.47,0-.04,0-.06,0-.07.01,0,.04,0,.08,0,.47.01.89.02,1.32,0,.02,0,.03,0,.05,0,.06,0,.08,0,.08,0,0,0,.02.04.02.16,0,1.15,0,2.31,0,3.46v1.17h.19s0,0,0,0h-.19Zm-5.29-6.07c-.02-.21-.05-.45.04-.54.09-.09.32-.06.54-.04.12.01.24.03.36.03.25,0,.51,0,.56.04.05.04.05.3.05.57v.08c0,.08,0,.17-.02.26-.02.25-.05.5.09.7.18.26.5.21.76.18.08-.01.15-.02.22-.02.03,0,.05,0,.06,0,0,.02,0,.06,0,.08,0,.03,0,.06,0,.1v6.91c0,.8,0,1.6,0,2.4,0,.09-.01.12,0,.12,0,0-.03.02-.13.01-1.15-.02-2.31-.02-3.45,0-.08,0-.11,0-.12,0,0,0,0,0,0,0,0,0-.01-.04-.01-.14,0-1.18,0-2.36,0-3.54v-1.18s0-1.19,0-1.19c0-1.12,0-2.25,0-3.37,0-.16.02-.19.02-.19,0,0,.03-.02.17-.02.38.01.61.02.76-.13.15-.14.15-.36.16-.78,0-.12-.01-.24-.03-.36Zm5.05-.4c.4,0,.81,0,1.22,0,.01,0,.02,0,.03,0,.05,0,.08,0,.08,0,0,0,.01.04.01.14v.03c0,.17,0,.34-.02.37-.04.02-.23.02-.42.02h-.87c-.74,0-1.51,0-2.27,0,0,0-.02,0-.02,0-.13,0-.15-.02-.15-.02,0,0-.02-.03,0-.14.02-.12.02-.25,0-.37,0-.02,0-.03,0-.04.02,0,.04,0,.09,0,.44,0,.88,0,1.32,0h.51v-.19h0s0,.19,0,.19c.17,0,.33,0,.5,0Zm15.16,8.03v.83c0,.77,0,1.54,0,2.31,0,.09,0,.12,0,.12,0,0-.04,0-.1,0-.44-.02-.88-.02-1.33,0-.08,0-.11,0-.12,0,0,0,0,0,0,0,0,0-.02-.04-.01-.14,0-1.18,0-2.36,0-3.54v-1.18s0-1.18,0-1.18c0-1.14,0-2.28,0-3.42,0-.13.02-.16.01-.16,0,0,.03-.01.13,0,.42.03.84.03,1.25,0,.02,0,.04,0,.06,0,.08,0,.09,0,.09,0,0,0,.02.03.02.17-.01,1.56,0,3.12,0,4.68v1.51Zm-.25-8.03c.4,0,.81,0,1.21,0,.01,0,.02,0,.03,0,.07,0,.09,0,.1,0,0,0,0,.04,0,.11-.02.11-.02.22,0,.33.01.08,0,.11,0,.11,0,0-.04.02-.16.02-1.21-.02-2.33-.02-3.4,0,0,0-.01,0-.02,0-.13,0-.15-.02-.15-.02,0,0-.01-.03,0-.14.02-.12.02-.25,0-.37,0-.02,0-.04,0-.05.01,0,.04,0,.08,0,.43,0,.87,0,1.31,0h.52v-.19h0v.19c.17,0,.33,0,.5,0Zm-9.02-5.37c-.79.8-1.85,1.23-2.97,1.24-1.14,0-2.2-.45-2.98-1.25-.78-.8-1.21-1.9-1.2-3.08v-.09c.04-2.29,1.91-4.12,4.19-4.12.02,0,.05,0,.07,0,1.12.02,2.16.47,2.94,1.28.78.8,1.2,1.86,1.18,2.98v.06c0,1.12-.43,2.18-1.23,2.98ZM1.35,12.55h0c-.18,0-.21-.02-.22-.03,0,0-.02-.03,0-.17.01-.17.01-.33,0-.48,0-.13,0-.26-.02-.39-.02-.22-.04-.43.04-.55.09-.12.32-.19.53-.26.11-.03.21-.07.31-.11l2.16-.88c1.94-.79,3.96-1.61,5.93-2.43.07-.03.11-.03.11-.04.01.02.04.07.05.11l.02.06c1.01,2.43,3.22,3.69,5.75,3.31,2.06-.32,3.47-1.52,4.22-3.57.02-.05.03-.08.04-.1.03,0,.08.03.11.04,3.01,1.24,6.06,2.48,9.08,3.7.29.12.36.22.34.5-.03.42-.03.84,0,1.24,0,.01,0,.02,0,.03,0,0-.02,0-.03,0-.1,0-.2,0-.29,0h-14.04v.19h0s0-.19,0-.19c-4.69,0-9.42,0-14.08,0Z"/><path class="cls-1" d="m16.15,5.1c-.14-.06-.28-.1-.42-.14-.06-.02-.11-.03-.18-.05-.3-.07-.6-.17-.89-.28-.05-.02-.09-.05-.12-.09-.03-.05-.04-.11-.03-.17.01-.06.05-.11.11-.15.06-.04.12-.07.18-.1.43-.17.92.04,1.09.45.12.38.42.33.56.32.03,0,.06,0,.09,0,.16,0,.25-.06.29-.11.1-.12.07-.29.04-.38v-.04c-.09-.53-.49-.98-1-1.12-.19-.06-.18-.09-.17-.18.02-.14,0-.25-.08-.33-.12-.13-.29-.12-.42-.11-.02,0-.04,0-.07,0-.1,0-.25-.01-.35.1-.07.07-.1.18-.08.31q.01.1-.17.16c-.57.12-.99.62-1.04,1.2-.02.4.14.94.96,1.23.22.08.45.14.67.21.2.06.4.11.63.19.06,0,.11.04.14.09.03.05.05.11.04.16-.01.06-.04.11-.09.14l-.02.02c-.16.16-.47.22-.77.16-.28-.06-.5-.21-.58-.41-.07-.16-.19-.37-.51-.33-.18-.03-.31,0-.4.1-.15.16-.08.42-.05.5.14.52.54.92,1.07,1.07.04.01.11.03.12.04,0,0,0,.01,0,.04-.02.11.01.22.08.29.07.07.17.1.28.09.04,0,.09,0,.13,0,.04,0,.09,0,.13,0,.09,0,.17-.01.24-.08.05-.05.08-.11.08-.18,0-.17.05-.19.25-.24.08-.02.16-.04.23-.07.5-.21.81-.69.8-1.22.02-.51-.33-.97-.8-1.09Zm-2.18.93h0,0s0,0,0,0Z"/></svg>