<?xml version="1.0" encoding="UTF-8"?><svg id="_圖層_1" xmlns="http://www.w3.org/2000/svg" viewBox="0 0 27.5 17.78"><defs><style>.cls-1{fill:#fff;stroke-width:0px;}</style></defs><g id="_组_5080"><path id="_路径_10813" class="cls-1" d="m15.4,4.23q-.45.2-.25.64t.62.25.25-.64c-.19-.44-.19-.43-.62-.25"/><path id="_路径_10814" class="cls-1" d="m18.85,2.7q-.42.19-.24.6t.65.26.24-.6-.65-.26"/><path id="_路径_10815" class="cls-1" d="m10.19,6.53q-.43.19-.24.62t.63.25.24-.62-.63-.25"/><path id="_路径_10816" class="cls-1" d="m11.92,5.77q-.43.19-.24.62t.64.25.24-.62-.64-.25"/><path id="_路径_10817" class="cls-1" d="m8.43,7.3q-.41.18-.23.6t.65.25.23-.6-.65-.25"/><path id="_路径_10818" class="cls-1" d="m13.67,4.99q-.43.19-.24.64t.62.24c.43-.19.43-.19.25-.61v-.02q-.2-.43-.63-.24"/><path id="_路径_10819" class="cls-1" d="m17.15,3.45q-.46.2-.26.65t.62.23c.43-.19.43-.19.24-.61q-.2-.45-.61-.27"/><path id="_路径_10820" class="cls-1" d="m20.63,1.92q-.47.21-.27.67t.6.23.25-.65-.58-.24"/><path id="_路径_10821" class="cls-1" d="m26.6.92c-.97-.55-1.82-.83-2.83-.38-.28.13-.6.15-.89.06-.59-.18-1.2-.31-1.8-.49-.29-.12-.6-.14-.91-.07l-.15.07s-1.88.83-1.88.83c-.04.02-.08.05-.12.07-1.4.63-2.81,1.24-4.22,1.86-1.69.75-3.38,1.49-5.07,2.24-.06.03-.11.04-.17.06l-1.76.78s0,0,0,.01c-.33.15-.66.28-.97.44-.14.09-.34.07-.45-.06-.78-.66-1.56-1.3-2.34-1.95-.13-.15-.35-.21-.54-.15-.74.32-1.48.64-2.2.97-.24.1-.35.37-.25.61.02.06.06.11.1.15.19.23.39.46.59.69.4.47.81.95,1.22,1.44-.07.03-.11.05-.15.06-.49.22-.56.4-.34.89.21.47.42.95.63,1.42.09.22.22.43.37.62.75.9,1.8,1.14,2.89.67.75-.32,1.49-.65,2.23-.98.11-.05.23-.07.35-.06,1.34.13,2.68.25,4.01.37.15.01.19.06.23.21.41,1.97.83,3.93,1.24,5.89.12.58.37.71.9.48.89-.39,1.76-.79,2.66-1.17.31-.1.51-.4.48-.73.05-2.19.11-4.39.16-6.58-.01-.15.08-.3.23-.34,2.67-1.17,5.34-2.37,8.02-3.53,1.12-.47,1.78-1.63,1.62-2.83-.01-.07-.17-1.17-.87-1.57M1.4,5.74c.34-.14.68-.29,1.02-.45.09-.05.21-.03.28.05.99.82,1.97,1.64,2.96,2.45.17.14.1.18-.05.24-.27.11-.54.24-.81.35-.28.12-.55.24-.83.37-.1.05-.17.06-.26-.04-.78-.93-1.57-1.85-2.37-2.77-.09-.1-.07-.15.05-.2m15.28,2.61c-.06,2.35-.12,4.7-.18,7.05.02.17-.08.33-.25.38-.61.25-1.21.52-1.8.79-.15.07-.2.05-.24-.12-.53-2.54-1.07-5.08-1.61-7.61-.04-.19-.01-.28.18-.36,1.3-.56,2.59-1.14,3.93-1.73-.01.56-.03,1.08-.04,1.6m9.85-5.77c.14.79-.27,1.51-1.06,1.87-1.72.76-3.44,1.53-5.17,2.28-.81.36-1.63.71-2.44,1.08-.19.09-.22.04-.21-.15.02-.52.03-1.03.04-1.55,0-.48-.31-.69-.75-.49-1.67.73-3.34,1.47-5,2.21-.34.15-.43.31-.36.67.09.47.19.93.29,1.39.01.07.02.15.04.24-1.21-.11-2.41-.2-3.6-.34-.47-.06-.95.02-1.37.23-.64.31-1.31.59-1.97.87-.7.36-1.57.09-1.93-.61-.02-.04-.04-.08-.06-.13-.17-.36-.32-.73-.48-1.09-.02-.06-.1-.12-.01-.18s.14,0,.19.06c.18.22.37.43.55.65.25.29.41.33.75.19.95-.42,1.9-.83,2.85-1.26.44-.2.49-.58.13-.89-.18-.15-.35-.3-.57-.47.1-.04.17-.08.25-.11,4.54-2.01,9.09-4.02,13.63-6.03.14-.07.3-.08.44-.04.79.22,1.59.42,2.38.64.22.07.47.05.68-.06.37-.17.74-.37,1.18-.35.78.02,1.44.59,1.58,1.35"/></g></svg>