<?xml version="1.0" encoding="UTF-8"?><svg id="_圖層_1" xmlns="http://www.w3.org/2000/svg" viewBox="0 0 52.01 45.72"><defs><style>.cls-1{fill:#fff;stroke-width:0px;}</style></defs><g id="_组_5497"><g id="_路径_10569"><path class="cls-1" d="m9.64,17.88c-.09,0-.19-.01-.28-.03-.41-.08-.77-.34-.97-.7-.21-.4-.22-.86-.05-1.28,2.51-6.4,8.3-10.93,15.12-11.83.09-.01.18-.03.27-.06.06-.02.13-.03.23-.06l.36-.08-.28-.24c-.1-.09-.19-.17-.28-.24-.14-.11-.27-.23-.39-.36-.51-.56-.48-1.42.07-1.94.26-.26.62-.41.99-.41.34,0,.67.13.92.37,1.13,1.09,2.25,2.21,3.32,3.31.52.53.51,1.38-.02,1.9-.02.01-.03.03-.05.04-.93.95-1.93,1.95-3.14,3.15-.28.29-.65.45-1.05.46-.33,0-.65-.12-.9-.35-.59-.51-.66-1.39-.15-1.98,0,0,.01-.02.02-.02.11-.1.15-.25.1-.38l-.03-.09-.09-.03c-.11-.04-.23-.06-.35-.06-.21,0-.42.05-.62.12-.06.02-.12.04-.18.05-5.06,1.19-9.22,4.77-11.15,9.58-.19.64-.74,1.1-1.4,1.16"/></g><g id="_路径_10570"><path class="cls-1" d="m43.61,25.88c-.38,0-.74-.16-1-.43-.97-.95-1.98-1.96-3.18-3.17-.56-.52-.6-1.39-.09-1.95.25-.3.63-.47,1.02-.48.34,0,.66.12.93.32.01,0,.02.02.03.03.07.08.17.13.28.13.05,0,.1-.01.15-.03l.09-.03.03-.09c.07-.32.04-.65-.08-.96-.02-.06-.04-.12-.05-.19-1.2-5.07-4.79-9.24-9.63-11.16-.75-.2-1.23-.94-1.08-1.71.14-.64.72-1.1,1.38-1.09.2,0,.41.04.6.12,6.4,2.5,10.94,8.29,11.83,15.1.01.08.02.15.04.21,0,.03.02.07.04.14.01.04.03.1.06.17l.11.33.22-.26c.07-.09.14-.17.2-.24.1-.13.21-.26.33-.38.27-.26.62-.4.99-.41.78,0,1.4.64,1.39,1.42,0,.35-.14.68-.37.94-1.08,1.12-2.18,2.22-3.28,3.28-.25.25-.59.39-.94.39"/></g><g id="_路径_10571"><path class="cls-1" d="m19.64,40.64c-.22,0-.44-.05-.64-.13-6.38-2.51-10.9-8.28-11.8-15.08-.01-.09-.03-.18-.05-.27-.01-.05-.04-.1-.06-.14-.02-.03-.04-.08-.07-.14l-.13-.27-.19.23c-.07.08-.13.16-.19.24-.1.14-.21.27-.33.39-.26.24-.6.38-.96.38-.37,0-.73-.15-.99-.42-.54-.53-.56-1.39-.04-1.94,1.04-1.07,2.14-2.18,3.28-3.28.52-.53,1.37-.53,1.89-.01,0,0,0,0,.01.01,1.13,1.09,2.23,2.19,3.28,3.28.53.57.49,1.46-.08,1.98-.26.24-.59.37-.94.37-.36,0-.7-.14-.97-.37-.05-.05-.1-.09-.18-.17l-.17-.16-.42-.4.1.57c.68,4.48,3.22,8.46,6.99,10.97.98.65,2.02,1.2,3.12,1.63.7.25,1.07,1.01.84,1.72-.17.59-.7.99-1.31.99"/></g><g id="_路径_10572"><path class="cls-1" d="m27.6,45.06c-.34,0-.67-.13-.91-.37-1.08-1.04-2.19-2.15-3.32-3.31-.52-.52-.52-1.36,0-1.88,0,0,.02-.02.02-.02,1.06-1.09,2.15-2.18,3.25-3.25.26-.25.61-.4.97-.4.78,0,1.41.65,1.41,1.43,0,.32-.12.64-.32.89,0,0-.02.01-.04.02-.09.05-.16.13-.19.23-.02.09,0,.18.06.25.06.1.16.16.28.16.08,0,.15-.02.22-.06.02,0,.03-.02.05-.02,3.52-.64,6.72-2.46,9.08-5.16,1.23-1.41,2.22-3.01,2.91-4.75.19-.57.72-.97,1.33-.99.12,0,.24.02.35.05.4.1.73.36.92.73.19.39.2.83.03,1.23-1.21,3.1-3.22,5.82-5.83,7.89-2.67,2.14-5.88,3.51-9.28,3.94-.08.01-.16.03-.27.06-.07.02-.15.03-.25.06l-.37.08.29.25c.11.09.2.17.29.24.14.11.28.22.4.35.51.56.49,1.42-.06,1.94-.26.26-.62.41-1,.41"/></g><g id="_路径_10573"><path class="cls-1" d="m24.6,30.11c-.47,0-.91-.2-1.21-.56l-3.58-4.19c-.57-.67-.49-1.68.18-2.25.67-.57,1.68-.49,2.25.18l2.31,2.71,6.42-8.21c.54-.69,1.54-.81,2.24-.27.69.54.82,1.54.27,2.24l-7.62,9.75c-.29.38-.74.6-1.22.61-.01,0-.02,0-.03,0Z"/></g></g></svg>