<?xml version="1.0" encoding="UTF-8"?><svg id="_圖層_1" xmlns="http://www.w3.org/2000/svg" viewBox="0 0 52.01 45.72"><defs><style>.cls-1{fill:#fff;stroke-width:0px;}</style></defs><path class="cls-1" d="m49.2,2.48H2.84C1.57,2.48.06,3.02.06,5.6v18.62c-.01.23,0,.47.02.72.15.77.62,1.21,1.29,1.22h.02c.66,0,1.13-.43,1.29-1.21.03-.26.04-.52.03-.77v-2.54c0-2.34,0-4.69,0-7.03,0-.27.01-.46.09-.54.05-.05.18-.08.37-.08,4.12.04,8.31.04,12.43,0,.2,0,.33.03.38.08.08.08.09.32.09.52-.02,8.32-.02,16.76,0,25.07,0,.22-.01.45-.09.53-.05.05-.18.09-.37.07-4.12-.03-8.31-.03-12.43,0-.21,0-.33-.03-.39-.08-.08-.08-.09-.32-.08-.5.03-2.83.02-5.71.01-8.49v-.58c0-.68-.26-1.26-.69-1.53-.33-.21-.73-.23-1.13-.05-.6.31-.93.97-.83,1.6,0,.78,0,1.56.01,2.34.02,2.23.03,4.54-.03,6.8-.04,1.14.26,2.05.84,2.65.52.53,1.24.8,2.15.8h.05c5.58-.05,11.26-.04,16.75-.03,2.07,0,4.14,0,6.21,0h23.11c1.93,0,2.83-1.02,2.83-3.21V5.61c0-2.58-1.51-3.12-2.78-3.12ZM2.69,5.94c0-.1-.01-.39.07-.47.05-.05.16-.07.34-.07,0,0,.02,0,.02,0,2.52.02,5.09.02,7.57.02h2.61c11.82,0,23.64,0,35.46-.02.26,0,.42.03.49.11.08.08.11.27.1.6-.05,1.38-.05,2.84,0,4.47,0,.09.01.38-.07.46-.05.05-.16.07-.36.07h-.01c-6.13-.02-12.25-.02-18.38-.02h-4.51s-4.62,0-4.62,0c-6.07,0-12.13,0-18.2.02h-.09c-.18,0-.29-.03-.34-.08-.06-.07-.09-.24-.08-.52.05-1.38.05-2.87,0-4.55Zm46.66,33.75c0,.2,0,.43-.09.51-.05.05-.19.07-.38.07h0c-3.79-.02-7.57-.02-11.36-.02h-3.53s-3.51,0-3.51,0c-3.71,0-7.54,0-11.31.02-.22,0-.36-.03-.41-.08-.08-.08-.09-.33-.09-.54.02-8.32.02-16.75,0-25.06,0-.18,0-.43.09-.51.05-.05.18-.08.38-.08h0c9.88.02,19.9.02,29.78,0,.19,0,.31.02.35.07.07.07.08.28.08.48-.02,8.34-.02,16.8,0,25.15Z"/><path class="cls-1" d="m7.19,20.75c.36,0,.73,0,1.09,0h1.08s1.08,0,1.08,0c.73,0,1.46,0,2.18,0,.91,0,1.51-.51,1.53-1.28.01-.35-.11-.67-.34-.91-.28-.29-.7-.45-1.2-.45h-.11c-2.14-.01-4.27-.01-6.38,0-.36-.04-.72.06-1,.28-.28.23-.46.55-.51.91,0,.05,0,.09,0,.14,0,.77.61,1.29,1.51,1.3.36,0,.73,0,1.09,0Z"/><path class="cls-1" d="m4.98,36.4c.25.26.6.4.96.4h0s.09,0,.12,0c1.07,0,2.16.01,3.23.01s2.24,0,3.34-.01c.71.08,1.36-.41,1.49-1.11h.03v-.23c0-.77-.61-1.29-1.51-1.3-.73,0-1.46,0-2.18,0h-1.08s-1.08,0-1.08,0c-.73,0-1.45,0-2.18,0-.9,0-1.5.51-1.53,1.28,0,.36.14.7.39.96Z"/><path class="cls-1" d="m5.57,28.73l-.02.03h.25s0,.01.01.01h0s.06,0,.1,0h.04c.19,0,.38.01.56.01s.37,0,.56,0c.18,0,.37,0,.55,0h1.65c.71.05,1.37-.54,1.4-1.28v-.08c0-.35-.15-.68-.41-.92-.26-.24-.59-.35-.96-.36-1.11-.02-2.23-.02-3.31,0-.35-.03-.69.09-.96.32-.27.23-.43.55-.45.9-.05.64.38,1.21.98,1.37Z"/></svg>