<?xml version="1.0" encoding="UTF-8"?><svg id="_圖層_1" xmlns="http://www.w3.org/2000/svg" viewBox="0 0 52.01 45.72"><defs><style>.cls-1{fill:#fff;stroke-width:0px;}</style></defs><path class="cls-1" d="m45.32,21.54c.28-.58-.1-1.02-.31-1.26-4.48-5.24-8.96-10.49-13.44-15.74-.35-.41-.64-.6-.94-.6h0c-.3,0-.58.18-.93.58-.67.78-1.34,1.56-2.01,2.35l-.74.86-1.17-1.37c-1.54-1.81-3.07-3.6-4.6-5.39-.43-.51-.76-.8-1.13-.8h0c-.37,0-.69.3-1.1.77-3.34,3.92-6.68,7.83-10,11.71-.37.3-.5.81-.31,1.25.23.48.66.55,1.08.55.41,0,.82,0,1.23,0,.82,0,1.65,0,2.48,0,.18,0,.24.02.25.03,0,0,.04.05.04.23-.01,2.86-.01,5.76,0,8.63,0,.25-.04.27-.24.3-1.1.13-2.2.37-3.24.7-1.06.26-2.07.77-2.9,1.47-.12.1-.23.21-.33.33-.33.42-.47.94-.41,1.46s.33,1,.73,1.32c.5.45,1.08.8,1.71,1.04,2.22.83,4.55,1.32,6.91,1.46,2.2.2,4.44.24,6.64.11,2.43-.09,4.84-.45,7.17-1.09,1.14-.26,2.2-.81,3.07-1.59.06-.06.13-.11.18-.18.35-.39.53-.88.51-1.4-.02-.52-.25-1-.63-1.34-.38-.39-.83-.7-1.33-.92-1.55-.71-3.2-1.17-4.89-1.36-.25-.04-.29-.06-.29-.3.02-2.86.02-5.76,0-8.63,0-.18.03-.22.03-.23.02-.02.08-.04.25-.03.53,0,1.05.01,1.58.01.71,0,1.43,0,2.09,0,.46.08.93-.17,1.14-.59.24-.54-.11-.93-.31-1.17-.95-1.11-1.9-2.22-2.84-3.33-.03-.03-.06-.06-.1-.09-.02-.02-.06-.05-.06-.04,0,0,0-.02.03-.04.73-.84,1.44-1.68,2.17-2.54l.25-.29,11.81,13.83s-.1,0-.16-.01h-4.29c-.9,0-1.24.34-1.24,1.25v15.68c-.01.2,0,.4.06.59.11.4.46.66.86.66.02,0,.04,0,.06,0,.4,0,.77-.27.87-.66.06-.21.08-.43.06-.63,0-4.92,0-9.84,0-14.77,0-.18.02-.2.02-.21,0,0,.03-.03.19-.03,1.04.01,2.08,0,3.12.01.73,0,1.46,0,2.19,0,.33,0,.87,0,1.13-.54Zm-30.29,5.32h10.18c.34,0,.72-.03.95-.27.18-.18.25-.45.23-.89,0-.13,0-.18,0-.18.02,0,.08,0,.24.02,1.29.2,2.56.54,3.78,1.01.33.13.64.3.92.51.24.19.28.28.28.32,0,.04-.04.13-.27.29-.77.5-1.62.85-2.52,1.05-2.86.71-5.81,1.04-8.76.98v.13s0-.13,0-.13c-3.08.07-6.15-.29-9.13-1.08-.66-.18-1.29-.43-1.88-.75-.47-.27-.55-.42-.55-.49,0-.07.07-.22.55-.5.82-.44,1.7-.77,2.62-.96.39-.1.79-.17,1.18-.25.25-.05.51-.1.76-.15.05-.01.08-.01.09-.02,0,.02,0,.05.01.12.03,1.04.25,1.26,1.32,1.26Zm9.48-13.08v9.89c0,.14,0,.29-.02.43-.01.23-.03.47,0,.71,0,.12-.01.15-.01.15-.03.02-.18.02-.23.02h-5.77c-.89,0-1.77,0-2.66.01-.18,0-.21-.02-.22-.03,0,0-.03-.05-.03-.23.01-2.72,0-5.43,0-8.15v-2.72c0-1.03-.29-1.32-1.35-1.32h-2.68c.58-.68,1.12-1.31,1.66-1.94,2.25-2.62,4.49-5.25,6.73-7.89.07-.08.11-.11.1-.12.01,0,.05.04.12.11,2,2.36,4.01,4.73,6.02,7.08.56.66,1.13,1.32,1.72,1.99l.65.75h-2.81c-.91,0-1.23.33-1.23,1.24Zm2.43-5.73h0s0,0,0,0h0Z"/><path class="cls-1" d="m32.61,38.55s-.01,0-.02,0h-.06c-.24,0-.47.11-.63.29-.17.18-.25.41-.24.64-.03.49-.03.99,0,1.49.03.28-.12.55-.38.69-.67.4-1.38.7-2.13.89-2.89.76-5.88,1.13-8.87,1.08v.2h0v-.2c-2.88.05-5.76-.25-8.57-.89-1.01-.21-1.97-.58-2.88-1.1-.24-.12-.38-.37-.36-.65.03-.43.02-.86.01-1.28v-.18s0-.06,0-.09c0-.25-.11-.48-.29-.65-.18-.17-.41-.26-.71-.25-.5.03-.89.45-.87.94,0,.22,0,.45,0,.67,0,.31,0,.62,0,.93-.04.71.27,1.39.83,1.82.81.65,1.73,1.12,2.74,1.38,2.13.62,4.33.99,6.53,1.09,1.15.1,2.3.14,3.44.14,2.82,0,5.64-.29,8.41-.86,1.37-.24,2.66-.75,3.82-1.51.63-.36,1.05-1,1.13-1.73.04-.65.02-1.31,0-1.99-.01-.5-.42-.9-.91-.9Z"/><path class="cls-1" d="m7.66,36.07c.79.55,1.66.96,2.6,1.21,2.26.64,4.59,1,6.93,1.1,1,.07,2,.11,3,.11,2.91,0,5.8-.31,8.65-.92,1.33-.24,2.61-.79,3.71-1.57.66-.45,1.03-1.22.98-2.02-.02-.32-.01-.65,0-.96,0-.15,0-.29,0-.44,0-.66-.37-1.08-.94-1.08s-.92.4-.93,1.08c-.02.43-.02.87,0,1.3.04.31-.13.62-.43.76-.58.35-1.21.62-1.86.8-3.04.81-6.17,1.21-9.32,1.16-.07,0-.13,0-.19,0-2.69,0-5.38-.29-8.01-.87-1.03-.21-2.01-.58-2.94-1.09-.29-.13-.46-.42-.43-.75.03-.48.03-.96,0-1.45,0-.51-.4-.92-.89-.93-.04,0-.09,0-.13,0-.24.02-.46.13-.62.31-.16.18-.24.41-.22.64,0,.2,0,.41,0,.61,0,.29,0,.6-.01.89-.06.85.35,1.67,1.07,2.12Z"/><path class="cls-1" d="m44.47,25.66c-.56.01-.92.41-.92,1.05v2.83h0v.94c0,.63,0,1.26,0,1.86,0,.07,0,.14,0,.2.05.48.46.85.93.85.03,0,.06,0,.09,0,.51-.05.89-.51.84-1.01,0-1.9,0-3.8,0-5.7,0-.32-.1-.59-.28-.77-.17-.17-.4-.25-.67-.24Z"/><path class="cls-1" d="m8.76,18.62h0s0,0,0,0h-.2c0,.12,0,.23,0,.35,0,.24,0,.48,0,.72,0,.51.42.92.93.92h.01c.51,0,.92-.43.92-.93.01-.69.01-1.41,0-2.13,0-.03,0-.05,0-.08-.01-.24-.12-.46-.3-.62-.18-.16-.41-.23-.63-.23-.03,0-.05,0-.08,0-.24.01-.46.12-.62.3s-.24.41-.23.63c0,.24,0,.48,0,.72v.35h.2Z"/></svg>