<?xml version="1.0" encoding="UTF-8"?><svg id="_圖層_1" xmlns="http://www.w3.org/2000/svg" viewBox="0 0 43.63 43.65"><defs><style>.cls-1{fill:#fff;stroke-width:0px;}</style></defs><g id="Icon_call_outline"><path id="Shape" class="cls-1" d="m31.73,43.63c-3.25.17-6.5-.44-9.48-1.77-3.26-1.52-6.81-4.3-11.5-9.01-3.72-3.47-6.77-7.59-9.01-12.16C.52,17.9-.07,14.88,0,11.84c-.05-1.76.28-3.52.95-5.15.86-1.87,2.07-3.56,3.57-4.97C5.73.59,7.32-.03,8.97,0h.28c1.69.04,3.31.71,4.54,1.88l4.68,4.48.03.03c1.19,1.26,1.83,2.93,1.8,4.65.03,1.73-.62,3.4-1.8,4.65l-2.28,2.28c.72,2.17,1.95,4.14,3.59,5.74,1.59,1.68,3.57,2.93,5.76,3.64l2.28-2.28c2.63-2.41,6.67-2.41,9.31,0l4.67,4.67c2.4,2.64,2.4,6.67,0,9.32-2.7,2.7-6.29,4.31-10.1,4.54ZM8.97,4.36c-.49-.03-.97.13-1.35.44-1.1,1.02-2,2.24-2.65,3.6-.44,1.09-.65,2.26-.6,3.43-.08,2.44.39,4.87,1.37,7.11,2.02,4.07,4.76,7.74,8.1,10.82,4.32,4.32,7.48,6.83,10.26,8.14,2.4,1.05,5.01,1.51,7.63,1.35,2.64-.24,5.12-1.39,7.01-3.25.7-.93.7-2.22,0-3.15l-4.67-4.67c-.92-.7-2.21-.7-3.13,0l-3.11,3.11c-.48.49-1.17.72-1.85.62-3.55-.68-6.79-2.47-9.26-5.11-2.6-2.47-4.35-5.7-5.03-9.22-.1-.68.13-1.36.62-1.85l3.11-3.11c.37-.44.56-1.01.52-1.58.03-.57-.16-1.12-.52-1.56l-4.67-4.47-.03-.03c-.45-.4-1.03-.62-1.64-.62h-.12Z"/></g></svg>