<?xml version="1.0" encoding="UTF-8"?><svg id="_圖層_1" xmlns="http://www.w3.org/2000/svg" viewBox="0 0 34.59 34.63"><defs><style>.cls-1{fill:#fff;stroke-width:0px;}</style></defs><path class="cls-1" d="m25.66,13.23v-2.95c0-1.72,0-3.44,0-5.16.02-.23-.11-.46-.33-.55-2.58-1.48-5.16-2.97-7.74-4.47-.18-.13-.42-.13-.6,0-1.49.87-2.98,1.72-4.47,2.58-.44.26-2.24,1.31-2.61,1.51-.21.11-.4.25-.62.35-.26.1-.42.36-.38.64.01,2.93.01,5.86,0,8.79-.03.27.12.53.37.65,2.55,1.46,5.1,2.93,7.64,4.41.22.15.52.15.74-.01,2.31-1.35,4.61-2.72,6.97-4,.78-.42,1.19-.88,1.02-1.78Zm-2.29-.68c.02.33-.16.65-.46.8-1.7.97-3.39,1.95-5.08,2.94-.31.21-.71.22-1.02,0-1.7-.99-3.41-1.98-5.11-2.95-.29-.14-.47-.44-.45-.76v-5.99c-.02-.29.13-.57.4-.71,1.76-1.01,3.52-2.03,5.28-3.05.24-.15.54-.15.78,0,1.75,1.02,3.5,2.03,5.25,3.03.27.14.44.43.41.74,0,1,0,2,0,3h0c0,.99-.01,1.97,0,2.96Z"/><path class="cls-1" d="m16.42,20.05c-2.6-1.49-5.19-2.98-7.77-4.49-.17-.12-.39-.12-.56,0-2.6,1.51-5.2,3.01-7.81,4.5-.19.09-.3.29-.27.5,0,1.5,0,3,0,4.49h0c0,1.5,0,2.99,0,4.49-.02.21.09.41.28.49,2.6,1.48,5.19,2.98,7.77,4.49.19.13.45.13.64-.01,2.57-1.5,5.15-2.99,7.74-4.47.2-.09.32-.31.3-.53,0-2.98,0-5.97,0-8.95.02-.22-.1-.43-.31-.52Zm-2.49,8.78c-1.7.97-3.39,1.94-5.08,2.93-.3.2-.69.2-.99,0-1.69-.99-3.38-1.97-5.08-2.93-.33-.16-.52-.5-.49-.86.01-1.96.01-3.92,0-5.88-.03-.33.15-.65.45-.8,1.72-.98,3.44-1.97,5.15-2.97.28-.19.64-.19.92,0,1.71,1,3.43,1.99,5.15,2.97.3.15.48.47.45.8,0,.99,0,1.97,0,2.96h0c0,.98-.01,1.97,0,2.95.03.35-.16.67-.48.82Z"/><path class="cls-1" d="m34.58,25.07c0-1.49,0-2.97,0-4.46.03-.25-.1-.48-.33-.59-2.57-1.47-5.14-2.96-7.7-4.45-.19-.14-.44-.14-.63,0-2.57,1.5-5.15,2.99-7.74,4.47-.21.09-.35.32-.32.55.01,2.97.01,5.94,0,8.91-.02.23.11.46.32.55,2.6,1.49,5.19,2.98,7.77,4.49.17.12.4.12.57,0,2.59-1.5,5.18-3,7.77-4.49.2-.1.32-.31.29-.53-.01-1.49,0-2.97,0-4.46h0Zm-2.29,2.98c.02.31-.15.6-.42.73-1.74,1-3.48,2-5.21,3.01-.26.17-.59.16-.85-.01-1.73-1.01-3.47-2.01-5.22-3.01-.26-.13-.42-.41-.41-.7,0-2.02,0-4.05,0-6.07-.01-.29.15-.57.42-.69,1.74-1,3.48-2,5.22-3.01.26-.17.59-.17.85,0,1.73,1,3.45,2,5.18,2.99.3.15.48.47.44.8-.02.98,0,1.97,0,2.96h0c0,1-.01,2,0,3Z"/></svg>