<?xml version="1.0" encoding="UTF-8"?><svg id="_圖層_1" xmlns="http://www.w3.org/2000/svg" viewBox="0 0 52.01 45.72"><defs><style>.cls-1{fill:#fff;stroke-width:0px;}</style></defs><g id="_组_5573"><path id="_路径_11483" class="cls-1" d="m52.01,37.19c-.2.36-.6.56-1.01.51-6.84-.01-13.68,0-20.52-.02-.46,0-.56.12-.54.56.04.76.03,1.52,0,2.28-.01.37.07.5.47.49.76-.03,1.52-.02,2.28.03,1.95.17,3.47,1.76,3.56,3.71.08.45-.22.87-.67.95-.08.01-.16.02-.24,0-6.23,0-12.46,0-18.69,0-.45.05-.85-.28-.9-.73,0-.08,0-.16.01-.24.1-1.93,1.6-3.51,3.53-3.69.79-.06,1.59-.05,2.39-.04.32,0,.4-.09.39-.4-.02-.85-.03-1.69,0-2.54.01-.34-.12-.38-.41-.38-2.44.01-4.88.01-7.31,0-.67,0-1.06-.49-.84-1.04.09-.26.32-.45.6-.47.2-.02.41-.01.61-.01,11.73,0,23.47,0,35.2,0,.45,0,.58-.1.58-.57-.01-11.16-.01-22.31,0-33.47,0-.45-.1-.58-.57-.58-8.11.02-16.22.02-24.33.01-.19,0-.37,0-.56-.02-.37-.02-.67-.33-.66-.7-.05-.39.22-.75.61-.81.15-.03.3-.03.45-.02,8.5,0,17,0,25.5,0,.42-.05.84.15,1.07.51v36.67Zm-17.47,6.96c-.32-.96-1.22-1.61-2.24-1.58-2.05,0-4.09,0-6.14,0-2.18,0-4.36,0-6.55,0-.97,0-1.83.64-2.1,1.58h17.02Zm-8.56-3.15c.69,0,1.39,0,2.08,0,.24,0,.32-.07.32-.32-.01-.9-.01-1.79,0-2.69,0-.25-.08-.31-.32-.31-1.37,0-2.74,0-4.11,0-.24,0-.32.06-.32.31.01.9.01,1.79,0,2.69,0,.24.07.32.32.32.68-.01,1.35,0,2.03,0"/><path id="_路径_11484" class="cls-1" d="m0,18.84V1.07C0,.25.24.02,1.05.02h20.47c.2-.02.41,0,.6.08.33.13.51.48.44.83-.02.34-.29.6-.63.62-.2.02-.4.03-.61.02-6.42,0-12.83,0-19.25,0-.42,0-.56.07-.56.54.02,11.19.02,22.38,0,33.57,0,.44.13.51.53.51,2.81-.02,5.62,0,8.43,0,.15,0,.3,0,.46,0,.42.02.74.37.73.79-.02.4-.34.72-.74.73-.22.01-.44,0-.66,0H1.02c-.79,0-1.02-.23-1.02-1.02v-17.83"/><path id="_路径_11485" class="cls-1" d="m13.94,17.04c0-.94-.19-1.12-1.12-1.13h-4.5c-.99,0-1.16.17-1.16,1.14,0,4.47-.01,8.95.01,13.42h6.77v-13.44"/><path id="_路径_11486" class="cls-1" d="m45.8,11.17c0-.99-.11-1.09-1.11-1.09h-4.57c-1.01,0-1.11.09-1.11,1.09v19.31h6.78V11.17"/><path id="_路径_11487" class="cls-1" d="m35.11,19.97c0-.6-.33-.8-.89-.8-1.63.01-3.26,0-4.9,0-.88,0-1.13.24-1.13,1.15v10.16h6.9c0-3.5,0-7.01.01-10.51"/><path id="_路径_11488" class="cls-1" d="m24.65,24.61c0-.68-.31-.99-.97-.99-1.7-.01-3.4,0-5.09,0-.42-.06-.82.24-.87.66,0,.06,0,.12,0,.19,0,2.01.01,4.01.02,6.02h6.9c0-1.96.02-3.91.01-5.87"/><path id="_路径_11489" class="cls-1" d="m36.58,8.64c-1.11-.29-2.24-.49-3.38-.59-.34-.02-.64.24-.66.59,0,0,0,.02,0,.02-.09.34.11.69.46.78.02,0,.04,0,.06.01.27.07.55.13.91.21-.06.07-.12.14-.19.2-4.14,2.68-8.29,5.36-12.43,8.05-.29.19-.46.1-.68-.1-.89-.82-1.79-1.63-2.69-2.44l-5.2-4.7c-.21-.27-.55-.39-.88-.31-.76.23-.83.86-.13,1.5,2.73,2.53,5.47,5.05,8.22,7.57.34.49,1.01.61,1.5.27.05-.04.1-.08.15-.12,3.53-2.26,7.05-4.52,10.57-6.78.87-.56,1.74-1.11,2.73-1.74l-.17.54c-.21.7-.09,1.03.42,1.17.53.14.84-.08,1.01-.74.23-.87.43-1.75.66-2.62.09-.35.07-.69-.29-.76"/></g></svg>