<?xml version="1.0" encoding="UTF-8"?><svg id="_圖層_1" xmlns="http://www.w3.org/2000/svg" viewBox="0 0 32.39 31.25"><defs><style>.cls-1{fill:#fff;stroke-width:0px;}</style></defs><polygon class="cls-1" points="28.19 7.36 28.19 7.37 28.19 7.37 28.19 7.36"/><path class="cls-1" d="m28.19,7.37c0-.58-.45-1.06-1.03-1.07-.11,0-.23,0-.34.02-.16.02-.32.03-.37-.02-.06-.06-.04-.23-.03-.39.01-.11.02-.22.02-.33-.01-.54-.43-.98-.97-1.02-.31-.02-.62-.03-.93-.01h-.08c-.58.03-1.03.52-1,1.1,0,.1,0,.19.02.29.02.14.03.31-.02.36s-.22.04-.36.02c-.09-.01-.18-.02-.28-.02-.03,0-.05,0-.08,0-.58.01-1.05.49-1.04,1.08-.01.28-.01.56,0,.82-.02.57.42,1.05.99,1.08.23.02.47.02.71.01h.03s.02,0,.03,0c0,.02,0,.04,0,.06-.01.21-.01.42,0,.64,0,.58.47,1.05,1.04,1.05.1,0,.2,0,.3,0h.42s.09,0,.13,0h.05c.58-.01,1.04-.49,1.03-1.07,0-.1,0-.19-.01-.29-.03-.13-.02-.26.02-.38.04-.06.16-.05.34-.03.1.01.2.02.3.02.03,0,.06,0,.1,0,.59-.03,1.04-.54,1.01-1.12,0-.25.01-.52,0-.79Zm-1.05-.9s0,0,0,0c-.13-.01-.27.01-.41.02.14-.01.28-.04.41-.03Zm-1.04-.87c0,.09,0,.18-.02.28-.06.22-.02.46.11.65,0,0,0,0,0,0-.13-.19-.17-.43-.11-.65.01-.09.02-.18.02-.28,0-.17-.07-.33-.17-.45.1.12.17.28.17.45Zm-3.37.87h.06c.26-.01.6.11.76-.05.16-.16.04-.5.05-.76-.03-.49.35-.92.85-.94.02,0,.04,0,.07,0,.31-.02.62-.01.92.01,0,0,0,0,0,0-.31-.02-.62-.03-.92-.01h-.07c-.49.03-.87.45-.85.94h0c-.01.26.11.6-.05.76-.16.16-.5.04-.76.05h-.06c-.24,0-.45.11-.61.26.16-.16.37-.26.61-.26Zm-.71,1.74s0,0,0,0c-.01-.27-.01-.54,0-.82,0,0,0,0,0,0h0c-.01.28-.01.55,0,.82,0,.06.01.12.03.18-.01-.06-.03-.12-.03-.18Zm.07-1.13c.11-.25.36-.43.65-.44,0,0,0,0,0,0h.07c.08,0,.16,0,.24.02.22.06.45.02.63-.11.13-.18.18-.41.12-.63-.01-.08-.02-.17-.02-.25-.01-.23.09-.43.25-.57-.16.14-.26.34-.25.58,0,.08,0,.17.02.25.06.22.02.45-.12.63-.18.13-.41.17-.63.11-.08-.01-.16-.02-.24-.02h-.07c-.29,0-.54.19-.65.44Zm1.28,1.89s-.04,0-.05,0c.02,0,.04,0,.05,0,.05,0,.09,0,.14,0-.05,0-.09,0-.14,0Zm2.03,1.91s0,0,0,0h-.04c-.14,0-.27,0-.41,0-.15,0-.3,0-.44,0-.49,0-.88-.4-.88-.89h0c0,.49.4.88.88.89h0c.15,0,.3,0,.45,0,.14,0,.27,0,.41,0h.04c.1,0,.19-.03.28-.06-.09.03-.18.06-.28.06Zm.69-1.16c0,.09.01.17.01.26,0,.2-.07.38-.2.52.13-.13.2-.32.2-.51,0-.09,0-.17-.01-.26-.04-.21-.01-.42.09-.61,0,0,0,0,0,0-.1.19-.13.4-.09.61Zm1.07-1.42h0c-.14.1-.31.14-.47.1-.15-.01-.3-.01-.44,0-.35,0-.65.26-.69.61-.03.18-.04.36-.02.54.04.16,0,.32-.09.45-.13.12-.32.18-.5.16h-.03c-.17.02-.34-.04-.47-.15-.1-.14-.14-.32-.1-.49.02-.19.01-.37-.03-.56-.06-.3-.31-.53-.61-.56-.13,0-.26-.01-.39-.01-.24.03-.49-.05-.66-.21-.12-.22-.15-.48-.06-.71.03-.16.18-.27.34-.25h.27c.12,0,.24,0,.36,0,.4.03.74-.28.77-.68,0,0,0-.01,0-.02.02-.15.02-.3,0-.46-.04-.16-.02-.32.07-.46.1-.11.26-.14.53-.14h.15s0,0,0,0c.13,0,.26.04.36.13.08.12.11.28.08.42-.01.15-.01.29,0,.44v.07c.03.4.38.71.79.68h.36c.5,0,.58.07.61.54v.07c.03.17-.01.34-.12.47Zm.66.18c.03-.09.05-.19.04-.29,0,0,0,0,0,0,0-.26.01-.52,0-.79h0c0-.32-.17-.58-.43-.69.26.11.44.38.43.68,0,0,0,0,0,0h0c.01.28,0,.54,0,.8h0c0,.1,0,.2-.04.29Z"/><path class="cls-1" d="m31.44,3.97c-1.34-2.5-3.52-3.83-6.52-3.97-2.91.11-5.09,1.36-6.46,3.72-1.46,2.49-1.44,5.12.04,7.59,1.29,2.15,2.67,4.3,4,6.38.53.83,1.06,1.66,1.59,2.49.22.35.47.52.73.52h0c.26,0,.5-.17.71-.5.53-.81,1.06-1.62,1.58-2.43,1.36-2.08,2.76-4.23,4.09-6.37,1.49-2.25,1.58-5.09.24-7.42Zm-1.5,6.66c-1.21,1.89-2.43,3.78-3.66,5.69l-1.46,2.26-.47-.74c-.61-.96-1.19-1.88-1.77-2.81-.3-.48-.61-.96-.93-1.44-.73-1.11-1.47-2.26-2.09-3.45-1.16-2.24-.91-4.48.72-6.46l.07-.08c1.6-1.89,3.71-2.54,6.1-1.88,2.46.68,3.91,2.34,4.33,4.92.24,1.39-.06,2.81-.84,3.99Z"/><path class="cls-1" d="m23.06,29.77h-3.02c0-1.29,0-2.59,0-3.85v-1.44s0-1.9,0-1.9c0-1.75,0-3.51,0-5.26,0-.91-.45-1.36-1.37-1.36-.24,0-.49,0-.73,0-.75,0-1.52,0-2.28,0-.15,0-.24-.02-.28-.07-.05-.05-.06-.14-.06-.28.02-.52.01-1.05,0-1.57v-.1c.06-.51-.31-.97-.82-1.03-.07,0-.14,0-.21,0-1.9,0-3.83,0-5.73,0-.66,0-1,.35-1.01,1.02,0,.52-.02,1.12,0,1.72,0,.12-.01.19-.05.24-.04.04-.11.06-.23.06,0,0-.01,0-.02,0-.7,0-1.41,0-2.1,0-.27,0-.54,0-.81,0-1.11,0-1.53.42-1.53,1.55v12.26c-.63,0-1.27,0-1.9,0-.33,0-.61.1-.77.28-.12.13-.17.3-.15.48.03.27.18.71.88.71h22.15c.33,0,.61-.1.77-.28.12-.13.17-.3.15-.48-.03-.27-.18-.72-.9-.71Zm-14.19-15.55s.11-.06.22-.06c0,0,0,0,.01,0,1.57.01,3.16.01,4.72,0,.11,0,.17.02.21.05.04.04.05.1.05.23,0,1.41-.02,2.8,0,4.2,0,.13-.02.2-.06.25-.05.05-.14.06-.28.05-.56-.01-1.13,0-1.68,0-.44,0-.88,0-1.32,0-.54,0-1.09,0-1.63.01-.13,0-.21-.01-.25-.05-.04-.04-.06-.12-.06-.27.01-1.38.01-2.77,0-4.15h0c0-.14.02-.21.06-.25Zm-4.8,6.28c0-.13.02-.21.06-.26.06-.06.16-.06.31-.06,1.79,0,3.62,0,5.38,0h1.63s.05,0,.05,0c.56,0,1.11,0,1.67,0,1.71,0,3.47,0,5.2-.01,0,0,.01,0,.02,0,.17,0,.27.02.32.08.06.06.08.16.08.35-.01,3.04,0,6.12,0,9.16h-3.36c0-.85.01-1.71,0-2.55v-1.18c0-1.02-.38-1.4-1.38-1.4h-5.2c-1.02,0-1.41.4-1.41,1.43v.63c0,1.01,0,2.04,0,3.07-1.13,0-2.25,0-3.38,0,0-3.08,0-6.19,0-9.26Zm3.5-1.87c0,.12,0,.2-.05.25-.04.05-.13.07-.29.06-.47,0-.95-.01-1.43-.01s-.96,0-1.43.01c-.14,0-.22-.02-.26-.06-.04-.04-.05-.11-.05-.23.03-.38.03-.77,0-1.15h0c0-.12,0-.21.05-.25.04-.05.13-.06.28-.06.32.01.66.01.97,0,.28,0,.56,0,.84,0,.34,0,.7,0,1.05,0,.14,0,.22.01.26.06.04.04.06.11.05.23-.03.38-.03.77,0,1.15Zm11.23.04c0,.11,0,.18-.05.22-.04.04-.11.05-.23.05-.34-.01-.68,0-1.01,0-.28,0-.57,0-.85,0-.33,0-.67,0-1.01,0-.16,0-.24-.01-.29-.06-.04-.04-.06-.12-.05-.25.01-.17,0-.36-.02-.54-.03-.33-.05-.65.09-.82.09-.11.25-.14.43-.14.13,0,.28.02.42.03.16.02.33.04.48.03.3,0,.6,0,.9,0,.28,0,.58,0,.86,0,.14,0,.22.01.26.06.04.04.05.11.05.22-.02.4-.02.8,0,1.2Zm-9.87,9.82c0-.21,0-.42,0-.62,0-.52,0-1.05-.01-1.57,0-.14.02-.17.02-.18,0,0,.04-.03.18-.02.45.02.9.02,1.35,0,.15,0,.19.01.2.02.01.01.04.05.03.2-.01,1.14,0,2.29,0,3.44h-1.42c-.12,0-.24,0-.36,0,0-.23,0-.46,0-.69v-.57Zm3.25-2.17c0-.16.02-.2.03-.21.01,0,.05-.03.19-.02.46.02.93.02,1.4,0,.13,0,.16.01.16.02,0,0,.02.03.02.15-.01.54-.01,1.08,0,1.61v.63s0,.56,0,.56c0,.23,0,.46,0,.69h-1.79c0-1.28,0-2.4,0-3.43Z"/></svg>