<?xml version="1.0" encoding="utf-8"?>
<!-- Generator: Adobe Illustrator 27.9.3, SVG Export Plug-In . SVG Version: 9.03 Build 53313)  -->
<svg version="1.1" id="_圖層_1" xmlns="http://www.w3.org/2000/svg" xmlns:xlink="http://www.w3.org/1999/xlink" x="0px" y="0px"
	 viewBox="0 0 48.5 45.7" style="enable-background:new 0 0 48.5 45.7;" xml:space="preserve">
<style type="text/css">
	.st0{fill:#EF821D;}
	.st1{fill:#1CD8C9;}
	.st2{fill:#FFBC00;}
	.st3{fill:none;}
	.st4{display:none;}
	.st5{display:inline;}
	.st6{clip-path:url(#SVGID_00000136401058924541559500000017751452562637146278_);}
	.st7{fill:#3D61AB;}
	.st8{fill:#E95505;}
	.st9{display:inline;fill:#3D61AB;}
	.st10{display:inline;fill:#FFC0CA;}
	.st11{display:inline;fill:#EF821D;}
</style>
<g id="组_551" transform="translate(-174.561 -699.374)">
	<path id="路径_643" class="st0" d="M209.5,717c0.2,1.2-0.3,1.7-1.3,2.3c-3,1.6-6,3.4-9,5.1c-0.3,0.2-0.7,0.2-1,0
		c-3.3-1.9-6.5-3.8-9.8-5.7c-0.3-0.1-0.5-0.5-0.5-0.8c0-3.8,0-7.5,0-11.3c0-0.4,0.2-0.7,0.5-0.8c0.3-0.1,0.5-0.3,0.8-0.4
		c0.5-0.3,2.8-1.6,3.4-1.9c1.9-1.1,3.8-2.2,5.7-3.3c0.2-0.2,0.5-0.2,0.8,0c3.3,1.9,6.6,3.8,9.9,5.7c0.3,0.1,0.4,0.4,0.4,0.7
		c0,2.2,0,4.4,0,6.6 M206.6,712.4c0-1.3,0-2.6,0-3.8c0-0.4-0.2-0.8-0.5-1c-2.3-1.3-4.5-2.6-6.7-3.9c-0.3-0.2-0.7-0.2-1,0
		c-2.3,1.3-4.5,2.6-6.8,3.9c-0.3,0.2-0.5,0.5-0.5,0.9c0,2.6,0,5.1,0,7.7c0,0.4,0.2,0.8,0.6,1c2.2,1.3,4.4,2.5,6.6,3.8
		c0.4,0.3,0.9,0.3,1.3,0c2.2-1.3,4.3-2.5,6.5-3.8c0.4-0.2,0.6-0.6,0.6-1C206.6,714.9,206.6,713.6,206.6,712.4"/>
	<path id="路径_645" class="st1" d="M176.6,732.1c0-1.9,0-3.9,0-5.8c0-0.3,0.1-0.5,0.4-0.6c3.4-1.9,6.7-3.8,10-5.8
		c0.2-0.2,0.5-0.2,0.7,0c3.3,1.9,6.7,3.9,10,5.8c0.3,0.1,0.4,0.4,0.4,0.7c0,3.8,0,7.7,0,11.5c0,0.3-0.1,0.6-0.4,0.7
		c-3.3,1.9-6.6,3.8-9.9,5.7c-0.2,0.2-0.6,0.2-0.8,0c-3.3-1.9-6.7-3.9-10-5.8c-0.2-0.1-0.4-0.4-0.4-0.6
		C176.6,736,176.6,734.1,176.6,732.1L176.6,732.1z M195.1,732.1c0-1.3,0-2.5,0-3.8c0-0.4-0.2-0.8-0.6-1c-2.2-1.3-4.4-2.5-6.6-3.8
		c-0.4-0.2-0.8-0.2-1.2,0c-2.2,1.3-4.4,2.6-6.6,3.8c-0.4,0.2-0.6,0.6-0.6,1c0,2.5,0,5,0,7.5c0,0.5,0.2,0.9,0.6,1.1
		c2.2,1.2,4.4,2.5,6.5,3.8c0.4,0.3,0.9,0.3,1.3,0c2.2-1.3,4.3-2.5,6.5-3.8c0.4-0.2,0.6-0.6,0.6-1.1
		C195.1,734.7,195.1,733.4,195.1,732.1"/>
	<path id="路径_646" class="st2" d="M221,732.2c0,1.9,0,3.8,0,5.7c0,0.3-0.1,0.6-0.4,0.7c-3.3,1.9-6.7,3.8-10,5.8
		c-0.2,0.2-0.5,0.2-0.7,0c-3.3-1.9-6.7-3.9-10-5.8c-0.3-0.1-0.4-0.4-0.4-0.7c0-3.8,0-7.6,0-11.5c0-0.3,0.1-0.6,0.4-0.7
		c3.3-1.9,6.6-3.8,9.9-5.7c0.2-0.2,0.6-0.2,0.8,0c3.3,1.9,6.6,3.8,9.9,5.7c0.3,0.1,0.5,0.4,0.4,0.8
		C220.9,728.3,220.9,730.3,221,732.2 M218,732.2c0-1.3,0-2.5,0-3.8c0-0.4-0.2-0.8-0.6-1c-2.2-1.3-4.4-2.6-6.7-3.8
		c-0.3-0.2-0.8-0.2-1.1,0c-2.2,1.3-4.5,2.6-6.7,3.9c-0.3,0.2-0.6,0.5-0.5,0.9c0,2.6,0,5.2,0,7.8c0,0.4,0.2,0.7,0.5,0.9
		c2.2,1.3,4.5,2.6,6.7,3.9c0.3,0.2,0.8,0.2,1.1,0c2.2-1.3,4.5-2.6,6.7-3.9c0.4-0.2,0.6-0.5,0.5-0.9C218,734.7,218,733.4,218,732.2"
		/>
	<rect id="矩形_277" x="175.1" y="698.4" class="st3" width="47.3" height="47.7"/>
</g>
<g id="组_538" transform="translate(126.5 15.915)" class="st4">
	<g class="st5">
		<defs>
			<rect id="SVGID_1_" x="-125.9" y="-14.9" width="47.3" height="43.8"/>
		</defs>
		<clipPath id="SVGID_00000065068706111560346990000003705301636072537505_">
			<use xlink:href="#SVGID_1_"  style="overflow:visible;"/>
		</clipPath>
		<g id="组_537" style="clip-path:url(#SVGID_00000065068706111560346990000003705301636072537505_);">
			<path id="路径_634" class="st0" d="M-93.3,19.5c0.6-0.5,1.1-0.9,1.7-1.4c3.4-3.2,5.2-7.8,4.7-12.4c-0.6-7-5.8-12.7-12.7-13.9
				c-1-0.2-2-0.2-3-0.2c-6.2,0-12.3,0-18.5,0c-0.5,0-0.6,0.1-0.6,0.6c0,0.4,0,0.9,0,1.3c0,0.2,0,0.3-0.2,0.4c-0.1,0-0.3,0-0.4-0.1
				l-3.5-3.9c-0.2-0.1-0.2-0.4,0-0.6c0,0,0,0,0.1-0.1c1.2-1.3,2.3-2.6,3.4-3.8c0.1-0.1,0.2-0.3,0.4-0.2c0.3,0.1,0.2,0.3,0.2,0.5
				c0,0.5,0,1,0,1.5c0,0.3,0.1,0.4,0.3,0.4c0.1,0,0.3,0,0.4,0c6.4,0,12.8-0.1,19.2,0c5.5,0,10.7,2.5,14.3,6.8c2.4,2.7,4,6.1,4.5,9.7
				c0.9,5.5-0.6,11.1-4.1,15.4c-0.1,0.2-0.3,0.3-0.5,0.3C-89.4,19.6-91.3,19.6-93.3,19.5C-93.2,19.6-93.2,19.6-93.3,19.5"/>
			<path id="路径_635" class="st7" d="M-111.2-5.5c-0.7,0.5-1.4,1.1-2.1,1.8c-2.4,2.4-3.9,5.6-4.3,9c-0.8,7.3,3.6,14.2,10.7,16.4
				c1.4,0.4,2.8,0.7,4.2,0.7c6.4,0,12.9,0,19.3,0c0.4,0,0.5-0.1,0.5-0.5c0-0.5,0-0.9,0-1.4c0-0.2,0-0.3,0.2-0.4
				c0.2-0.1,0.3,0,0.4,0.2l2.7,3.1c0.2,0.3,0.5,0.5,0.7,0.8c0.2,0.1,0.2,0.4,0.1,0.6c0,0,0,0-0.1,0.1c-1.1,1.3-2.3,2.5-3.4,3.8
				c-0.1,0.1-0.2,0.4-0.5,0.3c-0.3-0.1-0.2-0.4-0.2-0.6c0-0.5,0-1,0-1.4c0-0.3-0.1-0.4-0.3-0.3c-0.1,0-0.3,0-0.4,0
				c-6.4,0-12.8,0-19.1,0c-9.2-0.2-17-6.8-18.7-15.8c-1.2-5.7,0.3-11.6,4-16.1c0.1-0.2,0.3-0.3,0.5-0.3c1.9,0,3.7,0,5.6,0
				C-111.3-5.6-111.3-5.6-111.2-5.5"/>
			<path id="路径_636" class="st2" d="M-110.1,2.6c0-0.6-0.2-1.1-0.6-1.5c-0.4-0.5-0.4-0.8,0.1-1.3c0.4-0.4,0.9-0.9,1.3-1.3
				s0.8-0.5,1.2-0.1c0.7,0.7,1.7,0.8,2.6,0.5c0.9-0.3,1.5-1.2,1.5-2.1c0.1-0.6,0.3-0.8,0.9-0.8c0.6,0,1.2,0,1.8,0
				c0.7,0,0.9,0.2,1,0.9c0.1,1.3,1.2,2.3,2.6,2.3c0.1,0,0.2,0,0.3,0c0.4-0.1,0.9-0.3,1.2-0.6c0.5-0.4,0.8-0.4,1.2,0
				c0.5,0.4,0.9,0.9,1.4,1.4c0.3,0.2,0.4,0.7,0.2,1c0,0-0.1,0.1-0.1,0.1c-0.7,0.7-0.9,1.7-0.5,2.6c0.3,0.9,1.2,1.5,2.1,1.5
				c0.6,0,0.8,0.3,0.8,0.9c0,0.6,0,1.2,0,1.8c0,0.8-0.2,0.9-0.9,1c-1.3,0.1-2.3,1.3-2.2,2.6c0,0.5,0.3,1.1,0.6,1.5
				c0.4,0.5,0.4,0.8-0.1,1.2c-0.4,0.4-0.9,0.9-1.3,1.3c-0.2,0.3-0.7,0.4-1,0.2c-0.1,0-0.1-0.1-0.2-0.1c-0.7-0.7-1.7-0.9-2.6-0.5
				c-0.9,0.3-1.5,1.2-1.5,2.2c0,0.6-0.3,0.8-0.9,0.8c-0.6,0-1.2,0-1.8,0c-0.7,0-0.9-0.2-1-0.9c-0.1-1.3-1.3-2.3-2.6-2.2
				c-0.5,0-1.1,0.3-1.5,0.6c-0.2,0.3-0.7,0.4-1,0.1c-0.1,0-0.1-0.1-0.2-0.2c-0.4-0.4-0.9-0.9-1.3-1.3c-0.5-0.5-0.5-0.8,0-1.3
				c0.9-1,0.8-2.6-0.3-3.4c-0.3-0.2-0.6-0.4-0.9-0.5c-0.2,0-0.4-0.1-0.6-0.1c-0.6-0.1-0.8-0.3-0.8-0.9c0-0.6,0-1.2,0-1.8
				c0-0.7,0.2-0.9,0.9-0.9c0.8,0,1.6-0.5,2-1.3C-110.2,3.5-110.1,3.1-110.1,2.6 M-102.2,12.4c3,0,5.4-2.4,5.4-5.4
				c0-3-2.4-5.4-5.4-5.4c-3,0-5.4,2.4-5.4,5.4c0,0,0,0,0,0C-107.6,9.9-105.2,12.4-102.2,12.4C-102.3,12.4-102.3,12.4-102.2,12.4"/>
			<path id="路径_637" class="st7" d="M-91.2-12.5h2.9c1.7,0,3.4,0,5.1,0c0.3,0,0.4-0.1,0.4-0.4c0-0.5,0-1,0-1.5
				c0-0.2,0-0.3,0.2-0.4c0.2-0.1,0.3,0,0.4,0.2c1.2,1.3,2.4,2.6,3.5,3.9c0.3,0.3,0.1,0.5-0.1,0.7c-0.9,1-1.9,2.1-2.8,3.1
				c-0.2,0.2-0.4,0.4-0.6,0.7c-0.1,0.1-0.2,0.2-0.4,0.2c-0.2-0.1-0.2-0.2-0.2-0.4c0-0.5,0-0.9,0-1.4c0-0.4-0.1-0.5-0.5-0.5
				c-0.8,0-1.6,0-2.4,0c-0.2,0-0.4,0-0.5-0.2C-87.7-10.1-89.4-11.4-91.2-12.5"/>
			<path id="路径_638" class="st8" d="M-113.2,26.5h-5.5c-0.8,0-1.6,0-2.4,0c-0.4,0-0.5,0.1-0.5,0.5c0,0.4,0,0.9,0,1.3
				c0,0.2,0.1,0.4-0.2,0.5c-0.2,0.1-0.3-0.1-0.4-0.2c-1.2-1.3-2.3-2.6-3.5-3.9c-0.3-0.3-0.1-0.5,0.1-0.7c1-1.1,1.9-2.2,2.9-3.2
				c0.2-0.2,0.4-0.4,0.6-0.6c0.1-0.1,0.3-0.2,0.4-0.1c0.1,0.1,0.2,0.2,0.2,0.3c0,0.5,0,1,0,1.5c0,0.3,0.1,0.5,0.4,0.5
				c0.8,0,1.6,0,2.4,0c0.2,0,0.4,0,0.5,0.1C-116.8,24.1-115.1,25.4-113.2,26.5"/>
		</g>
	</g>
</g>
<g id="组_547" transform="translate(33 -636.339)" class="st4">
	<path id="路径_500" class="st9" d="M-8.5,681.7h-13.9c-0.3,0-0.5,0-0.8-0.1c-0.6-0.1-1-0.7-0.9-1.3c0-0.6,0.4-1.1,1-1.2
		c0.2,0,0.5-0.1,0.7-0.1h0.9c0.6,0,1.1,0,1.7,0c0.8,0,1.5,0,2.2,0h0c0.2,0,0.3,0,0.4-0.3c0.3-0.8,0.6-5.4,0.9-6.2l0.2-0.5h-11.6
		c-2.4,0.2-4.5-1.6-4.7-4c0-0.2,0-0.5,0-0.7c0-8.7,0-17.4,0-26.1c-0.1-2.4,1.7-4.5,4.1-4.6c0.2,0,0.3,0,0.5,0c6.4,0,12.7,0,19.1,0
		s12.7,0,19.1,0c2.4-0.1,4.5,1.7,4.6,4.1c0,0.2,0,0.3,0,0.5c0,8.7,0,17.4,0,26.2c0.1,2.4-1.7,4.5-4.1,4.6c-0.2,0-0.3,0-0.5,0H5.5
		h-6.8l0.2,0.5c0.3,0.8,0.7,5.5,1,6.3c0,0,0,0.1,0,0.1c0.1,0,0.1,0,0.2,0h0h2.3c0.8,0,1.6,0,2.4,0c0.2,0,0.5,0,0.7,0.1
		c0.6,0.1,1,0.6,1,1.2c0.1,0.6-0.3,1.1-0.9,1.2c-0.2,0.1-0.5,0.1-0.8,0.1L-8.5,681.7 M-14.6,679.1c0.8,0,1.6,0,2.7,0h1.5h1.5h2.7
		c1.1,0,2.1,0,3.2,0h0c-0.4-0.9-0.8-5.8-1.2-6.8c0-0.1,0-0.1-0.2-0.1h-0.1c-1.4,0-2.9,0-4.3,0c-1.7,0-3.2,0-4.6,0l0,0
		c-0.2,0-0.2,0-0.3,0.2l-0.1,0.2C-13.9,673.4-14.2,678.3-14.6,679.1L-14.6,679.1L-14.6,679.1 M-19,639.4h-8.6
		c-1.6,0-2.2,0.6-2.2,2.2c0,8.6,0,17.2,0,25.9c0,1.5,0.7,2.2,2.2,2.2h37.8c1.6,0,2.2-0.7,2.2-2.2v-25.7c0-1.8-0.6-2.3-2.3-2.3
		L-19,639.4z"/>
	<path id="路径_502" class="st9" d="M-25.8,648.2L-25.8,648.2c-0.8-0.1-1.4-0.7-1.4-1.5c0-1.2,0-2.2,0-3.2
		c-0.1-0.7,0.5-1.4,1.2-1.5c0.1,0,0.2,0,0.2,0h1.8h0.6h0.5c0.2,0,0.5,0,0.7,0c0.4,0,0.8,0.2,1.1,0.4c0.2,0.3,0.4,0.6,0.4,0.9
		c0,0.7-0.7,1.3-1.4,1.3c0,0,0,0,0,0h-0.2c-0.4,0-0.7,0-1.1,0c-0.4,0-0.7,0-1,0h-0.1c0,0-0.1,0-0.1,0c0,0.1,0,0.1,0,0.2
		c0,0.5,0,1.1,0,1.8C-24.5,647.5-25.1,648.2-25.8,648.2"/>
	<path id="路径_503" class="st9" d="M-23.9,642.4c0.6,0,1.2,0,1.8,0c0.5-0.1,1,0.3,1.1,0.9c0.1,0.5-0.3,1-0.9,1.1
		c-0.1,0-0.1,0-0.2,0c-0.8,0-1.5,0-2.3,0c-0.4,0-0.6,0.1-0.5,0.5c0,0.6,0,1.2,0,1.8c0.1,0.5-0.3,1-0.9,1.1c-0.5,0.1-1-0.3-1.1-0.9
		c0-0.1,0-0.1,0-0.2c0-1.1,0-2.1,0-3.2c0-0.7,0.4-1.1,1.1-1.1L-23.9,642.4"/>
	<path id="路径_504" class="st9" d="M8.4,648.2c-0.7,0-1.3-0.6-1.3-1.4c0-0.7,0-1.5,0-2c0,0,0,0,0,0h0c-0.4,0-0.7,0-1.1,0
		c-0.4,0-0.8,0-1.2,0c-0.7,0.1-1.4-0.5-1.5-1.2c-0.1-0.7,0.5-1.4,1.2-1.5c0.1,0,0.2,0,0.2,0c0.2,0,0.5,0,0.7,0H6h0.6h0h0.5h0.5
		c0.3,0,0.5,0,0.7,0c0.7-0.1,1.4,0.5,1.4,1.2c0,0.1,0,0.1,0,0.2c0,1.1,0,2.2,0,3.4C9.7,647.6,9.2,648.2,8.4,648.2L8.4,648.2z"/>
	<path id="路径_505" class="st9" d="M6.5,642.4c0.6,0,1.2,0,1.8,0c0.5-0.1,1,0.3,1.1,0.9c0,0.1,0,0.1,0,0.2c0,1.1,0,2.2,0,3.3
		c0,0.5-0.4,1-1,1c-0.6,0-1-0.5-1-1c0-0.7,0-1.3,0-2c0-0.3-0.1-0.4-0.4-0.4c-0.8,0-1.5,0-2.3,0c-0.6,0.1-1.1-0.3-1.1-0.9
		c0,0,0-0.1,0-0.1c0-0.6,0.4-1,1-1c0,0,0.1,0,0.1,0C5.3,642.4,5.9,642.4,6.5,642.4"/>
	<path id="路径_639" class="st10" d="M-20.9,655.6c-0.5-2.6,0.1-5.4,1.6-7.6c2.3-3.2,6.1-3.7,8.9-1.1c0.7,0.6,1.1,1.4,1.4,2.3
		c0,0.1,0.1,0.3,0.1,0.4c0,0,0,0,0.1,0.1c0.2-0.7,0.5-1.3,0.9-1.9c1.7-2.6,5.2-3.2,7.8-1.5c0.3,0.2,0.6,0.5,0.9,0.8
		c2.2,2.3,3.2,5.5,2.5,8.6c-1.3,0-2.6,0-3.8,0c-1.3,0.1-2.4,1.2-2.3,2.5c0,0.8-0.4,1.2-1,1.2c-0.6,0-0.9-0.4-0.9-1.3
		c0-1.3,0-2.7,0-4c0.1-1.5-1-2.7-2.5-2.8c0,0,0,0,0,0c-1.3,0-2.3,1.2-2.3,2.8c0,1.6,0,3.1,0,4.7c0,0.4-0.1,0.8-0.4,1
		c-0.6,0.5-1.4,0-1.5-0.9c0-1.4,0-2.7,0-4.1c0-2.1-1.5-3.4-3.2-2.8c-1,0.4-1.7,1.4-1.6,2.5c0,0.7-0.3,1.1-0.9,1.1
		C-18.3,655.6-19.6,655.6-20.9,655.6"/>
	<path id="路径_640" class="st10" d="M2.9,656.6c-0.4,1.5-1.2,2.9-2.1,4.1c-1.8,2.3-4.2,4.1-7,5.3c-0.1,0-0.2,0.1-0.3,0.1
		c-2.2,1-2.2,1-4.4,0.1c-2.6-1-5-2.6-6.9-4.7c-1.3-1.4-2.2-3-2.7-4.8c1.1,0,2.3,0,3.4,0c1.3,0,2.4-1.2,2.3-2.5c0,0,0,0,0,0
		c0-0.2,0.1-0.5,0.2-0.7c0.2-0.4,0.7-0.6,1.1-0.4c0.4,0.1,0.7,0.5,0.6,1c0,1.4,0,2.8,0,4.2c0,1.6,1.1,2.9,2.4,2.8
		c1.4-0.2,2.5-1.4,2.3-2.9c-0.1-1.6,0-3.1,0-4.7c0-0.8,0.4-1.2,1.1-1.1c0.5,0.1,0.8,0.5,0.8,1.1c0,1.3,0,2.7,0,4
		c0,2.1,1.5,3.4,3.1,2.7c1-0.4,1.7-1.4,1.6-2.5c0-0.7,0.4-1,0.9-1C0.7,656.6,1.8,656.6,2.9,656.6"/>
	<path id="路径_641" class="st11" d="M3.2,656.9c-1.1,0-2.3,0-3.4,0c-0.6,0-0.9,0.4-0.9,1c0,1.1-0.6,2.1-1.7,2.5
		c-1.7,0.6-3.2-0.7-3.2-2.7c0-1.3,0-2.7,0-4c0-0.6-0.3-1-0.8-1.1c-0.7-0.1-1.1,0.3-1.1,1.1c0,1.6,0,3.1,0,4.7
		c0.1,1.4-0.9,2.7-2.4,2.9c-1.4-0.1-2.6-1.3-2.5-2.7c0,0,0-0.1,0-0.1c0-1.4,0-2.8,0-4.2c0-0.4-0.2-0.8-0.6-1c-0.4-0.1-0.9,0-1.1,0.4
		c-0.1,0.2-0.2,0.5-0.2,0.7c0,1.3-1,2.5-2.4,2.5c0,0,0,0,0,0c-1.1,0-2.3,0-3.4,0c-0.5,0-1,0-1.4,0c-0.4,0-0.8-0.4-0.8-0.8
		s0.4-0.8,0.8-0.8c0.3,0,0.7,0,1,0c1.3,0,2.6,0,3.9,0c0.6,0,0.9-0.4,0.9-1.1c0-1.1,0.6-2.1,1.7-2.5c1.7-0.6,3.2,0.7,3.2,2.8
		c0,1.4,0,2.7,0,4.1c0,0.9,0.8,1.4,1.5,0.9c0.3-0.2,0.5-0.6,0.5-1c0-1.6,0-3.1,0-4.7c0-1.6,1-2.8,2.3-2.8c1.5,0.1,2.6,1.3,2.5,2.8
		c0,0,0,0,0,0c0,1.3,0,2.7,0,4c0,0.8,0.3,1.3,0.9,1.3c0.6,0,1-0.4,1-1.2c0-1.3,1-2.4,2.4-2.5c1.3,0,2.6,0,3.9,0c0.3,0,0.7,0,1,0
		c0.4,0,0.8,0.4,0.8,0.8c0,0.4-0.3,0.7-0.7,0.8C4.2,656.9,3.7,656.9,3.2,656.9"/>
</g>
</svg>
