<?xml version="1.0" encoding="UTF-8"?><svg id="_圖層_1" xmlns="http://www.w3.org/2000/svg" viewBox="0 0 52.01 45.72"><defs><style>.cls-1{fill:#fff;stroke-width:0px;}</style></defs><path class="cls-1" d="m51.46,23.58c-.37-1.52-1.8-2.53-3.35-2.38h-20.89c-.19-.02-.38-.02-.57,0-.84.08-1.6.48-2.14,1.12-.54.65-.8,1.47-.72,2.29v16.87c-.02.21-.02.43,0,.63.18,1.73,1.75,2.99,3.44,2.8h20.68c.16.02.32.03.48.03,1.42,0,2.69-.95,3.05-2.33l.11-.07v-18.93l-.1-.05Zm-4.42,17.97h0c0-.15,0-.31,0-.46,0-.31,0-.62,0-.93,0-.09.01-.12,0-.12,0,0,.03-.02.12-.02.87.01,1.68.01,2.48,0,0,0,0,0,.01,0,.04,0,.05,0,.06,0,0,.01,0,.04,0,.11,0,.24,0,.48,0,.72,0,.34,0,.67,0,1-.03.65-.54,1.17-1.19,1.21-.23.01-.47,0-.71,0-.22,0-.45,0-.67,0-.06,0-.08,0-.09,0h0s-.01-.04-.01-.14c0-.31,0-.62,0-.93v-.46Zm0-17.6c0-.27,0-.54,0-.81,0-.09.01-.11.01-.11,0,0,.02-.02.12-.01.19,0,.37,0,.56,0,.24,0,.48,0,.76.01.7.03,1.25.63,1.22,1.34,0,.2,0,.41,0,.61,0,.31,0,.62.01.93,0,.14-.02.17-.02.17,0,0-.03.02-.19.02-.25-.01-.5,0-.78,0-.14,0-.28,0-.43,0h0c-.17-.03-.35,0-.53.02-.28.04-.57.07-.7-.07-.14-.14-.1-.46-.07-.77.02-.17.04-.34.03-.5,0-.27,0-.55,0-.83Zm2.56,10.04c.06-.02.09,0,.1,0,0,0,0,0,0,0,0,0,.01.04.01.13,0,.44,0,.88,0,1.32v.65s0,.64,0,.64c0,.43,0,.86,0,1.29,0,.12,0,.16-.01.16,0,0-.02.02-.12.01-.37,0-.74-.01-1.1-.01-.47,0-.92,0-1.33.01-.08.02-.1-.01-.11-.01,0,0-.02-.03-.02-.13,0-1.32.01-2.64,0-3.96,0-.08.01-.1.01-.1,0,0,.03-.02.14-.02.67,0,1.55.02,2.43,0Zm-2.58-5.88c0-.12.02-.14.02-.14,0,0,.02-.02.14-.02.92.02,1.68.02,2.38,0,.12-.01.13.01.13.01,0,.01.02.05.02.18,0,.43,0,.86,0,1.29v.64h0c0,.21,0,.41,0,.62,0,.42,0,.84,0,1.26,0,.16-.02.19-.02.19,0,0-.03.03-.17.02-.34,0-.68-.02-1.06-.02s-.78,0-1.22.02c-.14.02-.18-.02-.19-.02,0,0-.03-.03-.03-.17.01-1.13.01-2.35,0-3.86Zm-1.83,14.69c0,.18-.03.24-.04.25-.03.03-.12.04-.27.04-4.8-.02-9.66-.02-14.46,0h0c-.17,0-.22-.03-.24-.04-.04-.04-.04-.21-.04-.27.01-6.44.01-12.97,0-19.41,0-.06,0-.24.05-.29.03-.03.13-.05.28-.05,4.76.02,9.6.02,14.36,0h0c.16,0,.26.02.3.06.05.05.06.2.06.34-.01,2.45,0,4.89,0,7.34v4.47c0,2.52,0,5.03,0,7.55Zm-16.89-12.75c0,.21,0,.43,0,.64,0,.43,0,.86,0,1.29,0,.14-.02.16-.02.17,0,0-.02.03-.15.02-.35,0-.72-.01-1.1-.01s-.79,0-1.22.01c-.19,0-.19,0-.19-.18.01-1.28.01-2.58,0-3.86,0-.13.02-.15.02-.15,0,0,.02-.02.16-.02.76.01,1.56.01,2.38,0,.07-.02.11,0,.11,0,0,0,.01.03.01.11,0,.44,0,.88,0,1.32v.66Zm-2.68,4.08c0-.1.02-.13.02-.13,0,0,.03-.02.15-.02.89.01,1.67.01,2.38,0,.1-.02.12.01.12.01,0,0,.02.03.02.14,0,.44,0,.88,0,1.32v.66s0,0,0,0c0,.21,0,.43,0,.64,0,.43,0,.86,0,1.29,0,.11-.01.13-.01.13,0,0-.03.02-.14.02-.79-.01-1.59-.01-2.38,0,0,0-.01,0-.02,0-.1,0-.12-.02-.12-.02,0,0-.02-.02-.02-.14.01-1.44.01-2.72,0-3.91Zm2.69-9.57v.48c0,.32,0,.64,0,.96,0,.06,0,.08,0,.09,0,0-.03.01-.1.01-.83,0-1.65,0-2.48,0-.08.01-.08,0-.09,0,0,0-.01-.03-.01-.11,0-.22,0-.44,0-.65,0-.35,0-.71.02-1.07.02-.67.56-1.21,1.24-1.22.24-.02.48-.01.73,0,.2,0,.4,0,.6,0h.02s.06.01.06,0c0,0,.01.03.01.1,0,.32,0,.64,0,.96v.48h.18s-.18,0-.18,0Zm.18,17h-.01s-.18,0-.18,0v.3c0,.66,0,1.13-.06,1.2-.03.02-.18.01-.29.01-1.95,0-2.31-.39-2.32-1.46,0-.15,0-.31,0-.46,0-.31,0-.62,0-.93,0-.15.01-.17.02-.17,0,0,.03-.04.15-.02.72.02,1.5.02,2.38,0,0,0,.02,0,.02,0,.08,0,.11.01.11.01h0s.02.03.01.14c0,.31,0,.62,0,.93,0,.15,0,.31,0,.46h.18Z"/><path class="cls-1" d="m21.5,39.82c-.23-.05-.46-.06-.68-.05-4.8,0-9.61-.01-14.42-.01h-.34c.18-.52.26-1.07.22-1.61,0-8.72.01-17.44.02-26.17,0-.17,0-.35.01-.53.03-.51.45-.91.97-.91,0,0,0,0,.01,0,.22,0,.44,0,.65,0l37.09.03c.99,0,1.31.32,1.31,1.31v6.59c0,.39.1.7.3.89.16.15.37.24.62.24h.02c.57,0,.91-.42.91-1.1v-6.88c.04-1.47-1.03-2.7-2.49-2.87-.12-.02-.25,0-.37,0-.24.03-.33.02-.36-.02-.08-.27-.09-.56-.03-.86.01-.14.01-.29,0-.43-.11-1.54-1.41-2.72-2.92-2.72-.07,0-.14,0-.22,0-5.05.03-10.18.03-15.15.02-1.87,0-3.73,0-5.61,0-.32.01-.64,0-.93-.05-.9-.24-1.66-.85-2.09-1.7-.83-1.39-2.33-2.23-3.93-2.23-.07,0-.14,0-.21,0-2.08.01-4.16,0-6.24,0h-3.11c-.23-.02-.46-.02-.69,0-1,.09-1.9.57-2.54,1.34-.64.77-.94,1.74-.85,2.72v33.47c-.02.22-.02.44,0,.67.17,1.52,1.46,2.65,2.94,2.65.11,0,.22,0,.33-.02,5.55,0,11.11,0,16.66,0h.52c.18.01.35,0,.54-.03.32-.07.57-.32.66-.63.07-.23.04-.48-.07-.69-.12-.21-.31-.37-.55-.44Zm-15.69.11h0s0,0,0,0h0s0,0,0,0h0Zm-1.35-28.11c0,8.81-.01,17.61-.02,26.41v.14c0,.13,0,.26,0,.39-.04.55-.49.97-1.03.98-.55,0-1.01-.41-1.07-.95-.01-.17-.02-.35-.01-.53V4.84c-.04-.2-.04-.4,0-.6.14-.96.97-1.65,1.94-1.65.1,0,.2,0,.3.02,1.03,0,2.06,0,3.09,0,2.02,0,4.12.01,6.19,0,1.09-.06,2.17.51,2.72,1.47.68,1.28,1.94,2.2,3.38,2.45.38.05.77.07,1.16.06h20.71c1.01,0,1.31.3,1.31,1.3,0,.39,0,.68-.07.75-.07.07-.35.07-.74.07h-17.11v-.02H7.59c-.19-.02-.4-.02-.6,0-1.56.17-2.7,1.58-2.53,3.13Z"/><path class="cls-1" d="m19.8,13.39h-4.77c-1.27,0-2.53,0-3.77,0-.17-.02-.34-.03-.51,0-.43.07-.81.3-1.07.66-.26.35-.36.79-.29,1.19v2.5c-.03.18-.03.36,0,.53.07.44.31.82.67,1.08.29.2.62.31.95.31.08,0,.17,0,.25-.02h4.26s1.45,0,1.45,0c.97,0,1.94,0,2.89,0,.13.02.26.02.39,0,.88-.11,1.51-.91,1.4-1.77v-2.62c0-1.23-.6-1.83-1.85-1.84Zm0,4.19c0,.15-.02.18-.02.18s-.03.03-.18.03c-1-.01-2,0-3.01,0h-1.09s-1.07,0-1.07,0c-.99,0-1.99,0-2.99,0,0,0-.01,0-.02,0-.14,0-.17-.02-.18-.03,0,0-.03-.04-.03-.2.02-.63.02-1.31,0-2.18,0-.11.01-.14.01-.14,0,0,.03-.02.14-.02,2.77,0,5.54,0,8.31,0,.08,0,.11.01.12.01,0,0,.01.03.01.12-.01.61-.02,1.41,0,2.23Z"/><path class="cls-1" d="m37.71,26.22h0s-.07,0-.11,0c-1.03,0-2.06.24-2.98.71-.64.32-.87.81-.63,1.32.11.23.28.39.49.46.26.09.59.05.94-.13.91-.46,1.92-.63,2.92-.49,2.74.37,4.67,2.89,4.31,5.63-.18,1.33-.86,2.51-1.92,3.33-1.07.82-2.39,1.17-3.71.99-1.33-.18-2.51-.86-3.33-1.92-.82-1.06-1.17-2.38-.99-3.71.09-.59.27-1.16.52-1.7.19-.43,0-.95-.41-1.17-.44-.24-1-.07-1.23.37-.07.12-.13.25-.18.37-.38.87-.58,1.79-.59,2.73-.02,3.78,3.04,6.87,6.82,6.89h.04c3.76,0,6.83-3.05,6.86-6.82.02-3.78-3.03-6.87-6.81-6.89Z"/><path class="cls-1" d="m37.56,36.01c.41-.27.82-.55,1.24-.82.48-.32.96-.63,1.42-.95.24-.13.43-.32.55-.56.34-.65.08-1.45-.55-1.77-.51-.35-1.03-.69-1.55-1.03-.38-.25-.75-.5-1.12-.74-.23-.17-.51-.26-.79-.27h0s-.07,0-.1,0c-.34.01-.66.16-.89.41-.23.25-.35.58-.34.92,0,.68,0,1.37,0,2.05,0,.54,0,1.07,0,1.6-.02.33.07.66.28.92.26.34.66.51,1.05.51.28,0,.57-.09.8-.27Zm-.26-2.04v-1.79l1.35.89-1.35.9Z"/></svg>