<?xml version="1.0" encoding="UTF-8"?><svg id="_圖層_1" xmlns="http://www.w3.org/2000/svg" viewBox="0 0 34.5 29.77"><defs><style>.cls-1{fill:#fff;stroke-width:0px;}</style></defs><g id="_组_5087"><g id="_组_5074-2"><path id="_路径_10811-2" class="cls-1" d="m17.28,11.36h-.41c-.45,0-.82-.37-.82-.82h0v-.58c.01-.17-.05-.23-.21-.22-.21.01-.42,0-.63,0-.45-.02-.8-.39-.78-.84h0c-.01-.25-.01-.51,0-.76-.01-.46.35-.84.81-.85h.06c.24-.01.55.1.7-.05s.04-.46.05-.7c-.02-.46.33-.85.79-.87h.06c.29-.01.57-.01.86,0,.42.03.75.37.76.79.02.26-.11.6.05.77.16.17.5.03.76.06.46,0,.82.38.82.84h0c.01.24,0,.49,0,.73.03.47-.33.87-.79.89h-.08c-.25.02-.58-.12-.72.07-.12.16-.03.47-.04.71,0,.45-.35.83-.81.84h-.43Zm0-4.87c-.43,0-.44.08-.4.39.01.15.01.3,0,.44-.02.46-.4.81-.86.79h-.57c-.08,0-.16-.01-.18.11-.12.51,0,.67.52.67.13,0,.25,0,.38.01.35.04.63.3.7.64.04.19.05.38.03.57-.04.32.06.43.4.42.32,0,.44-.08.39-.4-.02-.18-.01-.36.02-.54.05-.39.38-.69.78-.7.15-.01.3-.01.44,0,.29.04.41-.05.39-.37-.03-.42,0-.42-.42-.42h-.32c-.46.03-.86-.31-.89-.77v-.06c-.02-.15-.02-.3,0-.44.04-.3-.03-.34-.39-.35"/></g></g><path class="cls-1" d="m33.81,28.91h-.67v-3.55h0c.03-.29-.18-.55-.46-.58h-.13c-.39,0-.77-.01-1.16,0-.23.01-.32-.05-.32-.3v-7.66c0-.24.06-.33.31-.31.37.04.75-.05,1.07-.25.57-.37.83-1.08.62-1.73-.18-.68-.81-1.14-1.51-1.11-1.58,0-3.15-.01-4.73,0-.3,0-.41-.04-.41-.38.02-3.2.01-6.39,0-9.59,0-.22.01-.33.29-.39.8-.14,1.35-.88,1.25-1.69-.09-.81-.79-1.41-1.6-1.37H7.92c-.81-.04-1.51.56-1.61,1.36-.1.81.44,1.55,1.24,1.7.26.05.3.15.3.38v9.63c0,.28-.08.35-.35.35-1.56-.01-3.12,0-4.68,0-.97,0-1.66.63-1.67,1.52-.02.84.64,1.55,1.49,1.57h.18c.36,0,.4.12.4.43-.01,2.17,0,4.33,0,6.5,0,.44.19,1.02-.08,1.27-.24.21-.82.06-1.24.06-.57,0-.73.16-.73.74v3.39h-.49c-.24,0-.43.19-.43.43s.19.43.43.43h33.14c.24,0,.43-.19.43-.43s-.19-.43-.43-.43h-.01ZM7.35,1.63v-.09h0c-.02-.27.18-.5.45-.52h.07c1.15,0,2.31,0,3.46.02h5.9c.81-.05,1.63-.04,2.44,0h6.45c.13,0,.26,0,.39,0,.27.03.46.27.44.54-.03.23-.21.41-.44.44-.13.02-.26.02-.39,0h-7.3c-.81.05-1.63.04-2.44,0h-5.9c-.85,0-1.71.03-2.56.02-.27.03-.52-.17-.54-.44h-.03Zm18.04,6.64h0v4.77c0,.3-.08.38-.38.37-.64-.02-1.29-.01-1.93,0-.2,0-.27-.05-.27-.26V3.36c0-.21.06-.27.26-.26.67,0,1.35.02,2.02,0,.27,0,.29.1.29.32v4.85h0ZM12.49,3.48c0-.32.09-.41.41-.41,2.83,0,5.67,0,8.5,0,.32,0,.41.09.41.41-.02,1.59,0,3.18,0,4.77v4.77c0,.32-.09.41-.41.41-2.83-.01-5.67-.01-8.5,0-.32,0-.41-.09-.41-.41.01-3.18.01-6.36,0-9.54h0Zm-3.59-.07c0-.24.06-.32.31-.31.66.02,1.32.02,1.97,0,.27,0,.29.1.29.33v9.62c0,.3-.07.39-.37.38-.63-.03-1.26-.02-1.89,0-.23,0-.32-.04-.32-.3,0-3.24.01-6.47,0-9.71h0Zm1.02,25.3h0c-.04.14-.15.19-.38.19-2.26-.02-4.52-.02-6.78,0h-.23c-.21-.01-.29-.08-.32-.18v-.07c-.02-.09,0-2.25-.02-2.36,0-.28-.04-.51.4-.51,2.32.02,4.64.02,6.96,0,.49,0,.38.28.39.55v2.36l-.02.02Zm-3.6-7.05c0-.92.01-1.83,0-2.75,0-.27.07-.33.33-.33.99.02,1.97.01,2.96,0,.24,0,.31.06.31.31-.01,1.86-.01,3.72,0,5.58h0c0,.22-.06.29-.28.29-1-.01-2-.01-3,0-.25,0-.31-.07-.3-.31.01-.93,0-1.86,0-2.79h-.02Zm5.66,1.06h0c0,1.92-.01,3.84,0,5.76,0,.35-.05.43-.42.41-.15-.01-.17.01-.3,0-.26.04-.3-.08-.3-.31v-10.36c0-.5-.18-.67-.67-.68h-4.34c-.49,0-.67.18-.67.67,0,2.05-.01,4.1,0,6.15,0,.35-.1.42-.42.41-.61-.02-.61,0-.61-.61v-7.27c0-.33.09-.39.4-.39,2.31.01,4.61.01,6.92,0,.32,0,.43.05.43.41-.02,1.93,0,3.87,0,5.8h-.02Zm4.63,5.83c0,.26-.05.34-.33.34-.97-.02-1.95-.02-2.92,0-.3,0-.34-.1-.34-.36v-5.85h0v-5.8c0-.27.06-.36.35-.36.97.02,1.95.02,2.92,0,.28,0,.33.08.32.34v11.7h0Zm-.53-13.09H4.94c-.79.06-1.58.05-2.37-.02-.25-.12-.44-.29-.35-.59.07-.26.33-.42.59-.38h.55c.79-.04,1.57-.04,2.36,0h11.14c.87-.05,1.74-.05,2.62,0h3.74c1.5-.02,3-.03,4.5-.03h3.73c.41,0,.64.21.64.53s-.24.52-.65.52h-8.88c-.07,0-.14-.01-.21-.03h-3.66c-.87.05-1.74.04-2.62,0h.01Zm5.17,13.15h0c0,.23-.07.29-.29.28-1-.01-2.01-.02-3.01,0-.27,0-.29-.11-.29-.33v-5.85h0v-5.81c0-.33.09-.4.4-.39.96.02,1.92.02,2.88,0,.23,0,.32.05.32.3v11.8Zm2.07-10.34h0v10.24c0,.13.09.35-.08.37-.29.06-.6.05-.88-.03-.05-.02-.04-.21-.04-.32v-11.62c0-.33.09-.39.4-.39,2.31.01,4.61.01,6.92,0,.3,0,.41.04.41.38-.02,2.49-.01,4.99,0,7.48,0,.29-.05.43-.36.38-.09-.01-.17-.01-.26,0-.31.05-.41-.05-.4-.39.02-1.45,0-2.9,0-4.34v-1.85c0-.47-.18-.65-.65-.65h-4.34c-.54,0-.7.17-.7.73h-.02Zm1.06,3.41v-2.75c0-.25.04-.34.32-.34.99.02,1.97.02,2.96,0,.25,0,.3.08.3.31v5.54c0,.23-.05.32-.3.32-1-.01-2-.01-3.01,0-.23,0-.28-.08-.28-.29.01-.93,0-1.86,0-2.79h.01Zm.38,7.23c-.24,0-.34-.07-.38-.19,0-.02,0-.04-.01-.06v-2.34c0-.29-.05-.54.42-.53,1.16.03,2.32.01,3.48.01s2.29.01,3.43,0c.32,0,.43.08.41.41h0c0,.19,0,.32,0,.42v1.45c0,.06.02.13,0,.2,0,.21,0,.35,0,.44h0c-.02.24-.12.18-.59.19h-3.31c-1.11,0-2.29-.02-3.43.01h-.01Z"/><rect class="cls-1" x="0" y="28.45" width="34.5" height="1.32" rx=".66" ry=".66"/></svg>