<?xml version="1.0" encoding="UTF-8"?><svg id="_圖層_1" xmlns="http://www.w3.org/2000/svg" viewBox="0 0 49.77 43.22"><defs><style>.cls-1{fill:#fff;stroke-width:0px;}</style></defs><g id="_组_4748"><g id="_组_4747"><path id="_路径_10211" class="cls-1" d="m43.83,19.81c1.49-.74,2.97-1.48,4.46-2.22.26-.18.59-.22.9-.13.33.11.55.41.58.75.04.4-.2.78-.57.92-1.34.67-2.67,1.34-4.01,2.01L1.72,42.92c-.13.07-.26.14-.4.19-.41.24-.94.1-1.18-.31-.02-.03-.03-.06-.04-.09-.22-.41-.08-.92.33-1.14.04-.02.08-.04.12-.05,1.12-.57,2.24-1.12,3.36-1.68.21-.11.42-.22.67-.36-.26-.09-.46-.14-.65-.22-1.47-.55-2.22-2.19-1.67-3.66.05-.15.12-.29.2-.42.9-1.65,1.81-3.31,2.75-4.93.37-.62.55-1.33.52-2.05-.04-1.2-.02-2.41-.05-3.61-.04-2.03.19-4.07.7-6.04.66-2.58,1.21-5.18,1.81-7.77.12-1.03,1.05-1.77,2.08-1.67,4.28,0,8.56,0,12.83,0,1.16-.08,2.25.57,2.73,1.63.16-1.24.5-2.45,1-3.6,1.81-3.82,5.73-6.18,9.95-5.99,5.85.19,10.47,4.5,10.4,11.09-.04,2.62-1.1,5.13-2.95,6.99-.16.17-.32.35-.48.53-.03.02-.07.05-.1.08.05.08.11.04.17,0m-7.35.89c4.87.08,8.88-3.8,8.96-8.66,0-.1,0-.2,0-.3-.03-4.94-4.07-8.91-9.01-8.88-4.88.03-8.83,3.97-8.88,8.84-.1,4.87,3.76,8.9,8.63,9,.1,0,.2,0,.3,0m-10.64-7.66c-.58,1.11-1.79,1.74-3.03,1.59-2.37-.03-4.74,0-7.11-.01-.32,0-.48.06-.55.41-.38,1.77-.8,3.53-1.22,5.29-.08.32-.02.41.32.41,1.33-.02,2.67-.02,4,0,1.65.04,3.05,1.24,3.33,2.87.07.87,0,1.74-.19,2.59-.21,1.73-.46,3.46-.7,5.21,1.59-.67,17.37-8.64,17.82-9.04-5.87,1.07-11.51-2.82-12.58-8.7-.04-.2-.07-.41-.09-.61m-6.92-.2h4.22c.73,0,1.16-.37,1.16-.98s-.42-1-1.15-1c-4.24,0-8.48,0-12.72-.02-.36,0-.47.13-.55.45-.58,2.52-1.18,5.03-1.74,7.56-.33,1.14-.55,2.3-.64,3.48-.04,2.13-.01,4.26,0,6.39,0,.69-.17,1.36-.51,1.96-.98,1.74-1.94,3.49-2.9,5.23-.4.72-.27,1.24.37,1.6.48.31,1.13.17,1.44-.31.05-.07.08-.15.11-.23,1.1-1.99,2.21-3.97,3.31-5.96.25-.43.38-.93.37-1.43-.01-1.28-.01-2.56,0-3.83,0-.71.31-1.04,1-1.05,1.91-.01,3.81-.01,5.72,0,.73,0,1.05.42.96,1.16-.17,1.41-.35,2.83-.5,4.24-.13.56.21,1.12.77,1.25.07.02.13.03.2.03.55.1,1.08-.27,1.18-.83.01-.06.02-.12.02-.18.27-1.92.52-3.85.77-5.77.23-.9-.31-1.82-1.21-2.05-.21-.05-.42-.07-.63-.04-1.67,0-3.33,0-5,0-.89,0-1.26-.45-1.06-1.32.57-2.5,1.16-5,1.75-7.5.15-.64.4-.83,1.04-.84,1.41,0,2.81,0,4.22,0m-11.33,24.94l.07.15,9.64-4.82c-.11-.05-.17-.09-.24-.12-1.36-.34-2.22-1.68-1.95-3.06.1-1.03.23-2.06.36-3.09.04-.29-.03-.39-.33-.38-1.09.02-2.18.02-3.28,0-.32,0-.41.1-.4.41.01,1,.02,2,0,3,0,.61-.15,1.22-.44,1.76-1.14,2.05-2.28,4.1-3.41,6.15"/><path id="_路径_10212" class="cls-1" d="m9.75,3.9C9.71,1.79,11.39.04,13.49,0c.05,0,.11,0,.16,0,2.13-.01,3.87,1.7,3.88,3.84,0,.04,0,.07,0,.11.04,2.12-1.65,3.88-3.77,3.91-.06,0-.12,0-.18,0-2.1.02-3.82-1.67-3.84-3.77,0-.06,0-.12,0-.19m1.76.05c-.04,1.14.85,2.1,1.99,2.14.05,0,.09,0,.14,0,1.16.02,2.11-.91,2.12-2.06,0-.03,0-.06,0-.09.02-1.17-.91-2.13-2.08-2.15-.02,0-.04,0-.06,0-1.15-.01-2.1.91-2.11,2.06,0,.03,0,.07,0,.1"/><path id="_路径_10213" class="cls-1" d="m43.83,19.81c-.06.03-.11.08-.17,0l.1-.08s.05.05.07.08"/></g></g></svg>