<?xml version="1.0" encoding="UTF-8"?><svg id="_圖層_1" xmlns="http://www.w3.org/2000/svg" viewBox="0 0 52.01 45.72"><defs><style>.cls-1{fill:#fff;stroke-width:0px;}</style></defs><g id="_组_4926"><g id="_路径_10567"><path class="cls-1" d="m48.63,26.64c-.17.18-.14.43-.19.65-.76,3.27-3.63,5.61-6.98,5.7-1.29.04-2.59.02-3.88,0-.33,0-.41.08-.41.41.01,2.18.04,4.36,0,6.53-.04,2.92-2.44,5.26-5.36,5.22-.01,0-.02,0-.03,0-7.35.03-14.68.01-22.03,0-.91,0-1.45-.71-1.11-1.43.16-.36.52-.59.92-.59,1.85-.02,3.34-1.54,3.32-3.39,0-.02,0-.04,0-.06,0-2.19,0-4.39.01-6.58,0-.33-.16-.38-.4-.43-3.11-.66-5.79-2.62-7.37-5.38-2.42-3.85-2.3-8.77.31-12.49,1.73-2.72,4.56-4.56,7.75-5.04.26,0,.49-.17.57-.42,1.43-4.31,5.04-7.53,9.49-8.46,5.94-1.34,12.02,1.62,14.63,7.13.25.54.47,1.11.66,1.68.05.17.18.3.34.35,2.77.94,4.8,3.31,5.31,6.19.16.76.18,1.55.04,2.32-.07.18.03.38.21.45,0,0,0,0,0,0,2.24,1.05,3.8,3.17,4.12,5.62,0,.03.05.06.08.09v1.94Zm-23.59-6.98h7.37c2.41,0,4.83,0,7.24,0,.28,0,.39.05.37.36-.02.46-.02.91,0,1.37.01.25-.07.32-.32.32-.65-.02-1.3.02-1.94-.01-.37-.02-.49.06-.49.47.02,2.57.01,5.15.01,7.72,0,.35-.12.82.06,1.02s.66.06,1.01.07c1.12.03,2.26.08,3.38.05,2.54-.14,4.61-2.07,4.94-4.58.33-2.53-1.17-4.94-3.58-5.78-1-.34-1.19-.67-.97-1.71.7-3.17-1.23-6.32-4.37-7.13-.52-.1-.92-.49-1.03-1.01-1.39-5.21-6.36-8.64-11.72-8.1-3.17.28-6.05,1.94-7.89,4.53-.76,1.03-1.32,2.19-1.66,3.43-.1.57-.59.99-1.18.99-.45.03-.9.11-1.35.22-5.2,1.17-8.46,6.34-7.28,11.53.07.33.17.66.28.98.97,3.1,3.47,5.47,6.61,6.29.21.06.34.09.34-.22-.01-2.82-.01-5.65,0-8.47,0-.24-.08-.29-.3-.29-.66.01-1.33-.03-1.98.02-.41.03-.49-.12-.46-.49.03-.37.03-.74,0-1.1-.03-.36.06-.46.44-.46,4.83.02,9.65.01,14.48.01m-11.39,23.47c6.1,0,12.1,0,18.11,0,.31,0,.61-.05.91-.15,1.54-.43,2.55-1.88,2.43-3.47,0-5.8,0-11.59.01-17.39,0-.4-.14-.44-.48-.44-6.44,0-12.89,0-19.33,0-.43,0-.49.13-.49.51.01,5.75.01,11.51,0,17.26,0,.57-.05,1.15-.19,1.7-.21.71-.54,1.38-.98,1.98"/></g><g id="_路径_10568"><path class="cls-1" d="m23.1,28.09c1.21,0,2.41,0,3.62,0,1.01-.13,1.95.5,2.23,1.47.07.2.16.15.29.08.51-.25,1.02-.51,1.55-.74.77-.4,1.73-.09,2.12.68.12.24.18.5.17.76.03,2.06,0,4.12.01,6.18.01.9-.7,1.64-1.61,1.66-.3,0-.6-.07-.86-.23-.43-.25-.88-.47-1.34-.67-.18-.09-.28-.14-.37.13-.26.85-1.06,1.42-1.95,1.38-2.6.02-5.2.03-7.81,0-1.09.06-2.03-.78-2.09-1.88,0-.08,0-.17,0-.25-.01-2.15-.01-4.29,0-6.44-.07-1.11.77-2.06,1.87-2.13.1,0,.2,0,.3,0,1.28-.02,2.56,0,3.84,0m7.92,7.8v-4.76c0-.29-.16-.16-.29-.1-.49.23-.98.47-1.47.7-.18.07-.31.22-.36.4-.16.45-.62.71-1.09.62-.47-.06-.83-.46-.82-.94-.02-.46-.03-.91-.01-1.37,0-.27-.04-.38-.36-.38-2.41.01-4.82.01-7.24,0-.27,0-.35.06-.34.34.01,2.01.01,4.03,0,6.05,0,.28.09.34.35.34,2.43-.01,4.85-.01,7.28,0,.27,0,.36-.06.35-.34-.02-.51,0-1.03.03-1.54.03-.46.39-.83.85-.87.45-.06.89.19,1.06.62.05.1.04.23.17.3.63.31,1.25.63,1.89.95"/></g></g></svg>