<?xml version="1.0" encoding="UTF-8"?><svg id="_圖層_1" xmlns="http://www.w3.org/2000/svg" viewBox="0 0 36.61 19.52"><defs><style>.cls-1{fill:#ef821d;}.cls-1,.cls-2{stroke-width:0px;}.cls-2{fill:#3d61ab;}</style></defs><path class="cls-2" d="m30.43,6.07h0c-1.24-2.91-4.62-4.27-7.53-3.03-.8.34-1.53.87-2.1,1.53-.52.68-.98,1.42-1.38,2.19-.24.35-.15.8.18,1.03.16.11.35.15.54.11.19-.04.36-.15.46-.31.02-.03.04-.06.05-.09.12-.2.23-.4.34-.59.15-.26.3-.52.45-.77.56-.96,1.46-1.66,2.54-1.95,2.27-.64,4.64.69,5.28,2.97s-.69,4.64-2.97,5.28c-1.12.31-2.33.16-3.33-.43-1.43-.82-2.86-1.64-4.28-2.47l-.75,1.24c1.48.85,2.96,1.7,4.44,2.55,1.34.74,2.88.92,4.35.5,1.47-.42,2.69-1.39,3.43-2.73.85-1.54.95-3.42.26-5.04Z"/><path class="cls-2" d="m30.17,11.11c-.74,1.34-1.96,2.31-3.43,2.73-1.47.42-3.02.24-4.35-.5-1.48-.85-2.96-1.69-4.44-2.55l.75-1.24c1.43.82,2.86,1.65,4.28,2.47,1,.59,2.21.74,3.33.43,2.27-.64,3.61-3.01,2.97-5.28s-3.01-3.6-5.28-2.97c-1.08.29-1.98.99-2.54,1.95-.15.26-.3.51-.45.77-.11.19-.22.39-.34.59-.02.03-.03.06-.05.09-.11.16-.27.27-.46.31-.19.04-.38,0-.54-.11-.33-.22-.42-.68-.18-1.03.4-.77.86-1.51,1.38-2.19.57-.66,1.29-1.19,2.1-1.53,2.91-1.24,6.29.12,7.53,3.03h0c.69,1.62.6,3.5-.26,5.04Z"/><path class="cls-1" d="m10.75,17.67c2.16.27,3.95-.5,5.32-2.27.4-.58.78-1.21,1.11-1.84.24-.35.16-.8-.17-1.03-.33-.23-.78-.15-1.01.18-.02.03-.04.07-.06.11-.11.19-.21.37-.31.54-.16.28-.32.55-.48.82-.56.95-1.45,1.64-2.52,1.93-2.27.65-4.65-.68-5.29-2.95-.65-2.27.68-4.65,2.95-5.29,1.12-.32,2.35-.16,3.35.43,1.33.77,2.67,1.54,4,2.31l.75-1.24-4.01-2.32c-.88-.54-1.87-.82-2.88-.82-.37,0-.74.04-1.11.11-1.87.49-3.33,1.65-4.11,3.25-.72,1.48-.75,3.13-.09,4.66.76,1.92,2.5,3.23,4.56,3.43Z"/><g id="_组_611"><g id="_组_611-2"><g id="_路径_714"><path class="cls-1" d="m4.16,3.83c.19.16.38.32.56.49.28.24.32.67.07.95-.24.28-.67.32-.95.07-.39-.32-.77-.65-1.14-.99-.27-.26-.28-.68-.03-.95.24-.25.63-.28.9-.07.2.16.39.33.58.5h0Z"/></g><g id="_路径_715"><path class="cls-1" d="m7.43.27c.22-.29.64-.35.94-.13.1.07.17.17.22.28.19.47.36.94.5,1.42.1.34-.1.71-.44.81-.34.12-.71-.04-.85-.37-.18-.46-.34-.93-.48-1.4-.08-.21-.03-.45.12-.62"/></g><g id="_路径_716"><path class="cls-1" d="m.26,9.58c-.23-.17-.32-.47-.22-.74.06-.27.31-.46.59-.45.58.03,1.16.14,1.72.33.28.13.44.44.37.74-.04.31-.3.55-.61.55-.58-.04-1.16-.16-1.72-.33-.05-.02-.09-.05-.13-.09"/></g></g></g><g id="_组_612"><g id="_组_611-3"><g id="_路径_714-2"><path class="cls-2" d="m32.45,15.69c-.19-.16-.38-.32-.56-.49-.27-.25-.3-.66-.06-.94.24-.28.66-.31.94-.08.39.32.77.65,1.14.99.27.25.29.67.04.94,0,0,0,0,0,0-.24.27-.64.3-.92.08-.2-.16-.39-.33-.58-.5h0Z"/></g><g id="_路径_715-2"><path class="cls-2" d="m29.18,19.25c-.22.29-.64.35-.94.13-.1-.07-.17-.17-.22-.28-.19-.46-.36-.94-.5-1.42-.1-.34.1-.71.44-.81.34-.12.71.04.85.37.18.46.33.93.48,1.39.08.21.03.45-.12.62"/></g><g id="_路径_716-2"><path class="cls-2" d="m36.35,9.94c.23.17.32.47.22.74-.07.27-.31.46-.59.45-.58-.03-1.16-.15-1.72-.33-.28-.13-.44-.43-.37-.74.04-.31.3-.55.61-.55.58.04,1.16.16,1.72.33.05.02.09.05.13.09"/></g></g></g></svg>