<?xml version="1.0" encoding="UTF-8"?><svg id="_圖層_1" xmlns="http://www.w3.org/2000/svg" viewBox="0 0 52.01 45.72"><defs><style>.cls-1{fill:#fff;stroke-width:0px;}</style></defs><path class="cls-1" d="m51.89,33.48c-.51-3.75-2.98-6.95-6.48-8.39-.2-.09-.44-.1-.59-.28.08-.06.15-.12.23-.19,2.46-2.09,2.77-5.78.67-8.25-2.05-2.44-5.68-2.77-8.13-.73-1.12.88-1.86,2.17-2.05,3.58-.35,2.15.53,4.32,2.28,5.63-.93.32-1.8.77-2.6,1.33-.02.02-.05.05-.08.07-.19.12-.44.07-.56-.11-1.25-1.21-2.75-2.13-4.39-2.72-.11-.04-.3,0-.33-.19.26-.18.51-.38.74-.6,2.72-2.53,2.88-6.79.35-9.51-2.53-2.72-6.79-2.88-9.51-.35-.32.31-.62.65-.87,1.01-2.17,3.08-1.43,7.34,1.65,9.51-1.84.6-3.52,1.62-4.9,2.97-.1.1-.18.14-.31.04-.84-.61-1.77-1.1-2.75-1.45.26-.2.51-.43.73-.67,2.22-2.4,2.07-6.15-.34-8.37-.11-.1-.23-.2-.35-.29-2.57-1.95-6.23-1.45-8.18,1.12-1.95,2.57-1.45,6.23,1.12,8.18,0,0,0,0,0,0h0s0,0,0,0c-.05.04-.11.07-.17.1-3.7,1.33-6.37,4.6-6.92,8.49-.17.92.22,1.35,1.11,1.35,16.52,0,33.04-.01,49.56-.01.9,0,1.24-.37,1.08-1.27Zm-14.71-13.35c.01-2.27,1.86-4.11,4.13-4.1s4.11,1.86,4.1,4.13-1.86,4.11-4.13,4.1-4.11-1.86-4.1-4.13Zm-16.18-2.41s0,0,0-.01c-.01-2.76,2.22-5.01,4.98-5.02,2.76-.01,5.01,2.22,5.02,4.98s-2.22,5.01-4.98,5.02c0,0,0,0,0,0-2.76.01-5-2.21-5.01-4.97Zm-14.37,2.4c.02-2.27,1.88-4.1,4.15-4.08.03,0,.07,0,.1,0,2.25.05,4.03,1.92,3.98,4.17-.03,2.26-1.88,4.08-4.15,4.06-2.27-.02-4.1-1.88-4.08-4.15Zm6.7,12.96h-5.48c-1.81,0-3.62,0-5.43,0-.35,0-.48-.04-.37-.45.25-.94.66-1.84,1.2-2.65,2.76-4.14,8.35-5.26,12.49-2.51.23.15.3.25.11.51-1.03,1.42-1.73,3.06-2.04,4.79-.06.34-.25.3-.48.3Zm2.18-.02c.89-4.79,4.94-8.36,9.8-8.64,5.39-.37,10.22,3.33,11.25,8.64H15.49Zm34.21.02c-1.85-.01-3.69,0-5.54,0h0c-1.81,0-3.62,0-5.43,0-.33,0-.46-.06-.53-.43-.32-1.67-1.01-3.26-2-4.64-.21-.29-.14-.38.11-.55.81-.53,1.69-.93,2.63-1.17,4.83-1.29,9.78,1.58,11.07,6.41.07.3.01.38-.3.38Z"/><polygon class="cls-1" points="7.23 24.81 7.22 24.82 7.23 24.82 7.23 24.81"/></svg>