<?xml version="1.0" encoding="utf-8"?>
<!-- Generator: Adobe Illustrator 27.9.3, SVG Export Plug-In . SVG Version: 9.03 Build 53313)  -->
<svg version="1.1" id="_圖層_1" xmlns="http://www.w3.org/2000/svg" xmlns:xlink="http://www.w3.org/1999/xlink" x="0px" y="0px"
	 viewBox="0 0 37.8 35.3" style="enable-background:new 0 0 37.8 35.3;" xml:space="preserve">
<style type="text/css">
	.st0{fill:#FFFFFF;}
</style>
<g>
	<path class="st0" d="M23.5,16.7c0-0.1,0-0.1,0-0.2c0,0.1,0,0.2,0,0.3C23.5,16.8,23.5,16.7,23.5,16.7z"/>
	<path class="st0" d="M16.9,14.4c0-0.2,0-0.5-0.1-0.7c0,0.1,0,0.3,0,0.4c0,1,0,2.1,0,3.1c0,0.1,0,0.2,0,0.3c0,0,0,0,0,0
		C16.9,16.5,16.9,15.5,16.9,14.4z"/>
	<path class="st0" d="M20.9,16.4c0,0.2,0,0.4,0.1,0.6c0-0.1,0-0.3,0-0.4c0-1,0-2,0-3.1c0-0.1,0-0.3-0.1-0.4c0,0,0,0.1,0,0.1
		C20.9,14.4,20.9,15.4,20.9,16.4z"/>
	<path class="st0" d="M14.4,13.9c0-0.1,0-0.2,0.1-0.4c0,0,0,0,0,0c-0.1,0.2-0.1,0.3-0.1,0.5c0,0.3-0.1,0.6-0.2,0.8
		C14.3,14.6,14.4,14.3,14.4,13.9C14.4,13.9,14.4,13.9,14.4,13.9z"/>
	<path class="st0" d="M33.4,2.1c-4.8,0-9.7,0-14.5,0c-4.8,0-9.7,0-14.5,0c-0.1,0-0.3,0-0.4,0C2.2,2.2,0.8,3.8,0.9,5.6v18.3
		c0,0.2,0,0.4,0,0.5c0.2,1.8,1.8,3.2,3.6,3h8.8l-0.1,0.3c-0.2,0.6-0.5,2.6-0.7,3.2c-0.1,0.2-0.1,0.2-0.3,0.2h0c-0.5,0-3.6,0-3.6,0
		c-0.2,0-0.4,0-0.5,0c-0.4,0.1-0.8,0.4-0.8,0.9c0,0.4,0.3,0.8,0.7,0.9c0.2,0.1,0.4,0.1,0.6,0.1h10.6l0,0h10.2c0.2,0,0.4,0,0.6-0.1
		c0.4-0.1,0.7-0.5,0.7-0.9c0-0.4-0.3-0.8-0.8-0.9c-0.2,0-0.4,0-0.5,0h-3.6c0,0-0.1,0-0.1,0c0,0,0,0,0-0.1c-0.2-0.6-0.5-2.7-0.7-3.3
		l-0.2-0.4h8.9c0.1,0,0.3,0,0.4,0c1.8-0.1,3.2-1.7,3.1-3.5V5.6c0-0.1,0-0.3,0-0.4C36.8,3.4,35.2,2,33.4,2.1z M23.3,31.2
		c-0.8,0-8.3,0-8.9,0l0,0h0v0c0.3-0.7,0.5-2.8,0.8-3.4l0.1-0.1c0.1-0.2,0.1-0.2,0.2-0.2c1,0,5.7,0,6.8,0h0.1c0.1,0,0.1,0,0.2,0.1
		C22.8,28.3,23.1,30.5,23.3,31.2L23.3,31.2z M35,23.9c0,1.2-0.5,1.7-1.7,1.7H4.5c-1.2,0-1.7-0.5-1.7-1.7V5.8c0-1.2,0.5-1.7,1.7-1.7
		h6.6v0h22.1c1.3,0,1.8,0.5,1.8,1.8V23.9z"/>
	<path class="st0" d="M7,7.9C6.7,7.9,6.6,8,6.6,8.3c0,0.5,0,0.9,0,1.4c0,0.4-0.3,0.8-0.7,0.8c-0.4,0-0.8-0.3-0.8-0.7
		c0-0.1,0-0.1,0-0.2c0-0.8,0-1.6,0-2.4c0-0.6,0.3-0.8,0.9-0.8h1.4l0,0c0.5,0,0.9,0,1.4,0c0.4,0,0.8,0.3,0.8,0.7
		c0,0.4-0.3,0.8-0.7,0.8c0,0-0.1,0-0.1,0C8.2,7.9,7.6,7.9,7,7.9z"/>
	<path class="st0" d="M8.9,7.9c0.4,0,0.7-0.4,0.7-0.8c0-0.4-0.4-0.7-0.8-0.7c-0.5,0-0.9,0-1.4,0l0,0H6c-0.6,0-0.9,0.3-0.9,0.8
		c0,0.8,0,1.6,0,2.4c0,0.1,0,0.1,0,0.2c0,0.4,0.4,0.7,0.8,0.7c0.4,0,0.7-0.4,0.7-0.8c0-0.5,0-0.9,0-1.4C6.6,8,6.7,7.9,7,7.9
		c0.6,0,1.1,0,1.7,0C8.8,7.9,8.9,7.9,8.9,7.9z"/>
	<path class="st0" d="M32.6,7.2c0,0.8,0,1.7,0,2.5c0,0.4-0.3,0.8-0.7,0.8c-0.4,0-0.8-0.4-0.8-0.8c0-0.5,0-1,0-1.5
		c0-0.2-0.1-0.3-0.3-0.3c-0.6,0-1.2,0-1.8,0c-0.4,0.1-0.8-0.3-0.9-0.7c0,0,0,0,0-0.1c0-0.4,0.3-0.8,0.8-0.8c0,0,0.1,0,0.1,0
		c0.5,0,0.9,0,1.4,0l0,0c0.5,0,0.9,0,1.4,0c0.4,0,0.8,0.3,0.8,0.7C32.6,7.1,32.6,7.1,32.6,7.2z"/>
	<path class="st0" d="M31.8,6.4c-0.5,0-0.9,0-1.4,0l0,0c-0.5,0-0.9,0-1.4,0c0,0-0.1,0-0.1,0c-0.4,0-0.8,0.3-0.8,0.8c0,0,0,0,0,0.1
		c0.1,0.4,0.4,0.7,0.9,0.7c0.6,0,1.2,0,1.8,0c0.2,0,0.3,0.1,0.3,0.3c0,0.5,0,1,0,1.5c0,0.4,0.3,0.8,0.8,0.8c0.4,0,0.7-0.4,0.7-0.8
		c0-0.9,0-1.7,0-2.5c0,0,0-0.1,0-0.1C32.6,6.6,32.2,6.3,31.8,6.4z"/>
	<path class="st0" d="M13.2,14c0-0.8,0.5-1.6,1.3-1.9c1.2-0.4,2.2,0.4,2.4,1.7c0,0.2,0.1,0.4,0.1,0.7c0,1,0,2.1,0,3.1c0,0,0,0,0,0
		c0.2,0.5,0.6,0.7,1.1,0.4c0.2-0.2,0.4-0.5,0.3-0.8c0-1.2,0-2.4,0-3.6c0-1.2,0.8-2.2,1.8-2.2c1.1,0.1,2,1,1.9,2.1c0,0,0,0,0,0
		c0,1,0,2,0,3c0,0.6,0.2,1,0.7,1c0.4,0,0.7-0.3,0.8-0.8c0-0.1,0-0.2,0-0.3c0.1-0.9,0.8-1.7,1.8-1.7c1,0,1.9,0,2.9,0
		c0.4-2.3-0.3-4.6-2-6.3c-0.2-0.2-0.4-0.4-0.7-0.6c-2-1.3-4.6-0.8-5.9,1.1c-0.3,0.4-0.5,0.9-0.7,1.5c0,0-0.1,0-0.1-0.1
		c0-0.1-0.1-0.2-0.1-0.3c-0.2-0.7-0.6-1.2-1.1-1.7c-2.2-2-5.1-1.6-6.8,0.8c-1.1,1.6-1.6,3.6-1.3,5.5c1,0,1.9,0,2.9,0
		C12.9,14.8,13.1,14.5,13.2,14z"/>
	<path class="st0" d="M24.6,16.8c0,0.8-0.5,1.6-1.3,1.9c-1.2,0.4-2.2-0.3-2.4-1.7c0-0.2-0.1-0.4-0.1-0.6c0-1,0-2,0-3.1
		c0-0.1,0-0.1,0-0.1c-0.1-0.3-0.3-0.4-0.6-0.5c-0.5-0.1-0.8,0.3-0.8,0.9c0,1.2,0,2.4,0,3.6c0.1,1.1-0.7,2.1-1.8,2.2
		c-1.1-0.1-2-1-1.9-2.1c0,0,0,0,0-0.1c0-1.1,0-2.2,0-3.2c0-0.3-0.2-0.6-0.5-0.7c-0.3-0.1-0.6,0-0.8,0.3c0,0.1-0.1,0.2-0.1,0.4
		c0,0,0,0,0,0c0,0.4-0.1,0.7-0.3,1c-0.3,0.6-0.9,1.1-1.6,1.1c0,0,0,0,0,0c-0.8,0-1.6,0-2.4,0c0.4,1.3,1.1,2.5,2,3.5
		c1.4,1.6,3.2,2.8,5.2,3.6c1.7,0.7,1.7,0.7,3.3-0.1c0.1,0,0.1-0.1,0.2-0.1c2.1-0.9,3.9-2.2,5.3-4c0.7-0.9,1.2-1.9,1.5-2.9
		c-0.8,0-1.6,0-2.4,0C24.9,16,24.6,16.3,24.6,16.8z"/>
	<path class="st0" d="M27.9,16C27.9,16,27.9,16,27.9,16C27.9,16,27.9,16,27.9,16L27.9,16z"/>
</g>
</svg>
