<?xml version="1.0" encoding="UTF-8"?><svg id="_圖層_1" xmlns="http://www.w3.org/2000/svg" xmlns:xlink="http://www.w3.org/1999/xlink" viewBox="0 0 146.15 127.09"><defs><style>.cls-1{fill:#4e73a8;}.cls-1,.cls-2,.cls-3,.cls-4,.cls-5,.cls-6,.cls-7,.cls-8,.cls-9,.cls-10,.cls-11,.cls-12,.cls-13,.cls-14,.cls-15,.cls-16,.cls-17,.cls-18,.cls-19,.cls-20,.cls-21,.cls-22,.cls-23,.cls-24,.cls-25,.cls-26,.cls-27,.cls-28{stroke-width:0px;}.cls-2{fill:#ffbf00;}.cls-3{fill:#2e6adb;}.cls-4{fill:#e70;}.cls-29{clip-path:url(#clippath-2);}.cls-30{isolation:isolate;}.cls-5{fill:#5d81ec;}.cls-31{clip-path:url(#clippath-6);}.cls-6{fill:#86b1ef;}.cls-7{fill:#ffa607;}.cls-8{fill:#ffeddb;}.cls-9{fill:#ef821d;}.cls-10{fill:#ebf3ff;}.cls-11{fill:none;}.cls-12{fill:#fa6e61;}.cls-32{clip-path:url(#clippath-7);}.cls-33{clip-path:url(#clippath-1);}.cls-34{clip-path:url(#clippath-4);}.cls-13{fill:#333;}.cls-14{fill:#132444;}.cls-15{fill:#2d4c7f;}.cls-16{fill:#fff;}.cls-17{fill:#3d61ab;}.cls-18{fill:#335aa9;}.cls-19{fill:#e95505;}.cls-35{clip-path:url(#clippath);}.cls-36{clip-path:url(#clippath-3);}.cls-20{fill:#fedcd6;}.cls-37{clip-path:url(#clippath-8);}.cls-21{fill:#ebc0b8;}.cls-22{fill:#26395e;}.cls-23{fill:#77a3e8;}.cls-38{clip-path:url(#clippath-5);}.cls-24{fill:#f4d2cc;}.cls-25{fill:#141d30;}.cls-26{fill:#b8d0ff;}.cls-27{fill:#ff993a;}.cls-28{fill:#557abc;}</style><clipPath id="clippath"><rect class="cls-11" x="17.77" y="36.06" width="101.24" height="55.49"/></clipPath><clipPath id="clippath-1"><rect class="cls-11" x="126.35" y="71.52" width="10.06" height="35.66"/></clipPath><clipPath id="clippath-2"><rect class="cls-11" x="116.68" y="71.62" width="19.02" height="28.33"/></clipPath><clipPath id="clippath-3"><rect class="cls-11" x="125.14" y="58.3" width="11.5" height="15.39"/></clipPath><clipPath id="clippath-4"><rect class="cls-11" x="107.73" y="51.19" width="17.54" height="18.07"/></clipPath><clipPath id="clippath-5"><rect class="cls-11" x="11.34" y="84.79" width="20.36" height="11.42"/></clipPath><clipPath id="clippath-6"><rect class="cls-11" x="11.67" y="72.87" width="9.35" height="15.28"/></clipPath><clipPath id="clippath-7"><rect class="cls-11" x="24.02" y="78.24" width="12.11" height="9.31"/></clipPath><clipPath id="clippath-8"><rect class="cls-11" x="71.91" y="79.27" width="14.35" height="20.17"/></clipPath></defs><g id="_组_568"><g id="_路径_539"><path class="cls-25" d="m134.06,108.25c.32-.58.21-.98.1-1.56.58-.09,1.14-.28,1.66-.54l.69.83c.05.07.09.14.12.22.06.18.03.38-.07.53-.1.19-.25.36-.42.5-.06.05-.12.1-.18.15-.15.1-.29.22-.41.36-.08.08-.16.17-.23.25-.39.42-.81.82-1.27,1.17-.3.24-.71.47-1.01.31-.13-.07.5-1.27,1.02-2.23"/></g><g id="_组_567"><g id="_联合_3"><path class="cls-8" d="m81.12,2.8c.06,0,.11,0,.17,0,.28,0,.56,0,.84,0,33.55,0,60.75,27.2,60.75,60.75s-27.2,60.75-60.75,60.75-60.75-27.2-60.75-60.75c0-.7.01-1.4.04-2.1-.02-.14-.04-.28-.04-.42V5.32c0-1.39,1.13-2.52,2.52-2.52h57.22Z"/></g><g id="_路径_525"><path class="cls-26" d="m30,40.99l-.4-2.68c-.11-.63-.7-1.06-1.34-.95l-.87.13c-.54.09-1.08-.17-1.34-.65-.2-.36-.41-.7-.65-1.04-.31-.44-.3-1.04.03-1.46l.52-.68c.38-.48.29-1.17-.19-1.55-.02-.01-.04-.03-.05-.04l-2.25-1.6c-.53-.37-1.25-.26-1.65.25l-.52.68c-.34.44-.91.62-1.44.46-.4-.12-.81-.22-1.22-.29-.54-.09-.96-.51-1.04-1.05l-.13-.83c-.11-.63-.71-1.06-1.34-.95l-2.78.42c-.63.08-1.08.67-1,1.3,0,0,0,0,0,0l.13.83c.08.54-.2,1.07-.69,1.31-.37.19-.73.4-1.08.64-.46.31-1.06.3-1.51-.02l-.7-.5c-.53-.37-1.25-.26-1.65.25l-1.68,2.19c-.38.48-.29,1.18.19,1.56.02.01.03.02.05.03l.7.5c.45.31.64.87.47,1.39-.13.39-.23.78-.31,1.18-.11.54-.55.94-1.09,1.02l-.86.13c-.63.08-1.08.67-1,1.3l.4,2.68c.11.63.7,1.05,1.33.95,0,0,0,0,0,0l.86-.13c.54-.09,1.08.17,1.35.65.19.36.41.71.64,1.04.31.44.3,1.04-.04,1.46l-.52.68c-.38.48-.29,1.18.2,1.56.01.01.03.02.05.03l2.25,1.6c.53.37,1.25.26,1.65-.25l.52-.68c.34-.44.91-.62,1.44-.46.4.12.81.22,1.22.29.54.09.96.51,1.05,1.04l.13.83c.11.63.7,1.06,1.34.95l2.78-.42c.63-.08,1.08-.67,1-1.3h0s-.13-.83-.13-.83c-.08-.54.2-1.06.69-1.31.37-.19.73-.4,1.08-.64.46-.31,1.06-.3,1.52.02l.7.49c.53.37,1.25.26,1.65-.25l1.68-2.19c.38-.48.29-1.18-.19-1.56-.02-.01-.03-.02-.05-.04l-.7-.5c-.44-.31-.63-.87-.46-1.39.13-.39.23-.78.31-1.18.11-.54.55-.95,1.09-1.02l.86-.13c.63-.08,1.08-.67,1-1.3,0,0,0,0,0,0m-11.92,6.65c-3.86.89-7.56-1.74-7.82-5.55-.21-3,1.92-5.77,4.95-6.47,3.85-.89,7.56,1.74,7.82,5.55.2,2.99-1.92,5.77-4.95,6.47"/></g><g id="_直线_5"><line class="cls-11" x1="66.93" y1="59.76" x2="58.23" y2="68.79"/></g><g id="_组_534"><g id="_路径_527"><path class="cls-15" d="m63.54,95.95v12.51h5.03v-4.72c0-1.65,1.34-2.99,2.99-2.99s2.99,1.34,2.99,2.99v4.72h5.04v-12.51h-16.05Z"/></g><g id="_矩形_256"><rect class="cls-1" x="47.1" y="107.67" width="48.93" height="3.3"/></g><g id="_矩形_257"><rect class="cls-1" x="14.16" y="33.8" width="114.81" height="64.26"/></g><g id="_矩形_258"><rect class="cls-10" x="17.77" y="36.06" width="107.59" height="55.49"/></g><g class="cls-35"><g id="_组_509"><g id="_路径_528"><path class="cls-10" d="m117.56,91.23c-4.26-1.03-8.33-2.69-12.3-4.53-3.98-1.85-7.98-3.7-11.9-5.67-21.04-10.57-39.74-26.33-54.21-44.97h-21.37v55.49h101.25c-.49-.1-.97-.21-1.45-.33"/></g></g></g><g id="_矩形_260"><rect class="cls-15" x="17.7" y="91.55" width="107.73" height="1.02"/></g></g><g id="_组_535"><g id="_路径_529"><path class="cls-17" d="m108.23,46.94c-7.32-7.72-19.51-8.05-27.23-.73-.25.24-.5.48-.73.73l-8.7,9.03-8.7-9.03c-7.32-7.72-19.51-8.05-27.23-.74-.25.24-.5.48-.74.74-7.71,8-7.71,21.03,0,29.03,7.33,7.72,19.54,8.04,27.26.7.24-.23.47-.46.7-.7l8.7-9.03,8.7,9.03c7.33,7.72,19.54,8.04,27.26.7.24-.23.47-.46.7-.7,7.72-8.14,7.72-20.9,0-29.03m-50.64,23.55c-4.55,4.8-12.14,5.01-16.94.46-.16-.15-.31-.3-.46-.46-4.8-5.06-4.8-13,0-18.07,4.55-4.8,12.14-5.01,16.94-.46.16.15.31.3.46.46l8.7,9.03-8.7,9.03Zm8.7-9.03l-8.7,9.03m45.35,0c-4.56,4.8-12.16,5-16.96.44-.15-.14-.3-.29-.44-.44l-8.7-9.03,8.7-9.03c4.55-4.8,12.14-5.01,16.94-.46.16.15.31.3.46.46,4.8,5.06,4.8,13,0,18.07"/></g><g id="_路径_530"><path class="cls-17" d="m83.42,68.34l-17.66-18.34-5.86,4.85,18.04,18.61,5.47-5.12Z"/></g><g id="_路径_531"><path class="cls-6" d="m108.64,47.38c-2.03,1.57-3.97,3.26-5.49,5.26,4.61,5.09,4.52,12.87-.2,17.85-1.84,1.93-4.26,3.19-6.89,3.6,1.81,2.09,3.45,4.32,4.88,6.69,2.76-1.03,5.26-2.67,7.3-4.8,7.56-7.97,7.74-20.41.41-28.59"/></g><g id="_路径_532"><path class="cls-6" d="m34.49,47.43c2.03,1.57,3.97,3.26,5.49,5.26-4.61,5.09-4.52,12.87.2,17.85,1.84,1.93,4.26,3.19,6.89,3.6-1.81,2.09-3.45,4.32-4.88,6.69-2.76-1.03-5.26-2.67-7.3-4.8-7.56-7.97-7.74-20.41-.41-28.59"/></g><g id="_路径_533"><path class="cls-23" d="m56.62,71.46l17.72-18.29,5.79,4.8-17.87,18.71-5.65-5.23Z"/></g></g><g id="_路径_538"><path class="cls-3" d="m110.18,68.59v46.05c0,.31.25.57.57.57,0,0,0,0,0,0,.31,0,.57-.26.56-.58v-3.42l7.56-.04v3.43c0,.31.25.57.56.57,0,0,0,0,0,0,.31,0,.57-.26.56-.58v-46.05c0-.31-.25-.57-.56-.57,0,0,0,0,0,0-.32,0-.57.26-.56.58v4.28l-7.56.04v-4.28c0-.31-.25-.57-.56-.57,0,0,0,0,0,0-.31,0-.57.26-.56.58m1.13,37.95l7.56-.04v3.68l-7.56.04v-3.68Zm0-4.67l7.56-.04v3.67l-7.56.04v-3.68Zm0-4.67l7.56-.04v3.68l-7.56.04v-3.68Zm0-4.67l7.56-.04v3.68l-7.56.04v-3.68Zm0-4.67l7.56-.04v3.68l-7.56.04v-3.68Zm0-4.67l7.56-.04v3.68l-7.56.04v-3.67Zm0-4.67l7.56-.04v3.68l-7.56.04v-3.67Zm0-4.67l7.56-.04v3.67l-7.56.04v-3.68Z"/></g><g id="_路径_540"><path class="cls-18" d="m130.05,71.52c1.68,2.26,2.43,5.14,2.61,8.06.52,8.56.09,10.57.62,13.31,1.03,5.28,2.45,9.2,3.13,13.52-1.49.62-.91.45-2.93,1.17-2.23-7.8-3.84-10.08-5.37-15.43-1.57-5.49-2.06-13.11-1.61-18.99,0-.19.05-.38.17-.53.12-.1.26-.17.41-.2,1.06-.31,2.13-.61,2.96-.91"/></g><g id="_路径_541"><path class="cls-22" d="m135.76,106.67c-.32-.96-.59-2.05-.86-3.11-.26-1.06-.54-2.15-.85-3.1-.69-1.96-1.27-3.99-1.72-6.02-.58-2.93-.67-6-.76-8.96l-.17-5.9h.13s.17,5.9.17,5.9c.09,2.96.17,6.03.76,8.94.45,2.03,1.03,4.05,1.72,6.01.32.96.59,2.05.85,3.11.26,1.06.54,2.15.85,3.1l-.12.04Z"/></g><g class="cls-33"><g id="_组_512"><g id="_路径_542"><path class="cls-17" d="m129.11,82.6c1.74.26,1.47,2.44,1.33,3.69-.2,1.91.17,4.12.63,5.98.24,1,.57,1.99.89,2.97.88,2.75,1.82,5.51,2.4,8.34.16.81.6,2.52.23,3.6.76-.29.71-.31,1.83-.77-.68-4.32-2.1-8.23-3.13-13.52-.54-2.74-.11-4.76-.62-13.31-.18-2.91-.92-5.79-2.61-8.06-.84.3-1.9.6-2.96.91-.15.03-.29.1-.41.2-.12.15-.18.34-.17.53-.26,3.68-.2,7.37.17,11.04.6-.88,1.43-1.75,2.43-1.6"/></g></g></g><g id="_路径_543"><path class="cls-25" d="m116.36,99.21c-1.56,1.31-4.28,1.69-3.26,2.08s1.03.26,2.81.13,1.81.16,1.86-.46c0-.62-.03-1.24-.1-1.86,0,0,.25-1.19-1.31.12"/></g><g id="_路径_544"><path class="cls-17" d="m129.66,71.51l-9.22,7.53c-.58.43-1.1.94-1.54,1.52-.71,1.01-.96,2.29-1.16,3.52-.85,5.06-1.38,10.16-1.91,15.25.7.21,1.4.42,2.1.63,1.79-4.44,3.09-9.06,3.87-13.78.12-.73.24-1.48.6-2.12.61-1.1,1.76-1.66,2.83-2.09,6.45-2.57,7.36-2.45,8.91-4.16,2.13-2.36,1.58-4.25,1.25-5.82-1.69-.69-3.73-.58-5.72-.47"/></g><g class="cls-29"><g id="_组_515"><g id="_路径_545"><path class="cls-18" d="m135.38,71.98c-.4-.16-.82-.28-1.24-.36.29.42.51.88.65,1.37.47,1.6.41,3.44-.9,4.67-1.85,1.72-4.51,2.23-6.9,2.68-2.43.46-4.98,1.02-6.33,3.3-1.74,2.94-1.62,6.61-2.08,9.9-.18,1.26-.46,4.89-1.9,6.04.42.13.83.25,1.25.38,1.79-4.44,3.09-9.06,3.87-13.78.12-.73.24-1.48.6-2.12.61-1.1,1.76-1.66,2.83-2.09,6.45-2.57,7.36-2.45,8.91-4.16,2.13-2.36,1.58-4.25,1.25-5.82"/></g></g></g><g id="_路径_546"><path class="cls-27" d="m128.59,58.4c-1.16.08-2.27,4.54-2.39,5.72-.16,1.54-.95,5.58-1.06,8.4-.03.2.01.41.12.58.14.14.33.22.53.23,3.61.56,7.28.47,10.85-.28-1.28-3.77-.99-7.89-1.5-11.85-.11-.81-.28-1.68-.86-2.23-.6-.57-1.48-.66-2.29-.68-1.34-.04-2.68.07-3.39.12"/></g><g class="cls-36"><g id="_组_518"><g id="_路径_549"><path class="cls-9" d="m135.14,61.2c-.1-.81-.28-1.68-.86-2.23-.53-.5-1.27-.63-1.99-.67-.3.31-.57.64-.81,1-.43.79-.79,1.63-1.06,2.49-.16.59-.23,1.19-.41,1.78-.23,1.29-.71,2.75-1.97,3.38-.69.34-1.65.4-2.23-.06-.32,1.87-.54,3.75-.65,5.64-.03.2.01.41.12.58.14.14.33.22.53.23,3.61.56,7.28.47,10.85-.28-1.28-3.77-.99-7.89-1.5-11.85"/></g></g></g><g id="_路径_550"><path class="cls-20" d="m129.39,56.72c0,.67-.13,1.34-.41,1.95.45.32,1.06.3,1.62.23.28-.03.54-.09.8-.2.06-.02.11-.08.09-.14.02-1.2.03-2.4.01-3.61-.54.18-1.15.1-1.7.26-.13.02-.22.12-.24.25-.11.41-.17.84-.17,1.26"/></g><g id="_路径_551"><path class="cls-21" d="m130.9,56.88c.4-.58.36-1.29.6-1.93-.54.18-1.15.1-1.7.26-.05.01-.11.04-.15.07-.05.05-.08.11-.09.18-.11.41-.17.84-.17,1.26,0,.37-.04.74-.12,1.1.65-.06,1.25-.41,1.63-.94"/></g><g id="_路径_552"><path class="cls-20" d="m128.66,53.67c-.12.41-.13.84-.24,1.25-.14.56-.47,1.15-.25,1.69.22.44.69.7,1.18.66.48-.05.94-.26,1.29-.6.68-.62,1.07-1.5,1.08-2.42.04-.32-.1-.63-.36-.81-.36-.26-.78-.42-1.22-.49-.67-.13-1.35.31-1.48.72"/></g><g id="_路径_553"><path class="cls-25" d="m129.58,52.45c-.55.13-.95.6-.99,1.16,0,.04,0,.08.03.11.05.06.14.03.2,0,.05-.05.12-.08.2-.09.12.01.15.17.21.27.14.18.36.27.58.24.22.01.44-.04.64-.15.13-.08.23-.2.36-.27.13-.08.3-.07.41.04.11.15-.01.37.08.53.08.1.21.16.33.13.23-.03.43-.19.53-.4.08-.21.09-.45,0-.67-.08-.23-.22-.43-.41-.58-.45-.36-1.09-.38-1.68-.39-.23,0-.49,0-.49.08"/></g><g id="_路径_554"><path class="cls-25" d="m130.16,52.39l-1.69-.18c-.15-.03-.31-.02-.47,0-.21.06-.39.19-.51.37-.28.39-.32.91-.09,1.33.15.31.48.48.82.44.35-.08.52-.45.81-.64.06-.05.14-.07.21-.05.04.02.07.04.11.07.12.08.27.1.41.05.13-.05.25-.14.33-.26.25-.33.28-.77.07-1.13"/></g><g id="_路径_555"><path class="cls-25" d="m131.02,53.5c.12.34.15.7.1,1.05-.01.05-.01.09-.01.14,0,.05.03.11.05.15.11.23.22.45.32.68.4-.28.69-.82.74-1.74,0-.16-.02-.18-.12-.31-.16-.21-.47-.23-.74-.21-.09,0-.18.02-.25.07-.07.05-.12.15-.1.16"/></g><g id="_路径_556"><path class="cls-12" d="m131.12,54.75c.11-.21.34-.33.58-.31.41.04.14.83-.52,1.03-.09.04-.19.03-.27-.04-.04-.07-.05-.15-.02-.22.03-.17.11-.33.23-.46"/></g><g id="_路径_557"><path class="cls-2" d="m114.11,49.75c-4.62,1.39-7.42,5.46-6.02,10.11.89,2.97,2.64,4.25,5.94,6.21.78.46,1.15,2.63,1.18,3.19,1.14-.64,2.83-.12,4.43-.61.91-.31,1.85-.51,2.81-.59-.43-.76-.83-3.54-.15-4.16,2.85-2.57,3.53-5.69,2.52-9.06-1.39-4.65-6.1-6.48-10.72-5.09"/></g><g id="_路径_558"><path class="cls-16" d="m119.57,68.65l-.22.05c-.03-.11-.11-.39-.21-.68-.09-.27-.18-.56-.23-.76-.24-.85-1.03-3.93-1.56-6.6-.2.04-.41.06-.61.06-.05,0-.11,0-.16,0,.07.37.13.73.2,1.1.1.59.2,1.14.32,1.67.06.27.13.57.2.88.31,1.37.7,3.08,1,4.78l-.22.04c-.3-1.69-.69-3.4-1-4.77-.07-.31-.14-.6-.2-.88-.12-.53-.22-1.09-.32-1.68-.07-.39-.13-.78-.21-1.16-1.39-.2-3.03-1.2-3.44-2.54-.37-1.2.15-1.55.4-1.65.74-.29,1.93.36,2.4,1.31.39.85.67,1.75.82,2.67.07,0,.14.01.21.01.19,0,.38-.01.56-.05-.32-1.67-.53-3.15-.41-3.77.18-.97.74-1.51,1.49-1.43.85.09,1.76.98,1.74,2.19-.04.88-.44,1.72-1.09,2.31-.41.4-.92.7-1.47.87.48,2.45,1.2,5.31,1.56,6.59.05.2.15.48.23.75.1.31.18.58.21.7m-2.04-8.27c.51-.16.97-.44,1.35-.81.61-.55.98-1.33,1.02-2.15.01-1.06-.8-1.88-1.54-1.96-.63-.06-1.09.39-1.25,1.25-.11.58.09,2.02.41,3.67m-4.15-3.67c-.39.16-.48.65-.26,1.37.38,1.23,1.88,2.16,3.18,2.37-.15-.88-.42-1.73-.79-2.54-.46-.92-1.55-1.43-2.12-1.2,0,0,0,0,0,0"/></g><g class="cls-34"><g id="_组_521"><g id="_路径_559"><path class="cls-7" d="m124.83,54.84c-.41-1.42-1.21-2.68-2.32-3.65.21.35.38.71.54,1.08,1.4,3.47.54,8.23-2.4,10.68-3.42,2.85-7.29-.5-8.92-3.59-1.34-2.53-2.11-5.3-1.16-7.74-2.35,1.96-3.45,4.95-2.47,8.23.89,2.97,2.64,4.25,5.94,6.21.78.46,1.15,2.63,1.18,3.19,1.14-.64,2.83-.12,4.43-.61.91-.31,1.85-.51,2.81-.59-.43-.76-.83-3.54-.15-4.16,2.85-2.57,3.53-5.69,2.52-9.06"/></g></g></g><g id="_路径_560"><path class="cls-19" d="m117.27,72.92c.81,1.26,2.5,1.63,3.76.82.71-.46,1.17-1.22,1.24-2.07l-5,1.25Z"/></g><g id="_路径_561"><path class="cls-4" d="m115.14,69.06l.69,2.62c.27.97,1.28,1.54,2.25,1.27,0,0,0,0,0,0l3.53-.92c.98-.24,1.58-1.23,1.34-2.21,0,0,0,0,0,0l-.69-2.61-7.11,1.86Z"/></g><g id="_路径_562"><path class="cls-20" d="m121.88,69.38c-.61-.05-.89-.1-1.3-.33-.34-.21-.73-.33-1.12-.37-.08,0-.19.06-.17.14.01.06.08.08.14.1.22.07,1,.52.8.44-.54.06-1.09.07-1.63.02-.11-.02-.21-.01-.32.01-.1.03-.26.13-.2.22.07.11,1.07.14,1.6.21-.45.01-.9.02-1.36.03-.11,0-.27.07-.23.17.06.14,1.12.14,1.68.21l-1.29.08c-.17.01-.49.11-.35.21.26.18,1.13.1,1.74.12-.27.04-.54.08-.81.12-.09.01-.21.08-.17.16.02.04.07.05.12.06,1.03.13,1.93-.02,3.09,0-.1-.53,0-1.08-.24-1.59"/></g><g id="_路径_563"><path class="cls-27" d="m135.21,60.98c-.1-.67-.26-1.37-.74-1.88s-1.34-.76-1.33-.59c-1.52.72-2.2,2.41-2.52,3.99s-.46,3.25-1.41,4.58c-.25.38-.59.68-.99.89-.43.18-.89.28-1.36.3l-5.57.56c-.02.16-.04.31-.05.47-.07.79-.09,1.59-.05,2.39l1.48.31c1.96.41,3.99.81,5.96.42,2.49-.5,4.56-2.28,5.65-4.43s1.29-4.64.93-7"/></g><g id="_路径_595"><path class="cls-22" d="m15.25,91.69l-.07-.23c-.03-.09-.08-.17-.15-.23-.64-1.26-1.43-2.47-1.93-3.78-.69-1.82-.38-4.02.47-5.76.31-.63-.96-.9-1.27-.28-.79,1.62-.95,3.29-.75,5.02.22,2,1.57,3.7,2.44,5.54.29.62,1.48.39,1.27-.28"/></g><g id="_矩形_269"><rect class="cls-22" x="17.93" y="95.31" width="1.1" height="15.16"/></g><g id="_路径_596"><path class="cls-22" d="m12.91,110.2c2.21-3.08,6.5-3.79,9.58-1.58.61.44,1.14.97,1.58,1.58h1.07c-2.19-3.67-6.94-4.88-10.61-2.69-1.11.66-2.03,1.59-2.69,2.69h1.07Z"/></g><g id="_路径_597"><path class="cls-1" d="m13.47,110.48c0,.55-.44,1-.99,1.01-.55,0-1-.44-1.01-.99,0-.55.44-1,.99-1.01,0,0,0,0,0,0,.55,0,1,.44,1,.99"/></g><g id="_路径_598"><path class="cls-1" d="m19.48,110.48c0,.55-.44,1-.99,1.01-.55,0-1-.44-1.01-.99,0-.55.44-1,.99-1.01,0,0,0,0,0,0,.55,0,1,.44,1,.99"/></g><g id="_路径_599"><path class="cls-1" d="m25.8,110.48c0,.55-.44,1-.99,1.01-.55,0-1-.44-1.01-.99s.44-1,.99-1.01c0,0,0,0,0,0,.55,0,1,.44,1,.99"/></g><g id="_路径_600"><path class="cls-26" d="m17.96,80.62c0,1.71-1.39,3.08-3.1,3.08h-3.96c-1.7.02-3.09-1.35-3.11-3.05-.02-1.7,1.35-3.09,3.05-3.11.02,0,.04,0,.06,0h3.96c1.71,0,3.09,1.37,3.1,3.08"/></g><g id="_路径_601"><path class="cls-26" d="m25.47,94.46c0,1.45-1.18,2.62-2.63,2.62h-9.18c-1.45.01-2.63-1.15-2.65-2.59-.01-1.45,1.15-2.63,2.59-2.65.02,0,.03,0,.05,0h9.18c1.45,0,2.63,1.17,2.63,2.62,0,0,0,0,0,0"/></g><g id="_路径_602"><path class="cls-20" d="m36.2,105.13c.69,1.13,1.75,1.54,2.48,2.32.06.05.1.12.12.19.03.17-.08.33-.24.38-.16.04-.32.04-.48,0l-2.72-.45c-.1-.01-.2-.04-.28-.09-.17-.15-.27-.35-.28-.58-.12-.66-.02-.91-.15-1.56.6.09,1.55-.23,1.55-.23"/></g><g id="_路径_603"><path class="cls-14" d="m38.81,107.64c-.02-.07-.07-.14-.12-.19-.26-.33-.58-.62-.94-.84-.24.27-.58.43-.94.43-.21-.01-.43-.04-.64-.06-.21-.02-.43-.06-.63-.14-.31-.12-.59-.3-.82-.54.01.2.04.41.07.61.01.22.11.43.28.58.09.05.19.08.28.09l2.72.45c.16.04.32.04.48,0,.16-.05.26-.21.24-.38"/></g><g id="_路径_604"><path class="cls-24" d="m36.27,105.26s-.01-.04-.02-.07c-.63-3.41-1.69-9.37-2.3-11.69-.9-3.43-1.06-4.6-6.48-5.96-5.88-1.47-14.15-1.03-14.15-1.03,0,0-.43,2.98-.29,4.73.21,2.55,4.73,3.94,5.63,3.99,2.43.13,11.65-1.89,11.65-1.89,0,0,.5,4.13,1.2,5.98.75,2.01,1.62,2.96,3.42,6.25.45-.11.9-.21,1.35-.32"/></g><g id="_路径_605"><path class="cls-20" d="m34.87,107.61c.2-.04.39-.13.55-.26-.8-3.56-2.11-9.61-2.83-11.98-.59-1.96-.47-3.54-1.9-4.51-.99-.67-2.57-.92-5.12-1.46-6.2-1.31-13.46-1.53-13.46-1.53,0,0,3.01,7.24,3.95,7.25,2.55.04,12.71.24,12.71.24,0,0,.73,4.31,1.53,6.22.84,2.01,1.71,2.95,3.59,6.07.29-.02.69.06.98-.02"/></g><g id="_路径_606"><path class="cls-20" d="m35.43,107.35c.69,1.13,1.75,1.54,2.48,2.32.06.05.1.12.12.19.03.17-.08.33-.24.38-.16.04-.32.04-.48,0-.91-.15-1.81-.3-2.72-.45-.1-.01-.2-.04-.28-.09-.17-.15-.27-.35-.28-.58-.12-.66-.02-.91-.15-1.56.6.09,1.55-.23,1.55-.23"/></g><g id="_路径_607"><path class="cls-14" d="m38.03,109.87c-.02-.07-.07-.14-.12-.19-.26-.33-.58-.62-.94-.84-.24.27-.58.43-.94.43-.21-.01-.43-.04-.64-.06-.21-.02-.42-.06-.63-.14-.31-.11-.59-.3-.82-.54.01.2.04.41.07.61.01.22.11.43.28.58.09.05.18.08.28.09.91.15,1.81.3,2.72.45.16.04.32.04.48,0,.16-.05.26-.21.24-.38"/></g><g id="_路径_608"><path class="cls-17" d="m12.13,84.79s-.74,3.82-.79,5.77c-.14,6.06,6.9,5.9,7.89,6.02,3.18.4,8.92-1.13,8.92-1.13,0,0-.35-2.87,1.39-4.86,1.1-1.27,2.16-1.53,2.16-1.53,0,0-1.73-2.29-10.9-2.37-2.87-.02-8.67-1.91-8.67-1.91"/></g><g class="cls-38"><g id="_组_527"><g id="_路径_609"><path class="cls-17" d="m15.56,92.34c.82-1.74,3.26-1.8,4.91-1.89,2.95-.12,5.91.03,8.84.45.08-.1.15-.2.24-.3,1.1-1.27,2.16-1.53,2.16-1.53,0,0-1.73-2.29-10.9-2.37-2.87-.02-8.67-1.91-8.67-1.91,0,0-.74,3.82-.79,5.77-.09,3.76,2.59,5.13,4.87,5.65-.62-1.16-1.24-2.63-.65-3.88"/></g></g></g><g id="_路径_610"><path class="cls-9" d="m19.63,74.22c.89-.26,1.71.19,2.38,1.05,1.73,2.2,1.17,3.25,1.31,6.44.08,1.91,6.64,2.07,6.64,2.07,0,0-.36.58-.28,1.01.1.58.03.17.38,1.03,0,0-7.45.1-10.18-.34-1.79-.29-1.94-8.02-1.79-8.81.3-1.54,1.09-2.33,1.54-2.46"/></g><g id="_路径_611"><path class="cls-27" d="m22.12,75.45c.63.89,1.34,4.49-.16,5.93-1.41,1.36-.77,5.02-1.15,5.32-1.51,1.16-2.76,1.88-6.91,1.15-.28-.05-2.22-.33-2.22-.33,0,0,.38-4.17.7-5.99.82-4.7,1.61-6.66,2.82-7.59.97-.75,2.58-1.34,3.83-.93,1.25.49,2.33,1.34,3.1,2.44"/></g><g class="cls-31"><g id="_组_530"><g id="_路径_612"><path class="cls-9" d="m18.86,82.12c-.64-1.29-.16-2.4.07-3.86.25-1.59-.95-3.77-.93-5.39-1.02.07-2.01.44-2.82,1.06-1.2.93-2,2.89-2.82,7.59-.32,1.83-.7,5.99-.7,5.99,0,0,1.94.29,2.22.33,4.16.73,5.41.01,6.91-1.15.21-.16.11-1.36.22-2.62-1.38-.19-1.43-.5-2.16-1.96"/></g></g></g><g id="_路径_615"><path class="cls-27" d="m14.78,74.85c.6-.7,2.26-.84,2.92.03,1.69,2.23.46,4.5.06,7.86-.23,1.9,6.9,2.47,6.9,2.47l.15,1.92s-8.07.58-10.45-.84c-2.47-1.47-.82-7.72-.65-8.51.33-1.54.66-2.47,1.06-2.93"/></g><g id="_路径_616"><path class="cls-25" d="m19.74,68.33c-1.25.13-.93,2.12-1.64,2.83-.59.59-1.02.19-1.64.2-.65,0-.72.49-1.27.79-1.22.67-2.02-.85-2.89-1.39-1-.62-2.31-2.07-.94-3.2.29-.24.66-.22.98-.41.37-.22.59-.56.94-.82.93-.71,1.46-.08,2.33.33.75.36,1.57-.23,2.25.29.54.41.68,1.54,1.53,1.38-.06-.02-.12-.05-.18-.08"/></g><g id="_路径_617"><path class="cls-20" d="m19.79,71.86c-.14.67-.13,1.36.02,2.03-.5.24-1.09.1-1.61-.07-.26-.08-.51-.19-.74-.34-.03-.02-.05-.04-.06-.07-.01-.03-.01-.06,0-.09.49-1.06.64-2.11.65-3.47.49.28,1.14.18,1.64.44.05.02.09.06.13.1.03.06.05.13.05.19.03.43,0,.87-.08,1.29"/></g><g id="_路径_618"><path class="cls-21" d="m18.3,71.75c-.27-.65-.1-1.36-.2-2.04.49.28,1.1.31,1.6.57.05.02.09.06.13.1.03.06.05.13.05.19.03.43,0,.87-.08,1.29-.08.37-.11.75-.1,1.12-.63-.19-1.14-.64-1.4-1.24"/></g><g id="_路径_619"><path class="cls-20" d="m21.1,68.95c.04.43.08.81.1,1.24.03.59.12,1.05-.2,1.55-.27.44-.78.67-1.28.59-.46-.09-.87-.36-1.13-.75-.54-.76-.75-1.7-.57-2.62.02-.32.22-.6.51-.74.4-.19.84-.28,1.28-.27.67,0,1.25.56,1.29.99"/></g><g id="_路径_620"><path class="cls-25" d="m21.44,67.58c.52.44.71.87.37,1.26-.22.26-.45.03-.54.02-.12,0-.18.14-.25.23-.17.15-.4.2-.61.13-.22-.03-.42-.12-.59-.26-.11-.1-.18-.24-.3-.33-.11-.11-.28-.12-.41-.04-.14.13-.06.37-.18.51-.09.09-.23.12-.35.07-.22-.08-.39-.27-.43-.5-.04-.23,0-.47.12-.67.12-.21.3-.39.51-.51.51-.28.93.1,1.45-.16.44-.21,1.14.19,1.2.24"/></g><g id="_路径_621"><path class="cls-25" d="m18.85,68.35c-.18.32-.28.67-.3,1.03,0,.05,0,.1-.02.14-.02.05-.05.1-.08.14-.15.21-.3.42-.45.62-.34-.35-.79-.83-.48-1.64.06-.19.15-.37.28-.52.56-.55.92-.02.98.04s.09.17.06.18"/></g><g id="_路径_622"><path class="cls-20" d="m18.25,69.96c-.16-.18-.41-.24-.63-.17-.38.14.08.85.76.88.09,0,.21-.02.24-.1.02-.07,0-.16-.04-.22-.07-.16-.19-.3-.33-.39"/></g><g id="_路径_623"><path class="cls-16" d="m32.17,79.11c0,.24.2.44.44.44.24,0,.44-.2.44-.44,0-.24-.2-.44-.44-.44s-.44.2-.44.44h0"/></g><g id="_路径_624"><path class="cls-22" d="m4.88,113.05l4.19-24.98,1.97.12-5.38,24.87h-.77Z"/></g><g id="_路径_625"><path class="cls-22" d="m45.45,113.05l-4.19-24.98-2.01.06,5.43,24.92h.77Z"/></g><g id="_矩形_272"><rect class="cls-22" x="6.48" y="87.55" width="37.18" height=".92"/></g><g id="_矩形_273"><rect class="cls-5" x="17.55" y="87.02" width="6.76" height=".53"/></g><g id="_路径_626"><path class="cls-5" d="m26.98,77.51h-.76l-2.83,9.51h.91l2.68-9.51Z"/></g><g id="_路径_627"><path class="cls-26" d="m26.98,77.51l-2.95,10.04h11.54l2.9-10.04h-11.49Z"/></g><g class="cls-32"><g id="_组_533"><g id="_路径_628"><path class="cls-26" d="m31.08,84.97c-2.92-1.21-4.25-3.84-4.32-6.72l-2.74,9.31h11.54l.57-1.97c-1.71.24-3.45.02-5.05-.62"/></g></g></g><g id="_路径_629"><path class="cls-3" d="m22.11,64.1c-.01-5.1,4.11-9.25,9.22-9.26s9.25,4.11,9.26,9.22-4.11,9.25-9.22,9.26c0,0-.02,0-.02,0-5.1,0-9.23-4.12-9.24-9.22,0,0,0,0,0,0"/></g><g id="_路径_630"><path class="cls-16" d="m23.87,64.1c-.01-4.13,3.33-7.48,7.46-7.49,4.13-.01,7.48,3.33,7.49,7.46.01,4.13-3.33,7.48-7.46,7.49,0,0-.01,0-.02,0-4.12,0-7.47-3.33-7.47-7.46h0"/></g><g id="_直线_7"><rect class="cls-14" x="31.28" y="57.11" width=".13" height="2.51"/></g><g id="_直线_8"><rect class="cls-14" x="31.28" y="68.58" width=".13" height="2.51"/></g><g id="_直线_9"><rect class="cls-14" x="33.94" y="59.78" width="2.51" height=".13" transform="translate(-32.81 45.87) rotate(-47.93)"/></g><g id="_直线_10"><rect class="cls-14" x="26.24" y="68.3" width="2.51" height=".13" transform="translate(-41.67 42.97) rotate(-47.93)"/></g><g id="_直线_11"><rect class="cls-14" x="24.34" y="64.04" width="2.51" height=".13"/></g><g id="_直线_12"><rect class="cls-14" x="35.84" y="64.04" width="2.51" height=".13"/></g><g id="_直线_13"><rect class="cls-14" x="27.22" y="58.79" width=".13" height="2.51" transform="translate(-34.5 36.96) rotate(-45.08)"/></g><g id="_直线_14"><polygon class="cls-14" points="36.26 69.09 34.48 67.31 34.57 67.22 36.34 69 36.26 69.09"/></g><g id="_路径_631"><path class="cls-15" d="m30.83,64.59c-.14-.44.11-.9.55-1.04.44-.14.9.11,1.04.55.14.44-.11.9-.55,1.04,0,0,0,0,0,0-.44.13-.9-.11-1.03-.55"/></g><g id="_路径_632"><path class="cls-15" d="m31.65,64.43l-1.49-2.18-.37-1.64.94,1.28.92,2.54Z"/></g><g id="_路径_633"><path class="cls-15" d="m31.5,64.23l.7-3.32,1.05-1.93-.37,1.99-1.38,3.26Z"/></g><g id="HIS" class="cls-30"><g class="cls-30"><path class="cls-13" d="m49.19,64.55h-.74v-2.09h-2.29v2.09h-.74v-4.77h.74v2.02h2.29v-2.02h.74v4.77Z"/><path class="cls-13" d="m51.12,60.39h0v3.56h0v.61h-.74v-.6h0v-3.56h0v-.61h.74v.6Z"/><path class="cls-13" d="m52.09,63.56c.37.3.79.45,1.29.45.63,0,.95-.22.95-.65,0-.13-.03-.24-.1-.34-.07-.1-.16-.19-.28-.26-.12-.07-.35-.2-.7-.36-.43-.21-.73-.41-.9-.62-.17-.21-.26-.46-.26-.74,0-.41.16-.73.49-.97.32-.24.74-.35,1.24-.35.48,0,.84.06,1.08.18v.76c-.29-.2-.66-.3-1.1-.3-.28,0-.51.06-.68.17s-.26.27-.26.46c0,.18.06.32.19.44.13.11.39.27.8.46.47.22.8.44.98.67.18.22.27.48.27.77,0,.43-.16.76-.47.99-.31.23-.74.34-1.3.34-.2,0-.43-.02-.68-.07-.25-.05-.44-.11-.57-.2v-.8Z"/></g></g><g id="PACS" class="cls-30"><g class="cls-30"><path class="cls-13" d="m87.24,62.81v1.74h-.74v-4.77h1.44c.54,0,.95.12,1.24.37.29.25.43.61.43,1.08s-.17.86-.51,1.15-.77.43-1.27.41h-.59Zm0-2.4v1.79h.53c.71,0,1.07-.31,1.07-.92s-.34-.87-1.02-.87h-.57Z"/><path class="cls-13" d="m93.78,64.55h-.81l-.45-1.24h-1.91l-.42,1.24h-.81l1.8-4.77h.82l1.78,4.77Zm-1.46-1.85l-.66-1.88c-.02-.07-.05-.19-.07-.36h-.02c-.02.14-.04.26-.08.35l-.66,1.89h1.5Z"/><path class="cls-13" d="m97.66,64.36c-.35.18-.8.27-1.33.27-.69,0-1.24-.22-1.66-.65-.42-.43-.62-1.01-.62-1.72s.23-1.35.69-1.84,1.05-.72,1.78-.72c.46,0,.84.06,1.14.19v.75c-.34-.19-.71-.28-1.12-.28-.52,0-.94.17-1.25.51-.31.34-.47.79-.47,1.34s.15.95.44,1.28c.29.33.69.49,1.18.49.46,0,.86-.11,1.21-.32v.7Z"/><path class="cls-13" d="m98.36,63.56c.37.3.79.45,1.29.45.63,0,.95-.22.95-.65,0-.13-.03-.24-.1-.34-.07-.1-.16-.19-.28-.26s-.35-.2-.7-.36c-.43-.21-.73-.41-.9-.62-.17-.21-.26-.46-.26-.74,0-.41.16-.73.49-.97.32-.24.74-.35,1.24-.35.48,0,.84.06,1.08.18v.76c-.29-.2-.66-.3-1.1-.3-.28,0-.51.06-.68.17s-.26.27-.26.46c0,.18.06.32.19.44.13.11.39.27.8.46.47.22.8.44.98.67.18.22.27.48.27.77,0,.43-.16.76-.47.99-.31.23-.74.34-1.3.34-.2,0-.43-.02-.68-.07s-.44-.11-.57-.2v-.8Z"/></g></g><g id="_组_4746"><g id="_组_4743"><g id="_路径_564"><path class="cls-20" d="m75.28,113.82c.56.88,1.82,1.02,2.53,1.78.05.05.1.11.12.19.03.16-.07.32-.23.37-.15.04-.31.04-.47,0l-2.65-.44c-.1,0-.19-.04-.28-.08-.16-.14-.26-.34-.27-.56-.12-.64-.06-1.17-.18-1.81.59.09.87.3,1.43.55"/></g><g id="_路径_565"><path class="cls-14" d="m77.93,115.78c-.02-.07-.07-.13-.12-.19-.3-.29-.65-.53-1.03-.7-.2.23-.49.34-.79.31-.21-.01-.41-.04-.62-.06-.21-.02-.41-.06-.61-.13-.3-.11-.58-.29-.8-.52.01.2.04.4.07.59.01.22.11.42.27.56.09.05.18.07.28.08.88.15,1.76.29,2.65.44.15.04.32.04.47,0,.16-.05.26-.21.23-.37"/></g><g id="_路径_566"><path class="cls-20" d="m77.94,80.06c-2.19,4.88-3.23,10.19-3.06,15.54.07.82.04,1.65-.06,2.47-.18.76-.42,1.51-.71,2.23-1.52,4.35-.94,9.13-.13,13.66.66-.02.65-.05,1.31-.07.1-5.37,2.63-10.52,3.67-15.79.35-1.79.61-3.6.86-5.41.54-3.83,1.08-7.66,1.62-11.5-1.18-.26-2.36-.53-3.49-1.14"/></g><g id="_路径_567"><path class="cls-21" d="m74.68,100.93c.53-.3,1.1-.53,1.69-.68.26-.07.54-.11.81-.11.24.01.49.04.73.1.17.04.33.09.49.15.2-.76.39-1.53.54-2.29.35-1.79.61-3.6.86-5.41.54-3.83,1.08-7.66,1.62-11.5-1.18-.26-2.36-.53-3.49-1.14-2.19,4.88-3.23,10.19-3.06,15.54.07.82.04,1.65-.06,2.47-.18.76-.42,1.51-.71,2.23-.16.47-.3.95-.42,1.43.29-.32.63-.59,1.01-.8"/></g><g id="_路径_568"><path class="cls-20" d="m84.52,112.35c.54.87,1.75,1.01,2.44,1.76.05.05.09.11.12.18.03.16-.07.32-.22.37-.15.04-.3.04-.45,0-.85-.15-1.7-.29-2.55-.43-.09,0-.18-.04-.27-.08-.16-.14-.25-.34-.26-.55-.12-.63-.06-1.16-.17-1.79.57.09.84.29,1.38.54"/></g><g id="_路径_569"><path class="cls-14" d="m87.07,114.29c-.02-.07-.06-.13-.12-.18-.29-.29-.63-.52-1-.69-.19.22-.47.34-.76.3-.2,0-.4-.04-.6-.06-.2-.02-.4-.06-.59-.13-.29-.11-.56-.29-.77-.52.01.2.03.39.07.58.01.21.11.41.27.55.08.05.17.07.27.08.85.14,1.7.29,2.55.43.15.04.3.04.45,0,.15-.05.25-.21.22-.37"/></g><g id="_路径_570"><path class="cls-20" d="m79.92,81.88c-.82,4.79-.34,9.72,1.41,14.26.28.62.48,1.26.6,1.93.05.59.04,1.17-.03,1.76-.21,2.83.13,5.5.5,8.32.2,1.57.61,2.56.84,4.34.43-.07,1.44-.03,1.38.01.21-1.68,1.57-12.22.75-18.92-.48-3.85-1.19-7.67-2.11-11.43-.02-.15-.09-.29-.19-.39-.15-.09-.33-.12-.49-.08-.99.09-1.97.17-2.64.22"/></g><g id="_路径_571"><path class="cls-21" d="m81.93,98.07c.05.59.04,1.17-.03,1.76,0,.12-.02.24-.02.36.1-.08.21-.15.32-.22.14-.09.28-.16.43-.24.4-.21.82-.37,1.26-.47.57-.12,1.16-.14,1.74-.07.03-1.88-.05-3.75-.26-5.62-.48-3.85-1.19-7.67-2.11-11.43-.02-.15-.09-.29-.19-.39-.15-.09-.33-.12-.49-.08-.99.09-1.97.17-2.64.22-.82,4.79-.34,9.72,1.41,14.26.28.62.48,1.26.6,1.93"/></g><g id="_路径_572"><path class="cls-28" d="m76.85,79.27c-3.31,5.31-4.16,11.82-4.93,18.1-.04.16-.02.33.05.48.08.11.18.19.31.23,4.61,2.17,9.99,1.38,14.9.07.16-.04.35-.11.4-.28.02-.08.02-.16,0-.24-.21-1.7-.42-3.41-.63-5.11-.21-1.66-.41-3.32-.69-4.96-.41-2.46-.97-4.9-1.68-7.29-.04-.2-.13-.38-.26-.53-.27-.26-.7-.19-1.06-.12-2.13.41-4.34.29-6.42-.35"/></g><g class="cls-37"><g id="_组_524"><g id="_路径_573"><path class="cls-17" d="m76.6,94.87c-.31-.99-.5-2.02-.57-3.06-.03-.5-.03-1.01,0-1.51.03-.46.12-.93.52-1.22.21-.15.48-.18.72-.1.14.02.28.05.42.1.11.05.22.09.33.13.48.18.98.3,1.49.37,1.02.11,2.06.03,3.05-.24,1.34-.37,2.6-.99,3.71-1.82-.41-2.45-.97-4.87-1.67-7.25-.04-.2-.13-.38-.26-.53-.27-.26-.7-.19-1.06-.12-2.13.41-4.34.29-6.42-.35-3.31,5.31-4.16,11.83-4.93,18.1-.04.16-.02.33.05.48.08.11.19.19.31.23,2.11.99,4.38,1.37,6.69,1.35-1.07-1.36-1.88-2.91-2.38-4.57"/></g></g></g><g id="_组_4742"><g id="_路径_576"><path class="cls-20" d="m83.26,74.52c.65,1.93,1.49,5.08,2.38,6.2.46.57,1.03,1.03,1.68,1.38,1.77.97,3.15.77,5.08,1.35,0-.56,0-.22.19-.74-1.64-.77-6.17-2.25-6.4-6.09-.18-3.03-.53-3.18-1.28-4.81-.16-.35-.67-1.03-1.04-1.15s-1.76.44-.61,3.86"/></g><g id="_路径_577"><path class="cls-20" d="m91.98,83.18c.39.33.81.61,1.27.83.15.07.33.18.47.1,0-.12-.06-.09-.25-.19-.1-.06-.26-.12-.31-.23.4.21.86.3,1.31.26-.02-.08-.08-.15-.15-.17-.08-.02-.16-.03-.24-.04-.21-.02-.4-.1-.57-.22.38.12.79.24,1.17.1,0-.07-.04-.12-.1-.15-.06-.02-.12-.03-.19-.03-.24-.01-.47-.08-.68-.19.35.09.71.1,1.06.02,0-.12-.15-.15-.27-.16-.29-.01-.57-.09-.82-.23-.03-.02-.22-.11-.22-.15,0-.03.33-.2.44-.29.09-.08.15-.22.08-.31-.58.26-1.22.53-1.82.34-.03.24-.08.47-.14.7"/></g></g><g id="_路径_578"><path class="cls-25" d="m81.75,64.9c-.52-.43-1.27-.43-1.79,0-.68.59-.68,1.73-1.41,2.26-.84.62-2,.02-3.04-.06-.73-.06-1.46.18-2.02.66-.55.5-.82,1.23-.73,1.96.1.68.54,1.34.36,2-.09.25-.2.49-.33.72-.41.95.03,2.06.98,2.48.59.26,1.27.19,1.81-.17.33-.22.6-.55.97-.68.43-.14.9.03,1.35.06.98.03,1.91-.46,2.43-1.29.5-.83.68-1.82.51-2.78-.07-.42-.17-.89.06-1.25.23-.35.7-.46.96-.79.67-.86-.63-2.28-.11-3.11"/></g><g id="_路径_579"><path class="cls-27" d="m84.71,69.57c-.5.25-.9.66-1.12,1.17-.12.31-.2.64-.24.97-.2,1.53,0,3.08.6,4.5.98-.14,1.93-.4,2.85-.76.11-.01.2-.11.19-.23,0-.02,0-.04-.02-.07-.37-1.62-.89-3.2-1.54-4.74-.11-.31-.29-.59-.52-.82-.1-.08-.34-.06-.2-.04"/></g><g id="_路径_580"><path class="cls-27" d="m80.83,68.55c-1.09.02-2.31.1-3.06.89-.75.8-.73,2.04-.68,3.13.14,2.78.18,5.76-1.29,8.12,2.93,1.27,6.22,1.45,9.26.5-.28-1.91-.51-3.88-.08-5.76.39-1.69,1.29-3.53.47-5.06-.44-.82-1.32-1.35-2.23-1.58-.79-.16-1.59-.24-2.39-.24"/></g><g id="_路径_581"><path class="cls-9" d="m84.68,78.64c-.18.02-.37.03-.56.03-.18-.02-.36-.04-.54-.08-.33-.05-.65-.11-.97-.2-1.18-.4-2.14-1.27-2.65-2.4-.6-1.26-.72-2.63-.7-4.01.01-1.17.21-2.38.81-3.4-.86.06-1.72.25-2.3.86-.75.8-.73,2.04-.68,3.13.14,2.78.18,5.76-1.29,8.12,2.93,1.27,6.22,1.45,9.26.5-.13-.84-.24-1.7-.29-2.55-.03,0-.06,0-.1,0"/></g><g id="_路径_582"><path class="cls-9" d="m81.03,74.31l-.04-.12c1.52-.57,2.7-1.84,3.13-3.41l.12.03c-.45,1.61-1.65,2.91-3.21,3.5Z"/></g><g id="_路径_583"><path class="cls-9" d="m82.78,74.69l-.07-.1c.7-.5,1.25-1.19,1.59-1.98l.12.05c-.35.81-.91,1.52-1.63,2.03Z"/></g><g id="_路径_584"><path class="cls-20" d="m83.07,67.36c-.1.66-.05,1.33.14,1.96-.47.26-1.05.17-1.57.03-.26-.06-.51-.16-.74-.29-.03-.01-.05-.03-.06-.06-.01-.03-.02-.06,0-.09.41-1.06.49-2.09.42-3.4.5.25,1.12.1,1.62.33.05.02.1.05.13.09.04.05.06.12.06.18.06.42.05.84,0,1.26"/></g><g id="_路径_585"><path class="cls-21" d="m81.61,67.34c-.3-.61-.18-1.31-.32-1.96.49.25,1.08.23,1.59.46.05.02.1.05.13.09.04.05.06.12.06.18.06.42.05.84,0,1.26-.05.36-.06.73-.03,1.1-.62-.15-1.14-.55-1.43-1.12"/></g><g id="_路径_586"><path class="cls-20" d="m84.16,64.46c.06.41.13.78.18,1.2.06.57.18,1.01-.1,1.51-.23.44-.71.7-1.21.65-.45-.06-.86-.3-1.14-.66-.57-.7-.83-1.61-.71-2.5,0-.31.18-.6.45-.75.37-.21.79-.32,1.22-.33.66-.05,1.25.47,1.31.88"/></g><g id="_路径_588"><path class="cls-25" d="m81.95,64.01c-.16.32-.24.67-.23,1.02,0,.05,0,.09,0,.14-.02.05-.04.1-.07.15-.13.21-.26.42-.4.63-.35-.32-.82-.76-.57-1.57.05-.19.13-.36.24-.52.51-.56.89-.07.96-.02s.09.16.07.17"/></g><g id="_路径_589"><path class="cls-21" d="m81.46,65.61c-.16-.16-.41-.21-.62-.12-.36.16.13.82.79.81.09,0,.2-.03.23-.12.02-.07,0-.15-.05-.21-.08-.15-.2-.28-.35-.36"/></g><g id="_路径_592"><path class="cls-20" d="m75.53,73.1c-.6,1.87-1.75,4.8-1.68,6.16.05.7.24,1.39.56,2.01.87,1.75,2.11,2.37,3.34,3.89.33-.43.13-.17.58-.47-.88-1.52-3.7-5.21-1.65-8.33,1.62-2.46,1.42-2.78,1.77-4.47.08-.37.06-1.18-.18-1.48s-1.69-.64-2.75,2.67"/></g><g id="_路径_593"><path class="cls-20" d="m77.68,85.01c.14.49.33.96.58,1.4.08.14.17.33.33.35.07-.09,0-.11-.1-.3-.08-.11-.12-.23-.13-.36.21.4.54.73.93.96.03-.08.02-.16-.03-.23-.05-.06-.11-.12-.18-.17-.16-.14-.28-.31-.35-.5.24.32.52.65.91.74.04-.05.04-.13,0-.18-.04-.05-.09-.1-.14-.13-.19-.14-.35-.33-.46-.54.23.27.53.48.86.61.07-.09-.04-.21-.13-.28-.23-.17-.42-.4-.55-.65-.02-.04-.12-.21-.1-.24.02-.02.39.02.52,0,.12,0,.25-.1.24-.21-.62-.11-1.31-.25-1.7-.74-.16.18-.33.34-.51.49"/></g><g id="_路径_594"><path class="cls-27" d="m78.81,68.96c-.56-.02-1.1.16-1.54.51-.25.22-.48.47-.66.74-.89,1.26-1.44,2.73-1.58,4.26.93.33,1.9.55,2.88.67.11.04.23,0,.27-.12,0-.02.01-.04.01-.07.43-1.61.72-3.25.86-4.9.05-.32.03-.66-.08-.97-.05-.12-.27-.21-.16-.13"/></g></g><g id="_路径_587"><path class="cls-25" d="m84.42,63.11c.53.4.74.8.43,1.2-.2.26-.44.05-.52.05-.12,0-.16.14-.23.24-.15.15-.38.22-.59.16-.21-.02-.42-.09-.59-.22-.11-.09-.19-.22-.31-.3-.11-.1-.28-.1-.4-.01-.12.13-.04.37-.14.51-.08.09-.21.13-.33.09-.22-.06-.39-.24-.45-.46-.05-.22-.02-.45.08-.66.1-.22.27-.4.47-.52.48-.3.91.04,1.4-.24.41-.23,1.12.12,1.18.16"/></g></g></g></g></svg>