<?xml version="1.0" encoding="UTF-8"?><svg id="_圖層_1" xmlns="http://www.w3.org/2000/svg" viewBox="0 0 52.01 45.72"><defs><style>.cls-1{fill:#fff;stroke-width:0px;}</style></defs><path class="cls-1" d="m23.9,25.4s0,0,0,0c0,0,0,0,0-.01l-.02.02Z"/><path class="cls-1" d="m44.06,22.67c-.34-.31-.71-.57-1.12-.77-2.24-1.04-4.69-1.57-7.16-1.56-2.07-.1-4.14.09-6.15.55h0c.02-.06.05-.12.08-.18,2.24-2.92,3.12-6.65,2.43-10.25-.1-.52-.23-1.04-.39-1.54C29.59,2.25,22.46-1.41,15.81.73c-1.34.44-2.59,1.11-3.71,1.96-5.63,4.28-6.72,12.31-2.44,17.93,1.64,2.19,3.31,4.35,4.98,6.51.24.31.25.39-.18.49-1.36.25-2.65.8-3.76,1.63-.71.53-1.12,1.38-1.09,2.27.02,3.23.02,6.45,0,9.68-.01.78.32,1.52.91,2.04.34.31.71.57,1.12.77,1.74.83,3.61,1.33,5.54,1.46,1.97.21,3.96.17,5.92-.1,1.74-.17,3.43-.69,4.97-1.52.8-.38,1.4-1.08,1.67-1.93.07-.26.21-.18.39-.15,3.27.65,6.65.62,9.91-.09,1.42-.25,2.76-.83,3.9-1.69.68-.52,1.07-1.33,1.04-2.18-.02-4.37-.02-8.73,0-13.1.01-.78-.32-1.52-.91-2.03Zm-7.93-.6c1.7.06,3.37.36,4.98.9.62.19,1.2.49,1.71.89.58.48.59.89,0,1.36-.93.66-1.99,1.1-3.11,1.31-1.63.36-3.3.55-4.97.54h0c-2.37.04-4.73-.4-6.93-1.28-1.37-.63-1.39-.77-.5-1.96.26-.35.62-.62,1.03-.76,2.5-.85,5.16-1.19,7.79-1Zm-22.75.62c-.82-1.05-1.63-2.1-2.42-3.17-.84-1.12-1.46-2.39-1.82-3.74-1.6-5.91,1.89-11.99,7.8-13.59.27-.07.54-.13.82-.18,5.95-1.07,11.64,2.88,12.71,8.83.6,3.16-.2,6.42-2.19,8.94-1.38,1.81-2.76,3.62-4.15,5.43-.06.08-.1.18-.22.2-.8,1.23-1.76,2.33-2.62,3.5-.29.39-.58.79-.9,1.16-.03.05-.07.09-.12.13-.34.31-.86.28-1.17-.06-1.22-1.57-2.48-3.11-3.6-4.75l.02.02h0c-.79-.85-1.43-1.81-2.13-2.71Zm-1.64,7.92c.7-.53,1.5-.91,2.35-1.12.55-.16,1.12-.26,1.68-.4.2-.07.43.02.52.21.42.58.86,1.15,1.31,1.71.19.28.43.52.71.7,1.17.77,2.75.45,3.52-.72.43-.55.85-1.11,1.28-1.67.12-.15.21-.31.46-.25,1.22.2,2.41.58,3.52,1.14.44.25,1,.5,1.01,1.05,0,.58-.57.84-1.03,1.08-1.35.67-2.8,1.08-4.3,1.23-1.04.14-2.08.21-3.13.22-2.35.03-4.68-.4-6.87-1.25-.35-.15-.69-.35-.99-.58-.6-.48-.6-.87-.02-1.36Zm-.43,3.27c5.38,2.2,11.4,2.2,16.78,0,.2.73-.18,1.5-.9,1.78-1.34.69-2.79,1.12-4.29,1.28-2.8.41-5.65.28-8.4-.4-.74-.19-1.47-.46-2.15-.81-.8-.41-1.32-.94-1.05-1.86Zm15.71,8.61c-1.29.63-2.68,1.03-4.1,1.19-2.81.41-5.68.28-8.45-.41-.73-.19-1.43-.45-2.09-.79-.8-.41-1.31-.94-1.06-1.87,5.37,2.21,11.4,2.21,16.77,0h0c.26.94-.27,1.47-1.06,1.88Zm.01-3.38c-1.29.63-2.68,1.03-4.1,1.19-2.81.42-5.68.28-8.45-.4-.81-.2-1.6-.51-2.33-.91-.68-.28-1.05-1.04-.84-1.75,5.38,2.21,11.41,2.21,16.78,0h0c.24.92-.27,1.46-1.06,1.87Zm2.59-9.31c-.29-.07-.55-.21-.77-.41-.49-.45-1.06-.8-1.68-1.05q-.79-.35-.71-1.2c5.38,2.2,11.41,2.2,16.78,0,.21.76-.2,1.55-.94,1.81-1.31.66-2.73,1.08-4.19,1.25-2.83.42-5.71.28-8.49-.4Zm12.56,9.31c-1.29.63-2.68,1.03-4.1,1.19-2.62.38-5.29.29-7.88-.27-.29-.07-.42-.15-.4-.47.03-.4,0-.8,0-1.19,4.6.78,9.09.8,13.42-1.19.27.99-.25,1.52-1.04,1.93Zm0-3.37c-1.29.63-2.68,1.03-4.1,1.19-2.62.38-5.29.29-7.88-.27-.29-.06-.43-.15-.4-.47.03-.4,0-.8,0-1.19,4.6.78,9.09.8,13.42-1.19.27.99-.25,1.52-1.04,1.93Zm.23-3.51c-1.13.63-2.37,1.05-3.65,1.22-2.83.5-5.74.45-8.55-.16-.33-.07-.44-.18-.42-.51.03-.38,0-.77,0-1.14,4.6.76,9.09.78,13.41-1.19,0,.01,0,.02.01.04.26.71-.11,1.49-.82,1.75Z"/><path class="cls-1" d="m16.43,15.09c.21.77.77,1.4,1.51,1.71.3.14.77-.02.9.33.07.34.08.7.03,1.04,0,.04,0,.07,0,.11-.05.31.1.37.38.37,1.29.02,1.3.03,1.3-1.24,0-.3.04-.43.4-.48,1.25-.2,2.17-1.29,2.13-2.56-.04-1.39-1.2-2.49-2.59-2.46-.51,0-1.02.01-1.53,0-.05,0-.11,0-.16,0-.46-.04-.81-.45-.77-.91.04-.46.45-.81.91-.77.51-.01,1.02,0,1.53,0,.32,0,.67.09.75.38.15.52.51.47.89.46.21-.02.42-.02.63,0,.35.04.38-.14.33-.41-.08-.89-.69-1.64-1.54-1.89-1-.19-1.07-.73-.97-1.5v-.05c.05-.31-.1-.37-.38-.37-1.29-.02-1.3-.03-1.3,1.24,0,.3-.04.43-.4.48-1.25.2-2.17,1.29-2.13,2.56.04,1.39,1.2,2.49,2.59,2.46.51,0,1.02-.01,1.53,0,.06,0,.11,0,.17,0,.46.04.81.45.76.91-.04.46-.45.81-.91.76-.51.01-1.02,0-1.52,0-.3,0-.64-.08-.72-.34-.17-.61-.6-.5-1.02-.5h0s-.32,0-.32,0c-.64,0-.64,0-.46.65Z"/></svg>