<?xml version="1.0" encoding="UTF-8"?><svg id="_圖層_1" xmlns="http://www.w3.org/2000/svg" xmlns:xlink="http://www.w3.org/1999/xlink" viewBox="0 0 390.94 407.37"><defs><style>.cls-1{clip-path:url(#clippath-62);}.cls-2{fill:#007060;}.cls-2,.cls-3,.cls-4,.cls-5,.cls-6,.cls-7,.cls-8,.cls-9,.cls-10,.cls-11,.cls-12,.cls-13,.cls-14,.cls-15,.cls-16,.cls-17,.cls-18,.cls-19,.cls-20,.cls-21,.cls-22,.cls-23,.cls-24,.cls-25,.cls-26,.cls-27,.cls-28,.cls-29,.cls-30,.cls-31,.cls-32,.cls-33,.cls-34,.cls-35,.cls-36,.cls-37,.cls-38,.cls-39,.cls-40,.cls-41,.cls-42,.cls-43,.cls-44,.cls-45,.cls-46,.cls-47,.cls-48,.cls-49{stroke-width:0px;}.cls-50{clip-path:url(#clippath-45);}.cls-51{clip-path:url(#clippath-63);}.cls-52{clip-path:url(#clippath-20);}.cls-3{fill:#9cb5cc;}.cls-53{clip-path:url(#clippath-11);}.cls-54{clip-path:url(#clippath-16);}.cls-55{clip-path:url(#clippath-59);}.cls-4{fill:#1b1b1b;}.cls-56{clip-path:url(#clippath-33);}.cls-57{clip-path:url(#clippath-64);}.cls-58{clip-path:url(#clippath-47);}.cls-5{fill:#00dfbf;}.cls-6{fill:#d7e7f7;}.cls-7{fill:#262626;}.cls-59{opacity:.5;}.cls-60{clip-path:url(#clippath-41);}.cls-61{clip-path:url(#clippath-32);}.cls-8{fill:#e1e1e1;}.cls-9{fill:#ebf1f5;}.cls-10{fill:url(#_未命名漸層_18-4);}.cls-62{clip-path:url(#clippath-2);}.cls-63{clip-path:url(#clippath-13);}.cls-11{fill:#00b299;}.cls-12{fill:url(#_未命名漸層_18-2);}.cls-64{clip-path:url(#clippath-37);}.cls-65{clip-path:url(#clippath-46);}.cls-13{fill:url(#_未命名漸層_20-5);}.cls-66{clip-path:url(#clippath-25);}.cls-67{clip-path:url(#clippath-15);}.cls-68{clip-path:url(#clippath-6);}.cls-15{fill:#4a0c00;}.cls-69{clip-path:url(#clippath-40);}.cls-70{clip-path:url(#clippath-26);}.cls-16{fill:#5f1d0f;}.cls-17{fill:url(#_未命名漸層_20-3);}.cls-18{fill:none;}.cls-19{fill:url(#_未命名漸層_18-3);}.cls-71{opacity:.7;}.cls-20{fill:#f2a92e;}.cls-21{fill:url(#_未命名漸層_20-4);}.cls-72{clip-path:url(#clippath-7);}.cls-73{clip-path:url(#clippath-21);}.cls-74{clip-path:url(#clippath-34);}.cls-75{clip-path:url(#clippath-57);}.cls-76{clip-path:url(#clippath-1);}.cls-22{fill:#242423;}.cls-77{clip-path:url(#clippath-4);}.cls-78{clip-path:url(#clippath-38);}.cls-23{fill:#f8f9fc;}.cls-79{clip-path:url(#clippath-36);}.cls-80{clip-path:url(#clippath-27);}.cls-81{opacity:.3;}.cls-82{clip-path:url(#clippath-60);}.cls-83{clip-path:url(#clippath-44);}.cls-24{fill:url(#_未命名漸層_18);}.cls-25{fill:url(#_未命名漸層_19-2);}.cls-26{fill:#ffca00;}.cls-84{clip-path:url(#clippath-12);}.cls-27{fill:#fff;}.cls-28{fill:url(#_未命名漸層_19-5);}.cls-29{fill:#304054;}.cls-30{fill:url(#_未命名漸層_19-6);}.cls-31{fill:#bfc8d7;}.cls-85{clip-path:url(#clippath-24);}.cls-32{fill:url(#_未命名漸層_19-4);}.cls-86{clip-path:url(#clippath-30);}.cls-33{fill:url(#_未命名漸層_18-6);}.cls-34{fill:url(#_未命名漸層_19-7);}.cls-87{clip-path:url(#clippath-22);}.cls-88{clip-path:url(#clippath-9);}.cls-89{clip-path:url(#clippath-52);}.cls-90{clip-path:url(#clippath);}.cls-91{clip-path:url(#clippath-50);}.cls-35{fill:#323439;}.cls-36{fill:#ebeff3;}.cls-37{fill:url(#_未命名漸層_19-3);}.cls-92{clip-path:url(#clippath-48);}.cls-93{clip-path:url(#clippath-61);}.cls-94{clip-path:url(#clippath-39);}.cls-95{clip-path:url(#clippath-19);}.cls-38{fill:#ffc89f;}.cls-96{clip-path:url(#clippath-31);}.cls-97{clip-path:url(#clippath-54);}.cls-98{clip-path:url(#clippath-3);}.cls-99{clip-path:url(#clippath-43);}.cls-39{fill:#f1f1f1;}.cls-100{clip-path:url(#clippath-8);}.cls-40{fill:#0b90aa;}.cls-41{fill:#d7e0e9;}.cls-101{clip-path:url(#clippath-55);}.cls-42{fill:url(#_未命名漸層_19-8);}.cls-102{clip-path:url(#clippath-29);}.cls-103{opacity:.2;}.cls-104{clip-path:url(#clippath-18);}.cls-105{clip-path:url(#clippath-14);}.cls-106{clip-path:url(#clippath-17);}.cls-43{fill:#c9c9c9;}.cls-107{clip-path:url(#clippath-5);}.cls-44{fill:#d9e1ee;}.cls-108{clip-path:url(#clippath-58);}.cls-109{clip-path:url(#clippath-42);}.cls-110{clip-path:url(#clippath-65);}.cls-45{fill:url(#_未命名漸層_20);}.cls-111{clip-path:url(#clippath-10);}.cls-112{clip-path:url(#clippath-23);}.cls-46{fill:url(#_未命名漸層_18-5);}.cls-113{clip-path:url(#clippath-56);}.cls-114{clip-path:url(#clippath-53);}.cls-115{clip-path:url(#clippath-49);}.cls-116{clip-path:url(#clippath-51);}.cls-47{fill:url(#_未命名漸層_20-2);}.cls-117{clip-path:url(#clippath-28);}.cls-48{fill:url(#_未命名漸層_20-6);}.cls-118{clip-path:url(#clippath-35);}.cls-49{fill:url(#_未命名漸層_19);}</style><clipPath id="clippath"><rect class="cls-18" y="203.14" width="390.94" height="204.23"/></clipPath><clipPath id="clippath-1"><rect class="cls-18" x="81.48" y="36.02" width="227.99" height="329.92"/></clipPath><clipPath id="clippath-2"><rect class="cls-18" x="81.48" y="36.02" width="227.99" height="329.92"/></clipPath><clipPath id="clippath-3"><rect class="cls-18" x="81.57" y="114.07" width="92.84" height="251.8"/></clipPath><clipPath id="clippath-4"><polygon class="cls-18" points="81.48 114.07 81.5 311.93 174.31 365.87 174.29 168.02 81.48 114.07"/></clipPath><linearGradient id="_未命名漸層_18" x1="-602.9" y1="-218.49" x2="-602.84" y2="-218.49" gradientTransform="translate(58166.99 -56935.48) scale(96.48 -261.69)" gradientUnits="userSpaceOnUse"><stop offset="0" stop-color="#d9e1ee"/><stop offset="0" stop-color="#d9e1ee"/><stop offset="1" stop-color="#aabad6"/></linearGradient><clipPath id="clippath-5"><rect class="cls-18" x="86.26" y="125.8" width="83.27" height="97.01"/></clipPath><clipPath id="clippath-6"><polygon class="cls-18" points="86.26 125.81 86.28 174.42 169.53 222.81 169.51 174.19 86.26 125.81"/></clipPath><linearGradient id="_未命名漸層_19" x1="-602.34" y1="-224.89" x2="-602.27" y2="-224.89" gradientTransform="translate(52124.12 -22498.64) scale(86.54 -100.82)" gradientUnits="userSpaceOnUse"><stop offset="0" stop-color="#aabad6"/><stop offset="1" stop-color="#96aac9"/></linearGradient><clipPath id="clippath-7"><rect class="cls-18" x="86.26" y="182.92" width="83.27" height="97.01"/></clipPath><clipPath id="clippath-8"><polygon class="cls-18" points="86.26 182.92 86.28 231.54 169.53 279.93 169.51 231.31 86.26 182.92"/></clipPath><linearGradient id="_未命名漸層_19-2" y1="-224.87" y2="-224.87" gradientTransform="translate(52124.12 -22439.28) scale(86.54 -100.82)" xlink:href="#_未命名漸層_19"/><clipPath id="clippath-9"><rect class="cls-18" x="86.26" y="238.66" width="83.27" height="97.01"/></clipPath><clipPath id="clippath-10"><rect class="cls-18" x="174.28" y="89.12" width="134.92" height="275.91"/></clipPath><clipPath id="clippath-11"><polygon class="cls-18" points="174.28 167.17 174.3 365.02 309.2 286.97 309.17 89.11 174.28 167.17"/></clipPath><linearGradient id="_未命名漸層_19-3" x1="-605.28" y1="-218.14" x2="-605.24" y2="-218.14" gradientTransform="translate(84869.19 -62323.31) scale(140.22 -286.75)" xlink:href="#_未命名漸層_19"/><clipPath id="clippath-12"><rect class="cls-18" x="81.48" y="36.02" width="227.71" height="132"/></clipPath><clipPath id="clippath-13"><polygon class="cls-18" points="81.48 114.07 174.29 168.02 309.19 89.97 216.37 36.02 81.48 114.07"/></clipPath><linearGradient id="_未命名漸層_20" x1="-606.72" y1="-221.28" x2="-606.69" y2="-221.28" gradientTransform="translate(152405.6 -36225.35) scale(251.2 -164.17)" gradientUnits="userSpaceOnUse"><stop offset="0" stop-color="#e4e9f2"/><stop offset="0" stop-color="#e4e9f2"/><stop offset="1" stop-color="#b4c2da"/></linearGradient><clipPath id="clippath-14"><rect class="cls-18" x="265.63" y="193.57" width="17.76" height="50.93"/></clipPath><clipPath id="clippath-15"><rect class="cls-18" x="258.16" y="200.54" width="16.95" height="47.03"/></clipPath><clipPath id="clippath-16"><rect class="cls-18" x="259.75" y="126.77" width="4.79" height="18.51"/></clipPath><clipPath id="clippath-17"><rect class="cls-18" x="273.04" y="127.68" width="10.13" height="38.03"/></clipPath><clipPath id="clippath-18"><rect class="cls-18" x="278.57" y="126.97" width="11.25" height="38.11"/></clipPath><clipPath id="clippath-19"><rect class="cls-18" x="99.1" y="257.91" width="59.45" height="66.26"/></clipPath><clipPath id="clippath-20"><rect class="cls-18" x="84.29" y="267" width="59.45" height="66.26"/></clipPath><clipPath id="clippath-21"><rect class="cls-18" x="69.25" y="276.39" width="59.45" height="66.26"/></clipPath><clipPath id="clippath-22"><rect class="cls-18" x="53.06" y="284.87" width="59.45" height="66.26"/></clipPath><clipPath id="clippath-23"><polygon class="cls-18" points="13.55 334.43 92.13 380.1 92.11 329.02 13.53 283.35 13.55 334.43"/></clipPath><linearGradient id="_未命名漸層_18-2" x1="-601.06" y1="-224.86" x2="-600.98" y2="-224.86" gradientTransform="translate(49093.35 -22277.77) scale(81.68 -100.55)" xlink:href="#_未命名漸層_18"/><clipPath id="clippath-24"><polygon class="cls-18" points="92.11 329.02 92.13 380.1 99.27 376.25 99.25 325.17 92.11 329.02"/></clipPath><linearGradient id="_未命名漸層_19-4" x1="-539.61" y1="-232.74" x2="-538.82" y2="-232.74" gradientTransform="translate(4012.69 -12933.54) scale(7.44 -57.09)" xlink:href="#_未命名漸層_19"/><clipPath id="clippath-25"><polygon class="cls-18" points="13.53 283.35 92.11 329.02 99.25 325.17 20.66 279.5 13.53 283.35"/></clipPath><linearGradient id="_未命名漸層_20-2" x1="-603.36" y1="-232.47" x2="-603.3" y2="-232.47" gradientTransform="translate(57035.55 -14022.07) scale(94.53 -61.63)" xlink:href="#_未命名漸層_20"/><clipPath id="clippath-26"><path class="cls-18" d="m157.8,321.95l.99.58c.11-1.12-.38-2.21-1.3-2.86l-.99-.58c.92.65,1.42,1.74,1.3,2.86h0Z"/></clipPath><clipPath id="clippath-27"><path class="cls-18" d="m158.65,310.22l.99.58c.92-.67,2.13-.79,3.17-.31l-.98-.58c-.36-.2-.76-.31-1.17-.3-.71.03-1.4.24-2,.61Z"/></clipPath><clipPath id="clippath-28"><path class="cls-18" d="m140.28,332.07l.99.58c.11-1.12-.38-2.2-1.3-2.85l-.99-.58c.91.65,1.41,1.74,1.3,2.85Z"/></clipPath><clipPath id="clippath-29"><path class="cls-18" d="m122.76,342.19l.99.58c.11-1.12-.38-2.21-1.3-2.86l-.99-.58c.92.65,1.41,1.74,1.3,2.86Z"/></clipPath><clipPath id="clippath-30"><path class="cls-18" d="m104.63,346.54l.99.58c.16-3.13,1.81-5.99,4.44-7.69l-.99-.58c-2.63,1.71-4.28,4.57-4.44,7.7h0Z"/></clipPath><clipPath id="clippath-31"><polygon class="cls-18" points="213.28 319.12 213.27 350.85 305.2 298.09 305.21 266.36 213.28 319.12"/></clipPath><linearGradient id="_未命名漸層_18-3" x1="-604.07" y1="-226.37" x2="-604.01" y2="-226.37" gradientTransform="translate(57739.44 -19569.22) scale(95.55 -87.81)" xlink:href="#_未命名漸層_18"/><clipPath id="clippath-32"><polygon class="cls-18" points="208.84 348.46 213.27 350.85 213.28 319.12 208.85 316.73 208.84 348.46"/></clipPath><linearGradient id="_未命名漸層_19-5" x1="-519.46" y1="-243.89" x2="-518.25" y2="-243.89" gradientTransform="translate(2417.95 -8315.04) scale(4.62 -35.46)" xlink:href="#_未命名漸層_19"/><clipPath id="clippath-33"><polygon class="cls-18" points="208.85 316.73 213.28 319.12 305.21 266.36 300.77 263.97 208.85 316.73"/></clipPath><linearGradient id="_未命名漸層_20-3" x1="-625.33" y1="-221.24" x2="-625.25" y2="-221.24" gradientTransform="translate(43005.75 -23207.21) scale(68.74 -106.21)" xlink:href="#_未命名漸層_20"/><clipPath id="clippath-34"><polygon class="cls-18" points="302.36 299.55 369.27 337.84 369.25 306.11 302.35 267.82 302.36 299.55"/></clipPath><linearGradient id="_未命名漸層_18-4" x1="-603.81" y1="-228.83" x2="-603.73" y2="-228.83" gradientTransform="translate(42015.29 -16347.83) scale(69.55 -72.76)" xlink:href="#_未命名漸層_18"/><clipPath id="clippath-35"><polygon class="cls-18" points="369.25 306.11 369.27 337.83 373.7 335.44 373.69 303.72 369.25 306.11"/></clipPath><linearGradient id="_未命名漸層_19-6" x1="-555.56" y1="-243.91" x2="-554.36" y2="-243.91" gradientTransform="translate(2584.67 -8325.99) scale(4.62 -35.45)" xlink:href="#_未命名漸層_19"/><clipPath id="clippath-36"><polygon class="cls-18" points="302.35 267.82 369.25 306.12 373.69 303.72 306.78 265.43 302.35 267.82"/></clipPath><linearGradient id="_未命名漸層_20-4" x1="-605.92" y1="-236.31" x2="-605.85" y2="-236.31" gradientTransform="translate(47653.7 -11705.06) scale(78.61 -50.74)" xlink:href="#_未命名漸層_20"/><clipPath id="clippath-37"><rect class="cls-18" x="302.86" y="257.91" width="57.46" height="64.05"/></clipPath><clipPath id="clippath-38"><rect class="cls-18" x="303.56" y="257.91" width="4.91" height="2.17"/></clipPath><clipPath id="clippath-39"><rect class="cls-18" x="303.56" y="257.91" width="4.91" height="2.17"/></clipPath><clipPath id="clippath-40"><rect class="cls-18" x="303.56" y="257.91" width="4.91" height="2.17"/></clipPath><clipPath id="clippath-41"><rect class="cls-18" x="336.15" y="272.14" width="5.61" height="2.24"/></clipPath><clipPath id="clippath-42"><rect class="cls-18" x="354.79" y="282" width="5.53" height="5.92"/></clipPath><clipPath id="clippath-43"><rect class="cls-18" x="287.2" y="266.11" width="57.46" height="64.05"/></clipPath><clipPath id="clippath-44"><rect class="cls-18" x="339.13" y="290.21" width="5.53" height="5.92"/></clipPath><clipPath id="clippath-45"><rect class="cls-18" x="272.99" y="274.3" width="57.47" height="64.05"/></clipPath><clipPath id="clippath-46"><rect class="cls-18" x="306.29" y="288.53" width="5.61" height="2.24"/></clipPath><clipPath id="clippath-47"><rect class="cls-18" x="324.93" y="298.4" width="5.53" height="5.91"/></clipPath><clipPath id="clippath-48"><rect class="cls-18" x="258.68" y="283.09" width="57.46" height="64.05"/></clipPath><clipPath id="clippath-49"><rect class="cls-18" x="310.61" y="307.19" width="5.53" height="5.92"/></clipPath><clipPath id="clippath-50"><rect class="cls-18" x="244.14" y="292.16" width="57.47" height="64.05"/></clipPath><clipPath id="clippath-51"><rect class="cls-18" x="296.07" y="316.26" width="5.54" height="5.92"/></clipPath><clipPath id="clippath-52"><rect class="cls-18" x="228.48" y="300.37" width="57.46" height="64.05"/></clipPath><clipPath id="clippath-53"><rect class="cls-18" x="280.41" y="324.46" width="5.53" height="5.91"/></clipPath><clipPath id="clippath-54"><polygon class="cls-18" points="281.82 356.37 281.81 388.1 373.74 335.34 373.75 303.61 281.82 356.37"/></clipPath><linearGradient id="_未命名漸層_18-5" x1="-604.81" y1="-226.36" x2="-604.75" y2="-226.36" gradientTransform="translate(57810.67 -19530.51) scale(95.55 -87.81)" xlink:href="#_未命名漸層_18"/><clipPath id="clippath-55"><polygon class="cls-18" points="277.38 385.71 281.81 388.1 281.82 356.37 277.39 353.98 277.38 385.71"/></clipPath><linearGradient id="_未命名漸層_19-7" x1="-534.88" y1="-243.85" x2="-533.68" y2="-243.85" gradientTransform="translate(2489.18 -8275.04) scale(4.62 -35.46)" xlink:href="#_未命名漸層_19"/><clipPath id="clippath-56"><polygon class="cls-18" points="277.39 353.98 281.82 356.37 373.75 303.61 369.32 301.22 277.39 353.98"/></clipPath><linearGradient id="_未命名漸層_20-5" x1="-626.31" y1="-221.21" x2="-626.23" y2="-221.21" gradientTransform="translate(43073.66 -23167.5) scale(68.74 -106.21)" xlink:href="#_未命名漸層_20"/><clipPath id="clippath-57"><polygon class="cls-18" points="206.84 347.76 281.45 391.12 281.42 350.28 206.82 306.92 206.84 347.76"/></clipPath><linearGradient id="_未命名漸層_18-6" x1="-602.99" y1="-226.4" x2="-602.92" y2="-226.4" gradientTransform="translate(46783.72 -19461.81) scale(77.55 -87.5)" xlink:href="#_未命名漸層_18"/><clipPath id="clippath-58"><polygon class="cls-18" points="281.42 350.28 281.45 391.12 288.22 387.46 288.2 346.62 281.42 350.28"/></clipPath><linearGradient id="_未命名漸層_19-8" x1="-560.89" y1="-237.01" x2="-560.1" y2="-237.01" gradientTransform="translate(3980.1 -10590.98) scale(7.06 -46.24)" xlink:href="#_未命名漸層_19"/><clipPath id="clippath-59"><polygon class="cls-18" points="206.82 306.92 281.42 350.28 288.2 346.62 213.59 303.26 206.82 306.92"/></clipPath><linearGradient id="_未命名漸層_20-6" x1="-605.11" y1="-233.4" x2="-605.04" y2="-233.4" gradientTransform="translate(54325.41 -13327.95) scale(89.75 -58.5)" xlink:href="#_未命名漸層_20"/><clipPath id="clippath-60"><rect class="cls-18" x="146.88" y="20.84" width="68.99" height="101.11"/></clipPath><clipPath id="clippath-61"><rect class="cls-18" x="146.88" y="21.86" width="74.29" height="100.09"/></clipPath><clipPath id="clippath-62"><rect class="cls-18" x="157.5" y="26.97" width="68.99" height="101.11"/></clipPath><clipPath id="clippath-63"><rect class="cls-18" x="157.5" y="27.99" width="74.29" height="100.09"/></clipPath><clipPath id="clippath-64"><rect class="cls-18" x="169.88" y="34.12" width="68.99" height="101.11"/></clipPath><clipPath id="clippath-65"><rect class="cls-18" x="297.03" y="187" width=".47" height=".07"/></clipPath></defs><g id="_组_5345"><g id="_组_5153"><g class="cls-90"><g id="_组_5152"><path id="_路径_10867" class="cls-39" d="m57.25,377.46c76.33,39.88,200.1,39.88,276.44,0,76.33-39.88,76.34-104.53,0-144.41-76.34-39.88-200.1-39.88-276.44,0-76.34,39.88-76.34,104.54,0,144.42"/></g></g></g><g id="_组_5187"><g class="cls-76"><g id="_组_5186"><g id="_组_5185"><g id="_组_5184"><g class="cls-62"><g id="_组_5183"><g id="_组_5159"><g id="_组_5158"><g class="cls-98"><g id="_组_5157"><g id="_组_5156"><g class="cls-77"><g id="_组_5155"><rect id="_矩形_2063" class="cls-24" x="81.48" y="114.07" width="92.84" height="251.8"/></g></g></g></g></g></g></g><g id="_组_5164"><g id="_组_5163"><g class="cls-107"><g id="_组_5162"><g id="_组_5161"><g class="cls-68"><g id="_组_5160"><rect id="_矩形_2065" class="cls-49" x="86.26" y="125.81" width="83.27" height="97.01"/></g></g></g></g></g></g></g><g id="_组_5169"><g id="_组_5168"><g class="cls-72"><g id="_组_5167"><g id="_组_5166"><g class="cls-100"><g id="_组_5165"><rect id="_矩形_2067" class="cls-25" x="86.26" y="182.92" width="83.27" height="97.01"/></g></g></g></g></g></g></g><g id="_组_5172"><g id="_组_5171"><g class="cls-88"><g id="_组_5170"><path id="_路径_10871" class="cls-29" d="m86.26,238.66l.02,48.62,83.25,48.39-.02-48.62-83.25-48.39Z"/></g></g></g></g><g id="_组_5177"><g id="_组_5176"><g class="cls-111"><g id="_组_5175"><g id="_组_5174"><g class="cls-53"><g id="_组_5173"><rect id="_矩形_2070" class="cls-37" x="174.28" y="89.11" width="134.92" height="275.91"/></g></g></g></g></g></g></g><g id="_组_5182"><g id="_组_5181"><g class="cls-84"><g id="_组_5180"><g id="_组_5179"><g class="cls-63"><g id="_组_5178"><rect id="_矩形_2072" class="cls-45" x="74.48" y="23.04" width="241.71" height="157.97" transform="translate(-10.68 23.78) rotate(-6.78)"/></g></g></g></g></g></g></g></g></g></g></g></g></g></g><path id="_路径_10942" class="cls-31" d="m261.18,143.69l-2.25-1.31-3.6,2.07,2.26,1.31,3.59-2.07Z"/><path id="_路径_10944" class="cls-31" d="m259.42,300.65l24.43-14.11,2.26,1.3-26.69,15.4v-2.6Z"/><path id="_路径_10945" class="cls-44" d="m259.42,303.25l26.69-15.4.39,1.81-27.08,15.59v-2Z"/><g id="_组_5342"><path id="_路径_10941" class="cls-31" d="m250.37,122.92l-2.26-1.31,31.52,157.6,2.24,1.3-31.5-157.59Z"/><path id="_路径_10943" class="cls-44" d="m250.37,122.92l31.5,157.59,3.61-2.08-31.51-157.58-3.59,2.07Z"/><path id="_路径_10946" class="cls-31" d="m248.64,260.38l24.44-14.11,2.25,1.3-26.69,15.42v-2.61Z"/><path id="_路径_10947" class="cls-44" d="m248.64,263l26.69-15.41.39,1.82-27.08,15.59v-1.99Z"/><path id="_路径_10948" class="cls-31" d="m245.36,243.38l24.41-14.1,2.26,1.3-26.68,15.4v-2.6Z"/><path id="_路径_10949" class="cls-44" d="m245.36,245.98l26.68-15.4.39,1.81-27.07,15.58v-1.99Z"/><path id="_路径_10950" class="cls-31" d="m241.97,226.55l24.43-14.1,2.26,1.31-26.68,15.4v-2.62Z"/><path id="_路径_10951" class="cls-44" d="m241.97,229.17l26.68-15.4.4,1.82-27.08,15.57v-1.99Z"/><path id="_路径_10952" class="cls-31" d="m238.65,210.01l24.43-14.11,2.24,1.31-26.68,15.41v-2.61Z"/><path id="_路径_10953" class="cls-44" d="m238.65,212.62l26.68-15.41.41,1.81-27.08,15.59v-1.99Z"/><path id="_路径_10954" class="cls-31" d="m235.3,193.28l24.43-14.11,2.25,1.3-26.68,15.41v-2.61Z"/><path id="_路径_10955" class="cls-44" d="m235.3,195.88l26.68-15.4.4,1.81-27.08,15.59v-1.99Z"/><path id="_路径_10956" class="cls-31" d="m232.11,176.52l24.43-14.11,2.27,1.32-26.7,15.4v-2.61Z"/><path id="_路径_10957" class="cls-44" d="m232.11,179.12l26.7-15.4.38,1.81-27.08,15.59v-2Z"/><path id="_路径_10958" class="cls-31" d="m228.74,159.78l24.43-14.11,2.26,1.31-26.69,15.4v-2.61Z"/><path id="_路径_10959" class="cls-44" d="m228.74,162.39l26.69-15.4.38,1.82-27.07,15.57v-1.99Z"/><path id="_路径_10960" class="cls-31" d="m222.62,138.95l-2.25-1.31,31.5,157.6,2.25,1.31-31.5-157.6Z"/><path id="_路径_10961" class="cls-31" d="m226.2,136.87l-2.26-1.31-3.57,2.07,2.25,1.31,3.58-2.07Z"/><path id="_路径_10962" class="cls-44" d="m222.62,138.94l31.5,157.6,3.59-2.07-31.51-157.6-3.58,2.07Z"/><path id="_路径_10963" class="cls-38" d="m283.38,199.42c-.38,6.21-3.56,15.73-3.9,21.94,2.19,4.91.67,11.92-.07,16.59-.35,1.99-.83,3.96-1.43,5.88-.29.99-.58,1.97-.85,2.96-.22.76-.25,1.38-.39,2.13-.14.52-.58.89-1.12.95-.52.04-1.04-.03-1.53-.22-1.87-.64-3.7-1.41-5.48-2.3-.38-.15-.73-.38-1.03-.67-.3-.3-.39-.75-.23-1.14.2-.39-.19-.75.25-.85,1.15-.26,5.01.98,5.01-.63-.71-4.51-.73-11.17-1.69-15.47-.32-1.33-4.23-16.89-4.46-19.42-.3-3.06-.59-6.11-.71-9.18,0-.22,0-.46-.02-.67-.02-.6-.06-1.2-.1-1.8,1.65-5.04,18.25-6.18,17.75,1.88"/><g id="_组_5207" class="cls-103"><g id="_组_5206"><g class="cls-105"><g id="_组_5205"><path id="_路径_10964" class="cls-38" d="m283.38,199.42c-.38,6.21-3.56,15.73-3.9,21.94.03.07.06.15.1.22-2.95,1.33-7.89.41-7.32,4.2,1.1,5.95,1.1,11.68,1.1,17.62-.09.49-.41.9-.87,1.1.09-.12.13-.27.13-.42-.71-4.51-.73-11.17-1.69-15.47-.32-1.33-4.23-16.89-4.46-19.42-.3-3.06-.59-6.11-.71-9.18,0-.22,0-.46-.02-.67-.02-.6-.06-1.2-.1-1.8,1.65-5.04,18.25-6.18,17.75,1.88"/></g></g></g></g><path id="_路径_10965" class="cls-14" d="m277.37,250.88l-.05.1c-.32.69-.98,1.16-1.73,1.26-.3.01-.6-.02-.89-.08-.32-.05-.62-.13-.92-.25-.3-.14-.59-.32-.87-.51-.28-.23-.53-.49-.76-.77-.78-.65-1.72-1.07-2.73-1.2-1-.13-1.98-.42-2.89-.87-.41-.25-3.26-1.75-3.66-3.32-.15-.58,3.53-2.25,4.17-1.96.98.44,4.11,1.43,4.68,1.68-1.2.08-4.96-.35-5.1-.24-.26.2-.17.61.02.88.22.27.49.49.79.65,1.62.92,3.4,1.53,5.25,1.79.64.15,1.3.24,1.96.27.26,0,2.1-.19,2.54-1.68.42.65.62,1.41.58,2.18.03.71-.1,1.41-.37,2.07"/><path id="_路径_10966" class="cls-38" d="m257.83,248.37c1.54.61,3.58.81,4-1.09,1.82-8.29-.25-10.27-.6-18.68-.06-1.4-4.62-15.62-2.5-28.07l16.39,1.14c-.36,9.6-2.31,16.63-4.73,21.94,4.18,11.94-2.51,21.27-3.66,25.23-.07.58,1.4,2.34.09,3.64-.5.5-14.95-1.89-12.79-4.06.58-.58,2.48-.58,3.82-.05"/><g id="_组_5210" class="cls-103"><g id="_组_5209"><g class="cls-67"><g id="_组_5208"><path id="_路径_10967" class="cls-38" d="m262.55,224.01c-1.32,7.71,4.18,16.31-.66,23.36-.05.08-.1.14-.15.2.03-.09.06-.19.08-.29,1.83-8.29-.25-10.27-.6-18.68-.06-1.4-4.63-15.61-2.5-28.07l16.39,1.14c-.13,7.06-1.54,14.03-4.15,20.59-3.16,1.29-7.81-.88-8.41,1.74"/></g></g></g></g><path id="_路径_10968" class="cls-40" d="m282.71,218.07c-2.24,2.9-6.28,3.41-9.57,3.68-5.02.37-10.06,0-14.97-1.11-.78-.5-1.38-1.23-1.72-2.09-.44-1.34-.6-2.76-.45-4.17.2-4.49.92-8.95,2.17-13.27.42-1.91,1.29-3.68,2.53-5.19,1.86-1.9,4.44-1.82,6.81-1.67,3.27.22,6.54.41,9.81.66,1.99.15,4.69-.08,5.8,2.66,1,2.48.91,6.25,1.19,8.93.22,2.13.45,4.31.47,6.47-.34,1.81-1.04,3.54-2.06,5.08"/><path id="_路径_10969" class="cls-38" d="m254.11,154.13l-6.62.6-2.71,1.67c-.25.19-1.53.99-1.47,1.85.03.58.58,3.78,1.63,3.39.7-.25,6.14-3.16,6.14-3.16.39-.15,1.65-.18,1.86-.43l1.38-1.63-.2-2.3Z"/><path id="_路径_10970" class="cls-36" d="m252.69,153.6c-1.76.36-2.03,4.62.77,5.01l10.73,1.89c2.78.45,5.4-1.45,5.84-4.23s-1.45-5.4-4.23-5.84c-.06-.01-.13-.02-.19-.03,0,0-9.67,2.53-12.93,3.19"/><path id="_路径_10971" class="cls-41" d="m263.79,154.13c.58-.9,5.52-2.64,9.67-2.64s6.21-3.69,6.21.46-.6,23.08-4.75,23.08-13.36-17.41-11.13-20.9"/><path id="_路径_10972" class="cls-38" d="m274.51,148.36c0,2.44-8.46.61-8.46.61v-4.62l8.29-.55.17,3.35v1.2"/><path id="_路径_10973" class="cls-15" d="m275.6,140.32c-4.06,4.25-5.65,4.19-9.69,1.33s-5.74-6.9-4.77-12.89c1.03-6.38,8.63-7.99,13.45-5.04,9.24,5.63,6.05,11.32,1.01,16.61"/><path id="_路径_10974" class="cls-38" d="m273.85,136.21c-.24,1.81.46,4.35-.4,5.56-3.95,5.61-10.18,3.15-10.18,3.15-2.78-2.21-3.52-6.93-3.52-12.71s4.87-6.81,8.06-4.35,6.81,2.63,6.04,8.34"/><g id="_组_5213" class="cls-103"><g id="_组_5212"><g class="cls-54"><g id="_组_5211"><path id="_路径_10975" class="cls-38" d="m263.14,126.76c-2.12,3.77-2.45,8.22-1.83,12.48.29,2.37,1.29,4.93,3.24,6.03-.44-.08-.86-.2-1.28-.35-2.78-2.21-3.51-6.93-3.51-12.71,0-3.21,1.5-4.96,3.38-5.45"/></g></g></g></g><path id="_路径_10976" class="cls-15" d="m280.39,130.37c-.35-2.51-6.36-2.75-6.36-2.75-.44-.34-3.08-9.98-13.11-2.14-2.09,1.64-.89,7.94,1.26,11.26.27.39.7.63,1.16.67,1.91.29,5.08-1.31,5.52-.96.51.41-1.79.85-.17,3.68.22.38.43.77.63,1.12.87,1.55,1.9,4.73,5.91,2.08.3-.25,6.99-7.21,5.17-12.96"/><path id="_路径_10977" class="cls-38" d="m269.47,137.8c-.77,1.22-1.58,1.84-2.41,1.54s-1.04-1.31-.53-2.65,1.97-2.07,2.78-1.76,1.03,1.51.15,2.88"/><path id="_路径_10978" class="cls-9" d="m263.64,150.75c-.02-.53,1.94-4.2,2.41-3.83,1.73,1.37,6.09,1.03,7.31.39.66-.4,1.07-1.12,1.06-1.9,0,0,7.36,6.06-2.21,7.92-1.96.42-4,.21-5.83-.6-1.5-.72-4.12-.61-2.73-1.99"/><path id="_路径_10979" class="cls-36" d="m285.67,211.19c-1.01,1.35-2.48,2.3-4.14,2.65-2.58.51-5.21.8-7.84.85-3.2.34-6.43.24-9.61-.3-3.31-.57-6.29-2.35-8.36-5l-.03-.03c-2.35-12.1,2.45-23.95,3.12-32.07.29-3.46-1.27-6.09-1.76-7.44-4.34-11.67-1.5-15.43,7.08-20,0,0,2.62,2.98,8.44,1.7,5.94-1.3,3.39-4.82,3.39-4.82,8.58-1.11,7.99,7.76,6.86,12.78-.43,1.89-3.17,10.51-1.61,17.67.78,3.59,1.13,3.26,2.54,7.89,2.57,8.3,3.34,17.06,2.23,25.68-.1.16-.2.31-.32.46"/><path id="_路径_10980" class="cls-38" d="m240.05,164.55c.07.43.48.73.91.67.43-.07.73-.47.66-.91,0,0,0,0,0,0l-.67-4.31c-.06-.44-.46-.74-.9-.68s-.74.46-.68.9c0,0,0,.02,0,.03l.67,4.31Z"/><path id="_路径_10981" class="cls-38" d="m241.4,165.56l-1.17-4.05-1.76-2.85c-.19-.26-1.04-1.6-1.93-1.55-.61.03-3.97.6-3.56,1.71.27.74,3.09,5.77,3.09,5.77.92.55,1.67,1.34,2.18,2.27l.2,1.81,2.95-3.11Z"/><path id="_路径_10982" class="cls-36" d="m241.48,162.67s5.24,5.93,7.02,5.93c1.54,0,7.95-13.63,7.95-13.63,1.68-2.39,4.98-2.96,7.37-1.29,2.38,1.68,1.78,6.6.09,8.99l-10.93,15.26c-1.38,1.97-3.91,2.76-6.16,1.92-.96-.25-1.8-.81-2.41-1.59-2.27-3.1-7.97-12.76-8.13-13.05,2.44-2.38,2.41-2.13,5.21-2.55"/><path id="_路径_10983" class="cls-16" d="m277.09,127.74c.92-1.97,4.12.16,5.56,2.05,2.13,2.8,2.98,6.5,3.48,9.91.49,3.28.48,6.62-.02,9.91-.36,2.34-1.47,4.48-1.47,6.91-.15,1.25-.01,2.52.4,3.72.9,2.19,2.9,3.72,5.25,4-.77-.28-1.59.33-2.35.56-1.26.37-2.56.59-3.87.65-1.4.1-2.8.5-4.2.04-1.99-.65-3.66-2.86-4.84-4.47-1.8-2.45-2.06-5.33-1.98-8.28.06-2.12.27-4.93,1.6-6.6,1.37-2,2.29-4.26,2.72-6.64.31-1.08.53-2.19.67-3.3.04-.67-.04-1.36.03-2.03.23-2-2.01-4.24-.99-6.43"/><g id="_组_5219" class="cls-81"><g id="_组_5218"><g class="cls-106"><g id="_组_5217"><path id="_路径_10985" class="cls-16" d="m273.05,152.75c.06-2.11.27-4.93,1.6-6.6,1.37-2,2.3-4.26,2.72-6.64.31-1.08.53-2.19.67-3.31.04-.67-.04-1.36.03-2.03.23-2-2.01-4.24-.99-6.43l.03-.05c.65.57,1.04,1.38,1.07,2.24.88,4.41,1.54,8.59,0,12.78-1.32,4.18-3.96,7.94-3.3,12.56.86,4.6,3.97,8.46,8.28,10.29-1.09.23-2.22.21-3.3-.06-1.99-.65-3.66-2.86-4.84-4.47-1.8-2.45-2.06-5.32-1.98-8.28"/></g></g></g></g><g id="_组_5222" class="cls-103"><g id="_组_5221"><g class="cls-104"><g id="_组_5220"><path id="_路径_10986" class="cls-16" d="m283.26,158.78c-.66-6.61,1.32-13,1.1-19.61-.19-4-1.37-10.95-5.8-12.21,1.33.16,3.11,1.54,4.08,2.82,2.13,2.8,2.98,6.5,3.48,9.91.49,3.28.48,6.62-.02,9.91-.36,2.35-1.47,4.48-1.47,6.92-.15,1.25-.01,2.52.4,3.71.84,2.02,2.63,3.5,4.77,3.93-.65.14-1.28.35-1.88.64-.37.11-.72.2-1.07.28-1.99-1.54-3.28-3.8-3.6-6.29"/></g></g></g></g><path id="_路径_10987" class="cls-14" d="m267.68,253.58l-.03.11c-.23.72-.82,1.27-1.55,1.47-.29.05-.6.06-.89.03-.32,0-.64-.05-.95-.12-.32-.11-.63-.24-.92-.4-.3-.2-.59-.42-.85-.67-.86-.55-1.85-.83-2.86-.83-1.01,0-2.02-.16-2.97-.48-.44-.19-3.46-1.31-4.07-2.82-.2-.59-.16-1.24.1-1.81.34-.63.99-1.03,1.71-1.04.7,0,1.4.12,2.06.36,1.02.32,1.78.63,2.81.94.3.1.6.22,1.2.4-1.24.09-2.49.08-3.73-.01-.18,0-.36.05-.5.16-.23.23-.1.63.13.86.25.24.54.42.87.55,1.73.71,3.57,1.07,5.44,1.09.65.02,3.97.7,4.32-1.75.48.5.76,1.16.79,1.85.12.7.09,1.41-.1,2.1"/></g><g id="_组_5344"><path id="_路径_10874" class="cls-35" d="m99.33,373.61l-61.31-35.63,70.23-40.42,61.31,35.63-70.23,40.42Z"/><path id="_路径_10875" class="cls-22" d="m99.34,376.16l-61.31-35.63v-2.55s61.3,35.63,61.3,35.63v2.55Z"/><path id="_路径_10876" class="cls-4" d="m99.33,373.61l70.23-40.42v2.55s-70.23,40.43-70.23,40.43v-2.55Z"/><g id="_组_5193"><g id="_组_5192"><g class="cls-95"><g id="_组_5191"><path id="_路径_10877" class="cls-2" d="m101.56,260.16l3.35-1.9c-.23-.14-.48-.24-.74-.3l-3.35,1.9c.26.06.51.17.74.3"/><path id="_路径_10878" class="cls-2" d="m100.82,259.85l3.35-1.9c-.33-.09-.68-.05-.99.12l-3.35,1.9c.3-.16.66-.21.99-.12"/><path id="_路径_10879" class="cls-20" d="m152.97,324.02l3.35-1.9c.48-.33.75-.9.7-1.48l-3.35,1.9c.05.58-.21,1.15-.7,1.48"/><path id="_路径_10880" class="cls-2" d="m131.76,278.04l3.35-1.9-30.2-17.88-3.35,1.89,30.2,17.88Z"/><path id="_路径_10881" class="cls-2" d="m135.99,274.95l3.35-1.9c-.28-.16-.58-.28-.89-.36l-3.35,1.9c.31.07.61.19.89.36"/><path id="_路径_10882" class="cls-2" d="m135.1,274.59l3.35-1.9c-.52-.13-1.08-.07-1.55.19l-3.35,1.9c.48-.25,1.03-.32,1.55-.19"/><path id="_路径_10883" class="cls-2" d="m153.66,322.54l3.35-1.9,1.53-33.58-3.35,1.9-1.54,33.58Z"/><path id="_路径_10884" class="cls-2" d="m152.83,284.73l3.35-1.9-16.84-9.78-3.35,1.9,16.84,9.78Z"/><path id="_路径_10885" class="cls-2" d="m155.2,288.95l3.35-1.9c-.04-1.16-.47-2.28-1.21-3.18l-3.36,1.9c.74.9,1.17,2.01,1.21,3.18"/><path id="_路径_10886" class="cls-2" d="m153.99,285.78l3.36-1.9c-.33-.41-.72-.77-1.17-1.04l-3.35,1.9c.45.28.84.63,1.16,1.04"/><path id="_路径_10887" class="cls-11" d="m152.83,284.74l-16.84-9.78c-1.27-.75-2.7-.47-3.17.64l-1.06,2.44-30.2-17.88c-1.34-.79-2.43-.18-2.45,1.36l.64,29.02c.07,1.63.91,3.13,2.27,4.04l49.3,29.26c1.27.76,2.33.18,2.34-1.3l1.54-33.58c-.07-1.71-.95-3.27-2.37-4.22"/></g></g></g></g><path id="_路径_10888" class="cls-3" d="m154.92,294.19l-1.46,13.49,1.53.02,1.61-14.45-1.68.95Z"/><path id="_路径_10889" class="cls-6" d="m154.92,294.19l1.68-.95-51.74-34.19-1.68.95,51.74,34.19Z"/><path id="_路径_10890" class="cls-23" d="m103.18,259.99l-1.44,13.5,51.72,34.18,1.46-13.49-51.74-34.19Z"/><path id="_路径_10891" class="cls-11" d="m132.65,295.14c-.31-.9-.78-1.73-1.38-2.46-.53-.69-1.18-1.28-1.91-1.75l-29.52-17.74c-.27-.17-.57-.3-.89-.37-.36-.1-.75-.06-1.08.12l3.35-1.9c.33-.17.72-.21,1.07-.11.31.07.61.2.89.37l29.52,17.74c.73.47,1.38,1.06,1.91,1.75.6.73,1.07,1.56,1.38,2.46l1.04,3.38,19.71,11.75c.54.33,1.01.75,1.4,1.25.68.78,1.08,1.76,1.14,2.79l-1.48,24.89c.03.48-.2.94-.6,1.2l-3.35,1.9c.41-.26.64-.72.6-1.2l1.48-24.89c-.06-1.03-.46-2.01-1.13-2.79-.39-.5-.87-.92-1.41-1.25l-19.71-11.76-1.04-3.38Z"/><path id="_路径_10892" class="cls-5" d="m99.83,273.19c-1.41-.84-2.58-.37-2.6,1.01l.67,31.43c.15,1.6,1.05,3.03,2.42,3.87l51.64,30.65c1.35.8,2.47.36,2.49-.95l1.48-24.89c-.16-1.67-1.1-3.17-2.54-4.04l-19.7-11.75-1.04-3.38c-.62-1.72-1.78-3.19-3.3-4.21l-29.52-17.74Z"/><g id="_组_5198"><g id="_组_5197"><g class="cls-52"><g id="_组_5196"><path id="_路径_10893" class="cls-2" d="m86.75,269.25l3.35-1.9c-.23-.14-.48-.24-.74-.3l-3.35,1.9c.26.06.51.16.74.3"/><path id="_路径_10894" class="cls-2" d="m86.01,268.95l3.35-1.9c-.33-.09-.68-.05-.99.12l-3.35,1.9c.3-.16.66-.2.99-.12"/><path id="_路径_10895" class="cls-20" d="m138.16,333.11l3.35-1.9c.48-.33.75-.9.7-1.48l-3.35,1.9c.05.58-.21,1.15-.7,1.48"/><path id="_路径_10896" class="cls-2" d="m116.95,287.13l3.35-1.9-30.21-17.88-3.35,1.9,30.21,17.88Z"/><path id="_路径_10897" class="cls-2" d="m121.18,284.04l3.35-1.9c-.28-.16-.58-.28-.89-.36l-3.35,1.9c.31.07.61.19.89.36"/><path id="_路径_10898" class="cls-2" d="m120.28,283.68l3.35-1.9c-.52-.13-1.08-.07-1.55.19l-3.35,1.9c.48-.25,1.03-.32,1.55-.19"/><path id="_路径_10899" class="cls-2" d="m138.85,331.63l3.36-1.9,1.53-33.58-3.35,1.9-1.54,33.58Z"/><path id="_路径_10900" class="cls-2" d="m138.01,293.83l3.35-1.9-16.84-9.78-3.35,1.9,16.83,9.78Z"/><path id="_路径_10901" class="cls-2" d="m140.39,298.05l3.35-1.9c-.04-1.16-.47-2.28-1.21-3.18l-3.35,1.9c.74.9,1.17,2.01,1.21,3.18"/><path id="_路径_10902" class="cls-2" d="m139.18,294.87l3.35-1.9c-.32-.41-.72-.77-1.17-1.04l-3.35,1.89c.44.28.84.63,1.16,1.05"/><path id="_路径_10903" class="cls-11" d="m138.01,293.83l-16.84-9.78c-1.27-.75-2.7-.47-3.17.64l-1.06,2.45-30.21-17.88c-1.33-.79-2.42-.18-2.45,1.36l.64,29.02c.07,1.63.91,3.13,2.27,4.04l49.3,29.26c1.27.76,2.33.18,2.34-1.3l1.54-33.59c-.07-1.71-.96-3.27-2.38-4.22"/></g></g></g></g><path id="_路径_10904" class="cls-3" d="m138.65,316.76l1.53.02,1.61-14.45-1.68.95-1.46,13.49Z"/><path id="_路径_10905" class="cls-6" d="m140.11,303.27l1.68-.95-51.74-34.19-1.68.95,51.74,34.19Z"/><path id="_路径_10906" class="cls-23" d="m88.37,269.09l-1.44,13.5,51.72,34.18,1.46-13.49-51.74-34.19Z"/><path id="_路径_10907" class="cls-11" d="m117.84,304.23c-.31-.9-.78-1.73-1.38-2.46-.53-.69-1.18-1.28-1.91-1.75l-29.52-17.74c-.28-.17-.58-.29-.89-.37-.36-.1-.75-.06-1.08.11l3.35-1.9c.33-.17.72-.21,1.07-.11.31.08.61.2.89.37l29.53,17.74c.73.47,1.38,1.06,1.91,1.75.6.73,1.07,1.56,1.38,2.46l1.04,3.38,19.71,11.75c.54.33,1.01.75,1.4,1.25.68.78,1.08,1.76,1.14,2.79l-1.48,24.89c.04.48-.2.94-.6,1.2l-3.35,1.9c.41-.26.64-.72.6-1.2l1.48-24.89c-.06-1.03-.46-2.01-1.13-2.79-.39-.5-.87-.92-1.41-1.25l-19.71-11.75-1.04-3.38Z"/><path id="_路径_10908" class="cls-5" d="m85.02,282.29c-1.41-.84-2.58-.37-2.61,1.01l.67,31.43c.16,1.6,1.06,3.03,2.42,3.86l51.64,30.66c1.34.8,2.47.36,2.48-.95l1.5-24.89c-.17-1.67-1.11-3.17-2.55-4.04l-19.7-11.75-1.04-3.38c-.62-1.72-1.78-3.19-3.3-4.21l-29.52-17.74Z"/><g id="_组_5201"><g id="_组_5200"><g class="cls-73"><g id="_组_5199"><path id="_路径_10909" class="cls-2" d="m71.71,278.64l3.35-1.9c-.23-.14-.48-.24-.74-.3l-3.35,1.9c.26.06.51.16.74.3"/><path id="_路径_10910" class="cls-2" d="m70.96,278.33l3.35-1.9c-.33-.09-.68-.05-.99.12l-3.35,1.9c.3-.16.66-.2.99-.12"/><path id="_路径_10911" class="cls-20" d="m123.12,342.5l3.35-1.9c.48-.33.75-.9.7-1.48l-3.35,1.9c.05.58-.21,1.15-.7,1.48"/><path id="_路径_10912" class="cls-2" d="m101.91,296.51l3.36-1.9-30.21-17.88-3.35,1.9,30.21,17.88Z"/><path id="_路径_10913" class="cls-2" d="m106.14,293.42l3.35-1.9c-.28-.16-.58-.28-.89-.36l-3.35,1.9c.31.07.61.19.89.36"/><path id="_路径_10914" class="cls-2" d="m105.25,293.07l3.36-1.9c-.53-.13-1.08-.07-1.56.19l-3.35,1.9c.48-.25,1.03-.32,1.55-.19"/><path id="_路径_10915" class="cls-2" d="m123.81,341.01l3.35-1.9,1.53-33.58-3.35,1.9-1.54,33.58Z"/><path id="_路径_10916" class="cls-2" d="m122.97,303.21l3.36-1.9-16.84-9.78-3.35,1.9,16.83,9.78Z"/><path id="_路径_10917" class="cls-2" d="m125.34,307.43l3.35-1.9c-.04-1.16-.47-2.28-1.21-3.18l-3.35,1.9c.74.9,1.17,2.01,1.21,3.18"/><path id="_路径_10918" class="cls-2" d="m124.14,304.25l3.35-1.9c-.32-.41-.72-.77-1.17-1.04l-3.35,1.89c.44.28.84.63,1.16,1.05"/><path id="_路径_10919" class="cls-11" d="m122.97,303.21l-16.84-9.78c-1.27-.75-2.7-.46-3.17.64l-1.06,2.44-30.19-17.88c-1.34-.79-2.43-.18-2.45,1.36l.64,29.02c.07,1.63.91,3.13,2.27,4.04l49.3,29.26c1.27.76,2.33.18,2.35-1.3l1.53-33.58c-.07-1.71-.95-3.28-2.37-4.23"/></g></g></g></g><path id="_路径_10920" class="cls-3" d="m123.61,326.15l1.53.02,1.61-14.46-1.68.95-1.46,13.49Z"/><path id="_路径_10921" class="cls-6" d="m125.07,312.66l1.68-.95-51.74-34.2-1.68.95,51.74,34.19Z"/><path id="_路径_10922" class="cls-23" d="m73.33,278.47l-1.44,13.5,51.72,34.18,1.46-13.49-51.73-34.19Z"/><path id="_路径_10923" class="cls-11" d="m102.8,313.61c-.31-.9-.78-1.73-1.39-2.46-.53-.69-1.18-1.28-1.91-1.75l-29.52-17.74c-.28-.16-.58-.29-.89-.37-.36-.1-.75-.06-1.08.11l3.35-1.9c.33-.16.71-.2,1.07-.11.31.08.62.2.89.37l29.52,17.74c.73.47,1.38,1.06,1.91,1.75.61.73,1.07,1.56,1.38,2.46l1.04,3.38,19.71,11.75c.54.33,1.01.75,1.4,1.25.68.78,1.08,1.76,1.14,2.79l-1.48,24.89c.04.48-.2.94-.6,1.2l-3.35,1.9c.41-.26.64-.72.6-1.2l1.48-24.89c-.06-1.03-.46-2.01-1.13-2.79-.39-.5-.87-.92-1.41-1.25l-19.71-11.75-1.04-3.38Z"/><path id="_路径_10924" class="cls-5" d="m69.98,291.67c-1.41-.84-2.58-.37-2.6,1.01l.67,31.43c.15,1.6,1.05,3.03,2.42,3.87l51.64,30.65c1.35.8,2.47.37,2.49-.95l1.49-24.89c-.16-1.67-1.1-3.17-2.54-4.04l-19.71-11.74-1.04-3.38c-.62-1.72-1.77-3.19-3.29-4.21l-29.53-17.74Z"/><g id="_组_5204"><g id="_组_5203"><g class="cls-87"><g id="_组_5202"><path id="_路径_10925" class="cls-2" d="m55.51,287.12l3.35-1.9c-.23-.14-.48-.24-.74-.3l-3.35,1.9c.26.06.51.16.74.3"/><path id="_路径_10926" class="cls-2" d="m54.77,286.81l3.35-1.9c-.33-.09-.68-.05-.99.12l-3.35,1.9c.3-.16.66-.2.99-.12"/><path id="_路径_10927" class="cls-20" d="m106.92,350.98l3.35-1.9c.48-.33.75-.9.7-1.48l-3.35,1.9c.05.58-.22,1.15-.7,1.48"/><path id="_路径_10928" class="cls-2" d="m85.71,305l3.35-1.9-30.2-17.88-3.35,1.89,30.2,17.88Z"/><path id="_路径_10929" class="cls-2" d="m89.94,301.91l3.36-1.9c-.28-.16-.58-.28-.89-.36l-3.35,1.9c.31.07.61.19.89.36"/><path id="_路径_10930" class="cls-2" d="m89.05,301.55l3.35-1.9c-.52-.13-1.08-.07-1.55.19l-3.35,1.9c.48-.25,1.03-.32,1.55-.19"/><path id="_路径_10931" class="cls-2" d="m107.62,349.5l3.35-1.9,1.53-33.58-3.35,1.9-1.54,33.58Z"/><path id="_路径_10932" class="cls-2" d="m106.78,311.69l3.35-1.9-16.84-9.78-3.35,1.9,16.84,9.78Z"/><path id="_路径_10933" class="cls-2" d="m109.15,315.92l3.35-1.9c-.04-1.16-.47-2.28-1.21-3.18l-3.35,1.9c.74.9,1.17,2.01,1.21,3.18"/><path id="_路径_10934" class="cls-2" d="m107.94,312.74l3.35-1.9c-.33-.41-.72-.77-1.17-1.04l-3.35,1.89c.44.28.84.63,1.16,1.05"/><path id="_路径_10935" class="cls-11" d="m106.77,311.69l-16.84-9.78c-1.27-.75-2.7-.47-3.17.64l-1.06,2.45-30.19-17.88c-1.34-.79-2.43-.18-2.45,1.36l.65,29.02c.07,1.63.91,3.13,2.27,4.04l49.3,29.26c1.27.76,2.33.18,2.34-1.3l1.54-33.58c-.07-1.71-.95-3.28-2.37-4.23"/></g></g></g></g><path id="_路径_10936" class="cls-3" d="m107.41,334.64l1.53.02,1.61-14.45-1.68.95-1.46,13.49Z"/><path id="_路径_10937" class="cls-6" d="m108.88,321.15l1.68-.95-51.74-34.19-1.68.95,51.74,34.19Z"/><path id="_路径_10938" class="cls-23" d="m57.13,286.96l-1.44,13.5,51.72,34.18,1.46-13.49-51.74-34.19Z"/><path id="_路径_10939" class="cls-11" d="m86.6,322.1c-.31-.9-.78-1.73-1.38-2.46-.53-.69-1.18-1.28-1.91-1.75l-29.52-17.74c-.28-.17-.58-.29-.89-.37-.36-.1-.75-.06-1.08.11l3.35-1.9c.33-.17.72-.21,1.07-.11.31.08.62.2.89.37l29.52,17.74c.73.47,1.38,1.06,1.91,1.75.61.73,1.07,1.56,1.38,2.46l1.04,3.38,19.71,11.75c.54.33,1.01.75,1.4,1.25.68.78,1.08,1.76,1.14,2.79l-1.48,24.89c.04.48-.2.94-.6,1.2l-3.35,1.9c.41-.26.64-.72.6-1.2l1.48-24.89c-.06-1.03-.46-2.01-1.13-2.79-.39-.5-.87-.92-1.41-1.25l-19.71-11.75-1.04-3.38Z"/><path id="_路径_10940" class="cls-5" d="m53.78,300.15c-1.41-.84-2.58-.37-2.6,1.01l.67,31.43c.16,1.6,1.05,3.03,2.42,3.86l51.64,30.66c1.35.8,2.47.36,2.49-.95l1.48-24.89c-.16-1.67-1.1-3.17-2.54-4.04l-19.71-11.75-1.05-3.38c-.62-1.72-1.78-3.19-3.3-4.21l-29.52-17.74Z"/><g class="cls-112"><g id="_组_5225"><rect id="_矩形_2089" class="cls-12" x="13.53" y="283.35" width="78.6" height="96.75"/></g></g><g class="cls-85"><g id="_组_5227"><rect id="_矩形_2090" class="cls-32" x="92.11" y="325.17" width="7.16" height="54.93"/></g></g><g class="cls-66"><g id="_组_5229"><rect id="_矩形_2091" class="cls-47" x="10.91" y="274.61" width="90.96" height="59.3" transform="translate(-35.54 8.79) rotate(-6.78)"/></g></g><path id="_路径_10991" class="cls-4" d="m158.86,339.22l-.99-.58-.07-16.69.99.58.07,16.69Z"/><path id="_路径_10992" class="cls-4" d="m156.51,319.1l.99.58c.92.65,1.41,1.74,1.3,2.86l-.98-.58c.11-1.12-.39-2.21-1.3-2.86"/><g class="cls-70"><g id="_组_5233"><path id="_路径_10993" class="cls-4" d="m158.79,322.53l-.99-.58c.11-1.12-.38-2.21-1.3-2.86l.99.58c.91.65,1.41,1.74,1.3,2.86"/></g></g><path id="_路径_10995" class="cls-4" d="m161.83,309.91l.99.58c-1.04-.48-2.25-.36-3.18.31l-.99-.58c.92-.67,2.14-.79,3.18-.31"/><g class="cls-80"><g id="_组_5237"><path id="_路径_10996" class="cls-4" d="m159.64,310.79l-.99-.58c.77-.51,1.7-.7,2.61-.54l.99.58c-.91-.17-1.84.03-2.61.54"/><path id="_路径_10997" class="cls-4" d="m162.25,310.25l-.99-.58c.2.05.39.12.57.23l.99.58c-.18-.1-.37-.18-.57-.23"/></g></g><path id="_路径_10999" class="cls-4" d="m141.34,349.34l-.99-.58-.07-16.7.99.58.07,16.7Z"/><path id="_路径_11000" class="cls-4" d="m138.98,329.21l.99.58c.92.65,1.41,1.74,1.3,2.86l-.99-.58c.11-1.12-.38-2.21-1.3-2.86"/><g class="cls-117"><g id="_组_5241"><path id="_路径_11001" class="cls-4" d="m141.27,332.64l-.99-.58c.11-1.12-.38-2.21-1.3-2.86l.98.58c.92.65,1.42,1.74,1.3,2.86"/></g></g><path id="_路径_11003" class="cls-4" d="m123.81,359.46l-.99-.58-.07-16.7.99.58.07,16.7Z"/><path id="_路径_11004" class="cls-4" d="m121.46,339.33l.99.58c.92.65,1.41,1.74,1.3,2.86l-.99-.58c.11-1.12-.38-2.21-1.3-2.86"/><g class="cls-102"><g id="_组_5245"><path id="_路径_11005" class="cls-4" d="m123.74,342.76l-.99-.58c.12-1.12-.38-2.21-1.3-2.86l.99.58c.92.65,1.41,1.74,1.3,2.86"/></g></g><path id="_路径_11007" class="cls-4" d="m105.7,369.92l-.99-.58-.09-22.81.99.58.09,22.81Z"/><path id="_路径_11008" class="cls-4" d="m110.06,339.41l-.99-.58,49.58-28.62.99.58-49.58,28.62Z"/><path id="_路径_11009" class="cls-7" d="m159.64,310.79c2.46-1.42,4.46-.28,4.48,2.55l.09,22.8-5.34,3.09-.07-16.7c0-2.83-2.01-3.97-4.47-2.55l-3.86,2.23c-2.62,1.71-4.27,4.57-4.44,7.7l.07,16.7-4.75,2.74-.06-16.7c-.01-2.83-2.02-3.97-4.48-2.55l-3.86,2.23c-2.63,1.71-4.28,4.57-4.44,7.7l.07,16.7-4.75,2.74-.08-16.7c0-2.83-2.01-3.97-4.47-2.55l-3.86,2.23c-2.63,1.71-4.28,4.57-4.45,7.7l.07,16.7-5.34,3.08-.09-22.8c.16-3.13,1.81-5.99,4.44-7.7l49.58-28.63Z"/><path id="_路径_11010" class="cls-4" d="m105.62,347.11l-.99-.58c.16-3.13,1.82-5.99,4.45-7.7l.98.58c-2.63,1.71-4.28,4.57-4.44,7.7"/><g class="cls-86"><g id="_组_5249"><path id="_路径_11011" class="cls-4" d="m105.62,347.11l-.99-.58c.05-1.46.45-2.9,1.18-4.17l.99.58c-.73,1.27-1.13,2.7-1.18,4.17"/><path id="_路径_11012" class="cls-4" d="m106.79,342.94l-.99-.58c.76-1.44,1.89-2.66,3.27-3.53l.99.58c-1.38.87-2.51,2.08-3.27,3.53"/></g></g></g><g id="_组_5341"><g class="cls-96"><g id="_组_5251"><rect id="_矩形_2097" class="cls-19" x="213.27" y="266.36" width="91.94" height="84.49"/></g></g><g class="cls-61"><g id="_组_5253"><rect id="_矩形_2098" class="cls-28" x="208.84" y="316.73" width="4.44" height="34.12"/></g></g><g class="cls-56"><g id="_组_5255"><rect id="_矩形_2099" class="cls-17" x="223.96" y="240.44" width="66.14" height="102.2" transform="translate(-62.81 512.38) rotate(-83.22)"/></g></g><g class="cls-74"><g id="_组_5257"><rect id="_矩形_2100" class="cls-10" x="302.35" y="267.82" width="66.92" height="70.01"/></g></g><g class="cls-118"><g id="_组_5259"><rect id="_矩形_2101" class="cls-30" x="369.25" y="303.72" width="4.44" height="34.11"/></g></g><g class="cls-79"><g id="_组_5261"><rect id="_矩形_2102" class="cls-21" x="300.2" y="261.36" width="75.64" height="48.82" transform="translate(-31.38 41.92) rotate(-6.78)"/></g></g><g id="_组_5278"><g id="_组_5277"><g class="cls-64"><g id="_组_5276"><g id="_组_5269"><g class="cls-78"><g id="_组_5268"><g id="_组_5267"><g class="cls-94"><g id="_组_5266"><g id="_组_5265"><g id="_组_5264"><g class="cls-69"><g id="_组_5263"><path id="_路径_11020" class="cls-2" d="m305.23,260.08l3.24-1.84c-.22-.13-.46-.23-.71-.29l-3.25,1.84c.25.06.49.16.72.29"/><path id="_路径_11021" class="cls-2" d="m304.51,259.79l3.24-1.84c-.32-.08-.66-.04-.95.11l-3.24,1.84c.29-.16.63-.2.95-.11"/></g></g></g></g></g></g></g></g></g></g><path id="_路径_11022" class="cls-20" d="m354.93,321.82l3.24-1.84c.47-.32.72-.87.67-1.43l-3.24,1.84c.05.56-.21,1.11-.67,1.43"/><path id="_路径_11023" class="cls-2" d="m334.42,277.37l3.24-1.84-29.19-17.29-3.25,1.84,29.2,17.29Z"/><g id="_组_5272"><g id="_组_5271"><g class="cls-60"><g id="_组_5270"><path id="_路径_11024" class="cls-2" d="m338.51,274.38l3.25-1.84c-.27-.16-.56-.28-.87-.34l-3.24,1.84c.3.07.59.18.86.34"/><path id="_路径_11025" class="cls-2" d="m337.65,274.04l3.24-1.84c-.51-.13-1.04-.06-1.5.18l-3.24,1.84c.46-.25,1-.31,1.5-.18"/></g></g></g></g><path id="_路径_11026" class="cls-2" d="m355.6,320.38l3.25-1.84,1.48-32.46-3.24,1.84-1.48,32.46Z"/><path id="_路径_11027" class="cls-2" d="m354.79,283.84l3.24-1.84-16.28-9.46-3.24,1.84,16.28,9.46Z"/><g id="_组_5275"><g id="_组_5274"><g class="cls-109"><g id="_组_5273"><path id="_路径_11028" class="cls-2" d="m357.08,287.92l3.24-1.84c-.04-1.12-.45-2.21-1.17-3.07l-3.24,1.84c.71.87,1.12,1.95,1.17,3.07"/><path id="_路径_11029" class="cls-2" d="m355.91,284.85l3.24-1.84c-.31-.4-.69-.74-1.13-1.01l-3.24,1.84c.43.27.81.61,1.13,1.01"/></g></g></g></g><path id="_路径_11030" class="cls-11" d="m354.79,283.84l-16.28-9.46c-1.23-.73-2.61-.45-3.06.62l-1.03,2.36-29.19-17.29c-1.29-.76-2.35-.17-2.37,1.31l.62,28.06c.07,1.58.88,3.03,2.2,3.9l47.65,28.29c1.23.73,2.25.16,2.27-1.26l1.48-32.46c-.07-1.65-.92-3.17-2.29-4.08"/></g></g></g></g><path id="_路径_11031" class="cls-3" d="m355.4,306.01l1.48.02,1.56-13.97-1.62.92-1.41,13.03Z"/><path id="_路径_11032" class="cls-6" d="m356.81,292.98l1.62-.92-50.01-33.05-1.63.92,50.02,33.05Z"/><path id="_路径_11033" class="cls-23" d="m306.8,259.93l-1.4,13.05,50,33.04,1.41-13.04-50.02-33.05Z"/><path id="_路径_11034" class="cls-11" d="m335.28,293.9c-.3-.87-.75-1.67-1.34-2.37-.51-.67-1.14-1.24-1.85-1.69l-28.54-17.15c-.27-.17-.56-.29-.86-.36-.35-.1-.72-.06-1.04.11l3.24-1.84c.32-.16.69-.2,1.04-.11.3.07.6.19.86.36l28.54,17.15c.71.45,1.33,1.03,1.85,1.69.59.7,1.04,1.51,1.34,2.37l1.01,3.27,19.05,11.35c.52.32.98.73,1.36,1.21.65.75,1.04,1.7,1.1,2.7l-1.44,24.06c.03.46-.19.91-.58,1.15l-3.25,1.84c.39-.25.62-.7.58-1.17l1.44-24.06c-.06-1-.45-1.95-1.1-2.7-.38-.48-.84-.89-1.36-1.21l-19.05-11.35-1.01-3.26Z"/><path id="_路径_11035" class="cls-5" d="m303.56,272.68c-1.36-.81-2.49-.37-2.51.98l.65,30.38c.15,1.55,1.01,2.93,2.34,3.74l49.92,29.63c1.3.78,2.39.36,2.41-.92l1.44-24.06c-.16-1.62-1.07-3.06-2.46-3.91l-19.05-11.36-1-3.27c-.6-1.66-1.71-3.09-3.18-4.07l-28.54-17.15Z"/><g id="_组_5284"><g id="_组_5283"><g class="cls-99"><g id="_组_5282"><path id="_路径_11036" class="cls-2" d="m289.57,268.28l3.25-1.84c-.22-.13-.47-.23-.72-.29l-3.24,1.84c.25.06.49.16.72.29"/><path id="_路径_11037" class="cls-2" d="m288.86,267.99l3.24-1.84c-.32-.08-.66-.04-.95.11l-3.24,1.84c.29-.16.63-.2.95-.11"/><path id="_路径_11038" class="cls-20" d="m339.27,330.02l3.24-1.84c.47-.32.72-.87.67-1.43l-3.24,1.83c.05.56-.21,1.11-.67,1.43"/><path id="_路径_11039" class="cls-2" d="m318.77,285.57l3.24-1.84-29.2-17.28-3.24,1.83,29.2,17.29Z"/><path id="_路径_11040" class="cls-2" d="m322.86,282.58l3.24-1.84c-.27-.16-.56-.28-.87-.34l-3.24,1.83c.3.07.6.18.87.34"/><path id="_路径_11041" class="cls-2" d="m321.99,282.24l3.25-1.84c-.51-.13-1.05-.06-1.51.18l-3.24,1.84c.46-.25,1-.31,1.5-.18"/><path id="_路径_11042" class="cls-2" d="m339.94,328.59l3.24-1.84,1.49-32.46-3.25,1.84-1.48,32.46Z"/><path id="_路径_11043" class="cls-2" d="m339.13,292.04l3.24-1.84-16.28-9.46-3.24,1.84,16.28,9.46Z"/><g id="_组_5281"><g id="_组_5280"><g class="cls-83"><g id="_组_5279"><path id="_路径_11044" class="cls-2" d="m341.42,296.12l3.24-1.84c-.04-1.12-.45-2.21-1.17-3.07l-3.24,1.84c.72.87,1.13,1.95,1.17,3.07"/><path id="_路径_11045" class="cls-2" d="m340.26,293.05l3.24-1.84c-.31-.4-.69-.74-1.13-1.01l-3.24,1.84c.43.27.81.61,1.13,1.01"/></g></g></g></g><path id="_路径_11046" class="cls-11" d="m339.13,292.04l-16.28-9.46c-1.23-.73-2.61-.45-3.06.62l-1.03,2.36-29.2-17.28c-1.29-.76-2.35-.17-2.37,1.31l.62,28.05c.07,1.58.88,3.03,2.2,3.91l47.65,28.29c1.23.73,2.25.16,2.27-1.26l1.48-32.46c-.07-1.65-.92-3.17-2.29-4.08"/></g></g></g></g><path id="_路径_11047" class="cls-3" d="m339.74,314.22l1.48.02,1.56-13.97-1.63.92-1.41,13.04Z"/><path id="_路径_11048" class="cls-6" d="m341.16,301.18l1.62-.92-50.01-33.05-1.63.92,50.02,33.05Z"/><path id="_路径_11049" class="cls-23" d="m291.14,268.13l-1.4,13.05,50,33.04,1.41-13.04-50.02-33.05Z"/><path id="_路径_11050" class="cls-11" d="m319.63,302.1c-.3-.87-.75-1.67-1.34-2.38-.52-.66-1.14-1.23-1.85-1.69l-28.54-17.16c-.27-.16-.56-.28-.86-.36-.35-.1-.72-.06-1.04.11l3.24-1.84c.32-.16.69-.2,1.04-.11.3.07.6.19.86.36l28.54,17.15c.71.45,1.33,1.02,1.85,1.69.59.7,1.05,1.51,1.35,2.37l1,3.27,19.05,11.35c.52.32.98.73,1.36,1.21.65.76,1.04,1.7,1.1,2.7l-1.44,24.06c.03.46-.19.91-.58,1.15l-3.24,1.84c.39-.25.61-.7.58-1.17l1.44-24.06c-.06-1-.45-1.95-1.1-2.7-.38-.48-.84-.89-1.36-1.21l-19.05-11.35-1.01-3.26Z"/><path id="_路径_11051" class="cls-5" d="m287.27,280.89c-1.36-.81-2.5-.36-2.51.98l.65,30.38c.15,1.55,1.02,2.93,2.34,3.74l49.92,29.63c1.3.78,2.39.36,2.41-.92l1.44-24.06c-.16-1.62-1.07-3.06-2.46-3.91l-19.05-11.36-1-3.26c-.6-1.66-1.72-3.09-3.18-4.07l-28.54-17.15Z"/><g id="_组_5293"><g id="_组_5292"><g class="cls-50"><g id="_组_5291"><path id="_路径_11052" class="cls-2" d="m275.37,276.47l3.24-1.84c-.22-.13-.46-.23-.71-.29l-3.25,1.84c.25.06.49.16.72.29"/><path id="_路径_11053" class="cls-2" d="m274.65,276.18l3.25-1.84c-.32-.09-.67-.05-.96.11l-3.24,1.84c.29-.16.63-.2.95-.11"/><path id="_路径_11054" class="cls-20" d="m325.06,338.21l3.24-1.84c.47-.32.72-.87.67-1.43l-3.24,1.84c.05.56-.21,1.11-.67,1.43"/><path id="_路径_11055" class="cls-2" d="m304.56,293.76l3.25-1.84-29.2-17.28-3.25,1.83,29.2,17.29Z"/><g id="_组_5287"><g id="_组_5286"><g class="cls-65"><g id="_组_5285"><path id="_路径_11056" class="cls-2" d="m308.65,290.77l3.24-1.83c-.26-.16-.56-.28-.86-.35l-3.24,1.84c.3.07.59.18.86.34"/><path id="_路径_11057" class="cls-2" d="m307.79,290.43l3.24-1.84c-.51-.13-1.04-.06-1.5.18l-3.24,1.84c.46-.24,1-.31,1.5-.18"/></g></g></g></g><path id="_路径_11058" class="cls-2" d="m325.74,336.78l3.24-1.84,1.49-32.46-3.25,1.84-1.48,32.46Z"/><path id="_路径_11059" class="cls-2" d="m324.93,300.23l3.24-1.83-16.28-9.46-3.24,1.83,16.28,9.46Z"/><g id="_组_5290"><g id="_组_5289"><g class="cls-58"><g id="_组_5288"><path id="_路径_11060" class="cls-2" d="m327.22,304.31l3.23-1.84c-.04-1.12-.45-2.21-1.16-3.07l-3.24,1.84c.71.87,1.12,1.95,1.17,3.07"/><path id="_路径_11061" class="cls-2" d="m326.05,301.24l3.24-1.84c-.31-.4-.69-.74-1.13-1l-3.24,1.83c.43.27.81.61,1.13,1.01"/></g></g></g></g><path id="_路径_11062" class="cls-11" d="m324.93,300.23l-16.28-9.46c-1.23-.73-2.61-.45-3.06.62l-1.03,2.36-29.2-17.29c-1.29-.76-2.35-.17-2.37,1.32l.62,28.05c.07,1.58.89,3.03,2.2,3.9l47.65,28.29c1.23.73,2.25.17,2.27-1.26l1.48-32.46c-.07-1.65-.92-3.17-2.29-4.08"/></g></g></g></g><path id="_路径_11063" class="cls-3" d="m325.54,322.41l1.48.02,1.56-13.97-1.62.92-1.42,13.04Z"/><path id="_路径_11064" class="cls-6" d="m326.95,309.37l1.62-.92-50.01-33.05-1.63.92,50.02,33.05Z"/><path id="_路径_11065" class="cls-23" d="m276.94,276.32l-1.4,13.05,50,33.04,1.41-13.04-50.02-33.05Z"/><path id="_路径_11066" class="cls-11" d="m305.42,310.29c-.3-.87-.75-1.67-1.34-2.38-.52-.66-1.14-1.23-1.85-1.69l-28.54-17.15c-.27-.16-.56-.28-.86-.36-.35-.1-.72-.06-1.04.11l3.24-1.84c.32-.16.7-.2,1.05-.11.3.07.59.2.85.36l28.54,17.15c.71.45,1.33,1.02,1.85,1.69.59.7,1.05,1.51,1.35,2.37l1,3.27,19.05,11.35c.52.32.98.73,1.36,1.21.65.76,1.04,1.7,1.1,2.7l-1.44,24.06c.03.46-.19.91-.58,1.15l-3.24,1.83c.39-.25.61-.69.58-1.15l1.44-24.06c-.06-1-.45-1.95-1.1-2.7-.38-.48-.84-.89-1.36-1.21l-19.05-11.35-1.01-3.26Z"/><path id="_路径_11067" class="cls-5" d="m273.06,289.07c-1.36-.81-2.5-.36-2.51.98l.65,30.38c.15,1.55,1.02,2.93,2.35,3.74l49.91,29.63c1.31.78,2.4.36,2.41-.92l1.44-24.06c-.16-1.62-1.07-3.06-2.46-3.91l-19.05-11.36-1-3.26c-.6-1.67-1.72-3.09-3.19-4.08l-28.54-17.15Z"/><g id="_组_5299"><g id="_组_5298"><g class="cls-92"><g id="_组_5297"><path id="_路径_11068" class="cls-2" d="m261.05,285.26l3.25-1.83c-.22-.13-.46-.23-.72-.29l-3.24,1.84c.25.06.49.16.71.29"/><path id="_路径_11069" class="cls-2" d="m260.33,284.97l3.24-1.84c-.32-.08-.66-.04-.95.11l-3.24,1.84c.29-.16.63-.2.95-.11"/><path id="_路径_11070" class="cls-20" d="m310.75,347l3.24-1.84c.47-.32.72-.87.67-1.43l-3.24,1.84c.05.56-.21,1.11-.67,1.43"/><path id="_路径_11071" class="cls-2" d="m290.24,302.55l3.25-1.84-29.2-17.28-3.25,1.83,29.2,17.29Z"/><path id="_路径_11072" class="cls-2" d="m294.33,299.56l3.24-1.84c-.27-.16-.56-.28-.86-.34l-3.24,1.84c.3.07.59.18.86.34"/><path id="_路径_11073" class="cls-2" d="m293.47,299.22l3.25-1.84c-.51-.13-1.05-.06-1.51.18l-3.24,1.84c.46-.24,1-.31,1.5-.18"/><path id="_路径_11074" class="cls-2" d="m311.42,345.57l3.24-1.83,1.48-32.47-3.24,1.84-1.48,32.46Z"/><path id="_路径_11075" class="cls-2" d="m310.61,309.02l3.24-1.84-16.28-9.46-3.24,1.84,16.28,9.46Z"/><g id="_组_5296"><g id="_组_5295"><g class="cls-115"><g id="_组_5294"><path id="_路径_11076" class="cls-2" d="m312.9,313.1l3.24-1.84c-.04-1.12-.45-2.21-1.17-3.07l-3.24,1.84c.71.87,1.12,1.95,1.17,3.07"/><path id="_路径_11077" class="cls-2" d="m311.73,310.03l3.24-1.84c-.31-.4-.69-.74-1.13-1.01l-3.24,1.84c.43.27.81.61,1.13,1.01"/></g></g></g></g><path id="_路径_11078" class="cls-11" d="m310.61,309.02l-16.28-9.46c-1.23-.73-2.61-.45-3.06.62l-1.03,2.36-29.2-17.29c-1.29-.76-2.35-.17-2.37,1.32l.62,28.05c.07,1.58.88,3.02,2.2,3.9l47.65,28.29c1.23.73,2.25.16,2.27-1.26l1.48-32.46c-.07-1.65-.92-3.17-2.29-4.08"/></g></g></g></g><path id="_路径_11079" class="cls-3" d="m311.22,331.2l1.48.02,1.56-13.97-1.62.92-1.42,13.04Z"/><path id="_路径_11080" class="cls-6" d="m312.63,318.16l1.62-.92-50.01-33.05-1.63.92,50.02,33.05Z"/><path id="_路径_11081" class="cls-23" d="m262.62,285.11l-1.4,13.04,50,33.04,1.41-13.04-50.01-33.05Z"/><path id="_路径_11082" class="cls-11" d="m291.1,319.08c-.3-.87-.75-1.67-1.34-2.37-.51-.67-1.14-1.24-1.85-1.69l-28.54-17.15c-.27-.17-.56-.29-.86-.36-.35-.1-.72-.06-1.04.11l3.24-1.83c.32-.16.69-.2,1.04-.11.3.07.6.19.86.36l28.54,17.15c.71.45,1.33,1.02,1.85,1.69.59.7,1.05,1.51,1.35,2.37l1,3.27,19.05,11.35c.52.32.98.73,1.36,1.21.65.75,1.04,1.7,1.1,2.7l-1.44,24.06c.03.46-.19.91-.58,1.15l-3.24,1.84c.39-.25.61-.7.58-1.17l1.44-24.06c-.06-1-.45-1.95-1.1-2.7-.38-.48-.84-.89-1.36-1.21l-19.05-11.35-1.01-3.26Z"/><path id="_路径_11083" class="cls-5" d="m258.75,297.87c-1.36-.81-2.5-.37-2.51.98l.65,30.38c.15,1.55,1.02,2.93,2.35,3.74l49.92,29.63c1.3.78,2.39.36,2.41-.92l1.44-24.06c-.16-1.62-1.07-3.06-2.46-3.91l-19.05-11.36-1-3.27c-.6-1.66-1.72-3.08-3.18-4.07l-28.54-17.15Z"/><g id="_组_5305"><g id="_组_5304"><g class="cls-91"><g id="_组_5303"><path id="_路径_11084" class="cls-2" d="m246.51,294.33l3.24-1.84c-.22-.13-.46-.23-.71-.29l-3.25,1.84c.25.06.49.16.72.29"/><path id="_路径_11085" class="cls-2" d="m245.8,294.04l3.25-1.84c-.32-.08-.67-.04-.96.11l-3.24,1.84c.29-.16.63-.2.95-.11"/><path id="_路径_11086" class="cls-20" d="m296.21,356.07l3.24-1.84c.47-.32.72-.87.67-1.43l-3.24,1.84c.05.56-.21,1.11-.67,1.43"/><path id="_路径_11087" class="cls-2" d="m275.7,311.62l3.24-1.84-29.19-17.28-3.25,1.83,29.2,17.29Z"/><path id="_路径_11088" class="cls-2" d="m279.79,308.63l3.24-1.84c-.27-.16-.56-.28-.87-.34l-3.24,1.83c.3.07.59.18.86.34"/><path id="_路径_11089" class="cls-2" d="m278.93,308.29l3.24-1.84c-.51-.13-1.04-.06-1.5.18l-3.24,1.84c.46-.24,1-.31,1.5-.18"/><path id="_路径_11090" class="cls-2" d="m296.88,354.64l3.25-1.84,1.48-32.46-3.24,1.83-1.49,32.47Z"/><path id="_路径_11091" class="cls-2" d="m296.07,318.09l3.24-1.84-16.28-9.46-3.24,1.84,16.28,9.46Z"/><g id="_组_5302"><g id="_组_5301"><g class="cls-116"><g id="_组_5300"><path id="_路径_11092" class="cls-2" d="m298.36,322.18l3.24-1.84c-.04-1.13-.45-2.21-1.17-3.07l-3.24,1.84c.72.87,1.13,1.95,1.17,3.07"/><path id="_路径_11093" class="cls-2" d="m297.2,319.1l3.24-1.84c-.31-.4-.69-.74-1.13-1l-3.24,1.83c.43.27.81.61,1.13,1.01"/></g></g></g></g><path id="_路径_11094" class="cls-11" d="m296.07,318.09l-16.28-9.46c-1.23-.73-2.61-.45-3.06.62l-1.03,2.36-29.2-17.29c-1.29-.76-2.35-.17-2.37,1.31l.62,28.05c.07,1.58.88,3.03,2.2,3.91l47.65,28.29c1.23.73,2.25.17,2.27-1.25l1.49-32.47c-.07-1.65-.92-3.17-2.3-4.08"/></g></g></g></g><path id="_路径_11095" class="cls-3" d="m296.68,340.27l1.48.02,1.56-13.97-1.62.92-1.42,13.04Z"/><path id="_路径_11096" class="cls-6" d="m298.09,327.23l1.62-.92-50.01-33.05-1.63.92,50.02,33.05Z"/><path id="_路径_11097" class="cls-23" d="m248.08,294.18l-1.4,13.05,50,33.04,1.41-13.04-50.02-33.05Z"/><path id="_路径_11098" class="cls-11" d="m276.57,328.15c-.3-.87-.75-1.67-1.34-2.38-.52-.66-1.14-1.23-1.85-1.69l-28.55-17.15c-.27-.16-.56-.28-.86-.36-.35-.1-.72-.06-1.04.11l3.24-1.84c.32-.17.69-.21,1.04-.11.31.07.6.19.86.36l28.54,17.15c.71.45,1.33,1.03,1.85,1.69.59.7,1.04,1.51,1.34,2.37l1.01,3.27,19.05,11.35c.52.32.98.73,1.36,1.21.65.75,1.04,1.7,1.1,2.7l-1.44,24.06c.03.46-.19.91-.58,1.15l-3.25,1.84c.39-.25.61-.69.58-1.15l1.44-24.06c-.06-1-.45-1.95-1.1-2.7-.38-.48-.84-.89-1.36-1.21l-19.05-11.35-1-3.28Z"/><path id="_路径_11099" class="cls-5" d="m244.21,306.94c-1.36-.8-2.49-.36-2.51.98l.65,30.38c.15,1.55,1.01,2.93,2.34,3.74l49.92,29.63c1.3.78,2.39.36,2.41-.92l1.44-24.06c-.16-1.62-1.07-3.07-2.46-3.91l-19.05-11.36-1-3.26c-.6-1.66-1.72-3.09-3.18-4.07l-28.54-17.15Z"/><g id="_组_5311"><g id="_组_5310"><g class="cls-89"><g id="_组_5309"><path id="_路径_11100" class="cls-2" d="m230.85,302.53l3.24-1.83c-.22-.14-.46-.24-.71-.3l-3.25,1.83c.25.06.49.16.72.29"/><path id="_路径_11101" class="cls-2" d="m230.29,302.24l3.24-1.84c-.32-.08-.66-.04-.95.11l-3.24,1.84c.29-.16.63-.2.95-.11"/><path id="_路径_11102" class="cls-20" d="m280.55,364.27l3.24-1.84c.47-.32.72-.87.67-1.43l-3.24,1.84c.05.56-.21,1.11-.67,1.43"/><path id="_路径_11103" class="cls-2" d="m260.05,319.82l3.24-1.84-29.2-17.28-3.24,1.83,29.2,17.29Z"/><path id="_路径_11104" class="cls-2" d="m264.14,316.83l3.24-1.84c-.27-.16-.56-.28-.86-.34l-3.24,1.84c.3.07.59.18.86.34"/><path id="_路径_11105" class="cls-2" d="m263.28,316.49l3.24-1.84c-.51-.13-1.04-.06-1.5.18l-3.24,1.84c.46-.25,1-.31,1.5-.18"/><path id="_路径_11106" class="cls-2" d="m281.22,362.84l3.24-1.84,1.48-32.46-3.24,1.84-1.48,32.46Z"/><path id="_路径_11107" class="cls-2" d="m280.41,326.29l3.24-1.83-16.28-9.46-3.24,1.83,16.28,9.46Z"/><g id="_组_5308"><g id="_组_5307"><g class="cls-114"><g id="_组_5306"><path id="_路径_11108" class="cls-2" d="m282.71,330.38l3.24-1.84c-.04-1.12-.45-2.21-1.17-3.07l-3.24,1.84c.71.87,1.12,1.95,1.17,3.07"/><path id="_路径_11109" class="cls-2" d="m281.54,327.3l3.24-1.84c-.31-.4-.69-.74-1.13-1l-3.24,1.83c.43.27.81.61,1.13,1.01"/></g></g></g></g><path id="_路径_11110" class="cls-11" d="m280.41,326.29l-16.27-9.46c-1.23-.73-2.61-.45-3.06.62l-1.03,2.36-29.2-17.29c-1.29-.76-2.35-.17-2.37,1.31l.62,28.06c.07,1.58.88,3.02,2.2,3.9l47.65,28.29c1.23.73,2.25.17,2.27-1.26l1.48-32.46c-.07-1.65-.92-3.17-2.29-4.08"/></g></g></g></g><path id="_路径_11111" class="cls-3" d="m281.03,348.47l1.48.02,1.56-13.97-1.62.92-1.42,13.04Z"/><path id="_路径_11112" class="cls-6" d="m282.44,335.43l1.62-.92-50.01-33.05-1.63.92,50.02,33.05Z"/><path id="_路径_11113" class="cls-23" d="m232.42,302.38l-1.4,13.05,50,33.04,1.41-13.04-50.01-33.05Z"/><path id="_路径_11114" class="cls-2" d="m260.91,336.36c-.3-.87-.75-1.67-1.34-2.38-.52-.66-1.14-1.23-1.85-1.69l-28.55-17.15c-.27-.16-.56-.28-.86-.36-.35-.1-.72-.06-1.04.11l3.24-1.84c.32-.17.69-.2,1.04-.11.31.07.6.19.86.36l28.54,17.15c.71.45,1.33,1.02,1.85,1.69.59.7,1.05,1.51,1.35,2.37l1,3.27,19.05,11.35c.52.32.97.73,1.35,1.2.65.76,1.04,1.7,1.1,2.7l-1.44,24.06c.03.46-.19.91-.58,1.15l-3.24,1.84c.39-.25.61-.69.58-1.15l1.44-24.06c-.06-1-.45-1.95-1.1-2.7-.38-.48-.84-.89-1.36-1.21l-19.05-11.35-1.01-3.28Z"/><path id="_路径_11115" class="cls-26" d="m229.18,315.13c-1.36-.8-2.5-.36-2.51.98l.65,30.38c.15,1.55,1.02,2.93,2.35,3.74l49.91,29.63c1.3.78,2.39.36,2.41-.92l1.44-24.06c-.16-1.62-1.07-3.06-2.46-3.91l-19.05-11.36-1-3.27c-.6-1.66-1.72-3.09-3.18-4.07l-28.54-17.15Z"/><g class="cls-97"><g id="_组_5314"><rect id="_矩形_2121" class="cls-46" x="281.81" y="303.61" width="91.94" height="84.49"/></g></g><g class="cls-101"><g id="_组_5316"><rect id="_矩形_2122" class="cls-34" x="277.38" y="353.98" width="4.44" height="34.12"/></g></g><g class="cls-113"><g id="_组_5318"><rect id="_矩形_2123" class="cls-13" x="292.5" y="277.7" width="66.15" height="102.2" transform="translate(-39.37 613.26) rotate(-83.22)"/></g></g><g class="cls-75"><g id="_组_5320"><rect id="_矩形_2124" class="cls-33" x="206.82" y="306.92" width="74.62" height="84.2"/></g></g><g class="cls-108"><g id="_组_5322"><rect id="_矩形_2125" class="cls-42" x="281.42" y="346.62" width="6.8" height="44.5"/></g></g><g class="cls-55"><g id="_组_5324"><rect id="_矩形_2126" class="cls-48" x="204.33" y="298.63" width="86.36" height="56.29" transform="translate(-36.83 31.49) rotate(-6.78)"/></g></g></g><g id="_组_5343"><path id="_路径_11122" class="cls-5" d="m146.88,54.54v67.4l68.99-39.83V20.84l-51.3,29.62-1.77-5.11-15.92,9.19Z"/><g id="_组_5328" class="cls-71"><g id="_组_5327"><g class="cls-82"><g id="_组_5326"><path id="_路径_11123" class="cls-14" d="m146.88,54.54v67.4l68.99-39.83V20.84l-51.3,29.62-1.77-5.11-15.92,9.19Z"/></g></g></g></g><path id="_路径_11124" class="cls-8" d="m146.88,121.95l3.54-61.28,68.99-39.83-3.54,61.28-68.99,39.83Z"/><path id="_路径_11125" class="cls-5" d="m146.88,121.95l5.31-60.26,68.99-39.83-5.31,60.26-68.99,39.83Z"/><g id="_组_5331" class="cls-71"><g id="_组_5330"><g class="cls-93"><g id="_组_5329"><path id="_路径_11126" class="cls-14" d="m146.88,121.95l5.31-60.26,68.99-39.83-5.31,60.26-68.99,39.83Z"/></g></g></g></g><path id="_路径_11127" class="cls-5" d="m157.5,60.67v67.41l68.99-39.83V26.97l-51.3,29.62-1.77-5.11-15.92,9.19Z"/><g id="_组_5334" class="cls-59"><g id="_组_5333"><g class="cls-1"><g id="_组_5332"><path id="_路径_11128" class="cls-14" d="m157.5,60.67v67.41l68.99-39.83V26.97l-51.3,29.62-1.77-5.11-15.92,9.19Z"/></g></g></g></g><path id="_路径_11129" class="cls-8" d="m157.5,128.08l3.54-61.28,68.99-39.83-3.54,61.28-68.99,39.83Z"/><path id="_路径_11130" class="cls-5" d="m157.5,128.08l5.31-60.26,68.99-39.83-5.31,60.26-68.99,39.83Z"/><g id="_组_5337" class="cls-59"><g id="_组_5336"><g class="cls-51"><g id="_组_5335"><path id="_路径_11131" class="cls-14" d="m157.5,128.08l5.31-60.26,68.99-39.83-5.31,60.26-68.99,39.83Z"/></g></g></g></g><path id="_路径_11132" class="cls-5" d="m169.88,67.82v67.4l68.99-39.83v-61.28l-51.31,29.62-1.77-5.11-15.91,9.19Z"/><g id="_组_5340" class="cls-103"><g id="_组_5339"><g class="cls-57"><g id="_组_5338"><path id="_路径_11133" class="cls-14" d="m169.88,67.82v67.4l68.99-39.83v-61.28l-51.31,29.62-1.77-5.11-15.91,9.19Z"/></g></g></g></g><path id="_路径_11134" class="cls-27" d="m189.76,87.75c-.18,0-.2-.2-.2-.32V29.94c.03-.45.27-.87.64-1.12L239.99.08c.07-.04.15-.07.23-.08.18,0,.2.2.2.32v57.49c-.03.45-.27.86-.64,1.12l-49.79,28.74c-.07.05-.15.07-.23.08"/><path id="_路径_11135" class="cls-5" d="m194.64,32.13l17.69-10.21v20.43l-17.69,10.21v-20.42Z"/><path id="_路径_11136" class="cls-43" d="m194.64,32.13l17.69-10.21v20.43l-17.69,10.21v-20.42Z"/><path id="_路径_11137" class="cls-43" d="m215.87,20.9c0,.57.51.73,1.13.37l17.19-9.93c.62-.35,1.04-.97,1.13-1.67,0-.57-.51-.73-1.13-.37l-17.19,9.92c-.62.35-1.04.97-1.13,1.68"/><path id="_路径_11138" class="cls-43" d="m215.87,27.03c0,.57.51.73,1.13.37l17.19-9.93c.62-.35,1.04-.97,1.13-1.67,0-.57-.51-.73-1.13-.37l-17.19,9.92c-.62.35-1.04.97-1.13,1.68"/><path id="_路径_11139" class="cls-43" d="m215.87,33.15c0,.57.51.73,1.13.37l17.19-9.93c.62-.35,1.04-.97,1.13-1.67,0-.57-.51-.73-1.13-.37l-17.19,9.92c-.62.35-1.04.97-1.13,1.68"/><path id="_路径_11140" class="cls-43" d="m215.87,39.28c0,.57.51.73,1.13.37l17.19-9.93c.62-.35,1.04-.97,1.13-1.67,0-.57-.51-.73-1.13-.37l-17.19,9.92c-.62.35-1.04.97-1.13,1.68"/><path id="_路径_11141" class="cls-43" d="m194.65,57.66c0,.57.5.73,1.13.37l38.42-22.18c.62-.35,1.04-.97,1.13-1.68,0-.57-.5-.73-1.13-.37l-38.42,22.18c-.62.35-1.04.97-1.13,1.68"/><path id="_路径_11142" class="cls-43" d="m194.65,63.8c0,.57.5.73,1.13.37l38.42-22.18c.62-.35,1.04-.97,1.13-1.68,0-.57-.5-.73-1.13-.37l-38.42,22.18c-.62.35-1.04.97-1.13,1.68"/><path id="_路径_11143" class="cls-43" d="m194.65,69.92c0,.56.5.73,1.13.37l38.42-22.18c.62-.35,1.04-.97,1.13-1.68,0-.57-.5-.73-1.13-.37l-38.42,22.18c-.62.35-1.04.97-1.13,1.68"/><path id="_路径_11144" class="cls-5" d="m169.88,135.23l12.38-54.13,68.99-39.83-12.38,54.13-68.99,39.83Z"/><path id="_路径_11145" class="cls-5" d="m186.76,85.34v40.14l15.92-9.19v-40.14s-15.92,9.2-15.92,9.2Z"/></g><g id="_组_5216" class="cls-103"><g id="_组_5215"><g class="cls-110"><g id="_组_5214"><path id="_路径_10984" class="cls-16" d="m297.5,187.07c-.16-.02-.32-.04-.47-.07.16,0,.32.02.47.07"/></g></g></g></g></g></svg>