<?xml version="1.0" encoding="UTF-8"?><svg xmlns="http://www.w3.org/2000/svg" xmlns:xlink="http://www.w3.org/1999/xlink" viewBox="0 0 345.36 451.26"><defs><style>.cls-1{fill:#e4e4e4;}.cls-1,.cls-2,.cls-3,.cls-4,.cls-5,.cls-6,.cls-7,.cls-8,.cls-9,.cls-10,.cls-11,.cls-12,.cls-13,.cls-14,.cls-15,.cls-16,.cls-17,.cls-18,.cls-19,.cls-20,.cls-21,.cls-22,.cls-23,.cls-24,.cls-25,.cls-26,.cls-27,.cls-28,.cls-29,.cls-30,.cls-31,.cls-32,.cls-33,.cls-34,.cls-35,.cls-36,.cls-37,.cls-38,.cls-39,.cls-40,.cls-41,.cls-42,.cls-43,.cls-44,.cls-45,.cls-46,.cls-47,.cls-48,.cls-49,.cls-50,.cls-51,.cls-52,.cls-53,.cls-54,.cls-55,.cls-56,.cls-57,.cls-58,.cls-59,.cls-60,.cls-61,.cls-62,.cls-63,.cls-64,.cls-65,.cls-66,.cls-67,.cls-68,.cls-69,.cls-70,.cls-71,.cls-72,.cls-73,.cls-74,.cls-75,.cls-76,.cls-77,.cls-78,.cls-79,.cls-80,.cls-81,.cls-82,.cls-83,.cls-84,.cls-85,.cls-86,.cls-87,.cls-88,.cls-89,.cls-90,.cls-91,.cls-92,.cls-93,.cls-94,.cls-95,.cls-96,.cls-97,.cls-98,.cls-99,.cls-100,.cls-101,.cls-102,.cls-103{stroke-width:0px;}.cls-2{fill:#d1dff2;}.cls-3{fill:#d0def1;}.cls-4{fill:#bac9e7;}.cls-5{fill:#c6d5ed;}.cls-6{fill:#c7d6ed;}.cls-7{fill:#deebf8;}.cls-8{fill:#c5d4ec;}.cls-9{fill:#4388ad;}.cls-10{fill:#dae7f6;}.cls-11{fill:#40b6b2;}.cls-12{fill:#e2eff9;}.cls-13{fill:#248c89;}.cls-14{fill:#011b2f;}.cls-15{fill:#d2e0f2;}.cls-16{fill:#c2d1eb;}.cls-17{fill:#054c7d;}.cls-18{fill:#ccdaef;}.cls-19{fill:#c9d8ee;}.cls-20{fill:#eaedf0;}.cls-104{clip-path:url(#clippath-2);}.cls-21{fill:#c4d3ec;}.cls-22{fill:#eeedeb;}.cls-105{isolation:isolate;}.cls-23{fill:#dceaf7;}.cls-24{fill:#f7c1b4;}.cls-25{fill:#319f9f;}.cls-26{fill:#79391e;}.cls-27{fill:#bfbebd;}.cls-28{fill:#1a1b37;}.cls-106{clip-path:url(#clippath-6);}.cls-29{fill:#4f4f9b;}.cls-30{fill:#4183a0;}.cls-31{fill:#cedcf0;}.cls-32{fill:#f2e17a;}.cls-33{fill:#ec6d34;}.cls-34{fill:#df2621;}.cls-35{fill:#e3f0fa;}.cls-36{fill:#e7ae8e;}.cls-37{fill:#bdcce8;}.cls-38{fill:#e95251;}.cls-39{fill:#e0edf9;}.cls-40{fill:none;}.cls-41{fill:#bccbe8;}.cls-42{fill:#f2a781;}.cls-43{fill:#267abf;}.cls-44{fill:#c9cbcc;}.cls-45{fill:#cfddf1;}.cls-107{clip-path:url(#clippath-1);}.cls-108{clip-path:url(#clippath-4);}.cls-46{fill:#dbe8f6;}.cls-47{fill:#db3b3b;}.cls-48{fill:#bbcae8;}.cls-49{fill:#c3d2eb;}.cls-50{fill:#db4f54;}.cls-51{fill:#f5c055;}.cls-52{fill:#d4e1f3;}.cls-53{fill:#249e39;}.cls-54{fill:#fff;}.cls-55{fill:#becde9;}.cls-56{fill:#202020;}.cls-57{fill:#f4ac43;}.cls-58{fill:#dc5410;}.cls-59{fill:#d5d5d5;}.cls-60{fill:#cddbf0;}.cls-61{fill:#e7f0fa;}.cls-62{fill:#1671b1;}.cls-63{fill:#d4dd5e;}.cls-64{fill:#cad9ef;}.cls-65{fill:#d5e3f3;}.cls-109{clip-path:url(#clippath);}.cls-110{mix-blend-mode:color-dodge;}.cls-66{fill:#3c97d4;}.cls-67{fill:#1a79be;}.cls-68{fill:#dd5a43;}.cls-69{fill:#dc5411;}.cls-111{clip-path:url(#clippath-3);}.cls-70{fill:#c6c5c5;}.cls-71{fill:#c8d7ee;}.cls-72{fill:#f6d1ba;}.cls-73{fill:#3a5da0;}.cls-74{fill:#bfcee9;}.cls-75{fill:#4e549b;}.cls-76{fill:#dfecf8;}.cls-77{fill:#f1f1f1;}.cls-78{fill:#3988c9;}.cls-79{fill:#bdcce9;}.cls-80{fill:#f3aa53;}.cls-81{fill:#b63e21;}.cls-82{fill:#d0d0d0;}.cls-83{fill:#50b783;}.cls-84{fill:#babdb4;}.cls-85{fill:#c0ceea;}.cls-86{fill:#c9dae9;}.cls-87{fill:#123575;}.cls-88{fill:#1a1722;}.cls-89{fill:#f5d55c;}.cls-90{fill:#c9c9c9;}.cls-91{fill:#d6e4f4;}.cls-112{clip-path:url(#clippath-5);}.cls-92{fill:#c1cfea;}.cls-93{fill:url(#_未命名漸層_2);}.cls-94{fill:#f5e47c;}.cls-95{fill:#ea6884;}.cls-96{fill:#d7e5f5;}.cls-97{fill:#c6d4ec;}.cls-98{fill:#0d53a4;}.cls-99{fill:#464765;}.cls-100{fill:#bbcae7;}.cls-101{fill:#c1d0ea;}.cls-102{fill:#460c08;}.cls-103{fill:#d9e6f5;}</style><linearGradient id="_未命名漸層_2" x1="-6.8" y1="830.9" x2="-6.8" y2="830.42" gradientTransform="translate(4526.02 783288.77) scale(642.5 -942.7)" gradientUnits="userSpaceOnUse"><stop offset="0" stop-color="#ff7429"/><stop offset="1" stop-color="#f7cf5d"/></linearGradient><clipPath id="clippath"><path class="cls-40" d="m323.01,230.61v-4.45s0,0,0,0h0c-.12.61-.56,1.17-1.32,1.61l-45.39,25.43c-.97.56-2.29.81-3.66.77v5.16c1.37.03,2.69-.21,3.66-.77l45.39-25.43c1.05-.61,1.48-1.46,1.32-2.32Z"/></clipPath><clipPath id="clippath-1"><path class="cls-40" d="m268.42,252.87l-15.1-9.01c-1.11-.64-1.74-1.44-1.88-2.23v4.45c-.2,1,.44,2.11,1.88,2.94l15.1,9.01c1.21.7,2.74,1.06,4.22,1.1v-5.16c-1.48-.04-3.01-.4-4.22-1.1Z"/></clipPath><clipPath id="clippath-2"><path class="cls-40" d="m345.32,266.02v-4.45h0c-.12.6-.56,1.17-1.32,1.61l-45.39,25.43c-.97.56-2.29.81-3.66.77v5.16c1.37.03,2.69-.21,3.66-.77l45.39-25.43c1.05-.61,1.48-1.46,1.32-2.32Z"/></clipPath><clipPath id="clippath-3"><path class="cls-40" d="m290.74,288.28l-15.1-9.01c-1.11-.64-1.74-1.44-1.88-2.23v4.45c-.2,1,.44,2.11,1.88,2.94l15.1,9.01c1.21.7,2.74,1.06,4.22,1.1v-5.16c-1.48-.04-3.01-.4-4.22-1.1Z"/></clipPath><clipPath id="clippath-4"><path class="cls-40" d="m329.36,172.16v-3.71h0c-.37,1.83-1.69,3.53-3.98,4.85l-134.65,77.57c-2.92,1.68-6.91,2.43-11.04,2.33v5.86c4.13.1,8.12-.65,11.04-2.33l134.65-77.57c3.17-1.83,4.46-4.4,3.98-7Z"/></clipPath><clipPath id="clippath-5"><path class="cls-40" d="m166.96,249.89l-82.12-47.23c-3.34-1.93-5.25-4.34-5.69-6.72v3.71c-.62,3.01,1.32,6.35,5.69,8.87l82.12,47.23c3.64,2.1,8.27,3.21,12.73,3.32v-5.86c-4.46-.11-9.09-1.22-12.73-3.32Z"/></clipPath><clipPath id="clippath-6"><path class="cls-40" d="m232.41,313.09s-.05,0-.07,0l.07.03s0-.02,0-.03Z"/></clipPath></defs><g class="cls-105"><g id="_圖層_1"><path id="_联合_6" class="cls-93" d="m.53,141.32C.53,63.27,69.38,0,154.31,0s153.78,63.27,153.78,141.32-68.85,141.32-153.78,141.32c-1.78,0-3.56-.03-5.33-.08-.77.01-1.54.02-2.33.03-112.37.94-93.64,74.36-93.64,74.36,0,0,4.53,21.71,6.41,27.68s4.37,18.26,0,37.29c-4.37,19.03-59.42,29.36-59.42,29.36,0,0,.53-283.62.53-309.95Z"/><path class="cls-22" d="m99.41,69.19L211.8,3.91c3.07-1.78,5.59-.37,5.6,3.16l.43,93.01c0,3.51-2.5,7.83-5.55,9.63l-112.39,65.28c-3.08,1.79-5.57.36-5.6-3.15l-.41-93.01c-.02-3.51,2.46-7.86,5.53-9.65Z"/><path class="cls-82" d="m213.45,2.19c-.5-.31-1.05-.61-1.58-.91-1.01-.59-2.43-.49-3.97.39l-112.4,65.29c-3.03,1.79-5.53,6.1-5.49,9.61l.39,93c0,1.76.63,2.99,1.64,3.57,1.33.77,2.66,1.53,3.96,2.3-.99-.57-1.62-1.81-1.62-3.56l-.42-93c-.02-3.51,2.46-7.86,5.53-9.65L211.87,3.97c1.56-.9,2.97-.99,3.97-.42-.19-.11-1.85-1.05-2.39-1.36Z"/><polygon class="cls-86" points="212.2 16.33 103.37 80.32 103.37 86.64 103.37 167.76 213.71 102.88 213.71 15.44 212.2 16.33"/><polygon class="cls-44" points="211.81 16.24 211.81 101.55 103.37 165.33 103.37 167.45 213.71 102.58 213.71 15.14 211.81 16.24"/><path class="cls-61" d="m321.69,227.77l-45.39,25.43c-2.01,1.16-5.56,1.01-7.88-.33l-15.1-9.01c-2.32-1.34-2.58-3.39-.57-4.55l45.22-25.94c2.01-1.16,5.56-1.01,7.88.33l15.27,9.52c2.32,1.34,2.58,3.39.57,4.55Z"/><g class="cls-109"><polygon class="cls-35" points="323.17 229.04 320.95 226.16 323.17 226.16 323.17 229.04"/><polygon class="cls-12" points="323.17 233.72 322.91 233.92 316.93 226.16 320.95 226.16 323.17 229.04 323.17 233.72"/><polygon class="cls-39" points="322.91 233.92 320.39 235.86 312.91 226.16 316.93 226.16 322.91 233.92"/><polygon class="cls-76" points="320.39 235.86 317.87 237.81 308.9 226.16 312.91 226.16 320.39 235.86"/><polygon class="cls-7" points="317.87 237.81 315.35 239.75 305.47 226.93 306.47 226.16 308.9 226.16 317.87 237.81"/><rect class="cls-23" x="307.56" y="226.22" width="3.18" height="16.18" transform="translate(-78.75 237.57) rotate(-37.64)"/><rect class="cls-46" x="305.04" y="228.16" width="3.18" height="16.18" transform="translate(-80.46 236.43) rotate(-37.64)"/><rect class="cls-10" x="302.52" y="230.11" width="3.18" height="16.18" transform="translate(-82.17 235.3) rotate(-37.64)"/><rect class="cls-103" x="300" y="232.05" width="3.18" height="16.18" transform="translate(-83.88 234.16) rotate(-37.64)"/><rect class="cls-96" x="297.48" y="233.99" width="3.18" height="16.18" transform="translate(-85.59 233.03) rotate(-37.64)"/><rect class="cls-91" x="294.96" y="235.94" width="3.18" height="16.18" transform="translate(-87.3 231.9) rotate(-37.64)"/><rect class="cls-65" x="292.44" y="237.88" width="3.18" height="16.18" transform="translate(-89.02 230.76) rotate(-37.64)"/><rect class="cls-52" x="289.92" y="239.82" width="3.18" height="16.18" transform="translate(-90.73 229.63) rotate(-37.64)"/><rect class="cls-15" x="287.4" y="241.77" width="3.18" height="16.18" transform="translate(-92.44 228.49) rotate(-37.64)"/><polygon class="cls-2" points="292.68 257.24 290.18 259.16 290.14 259.16 280.27 246.36 282.79 244.42 292.68 257.24"/><polygon class="cls-3" points="286.13 259.16 277.75 248.31 280.27 246.36 290.14 259.16 286.13 259.16"/><polygon class="cls-45" points="282.11 259.16 275.23 250.25 277.75 248.31 286.13 259.16 282.11 259.16"/><polygon class="cls-31" points="278.09 259.16 272.71 252.19 275.23 250.25 282.11 259.16 278.09 259.16"/><polygon class="cls-60" points="274.07 259.16 272.64 257.31 272.64 252.25 272.71 252.19 278.09 259.16 274.07 259.16"/><polygon class="cls-18" points="272.64 257.31 274.07 259.16 272.64 259.16 272.64 257.31"/></g><g class="cls-107"><polygon class="cls-71" points="272.64 242.41 271.94 241.64 272.64 241.64 272.64 242.41"/><polygon class="cls-6" points="272.64 244.21 270.32 241.64 271.94 241.64 272.64 242.41 272.64 244.21"/><polygon class="cls-5" points="272.64 246 268.69 241.64 270.32 241.64 272.64 244.21 272.64 246"/><polygon class="cls-8" points="272.64 247.79 267.06 241.64 268.69 241.64 272.64 246 272.64 247.79"/><polygon class="cls-21" points="272.64 249.59 265.44 241.64 267.06 241.64 272.64 247.79 272.64 249.59"/><polygon class="cls-49" points="272.64 251.38 263.81 241.64 265.44 241.64 272.64 249.59 272.64 251.38"/><polygon class="cls-16" points="272.64 253.18 262.19 241.64 263.81 241.64 272.64 251.38 272.64 253.18"/><polygon class="cls-101" points="272.64 254.97 260.56 241.64 262.19 241.64 272.64 253.18 272.64 254.97"/><polygon class="cls-92" points="272.64 256.76 258.94 241.64 260.56 241.64 272.64 254.97 272.64 256.76"/><polygon class="cls-85" points="272.64 258.56 257.31 241.64 258.94 241.64 272.64 256.76 272.64 258.56"/><polygon class="cls-74" points="271.54 259.13 255.68 241.64 257.31 241.64 272.64 258.56 272.64 259.13 271.54 259.13"/><polygon class="cls-55" points="269.91 259.13 254.06 241.64 255.68 241.64 271.54 259.13 269.91 259.13"/><polygon class="cls-79" points="268.29 259.13 252.43 241.64 254.06 241.64 269.91 259.13 268.29 259.13"/><polygon class="cls-37" points="266.66 259.13 251.24 242.11 251.24 241.64 252.43 241.64 268.29 259.13 266.66 259.13"/><polygon class="cls-41" points="265.03 259.13 251.24 243.91 251.24 242.11 266.66 259.13 265.03 259.13"/><polygon class="cls-48" points="263.41 259.13 251.24 245.7 251.24 243.91 265.03 259.13 263.41 259.13"/><polygon class="cls-100" points="261.78 259.13 251.24 247.49 251.24 245.7 263.41 259.13 261.78 259.13"/><polygon class="cls-4" points="260.16 259.13 251.24 249.29 251.24 247.49 261.78 259.13 260.16 259.13"/><polygon class="cls-4" points="258.53 259.13 251.24 251.08 251.24 249.29 260.16 259.13 258.53 259.13"/><polygon class="cls-4" points="251.24 251.08 258.53 259.13 251.24 259.13 251.24 251.08"/></g><path class="cls-61" d="m344,263.18l-45.39,25.43c-2.01,1.16-5.56,1.01-7.88-.33l-15.1-9.01c-2.32-1.34-2.58-3.39-.57-4.55l45.22-25.94c2.01-1.16,5.56-1.01,7.88.33l15.27,9.52c2.32,1.34,2.58,3.39.57,4.55Z"/><g class="cls-104"><polygon class="cls-35" points="345.48 266.23 342.19 261.57 345.48 261.57 345.48 266.23"/><polygon class="cls-35" points="345.48 269.1 344.47 269.82 338.65 261.57 342.19 261.57 345.48 266.23 345.48 269.1"/><polygon class="cls-12" points="344.47 269.82 342.11 271.49 335.11 261.57 338.65 261.57 344.47 269.82"/><polygon class="cls-39" points="342.11 271.49 339.74 273.16 331.71 261.77 331.98 261.57 335.11 261.57 342.11 271.49"/><rect class="cls-76" x="333.1" y="261.33" width="2.89" height="13.94" transform="translate(-93.49 242.03) rotate(-35.22)"/><rect class="cls-7" x="330.73" y="263" width="2.89" height="13.94" transform="translate(-94.88 240.97) rotate(-35.22)"/><rect class="cls-23" x="328.37" y="264.67" width="2.89" height="13.94" transform="translate(-96.28 239.92) rotate(-35.22)"/><rect class="cls-46" x="326.01" y="266.33" width="2.89" height="13.94" transform="translate(-97.67 238.86) rotate(-35.22)"/><rect class="cls-10" x="323.64" y="268" width="2.89" height="13.94" transform="translate(-99.07 237.8) rotate(-35.22)"/><rect class="cls-103" x="321.28" y="269.67" width="2.89" height="13.94" transform="translate(-100.46 236.74) rotate(-35.22)"/><rect class="cls-96" x="318.91" y="271.34" width="2.89" height="13.94" transform="translate(-101.86 235.69) rotate(-35.22)"/><rect class="cls-91" x="316.55" y="273.01" width="2.89" height="13.94" transform="translate(-103.25 234.63) rotate(-35.22)"/><rect class="cls-65" x="314.19" y="274.68" width="2.89" height="13.94" transform="translate(-104.65 233.57) rotate(-35.22)"/><rect class="cls-52" x="311.82" y="276.34" width="2.89" height="13.94" transform="translate(-106.04 232.51) rotate(-35.22)"/><rect class="cls-15" x="309.46" y="278.01" width="2.89" height="13.94" transform="translate(-107.44 231.46) rotate(-35.22)"/><rect class="cls-2" x="307.1" y="279.68" width="2.89" height="13.94" transform="translate(-108.83 230.4) rotate(-35.22)"/><polygon class="cls-3" points="311.38 293.18 309.4 294.57 308.82 294.57 300.98 283.46 303.34 281.79 311.38 293.18"/><polygon class="cls-45" points="305.28 294.57 298.61 285.13 300.98 283.46 308.82 294.57 305.28 294.57"/><polygon class="cls-31" points="301.74 294.57 296.25 286.8 298.61 285.13 305.28 294.57 301.74 294.57"/><polygon class="cls-60" points="298.2 294.57 294.95 289.98 294.95 287.71 296.25 286.8 301.74 294.57 298.2 294.57"/><polygon class="cls-18" points="294.95 289.98 298.2 294.57 294.95 294.57 294.95 289.98"/></g><g class="cls-111"><polygon class="cls-16" points="294.95 278.89 293.79 277.05 294.95 277.05 294.95 278.89"/><polygon class="cls-101" points="294.95 281.36 292.23 277.05 293.79 277.05 294.95 278.89 294.95 281.36"/><polygon class="cls-92" points="294.95 283.82 290.67 277.05 292.23 277.05 294.95 281.36 294.95 283.82"/><polygon class="cls-85" points="294.95 286.28 289.12 277.05 290.67 277.05 294.95 283.82 294.95 286.28"/><polygon class="cls-74" points="294.95 288.74 287.56 277.05 289.12 277.05 294.95 286.28 294.95 288.74"/><polygon class="cls-55" points="294.95 291.21 286 277.05 287.56 277.05 294.95 288.74 294.95 291.21"/><polygon class="cls-79" points="294.95 293.67 284.44 277.05 286 277.05 294.95 291.21 294.95 293.67"/><polygon class="cls-37" points="293.95 294.54 282.89 277.05 284.44 277.05 294.95 293.67 294.95 294.54 293.95 294.54"/><polygon class="cls-41" points="292.39 294.54 281.33 277.05 282.89 277.05 293.95 294.54 292.39 294.54"/><polygon class="cls-48" points="290.83 294.54 279.77 277.05 281.33 277.05 292.39 294.54 290.83 294.54"/><polygon class="cls-100" points="289.28 294.54 278.22 277.05 279.77 277.05 290.83 294.54 289.28 294.54"/><polygon class="cls-4" points="287.72 294.54 276.66 277.05 278.22 277.05 289.28 294.54 287.72 294.54"/><polygon class="cls-4" points="286.16 294.54 275.1 277.05 276.66 277.05 287.72 294.54 286.16 294.54"/><polygon class="cls-4" points="275.1 277.05 286.16 294.54 273.55 294.54 273.55 277.05 275.1 277.05"/></g><path class="cls-61" d="m325.38,173.31l-134.65,77.57c-6.07,3.5-16.76,3.06-23.77-.99l-82.12-47.23c-7.01-4.04-7.77-10.22-1.71-13.72l136.97-76.41c6.07-3.5,16.76-3.06,23.77.99l79.8,46.07c7.01,4.04,7.77,10.22,1.71,13.72Z"/><g class="cls-108"><polygon class="cls-7" points="329.84 174.52 325.16 168.45 329.84 168.45 329.84 174.52"/><polygon class="cls-23" points="329.84 178.07 327.34 179.99 318.45 168.45 325.16 168.45 329.84 174.52 329.84 178.07"/><polygon class="cls-46" points="327.34 179.99 323.12 183.24 311.74 168.45 318.45 168.45 327.34 179.99"/><polygon class="cls-10" points="323.12 183.24 318.91 186.48 305.03 168.45 311.74 168.45 323.12 183.24"/><polygon class="cls-103" points="318.91 186.48 314.69 189.73 298.32 168.45 305.03 168.45 318.91 186.48"/><polygon class="cls-96" points="314.69 189.73 310.48 192.97 291.6 168.45 298.32 168.45 314.69 189.73"/><polygon class="cls-91" points="310.48 192.97 306.27 196.21 285.88 169.73 287.53 168.45 291.6 168.45 310.48 192.97"/><rect class="cls-65" x="291.31" y="167.88" width="5.32" height="33.42" transform="translate(-51.57 217.67) rotate(-37.59)"/><rect class="cls-52" x="287.09" y="171.13" width="5.32" height="33.42" transform="translate(-54.43 215.78) rotate(-37.59)"/><rect class="cls-15" x="282.88" y="174.37" width="5.32" height="33.42" transform="translate(-57.28 213.88) rotate(-37.59)"/><rect class="cls-2" x="278.66" y="177.62" width="5.32" height="33.42" transform="translate(-60.14 211.98) rotate(-37.59)"/><rect class="cls-3" x="274.45" y="180.86" width="5.32" height="33.42" transform="translate(-62.99 210.08) rotate(-37.59)"/><rect class="cls-45" x="270.24" y="184.1" width="5.32" height="33.42" transform="translate(-65.84 208.19) rotate(-37.59)"/><rect class="cls-31" x="266.02" y="187.35" width="5.32" height="33.42" transform="translate(-68.7 206.29) rotate(-37.59)"/><rect class="cls-60" x="261.81" y="190.59" width="5.32" height="33.42" transform="translate(-71.55 204.39) rotate(-37.59)"/><rect class="cls-18" x="257.6" y="193.84" width="5.32" height="33.42" transform="translate(-74.41 202.5) rotate(-37.59)"/><rect class="cls-64" x="253.38" y="197.08" width="5.32" height="33.42" transform="translate(-77.26 200.6) rotate(-37.59)"/><rect class="cls-19" x="249.17" y="200.33" width="5.32" height="33.42" transform="translate(-80.12 198.7) rotate(-37.59)"/><rect class="cls-71" x="244.96" y="203.57" width="5.32" height="33.42" transform="translate(-82.97 196.81) rotate(-37.59)"/><rect class="cls-6" x="240.74" y="206.81" width="5.32" height="33.42" transform="translate(-85.82 194.91) rotate(-37.59)"/><rect class="cls-5" x="236.53" y="210.06" width="5.32" height="33.42" transform="translate(-88.68 193.01) rotate(-37.59)"/><rect class="cls-8" x="232.32" y="213.3" width="5.32" height="33.42" transform="translate(-91.53 191.12) rotate(-37.59)"/><rect class="cls-21" x="228.1" y="216.55" width="5.32" height="33.42" transform="translate(-94.39 189.22) rotate(-37.59)"/><rect class="cls-49" x="223.89" y="219.79" width="5.32" height="33.42" transform="translate(-97.24 187.32) rotate(-37.59)"/><rect class="cls-16" x="219.67" y="223.04" width="5.32" height="33.42" transform="translate(-100.1 185.42) rotate(-37.59)"/><rect class="cls-101" x="215.46" y="226.28" width="5.32" height="33.42" transform="translate(-102.95 183.53) rotate(-37.59)"/><polygon class="cls-92" points="226.21 257.86 224.51 259.17 220.51 259.17 201.6 234.62 205.82 231.37 226.21 257.86"/><polygon class="cls-85" points="213.79 259.17 197.39 237.86 201.6 234.62 220.51 259.17 213.79 259.17"/><polygon class="cls-74" points="207.08 259.17 193.18 241.11 197.39 237.86 213.79 259.17 207.08 259.17"/><polygon class="cls-55" points="200.37 259.17 188.96 244.35 193.18 241.11 207.08 259.17 200.37 259.17"/><polygon class="cls-79" points="193.66 259.17 184.75 247.59 188.96 244.35 200.37 259.17 193.66 259.17"/><polygon class="cls-37" points="186.95 259.17 180.54 250.84 184.75 247.59 193.66 259.17 186.95 259.17"/><polygon class="cls-41" points="180.24 259.17 179.69 258.46 179.69 251.49 180.54 250.84 186.95 259.17 180.24 259.17"/><polygon class="cls-48" points="179.69 258.46 180.24 259.17 179.69 259.17 179.69 258.46"/></g><g class="cls-110"><path class="cls-90" d="m166.96,249.89l-82.12-47.23c-3.34-1.93-5.25-4.34-5.69-6.72v3.71c-.62,3.01,1.32,6.35,5.69,8.87l82.12,47.23c3.64,2.1,8.27,3.21,12.73,3.32v-5.86c-4.46-.11-9.09-1.22-12.73-3.32Z"/></g><g class="cls-112"><polygon class="cls-37" points="179.37 259.06 179.69 256.8 179.69 259.06 179.37 259.06"/><polygon class="cls-41" points="177.67 259.06 179.69 244.75 179.69 256.8 179.37 259.06 177.67 259.06"/><polygon class="cls-48" points="175.97 259.06 179.69 232.69 179.69 244.75 177.67 259.06 175.97 259.06"/><polygon class="cls-100" points="174.26 259.06 179.69 220.64 179.69 232.69 175.97 259.06 174.26 259.06"/><polygon class="cls-4" points="172.56 259.06 179.67 208.76 179.69 208.77 179.69 220.64 174.26 259.06 172.56 259.06"/><polygon class="cls-4" points="170.86 259.06 178 208.53 179.67 208.76 172.56 259.06 170.86 259.06"/><polygon class="cls-4" points="166.26 259.06 78.54 246.67 78.54 195.94 88.9 195.94 178 208.53 170.86 259.06 166.26 259.06"/></g><g class="cls-106"><rect class="cls-97" x="232.33" y="313.09" width=".07" height=".03"/></g><path class="cls-70" d="m302.73,173.54l-112.65,65.04c-3.01,1.74-8.31,1.52-11.78-.49l-86.15-49.74c-3.47-2.01-3.85-5.07-.85-6.8l112.65-65.04c3.01-1.74,8.31-1.52,11.78.49l86.15,49.74c3.47,2.01,3.85,5.07.85,6.8Z"/><rect class="cls-70" x="89.3" y="176.98" width="7.73" height="7.73"/><rect class="cls-70" x="297.03" y="163.23" width="7.73" height="7.73"/><path class="cls-77" d="m302.73,166.43l-112.65,65.04c-3.01,1.74-8.31,1.52-11.78-.49l-86.15-49.74c-3.47-2.01-3.85-5.07-.85-6.8l112.65-65.04c3.01-1.74,8.31-1.52,11.78.49l86.15,49.74c3.47,2.01,3.85,5.07.85,6.8Z"/><polygon class="cls-59" points="267.25 146.32 155.62 210.77 98.97 178.07 210.61 113.61 267.25 146.32"/><polygon class="cls-59" points="260.99 184.56 221.49 207.37 200.35 195.17 239.85 172.36 260.99 184.56"/><polygon class="cls-27" points="103.85 177.94 111.64 173.44 117.25 176.67 109.46 181.17 103.85 177.94"/><polygon class="cls-27" points="112 182.64 119.79 178.14 125.39 181.38 117.6 185.87 112 182.64"/><polygon class="cls-27" points="120.14 187.34 130.66 181.27 136.27 184.5 125.75 190.58 120.14 187.34"/><polygon class="cls-27" points="220.89 129.17 225.97 126.24 239.72 134.18 234.64 137.11 220.89 129.17"/><polygon class="cls-27" points="128.29 192.05 138.81 185.97 144.41 189.21 133.89 195.28 128.29 192.05"/><polygon class="cls-27" points="136.43 196.75 150.34 188.72 155.94 191.95 142.04 199.98 136.43 196.75"/><polygon class="cls-27" points="221.67 147.54 242.43 135.55 248.03 138.79 227.27 150.77 221.67 147.54"/><polygon class="cls-27" points="144.58 201.45 152.37 196.95 157.98 200.19 150.18 204.69 144.58 201.45"/><polygon class="cls-27" points="113.6 172.31 121.39 167.81 126.99 171.05 119.2 175.55 113.6 172.31"/><polygon class="cls-27" points="121.74 177.01 129.53 172.52 135.14 175.75 127.35 180.25 121.74 177.01"/><polygon class="cls-27" points="123.44 166.63 131.23 162.13 136.84 165.36 129.04 169.86 123.44 166.63"/><polygon class="cls-27" points="131.59 171.33 139.38 166.83 144.98 170.07 137.19 174.57 131.59 171.33"/><polygon class="cls-27" points="133.18 161 140.98 156.5 146.58 159.74 138.79 164.24 133.18 161"/><polygon class="cls-27" points="141.33 165.7 149.12 161.21 154.73 164.44 146.93 168.94 141.33 165.7"/><polygon class="cls-27" points="143 155.33 150.79 150.83 156.4 154.07 148.61 158.57 143 155.33"/><polygon class="cls-27" points="151.15 160.04 158.94 155.54 164.54 158.77 156.75 163.27 151.15 160.04"/><polygon class="cls-27" points="152.75 149.71 160.54 145.21 166.14 148.44 158.35 152.94 152.75 149.71"/><polygon class="cls-27" points="160.89 154.41 168.68 149.91 174.29 153.15 166.5 157.65 160.89 154.41"/><polygon class="cls-27" points="162.59 144.02 170.38 139.53 175.99 142.76 168.19 147.26 162.59 144.02"/><polygon class="cls-27" points="170.74 148.73 178.53 144.23 184.13 147.46 176.34 151.96 170.74 148.73"/><polygon class="cls-27" points="132.87 180 140.66 175.5 146.26 178.73 138.47 183.23 132.87 180"/><polygon class="cls-27" points="141.01 184.7 148.8 180.2 154.41 183.44 146.61 187.94 141.01 184.7"/><polygon class="cls-27" points="142.71 174.31 150.5 169.81 156.11 173.05 148.31 177.55 142.71 174.31"/><polygon class="cls-27" points="150.86 179.02 158.65 174.52 164.25 177.75 156.46 182.25 150.86 179.02"/><polygon class="cls-27" points="152.45 168.69 160.25 164.19 165.85 167.42 158.06 171.92 152.45 168.69"/><polygon class="cls-27" points="160.6 173.39 168.39 168.89 174 172.13 166.2 176.63 160.6 173.39"/><polygon class="cls-27" points="162.27 163.02 170.06 158.52 175.67 161.76 167.88 166.25 162.27 163.02"/><polygon class="cls-27" points="170.42 167.72 178.21 163.22 183.81 166.46 176.02 170.96 170.42 167.72"/><polygon class="cls-27" points="172.02 157.39 179.81 152.89 185.41 156.13 177.62 160.63 172.02 157.39"/><polygon class="cls-27" points="180.16 162.1 187.95 157.6 193.56 160.83 185.76 165.33 180.16 162.1"/><polygon class="cls-27" points="181.86 151.71 189.65 147.21 195.26 150.45 187.46 154.95 181.86 151.71"/><polygon class="cls-27" points="190.01 156.41 197.8 151.91 203.4 155.15 195.61 159.65 190.01 156.41"/><polygon class="cls-27" points="191.64 146.07 199.43 141.57 205.03 144.8 197.24 149.3 191.64 146.07"/><polygon class="cls-27" points="199.78 150.77 207.57 146.27 213.18 149.5 205.39 154 199.78 150.77"/><polygon class="cls-27" points="153.03 187.17 160.82 182.67 166.43 185.9 158.63 190.4 153.03 187.17"/><polygon class="cls-27" points="162.88 181.48 170.67 176.98 176.27 180.22 168.48 184.72 162.88 181.48"/><polygon class="cls-27" points="172.62 175.86 180.41 171.36 186.02 174.59 178.22 179.09 172.62 175.86"/><polygon class="cls-27" points="182.44 170.19 190.23 165.69 195.83 168.92 188.04 173.42 182.44 170.19"/><polygon class="cls-27" points="192.18 164.56 199.97 160.06 205.58 163.3 197.78 167.8 192.18 164.56"/><polygon class="cls-27" points="202.03 158.88 209.82 154.38 215.42 157.61 207.63 162.11 202.03 158.88"/><polygon class="cls-27" points="211.8 153.23 219.6 148.73 225.2 151.97 217.41 156.47 211.8 153.23"/><polygon class="cls-27" points="201.48 140.38 209.27 135.88 214.88 139.12 207.09 143.62 201.48 140.38"/><polygon class="cls-27" points="209.63 145.08 217.42 140.59 223.02 143.82 215.23 148.32 209.63 145.08"/><polygon class="cls-27" points="211.23 134.76 219.02 130.26 224.62 133.49 216.83 137.99 211.23 134.76"/><polygon class="cls-27" points="219.37 139.46 227.16 134.96 232.77 138.2 224.97 142.69 219.37 139.46"/><polygon class="cls-27" points="172.34 138.4 180.13 133.9 185.73 137.14 177.94 141.63 172.34 138.4"/><polygon class="cls-27" points="180.48 143.1 188.27 138.6 193.88 141.84 186.08 146.34 180.48 143.1"/><polygon class="cls-27" points="182.3 132.64 190.1 128.14 195.7 131.38 187.91 135.88 182.3 132.64"/><polygon class="cls-27" points="190.45 137.35 198.24 132.85 203.84 136.08 196.05 140.58 190.45 137.35"/><polygon class="cls-27" points="192.05 127.02 199.84 122.52 205.44 125.75 197.65 130.25 192.05 127.02"/><polygon class="cls-27" points="200.19 131.72 207.98 127.22 213.59 130.46 205.8 134.96 200.19 131.72"/><polygon class="cls-27" points="201.89 121.33 209.68 116.84 215.29 120.07 207.5 124.57 201.89 121.33"/><polygon class="cls-27" points="210.04 126.04 217.83 121.54 223.43 124.77 215.64 129.27 210.04 126.04"/><polygon class="cls-27" points="154.32 195.82 162.12 191.33 167.72 194.56 159.93 199.06 154.32 195.82"/><polygon class="cls-27" points="164.17 190.14 171.96 185.64 177.56 188.88 169.77 193.38 164.17 190.14"/><polygon class="cls-27" points="215.24 160.66 223.03 156.16 228.63 159.39 220.84 163.89 215.24 160.66"/><polygon class="cls-27" points="224.98 155.03 232.77 150.53 238.38 153.77 230.59 158.27 224.98 155.03"/><polygon class="cls-27" points="234.83 149.35 242.62 144.85 248.22 148.08 240.43 152.58 234.83 149.35"/><polygon class="cls-27" points="244.47 143.78 250.41 140.35 256.01 143.58 250.07 147.02 244.47 143.78"/><polygon class="cls-27" points="174.01 184.46 213.35 161.75 218.95 164.98 179.62 187.69 174.01 184.46"/><polygon class="cls-56" points="107.94 195.84 96.86 189.44 96.86 185.87 107.94 192.27 107.94 195.84"/><polygon class="cls-56" points="120.76 203.25 109.68 196.85 109.68 193.29 120.76 199.69 120.76 203.25"/><path class="cls-88" d="m155.38,43.2c0,1.5-.91,3.24-2.03,3.88-1.12.65-2.03-.04-2.03-1.54s.91-3.24,2.03-3.89c1.12-.65,2.03.04,2.03,1.54Z"/><polygon class="cls-1" points="101.5 167.76 211.84 102.88 209.95 101.85 101.5 165.64 101.5 167.76"/><path class="cls-98" d="m315.26,149.69c-5.72-2.45-12.43-3.63-19.08-3.64-9.6,0-19.09,2.44-25.31,7.11-4.24,3.18-6.32,6.9-6.38,10.6h31.69s21.95-12.69,21.95-12.69c-.9-.49-1.85-.95-2.87-1.38Z"/><polygon class="cls-25" points="264.48 137.49 264.48 163.7 296.17 159.1 296.17 132.43 264.48 137.49"/><polygon class="cls-13" points="318.12 124.8 296.17 132.43 296.17 159.1 318.12 155.91 318.12 124.8"/><path class="cls-11" d="m315.26,123.42c-5.72-2.45-12.43-3.63-19.08-3.64-9.6,0-19.09,2.44-25.31,7.11-4.24,3.18-6.32,6.9-6.38,10.6h31.69s21.95-12.69,21.95-12.69c-.9-.49-1.85-.95-2.87-1.38Z"/><rect class="cls-47" x="298.63" y="148.86" width="31.69" height="15.96"/><path class="cls-38" d="m330.31,148.86c-.13-4.67-3.46-9.28-9.74-12.69l-21.95,12.68h0s31.69,0,31.69,0Z"/><polygon class="cls-66" points="294.34 145.07 294.34 171.38 272 180.07 272 157.98 294.34 145.07"/><path class="cls-62" d="m262.65,145.07v22.31h0c.02,4.65,3.24,9.24,9.34,12.68v-30.5l-9.35-4.5Z"/><path class="cls-43" d="m262.65,145.07c-.08,4.72,3.14,9.41,9.34,12.91l22.34-12.91h-31.68Z"/><path class="cls-57" d="m274.88,167.59v14.38c1.01.57,2.1,1.11,3.27,1.61,13.98,5.98,33.85,4.43,44.39-3.47,4.33-3.24,6.4-7.05,6.38-10.83h0v-14.61l-54.05,12.91Z"/><path class="cls-89" d="m297.23,154.68h0l-22.34,12.91c1.01.57,2.1,1.11,3.27,1.61,5.72,2.45,12.43,3.63,19.08,3.64,9.6,0,19.09-2.44,25.31-7.11,4.41-3.31,6.48-7.2,6.37-11.05h-31.69Z"/><path class="cls-72" d="m331.57,164.01h0c-1.07.76-2.57.5-3.33-.57l-10.78-15.26c-.76-1.07-.5-2.57.57-3.33h0c1.07-.76,2.57-.5,3.33.57l10.78,15.26c.76,1.07.5,2.57-.57,3.33Z"/><path class="cls-54" d="m324.13,147.07l-3.48-4.92c-1.17-1.66-3.49-2.06-5.16-.89h0c-1.66,1.17-2.06,3.49-.89,5.16l3.48,4.92s4.1,1.3,6.04-4.27Z"/><path class="cls-75" d="m311.99,166.61c.14.21.33.38.55.51l12.58,7.2c1.37.79,3.3.02,4.29-1.71h0c.99-1.73.68-3.78-.69-4.57l-14.48-8.29c-.35-.2-.79-.15-1.08.12-1.06,1-3.22,3.55-1.18,6.74Z"/><path class="cls-75" d="m303.66,170.88c.14.21.33.38.55.51l12.58,7.2c1.37.79,3.3.02,4.29-1.71h0c.99-1.73.68-3.78-.69-4.57l-14.48-8.29c-.35-.2-.79-.15-1.08.12-1.06,1-3.22,3.55-1.18,6.74Z"/><path class="cls-28" d="m323.34,192.55c-.1,1.04,2.39,1.69,4.49,2.9,2.91,1.68,6.05,2.6,7.55,1.73.38-.22.56-.5.57-.82v-1.71c.05-.97-1.39-2.44-3.57-4.58-2.41-2.35-3.95-3.81-7.55-1.73-1.03.59-1.44,1.04-1.45,1.42l-.04,2.79Z"/><path class="cls-28" d="m332.38,190.07c2.91,2.84,4.5,4.51,3,5.38-1.5.86-4.48-.44-7.55-2.75-2.68-2.03-6.61-2.28-3-4.36,3.6-2.08,5.14-.61,7.55,1.73Z"/><path class="cls-73" d="m330.05,188.02c.12-.22.17-.47.17-.72v-16.84c0-1.58-1.63-2.87-3.62-2.87h0c-1.99,0-3.62,1.29-3.62,2.87v19.02c0,.4.26.76.64.87,1.39.42,4.68,1.02,6.43-2.33Z"/><path class="cls-54" d="m304.91,172.35c.09.06.19.09.31.1,1.6.12,7.36-1.13,13.12-7.62.47-.53.78-1.26.78-1.87v-18.42c0-1.39-.5-2.36-1.29-2.81l-4.33-2.53c-.79-.47-1.88-.41-3.09.28l-5.91,3.41c-2.38,1.38-4.34,4.76-4.34,7.51v18.52c0,.43.15.75.42.89l4.33,2.53Z"/><path class="cls-28" d="m314.71,196.36c-.1,1.04,2.39,1.69,4.49,2.9,2.91,1.68,6.05,2.6,7.55,1.73.38-.22.56-.5.57-.82v-1.71c.05-.97-1.39-2.44-3.58-4.58-2.41-2.35-3.95-3.81-7.55-1.73-1.03.59-1.44,1.04-1.45,1.42l-.04,2.79Z"/><path class="cls-28" d="m323.75,193.89c2.91,2.84,4.5,4.51,3,5.38-1.5.86-4.48-.44-7.55-2.75-2.68-2.03-6.61-2.28-3-4.36,3.6-2.08,5.14-.61,7.55,1.73Z"/><path class="cls-73" d="m321.42,191.83c.12-.22.17-.47.17-.72v-16.84c0-1.58-1.63-2.87-3.62-2.87h0c-1.99,0-3.62,1.29-3.62,2.87v19.02c0,.4.26.76.64.87,1.39.42,4.68,1.02,6.43-2.33Z"/><path class="cls-36" d="m305.56,144.05c0,.46.29.92.89,1.27,1.19.69,3.13.69,4.32,0,.61-.35.9-.81.89-1.27v-4.01c0-.46-.29-.92-.89-1.27-1.19-.69-3.13-.69-4.32,0-.61.35-.9.81-.89,1.27v4.01Z"/><circle class="cls-72" cx="308.62" cy="133.64" r="8.41"/><path class="cls-14" d="m304.1,140.22c.54-.55,1.39-1.55,1.73-2.8.02-.07.03-.14.03-.2v-4.02c0-.8.19-1.6.62-2.28.36-.58.89-1.09,1.64-1.04,0,0,6.75,2.94,9.27-2.55.19-.42-.03-.92-.48-1.03-.48-.11-1.12-.53-1.82-1.68-.17-.27-.49-.42-.8-.35-.66.16-1.87.2-3.03-1.12-.14-.16-.34-.24-.56-.24-1.28.03-5.72.24-8.14,1.99-.02.01-.03.02-.05.04-.52.43-8.87,7.54.59,15.33.3.24.73.23,1-.04Z"/><path class="cls-24" d="m305.81,138.36c0,1-.7,1.41-1.57.91-.87-.5-1.57-1.72-1.57-2.72s.7-1.41,1.57-.91c.87.5,1.57,1.72,1.57,2.72Z"/><polygon class="cls-84" points="329.67 167.1 314.68 175.72 303.19 169.46 318.52 160.68 329.67 167.1"/><polygon class="cls-20" points="329.67 167.1 332.02 152.07 315.39 161.67 314.68 175.72 329.67 167.1"/><path class="cls-72" d="m316.55,169.66h0c-1.07.76-2.57.51-3.34-.56l-10.84-15.21c-.76-1.07-.51-2.57.56-3.34h0c1.07-.76,2.57-.51,3.34.56l10.84,15.21c.76,1.07.51,2.57-.56,3.34Z"/><path class="cls-54" d="m308.59,153.42l-3.02-5.22c-1.02-1.76-3.29-2.37-5.05-1.35h0c-1.76,1.02-2.37,3.29-1.35,5.05l3.02,5.22s3.96,1.66,6.4-3.71Z"/><polygon class="cls-95" points="195.41 79.79 195.17 79.93 195.17 81.83 195.42 81.69 195.41 79.79"/><polygon class="cls-95" points="195.44 89.51 195.43 87.81 195.19 87.96 195.19 89.65 195.44 89.51"/><g class="cls-105"><polygon class="cls-29" points="202.16 79.48 202.16 79.14 195.98 82.71 195.99 83.04 202.16 79.48"/><polygon class="cls-95" points="194.61 82.16 194.61 83.5 194.61 83.84 194.63 88.28 195.19 87.96 195.43 87.81 196 87.49 195.99 83.04 195.98 82.71 195.98 81.36 195.42 81.69 195.17 81.83 194.61 82.16"/></g><polygon class="cls-83" points="198.04 84.59 197.79 84.73 197.8 85.97 198.04 85.83 198.04 84.59"/><polygon class="cls-95" points="193.03 85 192.78 85.14 192.79 86.23 193.03 86.09 193.03 85"/><polygon class="cls-95" points="192.01 86.68 192.02 89.46 192.8 89.01 193.04 88.87 193.82 88.42 193.81 85.64 193.03 86.09 192.79 86.23 192.01 86.68"/><g class="cls-105"><path class="cls-73" d="m113.18,84.36v2.28s91.9-53.06,91.9-53.06v-2.28c-.01-2.75-1.98-3.87-4.37-2.49l-83.18,48.02c-2.4,1.38-4.35,4.77-4.34,7.52Z"/><path class="cls-54" d="m113.31,86.62l.17,58.09c0,2.87,1.97,4.09,4.37,2.7l83.18-48.03c2.4-1.39,4.35-4.86,4.34-7.73l-.17-58.09-91.9,53.06Z"/><polygon class="cls-83" points="198.06 92.76 198.06 91.41 197.81 91.56 197.82 92.9 198.06 92.76"/><polygon class="cls-83" points="197.02 86.42 197.03 92 197.81 91.56 198.06 91.41 198.84 90.97 198.82 85.38 198.04 85.83 197.8 85.97 197.02 86.42"/><polygon class="cls-95" points="193.05 91.56 193.04 88.87 192.8 89.01 192.8 91.7 193.05 91.56"/><polygon class="cls-83" points="190.49 93.92 190.49 91.44 190.24 91.58 190.25 94.06 190.49 93.92"/><polygon class="cls-29" points="183.85 105.13 183.84 102.59 183.55 102.76 183.55 105.3 183.85 105.13"/><polygon class="cls-95" points="186.8 93.57 186.79 89.74 186.54 89.88 186.55 93.71 186.8 93.57"/><polygon class="cls-95" points="185.87 84.68 185.88 88.54 185.88 88.88 185.89 90.26 186.54 89.88 186.79 89.74 187.68 89.22 187.68 87.84 187.68 87.5 187.67 83.64 186.77 84.16 186.53 84.3 185.87 84.68"/><polygon class="cls-95" points="186.77 82.19 186.52 82.33 186.53 84.3 186.77 84.16 186.77 82.19"/><polygon class="cls-83" points="183.89 86.44 183.89 84.4 183.64 84.54 183.65 86.58 183.8 86.49 183.89 86.44"/><polygon class="cls-83" points="189.41 73.62 189.41 73.97 189.41 74.31 189.45 86.48 189.45 86.82 189.46 92.03 190.24 91.58 190.49 91.44 191.26 90.99 191.25 85.78 191.25 85.44 191.21 73.27 191.21 72.93 191.21 72.58 190.43 73.03 190.19 73.17 189.41 73.62"/><polygon class="cls-83" points="190.43 70.24 190.18 70.38 190.19 73.17 190.43 73.03 190.43 70.24"/><polygon class="cls-29" points="161.23 118.19 161.22 115.65 160.93 115.82 160.93 118.36 161.23 118.19"/><polygon class="cls-95" points="180 81.85 180 80.3 179.76 80.44 179.76 81.99 180 81.85"/><polygon class="cls-83" points="182.83 73.66 182.85 77.76 182.85 78.1 182.87 84.98 183.5 84.62 183.64 84.54 183.89 84.4 184.66 83.95 184.64 77.06 184.64 76.72 184.63 72.63 183.85 73.08 183.61 73.22 183.46 73.3 182.83 73.66"/><polygon class="cls-95" points="179.09 77.61 179.1 79.93 179.1 80.26 179.1 80.82 179.76 80.44 180 80.3 180.9 79.78 180.9 79.22 180.9 78.89 180.89 76.57 179.99 77.09 179.75 77.23 179.09 77.61"/><polygon class="cls-83" points="172.73 90.3 172.72 88.25 172.48 88.39 172.48 90.44 172.73 90.3"/><polygon class="cls-95" points="179.98 75.33 179.74 75.47 179.75 77.23 179.99 77.09 179.98 75.33"/><polygon class="cls-95" points="175.26 82.31 175.26 82.48 175.28 90.07 176.18 89.55 176.42 89.41 177.08 89.03 177.05 81.44 177.05 81.27 176.4 81.65 176.15 81.79 175.26 82.31"/><polygon class="cls-83" points="171.91 85.77 171.91 88.72 172.48 88.39 172.72 88.25 173.29 87.93 173.28 84.98 172.71 85.31 172.47 85.45 171.91 85.77"/><polygon class="cls-83" points="172.71 83.26 172.46 83.4 172.46 83.75 172.47 84.09 172.47 85.45 172.71 85.31 172.71 83.95 172.71 83.61 172.71 83.26"/><polygon class="cls-95" points="165.7 93.21 165.7 91.58 165.46 91.72 165.46 93.35 165.7 93.21"/><polygon class="cls-95" points="164.76 89.17 164.77 92.12 165.46 91.72 165.7 91.58 166.14 91.33 166.14 88.38 165.69 88.64 165.45 88.78 164.76 89.17"/><polygon class="cls-29" points="183.39 53.9 183.4 57.15 202.06 46.38 202.05 43.12 183.39 53.9"/><polygon class="cls-29" points="140.39 130.22 140.36 127.69 140.07 127.86 140.1 130.4 140.39 130.22"/><polygon class="cls-95" points="163.62 88.86 163.61 86.69 163.37 86.83 163.38 89 163.38 89.17 163.62 89.03 163.62 88.86"/><polygon class="cls-83" points="169.08 76.24 168.84 76.38 168.85 79.44 169.09 79.3 169.08 76.24"/><polygon class="cls-95" points="158.22 92.32 158.22 92.07 157.98 92.21 157.98 92.46 157.98 94.56 158.23 94.42 158.22 92.32"/><polygon class="cls-95" points="163.6 81.07 163.35 81.21 163.35 81.27 163.6 81.13 163.6 81.07"/><polygon class="cls-95" points="162.6 81.71 162.62 87.26 163.37 86.83 163.61 86.69 164.42 86.22 164.41 80.67 163.6 81.13 163.35 81.27 162.6 81.71"/><polygon class="cls-83" points="160.37 85.31 160.36 82.32 160.11 82.46 160.12 85.45 160.37 85.31"/><polygon class="cls-83" points="153.83 93.2 153.84 94.51 153.84 94.85 153.84 96.15 154.41 95.82 154.65 95.68 155.21 95.36 155.21 94.05 155.21 93.72 155.21 92.41 154.64 92.74 154.4 92.88 153.83 93.2"/><polygon class="cls-95" points="157.06 87.17 157.08 92.64 157.08 92.73 157.98 92.21 158.22 92.07 158.88 91.69 158.88 91.6 158.86 86.13 158.2 86.51 157.96 86.65 157.06 87.17"/><polygon class="cls-95" points="158.2 85.22 157.96 85.36 157.96 86.65 158.2 86.51 158.2 85.22"/><polygon class="cls-83" points="154.63 90.9 154.39 91.04 154.4 92.88 154.64 92.74 154.63 90.9"/><polygon class="cls-95" points="148.6 100.39 148.6 99.99 148.36 100.13 148.36 100.53 148.6 100.39"/><polygon class="cls-83" points="159.6 79.8 159.6 82.75 160.11 82.46 160.36 82.32 160.83 82.04 160.98 81.96 160.97 79.01 160.82 79.09 160.35 79.37 160.1 79.51 159.6 79.8"/><polygon class="cls-95" points="147.91 98.18 147.91 98.27 147.91 100.39 148.36 100.13 148.6 99.99 149.28 99.6 149.28 97.48 149.28 97.39 148.59 97.78 148.35 97.92 147.91 98.18"/><polygon class="cls-95" points="146.16 99.28 146.16 99.03 145.92 99.17 145.92 99.42 145.92 99.45 146.16 99.31 146.16 99.28"/><polygon class="cls-83" points="139.97 108.69 139.97 107.66 139.73 107.79 139.73 108.83 139.88 108.74 139.97 108.69"/><polygon class="cls-83" points="150.61 87.76 150.62 93.35 151.4 92.9 151.64 92.76 152.42 92.31 152.41 86.72 151.63 87.17 151.38 87.31 150.61 87.76"/><polygon class="cls-83" points="128.93 124.07 128.93 123.04 128.68 123.18 128.69 124.22 128.93 124.07"/><polygon class="cls-83" points="134.21 111.39 134.2 108.29 133.96 108.43 133.97 111.53 134.21 111.39"/><polygon class="cls-95" points="125.7 121.08 125.71 122.62 125.95 122.48 125.94 120.95 125.7 121.08"/><polygon class="cls-83" points="138.92 98.16 138.93 103.11 138.93 103.45 138.95 108.24 139.73 107.79 139.97 107.66 140.16 107.54 140.75 107.21 140.73 102.41 140.73 102.08 140.72 97.12 140.06 97.51 139.94 97.57 139.7 97.71 138.92 98.16"/><polygon class="cls-95" points="136.89 102.13 136.89 101.15 136.64 101.29 136.64 102.27 136.89 102.13"/><polygon class="cls-95" points="141.85 92.15 141.86 96.06 142.3 95.81 142.55 95.67 143.23 95.27 143.22 91.36 141.85 92.15"/><polygon class="cls-95" points="122.89 123.83 122.89 123.25 122.64 123.39 122.64 123.97 122.89 123.83"/><polygon class="cls-95" points="122.2 122.08 122.2 123.64 122.64 123.39 122.89 123.25 123.57 122.85 123.57 121.29 122.88 121.68 122.64 121.82 122.2 122.08"/><polygon class="cls-95" points="125.24 115.21 125.26 121.34 125.7 121.08 125.94 120.95 126.63 120.55 126.62 114.42 125.24 115.21"/><polygon class="cls-95" points="122.88 121.1 122.64 121.24 122.64 121.82 122.88 121.68 122.88 121.1"/><polygon class="cls-95" points="131.13 107.62 131.13 106.87 130.89 107.01 130.89 107.76 130.89 108.09 130.9 108.65 131.14 108.51 131.14 107.95 131.13 107.62"/><polygon class="cls-83" points="134.18 100.79 133.94 100.94 133.94 102.85 134.19 102.71 134.18 100.79"/><polygon class="cls-83" points="127.86 109.88 127.9 122.01 127.9 122.35 127.9 123.63 128.68 123.18 128.93 123.04 129.7 122.59 129.7 121.31 129.7 120.97 129.67 108.84 128.89 109.29 128.64 109.43 127.86 109.88"/><polygon class="cls-95" points="136.18 95.42 136.2 101.55 136.64 101.29 136.89 101.15 137.57 100.75 137.55 94.63 136.87 95.02 136.62 95.17 136.18 95.42"/><polygon class="cls-95" points="136.87 94.22 136.62 94.36 136.62 95.17 136.87 95.02 136.87 94.22"/><polygon class="cls-95" points="131.12 103.54 130.88 103.68 130.89 105.07 131.13 104.93 131.12 103.54"/><polygon class="cls-83" points="121.53 121.88 121.52 119.29 121.28 119.43 121.29 122.01 121.53 121.88"/><polygon class="cls-83" points="120.71 116.81 120.72 119.76 121.28 119.43 121.52 119.29 122.09 118.96 122.08 116.02 121.51 116.34 121.27 116.48 120.71 116.81"/><polygon class="cls-29" points="140.1 78.93 140.11 82.18 158.77 71.41 158.76 68.15 140.1 78.93"/><polygon class="cls-29" points="117.99 91.62 118 94.88 136.66 84.11 136.65 80.85 117.99 91.62"/><polygon class="cls-95" points="176.42 90.75 176.42 89.41 176.18 89.55 176.18 90.89 176.42 90.75"/><polygon class="cls-67" points="117.97 86.77 117.98 90.03 202.05 41.49 202.04 38.24 117.97 86.77"/><polygon class="cls-83" points="169.14 98.2 169.14 97.7 168.9 97.84 168.9 98.34 168.9 98.68 168.91 100.99 169.15 100.85 169.15 98.54 169.14 98.2"/><polygon class="cls-83" points="183.75 71.09 183.61 71.17 183.61 73.22 183.85 73.08 183.85 71.03 183.75 71.09"/><polygon class="cls-95" points="176.37 72.55 176.13 72.69 176.15 81.62 176.15 81.79 176.4 81.65 176.4 81.48 176.37 72.55"/><polygon class="cls-95" points="165.69 87.83 165.45 87.97 165.45 88.14 165.45 88.78 165.69 88.64 165.69 88 165.69 87.83"/><polygon class="cls-83" points="168.16 79.83 168.18 86.23 168.18 86.57 168.21 98.24 168.9 97.84 169.14 97.7 170.01 97.2 169.98 85.53 169.98 85.19 169.96 78.79 169.09 79.3 168.85 79.44 168.16 79.83"/><polygon class="cls-83" points="154.65 97.94 154.65 95.68 154.41 95.82 154.41 98.07 154.65 97.94"/><polygon class="cls-83" points="160.35 78.39 160.1 78.53 160.1 78.7 160.1 79.51 160.35 79.37 160.35 78.56 160.35 78.39"/><polygon class="cls-83" points="151.65 94.18 151.64 92.76 151.4 92.9 151.4 94.32 151.65 94.18"/><polygon class="cls-95" points="148.58 93.47 148.34 93.61 148.35 97.68 148.35 97.92 148.59 97.78 148.59 97.54 148.58 93.47"/><polygon class="cls-83" points="151.63 86.32 151.38 86.46 151.38 87.31 151.63 87.17 151.63 86.32"/><polygon class="cls-95" points="145.01 96.91 145.02 99.6 145.02 99.69 145.92 99.17 146.16 99.03 146.82 98.65 146.82 98.56 146.81 95.87 146.16 96.25 145.91 96.39 145.01 96.91"/><polygon class="cls-29" points="161.28 66.6 161.29 69.85 179.95 59.08 179.94 55.82 161.28 66.6"/><polygon class="cls-95" points="142.3 95.81 142.31 97.35 142.55 97.2 142.55 95.67 142.3 95.81"/><polygon class="cls-83" points="139.75 96.83 139.7 96.86 139.7 97.71 139.94 97.57 139.94 96.72 139.75 96.83"/><polygon class="cls-83" points="133.16 103.3 133.17 106.44 133.17 106.78 133.18 108.88 133.96 108.43 134.2 108.29 134.98 107.84 134.98 105.74 134.97 105.4 134.97 102.26 134.19 102.71 133.94 102.85 133.16 103.3"/><polygon class="cls-83" points="128.88 108.1 128.64 108.24 128.64 109.05 128.64 109.39 128.64 109.43 128.89 109.29 128.89 109.25 128.89 108.91 128.88 108.1"/><polygon class="cls-83" points="121.51 114.74 121.27 114.88 121.27 116.48 121.51 116.34 121.51 114.74"/><ellipse class="cls-54" cx="132.5" cy="71.66" rx="2.21" ry="1.28" transform="translate(3.97 150.22) rotate(-59.84)"/><ellipse class="cls-54" cx="126.06" cy="75.38" rx="2.21" ry="1.28" transform="translate(-2.45 146.5) rotate(-59.84)"/><path class="cls-54" d="m119.96,77.09c-.86.5-1.56,1.71-1.56,2.7s.71,1.39,1.57.89,1.56-1.71,1.56-2.7-.71-1.39-1.57-.89Z"/></g><polygon class="cls-95" points="146.13 88.46 145.89 88.6 145.91 96.39 146.16 96.25 146.13 88.46"/><polygon class="cls-95" points="130.33 105.39 130.34 107.32 130.89 107.01 131.13 106.87 131.71 106.53 131.71 104.59 131.13 104.93 130.89 105.07 130.33 105.39"/><g class="cls-105"><path class="cls-34" d="m136.92,134.66c0,2.96,2.1,4.15,4.68,2.66l19.59-11.31c2.58-1.49,4.66-5.09,4.65-8.05,0-2.96-2.1-4.15-4.68-2.66l-19.59,11.31c-2.57,1.49-4.65,5.09-4.64,8.05Z"/></g><path class="cls-54" d="m146.07,132.02c0-.13.16-.31.49-.56.35-.26.72-.57,1.11-.93.12-.11.21-.18.26-.21.17-.1.26-.07.26.1,0,.06-.06.15-.19.29-.13.14-.32.32-.59.56-.5.45-.87.74-1.09.86-.17.1-.25.06-.25-.11Zm.33-4.03c-.09-.03-.12-.15-.11-.34v-.39c-.03-.36.15-.63.52-.83l4.11-2.38c.19-.11.33-.15.42-.12.09.03.12.15.11.34v.39c.03.36-.15.63-.53.83l-4.11,2.38c-.19.11-.33.15-.42.12Zm.17,2.44v-1.52c-.03-.36.15-.66.55-.89l3.49-2.02c.42-.24.61-.16.57.24v1.52c.03.36-.15.66-.55.89l-3.49,2.02c-.42.24-.61.16-.57-.24Zm1.27-4.2l-.89.52c-.11.07-.18.17-.18.3v.28c0,.11.06.14.18.08l.89-.52v-.65Zm2.83.34c0-.15-.08-.18-.24-.08l-3.12,1.81c-.08.05-.14.1-.18.16-.04.06-.06.12-.05.19v.15l3.59-2.08v-.15Zm0,.9v-.38l-3.59,2.08v.38l3.59-2.08Zm0,.54v-.17l-3.59,2.08v.17c0,.15.08.18.23.09l3.12-1.81c.16-.09.24-.21.24-.36Zm-1.29-2.03v-.65l-1.09.63v.65l1.09-.63Zm.92,3.58c-.51.13-.76.15-.76.05,0-.16.1-.29.31-.42.05-.03.12-.06.21-.08.36-.09.8-.24,1.3-.45.11-.04.18-.06.24-.05.05,0,.08.04.08.1,0,.18-.09.33-.26.43-.25.15-.62.28-1.12.42Zm.68-4.69v-.28c0-.12-.06-.15-.18-.08l-.96.56v.65l.96-.56c.12-.07.18-.17.18-.29Z"/><path class="cls-54" d="m157.98,124.93c0,.17-.12.33-.36.47-.32.18-.63.37-.95.55-.32.18-.63.37-.95.54-.75.43-1.27.69-1.56.78-.14.04-.27.06-.38.05-.11,0-.22-.03-.33-.07-.19.28-.36.5-.5.68-.15.17-.25.28-.32.32-.08.05-.14.06-.18.04-.04-.02-.06-.08-.06-.19,0-.13.09-.29.28-.47.02-.02.07-.08.17-.17.1-.1.21-.22.34-.37v-1.13c0-.06-.02-.09-.05-.11-.03-.01-.08,0-.14.03l-.36.21c-.09.05-.15.07-.19.05-.04-.01-.06-.06-.06-.14,0-.08.02-.15.06-.21.04-.06.1-.11.19-.16l.53-.31c.18-.1.31-.14.39-.11.08.03.12.13.11.3v1.24l.17.06c.29.05.87-.18,1.75-.69.35-.2.66-.38.92-.54.26-.16.48-.29.66-.39.24-.15.41-.25.52-.32l.07-.04c.16-.09.24-.06.24.09Zm-5.58-.41c0-.08.02-.15.05-.21.04-.06.09-.11.17-.15.07-.04.24-.08.52-.13.26-.05.39,0,.39.12,0,.16-.08.29-.24.38-.03.01-.09.03-.21.04l-.5.07c-.12.02-.18-.02-.18-.13Zm.25-1.32c0-.16.08-.28.23-.37.06-.03.22-.07.49-.11.12-.02.22-.01.28.01.06.03.1.07.1.13,0,.17-.08.3-.23.39-.04.02-.12.04-.25.04-.21.01-.34.02-.41.03-.14.02-.21-.03-.21-.13Zm.96.94c0-.05.07-.21.21-.46.31-.55.56-1.11.74-1.7.07-.21.15-.34.26-.4.09-.05.15-.07.19-.06.04.01.06.05.06.12,0,.11-.09.37-.28.8l1.11-.65.26-.76c.02-.06.05-.12.1-.17.04-.05.09-.09.15-.13.08-.05.14-.06.18-.05.04.02.06.06.06.15s-.09.31-.27.7l1.16-.67c.16-.09.24-.06.24.08,0,.07-.02.14-.05.19-.04.06-.1.11-.18.16l-1.11.64v.62l1.03-.59c.15-.09.23-.06.23.08,0,.15-.08.27-.23.35l-1.03.59v.63l1.03-.59c.15-.09.23-.06.23.08s-.08.25-.23.34l-1.03.59v.63l1.2-.7c.16-.09.23-.06.23.08s-.08.26-.23.35l-2.78,1.61c-.2.11-.34.15-.43.12-.09-.04-.13-.16-.11-.36v-2.31c-.16.31-.28.51-.33.62-.06.1-.11.16-.14.19-.14.08-.21.04-.21-.12Zm1.2-1.23s-.04.09-.04.14v.47l1.17-.68v-.62l-1.02.59s-.09.06-.11.1Zm-.04,1.67l1.17-.68v-.63l-1.17.68v.63Zm1.17.37v-.63l-1.17.68v.39c0,.07.02.12.06.14.04.02.1,0,.17-.04l.93-.54Z"/><g class="cls-105"><path class="cls-53" d="m170.48,115.27c0,2.96,2.11,4.15,4.68,2.67l19.59-11.31c2.58-1.49,4.66-5.09,4.65-8.05,0-2.96-2.1-4.15-4.68-2.67l-19.59,11.31c-2.57,1.49-4.65,5.09-4.65,8.05Z"/></g><path class="cls-54" d="m180.34,108.27c0-.12.07-.22.2-.3l1.89-1.1v-.28l-2.3,1.33c-.15.09-.23.07-.23-.05s.08-.23.23-.32l2.3-1.33v-.16c0-.13.08-.25.25-.34.17-.1.25-.08.25.05v.16l2.36-1.37c.15-.09.23-.07.23.05s-.08.23-.23.32l-2.36,1.37v.28l1.95-1.13c.14-.08.21-.06.21.06,0,.11-.07.21-.21.29l-4.35,2.52c-.14.08-.2.06-.2-.05Zm-.35,4.58s-.06-.06-.06-.14c0-.11.09-.23.28-.35.63-.4,1.14-.76,1.52-1.09l.17-.12.05-.04c.06-.04.11-.04.14-.02.03.02.05.06.05.13,0,.1-.17.28-.5.54-.61.48-1.1.82-1.48,1.04-.08.05-.14.06-.18.05Zm.03-3.28v-.3c0-.12.04-.24.12-.35.08-.11.2-.21.35-.31l4.46-2.58c.15-.09.27-.12.34-.1.08.02.12.09.12.21v.3c0,.25-.16.47-.47.66l-4.46,2.58c-.3.18-.46.14-.47-.12Zm.45,1.88v-1.05c-.03-.3.12-.55.47-.75l3.54-2.05c.34-.2.5-.13.47.2v1.05c.03.3-.12.55-.46.74l-3.55,2.06c-.35.2-.51.13-.48-.2Zm1.17-3.17l-.99.57c-.06.03-.1.07-.13.12-.03.05-.04.11-.04.19,0,.12.06.15.17.09l.99-.57v-.41Zm2.82-.18c0-.11-.05-.13-.15-.07l-3.2,1.85c-.11.06-.16.15-.16.25v.09l3.51-2.03v-.09Zm0,.63v-.24l-3.51,2.03v.24l3.51-2.03Zm0,.41v-.11l-3.51,2.03v.11c0,.1.05.12.16.05l3.2-1.85c.11-.06.16-.14.15-.24Zm-1.19-1.39v-.41l-1.17.68v.41l1.17-.68Zm.3,2.84c-.19.06-.29.05-.29-.02,0-.14.08-.25.25-.35l.11-.05c.52-.18,1.05-.42,1.57-.72.09-.05.16-.07.21-.07.05,0,.07.04.07.1,0,.16-.08.28-.25.38-.45.26-1,.5-1.67.72Zm1.33-3.82s.04-.11.04-.2c0-.07-.01-.11-.04-.12-.03-.01-.07,0-.13.03l-1.04.6v.41l1.04-.6c.06-.04.1-.08.13-.12Z"/><path class="cls-54" d="m191.59,103.91v1.31c0,.22-.05.42-.16.59-.11.17-.28.32-.5.45l-3.81,2.21c-.22.13-.39.17-.49.12-.11-.05-.17-.18-.17-.4v-1.31c0-.21.08-.36.25-.46.17-.1.26-.05.26.16v1.2c0,.18.09.22.28.11l1.49-.87v-2.19l-1.4.81c-.22.13-.38.17-.48.14s-.14-.17-.13-.39v-1.2c0-.2.09-.36.26-.46.08-.05.14-.06.19-.03.04.02.06.08.06.18v1.05c0,.18.09.22.26.12l1.24-.72v-1.77c0-.23.09-.39.26-.49.17-.1.26-.04.26.19v1.77l1.28-.74c.18-.1.27-.25.27-.43v-1.05c0-.2.08-.34.25-.44.17-.1.26-.04.26.16v1.2c.03.41-.17.73-.61.95l-1.45.84v2.19l1.54-.89c.17-.1.26-.24.27-.43v-1.2c0-.21.09-.36.26-.46.17-.1.25-.04.25.17Z"/><path class="cls-42" d="m126.76,215.88h0c-1.32.24-2.6-.65-2.84-1.98l-2.41-13.64c-.24-1.32.65-2.6,1.98-2.84h0c1.32-.24,2.6.65,2.84,1.98l2.41,13.64c.24,1.32-.65,2.6-1.98,2.84Z"/><path class="cls-36" d="m137.7,216.75h0c-.4,1.28-1.78,2-3.07,1.6l-8.44-2.46c-1.34-.09-2.37-1.26-2.28-2.6h0c.09-1.34,1.26-2.37,2.6-2.28l9.6,2.68c1.28.4,2,1.78,1.6,3.07Z"/><path class="cls-87" d="m120.1,255.07c2.51,2.45,3.88,3.89,2.59,4.64-1.29.74-5.56.88-8.2-1.12-2.31-1.75-4-3.22-.89-5.01,3.11-1.79,4.43-.53,6.51,1.5Z"/><path class="cls-72" d="m118.57,252.91l-.18-22.59-7.47,2.42,1.28,3.68s-.58,4.92.94,9.9c0,0,1.07,2.17.85,7.23,0,0,2.74,1.56,4.57-.65Z"/><path class="cls-99" d="m127.3,249.15c2.51,2.45,3.88,3.89,2.59,4.64-1.29.74-5.2.48-7.84-1.52-2.31-1.75-4.36-2.82-1.26-4.61,3.11-1.79,4.43-.53,6.51,1.5Z"/><path class="cls-72" d="m125.77,246.99l-.18-22.59-7.47,2.42,1.28,3.68s-.58,4.92.94,9.9c0,0,1.07,2.17.85,7.23,0,0,2.74,1.56,4.57-.65Z"/><path class="cls-26" d="m107.29,226.05v8.34s9.77,3.3,18.96-8.34v-8.07s-18.96,8.07-18.96,8.07Z"/><path class="cls-58" d="m111.93,229.26c.09.06.19.09.31.1,1.64.13,7.53-1.16,13.42-7.8.49-.55.8-1.29.8-1.91v-18.84c0-1.42-.51-2.42-1.32-2.88l-4.43-2.58c-.81-.48-1.92-.42-3.16.29l-6.04,3.49c-2.44,1.41-4.44,4.87-4.44,7.68v18.95c0,.44.16.77.43.91l4.43,2.58Z"/><path class="cls-36" d="m113.64,200.31c0,.47.29.94.91,1.3,1.22.7,3.2.7,4.42,0,.62-.36.92-.83.91-1.3v-4.1c0-.47-.29-.94-.91-1.3-1.22-.7-3.2-.7-4.42,0-.62.36-.92.83-.91,1.3v4.11Z"/><path class="cls-42" d="m113.89,194.49c0,1.03-.72,1.44-1.61.93s-1.61-1.76-1.61-2.79c0-1.03.72-1.44,1.61-.93s1.61,1.76,1.61,2.79Z"/><path class="cls-102" d="m122.27,205.55s8.32-7.56,3.24-21.01l-3.9,13.96.65,7.05Z"/><circle class="cls-72" cx="116.72" cy="189.59" r="8.6" transform="translate(-94.68 259.44) rotate(-76.67)"/><path class="cls-102" d="m119.27,205.55s-6.4-7.05-1.96-20.11l7.96,2.74s2.74-6.79-6.27-8.75c0,0-6.01-1.31-8.09,3.66,0,0-4.83.39-3,10.31,0,0,.26,9.4,11.36,12.14Z"/><path class="cls-72" d="m114.62,220.39h0c-1.3.36-2.65-.4-3.01-1.7l-3.79-14.1c-.36-1.3.4-2.65,1.7-3.01h0c1.3-.36,2.65.4,3.01,1.7l3.79,14.1c.36,1.3-.4,2.65-1.7,3.01Z"/><polygon class="cls-78" points="123.03 197.35 124.9 198.43 181.14 165.97 179.26 164.88 123.03 197.35"/><polygon class="cls-17" points="123.03 204.03 124.9 205.12 124.9 198.43 123.03 197.35 123.03 204.03"/><polygon class="cls-82" points="123.03 255.94 124.9 257.03 124.9 205.12 123.03 204.03 123.03 255.94"/><polygon class="cls-73" points="124.9 198.43 181.14 165.97 181.14 172.65 124.9 205.12 124.9 198.43"/><polygon class="cls-22" points="181.14 224.56 124.9 257.03 124.9 205.12 181.14 172.65 181.14 224.56"/><polygon class="cls-54" points="128.96 239.64 177.09 211.85 177.09 178.3 128.96 206.09 128.96 239.64"/><path class="cls-63" d="m135.88,206.1l4.12-2.38,2.91,1.68v4.76s-2.91,5.05-2.91,5.05l-1.99,1.15v-2.41s1.12-.65,1.12-.65l1.69-2.93v-2.76s-1.69-.98-1.69-.98l-2.39,1.38-.87-1.92Z"/><polygon class="cls-30" points="138.01 213.94 136.74 214.68 135.05 213.7 135.05 210.94 136.74 208.01 135.88 206.1 132.96 211.15 132.96 215.9 135.88 217.59 138.01 216.36 138.01 213.94"/><path class="cls-50" d="m135.88,221.45l4.12-2.38,2.91,1.68v4.76s-2.91,5.05-2.91,5.05l-1.99,1.15v-2.42s1.12-.65,1.12-.65l1.69-2.92v-2.76s-1.69-.98-1.69-.98l-2.39,1.38-.87-1.92Z"/><polygon class="cls-51" points="132.96 231.26 135.88 232.94 138.01 231.71 138.01 229.29 136.74 230.02 135.05 229.05 132.96 231.26"/><polygon class="cls-94" points="135.05 229.05 135.05 226.29 136.74 223.37 135.88 221.45 132.96 226.5 132.96 231.26 135.05 229.05"/><polygon class="cls-80" points="173.47 211.17 147.16 226.35 147.16 226.16 173.47 210.98 173.47 211.17"/><polygon class="cls-50" points="152.91 209.69 148.33 212.34 148.33 225.49 152.91 222.85 152.91 209.69"/><polygon class="cls-50" points="159.12 208.37 154.54 211.01 154.54 221.91 159.12 219.26 159.12 208.37"/><polygon class="cls-51" points="165.33 209.2 160.75 211.84 160.75 218.32 165.33 215.67 165.33 209.2"/><polygon class="cls-63" points="171.55 209.24 166.97 211.89 166.97 214.73 171.55 212.08 171.55 209.24"/><polygon class="cls-9" points="173.47 184.47 147.12 199.68 147.12 211.01 173.47 195.8 173.47 184.47"/><polygon class="cls-68" points="147.12 211.01 147.12 200.71 153.42 200.68 159.58 196.04 164.51 195.39 169.52 193.42 173.49 195.8 147.12 211.01"/><polygon class="cls-80" points="147.12 211.01 147.12 202.36 155.12 203.4 164.89 198.43 168.87 195.07 173.49 195.8 147.12 211.01"/><polygon class="cls-32" points="147.12 211.01 147.12 203.78 153.27 204.55 163.05 200.82 167.64 197.04 173.49 195.79 147.12 211.01"/><polygon class="cls-82" points="129.6 243.56 176.44 216.52 177.09 216.88 177.09 217.69 176.44 218.8 129.6 245.85 128.96 245.47 128.96 244.67 129.6 243.56"/><polygon class="cls-82" points="145.08 238.59 176.43 220.48 177.07 220.85 177.07 221.65 176.43 222.76 145.08 240.87 144.44 240.5 144.44 239.69 145.08 238.59"/><path class="cls-72" d="m128.46,221.86h0c-.28,1.32-1.59,2.16-2.9,1.88l-11.39-2.31c-1.34.04-2.48-1.03-2.52-2.37h0c-.04-1.34,1.03-2.48,2.37-2.52l12.56,2.42c1.32.28,2.16,1.59,1.88,2.9Z"/><polygon class="cls-33" points="41.48 74.83 43.23 75.84 109.57 37.54 107.82 36.53 41.48 74.83"/><polygon class="cls-81" points="41.48 81.06 43.23 82.07 43.23 75.84 41.48 74.83 41.48 81.06"/><polygon class="cls-82" points="41.48 131.12 43.23 132.13 43.23 82.07 41.48 81.06 41.48 131.12"/><polygon class="cls-69" points="43.23 75.84 109.57 37.54 109.57 43.77 43.23 82.07 43.23 75.84"/><polygon class="cls-22" points="109.57 93.83 43.23 132.13 43.23 82.07 109.57 43.77 109.57 93.83"/><polygon class="cls-54" points="47.01 114.26 105.8 80.32 105.8 49.04 47.01 82.98 47.01 114.26"/><polygon class="cls-51" points="76.94 78.37 80.75 76.17 80.75 90.93 76.94 93.14 76.94 78.37"/><polygon class="cls-50" points="71.76 76.8 75.58 74.59 75.58 93.92 71.76 96.13 71.76 76.8"/><polygon class="cls-50" points="66.58 76.19 70.4 73.99 70.4 96.91 66.58 99.11 66.58 76.19"/><polygon class="cls-50" points="61.4 75.73 65.22 73.52 65.22 99.9 61.4 102.1 61.4 75.73"/><polygon class="cls-94" points="92.47 81.43 96.29 79.22 96.29 81.96 92.47 84.17 92.47 81.43"/><polygon class="cls-63" points="87.29 80.57 91.11 78.36 91.11 84.95 87.29 87.16 87.29 80.57"/><polygon class="cls-51" points="82.11 79.46 85.93 77.26 85.93 87.94 82.11 90.15 82.11 79.46"/><polygon class="cls-82" points="47.61 117.91 105.2 84.66 105.8 85.01 105.8 85.76 105.2 86.79 47.61 120.04 47.01 119.7 47.01 118.95 47.61 117.91"/><polygon class="cls-82" points="62.05 113.22 105.2 88.31 105.8 88.65 105.8 89.4 105.2 90.44 62.05 115.35 61.45 115 61.45 114.25 62.05 113.22"/></g></g></svg>