<?xml version="1.0" encoding="UTF-8"?><svg id="_圖層_1" xmlns="http://www.w3.org/2000/svg" xmlns:xlink="http://www.w3.org/1999/xlink" viewBox="0 0 553.78 482"><defs><style>.cls-1{fill:#e47e23;}.cls-1,.cls-2,.cls-3,.cls-4,.cls-5,.cls-6,.cls-7,.cls-8,.cls-9,.cls-10,.cls-11,.cls-12,.cls-13,.cls-14,.cls-15,.cls-16,.cls-17,.cls-18,.cls-19,.cls-20,.cls-21,.cls-22,.cls-23,.cls-24,.cls-25{stroke-width:0px;}.cls-2{fill:#9cb8e0;}.cls-3{fill:#4c6e9f;}.cls-4{fill:#2e559e;}.cls-5{fill:#f9d9d4;}.cls-6{fill:#f4a018;}.cls-26{clip-path:url(#clippath-2);}.cls-27,.cls-28,.cls-29{isolation:isolate;}.cls-30{letter-spacing:.01em;}.cls-7{fill:#759bd0;}.cls-31{clip-path:url(#clippath-6);}.cls-8{fill:#111c2f;}.cls-9{fill:#e6bcb5;}.cls-32{stroke:#23375c;}.cls-32,.cls-11,.cls-33,.cls-34{fill:none;}.cls-32,.cls-33,.cls-34{stroke-miterlimit:10;stroke-width:.5px;}.cls-10{fill:#f0cfca;}.cls-35{letter-spacing:.05em;}.cls-12{fill:#b5c9e8;}.cls-36{clip-path:url(#clippath-7);}.cls-33{stroke:#102342;}.cls-37{clip-path:url(#clippath-1);}.cls-38{clip-path:url(#clippath-4);}.cls-13{fill:#fcebda;}.cls-14{fill:#f4b819;}.cls-15{fill:#5978ba;}.cls-16{fill:#fff;}.cls-34{stroke:#e47e23;}.cls-17{fill:#dc5410;}.cls-18{fill:#102342;}.cls-28{letter-spacing:.05em;}.cls-28,.cls-29{fill:#323333;font-family:Bahnschrift-Bold, Bahnschrift;font-size:31px;font-variation-settings:'wght' 700, 'wdth' 100;font-weight:700;}.cls-39{clip-path:url(#clippath);}.cls-19{fill:#e9f1f9;}.cls-20{fill:#3b5c9f;}.cls-21{fill:#e2740e;}.cls-40{clip-path:url(#clippath-3);}.cls-41{letter-spacing:0em;}.cls-42{clip-path:url(#clippath-8);}.cls-22{fill:#f1933d;}.cls-43{clip-path:url(#clippath-5);}.cls-23{fill:#23375c;}.cls-44{letter-spacing:.03em;}.cls-24{fill:#3364ae;}.cls-25{fill:#2a4a7a;}</style><clipPath id="clippath"><rect class="cls-11" x="57.48" y="131.96" width="401.67" height="220.16"/></clipPath><clipPath id="clippath-1"><rect class="cls-11" x="488.23" y="272.63" width="39.92" height="141.47"/></clipPath><clipPath id="clippath-2"><rect class="cls-11" x="449.89" y="273.06" width="75.45" height="112.42"/></clipPath><clipPath id="clippath-3"><rect class="cls-11" x="483.45" y="220.19" width="45.62" height="61.05"/></clipPath><clipPath id="clippath-4"><rect class="cls-11" x="414.37" y="191.97" width="69.58" height="71.7"/></clipPath><clipPath id="clippath-5"><rect class="cls-11" x="31.96" y="325.31" width="80.79" height="45.33"/></clipPath><clipPath id="clippath-6"><rect class="cls-11" x="33.26" y="278.02" width="37.11" height="60.61"/></clipPath><clipPath id="clippath-7"><rect class="cls-11" x="82.28" y="299.31" width="48.04" height="36.94"/></clipPath><clipPath id="clippath-8"><rect class="cls-11" x="245.48" y="299.73" width="56.93" height="80.01"/></clipPath></defs><g id="_组_568"><path id="_路径_539" class="cls-8" d="m518.82,418.37c1.26-2.3.84-3.91.39-6.19,2.29-.37,4.51-1.1,6.58-2.14l2.72,3.31c.2.27.36.57.48.89.23.71.12,1.49-.29,2.12-.41.76-.98,1.43-1.66,1.96-.23.19-.47.39-.71.59-.61.39-1.15.87-1.61,1.43-.33.32-.64.66-.93,1.01-1.55,1.68-3.23,3.24-5.03,4.65-1.2.93-2.82,1.85-3.99,1.23-.51-.26,1.98-5.05,4.05-8.84"/><g id="_组_567"><path id="_联合_3" class="cls-13" d="m308.78,0c.23,0,.45,0,.68.02,1.1-.02,2.22-.02,3.32-.02,133.1,0,241,107.9,241,241s-107.9,241-241,241-241-107.9-241-241c0-2.79.05-5.55.14-8.32-.09-.56-.14-1.12-.14-1.68V10c0-5.52,4.48-10,10-10h227Z"/><path id="_路径_525" class="cls-12" d="m105.98,151.51l-1.61-10.64c-.42-2.5-2.8-4.19-5.3-3.77l-3.43.52c-2.15.35-4.28-.69-5.33-2.59-.78-1.42-1.63-2.79-2.56-4.12-1.25-1.75-1.2-4.11.12-5.81l2.07-2.71c1.49-1.9,1.16-4.66-.74-6.15-.07-.05-.14-.11-.21-.16l-8.93-6.35c-2.09-1.47-4.98-1.04-6.54.99l-2.08,2.71c-1.35,1.73-3.62,2.46-5.72,1.84-1.59-.47-3.21-.85-4.85-1.14-2.13-.35-3.79-2.02-4.14-4.15l-.5-3.31c-.43-2.5-2.8-4.19-5.3-3.76l-11.03,1.66c-2.52.33-4.29,2.64-3.96,5.16,0,0,0,0,0,0l.5,3.31c.31,2.14-.8,4.23-2.73,5.19-1.48.76-2.91,1.61-4.29,2.53-1.83,1.21-4.21,1.18-6.01-.08l-2.78-1.97c-2.09-1.47-4.98-1.04-6.54.99l-6.67,8.7c-1.49,1.92-1.15,4.68.77,6.18.06.05.12.09.19.14l2.78,1.97c1.77,1.23,2.52,3.47,1.85,5.51-.51,1.54-.92,3.11-1.23,4.69-.45,2.13-2.19,3.75-4.34,4.05l-3.43.52c-2.52.33-4.29,2.65-3.95,5.17l1.6,10.64c.42,2.5,2.79,4.18,5.29,3.76,0,0,.01,0,.02,0l3.43-.51c2.15-.35,4.28.69,5.34,2.59.77,1.42,1.62,2.8,2.56,4.12,1.25,1.75,1.19,4.12-.14,5.81l-2.07,2.69c-1.5,1.92-1.15,4.7.78,6.19.06.05.12.09.18.13l8.94,6.34c2.09,1.47,4.97,1.04,6.54-.98l2.08-2.7c1.35-1.73,3.61-2.46,5.72-1.84,1.59.48,3.21.86,4.85,1.14,2.13.34,3.81,2.01,4.15,4.14l.5,3.31c.43,2.5,2.8,4.19,5.3,3.77l11.03-1.66c2.52-.33,4.29-2.65,3.96-5.16h0s-.5-3.31-.5-3.31c-.3-2.14.8-4.23,2.73-5.19,1.48-.76,2.91-1.6,4.29-2.53,1.83-1.21,4.22-1.18,6.01.08l2.79,1.96c2.09,1.47,4.97,1.04,6.54-.99l6.66-8.7c1.49-1.92,1.15-4.68-.76-6.18-.06-.05-.13-.1-.19-.14l-2.78-1.96c-1.76-1.23-2.51-3.47-1.83-5.51.5-1.54.91-3.1,1.23-4.69.44-2.13,2.18-3.75,4.34-4.05l3.43-.52c2.52-.33,4.29-2.64,3.96-5.15,0,0,0,0,0,0m-47.29,26.4c-15.3,3.51-29.98-6.92-31.02-22.03-.82-11.89,7.62-22.91,19.66-25.66,15.29-3.52,29.98,6.91,31.02,22.03.81,11.88-7.62,22.89-19.65,25.66"/><line id="_直线_5" class="cls-11" x1="252.5" y1="225.99" x2="217.98" y2="261.83"/><g id="_组_534"><path id="_路径_527" class="cls-25" d="m239.07,369.57v49.63h19.98v-18.72c0-6.55,5.31-11.86,11.86-11.86s11.86,5.31,11.86,11.86v18.73h19.98v-49.63h-63.67Z"/><rect id="_矩形_256" class="cls-3" x="173.83" y="416.08" width="194.14" height="13.11"/><rect id="_矩形_257" class="cls-3" x="43.16" y="123.01" width="455.49" height="254.93"/><rect id="_矩形_258" class="cls-19" x="57.48" y="131.96" width="426.85" height="220.16"/><g class="cls-39"><g id="_组_509"><path id="_路径_528" class="cls-19" d="m453.38,350.83c-16.91-4.08-33.05-10.66-48.8-17.96-15.8-7.32-31.67-14.67-47.23-22.49-83.46-41.95-157.66-104.47-215.08-178.42H57.48v220.16h401.68c-1.93-.41-3.86-.83-5.77-1.29"/></g></g><rect id="_矩形_260" class="cls-25" x="57.2" y="352.13" width="427.41" height="4.03"/></g><g id="_组_535"><path id="_路径_529" class="cls-15" d="m416.36,175.12c-29.02-30.63-77.39-31.94-108.02-2.91-1,.94-1.97,1.92-2.91,2.91l-34.5,35.82-34.5-35.82c-29.02-30.63-77.38-31.94-108.02-2.92-1,.95-1.97,1.92-2.92,2.92-30.58,31.76-30.58,83.43,0,115.19,29.1,30.63,77.52,31.88,108.15,2.78.95-.9,1.88-1.83,2.78-2.78l34.5-35.82,34.5,35.82c29.1,30.63,77.52,31.88,108.15,2.78.95-.9,1.88-1.83,2.78-2.78,30.63-32.29,30.63-82.9,0-115.19m-200.89,93.43c-18.06,19.06-48.16,19.87-67.22,1.81-.62-.59-1.22-1.19-1.81-1.81-19.06-20.09-19.06-51.58,0-71.67,18.06-19.06,48.15-19.87,67.21-1.81.62.59,1.23,1.19,1.81,1.81l34.51,35.84-34.51,35.84Zm34.51-35.84l-34.51,35.84m179.93,0c-18.1,19.06-48.23,19.84-67.29,1.73-.59-.56-1.17-1.14-1.73-1.73l-34.51-35.84,34.51-35.84c18.06-19.06,48.15-19.87,67.22-1.81.62.59,1.23,1.19,1.81,1.81,19.06,20.09,19.06,51.59,0,71.68"/><path id="_路径_530" class="cls-24" d="m317.93,260.02l-70.05-72.77-23.25,19.26,71.58,73.82,21.72-20.31Z"/><path id="_路径_531" class="cls-2" d="m418,176.87c-8.05,6.24-15.75,12.95-21.79,20.88,18.3,20.18,17.95,51.04-.8,70.8-7.29,7.64-16.91,12.66-27.35,14.27,7.2,8.27,13.67,17.15,19.36,26.53,10.96-4.09,20.86-10.59,28.95-19.04,29.99-31.62,30.7-80.96,1.63-113.44"/><path id="_路径_532" class="cls-2" d="m123.81,177.08c8.05,6.24,15.75,12.95,21.79,20.88-18.3,20.18-17.95,51.04.8,70.8,7.29,7.64,16.91,12.66,27.35,14.27-7.2,8.27-13.67,17.15-19.35,26.53-10.96-4.09-20.86-10.59-28.95-19.04-29.99-31.62-30.7-80.96-1.63-113.43"/><path id="_路径_533" class="cls-7" d="m211.61,272.42l70.32-72.56,22.97,19.05-70.88,74.24-22.41-20.73Z"/></g><path id="_路径_538" class="cls-24" d="m424.07,261.01l.02,182.71c-.01,1.24.99,2.26,2.23,2.27,0,0,0,0,.01,0,1.25-.02,2.25-1.04,2.24-2.29v-13.59l30-.14v13.59c0,1.24.99,2.26,2.24,2.27,0,0,0,0,0,0,1.25-.02,2.25-1.04,2.24-2.29l-.02-182.71c.01-1.24-.98-2.26-2.22-2.27,0,0-.01,0-.02,0-1.25.02-2.25,1.04-2.24,2.29v16.99l-30,.14v-16.99c0-1.24-.99-2.26-2.23-2.27,0,0,0,0,0,0-1.25.02-2.25,1.04-2.24,2.29m4.5,150.57l30-.14v14.58l-30,.14v-14.59Zm0-18.52l30-.14v14.58l-30,.15v-14.58Zm0-18.52l30-.15v14.58l-30,.14v-14.58Zm0-18.52l30-.15v14.58l-30,.15v-14.58Zm0-18.52l30-.15v14.58l-30,.14v-14.58Zm0-18.52l30-.15v14.58l-30,.14v-14.58Zm0-18.52l30-.15v14.58l-30,.14v-14.58Zm0-18.53l30-.14v14.58l-30,.15v-14.58Z"/><path id="_路径_540" class="cls-4" d="m502.91,272.63c6.68,8.97,9.64,20.4,10.34,31.96,2.05,33.94.34,41.94,2.47,52.82,4.1,20.96,9.72,36.49,12.42,53.62-5.9,2.44-3.62,1.8-11.61,4.65-8.86-30.96-15.22-40-21.29-61.23-6.24-21.79-8.16-52.02-6.39-75.32-.02-.75.22-1.49.68-2.09.46-.4,1.03-.68,1.63-.8,4.22-1.21,8.43-2.42,11.75-3.6"/><path id="_路径_541" class="cls-32" d="m508.53,304.57c.23,7.8.45,15.6.68,23.41.35,11.95.7,23.96,3.01,35.52,1.79,8.09,4.07,16.06,6.83,23.87,2.51,7.58,4.26,17.06,6.77,24.65"/><g class="cls-37"><g id="_组_512"><path id="_路径_542" class="cls-20" d="m499.19,316.6c6.91,1.04,5.82,9.67,5.29,14.63-.81,7.57.68,16.33,2.49,23.72.97,3.98,2.28,7.88,3.52,11.79,3.48,10.9,7.24,21.85,9.51,33.08.65,3.22,2.38,10,.9,14.28,3.01-1.14,2.83-1.23,7.26-3.07-2.7-17.13-8.33-32.66-12.42-53.62-2.13-10.88-.42-18.87-2.47-52.82-.7-11.55-3.66-22.99-10.34-31.96-3.31,1.18-7.53,2.39-11.75,3.6-.6.12-1.16.4-1.63.8-.46.6-.7,1.34-.68,2.09-1.02,14.6-.79,29.26.69,43.82,2.38-3.47,5.68-6.95,9.64-6.36"/></g></g><path id="_路径_543" class="cls-8" d="m448.63,382.5c-6.2,5.18-16.98,6.71-12.92,8.26s4.1,1.03,11.13.5,7.2.63,7.37-1.83c.03-2.47-.1-4.94-.39-7.39,0,0,1.01-4.72-5.19.46"/><path id="_路径_544" class="cls-20" d="m501.38,272.61l-36.58,29.85c-2.31,1.72-4.36,3.74-6.12,6.02-2.82,4-3.8,9.1-4.61,13.97-3.35,20.09-5.47,40.3-7.58,60.49,2.78.84,5.56,1.68,8.33,2.52,7.1-17.6,12.26-35.93,15.37-54.66.48-2.89.94-5.87,2.37-8.42,2.43-4.35,6.97-6.58,11.24-8.28,25.6-10.2,29.21-9.74,35.33-16.52,8.44-9.36,6.25-16.85,4.94-23.1-6.69-2.73-14.81-2.3-22.7-1.88"/><g class="cls-26"><g id="_组_515"><path id="_路径_545" class="cls-4" d="m524.08,274.49c-1.59-.63-3.24-1.11-4.92-1.43,1.16,1.65,2.03,3.48,2.59,5.42,1.85,6.37,1.63,13.67-3.56,18.52-7.32,6.84-17.91,8.85-27.39,10.65-9.62,1.83-19.75,4.03-25.11,13.1-6.89,11.65-6.44,26.21-8.26,39.27-.7,4.98-1.82,19.39-7.53,23.96,1.65.5,3.29.99,4.94,1.49,7.1-17.6,12.26-35.93,15.37-54.66.48-2.89.94-5.87,2.37-8.42,2.43-4.35,6.97-6.58,11.24-8.28,25.59-10.2,29.21-9.74,35.33-16.52,8.44-9.36,6.25-16.85,4.94-23.1"/></g></g><path id="_路径_546" class="cls-22" d="m497.15,220.61c-4.61.33-9.01,18-9.49,22.7-.63,6.09-3.78,22.13-4.19,33.31-.12.8.04,1.61.46,2.29.56.54,1.3.86,2.08.89,14.3,2.23,28.89,1.85,43.06-1.12-5.07-14.97-3.91-31.3-5.96-47-.42-3.22-1.1-6.66-3.43-8.85-2.38-2.24-5.88-2.61-9.1-2.7-5.31-.15-10.62.27-13.43.47"/><g class="cls-40"><g id="_组_518"><path id="_路径_549" class="cls-1" d="m523.11,231.69c-.42-3.22-1.1-6.66-3.43-8.85-2.09-1.97-5.03-2.49-7.9-2.65-1.19,1.22-2.26,2.54-3.21,3.95-1.72,3.15-3.14,6.46-4.22,9.89-.62,2.33-.91,4.74-1.62,7.04-.9,5.14-2.8,10.93-7.83,13.41-2.73,1.35-6.56,1.58-8.85-.23-1.26,7.4-2.13,14.87-2.59,22.37-.12.8.04,1.61.46,2.29.56.54,1.3.86,2.08.89,14.3,2.23,28.89,1.85,43.06-1.12-5.07-14.97-3.91-31.3-5.96-47"/></g></g><path id="_路径_550" class="cls-5" d="m500.31,213.91c.04,2.67-.52,5.32-1.65,7.75,1.77,1.29,4.22,1.2,6.42.89,1.09-.11,2.16-.37,3.18-.78.25-.06.42-.31.37-.57.09-4.77.11-9.54.05-14.31-2.16.73-4.57.39-6.76,1.02-.5.08-.88.48-.94.98-.45,1.63-.68,3.31-.67,5.01"/><path id="_路径_551" class="cls-9" d="m506.3,214.55c1.57-2.29,1.45-5.13,2.38-7.65-2.16.73-4.57.38-6.76,1.02-.22.05-.42.14-.59.28-.18.2-.3.44-.35.7-.45,1.63-.68,3.31-.67,5.01.02,1.47-.14,2.94-.49,4.38,2.6-.26,4.96-1.62,6.48-3.74"/><path id="_路径_552" class="cls-5" d="m497.42,201.81c-.49,1.62-.52,3.33-.93,4.97-.57,2.24-1.86,4.57-.98,6.7.88,1.74,2.73,2.77,4.68,2.6,1.92-.19,3.72-1.03,5.1-2.38,2.71-2.46,4.26-5.95,4.27-9.61.15-1.25-.41-2.49-1.45-3.2-1.43-1.02-3.09-1.68-4.83-1.94-2.66-.52-5.37,1.24-5.86,2.86"/><path id="_路径_553" class="cls-8" d="m501.07,197c-2.17.53-3.75,2.38-3.93,4.61-.03.15.01.31.1.44.19.22.56.12.8-.04.22-.2.49-.32.79-.35.48.05.59.65.82,1.06.55.7,1.43,1.06,2.32.95.88.05,1.76-.16,2.53-.59.5-.32.9-.78,1.42-1.06.51-.33,1.19-.27,1.63.15.44.58-.05,1.48.32,2.11.3.41.82.62,1.32.53.93-.13,1.73-.74,2.09-1.6.34-.85.35-1.79.03-2.65-.31-.92-.88-1.72-1.64-2.32-1.8-1.43-4.33-1.52-6.66-1.55-.92-.01-1.94.01-1.95.3"/><path id="_路径_554" class="cls-8" d="m503.77,196.72l-7.33-1.86c-.66-.21-1.36-.3-2.06-.28-.96.13-1.84.59-2.49,1.31-1.48,1.54-1.96,3.79-1.23,5.8.46,1.45,1.8,2.43,3.32,2.44,1.58-.15,2.56-1.66,3.98-2.33.29-.18.65-.21.97-.09.16.11.3.24.42.39.48.43,1.14.6,1.77.45.62-.14,1.18-.46,1.61-.92,1.3-1.28,1.71-3.23,1.03-4.92"/><path id="_路径_555" class="cls-8" d="m506.75,201.14c.47,1.34.6,2.78.38,4.18-.04.19-.06.38-.05.57.03.22.11.42.21.61.43.9.85,1.8,1.28,2.71,1.6-1.1,2.72-3.26,2.95-6.9.04-.64-.09-.72-.47-1.24-.62-.85-1.86-.91-2.92-.82-.35,0-.69.09-1,.27-.29.19-.47.58-.39.63"/><path id="_路径_556" class="cls-5" d="m507.17,206.13c.45-.83,1.35-1.32,2.29-1.25,1.63.14.55,3.29-2.06,4.08-.35.16-.77.1-1.06-.15-.15-.26-.18-.58-.08-.86.11-.68.43-1.31.91-1.81"/><path id="_路径_557" class="cls-14" d="m439.69,186.26c-18.34,5.5-29.42,21.65-23.89,40.1,3.54,11.8,10.46,16.88,23.57,24.64,3.11,1.84,4.55,10.44,4.69,12.67,4.52-2.55,11.22-.48,17.59-2.41,3.61-1.22,7.35-2.01,11.15-2.36-1.7-3-3.3-14.06-.59-16.5,11.32-10.18,14.01-22.58,10.01-35.94-5.53-18.45-24.18-25.69-42.52-20.2"/><path id="_路径_558" class="cls-16" d="m461.33,261.24l-.88.19c-.1-.43-.44-1.53-.81-2.7-.35-1.07-.71-2.22-.92-3.01-.94-3.38-4.1-15.59-6.18-26.18-.8.17-1.62.25-2.43.23-.22,0-.43-.02-.65-.04.28,1.45.53,2.91.78,4.36.4,2.34.78,4.54,1.25,6.62.24,1.08.51,2.25.79,3.48,1.24,5.44,2.79,12.21,3.99,18.95l-.88.16c-1.2-6.72-2.73-13.48-3.98-18.91-.28-1.23-.55-2.4-.79-3.49-.47-2.11-.85-4.32-1.26-6.67-.27-1.54-.53-3.09-.83-4.62-5.51-.79-12.02-4.77-13.64-10.07-1.45-4.75.59-6.14,1.58-6.54,2.92-1.17,7.64,1.41,9.54,5.2,1.55,3.37,2.65,6.93,3.27,10.59.29.03.57.04.85.05.75.02,1.5-.05,2.24-.21-1.28-6.62-2.09-12.48-1.63-14.96.72-3.85,2.94-5.97,5.93-5.68,3.39.34,6.97,3.91,6.9,8.67-.17,3.51-1.73,6.81-4.33,9.18-1.64,1.6-3.63,2.78-5.82,3.45,1.91,9.73,4.76,21.08,6.17,26.16.22.78.58,1.91.92,2.98.39,1.24.73,2.31.84,2.77m-8.1-32.79c2.02-.63,3.86-1.74,5.37-3.22,2.43-2.2,3.89-5.27,4.06-8.54.06-4.21-3.17-7.47-6.1-7.76-2.51-.25-4.31,1.55-4.95,4.95-.44,2.31.36,8.01,1.62,14.57m-16.46-14.57c-1.55.63-1.92,2.56-1.04,5.43,1.49,4.87,7.44,8.56,12.6,9.4-.61-3.48-1.66-6.86-3.14-10.06-1.82-3.65-6.15-5.68-8.4-4.78,0,0-.01,0-.02,0"/><g class="cls-38"><g id="_组_521"><path id="_路径_559" class="cls-6" d="m482.21,206.46c-1.61-5.62-4.81-10.65-9.22-14.49.81,1.38,1.52,2.82,2.12,4.3,5.54,13.75,2.14,32.63-9.53,42.38-13.55,11.32-28.92-2-35.37-14.24-5.3-10.06-8.39-21.04-4.62-30.71-9.33,7.79-13.69,19.65-9.79,32.65,3.54,11.8,10.46,16.88,23.57,24.64,3.11,1.84,4.55,10.44,4.69,12.67,4.52-2.55,11.22-.48,17.59-2.41,3.61-1.22,7.35-2.01,11.15-2.36-1.7-3-3.3-14.06-.59-16.5,11.32-10.18,14.01-22.58,10.01-35.94"/></g></g><path id="_路径_560" class="cls-17" d="m452.21,278.18c3.23,5.02,9.91,6.46,14.93,3.24,2.83-1.82,4.64-4.85,4.92-8.2l-19.84,4.96Z"/><path id="_路径_561" class="cls-21" d="m443.79,262.89l2.72,10.38c1.07,3.86,5.06,6.12,8.92,5.05,0,0,0,0,0,0l13.99-3.66c3.89-.96,6.26-4.89,5.3-8.78,0,0,0,0,0,0l-2.72-10.37-28.22,7.39Z"/><path id="_路径_562" class="cls-5" d="m470.51,264.15c-2.42-.21-3.53-.38-5.15-1.32-1.35-.82-2.88-1.32-4.45-1.46-.33.01-.74.23-.66.55.06.22.32.31.54.38.86.28,3.96,2.05,3.18,1.75-2.15.25-4.32.28-6.48.09-.42-.06-.85-.05-1.26.05-.4.12-1.01.52-.79.88.28.45,4.24.55,6.36.83-1.79.05-3.59.09-5.38.14-.44.01-1.08.26-.9.66.24.54,4.45.55,6.68.83l-5.1.31c-.68.04-1.93.42-1.37.81,1.02.72,4.46.4,6.9.48-1.07.15-2.13.31-3.2.46-.35.05-.82.3-.66.62.08.17.29.21.48.23,4.07.5,7.66-.07,12.25,0-.38-2.1.02-4.27-.97-6.3"/><path id="_路径_563" class="cls-22" d="m523.38,230.83c-.41-2.66-1.05-5.43-2.92-7.47s-5.33-3-5.27-2.32c-6.04,2.86-8.72,9.57-10,15.81s-1.82,12.9-5.59,18.17c-1,1.49-2.35,2.71-3.94,3.54-1.72.7-3.55,1.1-5.41,1.18l-22.1,2.24c-.07.62-.14,1.24-.19,1.86-.28,3.15-.35,6.31-.22,9.46l5.88,1.22c7.78,1.61,15.84,3.23,23.63,1.67,9.86-1.98,18.09-9.03,22.43-17.58s5.12-18.41,3.69-27.78"/><path id="_路径_595" class="cls-23" d="m47.46,352.67l-.29-.92c-.11-.35-.32-.67-.61-.9-2.54-5-5.69-9.8-7.65-14.99-2.74-7.24-1.51-15.96,1.88-22.87,1.22-2.5-3.83-3.57-5.03-1.1-3.15,6.43-3.76,13.07-2.99,19.9.88,7.92,6.24,14.68,9.67,21.98,1.15,2.47,5.86,1.53,5.03-1.1"/><rect id="_矩形_269" class="cls-23" x="58.11" y="367.04" width="4.38" height="60.16"/><path id="_路径_596" class="cls-23" d="m38.17,426.1c8.77-12.22,25.78-15.03,38.01-6.26,2.41,1.73,4.53,3.84,6.26,6.26h4.26c-8.68-14.58-27.53-19.36-42.1-10.69-4.4,2.62-8.07,6.29-10.69,10.69h4.26Z"/><path id="_路径_597" class="cls-3" d="m40.4,427.23c.01,2.19-1.75,3.98-3.94,3.99-2.19.01-3.98-1.75-3.99-3.94-.01-2.19,1.75-3.98,3.94-3.99,0,0,.02,0,.03,0,2.18,0,3.96,1.76,3.97,3.94"/><path id="_路径_598" class="cls-3" d="m64.27,427.23c.01,2.19-1.75,3.98-3.94,4-2.19.01-3.98-1.75-4-3.94-.01-2.19,1.75-3.98,3.94-4,0,0,.02,0,.03,0,2.19,0,3.96,1.76,3.97,3.94"/><path id="_路径_599" class="cls-3" d="m89.33,427.23c.02,2.19-1.75,3.98-3.94,4-2.19.02-3.98-1.75-4-3.94s1.75-3.98,3.94-4c0,0,.02,0,.03,0,2.19,0,3.96,1.76,3.97,3.94"/><path id="_路径_600" class="cls-12" d="m58.21,308.74c-.02,6.76-5.52,12.23-12.28,12.22h-15.7c-6.75.06-12.26-5.36-12.32-12.1-.06-6.75,5.36-12.26,12.1-12.32.07,0,.15,0,.22,0h15.7c6.76-.02,12.26,5.45,12.28,12.21"/><path id="_路径_601" class="cls-12" d="m88,363.66c-.02,5.75-4.69,10.41-10.45,10.39h-36.41c-5.74.06-10.44-4.55-10.49-10.29-.06-5.74,4.55-10.44,10.29-10.49.07,0,.14,0,.2,0h36.41c5.75-.02,10.43,4.63,10.45,10.39,0,0,0,0,0,0"/><path id="_路径_602" class="cls-5" d="m130.6,405.98c2.73,4.5,6.93,6.11,9.84,9.22.22.21.39.47.49.76.1.67-.3,1.32-.95,1.52-.63.17-1.29.17-1.91.01l-10.8-1.79c-.39-.04-.78-.16-1.13-.35-.67-.58-1.07-1.4-1.12-2.28-.49-2.6-.09-3.61-.58-6.2,2.4.37,6.16-.89,6.16-.89"/><path id="_路径_603" class="cls-18" d="m140.93,415.95c-.1-.29-.27-.55-.49-.76-1.03-1.32-2.29-2.45-3.72-3.32-.94,1.07-2.29,1.7-3.71,1.73-.85-.04-1.69-.16-2.53-.25-.85-.07-1.69-.26-2.49-.54-1.23-.46-2.35-1.19-3.26-2.14.05.81.15,1.61.29,2.41.05.88.45,1.7,1.12,2.28.35.19.73.3,1.13.35l10.8,1.79c.63.16,1.29.16,1.91-.01.65-.21,1.05-.85.95-1.52"/><path id="_路径_604" class="cls-10" d="m130.87,406.5c-.03-.09-.06-.17-.08-.26-2.51-13.54-6.69-37.16-9.11-46.39-3.56-13.59-4.22-18.26-25.73-23.66-23.31-5.85-56.16-4.09-56.16-4.09,0,0-1.72,11.84-1.13,18.77.84,10.13,18.77,15.65,22.33,15.83,9.64.5,46.22-7.49,46.22-7.49,0,0,2,16.39,4.74,23.72,2.99,7.99,6.43,11.73,13.56,24.81,1.77-.46,3.57-.82,5.35-1.25"/><path id="_路径_605" class="cls-5" d="m125.32,415.85c.81-.15,1.56-.51,2.19-1.04-3.18-14.14-8.36-38.11-11.22-47.54-2.36-7.79-1.86-14.06-7.52-17.91-3.91-2.66-10.18-3.67-20.31-5.81-24.6-5.2-53.39-6.07-53.39-6.07,0,0,11.93,28.72,15.66,28.77,10.1.14,50.41.95,50.41.95,0,0,2.9,17.11,6.06,24.66,3.32,7.97,6.79,11.72,14.23,24.09,1.17-.09,2.72.24,3.88-.09"/><path id="_路径_606" class="cls-5" d="m127.51,414.8c2.74,4.5,6.93,6.11,9.84,9.22.22.21.39.47.49.76.1.67-.3,1.32-.95,1.52-.63.17-1.29.17-1.91.02-3.6-.6-7.2-1.19-10.8-1.79-.4-.04-.78-.16-1.13-.35-.67-.58-1.07-1.4-1.12-2.28-.49-2.6-.09-3.61-.58-6.2,2.4.37,6.16-.89,6.16-.89"/><path id="_路径_607" class="cls-18" d="m137.84,424.78c-.1-.29-.27-.55-.49-.76-1.03-1.32-2.29-2.44-3.72-3.32-.94,1.07-2.29,1.7-3.71,1.73-.85-.04-1.69-.16-2.54-.25-.85-.08-1.69-.26-2.49-.54-1.24-.46-2.35-1.19-3.26-2.14.05.81.15,1.61.29,2.41.05.88.45,1.71,1.12,2.28.35.19.73.31,1.13.35,3.6.59,7.2,1.19,10.8,1.79.63.16,1.29.15,1.91-.02.65-.21,1.05-.85.95-1.52"/><path id="_路径_608" class="cls-20" d="m35.1,325.31s-2.94,15.16-3.13,22.91c-.57,24.06,27.37,23.41,31.31,23.9,12.63,1.58,35.39-4.47,35.39-4.47,0,0-1.4-11.39,5.5-19.3,4.38-5.02,8.59-6.07,8.59-6.07,0,0-6.86-9.09-43.24-9.39-11.37-.09-34.4-7.59-34.4-7.59"/><g class="cls-43"><g id="_组_527"><path id="_路径_609" class="cls-20" d="m48.69,355.23c3.26-6.9,12.94-7.15,19.47-7.49,11.71-.48,23.45.13,35.05,1.8.3-.4.61-.8.95-1.18,4.38-5.02,8.59-6.06,8.59-6.06,0,0-6.85-9.1-43.24-9.39-11.37-.09-34.4-7.59-34.4-7.59,0,0-2.94,15.16-3.13,22.91-.35,14.92,10.26,20.34,19.31,22.42-2.46-4.6-4.93-10.45-2.59-15.4"/></g></g><path id="_路径_610" class="cls-1" d="m64.84,283.34c3.51-1.04,6.77.74,9.46,4.16,6.86,8.73,4.64,12.89,5.19,25.55.33,7.58,26.36,8.23,26.36,8.23,0,0-1.43,2.31-1.12,4.02.42,2.29.1.66,1.5,4.08,0,0-29.54.41-40.39-1.33-7.09-1.13-7.7-31.84-7.09-34.96,1.19-6.13,4.32-9.23,6.1-9.76"/><path id="_路径_611" class="cls-22" d="m74.71,288.26c2.49,3.54,5.32,17.79-.64,23.53-5.59,5.38-3.04,19.94-4.56,21.11-5.99,4.61-10.94,7.46-27.43,4.57-1.11-.2-8.82-1.33-8.82-1.33,0,0,1.51-16.53,2.77-23.77,3.25-18.66,6.4-26.43,11.18-30.13,3.87-2.99,10.22-5.34,15.2-3.67,4.97,1.94,9.26,5.31,12.31,9.69"/><g class="cls-31"><g id="_组_530"><path id="_路径_612" class="cls-1" d="m61.78,314.72c-2.55-5.1-.63-9.51.29-15.3,1.01-6.3-3.75-14.95-3.68-21.4-4.06.26-7.96,1.73-11.18,4.22-4.78,3.7-7.93,11.48-11.18,30.13-1.26,7.24-2.77,23.77-2.77,23.77,0,0,7.7,1.13,8.82,1.33,16.49,2.89,21.45.04,27.43-4.57.84-.65.44-5.38.86-10.4-5.46-.75-5.69-2-8.59-7.78"/></g></g><path id="_路径_615" class="cls-22" d="m45.58,285.85c2.39-2.77,8.98-3.35,11.6.12,6.69,8.86,1.84,17.85.25,31.17-.9,7.54,27.39,9.82,27.39,9.82l.61,7.61s-32.03,2.29-41.46-3.33c-9.8-5.85-3.25-30.64-2.59-33.74,1.3-6.1,2.62-9.8,4.21-11.64"/><path id="_路径_616" class="cls-8" d="m65.28,260c-4.97.52-3.69,8.4-6.52,11.21-2.36,2.34-4.03.75-6.51.78-2.57.03-2.87,1.95-5.03,3.12-4.86,2.64-6.58-6.31-13.23-7.53-6.13-1.83-7.39-6.18-1.96-10.66,1.17-.96,2.61-.87,3.88-1.61,1.48-.87,2.35-2.23,3.72-3.26,3.7-2.8,5.78-.34,9.25,1.3,2.99,1.41,6.21-.91,8.93,1.14,2.15,1.62,2.68,6.09,6.05,5.48-.25-.08-.48-.19-.71-.32"/><path id="_路径_617" class="cls-5" d="m65.49,274.01c-.56,2.65-.53,5.4.08,8.04-1.97.96-4.32.42-6.39-.29-1.04-.31-2.02-.77-2.93-1.36-.1-.06-.19-.15-.25-.26-.05-.12-.05-.25,0-.37,1.93-4.2,2.53-8.39,2.58-13.76,1.95,1.13,4.51.7,6.52,1.74.2.09.37.22.51.39.13.23.2.5.2.77.12,1.71.01,3.43-.33,5.12"/><path id="_路径_618" class="cls-9" d="m59.56,273.54c-1.08-2.57-.4-5.39-.81-8.07,1.95,1.13,4.35,1.23,6.35,2.27.2.09.38.22.51.39.13.23.2.5.2.77.12,1.71,0,3.43-.33,5.12-.31,1.47-.44,2.96-.38,4.46-2.48-.75-4.51-2.55-5.55-4.92"/><path id="_路径_619" class="cls-5" d="m70.66,262.47c.16,1.7.33,3.22.41,4.93.12,2.34.49,4.17-.78,6.13-1.05,1.75-3.08,2.68-5.09,2.33-1.83-.36-3.44-1.42-4.49-2.96-2.15-3-2.97-6.75-2.25-10.38.09-1.27.87-2.39,2.03-2.92,1.58-.75,3.31-1.11,5.06-1.05,2.68-.03,4.96,2.23,5.12,3.93"/><path id="_路径_620" class="cls-8" d="m72.04,257.01c2.07,1.75,2.81,3.45,1.46,5-.89,1.02-1.79.1-2.13.07-.47-.04-.7.54-1.01.91-.66.59-1.59.79-2.43.52-.86-.12-1.68-.48-2.34-1.05-.42-.41-.72-.94-1.17-1.32-.43-.43-1.11-.49-1.61-.14-.54.5-.24,1.48-.72,2.04-.37.36-.9.47-1.38.29-.89-.31-1.54-1.06-1.72-1.99-.16-.91.01-1.85.48-2.65.48-.85,1.18-1.55,2.04-2.02,2.02-1.09,3.69.38,5.77-.62,1.73-.84,4.54.77,4.76.96"/><path id="_路径_621" class="cls-8" d="m61.75,260.08c-.72,1.25-1.13,2.66-1.19,4.1,0,.19-.02.39-.07.57-.07.21-.18.4-.32.57-.59.83-1.18,1.65-1.77,2.47-1.33-1.39-3.13-3.29-1.91-6.52.24-.75.61-1.45,1.1-2.07,2.22-2.17,3.66-.08,3.9.17s.34.67.26.7"/><path id="_路径_622" class="cls-5" d="m59.38,266.46c-.63-.7-1.61-.96-2.5-.66-1.52.54.31,3.38,3,3.5.38.02.82-.07.97-.42.08-.3.03-.61-.14-.87-.28-.64-.74-1.18-1.33-1.56"/><path id="_路径_623" class="cls-16" d="m114.61,302.78c0,.96.78,1.74,1.74,1.74.96,0,1.74-.78,1.74-1.74,0-.96-.78-1.74-1.74-1.74s-1.74.78-1.74,1.74h0"/><path id="_路径_624" class="cls-23" d="m6.34,437.4l16.63-99.11,7.8.46-21.36,98.65h-3.07Z"/><path id="_路径_625" class="cls-23" d="m167.28,437.4l-16.63-99.11-7.99.24,21.55,98.87h3.07Z"/><rect id="_矩形_272" class="cls-23" x="12.68" y="336.26" width="147.5" height="3.66"/><rect id="_矩形_273" class="cls-15" x="56.58" y="334.14" width="26.8" height="2.11"/><path id="_路径_626" class="cls-15" d="m94,296.41h-3.02l-11.22,37.73h3.62l10.62-37.73Z"/><path id="_路径_627" class="cls-12" d="m94,296.41l-11.72,39.84h45.79l11.52-39.84h-45.59Z"/><g class="cls-36"><g id="_组_533"><path id="_路径_628" class="cls-12" d="m110.27,325.99c-11.58-4.8-16.87-15.23-17.13-26.68l-10.87,36.94h45.79l2.26-7.8c-6.78.95-13.7.1-20.05-2.46"/></g></g><path id="_路径_629" class="cls-24" d="m74.67,243.21c-.05-20.25,16.32-36.71,36.57-36.76s36.71,16.32,36.76,36.57-16.32,36.71-36.57,36.76c-.03,0-.06,0-.09,0-20.22.03-36.64-16.35-36.66-36.57,0,0,0,0,0,0"/><path id="_路径_630" class="cls-16" d="m81.68,243.21c-.04-16.38,13.2-29.69,29.58-29.73,16.38-.04,29.69,13.2,29.73,29.58.04,16.38-13.2,29.69-29.58,29.73-.03,0-.05,0-.08,0-16.36.02-29.63-13.22-29.65-29.58h0"/><line id="_直线_7" class="cls-33" x1="111.33" y1="215.49" x2="111.33" y2="225.44"/><line id="_直线_8" class="cls-33" x1="111.33" y1="260.98" x2="111.33" y2="270.93"/><line id="_直线_9" class="cls-33" x1="129.93" y1="222.61" x2="123.26" y2="230.01"/><line id="_直线_10" class="cls-33" x1="99.4" y1="256.42" x2="92.73" y2="263.81"/><line id="_直线_11" class="cls-33" x1="83.54" y1="243.21" x2="93.51" y2="243.21"/><line id="_直线_12" class="cls-33" x1="129.15" y1="243.21" x2="139.12" y2="243.21"/><line id="_直线_13" class="cls-33" x1="91.68" y1="223.61" x2="98.73" y2="230.64"/><line id="_直线_14" class="cls-33" x1="123.93" y1="255.78" x2="130.98" y2="262.81"/><path id="_路径_631" class="cls-25" d="m109.26,245.13c-.54-1.74.44-3.59,2.18-4.13,1.74-.54,3.59.44,4.13,2.18.54,1.74-.44,3.59-2.18,4.13,0,0-.02,0-.03,0-1.74.52-3.57-.45-4.1-2.19"/><path id="_路径_632" class="cls-25" d="m112.52,244.5l-5.91-8.64-1.46-6.49,3.71,5.06,3.67,10.07Z"/><path id="_路径_633" class="cls-25" d="m111.93,243.72l2.77-13.18,4.17-7.66-1.45,7.9-5.49,12.94Z"/><g id="HIS" class="cls-27"><text class="cls-28" transform="translate(161.27 243.78)"><tspan x="0" y="0">HIS</tspan></text></g><g id="PACS" class="cls-27"><text class="cls-29" transform="translate(318.15 243.78)"><tspan class="cls-41" x="0" y="0">P</tspan><tspan class="cls-30" x="19.49" y="0">A</tspan><tspan class="cls-44" x="39.9" y="0">C</tspan><tspan class="cls-35" x="60.02" y="0">S</tspan></text></g><g id="_组_4746"><g id="_组_4743"><path id="_路径_564" class="cls-5" d="m258.84,436.78c2.23,3.51,7.21,4.04,10.03,7.05.22.2.38.46.48.74.1.65-.29,1.28-.92,1.48-.61.16-1.25.17-1.86.01l-10.5-1.74c-.39-.04-.76-.15-1.1-.34-.65-.56-1.04-1.36-1.09-2.22-.48-2.52-.24-4.64-.72-7.17,2.33.36,3.44,1.17,5.68,2.18"/><path id="_路径_565" class="cls-18" d="m269.35,444.57c-.1-.28-.26-.53-.48-.73-1.19-1.15-2.58-2.09-4.1-2.76-.78.9-1.95,1.35-3.13,1.21-.83-.04-1.64-.15-2.46-.24-.83-.07-1.64-.25-2.42-.53-1.2-.44-2.28-1.15-3.17-2.08.05.79.14,1.57.28,2.34.05.86.44,1.66,1.09,2.22.34.18.71.3,1.1.34,3.5.58,7,1.16,10.5,1.74.61.15,1.25.15,1.86-.01.63-.2,1.02-.83.92-1.48"/><path id="_路径_566" class="cls-5" d="m269.39,302.86c-8.67,19.36-12.82,40.45-12.15,61.65.26,3.26.18,6.55-.26,9.79-.71,3.02-1.66,5.99-2.84,8.86-6.01,17.26-3.75,36.21-.5,54.2,2.61-.09,2.58-.18,5.19-.27.39-21.29,10.45-41.74,14.55-62.64,1.39-7.11,2.41-14.28,3.42-21.45,2.15-15.2,4.29-30.4,6.44-45.61-4.69-1.05-9.38-2.1-13.85-4.54"/><path id="_路径_567" class="cls-9" d="m256.48,385.66c2.12-1.18,4.38-2.08,6.72-2.68,1.05-.3,2.13-.44,3.22-.42.97.04,1.94.17,2.88.39.66.15,1.31.36,1.95.61.8-3.03,1.53-6.06,2.12-9.1,1.39-7.11,2.41-14.28,3.42-21.45,2.15-15.2,4.29-30.4,6.44-45.61-4.69-1.05-9.38-2.1-13.85-4.54-8.67,19.36-12.82,40.45-12.15,61.65.26,3.26.18,6.55-.25,9.79-.71,3.02-1.66,5.99-2.84,8.86-.65,1.87-1.2,3.77-1.67,5.68,1.16-1.26,2.51-2.34,4-3.18"/><path id="_路径_568" class="cls-5" d="m295.48,430.95c2.15,3.47,6.95,4,9.67,6.98.21.2.37.45.46.73.1.64-.28,1.26-.89,1.47-.59.16-1.21.16-1.79.01-3.37-.58-6.75-1.15-10.12-1.72-.37-.04-.73-.15-1.06-.33-.63-.56-1.01-1.35-1.05-2.19-.46-2.5-.23-4.6-.69-7.09,2.25.36,3.31,1.16,5.48,2.15"/><path id="_路径_569" class="cls-18" d="m305.61,438.66c-.09-.28-.25-.53-.46-.73-1.15-1.14-2.48-2.06-3.95-2.73-.74.89-1.87,1.34-3.02,1.2-.8-.04-1.58-.15-2.38-.24-.8-.07-1.58-.25-2.33-.52-1.16-.44-2.21-1.15-3.05-2.06.05.78.14,1.55.27,2.32.04.84.42,1.63,1.05,2.19.33.18.69.3,1.06.33,3.37.57,6.75,1.14,10.12,1.72.59.15,1.21.15,1.79-.01.61-.21.99-.83.89-1.47"/><path id="_路径_570" class="cls-5" d="m277.25,310.06c-3.27,19.02-1.33,38.57,5.6,56.58,1.09,2.44,1.89,5.01,2.38,7.64.2,2.32.16,4.66-.12,6.97-.85,11.23.53,21.83,1.96,32.99.8,6.24,2.43,10.15,3.33,17.2,1.73-.26,5.73-.12,5.47.05.85-6.66,6.23-48.5,2.96-75.05-1.92-15.27-4.71-30.42-8.38-45.37-.08-.59-.35-1.14-.77-1.56-.59-.35-1.29-.47-1.96-.32-3.91.34-7.82.69-10.46.86"/><path id="_路径_571" class="cls-9" d="m285.23,374.29c.2,2.32.16,4.66-.12,6.97-.04.48-.06.95-.09,1.42.41-.31.82-.61,1.25-.88.55-.35,1.12-.65,1.7-.94,1.57-.84,3.25-1.47,4.99-1.86,2.27-.48,4.61-.57,6.91-.27.13-7.44-.22-14.88-1.04-22.28-1.92-15.27-4.71-30.42-8.38-45.37-.08-.59-.35-1.14-.77-1.56-.59-.35-1.29-.47-1.96-.32-3.91.34-7.82.69-10.46.86-3.27,19.02-1.34,38.57,5.59,56.58,1.09,2.44,1.89,5.01,2.38,7.64"/><path id="_路径_572" class="cls-20" d="m265.09,299.73c-13.14,21.05-16.5,46.91-19.54,71.81-.15.64-.08,1.31.19,1.91.31.42.73.74,1.22.91,18.29,8.62,39.62,5.49,59.11.27.64-.17,1.38-.44,1.59-1.09.08-.31.08-.63.02-.94-.84-6.76-1.68-13.52-2.52-20.28-.82-6.58-1.63-13.16-2.72-19.69-1.62-9.77-3.85-19.42-6.66-28.91-.16-.77-.52-1.5-1.03-2.1-1.07-1.05-2.77-.77-4.21-.49-8.47,1.64-17.21,1.16-25.45-1.39"/><g class="cls-42"><g id="_组_524"><path id="_路径_573" class="cls-20" d="m264.06,361.61c-1.22-3.94-1.98-8.01-2.26-12.13-.12-2-.12-4.01.02-6.01.13-1.84.47-3.67,2.04-4.85.83-.58,1.9-.73,2.86-.39.56.08,1.11.21,1.65.39.42.19.85.36,1.29.53,1.91.72,3.9,1.21,5.93,1.46,4.06.45,8.17.13,12.12-.94,5.31-1.46,10.3-3.91,14.71-7.23-1.62-9.71-3.83-19.31-6.63-28.75-.16-.77-.52-1.5-1.03-2.1-1.07-1.05-2.77-.77-4.21-.49-8.47,1.64-17.21,1.16-25.45-1.39-13.13,21.06-16.5,46.91-19.54,71.81-.15.64-.08,1.31.19,1.91.31.42.73.74,1.22.92,8.37,3.94,17.37,5.42,26.54,5.37-4.26-5.39-7.46-11.54-9.44-18.13"/></g></g><g id="_组_4742"><path id="_路径_576" class="cls-5" d="m290.49,280.88c2.57,7.64,5.9,20.16,9.45,24.58,1.84,2.24,4.1,4.1,6.66,5.47,7.04,3.87,12.5,3.07,20.14,5.35.04-2.22.01-.86.75-2.92-6.52-3.07-24.48-8.92-25.38-24.15-.71-12.02-2.11-12.62-5.07-19.08-.64-1.4-2.67-4.1-4.13-4.56s-6.98,1.76-2.42,15.31"/><path id="_路径_577" class="cls-5" d="m325.1,315.24c1.54,1.3,3.22,2.41,5.02,3.3.58.26,1.29.72,1.85.4.03-.47-.23-.36-.99-.77-.42-.22-1.02-.48-1.23-.9,1.59.85,3.4,1.21,5.2,1.04-.06-.32-.3-.58-.61-.67-.31-.09-.63-.14-.95-.15-.82-.09-1.6-.4-2.26-.88,1.5.49,3.15.97,4.62.38,0-.26-.16-.49-.4-.58-.24-.08-.5-.11-.75-.11-.95-.04-1.88-.3-2.71-.76,1.37.36,2.8.39,4.19.08.02-.46-.61-.6-1.07-.63-1.14-.05-2.25-.36-3.25-.92-.13-.08-.89-.43-.87-.58.01-.12,1.32-.8,1.73-1.14.37-.3.61-.87.3-1.23-2.29,1.04-4.84,2.1-7.23,1.36-.12.93-.31,1.86-.57,2.76"/></g><path id="_路径_578" class="cls-8" d="m284.53,242.7c-2.06-1.71-5.04-1.72-7.12-.04-2.71,2.33-2.7,6.87-5.58,8.98-3.35,2.45-7.94.07-12.08-.24-2.92-.25-5.81.7-8.01,2.63-2.18,1.97-3.25,4.88-2.88,7.79.41,2.68,2.15,5.3,1.43,7.92-.37.98-.81,1.94-1.32,2.86-1.64,3.79.1,8.18,3.89,9.82,2.35,1.02,5.05.76,7.17-.68,1.31-.88,2.36-2.2,3.86-2.68,1.72-.56,3.57.1,5.37.24,3.9.14,7.58-1.82,9.64-5.14,1.99-3.31,2.7-7.22,2.01-11.02-.26-1.67-.69-3.52.22-4.95.9-1.39,2.79-1.84,3.81-3.15,2.66-3.41-2.49-9.04-.43-12.34"/><path id="_路径_579" class="cls-22" d="m296.27,261.23c-1.99.97-3.57,2.63-4.45,4.66-.49,1.23-.81,2.52-.95,3.84-.79,6.06.02,12.23,2.37,17.87,3.88-.57,7.67-1.59,11.32-3.02.46-.05.79-.46.74-.91,0-.09-.03-.18-.07-.26-1.48-6.43-3.52-12.71-6.09-18.79-.42-1.23-1.13-2.35-2.08-3.24-.41-.34-1.34-.23-.8-.15"/><path id="_路径_580" class="cls-22" d="m280.86,257.18c-4.33.09-9.17.39-12.13,3.55-2.98,3.19-2.91,8.07-2.69,12.43.56,11.04.73,22.84-5.13,32.21,11.62,5.04,24.66,5.74,36.75,1.97-1.13-7.58-2.03-15.39-.31-22.87,1.55-6.72,5.12-13.99,1.86-20.07-1.76-3.27-5.24-5.35-8.85-6.26-3.13-.63-6.31-.95-9.5-.96"/><path id="_路径_581" class="cls-1" d="m296.13,297.24c-.73.08-1.47.11-2.21.1-.72-.06-1.44-.17-2.14-.32-1.3-.19-2.58-.45-3.84-.79-4.67-1.59-8.47-5.03-10.51-9.52-2.38-5-2.85-10.45-2.78-15.92.06-4.64.82-9.45,3.21-13.48-3.42.25-6.83.98-9.11,3.42-2.98,3.19-2.91,8.07-2.69,12.43.56,11.04.73,22.84-5.13,32.21,11.62,5.04,24.66,5.74,36.75,1.97-.5-3.35-.95-6.74-1.15-10.13-.13,0-.26.02-.38.03"/><path id="_路径_582" class="cls-34" d="m281.56,279.8c6.14-2.29,10.82-7.38,12.59-13.7"/><path id="_路径_583" class="cls-34" d="m288.47,281.34c2.81-2.03,5.02-4.78,6.39-7.97"/><path id="_路径_584" class="cls-5" d="m289.76,252.49c-.38,2.61-.19,5.27.56,7.79-1.85,1.05-4.17.66-6.22.1-1.03-.24-2.01-.63-2.93-1.15-.1-.05-.19-.14-.25-.24-.06-.11-.07-.24-.03-.36,1.62-4.2,1.95-8.29,1.68-13.51,1.96.98,4.42.4,6.43,1.29.2.07.38.19.52.35.14.22.23.47.24.73.22,1.66.22,3.33-.01,4.99"/><path id="_路径_585" class="cls-9" d="m283.98,252.39c-1.2-2.43-.71-5.21-1.27-7.79,1.96.98,4.3.93,6.3,1.82.2.07.38.19.52.35.14.22.23.47.24.73.22,1.65.22,3.33-.01,4.99-.21,1.44-.24,2.9-.1,4.35-2.45-.58-4.53-2.2-5.68-4.45"/><path id="_路径_586" class="cls-5" d="m294.09,240.98c.25,1.65.51,3.1.7,4.76.25,2.26.72,4.01-.39,6-.92,1.76-2.82,2.78-4.8,2.56-1.8-.24-3.43-1.17-4.54-2.61-2.27-2.78-3.29-6.38-2.81-9.94.01-1.24.7-2.37,1.79-2.96,1.49-.82,3.15-1.28,4.85-1.32,2.6-.19,4.95,1.86,5.2,3.51"/><path id="_路径_588" class="cls-8" d="m285.29,239.19c-.62,1.26-.93,2.65-.91,4.05.02.19,0,.38-.03.56-.06.21-.15.4-.28.58-.52.84-1.05,1.67-1.57,2.5-1.38-1.27-3.24-3-2.25-6.21.19-.74.51-1.45.95-2.07,2.02-2.24,3.55-.29,3.8-.07s.37.63.29.66"/><path id="_路径_589" class="cls-9" d="m283.38,245.53c-.65-.64-1.62-.83-2.46-.49-1.44.62.51,3.26,3.12,3.22.37,0,.79-.11.92-.46.06-.29,0-.6-.19-.83-.31-.6-.79-1.1-1.38-1.43"/><path id="_路径_592" class="cls-5" d="m259.83,275.24c-2.37,7.4-6.96,19.04-6.66,24.46.19,2.79.95,5.51,2.22,7.99,3.46,6.95,8.37,9.39,13.24,15.44,1.32-1.71.51-.66,2.32-1.85-3.5-6.04-14.68-20.66-6.54-33.04,6.43-9.78,5.64-11.03,7.01-17.72.3-1.45.22-4.69-.7-5.86s-6.69-2.54-10.89,10.58"/><path id="_路径_593" class="cls-5" d="m268.36,322.49c.54,1.94,1.31,3.8,2.3,5.55.33.54.66,1.32,1.3,1.37.29-.38,0-.43-.39-1.19-.3-.42-.48-.92-.52-1.44.84,1.6,2.13,2.92,3.71,3.79.13-.3.08-.65-.13-.9-.21-.24-.44-.46-.7-.65-.62-.54-1.09-1.23-1.37-2,.97,1.25,2.06,2.58,3.6,2.92.15-.21.15-.5,0-.7-.16-.2-.35-.38-.56-.52-.76-.57-1.38-1.31-1.82-2.16.93,1.07,2.1,1.9,3.42,2.43.27-.37-.17-.84-.53-1.12-.91-.68-1.66-1.57-2.17-2.59-.06-.14-.49-.85-.39-.97.08-.09,1.54.08,2.07.04.47-.04.99-.38.95-.85-2.48-.43-5.18-.99-6.74-2.95-.63.7-1.31,1.36-2.03,1.96"/><path id="_路径_594" class="cls-22" d="m272.85,258.84c-2.21-.07-4.38.65-6.11,2.03-1.01.86-1.89,1.85-2.64,2.94-3.54,4.98-5.71,10.81-6.28,16.9,3.69,1.31,7.52,2.2,11.41,2.64.43.17.91-.03,1.08-.46.03-.08.05-.17.06-.26,1.71-6.37,2.85-12.88,3.42-19.45.21-1.29.1-2.6-.31-3.84-.2-.49-1.07-.83-.63-.5"/></g><path id="_路径_587" class="cls-8" d="m295.09,235.6c2.11,1.57,2.93,3.18,1.71,4.76-.8,1.04-1.73.2-2.07.19-.46,0-.65.57-.92.94-.61.61-1.49.86-2.33.65-.85-.06-1.66-.37-2.33-.88-.43-.37-.75-.87-1.22-1.21-.45-.39-1.1-.41-1.57-.04-.49.52-.14,1.46-.57,2.03-.33.37-.85.51-1.32.36-.88-.25-1.56-.94-1.79-1.83-.21-.88-.1-1.8.31-2.6.41-.85,1.05-1.57,1.86-2.08,1.9-1.18,3.61.15,5.56-.95,1.63-.91,4.45.48,4.68.64"/></g></g></g></svg>