<?xml version="1.0" encoding="UTF-8"?><svg id="_圖層_1" xmlns="http://www.w3.org/2000/svg" xmlns:xlink="http://www.w3.org/1999/xlink" viewBox="0 0 345.48 451.26"><defs><style>.cls-1{clip-path:url(#clippath-20);}.cls-2{clip-path:url(#clippath-11);}.cls-3{clip-path:url(#clippath-16);}.cls-4{fill:#470e0a;}.cls-4,.cls-5,.cls-6,.cls-7,.cls-8,.cls-9,.cls-10,.cls-11,.cls-12,.cls-13,.cls-14,.cls-15,.cls-16,.cls-17,.cls-18,.cls-19,.cls-20,.cls-21,.cls-22,.cls-23,.cls-24,.cls-25,.cls-26,.cls-27,.cls-28,.cls-29,.cls-30,.cls-31,.cls-32,.cls-33,.cls-34,.cls-35,.cls-36,.cls-37,.cls-38,.cls-39,.cls-40,.cls-41,.cls-42,.cls-43,.cls-44,.cls-45,.cls-46,.cls-47,.cls-48,.cls-49,.cls-50,.cls-51,.cls-52,.cls-53,.cls-54,.cls-55,.cls-56,.cls-57{stroke-width:0px;}.cls-5{fill:#14778b;}.cls-58{clip-path:url(#clippath-33);}.cls-6{fill:#d0d2d3;}.cls-7{fill:#323437;}.cls-8{fill:#d5dde7;}.cls-59{opacity:.5;}.cls-60{opacity:.2;}.cls-61{clip-path:url(#clippath-32);}.cls-9{fill:#c9d1da;}.cls-10{fill:#7d7f84;}.cls-11{fill:#7693c1;}.cls-12{fill:#1a3f4a;}.cls-13{fill:#654032;}.cls-14{fill:#f4cdb3;}.cls-15{fill:#eaf0f4;}.cls-62{clip-path:url(#clippath-2);}.cls-16{fill:#f7f8fa;}.cls-63{clip-path:url(#clippath-13);}.cls-17{fill:#9db8e0;}.cls-64{clip-path:url(#clippath-37);}.cls-65{clip-path:url(#clippath-25);}.cls-18{fill:#ea5f5f;}.cls-66{clip-path:url(#clippath-15);}.cls-19{fill:#2a0d05;}.cls-20{fill:#1a1b37;}.cls-67{clip-path:url(#clippath-6);}.cls-68{clip-path:url(#clippath-26);}.cls-21{fill:#e6e6e5;}.cls-22{fill:#f4f2f0;}.cls-23{fill:#e7ae8e;}.cls-24{fill:none;}.cls-25{fill:#1f4c5b;}.cls-69{clip-path:url(#clippath-7);}.cls-70{clip-path:url(#clippath-21);}.cls-26{fill:#452318;}.cls-27{fill:#040000;}.cls-28{fill:#acbccb;}.cls-71{clip-path:url(#clippath-34);}.cls-72{clip-path:url(#clippath-1);}.cls-73{clip-path:url(#clippath-4);}.cls-74{clip-path:url(#clippath-38);}.cls-29{fill:#f8f9fc;}.cls-75{clip-path:url(#clippath-36);}.cls-76{clip-path:url(#clippath-27);}.cls-30{fill:#2a536a;}.cls-31{fill:url(#_未命名漸層_22);}.cls-32{fill:#212325;}.cls-33{fill:#fcfbfc;}.cls-34{fill:#eaeef2;}.cls-77{clip-path:url(#clippath-12);}.cls-35{fill:#fff;}.cls-36{fill:#919397;}.cls-78{clip-path:url(#clippath-24);}.cls-37{fill:#5d1c13;}.cls-79{clip-path:url(#clippath-30);}.cls-80{clip-path:url(#clippath-22);}.cls-38{fill:#f9d2bd;}.cls-39{fill:#3fb8ad;}.cls-40{fill:#343e42;}.cls-81{clip-path:url(#clippath-9);}.cls-82{clip-path:url(#clippath);}.cls-41{fill:#293236;}.cls-42{fill:#bc3c3b;}.cls-83{opacity:.3;}.cls-43{fill:#f4f4f4;}.cls-84{clip-path:url(#clippath-19);}.cls-85{clip-path:url(#clippath-31);}.cls-44{fill:#f7c39c;}.cls-86{clip-path:url(#clippath-3);}.cls-45{fill:#f6d1ba;}.cls-46{fill:#3a5da0;}.cls-47{fill:#dbdbdb;}.cls-87{clip-path:url(#clippath-8);}.cls-88{opacity:.6;}.cls-48{fill:#e84643;}.cls-49{fill:#b8b7b8;}.cls-50{fill:#1088a0;}.cls-89{clip-path:url(#clippath-29);}.cls-90{clip-path:url(#clippath-18);}.cls-91{clip-path:url(#clippath-14);}.cls-92{clip-path:url(#clippath-17);}.cls-51{fill:#efbea3;}.cls-93{clip-path:url(#clippath-5);}.cls-52{fill:#5c3629;}.cls-53{fill:#2e3032;}.cls-94{clip-path:url(#clippath-10);}.cls-95{clip-path:url(#clippath-23);}.cls-54{fill:#28292c;}.cls-96{opacity:.4;}.cls-55{fill:#e5ab4a;}.cls-97{clip-path:url(#clippath-28);}.cls-56{fill:#c4c8cb;}.cls-57{fill:#b7b6b6;}.cls-98{clip-path:url(#clippath-35);}</style><linearGradient id="_未命名漸層_22" x1="-6.8" y1="830.9" x2="-6.8" y2="830.42" gradientTransform="translate(4526.02 783288.77) scale(642.5 -942.7)" gradientUnits="userSpaceOnUse"><stop offset="0" stop-color="#0564c3"/><stop offset="1" stop-color="#87e1e1"/></linearGradient><clipPath id="clippath"><rect class="cls-24" x="67.67" y="148.47" width="260.37" height="156.8"/></clipPath><clipPath id="clippath-1"><rect class="cls-24" x="67.67" y="148.47" width="260.37" height="156.8"/></clipPath><clipPath id="clippath-2"><rect class="cls-24" x="67.67" y="154.2" width="260.37" height="151.07"/></clipPath><clipPath id="clippath-3"><rect class="cls-24" x="43.14" y="10.26" width="158.17" height="200.19"/></clipPath><clipPath id="clippath-4"><rect class="cls-24" x="43.14" y="10.26" width="158.16" height="200.19"/></clipPath><clipPath id="clippath-5"><rect class="cls-24" x="45.46" y="14.29" width="153.52" height="177.01"/></clipPath><clipPath id="clippath-6"><rect class="cls-24" x="45.46" y="14.29" width="153.52" height="177.01"/></clipPath><clipPath id="clippath-7"><rect class="cls-24" x="165.52" y="125.54" width="93.04" height="129.26"/></clipPath><clipPath id="clippath-8"><path class="cls-24" d="m206.18,242.06c-.52.26-1.13.26-1.65,0-.19-.08-.32-.26-.34-.47l-.12,1.76c.02.23.17.43.38.53.57.29,1.25.29,1.83,0,.21-.1.36-.3.38-.53l-.14-1.76c-.02.21-.15.39-.34.48"/></clipPath><clipPath id="clippath-9"><rect class="cls-24" x="165.52" y="125.54" width="93.04" height="129.26"/></clipPath><clipPath id="clippath-10"><path class="cls-24" d="m167.63,241.11c-.52.26-1.13.26-1.65,0-.19-.09-.32-.27-.34-.48l-.12,1.76c.02.23.17.43.38.53.57.29,1.25.29,1.83,0,.22-.09.36-.3.38-.54l-.14-1.76c-.02.21-.15.39-.34.48"/></clipPath><clipPath id="clippath-11"><rect class="cls-24" x="165.52" y="125.54" width="93.04" height="129.26"/></clipPath><clipPath id="clippath-12"><path class="cls-24" d="m187.75,252.77c-.52.26-1.13.26-1.65,0-.19-.09-.32-.27-.34-.47l-.12,1.76c.02.23.16.43.37.53.27.14.56.22.86.22h.1c.3,0,.6-.07.86-.22.21-.1.36-.3.38-.54l-.14-1.76c-.02.21-.15.39-.35.48"/></clipPath><clipPath id="clippath-13"><rect class="cls-24" x="165.52" y="125.54" width="93.04" height="129.26"/></clipPath><clipPath id="clippath-14"><path class="cls-24" d="m241.88,211.39l-.88.52c.26-.12.56-.09.78.08l.87-.52c-.15-.09-.32-.14-.49-.15-.1,0-.2.02-.29.07"/></clipPath><clipPath id="clippath-15"><rect class="cls-24" x="165.52" y="125.54" width="93.04" height="129.26"/></clipPath><clipPath id="clippath-16"><path class="cls-24" d="m241.79,211.98c.65.41,1.06,1.12,1.1,1.88.02.27-.1.54-.32.7l.87-.52c.22-.16.35-.42.32-.7-.04-.77-.45-1.47-1.1-1.89l-.87.52Z"/></clipPath><clipPath id="clippath-17"><rect class="cls-24" x="165.52" y="125.54" width="93.04" height="129.26"/></clipPath><clipPath id="clippath-18"><path class="cls-24" d="m256.68,211.39l-.88.52c.26-.12.56-.09.78.08l.88-.52c-.15-.09-.32-.14-.49-.15-.1,0-.2.02-.29.07"/></clipPath><clipPath id="clippath-19"><rect class="cls-24" x="165.52" y="125.54" width="93.04" height="129.26"/></clipPath><clipPath id="clippath-20"><path class="cls-24" d="m256.59,211.98c.65.42,1.06,1.12,1.1,1.88.02.28-.1.54-.32.7l.88-.52c.22-.16.34-.42.32-.7-.04-.77-.45-1.47-1.1-1.89l-.87.52Z"/></clipPath><clipPath id="clippath-21"><rect class="cls-24" x="165.52" y="125.54" width="93.04" height="129.26"/></clipPath><clipPath id="clippath-22"><path class="cls-24" d="m241.88,220.11l-.88.51c.26-.12.56-.09.78.08l.87-.52c-.15-.09-.32-.15-.49-.15-.1,0-.2.02-.29.08"/></clipPath><clipPath id="clippath-23"><rect class="cls-24" x="165.52" y="125.54" width="93.04" height="129.26"/></clipPath><clipPath id="clippath-24"><path class="cls-24" d="m241.79,220.7c.65.41,1.06,1.12,1.1,1.88.02.27-.1.54-.32.7l.87-.52c.22-.16.35-.42.32-.69-.04-.77-.45-1.47-1.1-1.89l-.87.52Z"/></clipPath><clipPath id="clippath-25"><rect class="cls-24" x="165.52" y="125.54" width="93.04" height="129.26"/></clipPath><clipPath id="clippath-26"><path class="cls-24" d="m256.68,220.11l-.88.51c.26-.12.56-.09.78.08l.88-.52c-.15-.09-.32-.15-.49-.15-.1,0-.2.02-.29.08"/></clipPath><clipPath id="clippath-27"><rect class="cls-24" x="165.52" y="125.54" width="93.04" height="129.26"/></clipPath><clipPath id="clippath-28"><path class="cls-24" d="m256.59,220.7c.65.42,1.06,1.12,1.1,1.88.02.27-.1.54-.32.7l.88-.52c.22-.16.34-.42.32-.69-.04-.77-.45-1.47-1.1-1.89l-.87.52Z"/></clipPath><clipPath id="clippath-29"><rect class="cls-24" x="165.52" y="125.54" width="93.04" height="129.26"/></clipPath><clipPath id="clippath-30"><rect class="cls-24" x="208.64" y="142.68" width="9.63" height="35.51"/></clipPath><clipPath id="clippath-31"><rect class="cls-24" x="266.92" y="152.19" width="41.19" height="92.83"/></clipPath><clipPath id="clippath-32"><rect class="cls-24" x="266.92" y="152.19" width="41.2" height="92.83"/></clipPath><clipPath id="clippath-33"><rect class="cls-24" x="290.9" y="201.97" width="12.4" height="35.57"/></clipPath><clipPath id="clippath-34"><rect class="cls-24" x="285.68" y="206.83" width="11.84" height="32.85"/></clipPath><clipPath id="clippath-35"><rect class="cls-24" x="286.79" y="155.31" width="3.35" height="12.93"/></clipPath><clipPath id="clippath-36"><rect class="cls-24" x="307.79" y="181.43" width=".33" height=".05"/></clipPath><clipPath id="clippath-37"><rect class="cls-24" x="296.07" y="155.95" width="7.07" height="26.56"/></clipPath><clipPath id="clippath-38"><rect class="cls-24" x="299.93" y="155.46" width="7.86" height="26.61"/></clipPath></defs><path id="_联合_6" class="cls-31" d="m.53,141.32C.53,63.27,69.38,0,154.31,0s153.78,63.27,153.78,141.32-68.85,141.32-153.78,141.32c-1.78,0-3.56-.03-5.33-.08-.77.01-1.54.02-2.33.03-112.37.94-93.64,74.36-93.64,74.36,0,0,4.53,21.71,6.41,27.68s4.37,18.26,0,37.29c-4.37,19.03-59.42,29.36-59.42,29.36,0,0,.53-283.62.53-309.95Z"/><g id="_组_2972"><g id="_组_2801"><g class="cls-82"><g id="_组_2800"><g id="_组_2799"><g class="cls-72"><g id="_组_2798"><g id="_组_2797" class="cls-83"><g id="_组_2796"><g class="cls-62"><g id="_组_2795"><g id="_路径_6427"><path class="cls-27" d="m209.75,303.84l-139.42-80.5c-1.72-.99-2.66-2.35-2.66-3.82s.94-2.83,2.66-3.82l103.69-60.07c3.75-1.91,8.19-1.91,11.94,0l139.43,80.5c1.72.99,2.66,2.35,2.66,3.82s-.95,2.83-2.66,3.82l-103.69,60.07c-3.75,1.91-8.19,1.91-11.94,0"/></g></g></g></g></g><g id="_路径_6428"><path class="cls-6" d="m327.4,239.96h0v-6.43l-18.15.46-123.61-71.36c-3.12-1.8-8.18-1.8-11.3,0l-87.17,50.53h-18.85s0,6.55,0,6.55h.03c.07,1.12.82,2.22,2.31,3.08l139.42,80.5c3.12,1.8,8.18,1.8,11.3,0l103.69-60.06c1.51-.86,2.27-2,2.32-3.14h.02v-.12Z"/></g><g id="_路径_6429"><path class="cls-35" d="m325.06,236.85l-103.69,60.06c-3.12,1.8-8.18,1.8-11.3,0l-139.42-80.5c-3.12-1.8-3.12-4.73,0-6.53l103.69-60.06c3.12-1.8,8.18-1.8,11.3,0l139.42,80.49c3.12,1.81,3.12,4.73,0,6.53"/></g><g id="_路径_6430"><path class="cls-27" d="m137.65,181.39c-1.81.92-3.95.92-5.77,0-1.59-.93-1.59-2.42,0-3.34,1.81-.92,3.95-.92,5.77,0,1.59.92,1.59,2.41,0,3.34"/></g><g id="_路径_6431"><path class="cls-49" d="m306.89,223.05l-1.3.76-116.46-67.22-105.76,61.27-1.29-.75,107.05-62.01,117.77,67.95Z"/></g><g id="_路径_6432"><path class="cls-39" d="m305.59,223.81l-105.75,61.27-116.47-67.22,105.76-61.27,116.46,67.22Z"/></g><g id="_路径_6433"><path class="cls-36" d="m273.35,258.54l-9.76,5.64c-1.23.63-2.69.63-3.92,0l-3.39-1.96c-1.09-.63-1.09-1.64,0-2.27l9.76-5.64c1.23-.63,2.7-.63,3.93,0l3.39,1.96c1.08.63,1.08,1.64,0,2.26"/></g></g></g></g></g></g></g><g id="_组_2802"><g id="_组_2892"><g class="cls-86"><g id="_组_2891"><g id="_组_2890"><g class="cls-73"><g id="_组_2889"><g id="_组_2888" class="cls-88"><g id="_组_2887"><g class="cls-93"><g id="_组_2886"><g id="_组_2885" class="cls-96"><g id="_组_2884"><g class="cls-67"><g id="_组_2883"><g id="_路径_6687"><path class="cls-35" d="m198.98,14.29v87.95L45.46,191.3v-87.95L198.98,14.29Z"/></g></g></g></g></g></g></g></g></g><g id="_路径_6688"><path class="cls-35" d="m52.39,118.24l5.22-3.01c.09.07.18.14.27.21.32.27.6.58.83.92l-7.39,4.27c.31-.82.67-1.61,1.07-2.39"/></g><g id="_路径_6689"><path class="cls-35" d="m52.69,137.08c.17-.3.34-.59.51-.89l3.57-2.06c.26.14.52.3.77.47l-5.1,2.94c.08-.15.16-.31.25-.46"/></g><g id="_路径_6690"><path class="cls-35" d="m51.32,140.04c.11-.29.23-.59.36-.88l6.67-3.85c.13.15.25.3.37.46.21.31.38.64.52.98l-8.43,4.86c.14-.52.32-1.04.51-1.57"/></g><g id="_路径_6691"><path class="cls-35" d="m50.26,126.04c0-.14,0-.28,0-.41l9.5-5.48c0,.47-.02.95-.07,1.41-.02.19-.05.37-.08.55l-9.23,5.33c-.08-.46-.12-.93-.13-1.4"/></g><g id="_路径_6692"><path class="cls-35" d="m58.27,126.55c-.31.7-.65,1.41-1.04,2.13l-4.47,2.58c-.39-.25-.75-.56-1.06-.91l6.57-3.8Z"/></g><g id="_路径_6693"><path class="cls-35" d="m51.7,110.79c-.21-.24-.4-.51-.57-.79l7.71-4.45c-.17.47-.36.95-.57,1.45l-.03.07-6.51,3.76-.03-.03"/></g><g id="_路径_6694"><path class="cls-35" d="m57.16,109.25c-.25.44-.51.89-.78,1.34-.44.71-.9,1.43-1.36,2.12-.73-.24-1.43-.55-2.1-.92l-.08-.05,4.33-2.5Z"/></g><g id="_路径_6695"><path class="cls-35" d="m51.43,138.18c-1.48,2.94-2.21,5.99-2.05,8.55l.9-.58c-.14-2.32.52-5.06,1.85-7.72.87-1.66,1.83-3.27,2.88-4.82.91.29,1.77.71,2.55,1.26,1.54,1.18,2.32,3.25,2.19,5.83l.9-.45c.15-2.86-.71-5.15-2.41-6.45-.77-.54-1.62-.97-2.52-1.27.42-.64.84-1.3,1.25-1.95,2.08-3.37,3.3-6.53,3.6-9.39.33-3.04-.38-5.45-2.01-6.8-.86-.66-1.83-1.17-2.86-1.52.75-1.14,1.5-2.32,2.19-3.53,1.77-3.16,2.75-6.42,2.75-9.17l-.9.52c0,2.48-.89,5.43-2.51,8.3-.69,1.23-1.47,2.44-2.24,3.62-.57-.21-1.12-.44-1.66-.71-2.04-1.04-3.08-2.97-3.08-5.73l-.9.52c0,3.06,1.13,5.19,3.36,6.33.51.26,1.04.47,1.57.67-.77,1.18-1.55,2.4-2.26,3.67-1.79,3.22-2.72,6.42-2.68,9.23.04,2.74,1.04,4.77,2.91,5.88.65.36,1.33.67,2.03.9-1.05,1.55-2.01,3.16-2.87,4.83m4.94-8.03c-.44.71-.9,1.42-1.36,2.12-.73-.24-1.43-.55-2.1-.92-1.71-1.01-2.62-2.84-2.65-5.31-.03-2.54.81-5.44,2.44-8.37.71-1.27,1.51-2.52,2.31-3.73,1.03.34,2,.84,2.87,1.5,1.47,1.22,2.11,3.39,1.82,6.12-.28,2.6-1.4,5.48-3.32,8.59"/></g><g id="_路径_6696"><path class="cls-35" d="m57.43,170.37l1.87-19.14,1.96,11.34,2.72-11.01,2.33,6.05,1.9-5.55,2.5,5.2,2.98-12.77,2.45,14.5,2.18-11.02,10.07-5.81,1.5-5.96,2.52,12.65,3.49-15.69,2.83,8.7,3.62-15.72,4.35,15.7,3.54-14.02,1.25,3.96,3.21-9.63,3.33,8.04,2.58-6.62,3.35-1.94c.15-.09.2-.29.1-.44-.09-.14-.27-.19-.42-.11l-3.55,2.05-2.09,5.36-3.37-8.16-3.13,9.39-1.33-4.23-3.5,13.86-4.37-15.8-3.67,15.93-2.84-8.73-3.34,15.02-2.48-12.45-2.12,8.43-10.09,5.82-1.56,7.91-2.4-14.2-3.29,14.09-2.39-4.98-1.84,5.36-2.43-6.3-2.47,10.02-2.24-12.98-1.96,20.02-2.8-11.84-1.56,7.28-2.26,1.3c-.15.09-.2.28-.12.43,0,0,0,0,0,0,.09.15.28.2.43.11,0,0,0,0,0,0l2.51-1.45,1.03-4.8,3.04,12.8Z"/></g><g id="_路径_6697"><path class="cls-35" d="m51.79,182.6l1.33-3.97,1.59,3.72,2.02-6.08,2.31,1.98,1.99-4.45,2.25,2.82.25-.32c.2-.26,1.76-3.71,2.4-5.11l2.39.68,1.82-3.5,2.72,3.5,2.17-6.75,1.65,6.13,1.88-6.35,1.73,2.86,1.17-5.28.84,4.66,2.73-7.56,2.28,3.41,2.12-5.16,2.22,2.28,3.18-5.69,1.88,1.87,2.49-4.19,2.03.75,1.8-2.73,2.8,1.86,2.69-5.56,2.29,2.75,1.94-4.99,1.91,1.49,1.38-3.55,1.61,1.35,1.58-2.93,1.24,2.54,1.92-4.54,1.24.78c.15.09.34.05.44-.1.09-.15.05-.34-.1-.44h0l-1.87-1.17-1.67,3.94-1.16-2.4-1.8,3.33-1.69-1.42-1.39,3.58-1.9-1.49-1.86,4.78-2.23-2.68-2.8,5.8-2.72-1.81-1.87,2.84-2.06-.75-2.35,3.94-1.89-1.89-3.17,5.68-2.3-2.37-2.04,4.95-2.32-3.46-2.35,6.52-.99-5.43-1.51,6.8-1.66-2.74-1.65,5.57-1.62-6.04-2.46,7.65-2.59-3.34-2.04,3.92-2.42-.69-.11.25c-.7,1.55-1.77,3.92-2.23,4.85l-2.35-2.95-2.07,4.63-2.38-2.04-1.79,5.39-1.59-3.71-1.56,4.66-.58-.49c-.12-.13-.32-.13-.45-.01s-.13.32-.01.45c.01.02.03.03.05.04l1.29,1.11Z"/></g><g id="_路径_6698"><path class="cls-35" d="m67.63,104.87s.09-.01.13-.03l18.17-10.49,6.05-6.34c.12.07.1-.39.17-.51.07-.12.03-.27-.09-.35,0,0,0,0,0,0l-6.13,6.61-.13.08-18.29,10.56c-.12.07-.16.22-.09.34.05.08.13.13.22.13"/></g><g id="_路径_6699"><path class="cls-35" d="m83.85,92.85l-17.3,9.99v-5.54l17.3-9.99v5.54Z"/></g><g id="_路径_6700"><path class="cls-35" d="m67.63,124.3s.09-.01.13-.03l18.17-10.49,7.43,4.29c.12.07.27.04.35-.08s.04-.27-.08-.35c0,0-.01,0-.02,0l-7.68-4.44-.13.08-18.29,10.56c-.12.07-.16.22-.1.34.05.08.13.13.22.13"/></g><g id="_路径_6701"><path class="cls-35" d="m83.85,112.37l-17.3,9.99v-5.54l17.3-9.99v5.54Z"/></g><g id="_路径_6702"><path class="cls-47" d="m138.2,97.24c-.1-.4-.59-.45-1.57.24-.86.75-1.46,1.76-1.71,2.88-.71.08-1.94,1.17-2.51,2.07-.36.58-.63,1.22-.78,1.89-.1.4-.11.82-.04,1.23-1,.3-2.03,1.77-2.46,3.16-.25.71-.3,1.47-.15,2.21.06.22.17.43.32.61-1.25,1.08-1.99,2.64-2.02,4.29.02,2.01,1.18,2.14,1.34,2.23-1.71,2.28-.92,4.97.65,4.12-.01.05-.03.1-.05.14-1.21,2.71.92,3.91,2.56,2.18.08.43.32.82.67,1.09.64.43,1.87.04,2.57-1.09.13.09.27.15.43.2.74.2,1.89-.2,2.55-1.52.14-.34.23-.71.26-1.08v-23.33c.02-.51,0-1.02-.06-1.53"/></g><g id="_路径_6703"><path class="cls-16" d="m135.33,124.95c-.11-.03-.22-.07-.32-.13-.26.36-.59.66-.97.89-.51.36-1.17.41-1.73.12-.32-.24-.55-.57-.66-.95-.16.15-.34.28-.53.39-.88.5-1.75.37-2.19-.34-.36-.58-.34-1.44.03-2.39-.65.2-1.19-.14-1.41-.93-.23-1.18.04-2.4.74-3.37-.39-.15-1.2-.59-1.22-2.29,0-1.04.29-2.05.82-2.94.3-.53.67-1.01,1.1-1.44-.09-.15-.16-.3-.2-.47-.16-.79-.1-1.6.16-2.36.44-1.45,1.45-2.85,2.4-3.31-.02-.35,0-.7.08-1.05.17-.72.45-1.41.84-2.04.52-.79,1.21-1.46,2.01-1.97.15-.09.31-.16.48-.22.32-1.12.95-2.13,1.83-2.89.14-.1.29-.19.42-.26,1.06-.61,1.31-.15,1.37.08.06.52.08,1.05.07,1.58v23.37c-.04.42-.14.82-.3,1.21-.28.6-.74,1.1-1.3,1.45-.45.28-1,.38-1.52.26m2.73-26.07c.02-.49,0-.98-.05-1.47-.09-.35-.6-.25-1.36.28-.76.68-1.3,1.58-1.53,2.58-.01.08-.04.16-.1.22-.04.06-.1.1-.17.11-.19.04-.38.11-.55.22-.7.44-1.29,1.02-1.75,1.7-.34.54-.58,1.13-.72,1.76-.09.36-.1.74-.04,1.11.01.09,0,.17-.06.25-.04.08-.1.14-.18.17-.12.04-.23.08-.34.15-.76.43-1.53,1.56-1.89,2.74-.23.66-.28,1.37-.14,2.06.06.2.16.39.29.56.04.07.05.16,0,.23-.03.09-.09.17-.17.22-.46.39-.84.86-1.13,1.39-.46.77-.7,1.65-.7,2.55.02,1.66.85,1.96,1.17,2.06.04.01.08.03.12.05.05.04.07.09.06.15,0,.08-.04.16-.09.22-.71.86-1,1.98-.79,3.08.21.74.74,1.01,1.34.68.05-.04.12-.03.16.01.04.06.04.14.01.2v.03c-.02.06-.04.11-.06.17-.52,1.18-.29,1.85-.11,2.15.37.59,1.12.71,1.84.3.22-.13.42-.29.59-.47.04-.05.1-.08.17-.09.05,0,.09.04.1.09.08.4.3.76.63,1.01.46.23,1.01.2,1.43-.1.35-.21.64-.5.85-.84.08-.13.2-.2.28-.15.12.08.26.14.4.18.44.1.9.02,1.29-.22.43-.26.78-.64.99-1.1.12-.3.19-.61.21-.93v-23.32Z"/></g><g id="_路径_6704"><path class="cls-16" d="m133.69,107.03c.1-.07.17-.18.2-.3.02-.14-.05-.22-.16-.18-1.95.67-1.99-1.44-1.99-1.53,0-.13-.09-.18-.2-.11h0c-.12.08-.19.2-.2.34,0,.03.03,2.58,2.3,1.8l.04-.02"/></g><g id="_路径_6705"><path class="cls-16" d="m131.86,124.99s.04-.03.06-.05c.1-.09.15-.23.13-.36h0c-.36-1.16-.29-2.41.19-3.52.5-.99,1.29-1.8,2.28-2.3h0c.12-.08.19-.2.2-.34,0-.13-.08-.18-.2-.12-1.13.6-2.04,1.53-2.61,2.68-.56,1.25-.65,2.66-.24,3.96.03.08.11.1.19.05"/></g><g id="_路径_6706"><path class="cls-16" d="m133.53,115.87s.08-.06.11-.1c.09-.1.11-.23.06-.35-.28-.32-.29-1.45.17-2.71.32-.98.97-1.82,1.83-2.39,1.97-1.14,2.35,1.36,2.36,1.47s.12.14.23.06c.11-.08.17-.22.17-.36,0-.03-.45-2.97-2.76-1.63-1.03.67-1.8,1.67-2.18,2.83-.48,1.31-.55,2.7-.15,3.17.04.05.1.05.16,0"/></g><g id="_路径_6707"><path class="cls-16" d="m133.74,112.62c.05-.03.1-.08.13-.14.08-.13.09-.28.02-.33-.89-.62-2.06-.64-2.97-.05-1.68.92-2.89,3-2.94,3.09-.08.14-.08.28,0,.32s.2-.03.28-.16c0-.02,1.14-1.96,2.65-2.79.82-.53,1.89-.5,2.68.07.05.02.1.02.14-.01"/></g><g id="_路径_6708"><path class="cls-16" d="m135.02,124.73c.12-.07.19-.2.2-.33,0-.07-.01-.13-.03-.19-.17-.58-.08-1.2.26-1.71.08-.13.09-.28.03-.33s-.2,0-.28.13c-.45.65-.59,1.47-.39,2.24l.02.09c0,.12.09.17.19.11h0"/></g><g id="_路径_6709"><path class="cls-16" d="m134.76,108.52h0c1.21-.84,2.11-2.04,2.58-3.43.34-1.09.15-1.96-.52-2.45-.48-.33-.72-.92-.61-1.5.18-.78.53-1.52,1.04-2.14.09-.09.12-.23.08-.36-.05-.08-.17-.05-.27.07-.61.75-1.04,1.63-1.24,2.58-.15.69.13,1.41.7,1.83.57.42.73,1.11.45,2-.41,1.2-1.19,2.23-2.23,2.95-.12.08-.19.21-.19.35,0,.12.09.17.2.11"/></g><g id="_路径_6710"><path class="cls-16" d="m138.02,119.76c.1-.06.2-.13.29-.21.11-.09.16-.23.14-.36-.03-.1-.14-.11-.24-.02-.17.16-.4.24-.64.24-.26-.05-.43-.33-.5-.85-.02-.12-.12-.14-.23-.06-.11.09-.17.22-.16.36.09.65.32,1.01.68,1.07.23.02.46-.04.66-.16"/></g><g id="_路径_6711"><path class="cls-16" d="m130.93,120.05c.1-.07.17-.17.19-.29.03-.14-.05-.22-.15-.19-.29.09-.47.05-.54-.11-.06-.39,0-.79.16-1.15.06-.14.03-.26-.07-.28-.36-.05-.55-.2-.56-.48.04-.38.17-.74.39-1.05.04-.06.07-.14.08-.21,0-.05-.01-.11-.06-.14-.3-.2-.39-.59-.22-.9.06-.2.19-.37.36-.49.13-.06.22-.17.24-.31.03-.14-.03-.22-.14-.2-.38.2-.67.54-.8.95-.23.43-.17.95.15,1.32-.24.38-.38.82-.4,1.27,0,.35.25.65.6.71-.17.42-.21.89-.1,1.33.13.27.4.35.82.22l.05-.02"/></g><g id="_路径_6712"><path class="cls-16" d="m133.19,116.97c.1-.06.17-.17.19-.28v-.05c.04-.33.15-.65.33-.93.13-.18.31-.31.52-.37.13-.05.22-.17.24-.3.03-.14-.04-.23-.14-.2-.34.11-.63.32-.84.61-.27.4-.44.86-.49,1.35-.02.13.05.21.14.18l.05-.02"/></g><g id="_路径_6713"><path class="cls-16" d="m130.42,110.39c.11-.08.19-.2.2-.33,0-.03,0-.06,0-.08-.11-.38-.08-.79.07-1.15.14-.27.36-.49.62-.64.11-.08.19-.21.19-.34,0-.13-.09-.17-.2-.11h0c-.4.23-.73.58-.93,1-.23.49-.28,1.05-.14,1.58,0,.06.05.11.12.11.03,0,.05,0,.07-.03h0"/></g><g id="_路径_6714"><path class="cls-16" d="m136.73,116.62c.06-.04.11-.09.14-.15.29-.41.44-.9.44-1.4-.03-.29-.29-.51-.58-.48,0,0,0,0,0,0-.1,0-.2.06-.24.16-.08.13-.09.28-.02.33.02.01.05.02.08.02.29,0,.37.14.38.26-.02.34-.14.66-.33.94-.08.13-.08.28,0,.32.05.02.1.02.14-.01"/></g><g id="_路径_6715"><path class="cls-16" d="m133.76,104.66c.37-.2.67-.5.87-.87.19-.35.24-.75.14-1.14,0-.06-.05-.11-.11-.11-.02,0-.04,0-.06.02-.12.07-.21.19-.22.32,0,.03,0,.07,0,.1.06.23.04.47-.06.69-.17.27-.41.48-.7.61-.12.07-.2.2-.21.33,0,.13.08.2.19.14.06-.03.11-.06.16-.09"/></g><g id="_路径_6716"><path class="cls-47" d="m139.51,96.48c.1-.52.58-1.13,1.57-1.58.63-.27,1.36.02,1.63.65.04.08.06.17.08.26.72-.74,1.94-1.06,2.51-.82.39.2.68.56.78.99.1.39.11.79.04,1.19,1.01-.86,2.03-.59,2.46.32.27.64.32,1.35.16,2.03-.07.34-.18.67-.32.98.32-.18,2.05-.44,2.03,1.95-.07,1.37-.54,2.68-1.34,3.79,1.71.31.93,3.9-.65,4.87.02.03.02.08.05.1,1.21,1.31-.92,4.97-2.56,5.13-.13.65-.36,1.28-.67,1.86-.64,1.17-1.87,2.21-2.57,1.87-.13.24-.27.47-.43.69-.74,1.06-1.89,1.98-2.55,1.43-.15-.23-.24-.5-.26-.78v-23.33c-.01-.53,0-1.07.06-1.59"/></g><g id="_路径_6717"><path class="cls-16" d="m139.56,122.43c-.18-.25-.29-.55-.3-.86v-.03s0-23.33,0-23.33c-.01-.55,0-1.11.07-1.66.19-.73.69-1.33,1.37-1.66.13-.08.27-.15.41-.21.69-.31,1.5,0,1.8.7.01.02.02.05.03.08.15-.13.31-.24.48-.34.71-.41,1.54-.56,2.01-.36.42.22.73.61.84,1.07.08.31.11.63.09.95.95-.64,1.96-.41,2.4.54.28.69.34,1.45.16,2.17-.05.24-.12.47-.2.7.37-.08.76-.02,1.1.17.54.32.83,1.02.82,2-.05,1.32-.47,2.6-1.22,3.7.87.32.95,1.53.74,2.52-.19.98-.68,1.87-1.4,2.55.37.53.38,1.37.03,2.36-.4,1.17-1.17,2.17-2.19,2.86-.16.1-.34.17-.53.22-.15.6-.37,1.18-.67,1.72-.4.76-1,1.41-1.73,1.87-.28.2-.63.28-.97.23-.11.19-.22.36-.32.5-.4.6-.92,1.1-1.52,1.49-.53.31-.98.32-1.3.06m3.26-2.6c.29.09.61.04.85-.14.6-.39,1.1-.92,1.43-1.55.3-.54.51-1.12.63-1.73.01-.08.05-.15.1-.21.04-.06.1-.09.17-.1.21-.03.41-.1.59-.21.85-.59,1.5-1.44,1.84-2.42.19-.51.42-1.46-.11-2.03-.02-.03-.04-.07-.05-.1v-.02c-.03-.07-.03-.15,0-.22.03-.08.09-.15.16-.2.71-.55,1.19-1.34,1.34-2.23.19-.9.1-2.01-.79-2.17-.05,0-.08-.05-.09-.12,0-.08.02-.15.06-.22.02-.04.06-.1.11-.18.72-1,1.12-2.19,1.17-3.41,0-.87-.23-1.46-.7-1.74-.34-.19-.75-.23-1.12-.09-.08.04-.14.03-.18-.02-.03-.08-.03-.16,0-.24.13-.29.22-.59.29-.9.15-.63.1-1.29-.14-1.89-.26-.65-1-.96-1.65-.69-.09.04-.17.08-.25.13-.12.07-.23.15-.33.24-.07.06-.14.08-.19.05-.05-.04-.08-.12-.05-.18.07-.35.05-.72-.04-1.07-.09-.4-.36-.74-.72-.92-.84-.13-1.7.14-2.3.75-.04.05-.11.08-.17.08-.05,0-.1-.05-.1-.11-.14-.61-.74-1-1.36-.87-.06.01-.12.03-.18.05-.75.34-1.26.83-1.36,1.28-.05.51-.07,1.02-.05,1.53v23.31c.08.52.18.65.21.68.25.21.58.19,1-.05.51-.33.95-.76,1.29-1.27.12-.18.27-.41.4-.64.04-.06.09-.11.14-.15.04-.03.09-.03.13-.02"/></g><g id="_路径_6718"><path class="cls-16" d="m144.01,101.07l.04-.03c1.36-1.1,2.19-2.71,2.31-4.46,0-.13-.09-.18-.2-.12-.12.07-.19.2-.2.34-.09,1.5-.81,2.89-1.99,3.83-.11.08-.17.22-.15.36.02.1.1.13.19.07"/></g><g id="_路径_6719"><path class="cls-16" d="m146.03,116.65l-.19.04.19-.05c.11-.47.62-2.82-.25-3.68-.51-.5-1.39-.39-2.6.33-.12.08-.19.2-.2.34,0,.13.09.17.2.11,1.09-.64,1.85-.75,2.28-.33.77.76.25,3.04.19,3.3l.19-.03.19-.04Z"/></g><g id="_路径_6720"><path class="cls-16" d="m144.18,109.72c.07-.05.13-.12.17-.2.39-.97.34-2.07-.15-2.99-.47-.74-1.25-.85-2.18-.32-2.31,1.33-2.75,4.78-2.75,4.82-.02.13.06.21.16.16.12-.06.21-.18.23-.32.01-.13.39-3.06,2.36-4.2,1.06-.61,1.6-.09,1.83.28.42.77.48,1.69.17,2.51-.06.14-.03.27.06.28.04,0,.08,0,.11-.03"/></g><g id="_路径_6721"><path class="cls-16" d="m143.96,106.72c.06-.04.11-.09.14-.16.83-1.53,1.74-2.6,2.69-3.17.02-.01.05-.03.07-.04.76-.52,1.73-.6,2.58-.23.08.05.2-.03.28-.16s.08-.28,0-.32c-.05-.03-1.26-.71-2.94.31-1.07.64-2.06,1.81-2.97,3.48-.08.13-.07.28.01.32.04.02.09.01.13-.02"/></g><g id="_路径_6722"><path class="cls-16" d="m142.68,120.31h0c.11-.08.18-.2.19-.34,0-.03.01-.06.02-.11.08-.42.28-1.53-.39-1.79-.08-.03-.21.05-.28.19s-.06.28.03.31c.49.19.33,1.02.26,1.41-.02.07-.03.15-.03.23,0,.12.09.17.2.11"/></g><g id="_路径_6723"><path class="cls-16" d="m142.95,103.79c.11-.08.19-.2.2-.34,0-.13-.08-.18-.19-.13-.93.5-1.89.34-2.23-.37-.28-.58-.12-1.45.45-2.52.58-1.09.81-1.98.7-2.64-.09-.63-.61-1.1-1.24-1.15-.1,0-.22.1-.27.25s-.02.26.08.26c.52.04.94.43,1.04.94.09.54-.12,1.28-.61,2.2-.67,1.26-.85,2.34-.51,3.04.4.83,1.51,1.02,2.58.44h0"/></g><g id="_路径_6724"><path class="cls-16" d="m139.69,118.8c.26-.15.48-.36.66-.6.39-.55.62-1.19.68-1.86.02-.13-.06-.2-.16-.16-.12.06-.21.18-.23.32-.04.51-.21,1-.5,1.43-.15.23-.37.4-.63.49-.13.05-.22.17-.25.3-.03.14.03.23.14.2.1-.03.2-.07.29-.13"/></g><g id="_路径_6725"><path class="cls-16" d="m146.78,110.9l.05-.03c.38-.3.66-.7.82-1.16.13-.4.09-.84-.1-1.22.33-.4.53-.88.6-1.4.03-.33-.12-.64-.39-.82.31-.64.37-1.18.15-1.49-.18-.23-.51-.27-.73-.1-.02.02-.05.04-.07.06-.1.09-.16.23-.14.36.03.11.14.12.24.03.12-.08.28-.04.35.07,0,0,0,0,0,0,.09.12.18.44-.22,1.15-.04.06-.06.14-.06.21,0,.05.03.1.08.12.25.09.41.33.39.6-.08.42-.27.81-.56,1.13-.09.09-.12.23-.07.35.19.29.25.64.16.97-.11.29-.3.55-.54.73-.11.09-.16.22-.15.36.02.09.1.12.19.07"/></g><g id="_路径_6726"><path class="cls-16" d="m144.52,110.43s.04-.02.05-.04c.1-.09.15-.21.14-.34-.03-.21-.13-.71-.49-.78-.32-.01-.62.11-.84.35-.1.09-.16.23-.15.36.03.11.14.12.24.03.21-.18.38-.26.51-.23.24.05.31.44.32.56v.03c.03.09.11.11.2.06"/></g><g id="_路径_6727"><path class="cls-16" d="m147.29,100.65h0c.1-.07.17-.18.19-.3.14-.72.08-1.22-.14-1.43-.2-.18-.51-.16-.93.08h0c-.12.08-.19.2-.2.34,0,.13.08.18.2.12.29-.16.5-.19.62-.08.15.14.18.53.08,1.06,0,.03-.01.07-.01.1,0,.11.09.16.2.1"/></g><g id="_路径_6728"><path class="cls-16" d="m140.98,114.16c.06-.04.11-.09.14-.15.08-.14.08-.28,0-.32-.22-.1-.35-.32-.33-.55.06-.27.19-.51.38-.7.03-.03.06-.07.08-.11.07-.14.06-.28-.02-.31-.07-.03-.16.02-.23.11-.31.32-.52.73-.6,1.17-.06.36.12.72.44.88.05.02.1.01.14-.02"/></g><g id="_路径_6729"><path class="cls-16" d="m143.95,98.78c.05-.03.11-.07.16-.1.11-.08.18-.21.18-.35,0-.12-.1-.16-.21-.09-.24.15-.55.32-.7.2-.07-.05-.14-.2-.06-.61.01-.04.01-.08,0-.11-.01-.12-.12-.15-.22-.07-.09.07-.15.17-.17.28-.12.63.01.88.14.98.18.14.47.1.87-.13"/></g><g id="_路径_6730"><path class="cls-16" d="m144.06,115.76l.04-.03c.87-.68,1.44-1.67,1.57-2.77,0-.13-.08-.19-.19-.13-.12.07-.19.2-.21.33-.11.86-.56,1.64-1.25,2.16-.11.09-.16.22-.15.36.02.1.1.13.2.07"/></g><g id="_路径_6731"><path class="cls-35" d="m167.46,94.6l-14.3,8.25v-4.58l14.3-8.25v4.58Z"/></g><g id="_路径_6732"><path class="cls-35" d="m165.55,114.98l-14.3,8.25v-4.58l14.3-8.25v4.58Z"/></g><g id="_路径_6733"><path class="cls-35" d="m149.02,112.57c.07,0,.14-.04.18-.1l4.89-7.73,14.31-8.26c.1-.06.13-.19.08-.29-.06-.1-.19-.13-.29-.08l-14.4,8.31-.03.05-4.92,7.77c-.06.1-.04.23.06.29,0,0,0,0,0,0,.03.02.07.03.11.03"/></g><g id="_路径_6734"><path class="cls-35" d="m152.05,124.94l.09-.05,14.35-8.29c.1-.06.14-.18.08-.28,0,0,0,0,0,0-.06-.1-.19-.14-.29-.08l-14.27,8.24-7.64-3c-.11-.04-.23,0-.27.11,0,0,0,0,0,0-.04.11.01.23.12.27l7.83,3.07Z"/></g><g id="_路径_6735"><path class="cls-35" d="m200.31,11.98v91.03L44.12,193.62v-91.03L200.31,11.98Zm.99-1.72l-1.48.86L43.63,101.73l-.49.28v93.32l1.48-.86,156.19-90.6.49-.29V10.26Z"/></g><g id="_路径_6736"><path class="cls-35" d="m104.59,108.13c.06-.54.16-1.07.3-1.59.14-.55.3-1.09.42-1.64.1-.45.15-.92.14-1.38-.02-.42.02-.85.12-1.26.13-.41.32-.79.57-1.14.21-.35.5-.63.85-.83.28-.14.49.05.72.14.15.03.3.07.44.12.2.07.39.16.56.28h.03s.03.02.03.03c.34.24.65.53.9.87.5.6.89,1.28,1.15,2.02.32.89.51,1.82.58,2.76.1,1.21.14,2.42.12,3.63-.02,1.2.19,2.23.26,3.36.02.35.59.34.46.73-.12.4-.99.98-1.24,1.1-.27.15-.58.21-.88.17-.31-.05-.6-.17-.86-.33-.29-.22-.59-.42-.9-.61-.3-.13-.63-.2-.96-.21-.36-.06-.71-.15-1.06-.25-.17-.04-.34-.06-.52-.05-.16.03-.32,0-.45-.09-.12-.11-.21-.24-.26-.4-.1-.21-.18-.42-.25-.64-.15-.47-.25-.95-.3-1.44-.12-1.11-.12-2.24.02-3.35"/></g><g id="_路径_6737"><path class="cls-35" d="m103.69,108.34c.08-.55.2-1.1.36-1.63.18-.56.38-1.13.53-1.69.12-.46.18-.93.18-1.41-.02-.43.02-.86.14-1.28.17-.44.41-.86.71-1.22.28-.39.64-.71,1.05-.95.3-.1.62-.09.9.05.18,0,.37.03.55.06.24.04.47.1.7.19h.03s.04.03.04.03c.41.18.79.43,1.12.73.6.52,1.09,1.15,1.44,1.87.39.85.63,1.75.72,2.68.13,1.2.18,2.4.15,3.61-.03,1.2.24,2.2.32,3.33.03.39-.02.78-.15,1.14-.15.39-.43.7-.79.9-.35.16-.74.23-1.12.2-.37,0-.73-.08-1.07-.21-.36-.18-.73-.35-1.12-.49-.39-.08-.8-.11-1.19-.07-.44-.01-.88-.05-1.32-.11-.21-.01-.43,0-.64.03-.19.04-.38.03-.57-.03-.14-.09-.25-.22-.32-.37-.12-.19-.23-.39-.32-.6-.18-.45-.31-.92-.38-1.41-.14-1.11-.13-2.24.03-3.35"/></g><g id="_路径_6738"><path class="cls-35" d="m103.72,108.17c.07-.49.19-.98.34-1.45.17-.56.38-1.13.52-1.69.12-.46.18-.93.18-1.41-.02-.43.02-.86.14-1.28.17-.44.41-.85.71-1.22.28-.39.64-.72,1.05-.95.3-.1.62-.09.9.05.18,0,.36.03.54.05.24.04.47.1.7.2h.03s.03.02.04.03c.41.18.79.43,1.13.73.6.52,1.09,1.16,1.44,1.87.37.76.86,1.51.98,2.49-.34.77-.78,1.5-1.32,2.16-1.09,1.51-2.42,2.78-2.96,4.5-.21.8-.36,1.61-.43,2.44-1.62.21-.8-6.59-4-6.51"/></g><g id="_路径_6739"><path class="cls-35" d="m93.03,125.09c.15.24.47.19.79-.01.42-.31.79-.68,1.12-1.1.39-.46.74-.94,1.07-1.45.38-.59.72-1.2,1.11-1.77.04-.05.07-.1.1-.15.34-.45.7-.88,1.09-1.3.45-.51.88-1.09,1.32-1.63.17-.21.35-.4.53-.6.04-.04.08-.08.11-.11.21-.21.4-.44.56-.68.11-.18.19-.37.26-.56.02-.06.05-.11.06-.17.06-.17.12-.33.17-.49.05-.15.1-.31.14-.47.17-.6.3-1.22.38-1.84.15-1.1.14-2.22-.02-3.33-.06-.38-.17-.76-.32-1.12-.01-.03-.03-.06-.05-.09-.18-.36-.38-.7-.52-1.08-.14-.38-.2-.79-.19-1.19.03-.38-.01-.76-.14-1.12-.16-.24-.42-.39-.71-.4-.37-.04-.74.05-1.05.26-.36.31-.66.68-.9,1.09-.19.22-.37.45-.55.69-.25.32-.48.66-.7,1l-.03.05s-.03.04-.04.07c-.3.48-.59.98-.85,1.49v.02c-.1.17-.19.35-.27.52-.57,1.14-1.05,2.32-1.44,3.53-.27.87-.48,1.77-.61,2.67-.04.28-.08.56-.1.84-.05.52-.08,1.03-.12,1.53-.04.76-.05,1.51-.04,2.25.03,1.16-.24,2.48-.32,3.69-.05.33,0,.67.15.97"/></g><g id="_路径_6740"><path class="cls-35" d="m93.1,117.83c.04.1.08.22.13.34.15.37.36.78.49,1.08.41.9,1.05,1.75,2.1,1.61.47-.06.94-.14,1.4-.26.1-.02.19-.05.29-.08.28-.35.57-.69.87-1.02.25-.28,1.05-1.4,1.78-2.43.36-.51.7-1,.94-1.36.02-.06.05-.12.06-.17.06-.17.12-.33.17-.49-.18-.17-.37-.33-.57-.49-.67-.59-.71-1.87-.5-3.25.21-1.08.64-2.11,1.26-3.01l.08-.13h0c-.18-.38-.39-.72-.54-1.13-.13-.39-.19-.81-.18-1.23.03-.39-.01-.78-.14-1.14-.16-.25-.43-.4-.73-.4-.38-.06-.76.04-1.07.26-.36.32-.67.69-.92,1.11-.19.22-.38.47-.56.7-.25.33-.49.68-.72,1.03l-.03.05s-.03.04-.04.06c-.32.51-.61,1.04-.89,1.57v.02s-.26.48-.26.48c-.58,1.16-1.07,2.37-1.47,3.61-.19.61-.42,1.67-.61,2.63-.19.96-.34,1.83-.35,2.03"/></g><g id="_路径_6741"><path class="cls-35" d="m101.96,104.65l1.33-.77v-7.4l-1.33.77v7.4Z"/></g><g id="_路径_6742"><path class="cls-35" d="m103.05,100.59c.06-.07.13-.01.08.08-.15.31-.18.66-.08.98.04.27.14.53.28.76.41.57,1.14.71,1.8.87.56.14,1.23.15,1.56.69.18.38.28.78.32,1.19.07.54.11,1.09.1,1.63-.06.79-.05,1.59.03,2.38.07.59.45,1.1,1,1.32.46.16.99.17,1.44.34.49.18.84.61.91,1.13.02.08-.1.18-.12.1-.05-.36-.25-.69-.54-.92-.26-.16-.56-.26-.86-.29-.65-.13-1.3-.22-1.68-.82s-.37-1.52-.33-2.45c.03-.59.02-1.18-.04-1.77-.03-.48-.15-.95-.36-1.38-.24-.44-.76-.45-1.21-.53-.58-.07-1.16-.22-1.7-.46-.48-.22-.81-.67-.88-1.2-.06-.39-.16-1.18.28-1.65"/></g><g id="_路径_6743"><path class="cls-35" d="m104.51,111.96c.05-.22.15-.44.21-.66.06-.2.1-.41.12-.62.03-.33.01-.67-.05-.99-.16-.64-.23-1.3-.2-1.96.11-.62.38-1.21.77-1.71.4-.57,1.2-1.44,1.13-2.09,0-.04.06-.12.08-.07.23.48-.39,1.34-.76,1.85-.47.54-.81,1.19-.99,1.88-.15.82.08,1.49.15,2.17.04.33.03.66-.01.99-.05.43-.18.84-.39,1.22-.02.03-.06.03-.05,0"/></g><g id="_路径_6744"><path class="cls-35" d="m107.04,107.21s.04-.06.05-.02c-.01.4.11.8.35,1.12.23.18.54.23.82.14.73-.16,1.48-.71,2.23-1.05,0,0,.01.02,0,.03-.39.27-.8.51-1.21.73-.36.21-.74.36-1.14.45-.28.08-.59.01-.8-.19-.25-.34-.35-.77-.29-1.19"/></g><g id="_路径_6745"><path class="cls-35" d="m106.13,103.08c.2-.25.45-.45.72-.6.44-.3.98-.43,1.51-.36.4.1.58.6.83.93s.65.88,1.23.36c.01-.01.02,0,0,.02-.14.16-.34.27-.56.29-.21-.01-.4-.11-.54-.26-.28-.34-.58-.67-.9-.98-.17-.08-.35-.11-.54-.07-.29.03-.56.11-.82.24-.29.13-.56.31-.78.54-.1.11-.19.23-.26.37-.03.05-.13.27-.19.23-.13-.12.16-.54.29-.71"/></g><g id="_路径_6746"><path class="cls-35" d="m98.92,111.68c-.62-.42-.99-1.12-1-1.87.08-.99.41-1.94.96-2.76.45-.76.98-1.46,1.49-2.15.28-.37.59-.72.91-1.06.43-.47.85-.91,1.29-1.34.09-.08.6-.64.61-.4,0,.04-.02.09-.06.11l-.03.03s-.04.06-.07.09c-.08.09-.16.19-.24.28-.23.28-.46.55-.69.83-.43.52-.88,1-1.3,1.51-.26.31-.49.65-.71.98-.31.43-.61.86-.89,1.32-.55.79-.87,1.72-.93,2.69.04.57.32,1.09.77,1.44.4.31.77.67,1.1,1.06.18.26.32.55.39.85.09.3.1.62,0,.92-.17.59-.65,1.12-.92,1.69-.07.13-.2.11-.14-.03.19-.4.43-.75.67-1.13.12-.18.2-.38.26-.59.05-.24.04-.49-.04-.73-.21-.91-.9-1.29-1.46-1.75"/></g><g id="_路径_6747"><path class="cls-35" d="m94.61,122.47c.16-.51.26-1.04.28-1.57.05-.5.1-1.01.19-1.52.04-.24.1-.47.18-.7.09-.26.23-.52.35-.78.29-.54.61-1.06.95-1.57.58-1.01.9-2.15.93-3.31.03-.49.04-.97.04-1.45-.01-.43.01-.86.07-1.28.09-.6.31-1.17.67-1.67.04-.05.08,0,.05.05-.24.4-.36.86-.35,1.33,0,.43.03.81.06,1.22.08,1.03.03,2.06-.16,3.07-.13.63-.35,1.24-.64,1.82-.27.53-.61,1.02-.94,1.52-.15.24-.33.45-.48.7-.14.23-.26.48-.36.73-.16.52-.26,1.05-.32,1.59,0,.64-.15,1.27-.42,1.85-.06.1-.15.07-.11-.03"/></g><g id="_路径_6748"><path class="cls-35" d="m93.74,118.55c.13-.35.29-.68.47-1.01.15-.33.26-.68.33-1.03.07-.57.26-1.11.56-1.59.37-.48.81-.9,1.31-1.24.24-.17.49-.34.73-.49.21-.15.43-.28.66-.39.07-.03.12.06.04.16-.18.17-.37.32-.58.46-.23.16-.46.32-.68.47-.49.33-.93.72-1.32,1.16-.4.48-.45,1.13-.59,1.66-.09.32-.21.63-.35.93-.14.33-.31.65-.51.95-.02.03-.06.02-.05-.03"/></g><g id="_路径_6749"><path class="cls-35" d="m95.15,112.26c.16-.31.33-.61.52-.9.22-.33.4-.68.56-1.04.21-.62.49-1.22.83-1.79.26-.39.62-.71,1.03-.93.3-.14.76-.13.75.27,0,.05-.05.11-.08.1-.12-.05-.2-.16-.33-.17-.16,0-.32.06-.45.14-.37.24-.69.56-.92.93-.3.55-.57,1.11-.8,1.69-.31.58-.71,1.15-1.07,1.71-.02.02-.04.02-.03,0"/></g><g id="_路径_6750"><path class="cls-35" d="m101.47,89.19c.02-.28.05-.57.09-.85.04-.29.09-.58.17-.86.02-.07.1-.13.11-.06.02.24.03.49.01.73,0,.27,0,.53,0,.79-.02.4.11.8.37,1.12.16.11.34.2.53.25.2.06.39.16.54.3.16.16.28.37.32.6.07.26.02.6.08.86.02.07-.1.17-.12.09-.07-.24-.05-.54-.11-.78-.06-.23-.25-.4-.48-.45-.21-.05-.43-.08-.65-.09-.22,0-.44-.11-.59-.27-.26-.41-.37-.9-.29-1.38"/></g><g id="_路径_6751"><path class="cls-35" d="m104.53,87.78c0,1.22.97,1.65,2.17.96s2.17-2.24,2.17-3.46-.97-1.65-2.17-.95-2.17,2.23-2.17,3.46"/></g><g id="_路径_6752"><path class="cls-35" d="m104.57,87.53c-.2,1.32.59,2.04,1.76,1.62,1.3-.57,2.23-1.74,2.49-3.13.2-1.32-.59-2.04-1.77-1.62-1.3.57-2.23,1.74-2.48,3.13"/></g><g id="_路径_6753"><path class="cls-35" d="m102.15,78.32c.03-.49.32-4.82.35-5.13.01-.12.07-.23.16-.32.27-.2.55-.38.84-.54.08-.05.17-.02.18.06.15.96-.06,4.99-.08,5.47.02.58-.11,1.16-.35,1.69-.13.24-.38.35-.51.27-.04-.03-.08-.08-.09-.14-.03.03-.06.05-.1.07-.08.06-.2.04-.26-.04-.02-.02-.03-.05-.03-.07-.12-.43-.16-.88-.11-1.33"/></g><g id="_路径_6754"><path class="cls-35" d="m100.76,86.25c-.05-1.71-.36-3.24-.26-5.03.02-.38.13-.8.12-1.19.36-.24.71-.52,1.06-.8,1.47-1.23,2.85-2.73,4.39-3.72,2.3-1.47,4.71-1.69,5.94-.08,1.53,2.01-.09,5.44.26,8.21.11.86.33,2.81-.92,3.76-1.06.82-2.21-.05-2.99-.22-2.24-.49-4.19.59-6.5,1.35-.31.1-.61.19-.9.26-.06.01-.13.03-.19.04.04-.89.02-1.75,0-2.58"/></g><g id="_路径_6755"><path class="cls-35" d="m100.5,81.22c.02-.38.13-.8.12-1.19.36-.24.71-.52,1.05-.8.51-.43,1.01-.89,1.51-1.35-.24.55-.39,1.14-.43,1.74-.13,2.23-.03,4.53,1.27,5.45,2.12,1.48,5.28.1,8.26-1.23.11.94.22,2.69-.94,3.56-1.06.82-2.21-.05-2.99-.22-2.24-.49-4.2.59-6.5,1.35-.31.1-.61.19-.9.26-.06.01-.13.03-.19.04.04-.89.02-1.75,0-2.58-.05-1.71-.36-3.24-.26-5.03"/></g><g id="_路径_6756"><path class="cls-35" d="m96.44,82.45c.1-.05.21-.1.31-.15.35-.18.7-.39,1.02-.62,0,.39-.1.81-.12,1.19-.1,1.8.2,3.33.26,5.04.03.83.05,1.69,0,2.58h-.05c-1.37.28-2.74.56-3.71-.25-1.18-.98-3.98-.66-3.97-1.9.26-1.73,3.98-5.38,6.26-5.89"/></g><g id="_路径_6757"><path class="cls-35" d="m92.71,84.79c-.3.53-.51,1.1-.62,1.71-.25,1.56.79,1.87,1.76,1.93.85.04,1.41.67,2.3.59.61-.1,1.21-.29,1.77-.57.02.66.03,1.34,0,2.04h-.05c-1.37.28-2.74.56-3.71-.25-1.18-.98-3.98-.66-3.97-1.9.14-.9,1.21-2.32,2.53-3.55"/></g><g id="_路径_6758"><path class="cls-35" d="m96.8,85.22c.06-.48.14-.97.24-1.47.08-.48.19-.95.33-1.42.05-.23.18-.44.36-.59.02-.01.04-.02.06-.03h0c.24-.2.36,0,.44.16.13.24.28.46.4.71.33.69.56,1.44.67,2.2.12.93.11,1.86-.02,2.79-.04.69-.21,1.37-.49,2-.15.31-.37.57-.65.77-.12.08-.25.15-.34.1-.09-.04-.12-.17-.14-.29-.1-.39-.21-.78-.34-1.16-.13-.37-.28-.72-.39-1.1-.21-.88-.25-1.78-.12-2.67"/></g><g id="_路径_6759"><path class="cls-35" d="m97.84,88.19c.16-.21.46-.25.67-.09.15.14.28.3.37.49.03,0,.05.04.05.09.01.93-.15,1.86-.48,2.73-.16.46-.27.94-.34,1.42-.02.17,0,.35.04.52.02.1.07.26.15.28s.03.19-.07.21c-.23.06-.28-.29-.33-.51-.05-.47,0-.95.13-1.4.22-1,.61-2.06.55-2.95-.06-.17-.15-.34-.27-.48-.06-.07-.13-.12-.21-.16-.09-.01-.18-.01-.27,0-.05,0-.05-.09,0-.14"/></g><g id="_路径_6760"><path class="cls-35" d="m98.57,88.22c.49.64,1.29.85,1.61,1.71.16.56.19,1.15.07,1.73-.06.52-.23,1.17-.01,1.51.04.06-.06.21-.12.17-.3-.2-.17-.87-.12-1.35.11-.56.08-1.14-.09-1.69-.34-.83-1.3-.93-1.43-1.99,0-.05.05-.12.08-.08"/></g><g id="_路径_6761"><path class="cls-35" d="m172.9,76.09l.03-.2c0-.07.25-9.03.53-12.21.32-3.6,1.93-14.96,1.93-14.96.11-.63.35-1.24.7-1.78l.51-.82h0c.49-.83,3.81-3.98,4.82-5.19h0s.05-.08.08-.11l.03-.05s.04-.04.05-.07v-1.74s-.11-.06-.11-.06c-.52-.62-.89-1.34-1.08-2.12h0c-.28.26-.59.02-.71-.52-.13-.5-.01-1.02.3-1.43.05-.05.11-.08.17-.09-.06-.3-.1-.59-.12-.9h0c-.06-.43-.08-.87-.07-1.31-.03-.5,0-.99.07-1.48.07-.27.15-.54.26-.79l.03-.09c.71-1.75,2.54-3.99,4.88-4.86,1.31-.49,1.58.47,1.63.47.4.02.57.34.57.76v.02c.18.5,0,3.07-.14,3.83.04-.04.08-.07.13-.08.28-.09.41.38.29,1.06-.12.67-.43,1.29-.7,1.39-.21,1.03-.5,2.05-.87,3.03,0,0-.15.27-.37.64v1.73c.44.07,2.13-.33,3.42-.57.39-.08.78-.13,1.17-.16.11-.01.22,0,.32.02v-.02s.55.23.55.23c.37.17.63.52.68.93,0,0,1.48,9.4,1.77,12.59.25,2.84.41,11.48.41,11.54l.02.16.42,1.99-.42,2.88-.86,1.82c-.24.5-.7.81-.96.64l.32-.79-.27-.64.58-1.37.06-1.74-.7,1,.05,1.6-.18.26c-.26.35-.61.39-.65.07l-.23-1.68.39-2.14.47-2.28c-.88-2.59-1.45-5.27-1.68-7.99-.05-.88-.85-6.05-1.26-8.69,0,.57,0,1.26,0,2v.37c0,.38,0,.76,0,1.16,0,2.35.02,4.92.08,6.41.1,2.23.26,4.54.39,6.24l.02.22h0c.11,1.47.2,2.43.2,2.43h0c.05.67.09,1.06.09,1.06-.02.36-.05.74-.08,1.1-.1,1.73-.14,3.42-.24,5.14-.09,1.68-.16,4.21-.34,5.94-.03.25-.06.51-.09.77l-.13,2.38v1.06c.01.1.04.22.06.33.15.88.23,1.78.22,2.68.07,2.27,0,8.85-.12,11.24-.04.62-.08,1.25-.15,1.9-.03.39-.19,1.84-.19,1.84l-.91.62c.72-.11,3.52-.43,3.77-.63.27-.22.37.5-.04.74s-3.33,2.18-4.24,2.34c-.59.1-1.95,1.68-2.46,1.3-.22-.15-.4-1.1-.35-1.61-.1.05-.17.08-.18.06-.19-.22-.19-.98-.2-1.36-.03-.6-.05-1.19-.05-1.82,0-1.29-.08-6.73-.08-8.02,0-1.25.04-2.51.07-3.78,0-.62.06-1.26.09-1.89.01-.32,0-.67.04-1.02l-.03-.76-.18-4.16c-.14-.99-.2-5.5-.37-7.74l-.65.4c-.19,2.28-.3,7.09-.44,8.26l-.22,4.42-.05.81c.04.31.03.67.03.98.02.6.07,1.18.07,1.79.02,1.25.04,2.47.03,3.73-.02,1.3-.14,6.87-.16,8.17,0,.62-.03,1.25-.07,1.89.01.55-.06,1.1-.22,1.63-.21.21-.44.38-.69.52l-.07.9s-1.16,3.83-1.87,3.96-2.29.76-2.24.31,1.16-3.14,1.16-3.14v-.2c-.43.25-.71.41-.71.41,0,0-.14-1.26-.18-1.61-.06-.56-.09-1.15-.13-1.73-.11-2.24-.1-8.82-.01-11.2.01-1,.1-2.01.26-3,.03-.14.05-.29.08-.43v-1.06s-.11-2.24-.11-2.24c-.03-.22-.06-.44-.08-.66-.16-1.53-.21-3.99-.29-5.57-.08-1.62-.11-3.28-.19-4.9-.02-.31-.05-.62-.06-.95,0,0,.22-1.69.47-4h0s0-.03,0-.03c0-.06.01-.14.02-.2.15-1.9.35-4.46.47-6.86.08-1.59.12-4.2.15-6.57,0-.54,0-1.05,0-1.54,0-.67.01-1.29.01-1.82-.45,3.23-1.28,9.21-1.33,10.14-.26,4.18-1.79,10.19-1.79,10.19l.46,1.71.37,1.68-.26,2c-.05.38-.4.78-.66.75l-.19-.03.07-1.68-.7-.13.04,1.69.58.65-.28.99.31.4c-.26.49-.73.77-.97.56l-.86-.75-.4-2.39.44-2.53Z"/></g><g id="_路径_6762"><path class="cls-35" d="m120.1,75.82l47.3-27.31v-8.82l-47.3,27.31v8.82Z"/></g><g id="_路径_6763"><path class="cls-35" d="m120.1,89.24l47.3-27.31v-8.82l-47.3,27.31v8.83Z"/></g><g id="_路径_6764"><path class="cls-35" d="m120.1,102.66l47.3-27.31v-8.83l-47.3,27.31v8.82Z"/></g><g id="_路径_6765"><path class="cls-45" d="m102.04,117c.31-.34-.33-.54-.5-.97-.35-.91-.09-1.88-1.33-3.01-.16-.15-.29-.4-.49-.46-.83-.26-1.05.17-1.09.77-1.37-.59-3.54-3.62-3.9-2.34-.17.63,2.09,2.24,2.44,2.69-.07-.09-.73-.49-.83-.57-.38-.28-1.09-.78-1.28-.19-.18.54.19.73.5,1.01.07.06.57.5.47.46-.39-.18-1.02-.75-1.23-.02-.04.25.06.51.27.66.16.17.32.33.5.47-.59-.23-1.08.34-.52.85,2.44,2.24,4.5,2.36,4.99,2.63.03.02.07.05.09.04s.06-.08.07-.1c.05-.07.09-.14.14-.2.14-.21.21-.13.36-.33.3-.42.99-1.02,1.33-1.4"/></g><g id="_路径_6766"><path class="cls-9" d="m123.85,131.23c-1.07-2.54-10.8-8.12-10.8-8.12-1.51-1.1-6.47-4.58-10.45-7.42-2.01.64-3.31,1.66-4.11,3.72,3.06,3.18,4.15,5.16,5.29,6.46,1.4,1.52,2.98,2.86,4.72,3.98l.12.02,3.37,2.59c3.4,2.09,6.87,4.35,10.79,4.33,0,0,2.14-3.02,1.07-5.56"/></g><g id="_路径_6767"><path class="cls-23" d="m111.45,127.28v.34s.06,3.04.06,3.04c.2.31.45.59.72.83h.01c.08-.01.15-.02.23-.03,2.21-.24,4.96-.71,4.95-2.34,0-.01.03-.04.05-.05l-.11-2.31-.27.02-3.98.35-1.67.14Z"/></g><g id="_路径_6768"><path class="cls-29" d="m118.15,128.72c.34.33.19,3.39.15,3.85-.11,1.26-.32-.52-1.48-.03-1.19.43-2.48.5-3.72.2-.57-.04-1.11-.3-1.49-.73-.49-.51-.49-2.58-.06-2.62s1.45.03,1.88.05c1.04.06,2.07-.12,3.03-.51.69-.28.95-.94,1.69-.21"/></g><g id="_路径_6769"><path class="cls-20" d="m123.55,201.24s.39,3.28-.73,4.22c-.32.26-1.46.16-2.73-.37-.84-.35-1.68-1.07-2.51-1.35-2.45-.81-2.92-2.08-3.74-3.74-1.73-3.52,2.15-1.89,4.63-.44,1.55.91,3.28,1.48,5.07,1.67"/></g><g id="_路径_6770"><path class="cls-5" d="m114.73,177.29c.21,1.87.6,3.72.9,5.57.18,1.07.11,1.88.31,2.94.37,2.13.28,12.09.28,15.49,0,.69,7.43,2.91,7.63,1.89.2-.98.69-9.18.33-12.13-.27-2.25-.84-23.59-.7-25,.23-2.28.02-6.11-1.91-7.31-2.92-1.81-6.58,2.21-7.38,3.96-1.15,2.51-.42,6.16.53,14.59"/></g><g id="_路径_6771"><path class="cls-20" d="m114.39,205.72s1.2,3.05.36,4.28c-.24.34-1.36.57-2.72.42-.89-.1-1.89-.55-2.76-.59-2.57-.08-3.34-1.18-4.54-2.55-2.56-2.91,1.59-2.43,4.35-1.73,1.74.44,3.55.5,5.31.17"/></g><g id="_路径_6772"><path class="cls-50" d="m105.88,177.36h0c2.32,18.56,1.48,16.08,1.53,29.28,0,1.07.27.87,3.57,1.38.7.14,1.42.18,2.13.13,2.14-.26,2.45-1.87,2.5-3.6,0-1.88.57-23.55-4.38-23.58-.84,0-4.72-3.09-5.36-3.61"/></g><g id="_路径_6773"><path class="cls-50" d="m105.37,164.83c.2,4.72.23,9.25.5,12.53h0c.35,4.12.89,4.26,1.95,6.7.75,1.71.65,2.97,1.61,3.81.78.62,1.87.67,2.71.13.84-.5,1.95,3.53,2.26,2.56.25-.78.39-4.37.43-5.2.39-8.16,3.87-13.54,3.12-20.22-.04-.35-12.59-.32-12.59-.32"/></g><g id="_路径_6774"><path class="cls-34" d="m103.39,136.06s.2,1.27.47,3.1l.05.34c.39,2.7.9,6.45,1.14,9.16.08.89.13,1.68.14,2.27.04,2.93.35,28.88.21,31.45-.03.5.22.98.64,1.25.42.26.85.49,1.3.68.73.31,1.5.54,2.28.67.57.1,1.18.17,1.85.22,2.6.22,5.23.11,7.8-.32,1.84-.27,3.57-1.01,5.05-2.14.33-.26.53-.66.54-1.09h0c.07-2.78-.55-24.89-2.17-31.26-1.26-4.96,1.84-13.73,1.71-16.59-.11-2.4-.97-5.31-6.18-4.65l-6.86,1.56c-1.43.8-7.4,1.87-7.97,5.34"/></g><g id="_路径_6775"><path class="cls-45" d="m109.41,125.26c.39,1,1.12,1.83,2.05,2.36.34.18.7.3,1.08.37.07,0,.14.02.21.03.36.04.73-.02,1.06-.17.64-.33,2.94.08,3.17-.59.05-.15.09-.31.11-.46.26-1.75-.95-4.37-1.23-6.02-.32-1.56-1.15-2.96-2.37-3.98-1-.88-2.17-1.55-3.45-1.95l-.64.77-.52.63c.26,1.5.09,3.03.02,4.54s-.07,3.08.51,4.49"/></g><g id="_路径_6776"><path class="cls-38" d="m108.9,120.78c.08-1.51.24-3.04-.02-4.54l.52-.63.2.98c-.56,2.38-.57,4.85-.02,7.23.16.92.55,1.79,1.15,2.51.62.73,1.62,1,2.53.7-.05.03-.1.07-.14.1-.27.23-.47.52-.57.85-.1.28-.15.57-.16.86,0,.18,0,.37,0,.55-.26-.05-.52-.05-.78,0-.04,0-.08.02-.11.03l-.03-1.8c-.93-.53-1.65-1.36-2.05-2.35-.57-1.41-.59-2.97-.51-4.49"/></g><g id="_路径_6777"><path class="cls-19" d="m108.04,115.87c.12.92.91.85,1.39,1.65.56.91.59,1.72,1.15,2.63.2.33,1.02,3.45,1.96,2.91,1.38-.8-.2,2.92,2.34,4.25.44.23,1.63.03,2.11-.06.28-.09.52-.26.69-.49l.04-.04c.71-.77,3.33-3.26,3.91-4.52.46-1.18.66-2.45.59-3.72-.02-1.14-.71-2.17-1.33-3.09-.62-.93-1.45-1.7-2.43-2.24-1.68-.91-3.97-1.08-5.92-.82-.26.03-.52.08-.77.12-.44.09-.88.21-1.32.34-.18.09-.37.19-.56.3-1.86,1.03-1.83,2.1-1.85,2.18-.01.2-.01.4,0,.61"/></g><g id="_路径_6778"><path class="cls-38" d="m112.65,122.89c-.56.71-.58,1.62-.05,2.03s1.41.16,1.96-.55.57-1.62.05-2.03-1.4-.17-1.95.55"/></g><g id="_路径_6779"><path class="cls-33" d="m111.98,130.02c-.42.09-.83.21-1.23.37-.31.16-.52.46-.56.8,1.61.35,4.57-.3,6.19-.57,1.4-.24,2.75-1.12,2.97-1.47.55-.92-2.83.08-3.19.17-1.36.38-2.81.4-4.19.7"/></g><g id="_路径_6780"><path class="cls-45" d="m100.31,165.17c-.62-.08-1.24-.15-1.86-.23-.13,1.11-.21,1.81-.21,1.81-.13.13-.61.71-.68.82-.43.72-.62,1.57-1.05,2.3-.13.21-.64.85-.57,1.12.03.06.09.1.16.11.81.27,1.19-.51,1.47-1.16-.06.33-.14.65-.22.99-.08.38-.57,2.35-.1,2.43.23.03.35-.3.42-.46.28-.75.52-1.52.69-2.3-.13.67-.27,1.33-.39,1.99-.06.31-.23,1.51.24,1.58.14,0,.26-.07.31-.2.21-.61.36-1.23.43-1.87-.04.41-.08.82-.11,1.24-.03.19-.04.56.2.66.3.14.45-.24.51-.43.22-.8.37-1.62.45-2.45.09.5-.06,1.78.09,2.2,0,0,0,.01,0,.02,0,0,0,0,0,0,.03.12.09.15.2.07.13-.11.21-.25.24-.42.28-.96.45-1.52.74-2.46.13-.48.21-.96.25-1.45.05-.5.09-.9.17-1.39.03-.28.06-.66.08-1.05,0,0,.14-.41.39-1.09-.61-.16-1.22-.28-1.84-.37"/></g><g id="_路径_6781"><path class="cls-33" d="m107.83,134.97c-.73-1.1-2.06-1.7-3.08-1.11-.68.49-1.16,1.2-1.36,2.01l-3.26,14.7c-.35,1.84-2.04,10.87-2.91,15.68,1.44,1.55,2.92,2.29,5.11,2.13,1.57-4.13,3.54-9.02,4.23-10.61.78-1.91,1.31-3.92,1.59-5.96-.01-.04-.02-.08-.03-.12l.9-4.15c.48-4.34,1.12-8.83-1.21-12.59"/></g></g></g></g></g></g></g><g id="_组_2941"><g class="cls-69"><g id="_组_2940"><g id="_组_2894"><g class="cls-87"><g id="_组_2893"><g id="_路径_6782"><path class="cls-32" d="m204.2,241.59l-.12,1.76s0,.06,0,.08l.12-1.77s0-.05,0-.08"/></g><g id="_路径_6783"><path class="cls-54" d="m204.21,241.66l-.12,1.77c.05.19.18.34.35.43l.09-1.82c-.16-.08-.27-.22-.32-.39"/></g><g id="_路径_6784"><path class="cls-53" d="m204.52,242.06l-.08,1.82h.02c.09.06.19.1.28.14l.06-1.83c-.09-.03-.17-.06-.26-.11h-.02"/></g><g id="_路径_6785"><path class="cls-54" d="m204.79,242.17l-.06,1.83c.26.08.54.11.82.09l-.03-1.84c-.24.02-.49,0-.73-.08"/></g><g id="_路径_6786"><path class="cls-32" d="m205.52,242.25l.03,1.84c.26-.02.51-.09.73-.21.21-.1.36-.3.38-.54l-.14-1.76c-.02.21-.15.39-.34.48-.2.11-.43.18-.66.19"/></g></g></g></g><g id="_组_2896"><g class="cls-81"><g id="_组_2895"><g id="_路径_6788"><path class="cls-7" d="m204.54,241.11c-.26.09-.4.38-.31.64.05.15.16.26.31.31.52.26,1.13.26,1.65,0,.26-.09.4-.38.31-.64-.05-.15-.16-.26-.31-.31-.52-.26-1.13-.26-1.65,0"/></g><g id="_路径_6789"><path class="cls-32" d="m204.83,241.28c-.17.06-.26.24-.21.41.03.1.11.17.2.2.33.17.73.17,1.07,0,.3-.17.3-.45,0-.62-.34-.17-.73-.17-1.07,0"/></g></g></g></g><g id="_组_2898"><g class="cls-94"><g id="_组_2897"><g id="_路径_6790"><path class="cls-32" d="m165.65,240.63l-.12,1.76s0,.06,0,.09l.12-1.77v-.08"/></g><g id="_路径_6791"><path class="cls-54" d="m165.65,240.71l-.12,1.77c.05.19.18.34.35.43l.09-1.82c-.16-.08-.27-.22-.32-.39"/></g><g id="_路径_6792"><path class="cls-53" d="m165.97,241.1l-.08,1.82h.02c.09.06.19.1.28.14l.06-1.83c-.09-.03-.18-.06-.26-.11h-.01"/></g><g id="_路径_6793"><path class="cls-54" d="m166.24,241.22l-.06,1.83c.26.08.54.11.81.09l-.03-1.84c-.25.02-.49,0-.73-.08"/></g><g id="_路径_6794"><path class="cls-32" d="m166.97,241.3l.03,1.84c.26-.02.51-.09.73-.21.21-.1.36-.3.38-.54l-.14-1.76c-.02.21-.15.39-.34.48-.2.11-.43.18-.66.19"/></g></g></g></g><g id="_组_2900"><g class="cls-2"><g id="_组_2899"><g id="_路径_6796"><path class="cls-7" d="m165.99,240.16c-.26.09-.4.38-.31.64.05.14.16.26.31.31.52.26,1.13.26,1.65,0,.26-.09.41-.38.32-.64-.05-.15-.16-.26-.31-.31-.52-.26-1.13-.26-1.65,0"/></g><g id="_路径_6797"><path class="cls-32" d="m166.28,240.32c-.17.06-.26.24-.21.41.03.1.11.17.2.2.33.17.73.17,1.07,0,.3-.17.3-.45,0-.62-.34-.17-.73-.17-1.07,0"/></g></g></g></g><g id="_组_2902"><g class="cls-77"><g id="_组_2901"><g id="_路径_6798"><path class="cls-32" d="m185.77,252.29l-.12,1.76s0,.06,0,.09l.12-1.77s0-.05,0-.08"/></g><g id="_路径_6799"><path class="cls-54" d="m185.77,252.37l-.12,1.77c.05.19.18.34.35.43l.09-1.82c-.16-.08-.27-.22-.32-.39"/></g><g id="_路径_6800"><path class="cls-53" d="m186.09,252.76l-.08,1.82h.02c.09.06.18.1.28.13l.05-1.83c-.09-.03-.17-.06-.25-.11h-.02"/></g><g id="_路径_6801"><path class="cls-54" d="m186.36,252.88l-.06,1.83c.26.08.54.11.81.09l-.03-1.84c-.25.02-.49,0-.73-.08"/></g><g id="_路径_6802"><path class="cls-32" d="m187.09,252.96l.03,1.84c.26-.02.51-.09.73-.21.22-.1.36-.3.38-.54l-.14-1.76c-.02.21-.15.39-.34.48-.2.11-.43.18-.66.19"/></g></g></g></g><g id="_组_2904"><g class="cls-63"><g id="_组_2903"><g id="_路径_6804"><path class="cls-7" d="m186.11,251.81c-.26.09-.4.38-.31.64.05.15.16.26.31.31.52.26,1.13.26,1.65,0,.26-.09.4-.38.31-.64-.05-.15-.16-.26-.31-.31-.52-.26-1.13-.26-1.65,0"/></g><g id="_路径_6805"><path class="cls-32" d="m186.4,251.98c-.17.06-.26.24-.21.41.03.1.11.17.2.2.33.17.73.17,1.07,0,.3-.17.3-.45,0-.62-.34-.17-.73-.17-1.07,0"/></g><g id="_路径_6806"><path class="cls-38" d="m197.95,193.81c.78.19,1.38.81,1.55,1.6.14.68.05,1.67.4,2.29.66,1.19.83-.41,1.03-.93.1.19.24.4.46.38.15-.02.27-.14.31-.29.03-.15.03-.3,0-.44-.18-1.38-.2-2.71-1-3.89-.16-.25-.34-.48-.53-.7-.91.45-1.67,1.13-2.22,1.98"/></g><g id="_路径_6807"><path class="cls-35" d="m205.37,241.94h.03c.33-.02.58-.29.56-.62,0,0,0,0,0,0l-1.61-35.16c-.23-5.11-3.8-11.07-8.12-13.56l-1.25-.73c-2.24-1.29-4.38-1.5-6.04-.6-1.6.87-2.55,2.69-2.67,5.13l-1.61,33.3c-.02.33.24.61.56.63.33.02.61-.24.63-.56,0,0,0,0,0,0l1.61-33.3c.1-2,.83-3.47,2.05-4.14,1.28-.7,3.01-.49,4.88.59l1.26.73c4,2.31,7.31,7.84,7.53,12.59l1.61,35.16c.02.32.28.57.6.57"/></g><g id="_路径_6808"><path class="cls-5" d="m200.71,198.63c.56,0,1.02-.46,1.02-1.02,0-.19-.05-.38-.15-.54-.92-1.51-2.09-2.85-3.46-3.96l-1.14-.89c-1.88-1.47-3.89-2.07-5.64-1.69-.55.12-.9.66-.78,1.21.12.55.66.9,1.21.78,1.15-.25,2.56.21,3.96,1.3l1.14.89c1.18.96,2.19,2.12,2.99,3.42.19.3.51.48.87.48"/></g><g id="_路径_6809"><path class="cls-38" d="m200.17,191.83c-.56-.67-1.21-1.29-1.76-1.98-.25-.31-1.13-.11-1.44-.03-.5.13-.98.31-1.43.55-.26.13-.25.65-.08,1.35.48,1.9,2.18,5.09,2.63,4.92.29-.15.44-.47.37-.79-.08-.3-.2-.59-.37-.85-.7-1.28,1.17-2.71,2.08-3.17"/></g><g id="_路径_6810"><path class="cls-11" d="m198.37,180.5c-.67-4.56,1.31-9.86.15-14.03-.27-.74-.73-1.4-1.33-1.91v.39h-1.87v9.53h-3.88c.27,1.21.53,2.48.73,3.91.57,4.3,1.39,8.56,2.45,12.76.29,1.62,4.95-.04,4.93-.44-.09-1.72-.22-3.63-1.19-10.22"/></g><g id="_路径_6811"><path class="cls-30" d="m176.82,239.53c.06.36.22.69.47.95.49.73.52,1.64.75,2.47.19.88.51,1.72.94,2.51.7,1.15,1.77,2.03,3.03,2.51.63.25,1.31.33,1.98.24.68-.1,1.28-.49,1.64-1.07.3-.59.36-1.27.17-1.9-.16-.55-.4-1.07-.69-1.56l-.11-.21c-.57-1.03-1.29-2.06-1.68-3.17-.29-.81-.39-1.68-.72-2.47-.12-.33-.33-.62-.59-.84-.07-.06-.15-.1-.24-.14-.17-.09-.36-.16-.54-.22-.4-.15-.81-.26-1.22-.32-.16-.02-1.95.02-1.96-.03.14.75-.05,1.52-.53,2.11-.22.22-.41.47-.59.72-.08.13-.12.29-.12.44"/></g><g id="_路径_6812"><path class="cls-30" d="m190.87,235.1s-3.88-.72-3.13,3.99c.2,1.23,1.82,1.34,2.52,1.25.4-.13.84-.11,1.23.06.4.23.77.51,1.1.83,2.06,1.49,5.25.73,6.03-.31,1.11-1.5-1.52-2.73-4.07-3.88-1.28-.53-2.51-1.18-3.68-1.94"/></g><g id="_路径_6813"><path class="cls-52" d="m194.17,196.81c-.34-1.27-8.97-1.42-8.97-1.42l-1.51,1.15c-.05.6,2.41,11.21,3.23,13.36v.03c.74,1.92,1.35,3.47,1.56,4.1.03.07.05.15.08.23-.04.41-.14,1.23-.19,1.68-.64,6.47-1.93,21.52-1.97,21.64.21.07,9.34-.13,9.35-.15.75-5.26,1.97-18.28,2.35-21.68,0,0-2.58-13.99-3.93-18.93"/></g><g id="_路径_6814"><path class="cls-26" d="m190.65,220.1c1.2-5.1-2-8.9-3.1-13.7-1.01-4.75,3.25-6.83,7.12-7.54-.18-.78-.36-1.48-.51-2.05-.34-1.27-8.97-1.42-8.97-1.42l-1.52,1.16c-.05.6,2.41,11.21,3.23,13.35v.03c.74,1.92,1.35,3.47,1.56,4.1.04.1.06.18.08.23-.04.41-.14,1.23-.19,1.68-.64,6.47-1.93,21.53-1.97,21.64.07.02,1.2.01,2.64,0-.52-1.48-.88-3.02-1.08-4.58-.5-4.5,1.7-8.5,2.7-12.9"/></g><g id="_路径_6815"><path class="cls-13" d="m186.91,209.93c-.18-3.23-1.54-13.53-1.72-14.54-.09-.56-10.65-.97-10.67-.51-.22,4.46.99,6.33,1.34,7.86.9,4.14,1.42,8.12,1.76,10.38-.04.41-.08.83-.11,1.27-.79,9.38-1.81,24.74-1.98,25.5.34.13,9.13.01,9.26-.03h.03c.75-6.19,1.7-21.1,2.08-25.2.01-.02.02-.04.02-.06v-.03c.12-1.55.12-3.11,0-4.66"/></g><g id="_路径_6816"><path class="cls-52" d="m179.05,220c.9-4.2,0-8.2-.8-12.5-.5-2.5-.7-5.5,1-7.1,1.54-1.63,4.08-1.27,6.48-1.08-.26-2-.48-3.57-.54-3.93-.09-.56-10.65-.97-10.68-.51-.21,4.46.99,6.33,1.34,7.86.9,4.14,1.42,8.12,1.76,10.38-.04.41-.08.83-.11,1.27-.79,9.38-1.81,24.74-1.98,25.51.64.05,1.28.07,1.92.06-.91-6.46.13-13.16,1.61-19.96"/></g><g id="_路径_6817"><path class="cls-46" d="m197.57,173.33c-1.03,5.15-.95,10.48-1.33,15.73-.18,2.28-.9,5.68-2.14,7.19-.25.16-.52.31-.79.44-.38.2-.78.37-1.19.51-5.55,2.06-14.19.78-17.7-3.4-.08-1.04.07-2.09.43-3.08.6-1.89,1.59-3.96,2.05-5.62.71-2.41,1.13-4.89,1.25-7.39.01-1.07-.04-2.13-.1-3.2-.08-1.11-.15-2.21-.14-3.31.01-2.09-.83-4.96.61-6.66.27-.28.61-.49.98-.62.06-.03.13-.05.2-.08.63-.21,1.28-.38,1.93-.51,1.17-.27,2.35-.53,3.53-.74,2.67-.48,5.99-.76,8.6-.04,1.8.51,3.81,1.28,4.33,3.27.65,2.4-.05,5.13-.52,7.51"/></g><g id="_路径_6818"><path class="cls-46" d="m183.95,176.3c1.2-3.3,1.9-7.2-.4-10.5-.64-1.01-1.56-1.82-2.65-2.31-.41.09-.82.21-1.22.35-.08.03-.14.05-.2.08-.37.13-.7.34-.98.62-1.44,1.7-.6,4.57-.61,6.66-.01,1.11.06,2.21.14,3.31.07,1.07.12,2.14.1,3.2-.12,2.51-.53,4.99-1.25,7.4-.46,1.65-1.45,3.72-2.05,5.62-.37.98-.51,2.03-.43,3.07,1.58,1.88,4.21,3.18,7.12,3.85-.06-.41-.09-.83-.08-1.25,0-6.8,0-13.7,2.5-20.1"/></g><g id="_路径_6819"><path class="cls-23" d="m187.79,165.45c-1.24-.32-3.34-1.8-3.04-2.56.65-1.83.89-3.77.7-5.7l6.63,1.77s.87,3.84.67,4.79c-.24,1.15-3.39,2.11-4.96,1.7"/></g><g id="_路径_6820"><path class="cls-38" d="m185.81,158.28c-.57.42-1.58,0-2.26-.91s-.77-2.01-.2-2.43,1.58,0,2.26.91.77,2.01.2,2.42"/></g><g id="_路径_6821"><path class="cls-45" d="m194.3,162.63c-.89.6-1.98.82-3.04.61-1.44-.21-3.21-1.26-4.21-2.16-.98-.87-2.71-4.4-3-5.82-.05-.23-.08-.46-.11-.7-.42-3.92.05-6.57,2.79-8.57,2.9-2.12,9.56-.04,9.79,4.58.23,4.62.31,10.17-2.22,12.06"/></g><g id="_路径_6822"><path class="cls-43" d="m186.45,145.75c-2.91,1.75-3.3,4.34-2.52,8.81l.03.23c.22.04.86.15,1.63,1.17.09-.02,1.14.28,1.07.15-.98-1.59-1.37-3.48-1.1-5.33,1.61-8.34,8.96-3.69,9.71-2.94.68.79,1.03,1.82.96,2.87.09.1.19.19.28.29.26-4.25-5.56-7.94-10.06-5.25"/></g><g id="_路径_6823"><path class="cls-51" d="m185.18,157.43c-.28.2-.77,0-1.1-.44s-.37-.98-.1-1.18.77,0,1.1.44.37.98.1,1.18"/></g><g id="_路径_6824"><path class="cls-38" d="m175.14,198.48c.09-.44,1.09-.68,1.44-.77.57-.12,1.15-.18,1.73-.17.34,0,.59.54.76,1.32.48,2.17.38,6.26-.16,6.32-.37,0-.68-.25-.77-.61-.08-.34-.09-.7-.05-1.05,0-.48-.12-.95-.36-1.36-.11.08-.22.18-.31.28-.95-.49-1.9-1.11-2.89-1.67.21-.77.45-1.52.62-2.3"/></g><g id="_路径_6825"><path class="cls-35" d="m186.94,252.59h.03c.33-.02.58-.29.57-.62l-1.61-35.16c-.23-5.11-3.8-11.07-8.12-13.56l-1.26-.73c-2.24-1.29-4.38-1.51-6.05-.6-1.6.87-2.55,2.7-2.67,5.13l-1.61,33.3c-.01.33.24.61.57.62.33.01.6-.24.62-.56l1.61-33.3c.1-2,.83-3.47,2.05-4.14,1.28-.7,3.02-.49,4.88.59l1.25.73c4,2.31,7.31,7.84,7.53,12.59l1.61,35.16c.02.32.28.57.6.57"/></g><g id="_路径_6826"><path class="cls-5" d="m181.21,207.99c.56,0,1.02-.46,1.02-1.02,0-.24-.08-.47-.24-.65-1.12-1.37-2.46-2.53-3.97-3.44l-1.25-.73c-2.07-1.2-4.14-1.52-5.82-.9-.53.18-.81.77-.63,1.3.18.53.77.81,1.3.63.01,0,.02,0,.03-.01,1.11-.4,2.56-.14,4.1.75l1.25.73c1.31.79,2.47,1.8,3.43,2.98.19.23.48.37.78.37"/></g><g id="_路径_6827"><path class="cls-35" d="m185.97,226.96c.1,0,.21-.03.3-.08l17.99-10.38c.28-.16.38-.53.22-.81-.16-.28-.52-.38-.8-.22,0,0,0,0,0,0l-17.99,10.39c-.28.17-.38.53-.21.82.11.18.3.29.51.29"/></g><g id="_路径_6828"><path class="cls-35" d="m185.36,216.13c.1,0,.21-.03.3-.08l17.99-10.39c.28-.16.38-.53.22-.81-.16-.28-.52-.38-.8-.22,0,0,0,0,0,0l-17.99,10.39c-.28.16-.38.53-.22.81.11.19.3.3.52.3"/></g><g id="_路径_6829"><path class="cls-38" d="m176.86,204.49c.07.26.85.41.97.7-1.06.62-2.02.17-2.64-.21-.4-.29-.73-.65-.97-1.08-.09-.51-.11-1.02-.05-1.53.07-.53.18-1.06.33-1.58.99.56,2.25.9,3.2,1.39-.54.59-1.07,1.53-.85,2.32"/></g><g id="_路径_6830"><path class="cls-11" d="m183.87,167.84c-.54-3.35-3.03-4.32-3.03-4.32-4.75-.41-6.93,14.68-6.93,14.68-.45,2.92-.5,5.89-.15,8.82.37,2.34.47,8.72.62,12.01,1.4.86,4.45-.06,5-.46.14-3.33.55-13.89,1.41-17.93.43-2.11,3.63-9.46,3.09-12.81"/></g><g id="_路径_6831"><path class="cls-17" d="m179.85,164.5c.3-.4.71-.71,1.18-.89-.12-.06-.19-.09-.19-.09-4.75-.41-6.93,14.68-6.93,14.68-.45,2.92-.5,5.89-.15,8.83.37,2.34.46,8.72.62,12.01.36.21.77.32,1.19.34-.41-2.64-.69-5.31-.81-7.98-.4-9.1-.6-18.8,5.1-26.9"/></g><g id="_路径_6832"><path class="cls-35" d="m186.28,240.62c.23,0,.43-.19.43-.43v-4.52c0-2.4-1.69-5.32-3.76-6.51l-11.82-6.82c-1.08-.63-2.12-.72-2.93-.25s-1.25,1.41-1.25,2.66v4.53c0,.24.19.43.43.43s.43-.19.43-.43v-4.53c0-.93.29-1.62.83-1.93s1.27-.22,2.08.25l11.82,6.82c1.97,1.29,3.21,3.43,3.33,5.78v4.52c0,.23.19.42.42.43,0,0,0,0,0,0"/></g><g id="_路径_6833"><path class="cls-56" d="m233.85,142.26c.13.93.41,1.8-.28,2.61-.47.49-1.09.81-1.76.91-.52.1-1.04.16-1.57.2-.88-.1-1.75-.28-2.6-.54h-.02c.16-.82-5.94-4.54-5.75-5.34.44-1.87,7.36-.83,8.57-2.31,1.09-1.33,2.61-2.36,3.28-3.95.23-.71.38-1.45.43-2.2.08-.45.32-.62.78-.46,1.08.36,1.3,2.19,1.31,3.14.01.76-.13,1.51-.43,2.2-.67,1.53-2.03,2.85-2.02,4.51-.03.41-.01.83.05,1.24"/></g><g id="_路径_6834"><path class="cls-10" d="m243.57,211.85l-.47,1.09c-.14.32-.48.12-.62-.36l-.47-1.63c-.14-.48.03-.89.31-.73l.94.54c.31.27.43.69.31,1.08"/></g><g id="_路径_6835"><path class="cls-41" d="m241.88,211.39l-.87.51c.26-.12.56-.09.78.08l.87-.52c-.23-.16-.53-.19-.78-.07"/></g></g></g></g><g id="_组_2906"><g class="cls-91"><g id="_组_2905"><g id="_路径_6836"><path class="cls-41" d="m241.79,211.98l.87-.52c-.11-.06-.22-.1-.34-.13l-.87.52c.12.03.23.07.34.14"/></g><g id="_路径_6837"><path class="cls-41" d="m241.46,211.85l.87-.51c-.14-.04-.29-.02-.43.04l-.87.52c.13-.07.28-.08.43-.05"/></g><g id="_路径_6838"><path class="cls-41" d="m241.03,211.89l.87-.52-.02.02-.88.51h.02"/></g></g></g></g><g id="_组_2908"><g class="cls-66"><g id="_组_2907"><g id="_路径_6840"><path class="cls-41" d="m242.57,214.57l.87-.52c.22-.16.35-.42.32-.69-.04-.77-.45-1.47-1.1-1.89l-.87.52c.65.42,1.05,1.12,1.1,1.88.03.27-.1.54-.32.7"/></g></g></g></g><g id="_组_2910"><g class="cls-3"><g id="_组_2909"><g id="_路径_6841"><path class="cls-41" d="m242.57,214.56l.87-.52c.22-.16.35-.42.32-.69,0-.29-.07-.57-.2-.83l-.87.52c.12.26.19.54.2.82.03.27-.1.54-.32.7"/></g><g id="_路径_6842"><path class="cls-41" d="m242.7,213.04l.87-.52c-.1-.21-.22-.41-.37-.59l-.87.51c.15.18.27.39.37.6"/></g><g id="_路径_6843"><path class="cls-41" d="m242.33,212.44l.88-.51c-.15-.19-.33-.34-.54-.47l-.87.52c.2.12.38.28.53.46"/></g></g></g></g><g id="_组_2912"><g class="cls-92"><g id="_组_2911"><g id="_路径_6845"><path class="cls-40" d="m241.79,211.98c-.61-.35-1.1-.07-1.11.62.04.77.45,1.47,1.1,1.88.61.35,1.1.07,1.11-.62-.04-.77-.45-1.47-1.1-1.88"/></g><g id="_路径_6846"><path class="cls-22" d="m242.22,212.48h0c-.4,0-.73-.33-.73-.73v-4.6c0-1.13.44-2.03,1.2-2.46s1.76-.37,2.74.2l4.56,2.63c.33.22.42.68.2,1.01-.2.3-.6.41-.92.25l-4.55-2.63c-.37-.28-.85-.35-1.28-.19-.35.29-.53.75-.47,1.21v4.6c0,.4-.33.73-.73.73"/></g><g id="_路径_6847"><path class="cls-10" d="m242.57,212.52l-.47,1.09c-.14.32-.48.12-.62-.36l-.47-1.63c-.14-.48.03-.89.31-.73l.94.54c.31.27.43.69.31,1.08"/></g><g id="_路径_6848"><path class="cls-10" d="m258.36,211.85l-.47,1.09c-.14.32-.48.12-.62-.36l-.47-1.63c-.14-.48.03-.89.31-.73l.94.54c.31.27.43.69.31,1.08"/></g><g id="_路径_6849"><path class="cls-41" d="m256.67,211.39l-.87.51c.26-.12.56-.09.78.08l.87-.52c-.23-.16-.53-.19-.78-.07"/></g></g></g></g><g id="_组_2914"><g class="cls-90"><g id="_组_2913"><g id="_路径_6850"><path class="cls-41" d="m256.59,211.98l.87-.52c-.11-.06-.22-.1-.34-.13l-.87.52c.12.03.23.07.34.14"/></g><g id="_路径_6851"><path class="cls-41" d="m256.25,211.85l.87-.51c-.14-.04-.29-.02-.43.04l-.87.52c.13-.07.28-.08.43-.05"/></g><g id="_路径_6852"><path class="cls-41" d="m255.82,211.89l.87-.52-.02.02-.88.51h.02"/></g></g></g></g><g id="_组_2916"><g class="cls-84"><g id="_组_2915"><g id="_路径_6854"><path class="cls-41" d="m257.36,214.57l.87-.52c.22-.16.35-.42.32-.69-.04-.77-.45-1.47-1.1-1.89l-.87.52c.65.42,1.05,1.12,1.1,1.88.03.28-.1.54-.32.7"/></g></g></g></g><g id="_组_2918"><g class="cls-1"><g id="_组_2917"><g id="_路径_6855"><path class="cls-41" d="m257.36,214.56l.87-.52c.22-.16.35-.42.32-.69,0-.29-.07-.57-.2-.83l-.87.52c.12.26.19.54.2.82.03.27-.1.54-.32.7"/></g><g id="_路径_6856"><path class="cls-41" d="m257.49,213.04l.87-.52c-.1-.21-.22-.41-.37-.59l-.87.51c.15.18.27.39.37.6"/></g><g id="_路径_6857"><path class="cls-41" d="m257.12,212.44l.88-.51c-.15-.19-.33-.34-.54-.47l-.88.52c.2.12.39.28.54.46"/></g></g></g></g><g id="_组_2920"><g class="cls-70"><g id="_组_2919"><g id="_路径_6859"><path class="cls-40" d="m256.59,211.98c-.61-.35-1.1-.07-1.11.62.04.77.45,1.47,1.1,1.88.61.35,1.1.07,1.11-.62-.04-.77-.45-1.47-1.1-1.88"/></g><g id="_路径_6860"><path class="cls-10" d="m243.57,220.57l-.47,1.1c-.14.32-.48.12-.62-.36l-.47-1.63c-.14-.48.03-.89.31-.73l.94.54c.31.27.43.69.31,1.08"/></g><g id="_路径_6861"><path class="cls-41" d="m241.88,220.11l-.87.51c.26-.12.56-.09.78.08l.87-.52c-.23-.16-.53-.19-.78-.07"/></g></g></g></g><g id="_组_2922"><g class="cls-80"><g id="_组_2921"><g id="_路径_6862"><path class="cls-41" d="m241.79,220.7l.87-.52c-.11-.06-.22-.1-.34-.13l-.87.51c.12.03.23.07.34.14"/></g><g id="_路径_6863"><path class="cls-41" d="m241.46,220.56l.87-.51c-.14-.04-.29-.02-.43.04l-.87.52c.13-.07.28-.08.43-.05"/></g><g id="_路径_6864"><path class="cls-41" d="m241.03,220.61l.87-.52-.02.02-.88.51h.02"/></g></g></g></g><g id="_组_2924"><g class="cls-95"><g id="_组_2923"><g id="_路径_6866"><path class="cls-41" d="m242.57,223.28l.87-.52c.22-.16.35-.42.32-.69-.04-.77-.45-1.47-1.1-1.89l-.87.52c.65.42,1.05,1.12,1.1,1.88.03.27-.1.54-.32.7"/></g></g></g></g><g id="_组_2926"><g class="cls-78"><g id="_组_2925"><g id="_路径_6867"><path class="cls-41" d="m242.57,223.28l.87-.52c.22-.16.35-.42.32-.69,0-.29-.07-.57-.2-.83l-.87.52c.12.26.19.54.2.82.03.27-.1.54-.32.7"/></g><g id="_路径_6868"><path class="cls-41" d="m242.7,221.76l.87-.52c-.1-.21-.22-.41-.37-.59l-.87.51c.15.18.27.39.37.6"/></g><g id="_路径_6869"><path class="cls-41" d="m242.33,221.16l.88-.51c-.15-.19-.33-.34-.54-.47l-.87.52c.2.12.38.28.53.46"/></g></g></g></g><g id="_组_2928"><g class="cls-65"><g id="_组_2927"><g id="_路径_6871"><path class="cls-40" d="m241.79,220.7c-.61-.35-1.1-.07-1.11.62.04.77.45,1.47,1.1,1.88.61.35,1.1.07,1.11-.62-.04-.77-.45-1.47-1.1-1.88"/></g><g id="_路径_6872"><path class="cls-22" d="m249.62,208.86c-.4,0-.73-.33-.73-.73v-26.05c0-.2.08-.38.22-.52l2.49-2.43c-.1-2.09-1.27-3.97-3.09-5l-8.34-4.61c-.35-.19-.49-.63-.3-.98.19-.35.63-.49.98-.3,0,0,.02,0,.02.01l8.35,4.61c2.37,1.34,3.83,3.85,3.84,6.57,0,.19-.08.38-.22.52l-2.5,2.44v25.74c0,.4-.33.73-.73.73"/></g><g id="_路径_6873"><path class="cls-18" d="m246.16,173.35c-.22,0-.44-.06-.63-.17l-5.32-3.07c-.6-.35-.81-1.11-.46-1.71.35-.6,1.11-.81,1.71-.46l5.32,3.07c.6.35.81,1.11.46,1.71-.22.39-.64.63-1.09.63"/></g><g id="_路径_6874"><path class="cls-22" d="m242.22,221.02c-.4,0-.73-.33-.73-.73v-4.6c.11-2.26,1.3-4.33,3.21-5.55l9.11-5.26c.98-.56,1.97-.64,2.74-.2s1.2,1.34,1.2,2.46v4.6c0,.4-.33.73-.73.73-.4,0-.73-.33-.73-.73v-4.6c.06-.46-.12-.91-.47-1.21-.43-.16-.92-.09-1.28.19l-9.1,5.26c-1.45.97-2.37,2.56-2.48,4.3v4.6c0,.4-.33.73-.73.73"/></g><g id="_路径_6875"><path class="cls-10" d="m257.36,212.52l-.47,1.09c-.14.32-.48.12-.62-.36l-.47-1.63c-.14-.48.03-.89.31-.73l.94.54c.31.27.43.69.31,1.08"/></g><g id="_路径_6876"><path class="cls-10" d="m242.57,221.23l-.47,1.09c-.14.32-.48.12-.62-.36l-.47-1.63c-.14-.48.03-.89.31-.73l.94.54c.31.27.43.69.31,1.08"/></g><g id="_路径_6877"><path class="cls-10" d="m258.36,220.57l-.47,1.1c-.14.32-.48.12-.62-.36l-.47-1.63c-.14-.48.03-.89.31-.73l.94.54c.31.27.43.69.31,1.08"/></g><g id="_路径_6878"><path class="cls-41" d="m256.67,220.11l-.87.51c.26-.12.56-.09.78.08l.87-.52c-.23-.16-.53-.19-.78-.07"/></g></g></g></g><g id="_组_2930"><g class="cls-68"><g id="_组_2929"><g id="_路径_6879"><path class="cls-41" d="m256.59,220.7l.87-.52c-.11-.06-.22-.1-.34-.13l-.87.51c.12.03.23.07.34.14"/></g><g id="_路径_6880"><path class="cls-41" d="m256.25,220.56l.87-.51c-.14-.04-.29-.02-.43.04l-.87.52c.13-.07.28-.08.43-.05"/></g><g id="_路径_6881"><path class="cls-41" d="m255.82,220.61l.87-.52-.02.02-.88.51h.02"/></g></g></g></g><g id="_组_2932"><g class="cls-76"><g id="_组_2931"><g id="_路径_6883"><path class="cls-41" d="m257.36,223.28l.87-.52c.22-.16.35-.42.32-.69-.04-.77-.45-1.47-1.1-1.89l-.87.52c.65.42,1.05,1.12,1.1,1.88.03.27-.1.54-.32.7"/></g></g></g></g><g id="_组_2934"><g class="cls-97"><g id="_组_2933"><g id="_路径_6884"><path class="cls-41" d="m257.36,223.28l.87-.52c.22-.16.35-.42.32-.69,0-.29-.07-.57-.2-.83l-.87.52c.12.26.19.54.2.82.03.27-.1.54-.32.7"/></g><g id="_路径_6885"><path class="cls-41" d="m257.49,221.76l.87-.52c-.1-.21-.22-.41-.37-.59l-.87.51c.15.18.27.39.37.6"/></g><g id="_路径_6886"><path class="cls-41" d="m257.12,221.16l.88-.51c-.15-.19-.33-.34-.54-.47l-.87.52c.2.12.39.28.54.46"/></g></g></g></g><g id="_组_2939"><g class="cls-89"><g id="_组_2938"><g id="_路径_6888"><path class="cls-40" d="m256.59,220.7c-.61-.35-1.1-.07-1.11.62.04.77.45,1.47,1.1,1.88.61.35,1.1.07,1.11-.62-.04-.77-.45-1.47-1.1-1.88"/></g><g id="_路径_6889"><path class="cls-22" d="m257.02,221.02c-.4,0-.73-.33-.73-.73v-4.6c-.11-1.74-1.03-3.33-2.48-4.3l-4.55-2.63c-.36-.18-.51-.61-.33-.97.18-.36.61-.51.97-.33.03.01.06.03.08.05l4.55,2.63c1.9,1.22,3.1,3.29,3.21,5.55v4.6c0,.4-.33.73-.73.73"/></g><g id="_路径_6890"><path class="cls-10" d="m257.36,221.23l-.47,1.09c-.14.32-.48.12-.62-.36l-.47-1.63c-.14-.48.03-.89.31-.73l.94.54c.31.27.43.69.31,1.08"/></g><g id="_路径_6891"><path class="cls-38" d="m244.55,169.21c.06-.95-1.17-2.19-1.91-2.74-.73-.54-1.65-.63-2.48-.97-.27-.12-.55-.24-.82-.37-.85.43-1.48,1.19-1.76,2.1-.03.15,1.39.66,1.82,1.07.65.64.97,1.55,1.33,2.34.31.58.96.88,1.6.74.94-.17,2.15-1.19,2.22-2.18"/></g><g id="_路径_6892"><path class="cls-42" d="m233.15,149.51c-.36,2.88-.68,6.35-.22,6.96.81,1.07,8.61,8.72,8.61,8.72,0,0,.17,1.53-.68,2.46-.82.9-1.44,1.37-2,1.14-.24-.09-10.79-7.89-10.79-7.89-.44-.34-.76-.8-.91-1.33-.05-.15-.08-.3-.08-.45v-.06s0-.44,0-.44h0c.03-2.42.45-7.06.78-10.25l5.29,1.15Z"/></g><g id="_路径_6893"><path class="cls-44" d="m209.76,204.61c0,.06,0,.29.03.63.2,1.76.58,3.5,1.14,5.18.37,1.25.78,2.47,1.1,3.63.23,2.33-1.49,3.02-.3,5.41.27.42.66.75,1.12.94.79.27,1.41.87,1.7,1.65.19.44.47.84.81,1.17,1.39,1.17,4.52.97,5.17-.1.92-1.5-3.52-4.47-4.92-7.11-.03-.05-.06-.11-.1-.18.03-1.75.13-3.56.3-5.41.36-3.89.99-7.97,1.68-12.12.18-1.04.82-1.95,1.04-2.97.17-.9.26-1.82.26-2.74.08-1.95.23-5.86.3-7.8.09-2.13.16-4.25.14-6.37h-8.97c.41,4.77.82,11.45,1.37,16.19-1.62,3.04-1.93,6.57-1.86,10"/></g><g id="_路径_6894"><path class="cls-30" d="m217.83,221.18c.83-.41.32-1.16.37-1.97,1.49,1.57,2.87,3,2.32,3.91-.65,1.07-3.78,1.27-5.17.1-.34-.33-.62-.73-.81-1.17-.33-.64-.67-1.32-1.7-1.65-.46-.19-.85-.52-1.12-.94-.74-1.49-.35-2.32-.01-3.3.55.96,1.04,1.96,1.49,2.97.52,1.54,2.58,2.57,4.63,2.06"/></g><g id="_路径_6895"><path class="cls-44" d="m220.81,193.27c.07-.96.31-1.92.3-2.88-.06-1.68-.25-3.36-.59-5.01-.5-1.71-1.21-4.06-1.93-6.58l8.43-.52c.45,3.07.99,6.86,1.1,8.68.15,2.47-.41,11.45-1.16,16.16-.39,2.32.02,4.64.73,6.9.99,3.16,5.64,7.17,4.66,7.96-.52.36-1.12.57-1.75.62-1.32.16-2.9-.12-3.73-1.14-.9-1.1-1.4-2.28-3.13-3.21-.48-.3-.85-.75-1.06-1.27-.52-2.56.71-2.44.82-4.33.14-2.52-3.05-10.04-2.71-15.37"/></g><g id="_路径_6896"><path class="cls-30" d="m226.02,214.49c1.06.45,2.66,1.38,4.17.77.26-.6-.15-1.16-.47-1.73,1.56,2.09,3.26,3.93,2.63,4.44-.52.36-1.12.57-1.75.62-1.32.16-2.9-.12-3.73-1.14-.9-1.1-1.4-2.28-3.13-3.21-.48-.3-.85-.75-1.06-1.27-.39-1.94.22-2.35.59-3.25.77,1.67,1.18,3.68,2.73,4.77"/></g><g id="_路径_6897"><path class="cls-25" d="m209.05,209.73c-.72-.88-2.33-9.87-.78-20.19,1.2-7.94-1.34-12.52.67-19.29.7-2.33,3.31-9.08,3.3-9.31-.04-2.79,4.85-1.86,9.2-1.28,3.21.43,7.28,5.44,7.28,5.44,0,0,2.17,27.03,1.25,39.9-.35,4.88-18,8.33-20.92,4.73"/></g><g id="_路径_6898"><path class="cls-12" d="m208.27,189.53c1.19-7.95-1.34-12.52.67-19.29.69-2.33,3.3-9.08,3.3-9.31-.04-2.8,4.85-1.86,9.2-1.29,3.21.43,7.28,5.45,7.28,5.45,0,0,.23,2.89.51,7.23-3.9,1.61-8.49,1.31-12.51,2.86-.91.39-1.57,1.21-1.75,2.18-.54,4.25-.98,8.29-2.07,12.44-1.53,5.24-1.86,10.58-1.53,16.04.11,2.02.73,4.04,2.39,5.36-2.19-.08-3.96-.54-4.72-1.47-.72-.88-2.33-9.87-.78-20.19"/></g><g id="_路径_6899"><path class="cls-55" d="m228.8,163.9c.02,1.81,1.62,5.45.74,7.13-3.3,2.74-10.28,2.44-14.61,1.73-1.91-.29-3.7-1.12-5.16-2.39-.05-.16-.1-.33-.15-.5v-.09c-.12-.48-.18-.97-.18-1.47v-.02c.01-2.51.85-4.92,1.4-7.36.57-2.54,1.24-5.1,1.7-7.63.37-2.02.9-3.99,1.43-5.99,1.61-6.12,8.42-7.12,10.04-6.89,2.56.33,5.01,1.27,7.14,2.73,1.73,1.25,2.93,4.52,2.23,6.97-.53,1.86-1.93,4.04-2.84,5.72-1.97,3.63-1.77,3.97-1.74,8.04"/></g><g id="_路径_6900"><path class="cls-48" d="m219.56,154.34c2.07-2.84,2.07-6.87.43-10.15-.39-.96-1.16-1.72-2.13-2.09,2.43-1.52,5.19-1.81,6.15-1.67,2.56.33,5.01,1.26,7.14,2.73,1.73,1.25,2.93,4.52,2.23,6.97-.53,1.86-1.93,4.04-2.84,5.72-1.97,3.63-1.77,3.97-1.74,8.04.02,1.81,1.62,5.45.75,7.13-3.27,2.71-10.14,2.45-14.47,1.75.53-3.21,1.04-6.45,1.33-9.71.26-3.14,1.35-6.15,3.16-8.73"/></g><g id="_路径_6901"><path class="cls-42" d="m210.84,160.94c.57-2.54,1.24-5.1,1.7-7.63.37-2.02.9-3.99,1.43-5.99.56-2.18,1.96-4.05,3.89-5.22.97.37,1.74,1.13,2.13,2.09,1.64,3.27,1.64,7.31-.43,10.15-1.81,2.58-2.9,5.59-3.16,8.73-.29,3.27-.8,6.5-1.33,9.71l-.14-.02c-1.91-.29-3.7-1.12-5.16-2.39-.05-.17-.1-.33-.16-.5v-.09c-.12-.48-.17-.97-.18-1.47v-.02c.01-2.52.85-4.92,1.4-7.36"/></g><g id="_路径_6902"><path class="cls-23" d="m228.79,144.39c-.97.22-1.98.14-2.9-.24-2.87-1.42-2.35-2.79-2.35-2.79l1.39-7.35,5.71,2.29s-.43,4.54-.76,6.1c-.21,1-.32,1.78-1.1,1.98"/></g><g id="_路径_6903"><path class="cls-38" d="m212.23,177.54c.03-.25.08-.62.14-1.09l-2.73-.38c.04.84,0,1.68-.12,2.51-.2,1.16-.61,2.28-.71,3.46-.13,1.42.49,2.6,1,3.9.05.14.12.27.22.38.1.12.27.16.41.1.2-.09.22-.35.21-.56.43.36,1.35,1.69,1.36.32,0-.71-.55-1.53-.76-2.2-.25-.81.01-1.7.67-2.23.23.35.36.77.37,1.19-.02.31,0,.62.08.93.09.31.38.52.7.51.48-.07.43-3.68-.07-5.58-.15-.48-.41-.91-.77-1.25"/></g><g id="_路径_6904"><path class="cls-18" d="m220.41,147.29c-.26-3.39-2.66-4.57-2.66-4.57-4.71-.82-8.17,14.06-8.17,14.06-.82,3.66-1.04,6.9-.9,8.8.17,2.37.22,8.89.09,12.19,1.32.98,3.67,0,4.25-.36.43-3.31,2.01-13.63,3.21-17.59.61-2.06,4.43-9.13,4.17-12.53"/></g><g id="_组_2937" class="cls-59"><g id="_组_2936"><g class="cls-79"><g id="_组_2935"><g id="_路径_6905"><path class="cls-48" d="m209.58,156.78s3.46-14.88,8.17-14.07c.18.1.36.21.52.34-9.27,7.53-8.94,21.02-8.2,31.9.08,1.08.19,2.16.31,3.23-.57.05-1.14-.1-1.61-.42.13-3.3.08-9.82-.09-12.19-.09-2.96.21-5.92.9-8.8"/></g></g></g></g></g><g id="_路径_6906"><path class="cls-45" d="m235.01,134.19c-1.02,3.93-2.4,7.84-5.01,8.77-.84.3-1.79.05-2.69-.42-.18-.09-.36-.2-.53-.31-.87-.57-1.65-1.27-2.32-2.07-.73-.89-.65-4.7-.52-5.98.39-4.04,3.32-3.41,6.29-4.42s5.79.5,4.77,4.43"/></g><g id="_路径_6907"><path class="cls-21" d="m230.68,132.86c1.45.1,3.36.43,4.55-.64.24-.22.44-.47.61-.74-.08-1.73-.72-1.98-2.61-3.88-1.29-1.28-2.35-2.39-4.09-.86-.3.26-.85.29-.59.45.72,3.68-4.87,5.25-2.3,7.36.71-1.41,3.03-1.79,4.42-1.69"/></g><g id="_路径_6908"><path class="cls-21" d="m219.19,141.17c.66-.65,1.09-1.51,1.21-2.44.04-.88-.38-1.71-.52-2.57-.1-1,.01-2.02.33-2.97.68-2.44,1.08-6.3,6.63-7.55,2.98-.67,4.75,2.45,3.24,3.96-.94,1.01-1.68,2.19-2.18,3.47l.02.12c.14,1.4.02,2.8-.88,3.96-.88,1.14-2.73,1.42-3.12,2.94-.1.61-.06,1.24.12,1.83l.04.17c.02.97-.58,1.84-1.49,2.16-1.61.64-3.21,1.45-4.14.07-.85-1.28-1.53-.9-1.54-1.04.17-.51,1.9-1.69,2.26-2.1"/></g></g></g></g></g></g></g><g id="_组_2963"><g class="cls-85"><g id="_组_2962"><g id="_组_2961"><g class="cls-61"><g id="_组_2960"><g id="_路径_6909"><path class="cls-14" d="m303.29,206.06c-.27,4.34-2.48,10.99-2.73,15.32,1.53,3.43.46,8.32-.05,11.59-.25,1.39-.58,2.76-1,4.11-.2.69-.4,1.38-.6,2.06-.12.49-.21.99-.27,1.49-.1.36-.41.62-.78.66-.36.03-.73-.02-1.07-.15-1.31-.45-2.59-.99-3.82-1.61-.27-.1-.51-.26-.72-.46-.21-.21-.27-.52-.16-.79.14-.27-.13-.53.17-.59.8-.18,3.5.68,3.5-.44-.49-3.15-.51-7.8-1.19-10.8-.22-.93-2.95-11.8-3.11-13.56-.21-2.14-.42-4.27-.49-6.41,0-.15,0-.32-.01-.46-.02-.42-.04-.84-.07-1.25,1.15-3.52,12.75-4.32,12.39,1.31"/></g><g id="_组_2944" class="cls-60"><g id="_组_2943"><g class="cls-58"><g id="_组_2942"><g id="_路径_6910"><path class="cls-44" d="m303.29,206.06c-.27,4.34-2.48,10.99-2.73,15.32.03.05.05.1.07.15-2.06.93-5.51.29-5.12,2.93.77,4.15.77,8.15.77,12.31-.07.34-.29.62-.6.77.06-.09.09-.19.09-.3-.49-3.15-.51-7.8-1.19-10.8-.22-.93-2.95-11.8-3.11-13.56-.21-2.14-.42-4.27-.49-6.41,0-.15,0-.32-.01-.46-.02-.42-.04-.84-.07-1.25,1.15-3.52,12.75-4.32,12.39,1.31"/></g></g></g></g></g><g id="_路径_6911"><path class="cls-20" d="m299.1,241.99l-.03.07c-.23.48-.68.81-1.21.88-.21,0-.42-.01-.62-.06-.22-.03-.44-.09-.65-.17-.21-.1-.42-.22-.61-.36-.19-.16-.37-.34-.53-.54-.54-.45-1.21-.74-1.91-.84-.7-.09-1.38-.3-2.01-.61-.29-.17-2.27-1.22-2.56-2.32-.1-.41,2.46-1.57,2.91-1.37.68.31,2.87,1,3.27,1.17-.84.06-3.46-.24-3.56-.17-.18.14-.12.43.02.61.15.19.34.34.55.46,1.13.65,2.38,1.07,3.67,1.25.45.1.9.17,1.36.19.18,0,1.47-.13,1.77-1.18.29.45.43.99.4,1.53.02.49-.07.99-.26,1.44"/></g><g id="_路径_6912"><path class="cls-45" d="m285.45,240.24c1.07.43,2.5.57,2.79-.76,1.28-5.79-.18-7.17-.42-13.04-.04-.98-3.23-10.91-1.75-19.6l11.44.8c-.25,6.7-1.61,11.61-3.3,15.31,2.92,8.34-1.76,14.86-2.56,17.63-.05.4.98,1.63.07,2.54-.35.35-10.45-1.32-8.93-2.83.41-.41,1.74-.4,2.67-.03"/></g><g id="_组_2947" class="cls-60"><g id="_组_2946"><g class="cls-71"><g id="_组_2945"><g id="_路径_6913"><path class="cls-44" d="m288.75,223.23c-.92,5.39,2.92,11.39-.46,16.31-.03.05-.07.09-.11.14.02-.07.04-.13.06-.2,1.27-5.79-.18-7.17-.42-13.04-.04-.97-3.23-10.91-1.75-19.6l11.44.79c-.23,6.15-1.4,10.8-2.9,14.38-2.2.9-5.45-.61-5.87,1.22"/></g></g></g></g></g><g id="_路径_6914"><path class="cls-50" d="m302.83,219.08c-1.57,2.03-4.39,2.38-6.68,2.57-3.5.26-7.03,0-10.45-.77-.55-.35-.97-.86-1.21-1.47-.31-.94-.42-1.93-.31-2.91.14-3.14.65-6.25,1.52-9.27.4-1.36.9-2.74,1.77-3.62,1.3-1.33,3.1-1.27,4.75-1.16,2.28.15,4.57.28,6.85.46,1.39.11,3.28-.05,4.05,1.86.7,1.73.64,4.36.83,6.24.15,1.49.31,3.01.33,4.52-.31,1.22-.7,2.59-1.44,3.55"/></g><g id="_路径_6915"><path class="cls-45" d="m282.85,174.43l-4.62.42-1.89,1.17c-.17.13-1.07.69-1.03,1.3.02.4.4,2.63,1.14,2.36.49-.18,4.29-2.21,4.29-2.21.27-.11,1.15-.13,1.3-.3l.97-1.14-.14-1.6Z"/></g><g id="_路径_6916"><path class="cls-28" d="m283.47,178.55c-.02.15-.25.28-.54.4l-3.27,1.31.05-.32s0-.06-.02-.09l2.45-.98s.08-.05.09-.1c.03-.23.07-.46.1-.69,0-.05-.02-.09-.06-.12l-6.85-5.42c-.11-.08-.25-.1-.37-.05l-7.43,2.98s-.08.05-.09.1l-.07.52-.17-.14c-.16-.1-.26-.28-.24-.48-.03.23-.07.46-.1.69,0,.19.08.37.25.48l7.1,5.61c.44.31,1,.39,1.5.22l7.05-2.83c.29-.12.52-.24.54-.4.03-.23.07-.46.1-.69"/></g><g id="_路径_6917"><path class="cls-57" d="m282.26,177.95l-6.85-5.41c-.11-.08-.25-.1-.38-.05l-7.42,2.98c-.06.01-.1.07-.09.13,0,.03.03.06.06.08l6.85,5.42c.11.08.25.1.38.06l7.43-2.98c.06-.01.1-.08.09-.14,0-.03-.03-.06-.06-.08"/></g><g id="_路径_6918"><path class="cls-27" d="m279.02,179.66c.2-.07.42-.04.59.08.15.12.13.27-.05.34l-.65.26c-.2.07-.42.04-.59-.08-.15-.12-.13-.27.05-.34l.65-.26Z"/></g><g id="_路径_6919"><path class="cls-29" d="m274.45,172.25c.51-.17,1.07-.09,1.51.22l7.34,5.8c.37.3.08.5-.37.68l-7.05,2.83c-.51.17-1.07.09-1.5-.21l-7.1-5.61c-.23-.12-.32-.4-.2-.63.07-.13.19-.22.33-.24l7.05-2.83Zm7.81,5.7l-6.85-5.41c-.11-.08-.25-.1-.37-.05l-7.43,2.98c-.11.05-.13.14-.03.22l6.85,5.41c.11.07.25.09.37.05l7.43-2.98c.06-.01.1-.07.09-.13,0-.04-.03-.07-.06-.08m-2.71,2.13c.18-.07.2-.22.05-.34-.17-.12-.39-.15-.59-.08l-.66.26c-.18.07-.2.22-.05.34.17.12.39.15.6.08l.65-.26Z"/></g><g id="_路径_6920"><path class="cls-33" d="m281.87,174.06c-1.23.25-1.42,3.22.54,3.5l7.5,1.32c1.94.3,3.76-1.03,4.06-2.98.3-1.94-1.03-3.76-2.98-4.06-.03,0-.06,0-.09-.01,0,0-6.75,1.76-9.03,2.23"/></g><g id="_路径_6921"><path class="cls-8" d="m289.61,174.43c.4-.63,3.85-1.85,6.75-1.85s4.34-2.58,4.34.32-.42,16.12-3.32,16.12-9.33-12.16-7.77-14.59"/></g><g id="_路径_6922"><path class="cls-23" d="m297.09,170.39c0,1.7-5.91.43-5.91.43v-3.23l5.79-.38.12,2.34s0,.83,0,.84"/></g><g id="_路径_6923"><path class="cls-4" d="m297.86,164.78c-2.83,2.97-3.95,2.92-6.77.93s-4-4.82-3.33-9.01c.72-4.45,6.02-5.58,9.4-3.52,6.45,3.93,4.22,7.91.7,11.6"/></g><g id="_路径_6924"><path class="cls-45" d="m296.64,161.91c-.17,1.26.32,3.04-.28,3.89-2.76,3.92-7.11,2.2-7.11,2.2-1.94-1.54-2.46-4.84-2.46-8.88s3.4-4.76,5.63-3.04c2.23,1.72,4.75,1.84,4.22,5.83"/></g><g id="_组_2950" class="cls-60"><g id="_组_2949"><g class="cls-98"><g id="_组_2948"><g id="_路径_6925"><path class="cls-44" d="m289.16,155.32c-1.48,2.64-1.71,5.74-1.28,8.72.2,1.65.9,3.44,2.26,4.21-.3-.06-.6-.14-.89-.24-1.94-1.54-2.46-4.84-2.46-8.88,0-2.24,1.05-3.46,2.37-3.81"/></g></g></g></g></g><g id="_路径_6926"><path class="cls-4" d="m301.21,157.83c-.24-1.75-4.44-1.92-4.44-1.92-.31-.24-2.15-6.97-9.16-1.49-1.46,1.14-.62,5.54.88,7.86.19.27.48.44.81.47,1.33.2,3.55-.92,3.85-.67.36.29-1.25.59-.12,2.57.15.27.3.54.44.78.6,1.08,1.32,3.3,4.13,1.45.2-.17,4.88-5.04,3.61-9.05"/></g><g id="_路径_6927"><path class="cls-44" d="m293.58,163.02c-.54.85-1.11,1.29-1.68,1.07s-.72-.91-.37-1.85,1.37-1.44,1.94-1.23.72,1.05.11,2.01"/></g><g id="_路径_6928"><path class="cls-15" d="m289.51,172.06c-.02-.37,1.36-2.93,1.68-2.68,1.21.96,4.25.72,5.11.28.46-.28.75-.78.74-1.33,0,0,5.14,4.23-1.55,5.53-1.37.29-2.79.14-4.07-.42-1.05-.5-2.88-.43-1.91-1.39"/></g><g id="_路径_6929"><path class="cls-34" d="m304.9,214.28c-.71.95-1.73,1.6-2.89,1.85-1.76.45-3.66.46-5.47.59-2.24.24-4.49.17-6.71-.21-2.31-.4-4.39-1.64-5.83-3.5l-.02-.03c-1.64-8.45,1.71-16.73,2.17-22.39.2-2.42-.88-4.26-1.23-5.2-3.03-8.15-1.05-10.78,4.95-13.97,0,0,1.83,2.08,5.9,1.19,4.14-.91,2.37-3.37,2.37-3.37,5.99-.77,5.58,5.42,4.79,8.93-.29,1.32-2.21,7.34-1.13,12.34.54,2.51.79,2.27,1.77,5.51,1.8,5.8,2.33,11.91,1.56,17.93-.07.1-.14.21-.22.32"/></g><g id="_路径_6930"><path class="cls-45" d="m273.03,181.7c.05.3.33.51.64.46,0,0,0,0,0,0,.3-.05.51-.33.46-.63,0,0,0,0,0,0l-.47-3.01c-.05-.3-.33-.51-.64-.47-.3.05-.51.33-.47.64l.47,3.01Z"/></g><g id="_路径_6931"><path class="cls-45" d="m273.98,182.41l-.82-2.83-1.23-1.99c-.14-.18-.73-1.12-1.36-1.08-.42.02-2.77.42-2.49,1.19.19.51,2.16,4.03,2.16,4.03.64.39,1.16.93,1.52,1.59l.14,1.26,2.07-2.17Z"/></g><g id="_路径_6932"><path class="cls-33" d="m274.04,180.39s3.66,4.14,4.9,4.14c1.07,0,5.55-9.52,5.55-9.52,1.17-1.67,3.47-2.07,5.14-.9,0,0,0,0,0,0,1.66,1.18,1.25,4.61.06,6.28l-7.63,10.66c-.97,1.37-2.73,1.92-4.31,1.34-.67-.18-1.26-.56-1.68-1.11-1.58-2.16-5.56-8.91-5.68-9.11,1.7-1.66,1.68-1.49,3.64-1.78"/></g><g id="_路径_6933"><path class="cls-37" d="m298.9,155.99c.64-1.37,2.87.11,3.88,1.43,1.48,1.95,2.09,4.54,2.43,6.92.34,2.29.33,4.62-.02,6.92-.25,1.64-1.02,3.13-1.02,4.83,0,.9-.11,1.77.28,2.6.73,1.52,1.92,2.6,3.66,2.79-.54-.19-1.11.23-1.64.4-.88.26-1.79.41-2.71.46-.98.07-1.95.35-2.93.03-1.39-.46-2.55-2-3.38-3.12-1.26-1.71-1.44-3.72-1.38-5.78.04-1.47.2-3.44,1.12-4.61,1.01-1.28,1.54-3.07,1.9-4.64.22-.76.37-1.53.47-2.31.03-.47-.03-.95.03-1.42.16-1.4-1.4-2.96-.69-4.49"/></g><g id="_组_2953" class="cls-60"><g id="_组_2952"><g class="cls-75"><g id="_组_2951"><g id="_路径_6934"><path class="cls-37" d="m308.12,181.48c-.11-.01-.22-.03-.33-.05.11,0,.22,0,.33.05"/></g></g></g></g></g><g id="_组_2956" class="cls-83"><g id="_组_2955"><g class="cls-64"><g id="_组_2954"><g id="_路径_6935"><path class="cls-37" d="m296.08,173.46c.04-1.47.19-3.44,1.12-4.61,1.01-1.28,1.54-3.07,1.9-4.64.22-.76.37-1.53.47-2.31.03-.47-.03-.95.03-1.42.16-1.4-1.4-2.96-.69-4.49l.02-.04c.45.4.72.96.75,1.56.61,3.08,1.08,6,0,8.93-.92,2.92-2.77,5.54-2.31,8.77.6,3.21,2.77,5.91,5.78,7.18-.76.16-1.55.15-2.31-.04-1.39-.46-2.56-2-3.38-3.12-1.26-1.71-1.44-3.72-1.38-5.78"/></g></g></g></g></g><g id="_组_2959" class="cls-60"><g id="_组_2958"><g class="cls-74"><g id="_组_2957"><g id="_路径_6936"><path class="cls-37" d="m303.21,177.68c-.46-4.62.92-9.08.77-13.7-.13-2.79-.95-7.64-4.05-8.52.93.11,2.17,1.08,2.85,1.97,1.48,1.95,2.08,4.54,2.43,6.92.34,2.29.33,4.62-.02,6.92-.25,1.63-1.02,3.13-1.02,4.83,0,.9-.12,1.77.28,2.59.68,1.42,1.76,2.46,3.33,2.75-.46.09-.9.24-1.32.44-.26.08-.5.14-.75.2-1.39-1.07-2.29-2.65-2.51-4.39"/></g></g></g></g></g><g id="_路径_6937"><path class="cls-20" d="m292.33,243.88l-.03.08c-.16.5-.57.89-1.08,1.03-.21.03-.42.04-.62.02-.22,0-.44-.03-.66-.08-.22-.07-.44-.17-.65-.28-.21-.13-.41-.29-.6-.46-.6-.38-1.29-.58-2-.58-.71,0-1.41-.11-2.08-.33-.31-.13-2.42-.91-2.84-1.97-.14-.41-.11-.87.08-1.26.24-.44.69-.72,1.19-.73.49,0,.98.09,1.44.26.72.22,1.25.43,1.96.65.21.07.42.15.84.27-.82.17-1.77-.05-2.61,0-.13,0-.25.03-.35.11-.16.16-.06.44.09.6.18.17.38.29.61.38,1.21.49,2.5.75,3.8.76.46.02,2.77.49,3.02-1.23.33.35.53.81.55,1.29.09.49.06.99-.07,1.47"/></g></g></g></g></g></g></g></g></g></svg>