<?xml version="1.0" encoding="UTF-8"?><svg id="_圖層_1" xmlns="http://www.w3.org/2000/svg" xmlns:xlink="http://www.w3.org/1999/xlink" viewBox="0 0 420 392.23"><defs><style>.cls-1{clip-path:url(#clippath-20);}.cls-2{clip-path:url(#clippath-11);}.cls-3{clip-path:url(#clippath-16);}.cls-4{fill:#b3d6e0;}.cls-4,.cls-5,.cls-6,.cls-7,.cls-8,.cls-9,.cls-10,.cls-11,.cls-12,.cls-13,.cls-14,.cls-15,.cls-16,.cls-17,.cls-18,.cls-19,.cls-20,.cls-21,.cls-22,.cls-23{stroke-width:0px;}.cls-5{fill:#e6e7e8;}.cls-24{clip-path:url(#clippath-2);}.cls-25{clip-path:url(#clippath-13);}.cls-6{fill:#f7f7f7;}.cls-8{fill:#e0e0e0;}.cls-9{fill:#effcfa;}.cls-26{clip-path:url(#clippath-15);}.cls-27{clip-path:url(#clippath-6);}.cls-10{fill:#c2c2c2;}.cls-11{fill:#f5f5f5;}.cls-12{fill:none;}.cls-28{opacity:.4;}.cls-13{fill:#e31b25;}.cls-29{clip-path:url(#clippath-7);}.cls-30{clip-path:url(#clippath-21);}.cls-31{clip-path:url(#clippath-1);}.cls-32{clip-path:url(#clippath-4);}.cls-33{opacity:.3;}.cls-14{fill:#2e363d;}.cls-34{clip-path:url(#clippath-12);}.cls-15{fill:#fff;}.cls-35{opacity:.6;}.cls-16{fill:#a0a0a0;}.cls-17{fill:#24d2c1;}.cls-36{clip-path:url(#clippath-9);}.cls-37{clip-path:url(#clippath);}.cls-18{fill:#16a89f;}.cls-19{fill:#d1d3d4;}.cls-20{fill:#535359;}.cls-21{fill:#16bfab;}.cls-38{clip-path:url(#clippath-19);}.cls-39{clip-path:url(#clippath-3);}.cls-40{opacity:.1;}.cls-22{fill:#1c9ae9;}.cls-41{clip-path:url(#clippath-8);}.cls-42{clip-path:url(#clippath-18);}.cls-43{clip-path:url(#clippath-14);}.cls-44{clip-path:url(#clippath-17);}.cls-45{clip-path:url(#clippath-5);}.cls-46{clip-path:url(#clippath-10);}.cls-23{fill:#5b5b5b;}</style><clipPath id="clippath"><rect class="cls-12" x="0" width="420" height="392.23"/></clipPath><clipPath id="clippath-1"><rect class="cls-12" x="0" width="420" height="392.23"/></clipPath><clipPath id="clippath-2"><rect class="cls-12" x="35.24" y="278.14" width="21.15" height="14.01"/></clipPath><clipPath id="clippath-3"><rect class="cls-12" x="17.74" y="296.4" width="21.15" height="14.01"/></clipPath><clipPath id="clippath-4"><rect class="cls-12" x="50.21" y="292.51" width="21.15" height="14.01"/></clipPath><clipPath id="clippath-5"><rect class="cls-12" x="132.1" y="32.73" width="150.1" height="247.16"/></clipPath><clipPath id="clippath-6"><rect class="cls-12" x="112.09" y="7.97" width="197.53" height="302.38"/></clipPath><clipPath id="clippath-7"><rect class="cls-12" x="134.76" y="69.62" width="54.55" height="38.84"/></clipPath><clipPath id="clippath-8"><rect class="cls-12" x="185.28" y="50.81" width="35.33" height="9.42"/></clipPath><clipPath id="clippath-9"><rect class="cls-12" x="202.26" y="80.18" width="66.85" height="9.05"/></clipPath><clipPath id="clippath-10"><rect class="cls-12" x="202.26" y="89.33" width="66.85" height="9.05"/></clipPath><clipPath id="clippath-11"><rect class="cls-12" x="202.26" y="97.9" width="66.85" height="9.05"/></clipPath><clipPath id="clippath-12"><rect class="cls-12" x="135.6" y="246.4" width="66.48" height="8.75"/></clipPath><clipPath id="clippath-13"><rect class="cls-12" x="194.48" y="125.7" width="74.75" height="13.03"/></clipPath><clipPath id="clippath-14"><rect class="cls-12" x="134.46" y="134.58" width="134.81" height="18.84"/></clipPath><clipPath id="clippath-15"><rect class="cls-12" x="134.46" y="150.39" width="134.81" height="18.84"/></clipPath><clipPath id="clippath-16"><rect class="cls-12" x="134.46" y="165.07" width="134.81" height="18.84"/></clipPath><clipPath id="clippath-17"><rect class="cls-12" x="208.27" y="17.22" width="31.79" height="15.56"/></clipPath><clipPath id="clippath-18"><rect class="cls-12" x="204.5" y="253.01" width="215.5" height="125.38"/></clipPath><clipPath id="clippath-19"><rect class="cls-12" x="61.55" y="296.44" width="113.6" height="65.59"/></clipPath><clipPath id="clippath-20"><rect class="cls-12" x="97.96" y="370.53" width="34.51" height="21.7"/></clipPath><clipPath id="clippath-21"><rect class="cls-12" x="83.8" y="378.7" width="21.55" height="12.41"/></clipPath></defs><g class="cls-37"><g id="_组_5057"><g id="_组_5056"><g class="cls-31"><g id="_组_5055"><path id="_路径_10653" class="cls-4" d="m230.09,205.38l-63.27-36.53c-4.5-2.29-9.83-2.29-14.33,0L2.95,255.76c-3.95,2.29-3.92,6.01.05,8.3l63.27,36.53c4.5,2.29,9.83,2.29,14.33,0l149.54-86.91c3.94-2.29,3.92-6.01-.05-8.3"/><path id="_路径_10654" class="cls-8" d="m162.86,186.18l-.02,5.08c0,1.27-.83,2.53-2.5,3.5-3.82,1.94-8.33,1.94-12.15,0-1.7-.98-2.54-2.26-2.54-3.54l.02-5.08c0,1.28.84,2.56,2.53,3.54,3.82,1.94,8.33,1.94,12.15,0,1.66-.97,2.49-2.23,2.5-3.5"/><path id="_路径_10655" class="cls-15" d="m160.33,182.64c3.37,1.94,3.38,5.1.03,7.04-3.82,1.94-8.33,1.94-12.15,0-3.37-1.94-3.38-5.1-.04-7.04,3.82-1.94,8.34-1.94,12.15,0"/><path id="_路径_10656" class="cls-8" d="m202.57,209.11l-.02,5.08c0,1.27-.83,2.53-2.5,3.5-3.82,1.94-8.33,1.94-12.15,0-1.7-.98-2.54-2.26-2.54-3.55l.02-5.08c0,1.28.84,2.57,2.54,3.55,3.82,1.94,8.33,1.94,12.15,0,1.66-.97,2.49-2.23,2.5-3.5"/><path id="_路径_10657" class="cls-15" d="m200.04,205.56c3.37,1.94,3.38,5.1.04,7.04-3.82,1.94-8.33,1.94-12.15,0-3.37-1.95-3.39-5.1-.04-7.04,3.82-1.94,8.34-1.94,12.15,0"/><path id="_路径_10658" class="cls-8" d="m134.7,202.55l-.02,5.08c0,1.27-.83,2.53-2.5,3.5-3.82,1.94-8.33,1.94-12.15,0-1.7-.98-2.54-2.26-2.54-3.54l.02-5.08c0,1.28.84,2.56,2.53,3.54,3.82,1.94,8.33,1.94,12.15,0,1.66-.97,2.49-2.23,2.5-3.5"/><path id="_路径_10659" class="cls-15" d="m132.16,199.01c3.37,1.94,3.38,5.09.04,7.04-3.82,1.94-8.33,1.94-12.15,0-3.37-1.94-3.38-5.1-.04-7.04,3.82-1.94,8.33-1.94,12.15,0"/><path id="_路径_10660" class="cls-8" d="m174.4,225.48l-.02,5.08c0,1.27-.83,2.53-2.5,3.5-3.82,1.94-8.33,1.94-12.15,0-1.7-.98-2.54-2.26-2.54-3.55l.02-5.08c0,1.28.84,2.57,2.54,3.55,3.82,1.94,8.33,1.94,12.15,0,1.66-.97,2.49-2.23,2.5-3.5"/><path id="_路径_10661" class="cls-15" d="m171.87,221.93c3.36,1.94,3.38,5.1.04,7.04-3.82,1.94-8.33,1.94-12.15,0-3.37-1.95-3.39-5.1-.04-7.04,3.82-1.94,8.34-1.94,12.16,0"/><path id="_路径_10662" class="cls-8" d="m106.53,218.92l-.02,5.08c0,1.27-.83,2.53-2.5,3.5-3.82,1.94-8.34,1.94-12.15,0-1.69-.98-2.54-2.26-2.53-3.54l.02-5.08c0,1.28.84,2.56,2.53,3.54,3.82,1.94,8.34,1.94,12.16,0,1.66-.97,2.49-2.23,2.5-3.5"/><path id="_路径_10663" class="cls-15" d="m103.99,215.38c3.37,1.94,3.38,5.1.04,7.04-3.82,1.94-8.34,1.94-12.15,0-3.36-1.94-3.38-5.1-.03-7.04,3.82-1.94,8.33-1.94,12.15,0"/><path id="_路径_10664" class="cls-8" d="m146.24,241.85l-.02,5.08c0,1.27-.83,2.53-2.5,3.5-3.82,1.94-8.34,1.94-12.15,0-1.7-.98-2.54-2.26-2.54-3.55v-5.08c.01,1.28.86,2.57,2.55,3.55,3.82,1.94,8.34,1.94,12.15,0,1.66-.97,2.49-2.23,2.5-3.5"/><path id="_路径_10665" class="cls-15" d="m143.7,238.3c3.37,1.94,3.38,5.1.04,7.04-3.82,1.94-8.33,1.94-12.15,0-3.37-1.95-3.39-5.1-.04-7.04,3.82-1.94,8.34-1.94,12.15,0"/><path id="_路径_10666" class="cls-8" d="m78.36,235.29l-.02,5.08c0,1.27-.83,2.53-2.5,3.5-3.82,1.94-8.33,1.94-12.15,0-1.7-.98-2.54-2.26-2.54-3.54l.02-5.08c0,1.28.84,2.56,2.53,3.54,3.82,1.94,8.33,1.94,12.15,0,1.66-.97,2.49-2.23,2.5-3.5"/><path id="_路径_10667" class="cls-15" d="m75.82,231.75c3.37,1.94,3.38,5.1.04,7.04-3.82,1.94-8.33,1.94-12.15,0-3.37-1.94-3.38-5.1-.04-7.04,3.82-1.94,8.33-1.94,12.15,0"/><path id="_路径_10668" class="cls-8" d="m118.06,258.22l-.02,5.09c0,1.27-.83,2.53-2.5,3.5-3.82,1.94-8.33,1.94-12.15,0-1.7-.98-2.54-2.26-2.54-3.55l.02-5.08c0,1.28.84,2.57,2.54,3.55,3.82,1.94,8.33,1.94,12.15,0,1.66-.97,2.49-2.23,2.5-3.5"/><path id="_路径_10669" class="cls-15" d="m115.53,254.67c3.37,1.94,3.38,5.1.04,7.04-3.82,1.94-8.33,1.94-12.15,0-3.37-1.95-3.39-5.1-.04-7.04,3.82-1.94,8.34-1.94,12.15,0"/><path id="_路径_10670" class="cls-8" d="m50.19,251.66l-.02,5.08c0,1.27-.83,2.53-2.5,3.5-3.82,1.94-8.33,1.94-12.15,0-1.7-.98-2.54-2.26-2.54-3.54l.02-5.08c0,1.28.84,2.56,2.53,3.54,3.82,1.94,8.33,1.94,12.15,0,1.66-.97,2.49-2.23,2.5-3.5"/><path id="_路径_10671" class="cls-15" d="m47.65,248.12c3.37,1.94,3.38,5.1.04,7.04-3.82,1.94-8.33,1.94-12.15,0-3.37-1.94-3.38-5.1-.04-7.04,3.82-1.94,8.33-1.94,12.15,0"/><path id="_路径_10672" class="cls-8" d="m89.89,274.59l-.02,5.08c0,1.27-.83,2.53-2.5,3.5-3.82,1.94-8.33,1.94-12.15,0-1.7-.98-2.54-2.26-2.54-3.55l.02-5.08c0,1.28.84,2.57,2.54,3.55,3.82,1.94,8.33,1.94,12.15,0,1.66-.97,2.49-2.23,2.5-3.5"/><path id="_路径_10673" class="cls-15" d="m87.36,271.04c3.37,1.94,3.38,5.1.04,7.04-3.82,1.94-8.33,1.94-12.15,0-3.37-1.95-3.39-5.1-.05-7.04,3.82-1.94,8.34-1.94,12.15,0"/><g id="_组_4997" class="cls-33"><g id="_组_4996"><g class="cls-24"><g id="_组_4995"><path id="_路径_10674" class="cls-7" d="m51.66,291.95c-5.43.72-10.87-1.19-14.66-5.14-3.23-3.76-1.9-7.55,2.96-8.47,5.43-.72,10.88,1.19,14.66,5.14,3.23,3.76,1.9,7.55-2.97,8.47"/></g></g></g></g><path id="_路径_10675" class="cls-10" d="m51.61,290.97c2.34-.43,3.82-1.55,4.32-3.02l1.37-3.94-19.77-6.91-1.38,3.93c-.51,1.45-.05,3.26,1.47,5.05,3.62,3.76,8.81,5.58,13.98,4.9"/><path id="_路径_10676" class="cls-6" d="m52.99,287.04c.28-.05.57-.12.84-.2l.45.53.32-.78c3.31-1.32,3.94-4.48,1.24-7.62-3.18-3.32-7.6-5.17-12.2-5.1l-.26.78-2.49.33-.45-.53c-3.46,1.28-4.16,4.49-1.42,7.68,3.61,3.76,8.8,5.58,13.97,4.9"/><path id="_路径_10677" class="cls-10" d="m53.84,286.83l-10.46-12.17-2.49.33,11.11,12.93c.78-.1,1.54-.28,2.28-.55l-.44-.54Z"/><g id="_组_5000" class="cls-33"><g id="_组_4999"><g class="cls-39"><g id="_组_4998"><path id="_路径_10678" class="cls-7" d="m34.16,310.21c-5.43.72-10.87-1.19-14.66-5.14-3.23-3.76-1.9-7.55,2.97-8.47,5.43-.72,10.87,1.19,14.66,5.14,3.23,3.76,1.9,7.55-2.97,8.47"/></g></g></g></g><path id="_路径_10679" class="cls-10" d="m34.11,309.23c2.35-.43,3.82-1.55,4.32-3.02l1.37-3.94-19.76-6.92-1.38,3.93c-.51,1.46-.06,3.27,1.47,5.05,3.62,3.76,8.81,5.58,13.98,4.9"/><path id="_路径_10680" class="cls-6" d="m35.49,305.31c.3-.05.58-.14.84-.2l.45.53.32-.78c3.31-1.31,3.94-4.47,1.24-7.61-3.19-3.31-7.6-5.16-12.2-5.1l-.26.79-2.49.33-.45-.53c-3.46,1.28-4.16,4.49-1.42,7.68,3.61,3.77,8.8,5.59,13.97,4.91"/><path id="_路径_10681" class="cls-10" d="m36.34,305.09l-10.46-12.17-2.49.33,11.12,12.93c.78-.1,1.54-.28,2.27-.56l-.44-.54Z"/><g id="_组_5003" class="cls-33"><g id="_组_5002"><g class="cls-32"><g id="_组_5001"><path id="_路径_10682" class="cls-7" d="m66.63,306.32c-5.43.72-10.87-1.19-14.66-5.14-3.23-3.76-1.9-7.55,2.97-8.47,5.43-.72,10.87,1.19,14.66,5.14,3.23,3.76,1.9,7.55-2.97,8.47"/></g></g></g></g><path id="_路径_10683" class="cls-10" d="m52.62,300.49c-1.57-1.8-2.02-3.59-1.5-5.06l1.39-3.93,19.75,6.94-1.38,3.93c-.51,1.46-1.99,2.59-4.29,3.02-5.17.68-10.36-1.14-13.97-4.9"/><path id="_路径_10684" class="cls-6" d="m53.99,296.56c-.19-.22-.37-.45-.53-.68l-.69.13.25-.8c-1.77-3.09-.29-5.95,3.77-6.72,4.08-.77,9.4.81,12.72,3.63l-.29.77,1.73,1.81.68-.13c1.91,3.16.44,6.11-3.68,6.89-5.17.68-10.36-1.13-13.97-4.89"/><path id="_路径_10685" class="cls-10" d="m53.46,295.86l15.78-2.97,1.73,1.81-16.75,3.16c-.55-.56-1.03-1.18-1.43-1.85l.68-.15Z"/><path id="_路径_10686" class="cls-14" d="m233.9,4.62l-7.3,10.17-10.42-.35-1.74-10.62,19.46.8Z"/><path id="_路径_10687" class="cls-23" d="m233.9,4.62l-7.3,10.17-10.42-.35-1.74-10.62,19.46.8Z"/><path id="_路径_10688" class="cls-21" d="m314.95,34.19v264.94c0,6.71-4.86,11.92-10.4,11.14l-176.76-24.96c-5.91-.84-10.37-6.87-10.37-14.04V19.19c0-6.45,4.5-11.57,9.84-11.2l176.61,12.09c6.21.43,11.07,6.62,11.07,14.11"/><path id="_路径_10689" class="cls-17" d="m309.62,34.19v264.94c0,6.71-4.86,11.92-10.4,11.14l-176.76-24.96c-5.91-.84-10.37-6.87-10.37-14.04V19.19c0-6.45,4.5-11.57,9.84-11.2l176.61,12.09c6.21.43,11.07,6.62,11.07,14.11"/><path id="_路径_10690" class="cls-9" d="m282.2,44.51l-150.1-11.78v225.62l149.42,21.54.68-235.38Z"/><g id="_组_5006"><g id="_组_5005"><g class="cls-45"><g id="_组_5004"><path id="_路径_10691" class="cls-9" d="m282.2,44.51l-150.1-11.78v225.62l149.42,21.54.68-235.38Z"/></g></g></g></g><path id="_路径_10692" class="cls-15" d="m277.45,41.56l-150.1-11.78v225.62l149.42,21.54.68-235.38Z"/><g id="_组_5009" class="cls-40"><g id="_组_5008"><g class="cls-27"><g id="_组_5007"><path id="_路径_10693" class="cls-14" d="m121.94,7.99l17.44,1.19c5.96,139.34,55.58,241.98,170.24,289.95,0,6.71-4.86,11.92-10.4,11.14l-176.76-24.95c-5.91-.83-10.37-6.87-10.37-14.04V19.19c0-6.45,4.5-11.57,9.84-11.2"/></g></g></g></g><g id="_组_5012" class="cls-35"><g id="_组_5011"><g class="cls-29"><g id="_组_5010"><path id="_路径_10694" class="cls-14" d="m189.32,74.34l-54.53-4.72-.02,33.78,54.54,5.05.02-34.12Z"/></g></g></g></g><g id="_组_5015" class="cls-28"><g id="_组_5014"><g class="cls-41"><g id="_组_5013"><rect id="_矩形_2009" class="cls-14" x="199.61" y="38.07" width="6.66" height="34.91" transform="translate(131.4 253.38) rotate(-85.42)"/></g></g></g></g><g id="_组_5018" class="cls-28"><g id="_组_5017"><g class="cls-36"><g id="_组_5016"><rect id="_矩形_2011" class="cls-14" x="234.01" y="51.31" width="3.33" height="66.79" transform="translate(131.01 312.22) rotate(-85.07)"/></g></g></g></g><g id="_组_5021" class="cls-28"><g id="_组_5020"><g class="cls-46"><g id="_组_5019"><rect id="_矩形_2013" class="cls-14" x="234.01" y="60.45" width="3.33" height="66.79" transform="translate(121.9 320.58) rotate(-85.07)"/></g></g></g></g><g id="_组_5024" class="cls-28"><g id="_组_5023"><g class="cls-2"><g id="_组_5022"><rect id="_矩形_2015" class="cls-14" x="234.01" y="69.03" width="3.33" height="66.79" transform="translate(113.35 328.42) rotate(-85.07)"/></g></g></g></g><g id="_组_5027" class="cls-28"><g id="_组_5026"><g class="cls-34"><g id="_组_5025"><path id="_路径_10695" class="cls-14" d="m201.97,255.15l.13-.95-66.36-7.8-.12.96,66.36,7.8Z"/></g></g></g></g><g id="_组_5030" class="cls-28"><g id="_组_5029"><g class="cls-25"><g id="_组_5028"><path id="_路径_10696" class="cls-14" d="m268.45,138.74l.77-6.67-73.33-6.37-1.42,6.59,73.97,6.45Z"/></g></g></g></g><g id="_组_5033" class="cls-28"><g id="_组_5032"><g class="cls-43"><g id="_组_5031"><rect id="_矩形_2019" class="cls-14" x="198.54" y="76.62" width="6.66" height="134.76" transform="translate(40.14 331.96) rotate(-84.79)"/></g></g></g></g><g id="_组_5036" class="cls-28"><g id="_组_5035"><g class="cls-26"><g id="_组_5034"><rect id="_矩形_2021" class="cls-14" x="198.54" y="92.43" width="6.66" height="134.76" transform="translate(24.39 346.34) rotate(-84.79)"/></g></g></g></g><g id="_组_5039" class="cls-28"><g id="_组_5038"><g class="cls-3"><g id="_组_5037"><rect id="_矩形_2023" class="cls-14" x="198.54" y="107.12" width="6.66" height="134.76" transform="translate(9.77 359.69) rotate(-84.79)"/></g></g></g></g><path id="_路径_10697" class="cls-16" d="m159.75,36.94c67.7,4.95,84.95,6.5,84.95,6.5,0,0,4.74-20.3-20.08-27.94h-.04c-.8-.27-1.69-.5-2.57-.73-11.89-2.95-24.89-3.61-35.94-1.38h-.08c-14.95,2.11-25.79,8.63-26.25,23.55"/><path id="_路径_10698" class="cls-16" d="m222.01,14.79l6.84-12.45-44.57-2.34,2.74,13.22,34.99,1.57Z"/><g id="_组_5042"><g id="_组_5041"><g class="cls-44"><g id="_组_5040"><path id="_路径_10699" class="cls-14" d="m238.15,32.79c.46,0,.9-.16,1.25-.46.8-.69.9-1.9.21-2.7-11.66-13.58-28.84-12.41-29.56-12.35-1.06.1-1.83,1.03-1.74,2.08.09,1.04,1,1.81,2.04,1.74.15-.02,16-1.05,26.36,11.02.36.43.9.67,1.46.67"/></g></g></g></g><g id="_组_5045" class="cls-33"><g id="_组_5044"><g class="cls-42"><g id="_组_5043"><path id="_路径_10700" class="cls-7" d="m209.97,378.4c-1.27.02-2.51-.28-3.63-.88-1.52-.63-2.24-2.38-1.61-3.9.3-.73.88-1.3,1.61-1.61l10.19-5.87c26.16-15.11,36.88-25.32,44.71-32.77,4.58-4.37,8.2-7.82,13.34-10.78l115.35-66.59c7.74-3.96,16.91-3.96,24.65,0,3.5,2.01,5.43,4.78,5.43,7.76s-1.92,5.75-5.43,7.78l-115.35,66.59c-5.11,2.95-11.06,5.03-18.59,7.66-19.79,6.62-38.85,15.28-56.84,25.85l-10.2,5.88c-1.12.6-2.37.9-3.64.88"/></g></g></g></g><path id="_路径_10701" class="cls-5" d="m418.86,263.73h0v-6.7h-5.43v2.68c-6.52-3.43-16.62-3.35-22.93.29l-19.1,11.03,23.5,10.53,19.1-11.02c3.25-1.88,4.88-4.36,4.86-6.81"/><path id="_路径_10702" class="cls-5" d="m275.16,326.6c-8.76,5.06-31,22.22-31,22.22l-20.93,15.1v6.72c41.42-23.92,61.69-25.59,75.44-33.52l93.4-53.92v-6.73l-23.5-3.81-93.41,53.93Z"/><path id="_路径_10703" class="cls-18" d="m394.9,281.56l-2.84,1.65v-6.73l2.84-1.64v6.72Z"/><path id="_路径_10704" class="cls-15" d="m390.5,250.25l-19.1,11.03,23.5,13.56,19.1-11.03c6.49-3.75,6.49-9.82,0-13.56s-17.01-3.75-23.51,0"/><path id="_路径_10705" class="cls-15" d="m275.16,316.84c-13.74,7.93-16.64,19.65-58.06,43.55l6.12,3.53c41.42-23.91,61.69-25.59,75.44-33.52l93.4-53.93-23.5-13.56-93.4,53.92Z"/><path id="_路径_10706" class="cls-19" d="m205.64,368.09v6.67h0c.06.78.55,1.46,1.26,1.78,1.92.98,4.19.98,6.11,0l10.2-5.88v-6.72l-17.58,4.16Z"/><path id="_路径_10707" class="cls-5" d="m206.92,366.28c-1.7.98-1.7,2.55,0,3.53,1.92.98,4.19.98,6.11,0l10.2-5.88-6.12-3.53-10.19,5.88Z"/><path id="_路径_10708" class="cls-17" d="m394.9,274.84l-2.84,1.64-23.5-13.56,2.84-1.65,23.5,13.57Z"/><path id="_路径_10709" class="cls-17" d="m348.91,276.79l-38.4,22.18c-5.29,3.04-5.29,7.99,0,11.03s13.83,3.04,19.11,0l38.4-22.17c5.28-3.05,5.28-7.99,0-11.04s-13.84-3.04-19.12,0"/><path id="_路径_10710" class="cls-18" d="m368.32,283.65c-.21-1.44-1.4-2.98-3.5-4.19-4.15-2.39-10.29-2.73-13.75-.73l-25.02,14.42c-1.16.56-1.98,1.64-2.2,2.91-.2-1.4.51-2.75,2.2-3.73l25.02-14.46c3.46-1.97,9.6-1.65,13.75.76,2.51,1.47,3.73,3.32,3.5,5.02"/><path id="_路径_10711" class="cls-5" d="m368.32,283.65c-.22,1.27-1.04,2.36-2.2,2.91l-25.02,14.45c-3.43,2-9.59,1.65-13.74-.76-2.11-1.18-3.3-2.72-3.51-4.19.22-1.27,1.04-2.36,2.2-2.91l25.02-14.42c3.46-2,9.6-1.66,13.75.73,2.1,1.21,3.29,2.75,3.5,4.19"/><path id="_路径_10712" class="cls-20" d="m334.84,291.22v.6l3.97,2.29h1.03v-.6l-3.97-2.29h-1.03Z"/><path id="_路径_10713" class="cls-20" d="m339.84,294.11v.6l3.97,2.29h1.04v-.6l-3.97-2.29h-1.04Z"/><path id="_路径_10714" class="cls-20" d="m334.84,297h1.03l3.97-2.29v-.6h-1.03l-3.97,2.29v.6Z"/><path id="_路径_10715" class="cls-20" d="m329.84,294.11h1.03l3.97-2.29v-.6h-1.03l-3.97,2.29v.6Z"/><path id="_路径_10716" class="cls-20" d="m350.84,280.17v.24l1.5.86h.39v-.22l-1.5-.88h-.39Z"/><path id="_路径_10717" class="cls-20" d="m352.73,281.26h.39l1.5-.86v-.23h-.39l-1.5.88v.21Z"/><path id="_路径_10718" class="cls-20" d="m350.84,280.17h.39l1.5-.86v-.23h-.39l-1.5.88v.22Z"/><path id="_路径_10719" class="cls-20" d="m339.84,299.88h1.04l3.97-2.29v-.59h-1.04l-3.97,2.29v.59Z"/><path id="_路径_10720" class="cls-20" d="m350.62,282.11v.59l3.97,2.3h1.03v-.6l-3.97-2.29h-1.03Z"/><path id="_路径_10721" class="cls-20" d="m355.62,285v.6l3.97,2.29h1.03v-.59l-3.97-2.29h-1.04Z"/><path id="_路径_10722" class="cls-20" d="m350.62,287.89h1.03l3.97-2.29v-.59h-1.03l-3.97,2.29v.59Z"/><path id="_路径_10723" class="cls-20" d="m345.62,285h1.03l3.97-2.3v-.6h-1.04l-3.97,2.3v.6Z"/><path id="_路径_10724" class="cls-20" d="m355.62,290.77h1.04l3.97-2.29v-.6h-1.03l-3.97,2.3v.59Z"/><path id="_路径_10725" class="cls-20" d="m336.98,289.98v.6l3.97,2.29h1.04v-.6l-3.97-2.29h-1.04Z"/><path id="_路径_10726" class="cls-20" d="m341.99,287.09v.6l3.97,2.29h1.03v-.6l-3.97-2.29h-1.03Z"/><path id="_路径_10727" class="cls-20" d="m346.99,289.98v.6l3.97,2.29h1.04v-.6l-3.97-2.29h-1.04Z"/><path id="_路径_10728" class="cls-20" d="m341.99,292.87h1.03l3.97-2.29v-.6h-1.04l-3.97,2.29v.6Z"/><path id="_路径_10729" class="cls-20" d="m336.98,289.98h1.04l3.97-2.29v-.6h-1.04l-3.97,2.29v.6Z"/><path id="_路径_10730" class="cls-20" d="m346.99,295.76h1.04l3.97-2.29v-.6h-1.04l-3.97,2.3v.59Z"/><path id="_路径_10731" class="cls-20" d="m355.11,291.67l-1.04.6-1.03-.59,1.04-.61,1.03.6Z"/><g id="_组_5048" class="cls-33"><g id="_组_5047"><g class="cls-38"><g id="_组_5046"><path id="_路径_10732" class="cls-7" d="m158.5,306.02c-22.14-12.77-58.11-12.77-80.3,0-22.19,12.82-22.19,33.62,0,46.41,22.19,12.8,58.15,12.8,80.35,0,22.14-12.79,22.14-33.59-.05-46.41"/></g></g></g></g><path id="_路径_10733" class="cls-22" d="m67.1,326.22c0,7.61,5,15.17,15.03,20.96,20,11.56,52.46,11.56,72.48,0,10.01-5.79,15.03-13.35,15.03-20.96v-80.42h-102.54v80.42Z"/><path id="_路径_10734" class="cls-15" d="m154.61,283.14c-8.57,4.93-19.42,7.79-30.61,8.49v47.53c11.19-.74,22.04-3.58,30.61-8.47,10.01-5.83,15.03-13.36,15.03-20.96v-47.59c0,7.61-5.02,15.2-15.03,20.99"/><path id="_路径_10735" class="cls-10" d="m60.8,241.17c0,8.52,5.63,17.05,16.9,23.58,22.57,13.01,59.11,13.01,81.7,0,11.23-6.54,16.86-15.06,16.86-23.58v-21.94H60.8v21.94Z"/><path id="_路径_10736" class="cls-15" d="m159.35,195.67c-22.54-12.96-59.09-12.96-81.63,0-22.52,13.04-22.52,34.11-.02,47.16,22.57,13.01,59.11,13.01,81.7,0,22.5-13.04,22.5-34.12-.05-47.16"/><g id="_组_5051" class="cls-33"><g id="_组_5050"><g class="cls-1"><g id="_组_5049"><path id="_路径_10737" class="cls-7" d="m120.29,377.12l-8.62-4.97-.04-.03c-3.82-2.2-9.22-2.11-12.01.25-2.79,2.34-1.97,6.08,1.9,8.3l8.64,4.97,8.61,4.99h.04c3.85,2.22,9.22,2.13,12.02-.23,2.8-2.36,1.95-6.06-1.89-8.27l-8.65-5Z"/></g></g></g></g><path id="_路径_10738" class="cls-15" d="m111.96,361.46l-.02-.03c-4.16-2.37-9.46-.92-11.84,3.24-2.34,4.11-.96,9.35,3.12,11.76l9.33,5.43c1.42.63,3.06.46,4.33-.43,3.64-2.36,5.93-6.3,6.18-10.63,0-1.95-.68-3.35-1.79-3.95l-9.31-5.4Z"/><path id="_路径_10739" class="cls-13" d="m130.58,372.22l-9.31-5.36c-1.11-.66-2.67-.58-4.34.41-3.65,2.35-5.95,6.31-6.17,10.64,0,1.91.68,3.32,1.79,3.96l9.28,5.34s.04.04.04.04c4.15,2.4,9.46.99,11.86-3.16,2.4-4.15.99-9.46-3.16-11.87h0"/><path id="_路径_10740" class="cls-11" d="m129.67,374.94c-.44.38-.11,1.5.72,2.56.85,1.05,1.95,1.59,2.39,1.23.47-.4.14-1.54-.73-2.54-.84-1.1-1.92-1.63-2.38-1.25"/><g id="_组_5054" class="cls-33"><g id="_组_5053"><g class="cls-30"><g id="_组_5052"><path id="_路径_10741" class="cls-7" d="m102.18,380.51c-4.79-2.41-10.43-2.41-15.22,0-4.22,2.45-4.22,6.38-.02,8.77,4.78,2.45,10.46,2.45,15.24,0,4.22-2.39,4.22-6.33,0-8.77"/></g></g></g></g><path id="_路径_10742" class="cls-15" d="m88.42,361.31c-1.71.99-2.53,2.27-2.53,3.56v10.76c0,4.79,3.88,8.67,8.67,8.68,4.79,0,8.67-3.88,8.68-8.67h0v-10.76c0-1.29-.84-2.57-2.53-3.56-3.86-1.95-8.42-1.95-12.28,0"/><path id="_路径_10743" class="cls-13" d="m94.57,345.43c-4.79,0-8.68,3.87-8.68,8.66v10.77c0,1.29.82,2.54,2.53,3.55,3.85,1.96,8.41,1.96,12.26,0,1.72-1,2.56-2.26,2.56-3.55v-10.77c0-4.78-3.88-8.66-8.66-8.66h0"/><path id="_路径_10744" class="cls-11" d="m88.53,350.86c-.46,1.29-.43,2.46.14,2.68.57.17,1.4-.68,1.86-1.92.46-1.26.39-2.44-.14-2.69-.58-.19-1.38.67-1.86,1.93"/></g></g></g></g></g></svg>