<?xml version="1.0" encoding="UTF-8"?><svg id="_圖層_1" xmlns="http://www.w3.org/2000/svg" xmlns:xlink="http://www.w3.org/1999/xlink" viewBox="0 0 442.88 436.75"><defs><style>.cls-1{clip-path:url(#clippath-20);}.cls-2{clip-path:url(#clippath-11);}.cls-3{clip-path:url(#clippath-16);}.cls-4{fill:#b3d6e0;}.cls-4,.cls-5,.cls-6,.cls-7,.cls-8,.cls-9,.cls-10,.cls-11,.cls-12,.cls-13,.cls-14,.cls-15,.cls-16,.cls-17,.cls-18,.cls-19,.cls-20,.cls-21,.cls-22,.cls-23,.cls-24,.cls-25,.cls-26,.cls-27,.cls-28,.cls-29,.cls-30,.cls-31,.cls-32,.cls-33,.cls-34{stroke-width:0px;}.cls-5{fill:#354658;}.cls-6{fill:#e6e7e8;}.cls-35{clip-path:url(#clippath-2);}.cls-36{clip-path:url(#clippath-13);}.cls-7{fill:#f7f7f7;}.cls-9{fill:#e0e0e0;}.cls-37{clip-path:url(#clippath-15);}.cls-38{clip-path:url(#clippath-6);}.cls-10{fill:#c2c2c2;}.cls-11{fill:#8a9193;}.cls-12{fill:#f5f5f5;}.cls-13{fill:none;}.cls-14{fill:#f1f5fa;}.cls-15{fill:#e31b25;}.cls-39{clip-path:url(#clippath-7);}.cls-40{clip-path:url(#clippath-21);}.cls-16{fill:#e9e9e9;}.cls-17{fill:#1c4b5f;}.cls-41{clip-path:url(#clippath-1);}.cls-42{clip-path:url(#clippath-4);}.cls-18{fill:#09c9ad;}.cls-43{opacity:.3;}.cls-44{clip-path:url(#clippath-12);}.cls-19{fill:#fff;}.cls-45{clip-path:url(#clippath-22);}.cls-20{fill:#24d2c1;}.cls-46{clip-path:url(#clippath-9);}.cls-47{clip-path:url(#clippath);}.cls-21{fill:#16a89f;}.cls-22{fill:#d1d3d4;}.cls-23{fill:#a6afb2;}.cls-24{fill:#535359;}.cls-48{clip-path:url(#clippath-19);}.cls-49{clip-path:url(#clippath-3);}.cls-50{opacity:.1;}.cls-25{fill:#1c9ae9;}.cls-26{fill:url(#_未命名漸層_3);}.cls-51{clip-path:url(#clippath-8);}.cls-52{opacity:.2;}.cls-53{clip-path:url(#clippath-18);}.cls-54{clip-path:url(#clippath-14);}.cls-55{clip-path:url(#clippath-17);}.cls-27{fill:#1b1823;}.cls-56{clip-path:url(#clippath-5);}.cls-28{fill:url(#_未命名漸層_2);}.cls-29{fill:#141e30;}.cls-30{fill:#d9e1ee;}.cls-31{fill:#fff7f2;}.cls-32{fill:#efeeed;}.cls-33{fill:#313747;}.cls-34{fill:#9ba3a5;}.cls-57{clip-path:url(#clippath-10);}.cls-58{clip-path:url(#clippath-23);}</style><clipPath id="clippath"><rect class="cls-13" x="0" width="442.88" height="436.75"/></clipPath><clipPath id="clippath-1"><rect class="cls-13" x="0" width="442.88" height="436.75"/></clipPath><clipPath id="clippath-2"><rect class="cls-13" x="231.68" y="182.81" width="77.34" height="44.65"/></clipPath><clipPath id="clippath-3"><rect class="cls-13" x="256.47" y="233.25" width="23.5" height="14.78"/></clipPath><clipPath id="clippath-4"><rect class="cls-13" x="246.83" y="238.81" width="14.67" height="8.45"/></clipPath><clipPath id="clippath-5"><rect class="cls-13" x="107.94" y="276.49" width="117.25" height="67.75"/></clipPath><clipPath id="clippath-6"><rect class="cls-13" x="57.64" width="88.3" height="281.59"/></clipPath><clipPath id="clippath-7"><rect class="cls-13" x="69.38" y="6.94" width="88.3" height="281.59"/></clipPath><clipPath id="clippath-8"><rect class="cls-13" x="82.73" y="13.35" width="88.3" height="281.59"/></clipPath><clipPath id="clippath-9"><path class="cls-13" d="m210.45,12.71l13.35,7.76c-1.67-.97-3.98-.84-6.53.63l-13.36-7.76c1.23-.77,2.65-1.2,4.1-1.25.85-.01,1.69.2,2.43.62h0Z"/></clipPath><clipPath id="clippath-10"><rect class="cls-13" x="0" width="442.88" height="436.75"/></clipPath><clipPath id="clippath-11"><path class="cls-13" d="m119.87,77.34c-5.05,2.92-9.17,10.06-9.16,15.86l-13.35-7.76c-.02-5.81,4.1-12.94,9.16-15.86l13.35,7.76Z"/></clipPath><linearGradient id="_未命名漸層_3" x1="-69.83" y1="218.91" x2="-69.91" y2="218.91" gradientTransform="translate(2418.25 6574.36) scale(28.29 -29.66)" gradientUnits="userSpaceOnUse"><stop offset="0" stop-color="#e4e9f2"/><stop offset="0" stop-color="#e4e9f2"/><stop offset="1" stop-color="#b4c2da"/></linearGradient><clipPath id="clippath-12"><rect class="cls-13" x="0" width="442.88" height="436.75"/></clipPath><clipPath id="clippath-13"><rect class="cls-13" x="111.3" y="252.88" width="115.83" height="80.78"/></clipPath><clipPath id="clippath-14"><rect class="cls-13" x="110.71" y="19.85" width="115.81" height="83.07"/></clipPath><clipPath id="clippath-15"><path class="cls-13" d="m126.82,65.46c1.64.97,2.03,2.35,1.18,3.56-.31.42-.71.77-1.18,1.02-2.49,1.25-5.43,1.25-7.92,0-.86-.4-1.45-1.21-1.59-2.14-.1-.89.44-1.78,1.59-2.43,2.49-1.25,5.43-1.25,7.92,0h0Z"/></clipPath><linearGradient id="_未命名漸層_2" x1="-58.18" y1="169.63" x2="-58.33" y2="169.63" gradientTransform="translate(1293.97 1509.09) scale(14.63 -8.5)" gradientUnits="userSpaceOnUse"><stop offset="0" stop-color="#aabad6"/><stop offset="1" stop-color="#96aac9"/></linearGradient><clipPath id="clippath-16"><rect class="cls-13" x="0" width="442.88" height="436.75"/></clipPath><clipPath id="clippath-17"><rect class="cls-13" x="143.66" y="49" width="41.08" height="27.68"/></clipPath><clipPath id="clippath-18"><rect class="cls-13" x="168.66" y="160.28" width="274.22" height="188.08"/></clipPath><clipPath id="clippath-19"><rect class="cls-13" x="0" width="442.88" height="436.75"/></clipPath><clipPath id="clippath-20"><rect class="cls-13" x="37.18" y="307.55" width="146.72" height="85.37"/></clipPath><clipPath id="clippath-21"><rect class="cls-13" x="120.3" y="414.78" width="14.41" height="9.54"/></clipPath><clipPath id="clippath-22"><rect class="cls-13" x="132.21" y="427.21" width="14.4" height="9.54"/></clipPath><clipPath id="clippath-23"><rect class="cls-13" x="110.1" y="424.56" width="14.4" height="9.54"/></clipPath></defs><g class="cls-47"><g id="_组_3905"><g id="_组_3867"><g class="cls-41"><g id="_组_3866"><g id="_组_3847" class="cls-43"><g id="_组_3846"><g class="cls-35"><g id="_组_3845"><path id="_路径_8661" class="cls-8" d="m297.69,189.33c-15.08-8.69-39.56-8.69-54.67,0-15.11,8.73-15.11,22.89,0,31.59,15.11,8.72,39.59,8.72,54.7,0,15.08-8.71,15.08-22.87-.03-31.59"/></g></g></g></g><path id="_路径_8662" class="cls-25" d="m235.46,203.08c0,5.18,3.4,10.33,10.23,14.27,13.62,7.87,35.71,7.87,49.35,0,6.82-3.94,10.23-9.09,10.23-14.27v-54.75h-69.81v54.75Z"/><path id="_路径_8663" class="cls-19" d="m295.04,173.75c-5.84,3.36-13.22,5.31-20.84,5.78v32.36c7.62-.5,15-2.44,20.84-5.77,6.82-3.97,10.23-9.1,10.23-14.27v-32.4c0,5.18-3.42,10.35-10.23,14.29"/><path id="_路径_8664" class="cls-10" d="m231.17,145.18c0,5.8,3.83,11.61,11.51,16.06,15.36,8.86,40.24,8.86,55.62,0,7.65-4.45,11.48-10.25,11.48-16.06v-14.94h-78.61v14.94Z"/><path id="_路径_8665" class="cls-19" d="m298.27,114.21c-15.35-8.83-40.23-8.83-55.57,0-15.33,8.88-15.33,23.23-.02,32.11,15.36,8.86,40.24,8.86,55.62,0,15.32-8.88,15.32-23.23-.03-32.11"/><g id="_组_3850" class="cls-43"><g id="_组_3849"><g class="cls-49"><g id="_组_3848"><path id="_路径_8666" class="cls-8" d="m271.67,237.74l-5.87-3.38-.03-.02c-2.6-1.5-6.28-1.44-8.17.17s-1.34,4.14,1.29,5.65l5.89,3.39,5.86,3.4h.03c2.62,1.51,6.28,1.45,8.19-.16s1.33-4.12-1.29-5.63l-5.89-3.4Z"/></g></g></g></g><path id="_路径_8667" class="cls-19" d="m266,227.08v-.02c-2.85-1.61-6.46-.62-8.07,2.22-1.59,2.8-.65,6.35,2.12,8l6.35,3.7c.96.43,2.08.32,2.95-.29,2.48-1.6,4.04-4.29,4.21-7.24.12-1.05-.35-2.08-1.22-2.69l-6.34-3.68Z"/><path id="_路径_8668" class="cls-15" d="m278.68,234.4l-6.34-3.65c-.96-.46-2.1-.35-2.96.28-2.48,1.6-4.05,4.29-4.2,7.24-.11,1.05.36,2.08,1.22,2.7l6.32,3.64s.03.03.03.03c2.84,1.62,6.45.63,8.06-2.21,1.6-2.81.65-6.39-2.14-8.03"/><path id="_路径_8669" class="cls-12" d="m278.06,236.25c-.3.26-.07,1.03.49,1.75.58.71,1.33,1.08,1.63.84.32-.27.1-1.05-.5-1.73-.57-.75-1.3-1.11-1.62-.86"/><g id="_组_3853" class="cls-43"><g id="_组_3852"><g class="cls-42"><g id="_组_3851"><path id="_路径_8670" class="cls-8" d="m259.35,240.04c-3.26-1.64-7.1-1.64-10.36,0-2.87,1.67-2.87,4.34-.01,5.97,3.26,1.67,7.12,1.67,10.38,0,2.87-1.63,2.87-4.31,0-5.97"/></g></g></g></g><path id="_路径_8671" class="cls-19" d="m249.98,226.97c-.97.43-1.64,1.36-1.73,2.42v7.32c0,3.26,2.64,5.91,5.91,5.91s5.91-2.64,5.91-5.91h0v-7.32c-.09-1.06-.75-1.99-1.73-2.42-2.63-1.33-5.73-1.33-8.36,0"/><path id="_路径_8672" class="cls-15" d="m254.16,216.16c-3.26,0-5.91,2.64-5.91,5.9v7.33c.09,1.06.75,1.98,1.73,2.41,2.62,1.34,5.72,1.34,8.35,0,1.17-.68,1.74-1.54,1.74-2.41v-7.33c0-3.25-2.63-5.9-5.89-5.9,0,0,0,0-.01,0"/><path id="_路径_8673" class="cls-12" d="m250.05,219.86c-.31.88-.29,1.68.1,1.83.39.12.95-.47,1.27-1.31.31-.86.27-1.66-.1-1.83-.39-.13-.94.45-1.27,1.32"/><path id="_路径_8674" class="cls-4" d="m2.04,365.24l43.07-24.87c3.07-1.56,6.69-1.56,9.76,0l101.81,59.17c2.69,1.56,2.67,4.09-.03,5.65l-43.07,24.87c-3.07,1.56-6.69,1.56-9.76,0L2,370.89c-2.68-1.56-2.67-4.09.04-5.65"/><path id="_路径_8675" class="cls-9" d="m47.81,352.17v3.46c.11,1.04.76,1.95,1.71,2.38,2.6,1.32,5.67,1.32,8.27,0,.97-.43,1.63-1.35,1.73-2.41v-3.46c-.11,1.06-.77,1.98-1.74,2.41-2.6,1.32-5.67,1.32-8.27,0-.95-.43-1.6-1.34-1.7-2.38"/><path id="_路径_8676" class="cls-19" d="m49.53,349.76c-2.29,1.32-2.3,3.47-.03,4.79,2.6,1.32,5.67,1.32,8.27,0,2.29-1.32,2.3-3.47.03-4.79-2.6-1.32-5.67-1.32-8.27,0"/><path id="_路径_8677" class="cls-9" d="m20.77,367.78v3.46c.11,1.04.76,1.95,1.71,2.38,2.6,1.32,5.67,1.32,8.27,0,.97-.43,1.63-1.36,1.73-2.41v-3.46c-.11,1.06-.77,1.98-1.74,2.41-2.6,1.32-5.67,1.32-8.27,0-.95-.43-1.6-1.34-1.7-2.38"/><path id="_路径_8678" class="cls-19" d="m22.5,365.36c-2.29,1.32-2.3,3.47-.03,4.79,2.6,1.32,5.67,1.32,8.27,0,2.3-1.33,2.31-3.47.03-4.79-2.6-1.32-5.68-1.32-8.28,0"/><path id="_路径_8679" class="cls-9" d="m66.99,363.31v3.46c.11,1.04.76,1.95,1.71,2.38,2.6,1.32,5.67,1.32,8.27,0,.97-.43,1.63-1.35,1.73-2.41v-3.46c-.11,1.06-.77,1.98-1.74,2.41-2.6,1.32-5.67,1.32-8.27,0-.95-.43-1.6-1.34-1.7-2.38"/><path id="_路径_8680" class="cls-19" d="m68.71,360.9c-2.29,1.32-2.3,3.47-.03,4.79,2.6,1.32,5.67,1.32,8.27,0,2.29-1.32,2.3-3.47.03-4.79-2.6-1.32-5.67-1.32-8.27,0"/><path id="_路径_8681" class="cls-9" d="m39.95,378.92v3.46c.11,1.04.76,1.95,1.71,2.38,2.6,1.33,5.67,1.33,8.27,0,.97-.43,1.63-1.35,1.73-2.41v-3.46c-.11,1.06-.77,1.98-1.74,2.41-2.6,1.32-5.67,1.32-8.27,0-.95-.43-1.6-1.34-1.7-2.38"/><path id="_路径_8682" class="cls-19" d="m41.68,376.51c-2.29,1.32-2.3,3.47-.03,4.79,2.6,1.32,5.67,1.32,8.27,0,2.3-1.33,2.31-3.47.03-4.79-2.6-1.32-5.68-1.32-8.28,0"/><path id="_路径_8683" class="cls-9" d="m86.16,374.46v3.46c.11,1.04.76,1.95,1.71,2.38,2.6,1.32,5.68,1.32,8.28,0,.97-.43,1.63-1.35,1.73-2.41v-3.46c-.11,1.06-.77,1.98-1.74,2.41-2.6,1.32-5.68,1.32-8.28,0-.95-.43-1.6-1.34-1.7-2.38"/><path id="_路径_8684" class="cls-19" d="m87.89,372.05c-2.29,1.32-2.3,3.47-.03,4.79,2.6,1.32,5.68,1.32,8.28,0,2.29-1.32,2.3-3.47.03-4.79-2.6-1.32-5.67-1.32-8.27,0"/><path id="_路径_8685" class="cls-9" d="m59.13,390.07v3.46c.11,1.04.76,1.95,1.71,2.38,2.6,1.32,5.68,1.32,8.28,0,.97-.43,1.63-1.36,1.73-2.41v-3.46c-.11,1.06-.77,1.98-1.74,2.41-2.6,1.32-5.68,1.32-8.28,0-.95-.43-1.6-1.34-1.7-2.38"/><path id="_路径_8686" class="cls-19" d="m60.86,387.65c-2.29,1.32-2.3,3.47-.03,4.79,2.6,1.32,5.68,1.32,8.28,0,2.29-1.32,2.31-3.47.03-4.8-2.6-1.32-5.68-1.32-8.28,0"/><path id="_路径_8687" class="cls-9" d="m105.34,385.61v3.46c.11,1.04.76,1.95,1.71,2.38,2.6,1.32,5.67,1.32,8.27,0,.97-.43,1.63-1.35,1.73-2.41v-3.46c-.11,1.06-.77,1.98-1.74,2.41-2.6,1.32-5.67,1.32-8.27,0-.95-.43-1.6-1.34-1.7-2.38"/><path id="_路径_8688" class="cls-19" d="m107.07,383.19c-2.29,1.32-2.3,3.47-.03,4.79,2.6,1.32,5.67,1.32,8.27,0,2.29-1.32,2.3-3.47.03-4.79-2.6-1.32-5.67-1.32-8.27,0"/><path id="_路径_8689" class="cls-9" d="m78.31,401.21v3.46c.11,1.04.76,1.95,1.71,2.38,2.6,1.32,5.67,1.32,8.27,0,.97-.43,1.64-1.35,1.73-2.41v-3.46c-.11,1.06-.77,1.98-1.74,2.41-2.6,1.32-5.67,1.32-8.27,0-.95-.43-1.6-1.34-1.7-2.38"/><path id="_路径_8690" class="cls-19" d="m80.04,398.8c-2.29,1.32-2.3,3.47-.03,4.79,2.6,1.32,5.67,1.32,8.27,0,2.3-1.33,2.31-3.47.03-4.79-2.6-1.32-5.68-1.32-8.28,0"/><path id="_路径_8691" class="cls-9" d="m124.52,396.75v3.46c.11,1.04.76,1.95,1.71,2.38,2.6,1.32,5.67,1.32,8.27,0,.97-.43,1.63-1.35,1.73-2.41v-3.46c-.11,1.06-.77,1.98-1.74,2.41-2.6,1.32-5.67,1.32-8.27,0-.95-.43-1.6-1.34-1.7-2.38"/><path id="_路径_8692" class="cls-19" d="m126.25,394.34c-2.29,1.32-2.3,3.47-.03,4.79,2.6,1.32,5.67,1.32,8.27,0,2.29-1.32,2.3-3.47.03-4.79-2.6-1.32-5.67-1.32-8.27,0"/><path id="_路径_8693" class="cls-9" d="m97.49,412.36v3.46c.11,1.04.76,1.95,1.71,2.38,2.6,1.32,5.67,1.32,8.27,0,.97-.43,1.63-1.36,1.73-2.41v-3.46c-.11,1.06-.77,1.98-1.74,2.41-2.6,1.32-5.67,1.32-8.27,0-.95-.43-1.6-1.34-1.7-2.38"/><path id="_路径_8694" class="cls-19" d="m99.21,409.95c-2.29,1.32-2.3,3.47-.03,4.79,2.6,1.32,5.67,1.32,8.27,0,2.3-1.33,2.31-3.47.03-4.79-2.6-1.32-5.68-1.32-8.28,0"/><g id="_组_3856" class="cls-52"><g id="_组_3855"><g class="cls-56"><g id="_组_3854"><path id="_路径_8695" class="cls-17" d="m122.08,344.24l-14.14-8.22,103.11-59.53,14.14,8.22-103.11,59.53Z"/></g></g></g></g><g id="_组_3859" class="cls-50"><g id="_组_3858"><g class="cls-38"><g id="_组_3857"><path id="_路径_8696" class="cls-14" d="m145.94,230.61l-88.3,50.98V50.98L145.94,0v230.61Z"/></g></g></g></g><g id="_组_3862" class="cls-50"><g id="_组_3861"><g class="cls-39"><g id="_组_3860"><path id="_路径_8697" class="cls-14" d="m157.69,237.55l-88.3,50.98V57.92S157.68,6.94,157.68,6.94v230.61Z"/></g></g></g></g><g id="_组_3865" class="cls-50"><g id="_组_3864"><g class="cls-51"><g id="_组_3863"><path id="_路径_8698" class="cls-14" d="m171.03,243.96l-88.3,50.98V64.32L171.03,13.35v230.61Z"/></g></g></g></g><path id="_路径_8699" class="cls-31" d="m210.45,12.71l13.35,7.76c-1.67-.97-3.98-.84-6.53.63l-13.36-7.76c2.54-1.47,4.86-1.6,6.53-.63"/></g></g></g><g id="_组_3869"><g class="cls-46"><g id="_组_3868"><path id="_路径_8700" class="cls-31" d="m217.27,21.1l-13.35-7.76c.86-.51,1.8-.88,2.77-1.1l13.35,7.76c-.98.22-1.91.59-2.77,1.11"/><path id="_路径_8701" class="cls-31" d="m220.05,19.99l-13.35-7.76c1.2-.3,2.48-.16,3.59.39l13.36,7.76c-1.11-.55-2.38-.69-3.59-.39"/><path id="_路径_8702" class="cls-31" d="m223.64,20.38l-13.35-7.76.17.09,13.35,7.76-.17-.09"/></g></g></g><g id="_组_3871"><g class="cls-57"><g id="_组_3870"><path id="_路径_8704" class="cls-19" d="m119.87,77.34l-13.35-7.76L203.92,13.34l13.35,7.76-97.41,56.24Z"/></g></g></g><g id="_组_3873"><g class="cls-2"><g id="_组_3872"><rect id="_矩形_1509" class="cls-26" x="97.34" y="69.57" width="22.53" height="23.62"/><path id="_路径_8705" class="cls-30" d="m106.51,69.57c-1.7,1.02-3.21,2.34-4.44,3.89-1.25,1.53-2.29,3.22-3.1,5.03-1.01,2.18-1.57,4.54-1.62,6.94l13.35,7.76c.05-2.4.6-4.76,1.62-6.94.81-1.81,1.85-3.5,3.1-5.03,1.24-1.55,2.74-2.87,4.44-3.89l-13.35-7.76Z"/></g></g></g><g id="_组_3881"><g class="cls-44"><g id="_组_3880"><g id="_组_3876"><g id="_组_3875"><g class="cls-36"><g id="_组_3874"><path id="_路径_8707" class="cls-32" d="m227.13,260.31c.02,5.8-4.1,12.94-9.15,15.86l-97.41,56.24c-5.05,2.92-9.2.56-9.22-5.25l-.05-7.42,115.78-66.85.05,7.43Z"/></g></g></g></g><path id="_路径_8708" class="cls-20" d="m226.52,36.07l.56,216.81-115.78,66.85-.56-216.81,115.78-66.85Z"/><g id="_组_3879"><g id="_组_3878"><g class="cls-54"><g id="_组_3877"><path id="_路径_8709" class="cls-32" d="m110.71,93.2c-.02-5.81,4.1-12.94,9.16-15.86l97.41-56.24c5.05-2.92,9.2-.55,9.21,5.26l.03,9.72-115.78,66.84-.03-9.72Z"/></g></g></g></g></g></g></g><g id="_组_3883"><g class="cls-37"><g id="_组_3882"><rect id="_矩形_1513" class="cls-28" x="117.2" y="64.52" width="11.65" height="6.77"/></g></g></g><g id="_组_3888"><g class="cls-3"><g id="_组_3887"><path id="_路径_8711" class="cls-29" d="m117.31,67.89c.14.94.74,1.74,1.59,2.14,2.49,1.25,5.43,1.25,7.92,0,.46-.25.86-.6,1.17-1.02-.14-.95-.75-1.75-1.62-2.14-2.48-1.25-5.41-1.25-7.89,0-.46.25-.86.6-1.18,1.02"/><g id="_组_3886"><g id="_组_3885"><g class="cls-55"><g id="_组_3884"><path id="_路径_8712" class="cls-27" d="m181.95,55.8l-35.51,20.5c-1.53.88-2.78.16-2.78-1.61.11-1.96,1.14-3.75,2.78-4.82l35.51-20.5c1.53-.88,2.78-.16,2.78,1.6-.11,1.96-1.14,3.75-2.78,4.82"/></g></g></g></g><path id="_路径_8713" class="cls-30" d="m111.35,327.15c0,2.88,1.04,4.92,2.69,5.88l-13.36-7.76c-1.65-.96-2.68-2.99-2.68-5.88l-.05-6.73,13.36,7.71.05,6.78Z"/><path id="_路径_8714" class="cls-30" d="m97.36,85.44l13.36,7.76.03,9.71-13.36-7.71-.03-9.76Z"/><path id="_路径_8715" class="cls-30" d="m110.73,102.91l.57,217.46-13.35-7.71-.57-217.46,13.35,7.71Z"/><path id="_路径_8716" class="cls-18" d="m103.87,98.95l6.87,3.96.57,217.46-7.43-4.29V98.95Z"/></g></g></g><g id="_组_3890"><g class="cls-53"><g id="_组_3889"><path id="_路径_8717" class="cls-34" d="m176.35,161.34c2.15-1.24,4.09-1.35,5.5-.54l1.05.61c-1.4-.82-3.35-.7-5.5.54-4.26,2.46-7.71,8.43-7.7,13.33,0,2.44.87,4.15,2.25,4.95l-1.05-.61c-1.39-.81-2.25-2.52-2.25-4.95-.02-4.9,3.43-10.87,7.7-13.33"/><path id="_路径_8718" class="cls-23" d="m177.41,161.95c-4.27,2.46-7.71,8.43-7.7,13.33s3.48,6.88,7.75,4.41c4.26-2.46,7.71-8.43,7.7-13.33s-3.48-6.88-7.75-4.41"/><path id="_路径_8719" class="cls-33" d="m174.54,176.49l6.84-11.25,21.26,12.27c23.73,13.7,42.97,47.03,42.9,74.55-.08,28.53,20.05,63.4,44.88,77.73,10.81,6.24,20.76,7.57,28.55,4.73,6.23-5.29,9.99-14.4,10.02-26.64l.1-34.94c.05-19.44,6.69-33.91,18.69-40.75l6.6-3.84c12-6.84,27.92-5.23,44.84,4.54l10.86,6.27c1.96,1.27,3.19,3.4,3.31,5.73.08.83-.29,1.65-.97,2.13l-6.6,3.83s.07-.05.11-.08c-.78.44-1.75.38-2.47-.16l-10.86-6.27c-13.66-7.88-26.6-9.83-36.89-5.63-8.62,6.76-13.33,18.72-13.38,34.21l-.1,34.95c-.05,15.86-5.46,27.66-15.25,33.25l-6.6,3.83c-9.8,5.58-22.78,4.26-36.59-3.71-13.8-7.97-26.75-21.63-36.48-38.48-9.73-16.85-15.06-34.86-15.01-50.96.07-23.06-16.21-51.24-36.28-62.83l-21.26-12.27c-.1-.06-.21-.13-.31-.2l.09-.02Z"/><path id="_路径_8720" class="cls-33" d="m177.91,165.5c-2.77,1.8-4.51,4.81-4.68,8.11,0,2.98,2.12,4.18,4.71,2.68,2.77-1.8,4.51-4.81,4.68-8.11,0-2.98-2.12-4.19-4.71-2.69"/><path id="_路径_8721" class="cls-5" d="m400.18,216.41c5.24-3.03,10-3.31,13.43-1.31l2.58,1.5-.03-.02c3.41,1.96,5.52,6.16,5.54,12.13.04,11.97-8.39,26.57-18.82,32.6-5.27,3.04-10.04,3.31-13.47,1.29l.04.02-2.58-1.5c-3.39-1.97-5.49-6.16-5.51-12.11-.03-11.98,8.39-26.58,18.82-32.6"/><path id="_路径_8722" class="cls-34" d="m409.66,211.38c8.1-4.67,15.44-5.11,20.74-2.03l3.98,2.31c-5.3-3.08-12.64-2.65-20.73,2.03-16.1,9.29-29.1,31.82-29.05,50.32.02,9.18,3.27,15.65,8.5,18.69l-3.98-2.32c-5.24-3.04-8.48-9.51-8.5-18.69-.05-18.49,12.95-41.02,29.05-50.32"/><path id="_路径_8723" class="cls-23" d="m413.64,213.7c-16.1,9.29-29.1,31.82-29.05,50.32.05,18.5,13.14,25.95,29.24,16.66,16.1-9.29,29.1-31.82,29.05-50.31-.05-18.49-13.15-25.96-29.24-16.67"/><path id="_路径_8724" class="cls-16" d="m400.75,280.9c3.36,0,7.23-1.21,11.19-3.49,7.22-4.17,14.04-11.39,19.2-20.33s7.99-18.42,7.96-26.71c-.03-10.58-4.66-16.9-12.39-16.9-3.36,0-7.23,1.21-11.19,3.49-7.22,4.17-14.04,11.39-19.2,20.33-5.16,8.93-7.98,18.42-7.96,26.71.03,10.58,4.67,16.9,12.39,16.9"/><path id="_路径_8725" class="cls-11" d="m428.9,260.36c5.32-9.22,8.24-19.01,8.22-27.56-.03-10.92-4.81-17.44-12.79-17.44-3.47,0-7.46,1.24-11.55,3.6-.72.41-1.43.87-2.15,1.34,1.55-1.23,3.18-2.34,4.89-3.34,3.95-2.28,7.83-3.49,11.19-3.49,7.73,0,12.37,6.32,12.39,16.9.02,8.29-2.8,17.78-7.96,26.71-1.2,2.09-2.52,4.11-3.94,6.05.58-.91,1.15-1.83,1.7-2.79"/></g></g></g><g id="_组_3904"><g class="cls-48"><g id="_组_3903"><g id="_组_3893" class="cls-43"><g id="_组_3892"><g class="cls-1"><g id="_组_3891"><path id="_路径_8726" class="cls-8" d="m180.18,392.92c.86.02,1.71-.19,2.47-.6,1.04-.43,1.53-1.62,1.1-2.66-.21-.5-.6-.89-1.1-1.1l-6.94-4c-17.81-10.29-25.11-17.24-30.44-22.31-3.12-2.98-5.58-5.32-9.08-7.34l-78.53-45.34c-5.27-2.7-11.51-2.7-16.78,0-2.39,1.37-3.7,3.25-3.7,5.29s1.31,3.91,3.7,5.3l78.53,45.34c3.48,2.01,7.53,3.42,12.65,5.22,13.48,4.5,26.45,10.4,38.7,17.6l6.94,4.01c.76.41,1.61.61,2.47.6"/></g></g></g></g><path id="_路径_8727" class="cls-6" d="m37.96,314.85h0v-4.56h3.7v1.83c4.44-2.34,11.32-2.28,15.61.2l13,7.51-16,7.17-13.01-7.5c-2.21-1.28-3.32-2.97-3.31-4.64"/><path id="_路径_8728" class="cls-6" d="m135.8,357.65c5.97,3.44,21.11,15.13,21.11,15.13l14.25,10.28v4.58c-28.19-16.28-42-17.42-51.36-22.82l-63.59-36.72v-4.58l16-2.59,63.6,36.72Z"/><path id="_路径_8729" class="cls-21" d="m54.27,326.99l1.93,1.12v-4.58l-1.93-1.12v4.58Z"/><path id="_路径_8730" class="cls-19" d="m57.27,305.67l13,7.51-16,9.23-13.01-7.51c-4.41-2.55-4.41-6.69,0-9.23,4.41-2.54,11.58-2.55,16,0"/><path id="_路径_8731" class="cls-19" d="m135.8,351.01c9.35,5.4,11.32,13.38,39.53,29.65l-4.17,2.4c-28.19-16.28-42-17.42-51.36-22.82l-63.59-36.72,16-9.23,63.59,36.71Z"/><path id="_路径_8732" class="cls-22" d="m183.12,385.9v4.54h0c-.04.53-.37.99-.86,1.21-1.31.67-2.85.67-4.16,0l-6.94-4v-4.58l11.97,2.83Z"/><path id="_路径_8733" class="cls-6" d="m182.26,384.67c1.15.67,1.15,1.74,0,2.4-1.31.66-2.85.66-4.16,0l-6.94-4,4.17-2.4,6.94,4.01Z"/><path id="_路径_8734" class="cls-20" d="m54.27,322.42l1.93,1.12,16-9.23-1.93-1.12-16,9.24Z"/><path id="_路径_8735" class="cls-20" d="m85.58,323.74l26.14,15.1c3.6,2.07,3.6,5.44,0,7.51s-9.42,2.07-13.01,0l-26.14-15.09c-3.59-2.08-3.59-5.44,0-7.52s9.42-2.07,13.02,0"/><path id="_路径_8736" class="cls-21" d="m72.36,328.42c.14-.98.95-2.03,2.38-2.85,2.83-1.62,7-1.86,9.36-.5l17.04,9.82c.79.38,1.35,1.12,1.5,1.98.1-1.08-.5-2.1-1.5-2.54l-17.03-9.85c-2.36-1.34-6.54-1.12-9.36.52-1.71,1-2.54,2.26-2.38,3.42"/><path id="_路径_8737" class="cls-6" d="m72.36,328.42c.15.86.71,1.6,1.5,1.98l17.04,9.84c2.34,1.36,6.53,1.13,9.35-.52,1.19-.54,2.07-1.59,2.39-2.85-.15-.86-.71-1.6-1.5-1.98l-17.04-9.82c-2.36-1.36-6.54-1.13-9.36.5-1.43.83-2.24,1.87-2.38,2.85"/><path id="_路径_8738" class="cls-24" d="m95.16,333.57v.4l-2.71,1.56h-.7v-.4l2.7-1.56h.7Z"/><path id="_路径_8739" class="cls-24" d="m91.76,335.53v.41l-2.71,1.56h-.71v-.41l2.71-1.56h.71Z"/><path id="_路径_8740" class="cls-24" d="m95.16,337.5h-.7l-2.7-1.56v-.41h.7l2.71,1.56v.41Z"/><path id="_路径_8741" class="cls-24" d="m98.57,335.53h-.7l-2.71-1.56v-.4h.7l2.71,1.56v.4Z"/><g id="_组_4994"><path id="_路径_8742" class="cls-24" d="m77.9,329.91v.16l-1.02.58h-.27v-.15l1.02-.6h.27Z"/><path id="_路径_8743" class="cls-24" d="m76.61,330.65h-.27l-1.02-.58v-.16h.26l1.02.6v.15Z"/><path id="_路径_8744" class="cls-24" d="m77.9,329.91h-.27l-1.02-.59v-.16h.27l1.02.6v.15Z"/></g><path id="_路径_8745" class="cls-24" d="m91.76,339.47h-.71l-2.71-1.56v-.4h.71l2.71,1.56v.4Z"/><path id="_路径_8746" class="cls-24" d="m84.41,327.36v.4l-2.7,1.57h-.7v-.41l2.7-1.56h.7Z"/><path id="_路径_8747" class="cls-24" d="m81.01,329.33v.4l-2.71,1.56h-.7v-.4l2.7-1.56h.71Z"/><path id="_路径_8748" class="cls-24" d="m84.41,331.3h-.7l-2.7-1.56v-.4h.7l2.7,1.56v.4Z"/><path id="_路径_8749" class="cls-24" d="m87.82,329.33h-.7l-2.7-1.57v-.4h.71l2.7,1.56v.41Z"/><path id="_路径_8750" class="cls-24" d="m81.01,333.26h-.71l-2.7-1.56v-.4h.7l2.71,1.56v.4Z"/><path id="_路径_8751" class="cls-24" d="m93.7,332.72v.4l-2.71,1.56h-.71v-.41l2.7-1.56h.71Z"/><path id="_路径_8752" class="cls-24" d="m90.29,330.75v.41l-2.7,1.56h-.7v-.41l2.7-1.56h.7Z"/><path id="_路径_8753" class="cls-24" d="m86.89,332.72v.4l-2.71,1.56h-.71v-.41l2.71-1.56h.71Z"/><path id="_路径_8754" class="cls-24" d="m90.29,334.69h-.7l-2.7-1.56v-.4h.7l2.7,1.56v.41Z"/><path id="_路径_8755" class="cls-24" d="m93.7,332.73h-.71l-2.7-1.56v-.41h.71l2.71,1.56v.41Z"/><path id="_路径_8756" class="cls-24" d="m86.89,336.66h-.71l-2.71-1.56v-.4h.71l2.71,1.56v.4Z"/><path id="_路径_8757" class="cls-24" d="m88.35,329.91l.71.4.7-.4-.71-.41-.7.41Z"/><g id="_组_3896" class="cls-43"><g id="_组_3895"><g class="cls-40"><g id="_组_3894"><path id="_路径_8758" class="cls-8" d="m123.52,424.18c3.69.49,7.4-.81,9.98-3.5,2.2-2.56,1.3-5.14-2.02-5.76-3.69-.49-7.4.81-9.98,3.5-2.2,2.56-1.29,5.14,2.02,5.76"/></g></g></g></g><path id="_路径_8759" class="cls-10" d="m123.55,423.51c-1.59-.29-2.6-1.05-2.94-2.06l-.93-2.68,13.46-4.71.94,2.67c.35.99.04,2.22-1,3.44-2.46,2.56-6,3.8-9.52,3.34"/><path id="_路径_8760" class="cls-7" d="m122.61,420.84c-.19-.04-.38-.08-.57-.14l-.31.36-.21-.53c-2.26-.9-2.68-3.05-.85-5.19,2.17-2.26,5.18-3.52,8.31-3.47l.18.53,1.69.23.31-.36c2.35.88,2.83,3.06.97,5.23-2.46,2.56-5.99,3.8-9.51,3.34"/><path id="_路径_8761" class="cls-10" d="m122.03,420.69l7.12-8.29,1.69.23-7.57,8.81c-.53-.07-1.05-.19-1.55-.38l.3-.37Z"/><g id="_组_3899" class="cls-43"><g id="_组_3898"><g class="cls-45"><g id="_组_3897"><path id="_路径_8762" class="cls-8" d="m135.43,436.61c3.69.49,7.4-.81,9.98-3.5,2.2-2.56,1.3-5.14-2.02-5.76-3.69-.49-7.4.81-9.98,3.5-2.2,2.56-1.29,5.14,2.02,5.76"/></g></g></g></g><path id="_路径_8763" class="cls-10" d="m135.47,435.94c-1.6-.29-2.6-1.06-2.95-2.06l-.93-2.68,13.46-4.71.94,2.68c.35.99.04,2.22-1,3.44-2.46,2.56-6,3.8-9.52,3.34"/><path id="_路径_8764" class="cls-7" d="m134.53,433.27c-.21-.04-.4-.09-.57-.14l-.31.36-.21-.53c-2.25-.89-2.68-3.05-.84-5.18,2.17-2.26,5.18-3.51,8.31-3.47l.18.53,1.69.23.31-.36c2.36.87,2.83,3.06.97,5.23-2.46,2.57-5.99,3.81-9.51,3.34"/><path id="_路径_8765" class="cls-10" d="m133.95,433.12l7.12-8.28,1.69.23-7.57,8.81c-.53-.07-1.05-.19-1.55-.38l.3-.37Z"/><g id="_组_3902" class="cls-43"><g id="_组_3901"><g class="cls-58"><g id="_组_3900"><path id="_路径_8766" class="cls-8" d="m113.32,433.96c3.69.49,7.4-.81,9.98-3.5,2.2-2.56,1.29-5.14-2.02-5.76-3.69-.49-7.4.81-9.98,3.5-2.2,2.56-1.29,5.14,2.02,5.76"/></g></g></g></g><path id="_路径_8767" class="cls-10" d="m122.86,429.99c1.07-1.23,1.37-2.44,1.02-3.45l-.95-2.68-13.45,4.72.94,2.68c.34.99,1.35,1.76,2.92,2.06,3.52.47,7.05-.77,9.51-3.33"/><path id="_路径_8768" class="cls-7" d="m121.93,427.32c.13-.15.25-.3.36-.47l.47.09-.17-.55c1.21-2.11.2-4.05-2.57-4.57-3.1-.41-6.24.48-8.66,2.47l.2.52-1.18,1.23-.47-.09c-1.3,2.15-.3,4.16,2.5,4.69,3.52.46,7.05-.77,9.51-3.33"/><path id="_路径_8769" class="cls-10" d="m122.3,426.84l-10.74-2.02-1.18,1.23,11.4,2.15c.37-.38.7-.8.98-1.26l-.46-.1Z"/></g></g></g></g></g></svg>