<?xml version="1.0" encoding="UTF-8"?><svg id="_圖層_1" xmlns="http://www.w3.org/2000/svg" xmlns:xlink="http://www.w3.org/1999/xlink" viewBox="0 0 294.19 372.37"><defs><style>.cls-1{clip-path:url(#clippath-11);}.cls-2{fill:#dcdcdc;}.cls-2,.cls-3,.cls-4,.cls-5,.cls-6,.cls-7,.cls-8,.cls-9,.cls-10,.cls-11,.cls-12,.cls-13,.cls-14,.cls-15,.cls-16,.cls-17,.cls-18,.cls-19,.cls-20,.cls-21,.cls-22{stroke-width:0px;}.cls-3{fill:#aebfcf;}.cls-4{fill:#2b0d04;}.cls-5{fill:#ebf1f5;}.cls-23{clip-path:url(#clippath-2);}.cls-6{fill:#fcfbfb;}.cls-7{fill:#f7f8fa;}.cls-24{clip-path:url(#clippath-6);}.cls-9{fill:#4a0c00;}.cls-10{fill:#5f1d0f;}.cls-11{fill:#b7b7b7;}.cls-12{fill:none;}.cls-25{clip-path:url(#clippath-7);}.cls-26{clip-path:url(#clippath-1);}.cls-27{clip-path:url(#clippath-4);}.cls-13{fill:#f8f9fc;}.cls-14{fill:#ffd6bf;}.cls-28{opacity:.3;}.cls-29{opacity:.63;}.cls-15{fill:#fff;}.cls-16{fill:#0b7c92;}.cls-17{fill:#cbd3dc;}.cls-30{clip-path:url(#clippath-9);}.cls-31{clip-path:url(#clippath);}.cls-18{fill:#ebeff3;}.cls-19{fill:#ffc89f;}.cls-32{clip-path:url(#clippath-3);}.cls-20{fill:#006ac1;}.cls-33{clip-path:url(#clippath-8);}.cls-21{fill:#0b90aa;}.cls-22{fill:#d7e0e9;}.cls-34{opacity:.2;}.cls-35{clip-path:url(#clippath-5);}.cls-36{clip-path:url(#clippath-10);}</style><clipPath id="clippath"><rect class="cls-12" width="294.19" height="372.37"/></clipPath><clipPath id="clippath-1"><rect class="cls-12" y="0" width="294.2" height="372.37"/></clipPath><clipPath id="clippath-2"><rect class="cls-12" x="4.32" y="7.49" width="285.55" height="329.24"/></clipPath><clipPath id="clippath-3"><rect class="cls-12" width="294.19" height="344.23"/></clipPath><clipPath id="clippath-4"><rect class="cls-12" x="203.63" y="162.96" width="67.62" height="152.37"/></clipPath><clipPath id="clippath-5"><rect class="cls-12" x="203.63" y="162.96" width="67.62" height="152.38"/></clipPath><clipPath id="clippath-6"><rect class="cls-12" x="242.99" y="244.68" width="20.36" height="58.38"/></clipPath><clipPath id="clippath-7"><rect class="cls-12" x="234.42" y="252.67" width="19.43" height="53.92"/></clipPath><clipPath id="clippath-8"><rect class="cls-12" x="236.25" y="168.1" width="5.49" height="21.22"/></clipPath><clipPath id="clippath-9"><rect class="cls-12" x="270.71" y="210.97" width=".54" height=".08"/></clipPath><clipPath id="clippath-10"><rect class="cls-12" x="251.48" y="169.14" width="11.61" height="43.59"/></clipPath><clipPath id="clippath-11"><rect class="cls-12" x="257.82" y="168.33" width="12.89" height="43.69"/></clipPath></defs><g id="_组_5458"><g id="_组_5435"><g class="cls-31"><g id="_组_5434"><g id="_组_5433"><g class="cls-26"><g id="_组_5432"><g id="_组_5428" class="cls-29"><g id="_组_5427"><g class="cls-23"><g id="_组_5426"><path id="_路径_11311" class="cls-20" d="m289.87,7.49v163.58L4.32,336.73v-163.58L289.87,7.49Z"/></g></g></g></g><path id="_路径_11312" class="cls-15" d="m17.21,200.85l9.7-5.6c.17.13.34.25.51.39.59.5,1.12,1.08,1.55,1.72l-13.75,7.94c.57-1.52,1.24-3,1.99-4.44"/><path id="_路径_11313" class="cls-15" d="m17.78,235.9c.31-.56.62-1.1.95-1.65l6.65-3.84c.49.26.97.55,1.43.87l-9.49,5.48c.15-.29.31-.58.46-.86"/><path id="_路径_11314" class="cls-15" d="m15.22,241.39c.2-.54.43-1.1.67-1.64l12.41-7.17c.24.28.47.56.68.86.38.57.7,1.18.96,1.82l-15.66,9.04c.27-.97.58-1.93.95-2.92"/><path id="_路径_11315" class="cls-15" d="m13.25,215.36c0-.26,0-.52.01-.77l17.66-10.2c0,.88-.03,1.76-.13,2.64-.04.34-.08.68-.14,1.03l-17.17,9.91c-.15-.86-.23-1.73-.24-2.61"/><path id="_路径_11316" class="cls-15" d="m28.16,216.3c-.57,1.29-1.21,2.61-1.94,3.96l-8.31,4.8c-.73-.47-1.4-1.04-1.97-1.7l12.22-7.06Z"/><path id="_路径_11317" class="cls-15" d="m15.94,186.98c-.39-.45-.75-.94-1.05-1.46l14.34-8.28c-.32.88-.66,1.78-1.06,2.69l-.06.13-12.1,6.99s-.04-.04-.06-.06"/><path id="_路径_11318" class="cls-15" d="m26.09,184.12c-.45.81-.94,1.65-1.46,2.5-.82,1.33-1.68,2.66-2.54,3.95-1.35-.45-2.66-1.03-3.9-1.72-.05-.03-.1-.06-.15-.09l8.05-4.65Z"/><path id="_路径_11319" class="cls-15" d="m15.43,237.94c-2.75,5.48-4.1,11.13-3.82,15.91l1.67-1.09c-.1-5,1.09-9.94,3.44-14.35,1.61-3.09,3.4-6.08,5.36-8.96,1.69.54,3.28,1.33,4.73,2.34,2.88,2.19,4.32,6.05,4.07,10.84l1.67-.85c.27-5.32-1.31-9.58-4.48-11.99-1.44-1.01-3.01-1.81-4.68-2.36.78-1.2,1.57-2.41,2.34-3.64,3.86-6.26,6.12-12.14,6.7-17.47.62-5.65-.71-10.14-3.73-12.65-1.61-1.23-3.41-2.19-5.32-2.83,1.39-2.13,2.8-4.31,4.08-6.57,3.3-5.88,5.11-11.94,5.11-17.05l-1.67.97c0,4.61-1.65,10.1-4.65,15.44-1.29,2.28-2.74,4.54-4.18,6.72-1.05-.38-2.09-.82-3.09-1.32-3.79-1.93-5.72-5.52-5.72-10.66l-1.67.97c0,5.7,2.1,9.66,6.25,11.77.94.47,1.94.87,2.92,1.26-1.44,2.19-2.89,4.46-4.2,6.82-3.33,5.99-5.06,11.94-4.99,17.17.07,5.09,1.93,8.87,5.41,10.93,1.2.68,2.47,1.24,3.78,1.69-1.95,2.89-3.73,5.88-5.33,8.97m9.2-14.94c-.82,1.32-1.69,2.65-2.54,3.95-1.35-.45-2.66-1.03-3.9-1.72-3.17-1.87-4.88-5.29-4.93-9.88-.06-4.73,1.51-10.11,4.53-15.57,1.32-2.36,2.81-4.68,4.29-6.94,1.92.63,3.73,1.57,5.35,2.79,2.73,2.27,3.93,6.31,3.38,11.39-.53,4.83-2.61,10.2-6.17,15.97"/><path id="_路径_11320" class="cls-15" d="m26.59,297.81l3.48-35.6,3.65,21.09,5.05-20.48,4.33,11.25,3.54-10.32,4.64,9.68,5.55-23.76,4.55,26.98,4.05-20.5,18.73-10.81,2.79-11.08,4.68,23.52,6.49-29.19,5.27,16.18,6.73-29.25,8.09,29.19,6.58-26.07,2.32,7.38,5.97-17.92,6.19,14.96,4.79-12.31,6.24-3.61c.28-.16.38-.52.22-.8-.16-.28-.52-.38-.8-.22l-6.6,3.81-3.88,9.96-6.28-15.16-5.82,17.47-2.47-7.88-6.51,25.79-8.14-29.39-6.82,29.64-5.28-16.23-6.22,27.93-4.61-23.17-3.94,15.68-18.76,10.83-2.91,14.71-4.46-26.42-6.13,26.21-4.43-9.25-3.42,9.98-4.51-11.72-4.6,18.65-4.17-24.14-3.65,37.24-5.22-22.01-2.9,13.54-4.21,2.43c-.28.16-.38.52-.21.8.16.28.52.38.8.21l4.66-2.69,1.91-8.93,5.64,23.81Z"/><path id="_路径_11321" class="cls-15" d="m16.1,320.55l2.48-7.38,2.95,6.92,3.76-11.31,4.29,3.69,3.71-8.28,4.2,5.25.45-.59c.39-.48,3.28-6.89,4.46-9.51l4.44,1.27,3.39-6.51,5.05,6.52,4.04-12.56,3.06,11.4,3.49-11.81,3.22,5.32,2.18-9.81,1.57,8.66,5.07-14.06,4.24,6.34,3.95-9.59,4.12,4.25,5.91-10.58,3.49,3.48,4.64-7.8,3.79,1.39,3.34-5.08,5.2,3.45,5-10.35,4.25,5.12,3.62-9.27,3.55,2.77,2.56-6.61,2.99,2.51,2.95-5.45,2.3,4.73,3.56-8.45,2.3,1.44c.28.17.65.09.82-.19h0c.17-.27.09-.63-.18-.8,0,0-.01,0-.02-.01l-3.47-2.17-3.11,7.34-2.16-4.46-3.36,6.2-3.13-2.64-2.59,6.66-3.54-2.77-3.48,8.89-4.14-4.99-5.22,10.78-5.06-3.36-3.49,5.29-3.82-1.4-4.37,7.34-3.52-3.52-5.89,10.57-4.27-4.41-3.79,9.21-4.31-6.45-4.39,12.13-1.84-10.1-2.81,12.65-3.08-5.09-3.07,10.36-3.01-11.23-4.58,14.23-4.81-6.21-3.8,7.29-4.5-1.28-.21.46c-1.3,2.89-3.3,7.29-4.15,9.03l-4.38-5.48-3.85,8.61-4.42-3.8-3.34,10.03-2.95-6.91-2.9,8.66-1.08-.93c-.24-.21-.61-.19-.82.05,0,0,0,0-.01.01-.21.25-.18.62.06.83l2.41,2.06Z"/><path id="_路径_11322" class="cls-15" d="m45.56,175.98c.08,0,.16-.02.24-.06l33.79-19.51,11.25-11.8c.23.13.19-.72.32-.94.13-.23.05-.51-.17-.65l-11.4,12.3-.24.14-34.02,19.65c-.23.13-.3.41-.18.64,0,0,0,0,0,0,.08.15.24.24.41.24"/><path id="_路径_11323" class="cls-15" d="m75.73,153.61l-32.17,18.58v-10.3l32.17-18.57v10.3Z"/><path id="_路径_11324" class="cls-15" d="m45.56,212.12c.08,0,.16-.02.24-.06l33.79-19.51,13.82,7.97c.23.13.51.05.64-.17s.05-.51-.17-.64h0l-14.29-8.25-.24.14-34.02,19.64c-.23.13-.31.42-.17.65.08.15.24.24.41.24"/><path id="_路径_11325" class="cls-15" d="m75.73,189.92l-32.17,18.57v-10.3l32.17-18.57v10.3Z"/><path id="_路径_11326" class="cls-2" d="m176.82,161.79c-.19-.75-1.09-.85-2.92.44-1.61,1.4-2.72,3.28-3.18,5.36-1.33.15-3.6,2.18-4.66,3.86-.67,1.09-1.17,2.28-1.45,3.52-.18.75-.2,1.53-.07,2.29-1.86.56-3.78,3.28-4.57,5.87-.46,1.32-.56,2.74-.28,4.11.11.42.32.8.59,1.14-2.33,2.01-3.7,4.9-3.77,7.97.05,3.74,2.2,3.99,2.5,4.16-3.18,4.24-1.72,9.25,1.22,7.66-.02.09-.05.19-.08.27-2.24,5.05,1.71,7.27,4.76,4.06.15.81.59,1.53,1.25,2.02,1.19.81,3.48.08,4.77-2.03.24.16.51.28.79.36,1.39.37,3.51-.36,4.74-2.82.26-.64.42-1.32.48-2.01v-43.4c.03-.95,0-1.89-.11-2.83"/><path id="_路径_11327" class="cls-7" d="m171.49,213.32c-.21-.06-.41-.14-.6-.24-.48.67-1.1,1.23-1.81,1.65-.94.67-2.19.76-3.21.22-.59-.44-1.02-1.06-1.23-1.77-.3.28-.63.52-.98.72-1.63.94-3.26.68-4.07-.64-.66-1.07-.64-2.68.05-4.44-1.21.37-2.2-.27-2.62-1.73-.43-2.19.07-4.47,1.38-6.28-.72-.28-2.22-1.08-2.26-4.27.01-1.93.54-3.82,1.52-5.48.55-.98,1.24-1.87,2.04-2.66-.17-.27-.29-.56-.38-.87-.29-1.46-.18-2.98.31-4.39.82-2.7,2.7-5.3,4.47-6.16-.04-.65.01-1.31.16-1.94.31-1.34.84-2.62,1.57-3.79.97-1.48,2.24-2.72,3.74-3.66.28-.17.58-.3.89-.4.59-2.09,1.77-3.95,3.41-5.37.27-.19.53-.35.77-.49,1.96-1.13,2.43-.28,2.54.14.12.98.16,1.96.13,2.94v43.4s0,.05,0,.07c-.07.77-.26,1.53-.56,2.25-.52,1.11-1.36,2.05-2.41,2.69-.84.52-1.86.7-2.83.49m5.07-48.49c.03-.91,0-1.82-.1-2.73-.17-.65-1.12-.46-2.52.52-1.42,1.27-2.42,2.94-2.85,4.8-.02.15-.08.3-.18.42-.07.11-.19.19-.32.21-.36.07-.71.2-1.02.4-1.3.81-2.41,1.89-3.27,3.17-.63,1-1.08,2.11-1.34,3.26-.16.68-.19,1.38-.07,2.06.03.16,0,.32-.1.45-.07.14-.19.25-.34.31-.22.07-.43.16-.63.28-1.71,1.25-2.95,3.05-3.51,5.1-.43,1.23-.53,2.55-.27,3.82.11.38.29.73.55,1.04.08.13.08.29.02.43-.06.17-.17.31-.32.41-.85.73-1.56,1.6-2.09,2.58-.85,1.44-1.3,3.08-1.31,4.75.04,3.09,1.59,3.63,2.18,3.84.07.02.15.05.22.09.09.07.13.18.1.28-.02.15-.08.29-.17.41-1.32,1.59-1.86,3.69-1.47,5.72.39,1.38,1.37,1.87,2.49,1.27.09-.07.22-.06.3.02.07.12.08.26.03.39l-.02.06c-.03.11-.06.21-.1.31-.97,2.18-.54,3.44-.2,4,.76,1.09,2.27,1.36,3.36.6.02-.01.04-.03.06-.04.4-.24.77-.54,1.1-.88.08-.1.19-.16.31-.17.1,0,.18.08.19.18.14.75.56,1.42,1.17,1.87.85.44,1.88.37,2.67-.19.65-.38,1.19-.92,1.58-1.56.15-.25.38-.37.51-.28.23.15.48.26.74.34.82.18,1.68.04,2.39-.4.8-.48,1.45-1.2,1.85-2.04.22-.55.35-1.13.4-1.72v-43.37Z"/><path id="_路径_11328" class="cls-7" d="m168.44,179.99c.19-.12.32-.32.36-.55.04-.26-.1-.4-.29-.34-3.63,1.26-3.69-2.69-3.69-2.85,0-.24-.17-.33-.37-.21h0c-.22.14-.35.38-.37.63,0,.05.06,4.81,4.29,3.34.03,0,.05-.02.07-.03"/><path id="_路径_11329" class="cls-7" d="m165.03,213.4s.08-.05.11-.08c.19-.17.28-.42.24-.67v-.02c-.67-2.15-.54-4.47.35-6.54.92-1.84,2.41-3.34,4.24-4.28h0c.22-.14.36-.38.37-.64,0-.24-.16-.34-.36-.22-2.1,1.11-3.8,2.85-4.85,4.98-1.05,2.32-1.21,4.94-.45,7.37.05.15.2.19.35.1"/><path id="_路径_11330" class="cls-7" d="m168.13,196.44c.08-.05.15-.11.2-.19.16-.18.21-.43.1-.65-.52-.6-.54-2.7.32-5.04.61-1.82,1.81-3.38,3.41-4.44,3.66-2.11,4.37,2.53,4.4,2.73.03.22.22.27.42.11.21-.16.32-.4.31-.66,0-.06-.83-5.52-5.13-3.04-1.92,1.24-3.35,3.1-4.06,5.27-.89,2.44-1.02,5.02-.28,5.89.07.09.19.09.31.01"/><path id="_路径_11331" class="cls-7" d="m168.53,190.4c.1-.06.19-.15.25-.26.15-.24.16-.52.03-.61-1.65-1.16-3.84-1.2-5.52-.1-3.12,1.72-5.37,5.58-5.47,5.74-.14.25-.14.52,0,.6s.38-.05.53-.3c.02-.03,2.13-3.65,4.93-5.19,1.53-.98,3.51-.93,4.99.13.09.05.19.04.27-.02"/><path id="_路径_11332" class="cls-7" d="m170.91,212.91c.21-.14.35-.37.37-.62,0-.12-.02-.24-.06-.36-.32-1.08-.14-2.24.48-3.18.15-.24.17-.52.04-.62s-.37,0-.52.25c-.84,1.22-1.1,2.74-.72,4.17.02.05.03.11.03.16-.02.12.07.24.19.25.06,0,.12,0,.17-.05h.01"/><path id="_路径_11333" class="cls-7" d="m170.43,182.76h.01c2.25-1.56,3.93-3.8,4.8-6.38.63-2.03.29-3.65-.96-4.55-.9-.62-1.34-1.72-1.14-2.79.33-1.46.99-2.82,1.93-3.99.17-.17.23-.43.15-.66-.1-.15-.32-.1-.51.12-1.14,1.4-1.93,3.04-2.3,4.8-.27,1.29.24,2.63,1.31,3.4,1.05.77,1.35,2.06.83,3.72-.76,2.23-2.21,4.15-4.15,5.48-.21.15-.34.39-.35.65,0,.23.17.31.37.2"/><path id="_路径_11334" class="cls-7" d="m176.49,203.68c.19-.11.37-.24.54-.39.19-.17.29-.42.26-.67-.05-.19-.26-.21-.45-.03-.32.29-.74.45-1.18.45-.48-.09-.8-.62-.94-1.58-.03-.22-.22-.27-.42-.12-.2.16-.32.41-.31.66.17,1.2.6,1.87,1.27,1.98.43.04.86-.07,1.23-.31"/><path id="_路径_11335" class="cls-7" d="m163.31,204.21c.19-.13.32-.32.36-.54.05-.26-.08-.41-.28-.35-.53.17-.87.1-1.01-.2-.11-.73,0-1.47.3-2.14.1-.26.05-.49-.12-.51-.67-.08-1.02-.38-1.05-.88.08-.7.33-1.38.73-1.96.08-.11.13-.25.14-.39.02-.1-.02-.2-.1-.27-.55-.37-.73-1.09-.42-1.67.11-.37.35-.69.66-.91.23-.1.4-.31.44-.56.05-.26-.07-.42-.27-.37-.71.38-1.24,1.01-1.49,1.78-.44.79-.32,1.77.28,2.44-.44.72-.69,1.53-.73,2.37,0,.65.47,1.21,1.11,1.31-.32.79-.38,1.66-.18,2.48.24.51.75.64,1.52.4.03,0,.06-.02.09-.03"/><path id="_路径_11336" class="cls-7" d="m167.51,198.48c.18-.12.31-.31.35-.52l.02-.09c.06-.62.26-1.21.6-1.73.24-.33.57-.56.96-.68.23-.1.4-.31.44-.56.05-.26-.07-.42-.27-.37-.63.2-1.18.6-1.56,1.14-.51.75-.82,1.61-.92,2.5h0c-.04.24.08.39.27.34.03-.01.07-.02.1-.04"/><path id="_路径_11337" class="cls-7" d="m162.35,186.24c.21-.14.35-.37.37-.62,0-.05,0-.11-.02-.16-.2-.71-.15-1.46.14-2.14.26-.5.67-.91,1.16-1.18.22-.14.35-.38.36-.64,0-.23-.17-.32-.37-.21h0c-.75.43-1.35,1.08-1.73,1.85-.43.92-.53,1.96-.27,2.95,0,.12.1.21.22.21.05,0,.09-.02.13-.05h.02"/><path id="_路径_11338" class="cls-7" d="m174.08,197.82c.11-.07.2-.16.26-.27.54-.76.83-1.67.83-2.6-.06-.55-.55-.95-1.09-.89,0,0,0,0,0,0-.19,0-.36.12-.45.29-.15.24-.17.52-.04.62.04.03.09.04.14.04.54.01.68.27.71.48-.05.63-.26,1.23-.62,1.74-.14.25-.14.52,0,.6.09.04.19.03.26-.02"/><path id="_路径_11339" class="cls-7" d="m168.56,175.58c.69-.37,1.25-.94,1.62-1.63.34-.65.44-1.4.27-2.11,0-.12-.09-.21-.21-.21-.04,0-.08.01-.11.03-.23.13-.38.35-.41.61,0,.06,0,.13.02.19.12.43.08.88-.12,1.28-.31.5-.77.9-1.31,1.13-.22.13-.36.36-.39.62-.02.24.14.36.34.26.1-.05.21-.11.31-.17"/><path id="_路径_11340" class="cls-2" d="m179.26,160.38c.19-.98,1.09-2.11,2.91-2.93,1.16-.51,2.52.03,3.03,1.19.07.16.12.32.15.49,1.33-1.37,3.6-1.98,4.66-1.52.73.37,1.26,1.05,1.45,1.85.19.72.21,1.47.07,2.21,1.87-1.6,3.78-1.09,4.57.59.49,1.2.59,2.52.29,3.78-.14.63-.34,1.24-.59,1.82.58-.34,3.82-.81,3.77,3.63-.12,2.54-.99,4.99-2.49,7.04,3.18.57,1.72,7.26-1.22,9.06.02.06.05.12.08.18,2.25,2.45-1.71,9.24-4.75,9.55-.24,1.21-.66,2.38-1.26,3.46-1.19,2.19-3.48,4.1-4.77,3.48-.28.5-.56.95-.79,1.27-1.39,1.97-3.51,3.69-4.74,2.66-.29-.43-.45-.93-.48-1.45v-43.4c-.03-.99.01-1.98.12-2.97"/><path id="_路径_11341" class="cls-7" d="m179.34,208.63c-.34-.47-.54-1.03-.56-1.61v-.07s0-43.39,0-43.39c-.03-1.03.02-2.06.13-3.09.36-1.35,1.29-2.48,2.54-3.08.25-.14.51-.28.77-.39,1.28-.57,2.79.01,3.35,1.3.02.05.04.09.06.14.28-.24.58-.45.89-.62,1.1-.73,2.46-.97,3.74-.66.79.4,1.36,1.12,1.56,1.98.16.57.22,1.17.17,1.76,1.77-1.18,3.64-.75,4.46,1,.52,1.28.63,2.69.31,4.04-.1.44-.22.88-.38,1.3.7-.14,1.42-.03,2.04.32,1.01.6,1.54,1.89,1.52,3.72-.1,2.46-.88,4.84-2.26,6.88,1.62.59,1.77,2.84,1.37,4.69-.35,1.82-1.26,3.48-2.61,4.75.69.98.71,2.55.05,4.38-.75,2.17-2.17,4.04-4.07,5.33-.31.18-.64.32-.98.41-.27,1.12-.68,2.19-1.23,3.2-.75,1.41-1.86,2.61-3.21,3.48-.53.36-1.17.52-1.81.43-.2.34-.41.66-.6.94-.74,1.11-1.7,2.05-2.82,2.77-.7.56-1.68.61-2.42.11m6.07-4.83c.54.17,1.13.07,1.59-.26,1.12-.72,2.03-1.72,2.66-2.89.55-1.01.95-2.09,1.17-3.22.03-.15.1-.28.19-.39.07-.1.19-.17.31-.19.39-.05.76-.18,1.09-.39,1.59-1.1,2.79-2.67,3.42-4.5.34-.95.77-2.71-.2-3.78-.05-.06-.08-.12-.1-.19l-.02-.04c-.05-.14-.04-.29.02-.42.06-.15.17-.28.3-.37,1.32-1.02,2.21-2.5,2.48-4.15.36-1.67.19-3.73-1.47-4.03-.1-.02-.15-.1-.16-.22,0-.14.03-.28.11-.4.04-.08.12-.19.21-.33,1.33-1.86,2.08-4.07,2.17-6.35.02-1.62-.42-2.71-1.31-3.24-.64-.36-1.4-.43-2.09-.17-.14.07-.26.06-.32-.04-.07-.14-.06-.31.01-.44.24-.54.42-1.09.55-1.67.28-1.17.19-2.4-.27-3.51-.49-1.2-1.86-1.78-3.06-1.29-.16.07-.32.15-.46.25-.22.13-.43.28-.62.45-.09.1-.23.13-.35.09-.1-.08-.14-.22-.1-.34.12-.66.1-1.34-.07-1.99-.18-.74-.67-1.37-1.35-1.72-1.12-.25-2.29-.03-3.25.59-.38.21-.72.48-1.02.79-.08.1-.19.16-.32.16-.1-.01-.18-.1-.18-.2-.26-1.15-1.39-1.87-2.54-1.61-.11.02-.21.06-.32.1-1.15.38-2.07,1.26-2.52,2.39-.1.95-.13,1.9-.1,2.85v43.37c.15.97.33,1.2.4,1.26.46.39,1.08.35,1.85-.1.95-.61,1.76-1.41,2.39-2.35.23-.32.5-.76.74-1.19.06-.12.15-.22.27-.29.07-.05.16-.06.25-.03"/><path id="_路径_11342" class="cls-7" d="m187.64,168.9s.05-.03.07-.05c2.52-2.05,4.08-5.05,4.29-8.29,0-.24-.17-.34-.37-.22-.22.14-.36.38-.37.64-.17,2.79-1.52,5.38-3.7,7.13-.2.16-.31.41-.29.66.03.18.19.24.36.14"/><path id="_路径_11343" class="cls-7" d="m191.4,197.88l-.35.07.35-.09c.21-.87,1.16-5.24-.46-6.84-.95-.94-2.58-.73-4.85.61-.22.14-.35.38-.37.64,0,.24.18.32.37.21,2.02-1.2,3.44-1.4,4.24-.61,1.44,1.42.46,5.65.35,6.13l.35-.06.35-.07Z"/><path id="_路径_11344" class="cls-7" d="m187.95,185c.14-.09.24-.22.31-.37.73-1.81.62-3.84-.29-5.56-.88-1.38-2.32-1.59-4.06-.59-4.3,2.48-5.12,8.9-5.13,8.96-.03.25.11.39.31.31.23-.12.39-.34.42-.6.03-.23.73-5.69,4.4-7.81,1.96-1.13,2.97-.17,3.41.51.78,1.44.89,3.14.32,4.67-.11.26-.07.5.11.53.07,0,.14,0,.2-.05"/><path id="_路径_11345" class="cls-7" d="m187.54,179.42c.11-.07.21-.18.27-.3,1.12-2.37,2.85-4.4,5-5.9.04-.03.08-.05.13-.07,1.42-.96,3.23-1.12,4.79-.43.14.09.38-.05.52-.3s.15-.52,0-.6c-.1-.06-2.35-1.32-5.46.56-1.98,1.19-3.84,3.38-5.53,6.48-.14.25-.13.52.03.59.08.03.18.02.25-.03"/><path id="_路径_11346" class="cls-7" d="m185.17,204.69h.01c.21-.15.34-.38.36-.63,0-.05.02-.12.04-.2.14-.78.53-2.83-.73-3.34-.15-.06-.39.1-.52.35s-.11.51.05.58c.9.36.62,1.89.48,2.62-.03.14-.05.28-.05.42,0,.23.17.32.37.2"/><path id="_路径_11347" class="cls-7" d="m185.65,173.97c.21-.14.35-.37.37-.62,0-.24-.15-.35-.35-.24-1.73.93-3.52.64-4.15-.69-.52-1.08-.22-2.7.83-4.68,1.07-2.03,1.51-3.68,1.31-4.92-.17-1.16-1.13-2.05-2.3-2.13-.18,0-.4.19-.51.46s-.03.48.15.49c.97.08,1.76.8,1.93,1.75.05,1.45-.34,2.88-1.13,4.1-1.24,2.34-1.58,4.35-.96,5.66.74,1.55,2.81,1.91,4.81.83h.02"/><path id="_路径_11348" class="cls-7" d="m179.59,201.89c.48-.29.89-.67,1.22-1.11.72-1.02,1.16-2.21,1.27-3.46.03-.25-.1-.39-.31-.3-.23.12-.38.34-.42.6-.07.95-.39,1.87-.93,2.66-.29.42-.7.74-1.18.91-.24.1-.41.31-.45.56-.05.26.06.42.26.37.19-.06.37-.14.54-.24"/><path id="_路径_11349" class="cls-7" d="m192.77,187.19l.08-.05c.71-.56,1.24-1.31,1.53-2.16.24-.75.17-1.57-.18-2.27.61-.74.99-1.64,1.11-2.6.07-.61-.22-1.2-.73-1.53.58-1.18.68-2.2.28-2.76-.32-.43-.93-.51-1.35-.19-.05.04-.09.08-.13.12-.19.17-.29.42-.27.68.05.19.26.22.45.04.22-.14.51-.08.65.13,0,0,0,0,0,.01.16.23.33.82-.42,2.15-.07.12-.1.25-.1.39,0,.1.05.19.14.22.46.17.76.62.73,1.11-.14.78-.51,1.51-1.05,2.09-.17.17-.22.43-.12.66.35.53.46,1.19.3,1.8-.2.54-.55,1.01-1.01,1.37-.2.16-.3.42-.28.67.03.17.19.21.36.12"/><path id="_路径_11350" class="cls-7" d="m188.57,186.32s.07-.04.1-.07c.18-.16.28-.4.27-.64-.05-.4-.24-1.31-.92-1.45-.59-.03-1.16.21-1.55.65-.2.16-.3.42-.27.67.05.2.25.22.45.05.4-.34.71-.48.96-.43.45.1.58.81.61,1.04,0,.02,0,.04.01.07.04.16.19.2.35.11"/><path id="_路径_11351" class="cls-7" d="m193.72,168.13h.02c.18-.14.31-.34.35-.56.26-1.32.16-2.25-.27-2.65-.37-.34-.95-.29-1.73.15h0c-.22.14-.35.38-.37.63,0,.24.16.34.36.22.55-.3.93-.35,1.16-.15.28.26.33.98.14,1.98-.02.06-.02.12-.02.19.01.22.17.3.37.19"/><path id="_路径_11352" class="cls-7" d="m182,193.25c.11-.07.2-.16.26-.28.14-.25.14-.52,0-.6-.4-.18-.65-.59-.62-1.03.1-.49.35-.95.7-1.31.06-.06.1-.13.14-.2.14-.25.12-.51-.04-.58-.12-.06-.3.03-.44.21-.57.6-.96,1.36-1.11,2.17-.12.67.22,1.34.83,1.64.09.04.19.03.26-.03"/><path id="_路径_11353" class="cls-7" d="m187.52,164.64c.1-.06.2-.12.3-.19.21-.15.34-.39.34-.65-.01-.23-.19-.31-.39-.17-.44.29-1.03.59-1.31.37-.13-.1-.26-.39-.11-1.14.02-.07.02-.14.02-.21-.03-.22-.22-.27-.42-.13-.17.13-.28.32-.31.53-.22,1.16.02,1.63.26,1.82.34.27.88.19,1.62-.24"/><path id="_路径_11354" class="cls-7" d="m187.72,196.23l.07-.05c1.62-1.26,2.68-3.11,2.92-5.15,0-.24-.15-.35-.35-.24-.22.14-.36.37-.39.62-.21,1.6-1.05,3.05-2.33,4.02-.2.16-.31.41-.29.67.04.18.19.23.36.14"/><path id="_路径_11355" class="cls-15" d="m231.25,156.88l-26.58,15.35v-8.52l26.58-15.35v8.51Z"/><path id="_路径_11356" class="cls-15" d="m227.7,194.78l-26.58,15.35v-8.52l26.58-15.35v8.52Z"/><path id="_路径_11357" class="cls-15" d="m196.96,190.3c.13,0,.26-.07.33-.18l9.1-14.37,26.62-15.37c.19-.11.25-.35.14-.53-.11-.19-.35-.25-.53-.14l-26.78,15.46-.05.08-9.15,14.45c-.12.18-.06.42.12.54.06.04.13.06.21.06"/><path id="_路径_11358" class="cls-15" d="m202.59,213.31l.16-.1,26.7-15.42c.19-.1.25-.34.15-.53,0,0,0,0,0,0-.11-.19-.35-.25-.54-.14l-26.54,15.32-14.21-5.57c-.2-.08-.43.02-.51.22-.08.2.02.43.22.51h0l14.57,5.72Z"/><g id="_组_5431" class="cls-29"><g id="_组_5430"><g class="cls-32"><g id="_组_5429"><path id="_路径_11359" class="cls-20" d="m292.36,3.19v169.32L1.84,341.04v-169.33L292.36,3.19Zm1.84-3.19l-2.76,1.6L.92,170.12l-.92.53v173.58l2.76-1.6,290.52-168.52.92-.53V0h0Z"/></g></g></g></g><path id="_路径_11360" class="cls-15" d="m114.32,182.05c.12-1,.3-1.99.55-2.96.25-1.02.56-2.03.78-3.06.19-.84.28-1.71.27-2.57-.03-.79.04-1.58.22-2.35.24-.75.6-1.46,1.06-2.11.38-.65.93-1.18,1.58-1.56.53-.25.93.1,1.34.27.28.05.56.13.83.22.37.12.72.3,1.05.51l.05.02s.05.02.06.04c.64.45,1.21.99,1.68,1.6.93,1.12,1.66,2.39,2.15,3.76.59,1.66.95,3.38,1.08,5.13.19,2.24.26,4.5.22,6.75-.03,2.23.36,4.14.48,6.25.04.65,1.09.63.85,1.36-.23.75-1.84,1.82-2.3,2.06-.5.27-1.07.38-1.64.31-.57-.09-1.12-.3-1.61-.62-.53-.41-1.09-.79-1.66-1.14-.56-.24-1.17-.38-1.78-.39-.67-.11-1.33-.27-1.98-.47-.32-.08-.64-.1-.97-.08-.29.05-.59,0-.83-.17-.22-.2-.4-.45-.5-.73-.18-.39-.33-.78-.46-1.19-.28-.87-.47-1.77-.57-2.68-.22-2.07-.21-4.16.03-6.23"/><path id="_路径_11361" class="cls-15" d="m112.64,182.43c.14-1.03.37-2.04.68-3.03.32-1.05.71-2.11.98-3.14.23-.85.35-1.73.34-2.62-.04-.8.05-1.61.26-2.38.32-.82.76-1.59,1.32-2.27.52-.72,1.19-1.33,1.96-1.77.55-.19,1.15-.16,1.68.09.34.02.68.05,1.02.1.45.07.88.19,1.3.36.02.01.04.01.06.02.03,0,.06.02.08.04.76.34,1.47.8,2.09,1.35,1.12.96,2.03,2.14,2.67,3.48.73,1.57,1.18,3.26,1.34,4.99.25,2.23.34,4.47.29,6.7.09,2.07.29,4.14.59,6.19.06.72-.03,1.44-.28,2.13-.27.72-.79,1.31-1.47,1.67-.65.3-1.37.42-2.08.36-.68,0-1.36-.14-1.99-.4-.67-.34-1.37-.64-2.07-.91-.73-.15-1.48-.2-2.22-.13-.82-.02-1.63-.09-2.45-.2-.4-.02-.8,0-1.2.07-.35.08-.71.06-1.05-.05-.26-.16-.47-.4-.6-.68-.22-.36-.42-.73-.59-1.11-.34-.84-.58-1.72-.7-2.62-.27-2.07-.25-4.17.05-6.23"/><path id="_路径_11362" class="cls-15" d="m112.69,182.11c.14-.92.35-1.82.62-2.7.32-1.05.71-2.11.97-3.14.23-.85.35-1.73.35-2.62-.04-.8.04-1.61.26-2.38.32-.82.77-1.59,1.33-2.27.52-.72,1.18-1.33,1.96-1.77.55-.19,1.15-.16,1.68.09.34.01.68.05,1.02.1.45.07.88.19,1.3.36.02.01.05.01.07.02.03,0,.05.02.07.03.76.34,1.47.8,2.09,1.35,1.12.96,2.03,2.14,2.67,3.48.87,1.43,1.49,3,1.82,4.64-.63,1.44-1.45,2.79-2.45,4.01-2.04,2.81-4.51,5.17-5.51,8.38-.4,1.49-.66,3-.8,4.53-3.02.39-1.49-12.26-7.45-12.11"/><path id="_路径_11363" class="cls-15" d="m92.81,213.57c.29.45.88.35,1.47-.03.78-.58,1.48-1.27,2.08-2.04.72-.85,1.39-1.75,1.99-2.69.7-1.1,1.33-2.23,2.06-3.29.07-.09.14-.18.2-.28.63-.84,1.31-1.65,2.03-2.41.85-.95,1.63-2.03,2.45-3.04.32-.39.64-.74.98-1.11.08-.07.14-.14.21-.2.39-.39.74-.81,1.05-1.27.2-.33.36-.69.48-1.05.04-.1.08-.22.11-.32.11-.31.22-.62.32-.92s.19-.59.27-.87c.89-3.12,1.12-6.4.66-9.62-.11-.72-.31-1.41-.59-2.08-.02-.06-.05-.1-.08-.17-.32-.68-.7-1.3-.98-2.02-.25-.71-.37-1.47-.34-2.22.06-.7-.03-1.41-.26-2.08-.3-.44-.79-.72-1.32-.74-.69-.08-1.38.09-1.95.48-.67.58-1.23,1.27-1.68,2.03-.35.42-.69.85-1.02,1.28-.46.61-.9,1.23-1.31,1.86l-.06.1s-.05.08-.07.12c-.57.9-1.09,1.82-1.59,2.77l-.02.03c-.17.32-.33.64-.49.97-1.06,2.11-1.95,4.31-2.67,6.56-.51,1.62-.89,3.28-1.15,4.96-.08.53-.15,1.05-.19,1.57-.1.96-.16,1.91-.22,2.85-.07,1.42-.1,2.81-.07,4.19.06,2.16-.44,4.61-.59,6.87-.09.61.01,1.24.29,1.8"/><path id="_路径_11364" class="cls-15" d="m92.94,200.08c.07.19.15.42.24.63.29.69.68,1.44.92,2.01.76,1.68,1.96,3.26,3.9,3,.88-.11,1.74-.27,2.6-.48.18-.04.36-.09.53-.15.52-.66,1.06-1.27,1.62-1.89.46-.51,1.96-2.6,3.31-4.53.68-.95,1.3-1.86,1.75-2.53.04-.1.08-.22.12-.32.11-.31.22-.62.32-.92-.34-.32-.7-.62-1.06-.91-1.25-1.1-1.31-3.48-.93-6.04.38-2.01,1.18-3.92,2.34-5.61.06-.09.11-.15.16-.23v-.02c-.34-.7-.73-1.33-1.01-2.08-.25-.73-.37-1.51-.34-2.28.06-.72-.03-1.44-.26-2.13-.3-.46-.81-.74-1.36-.75-.7-.1-1.41.07-1.99.48-.68.59-1.26,1.29-1.71,2.07-.35.42-.71.86-1.04,1.31-.47.62-.91,1.26-1.33,1.91-.02.03-.04.05-.06.09-.03.04-.05.08-.07.12-.59.95-1.13,1.93-1.65,2.92l-.02.03c-.15.31-.3.6-.45.9-1.09,2.16-2,4.4-2.73,6.71-.34,1.14-.78,3.11-1.13,4.88-.35,1.79-.62,3.4-.65,3.78"/><path id="_路径_11365" class="cls-15" d="m109.42,175.56l2.47-1.43v-13.76l-2.47,1.43v13.76Z"/><path id="_路径_11366" class="cls-15" d="m111.44,168.01c.12-.13.24-.02.14.14-.28.57-.33,1.22-.14,1.82.08.5.25.98.52,1.42.77,1.07,2.13,1.32,3.34,1.63,1.05.25,2.29.27,2.9,1.28.33.7.53,1.45.59,2.22.13,1.01.19,2.02.19,3.04-.11,1.47-.1,2.95.05,4.42.12,1.1.84,2.04,1.86,2.45.86.29,1.84.32,2.68.63.92.33,1.57,1.14,1.7,2.11.03.15-.19.33-.22.18-.1-.68-.46-1.3-1.01-1.72-.49-.29-1.04-.48-1.6-.54-1.2-.23-2.41-.41-3.12-1.53s-.69-2.82-.61-4.54c.06-1.1.04-2.21-.07-3.3-.06-.89-.29-1.76-.66-2.57-.45-.82-1.41-.84-2.24-.98-1.09-.13-2.15-.41-3.15-.85-.89-.41-1.51-1.25-1.64-2.22-.11-.73-.29-2.19.52-3.07"/><path id="_路径_11367" class="cls-15" d="m114.15,189.16c.09-.4.27-.83.39-1.23.1-.38.17-.76.22-1.15.05-.62.02-1.24-.09-1.85-.31-1.19-.43-2.42-.36-3.65.2-1.16.69-2.25,1.43-3.17.75-1.06,2.23-2.68,2.11-3.89-.01-.08.11-.22.14-.14.42.89-.73,2.5-1.42,3.45-.87,1.01-1.5,2.21-1.85,3.5-.13,1.35-.03,2.71.28,4.04.07.61.07,1.23-.02,1.84-.09.8-.34,1.57-.72,2.27-.04.07-.12.07-.1-.02"/><path id="_路径_11368" class="cls-15" d="m118.87,180.32c0-.07.07-.11.08-.04-.02.74.2,1.47.64,2.08.44.34,1.01.43,1.53.26,1.36-.29,2.76-1.32,4.16-1.95.02,0,.02.03,0,.04-.73.49-1.48.95-2.26,1.35-.66.39-1.38.67-2.13.84-.53.15-1.09.01-1.49-.36-.46-.64-.65-1.43-.53-2.21"/><path id="_路径_11369" class="cls-15" d="m117.16,172.64c.37-.46.83-.84,1.35-1.12.83-.55,1.82-.79,2.81-.67.74.18,1.08,1.11,1.53,1.73s1.22,1.64,2.28.66c.03-.02.03.02,0,.04-.26.3-.64.5-1.04.53-.39-.02-.75-.2-1.01-.48-.52-.64-1.07-1.25-1.66-1.82-.31-.15-.66-.2-1-.12-.53.06-1.05.21-1.53.44-.55.24-1.04.59-1.45,1.02-.19.2-.36.43-.48.68-.05.09-.24.5-.35.42-.24-.22.3-1.01.54-1.32"/><path id="_路径_11370" class="cls-15" d="m103.76,188.64c-1.15-.78-1.85-2.08-1.87-3.47.14-1.84.76-3.6,1.8-5.13.84-1.42,1.82-2.7,2.77-4,.53-.69,1.09-1.34,1.69-1.97.79-.87,1.58-1.69,2.4-2.48.17-.15,1.11-1.2,1.15-.75,0,.08-.04.16-.12.2l-.04.06c-.04.06-.08.12-.13.17-.15.17-.29.35-.45.52-.43.51-.86,1.03-1.29,1.55-.79.96-1.63,1.86-2.43,2.81-.47.57-.9,1.21-1.32,1.82-.58.8-1.13,1.6-1.64,2.44-1.03,1.47-1.63,3.2-1.73,4.99.08,1.06.6,2.03,1.44,2.68.75.58,1.43,1.24,2.04,1.97.34.48.59,1.02.73,1.59.17.56.18,1.15.02,1.71-.49,1.09-1.07,2.14-1.72,3.15-.12.24-.39.21-.26-.05.38-.72.79-1.43,1.24-2.11.21-.34.37-.71.49-1.1.1-.45.07-.92-.07-1.36-.4-1.7-1.67-2.4-2.72-3.26"/><path id="_路径_11371" class="cls-15" d="m95.75,208.71c.31-.95.48-1.93.52-2.92.09-.93.19-1.87.35-2.83.07-.44.18-.88.33-1.3.19-.49.41-.98.66-1.45.54-1.01,1.13-1.98,1.77-2.93,1.08-1.88,1.68-4,1.74-6.16.04-.91.07-1.81.07-2.69-.03-.8.02-1.6.13-2.39.16-1.12.59-2.18,1.24-3.1.07-.1.15,0,.1.1-.44.75-.66,1.6-.65,2.47-.02.79.06,1.51.11,2.26.15,1.91.05,3.84-.3,5.72-.25,1.18-.65,2.31-1.19,3.39-.51.98-1.15,1.9-1.75,2.83-.28.44-.61.85-.88,1.3-.27.43-.49.89-.66,1.36-.3.97-.5,1.96-.59,2.97-.02,1.19-.28,2.35-.77,3.43-.12.19-.27.12-.2-.07"/><path id="_路径_11372" class="cls-15" d="m94.12,201.43c.25-.64.54-1.27.87-1.88.27-.62.48-1.26.61-1.92.12-1.05.48-2.07,1.05-2.96.68-.89,1.51-1.67,2.43-2.31.45-.32.91-.62,1.36-.91.39-.28.8-.53,1.23-.73.13-.06.22.12.07.29-.33.32-.69.61-1.08.85-.42.29-.85.58-1.27.88-.91.61-1.73,1.34-2.46,2.16-.59.94-.97,1.99-1.1,3.09-.16.6-.38,1.17-.66,1.73-.26.62-.58,1.21-.96,1.76-.04.05-.12.04-.1-.05"/><path id="_路径_11373" class="cls-15" d="m96.75,189.72c.29-.58.61-1.13.98-1.67.4-.62.75-1.26,1.04-1.94.39-1.16.9-2.28,1.54-3.33.49-.73,1.14-1.33,1.92-1.74.55-.27,1.41-.25,1.39.51,0,.09-.1.21-.15.19-.23-.08-.36-.3-.62-.32-.3,0-.59.1-.84.27-.69.44-1.28,1.03-1.72,1.72-.57,1.02-1.07,2.07-1.5,3.15-.57,1.08-1.31,2.13-1.98,3.17-.02.03-.07.03-.05-.02"/><path id="_路径_11374" class="cls-15" d="m108.5,146.82c.03-.53.09-1.06.17-1.58.07-.54.17-1.08.33-1.61.03-.12.18-.24.19-.11.04.45.05.91.02,1.37-.02.5,0,.98,0,1.47-.03.75.21,1.49.68,2.08.3.21.63.36.98.46.37.11.72.31,1.02.56.3.31.51.7.6,1.12.12.48.03,1.11.16,1.59.03.14-.19.32-.22.17-.14-.43-.1-1.01-.2-1.45-.12-.42-.46-.75-.89-.84-.4-.1-.81-.16-1.22-.17-.41-.02-.8-.2-1.08-.51-.49-.76-.69-1.67-.55-2.56"/><path id="_路径_11375" class="cls-15" d="m114.19,144.19c0,2.27,1.81,3.07,4.04,1.79,2.29-1.39,3.79-3.78,4.03-6.44,0-2.27-1.8-3.07-4.03-1.78-2.29,1.38-3.79,3.77-4.04,6.43"/><path id="_路径_11376" class="cls-15" d="m114.27,143.73c-.39,2.45,1.09,3.79,3.28,3.02,2.42-1.05,4.16-3.24,4.64-5.83.38-2.45-1.1-3.8-3.29-3.01-2.41,1.06-4.14,3.24-4.62,5.83"/><path id="_路径_11377" class="cls-15" d="m109.77,126.59c.05-.92.6-8.96.65-9.55.02-.22.13-.43.3-.58.5-.37,1.02-.7,1.57-1,.16-.1.31-.04.34.11.29,1.78-.1,9.27-.14,10.18.03,1.08-.2,2.16-.66,3.14-.24.44-.72.66-.94.51-.08-.06-.14-.15-.17-.26-.06.05-.12.09-.18.13-.29.15-.45.02-.55-.21-.23-.8-.3-1.64-.21-2.47"/><path id="_路径_11378" class="cls-15" d="m107.19,141.35c-.1-3.17-.67-6.03-.48-9.36.04-.71.24-1.49.23-2.2.67-.45,1.32-.97,1.96-1.49,2.74-2.29,5.29-5.07,8.17-6.92,4.27-2.74,8.75-3.15,11.04-.14,2.84,3.74-.18,10.12.48,15.27.2,1.61.62,5.23-1.71,7-1.97,1.52-4.1-.09-5.56-.41-4.17-.91-7.8,1.09-12.09,2.51-.58.19-1.14.34-1.67.47-.11.02-.24.05-.35.07.08-1.66.04-3.26-.02-4.81"/><path id="_路径_11379" class="cls-15" d="m106.71,131.98c.04-.71.24-1.49.23-2.2.67-.45,1.32-.97,1.96-1.49.95-.8,1.88-1.66,2.81-2.51-.46,1.02-.73,2.12-.81,3.24-.24,4.14-.05,8.42,2.37,10.14,3.94,2.76,9.81.19,15.36-2.3.21,1.74.4,5-1.75,6.63-1.97,1.52-4.1-.09-5.56-.41-4.17-.91-7.8,1.09-12.09,2.51-.58.19-1.14.34-1.67.47-.12.02-.24.05-.36.07.08-1.66.04-3.26-.02-4.81-.1-3.17-.67-6.03-.48-9.36"/><path id="_路径_11380" class="cls-15" d="m99.15,134.27c.19-.09.39-.18.58-.27.66-.34,1.29-.72,1.9-1.15,0,.72-.19,1.5-.23,2.2-.19,3.34.37,6.2.47,9.37.05,1.55.1,3.15.02,4.81-.03,0-.06.01-.09.02-2.55.52-5.1,1.03-6.91-.48-2.19-1.84-7.4-1.23-7.39-3.54.48-3.22,7.4-10,11.64-10.95"/><path id="_路径_11381" class="cls-15" d="m92.21,138.62c-.56.98-.95,2.06-1.15,3.17-.47,2.9,1.47,3.47,3.26,3.6,1.57.08,2.62,1.23,4.28,1.1,1.14-.19,2.25-.55,3.29-1.06.04,1.23.05,2.49-.02,3.8-.03,0-.05.01-.08.01-2.55.52-5.1,1.03-6.91-.48-2.19-1.84-7.4-1.23-7.39-3.54.25-1.67,2.25-4.32,4.7-6.6"/><path id="_路径_11382" class="cls-15" d="m99.81,139.43c.11-.89.26-1.8.45-2.72.14-.89.34-1.77.6-2.64.1-.43.33-.81.67-1.1.03-.02.06-.04.1-.06h0c.44-.37.67,0,.83.29.24.45.52.86.74,1.32.62,1.29,1.03,2.67,1.23,4.09.23,1.72.21,3.47-.04,5.19-.08,1.29-.38,2.55-.9,3.73-.28.57-.69,1.06-1.2,1.44-.23.15-.47.29-.63.18-.17-.08-.22-.31-.27-.54-.19-.73-.4-1.46-.64-2.16s-.52-1.33-.74-2.06c-.39-1.63-.47-3.31-.22-4.97"/><path id="_路径_11383" class="cls-15" d="m101.75,144.95c.3-.38.85-.45,1.24-.16.28.25.52.56.68.9.05.02.08.07.1.16.03,1.73-.27,3.46-.88,5.08-.29.86-.5,1.74-.64,2.64-.04.32-.01.65.07.96.04.19.12.49.29.52.15.02.05.34-.12.39-.43.1-.53-.54-.61-.94-.09-.88,0-1.76.24-2.61.42-1.86,1.13-3.84,1.03-5.49-.11-.32-.28-.62-.5-.88-.1-.13-.23-.23-.39-.29-.17-.03-.33-.03-.5-.01-.1,0-.08-.17,0-.26"/><path id="_路径_11384" class="cls-15" d="m103.11,145c.92,1.18,2.4,1.58,3,3.17.3,1.04.34,2.14.14,3.21-.1.97-.42,2.17-.02,2.81.08.11-.11.39-.22.31-.55-.37-.32-1.61-.21-2.51.2-1.04.14-2.12-.17-3.14-.63-1.55-2.41-1.74-2.65-3.7-.02-.1.09-.22.14-.15"/><path id="_路径_11385" class="cls-15" d="m241.37,122.44l.05-.36c0-.12.47-16.79.99-22.71.6-6.69,3.58-27.82,3.58-27.82.21-1.18.65-2.3,1.3-3.31l.94-1.53v-.02c.91-1.52,7.09-7.39,8.97-9.64l.02-.03c.05-.07.1-.12.15-.18.02-.03.04-.06.06-.08.04-.05.07-.09.1-.13l.02-3.23c-.07-.04-.14-.08-.22-.11-.97-1.15-1.66-2.5-2.02-3.95h0c-.52.47-1.1.03-1.32-.97-.23-.92-.02-1.9.57-2.65.09-.08.2-.14.32-.16-.12-.55-.19-1.1-.23-1.66h0c-.12-.81-.16-1.62-.13-2.44-.05-.92,0-1.85.14-2.76.12-.5.28-1,.47-1.48.01-.06.04-.11.07-.17,1.74-4.07,4.99-7.31,9.07-9.04,2.43-.9,2.95.88,3.03.88.74.05,1.06.63,1.07,1.41l.02.03c.31.94,0,5.71-.28,7.12.07-.07.15-.12.24-.15.52-.18.76.71.53,1.98-.22,1.24-.79,2.4-1.31,2.58-.38,1.92-.92,3.81-1.62,5.64l-.69,1.2v3.23c.83.13,3.96-.61,6.36-1.05.72-.15,1.44-.25,2.18-.31.2-.02.4,0,.6.04v-.04s1.03.42,1.03.42c.69.32,1.17.98,1.26,1.74,0,0,2.76,17.47,3.28,23.42.46,5.27.76,21.35.76,21.47l.03.3.77,3.7-.79,5.35-1.61,3.4c-.45.94-1.3,1.5-1.79,1.2l.59-1.47-.51-1.18,1.09-2.55.11-3.23-1.3,1.85.09,2.98-.34.47c-.48.66-1.13.73-1.21.13l-.44-3.12.71-3.98.88-4.25c-1.65-4.81-2.7-9.8-3.12-14.87-.1-1.64-1.58-11.26-2.35-16.16,0,1.07,0,2.34-.01,3.72v2.84c.01,4.37.04,9.15.15,11.93.19,4.15.48,8.44.73,11.61.02.14.02.27.04.4v.02c.21,2.72.39,4.49.39,4.49h-.01c.1,1.25.17,1.98.17,1.98-.03.67-.1,1.37-.14,2.04-.19,3.2-.26,6.36-.44,9.56-.18,3.13-.31,7.82-.64,11.05-.06.47-.1.96-.16,1.43l-.24,4.43-.03,1.98c.05.19.1.4.14.61.28,1.65.42,3.31.42,4.98.13,4.23,0,16.46-.23,20.91-.07,1.16-.14,2.33-.27,3.53-.07.73-.36,3.42-.36,3.42,0,0-.7.48-1.69,1.16,1.34-.19,6.54-.81,7.01-1.16.51-.41.7.93-.07,1.37s-6.19,4.06-7.88,4.36c-1.1.19-3.63,3.12-4.58,2.43-.4-.29-.74-2.05-.64-2.99-.19.1-.31.14-.34.11-.36-.4-.34-1.82-.38-2.53-.06-1.12-.1-2.22-.1-3.38,0-2.4-.14-12.52-.15-14.91,0-2.32.07-4.67.12-7.03.02-1.15.12-2.35.17-3.52.02-.59,0-1.24.07-1.9l-.05-1.42-.33-7.74c-.27-1.85-.39-10.23-.7-14.4l-1.2.75c-.35,4.24-.55,13.19-.82,15.36l-.42,8.21-.08,1.5c.07.57.05,1.25.06,1.81.05,1.11.13,2.2.14,3.33.03,2.31.08,4.59.05,6.93-.03,2.41-.27,12.78-.29,15.2,0,1.16-.06,2.32-.13,3.52.02,1.03-.12,2.05-.4,3.03-.39.38-.82.71-1.29.98l-.14,1.68s-2.16,7.13-3.48,7.36-4.27,1.41-4.17.58,2.16-5.84,2.16-5.84v-.37c-.8.46-1.32.76-1.32.76,0,0-.26-2.35-.34-2.99-.11-1.05-.18-2.13-.23-3.22-.22-4.18-.19-16.4-.03-20.82.02-1.87.18-3.73.48-5.57.05-.26.08-.53.14-.79v-1.96l-.19-4.17c-.05-.4-.12-.82-.15-1.23-.3-2.85-.39-7.42-.54-10.37-.16-3-.19-6.11-.35-9.11-.03-.58-.1-1.16-.12-1.76,0,0,.41-3.14.88-7.45h0v-.05c.01-.12.02-.26.03-.38.29-3.53.64-8.3.87-12.77.14-2.95.22-7.81.27-12.23,0-1,.02-1.95.02-2.87.01-1.24.02-2.4.02-3.39-.84,6-2.39,17.11-2.49,18.86-.48,7.77-3.33,18.96-3.33,18.96l.86,3.19.68,3.12-.48,3.71c-.09.71-.74,1.45-1.22,1.39l-.34-.05.12-3.13-1.3-.24.07,3.14,1.09,1.21-.53,1.84.59.74c-.49.92-1.36,1.44-1.81,1.05l-1.6-1.4-.74-4.44.81-4.71Z"/><path id="_路径_11386" class="cls-15" d="m143.16,121.94l87.99-50.8v-16.41l-87.99,50.8v16.41Z"/><path id="_路径_11387" class="cls-15" d="m143.16,146.9l87.99-50.8v-16.41l-87.99,50.8v16.41Z"/><path id="_路径_11388" class="cls-15" d="m143.16,171.86l87.99-50.8v-16.41l-87.99,50.8v16.41Z"/><path id="_路径_11389" class="cls-14" d="m109.57,198.54c.57-.64-.62-1.01-.93-1.81-.65-1.7-.16-3.49-2.47-5.61-.29-.27-.53-.74-.91-.86-1.54-.47-1.95.33-2.03,1.43-2.55-1.1-6.59-6.75-7.25-4.35-.32,1.16,3.88,4.16,4.54,5.02-.13-.17-1.35-.91-1.55-1.05-.7-.52-2.02-1.46-2.38-.35-.34,1,.35,1.35.94,1.88.12.11,1.06.93.87.85-.73-.34-1.89-1.39-2.28-.03-.08.47.11.95.5,1.23.29.31.6.6.93.88-1.09-.44-2.01.62-.97,1.57,4.54,4.16,8.38,4.4,9.28,4.9.06.04.12.1.18.07s.1-.15.13-.19c.09-.13.17-.26.26-.39.27-.39.4-.23.67-.61.56-.77,1.84-1.89,2.47-2.6"/><path id="_路径_11390" class="cls-17" d="m150.13,225c-1.99-4.72-20.08-15.1-20.08-15.1-2.82-2.04-12.04-8.53-19.44-13.8-3.74,1.19-6.15,3.09-7.64,6.91,5.7,5.91,7.73,9.6,9.84,12.01,2.6,2.83,5.55,5.32,8.78,7.41.07.02.14.03.22.05l6.26,4.81c6.33,3.88,12.78,8.08,20.07,8.05,0,0,3.98-5.61,1.99-10.34"/><path id="_路径_11391" class="cls-14" d="m127.06,217.66v.64s.12,5.65.12,5.65c.38.57.83,1.09,1.34,1.55h.03c.14-.02.29-.04.43-.06,4.12-.44,9.23-1.32,9.22-4.35,0-.02.06-.07.08-.1l-.22-4.29-.5.04-7.4.65-3.1.27Z"/><path id="_路径_11392" class="cls-13" d="m139.53,220.34c.62.61.35,6.3.28,7.17-.2,2.33-.59-.96-2.75-.07-2.22.8-4.62.93-6.91.37-1.06-.08-2.06-.57-2.78-1.36-.91-.96-.91-4.8-.11-4.87s2.69.05,3.49.1c1.93.11,3.85-.22,5.64-.95,1.28-.52,1.77-1.74,3.14-.39"/><path id="_路径_11393" class="cls-8" d="m149.57,355.23s.72,6.1-1.36,7.85c-.58.48-2.72.3-5.08-.69-1.55-.65-3.12-1.99-4.67-2.5-4.56-1.5-5.44-3.87-6.94-6.95-3.23-6.55,4-3.51,8.61-.82,2.89,1.69,6.11,2.75,9.44,3.11"/><path id="_路径_11394" class="cls-16" d="m133.16,310.68c.4,3.47,1.12,6.92,1.67,10.37.34,1.99.22,3.49.58,5.48.69,3.97.52,22.48.52,28.81,0,1.29,13.82,5.41,14.2,3.51.39-1.82,1.28-17.07.62-22.57-.51-4.18-1.57-43.89-1.3-46.51.42-4.24.04-11.36-3.55-13.6-5.42-3.36-12.24,4.1-13.72,7.37-2.15,4.67-.77,11.47.98,27.14"/><path id="_路径_11395" class="cls-8" d="m132.55,363.55s2.24,5.67.68,7.95c-.44.64-2.54,1.06-5.07.77-1.66-.19-3.51-1.03-5.13-1.08-4.77-.16-6.21-2.19-8.45-4.74-4.76-5.4,2.96-4.51,8.1-3.23,3.23.81,6.6.93,9.88.32"/><path id="_路径_11396" class="cls-21" d="m116.7,310.81h0c4.31,34.53,2.75,29.91,2.86,54.46.02,2,.51,1.62,6.64,2.56,1.3.26,2.64.34,3.96.24,3.98-.49,4.56-3.47,4.66-6.69,0-3.5,1.05-43.81-8.15-43.86-1.56,0-8.78-5.74-9.97-6.71"/><path id="_路径_11397" class="cls-21" d="m115.76,287.5c.38,8.78.42,17.21.94,23.31h0c.65,7.66,1.64,7.93,3.63,12.46,1.39,3.18,1.21,5.52,3,7.09,1.46,1.15,3.48,1.25,5.05.24,1.56-.93,3.63,6.56,4.2,4.77.46-1.46.73-8.11.8-9.67.72-15.18,7.21-25.19,5.81-37.6-.07-.65-23.43-.6-23.43-.6"/><path id="_路径_11398" class="cls-18" d="m112.07,233.99s.37,2.36.87,5.76c.03.21.06.42.09.63.72,5.02,1.67,11.99,2.13,17.04.15,1.66.24,3.12.26,4.22.07,5.46.66,53.73.39,58.5-.06.93.4,1.82,1.2,2.32.78.48,1.59.91,2.42,1.28,1.36.58,2.79,1,4.25,1.24,1.06.19,2.19.31,3.44.41,4.85.4,9.72.2,14.52-.6,3.41-.51,6.64-1.88,9.38-3.97.62-.49.98-1.24.99-2.03h0c.13-5.17-1.02-46.3-4.03-58.14-2.35-9.24,3.42-25.53,3.19-30.85-.21-4.46-1.81-9.88-11.5-8.64l-12.77,2.91c-2.65,1.49-13.76,3.48-14.82,9.93"/><path id="_路径_11399" class="cls-14" d="m123.27,213.91c.73,1.85,2.07,3.4,3.8,4.38.63.34,1.31.57,2.01.68.13.02.26.03.4.05.67.08,1.35-.03,1.97-.32,1.18-.61,5.47.15,5.9-1.1.1-.28.17-.57.2-.86.48-3.26-1.77-8.14-2.29-11.2-.59-2.9-2.15-5.5-4.42-7.4-1.86-1.64-4.04-2.88-6.4-3.63l-1.19,1.43-.97,1.18c.32,2.81.32,5.64.02,8.45-.3,2.82.03,5.66.95,8.34"/><path id="_路径_11400" class="cls-14" d="m122.32,205.57c.3-2.81.29-5.64-.03-8.45l.97-1.17.37,1.83c-1.04,4.42-1.06,9.03-.04,13.46.29,1.71,1.03,3.32,2.13,4.66,1.16,1.35,3.01,1.86,4.7,1.3-.09.06-.18.12-.27.19-.5.42-.87.97-1.07,1.59-.18.52-.28,1.05-.31,1.6-.01.34,0,.68.02,1.02-.48-.09-.98-.09-1.46,0-.07.01-.14.03-.21.05l-.06-3.35c-1.73-.98-3.07-2.53-3.8-4.38-.93-2.68-1.25-5.52-.95-8.34"/><path id="_路径_11401" class="cls-4" d="m120.71,196.44c.23,1.71,1.69,1.59,2.59,3.06,1.04,1.7,1.09,3.2,2.13,4.9.38.62,1.9,6.43,3.64,5.41,2.57-1.49-.36,5.42,4.35,7.9.81.43,3.02.06,3.93-.11.52-.16.97-.48,1.29-.91l.07-.08c1.33-1.43,6.21-6.05,7.27-8.4.85-2.2,1.23-4.56,1.1-6.92-.04-2.12-1.33-4.05-2.48-5.75-1.15-1.74-2.7-3.17-4.52-4.17-3.13-1.69-7.38-2.01-11.02-1.52-.49.06-.96.14-1.42.23-.82.17-1.64.39-2.45.64-.34.18-.69.36-1.04.56-3.47,1.91-3.41,3.9-3.44,4.04-.02.38-.02.75,0,1.13"/><path id="_路径_11402" class="cls-14" d="m129.3,209.48c-1.03,1.33-1.07,3.02-.09,3.78s2.61.31,3.64-1.02,1.07-3.02.09-3.78-2.61-.31-3.64,1.02"/><path id="_路径_11403" class="cls-6" d="m128.05,222.76c-.78.16-1.54.4-2.28.69-.57.3-.96.86-1.05,1.5,2.99.64,8.5-.56,11.52-1.07,2.59-.44,5.12-2.08,5.51-2.74,1.03-1.72-5.27.14-5.92.33-2.53.7-5.23.74-7.79,1.29"/><path id="_路径_11404" class="cls-14" d="m106.35,288.14c-1.15-.15-2.3-.29-3.45-.42-.25,2.05-.4,3.36-.4,3.36-.24.24-1.13,1.32-1.27,1.52-.81,1.33-1.15,2.92-1.95,4.28-.24.39-1.19,1.58-1.07,2.08.06.11.17.19.29.21,1.5.51,2.21-.96,2.74-2.16-.11.61-.27,1.22-.4,1.84-.15.71-1.07,4.37-.19,4.53.44.07.65-.55.78-.85.52-1.4.95-2.82,1.28-4.28-.24,1.26-.5,2.47-.73,3.7-.11.57-.43,2.8.44,2.94.26.02.49-.14.57-.39.4-1.13.67-2.29.81-3.48-.08.76-.15,1.52-.21,2.3-.06.35-.08,1.04.38,1.23.55.27.84-.44.95-.81.4-1.49.68-3.01.83-4.54.16.93-.12,3.32.17,4.09-.01.01-.02.03,0,.04.07.23.18.29.39.14.24-.2.39-.48.44-.78.51-1.78.83-2.83,1.37-4.59.24-.89.39-1.79.47-2.7.09-.94.18-1.67.32-2.58.06-.52.12-1.22.15-1.96,0,0,.27-.76.72-2.03-1.13-.29-2.27-.53-3.43-.7"/><path id="_路径_11405" class="cls-18" d="m120.33,231.96c-1.36-2.05-3.84-3.17-5.72-2.07-1.26.91-2.16,2.23-2.53,3.74l-6.07,27.35c-.65,3.42-3.78,20.22-5.4,29.17,2.67,2.88,5.42,4.25,9.51,3.97,2.92-7.68,6.58-16.78,7.87-19.72,1.45-3.56,2.45-7.29,2.96-11.09-.02-.07-.03-.15-.05-.22l1.69-7.72c.88-8.07,2.08-16.43-2.25-23.41"/></g></g></g></g></g></g><g id="_组_5457"><g class="cls-27"><g id="_组_5456"><g id="_组_5455"><g class="cls-35"><g id="_组_5454"><path id="_路径_11406" class="cls-14" d="m263.33,251.39c-.45,7.12-4.08,18.03-4.47,25.15,2.5,5.63.76,13.66-.08,19.02-.4,2.28-.95,4.53-1.63,6.74-.33,1.13-.66,2.26-.98,3.39-.19.81-.34,1.62-.45,2.44-.17.59-.67,1.02-1.28,1.09-.6.05-1.2-.04-1.76-.26-2.15-.74-4.25-1.62-6.28-2.64-.44-.17-.84-.43-1.17-.76-.34-.34-.44-.85-.27-1.3.23-.45-.21-.87.28-.98,1.32-.29,5.75,1.12,5.75-.71-.81-5.17-.84-12.81-1.95-17.73-.36-1.54-4.84-19.37-5.1-22.26-.35-3.51-.68-7.01-.82-10.53.01-.25,0-.52-.02-.76-.03-.69-.07-1.37-.12-2.06,1.89-5.77,20.92-7.09,20.34,2.15"/><g id="_组_5438" class="cls-34"><g id="_组_5437"><g class="cls-24"><g id="_组_5436"><path id="_路径_11407" class="cls-19" d="m263.33,251.39c-.45,7.12-4.08,18.03-4.47,25.15.04.08.07.17.11.25-3.38,1.53-9.04.47-8.39,4.8,1.26,6.82,1.26,13.39,1.26,20.21-.11.55-.48,1.02-.99,1.26.1-.14.15-.31.15-.48-.81-5.16-.84-12.8-1.95-17.73-.36-1.54-4.84-19.37-5.1-22.26-.35-3.51-.68-7.01-.82-10.53.01-.25,0-.52-.02-.76-.03-.69-.07-1.37-.12-2.06,1.89-5.77,20.92-7.09,20.34,2.15"/></g></g></g></g><path id="_路径_11408" class="cls-8" d="m256.45,310.38s-.04.08-.06.12c-.37.79-1.12,1.33-1.98,1.44-.34.01-.69-.02-1.02-.1-.36-.06-.72-.15-1.06-.28-.35-.17-.68-.36-.99-.59-.32-.26-.61-.56-.87-.88-.89-.75-1.98-1.23-3.13-1.38-1.15-.15-2.27-.49-3.31-.99-.47-.28-3.73-2.01-4.2-3.81-.17-.67,4.05-2.57,4.78-2.24,1.12.51,4.71,1.63,5.36,1.92-1.38.1-5.68-.4-5.84-.27-.29.23-.19.71.02,1,.25.31.56.56.91.75,1.86,1.06,3.9,1.76,6.02,2.06.73.17,1.48.27,2.23.31.3,0,2.41-.21,2.91-1.93.48.74.71,1.62.65,2.5.03.81-.11,1.62-.43,2.37"/><path id="_路径_11409" class="cls-14" d="m234.04,307.5c1.76.7,4.1.93,4.58-1.26,2.09-9.5-.29-11.77-.69-21.41-.06-1.6-5.3-17.9-2.87-32.17l18.78,1.3c-.41,11-2.65,19.06-5.42,25.14,4.79,13.69-2.88,24.38-4.21,28.93-.08.66,1.6,2.68.11,4.18-.58.58-17.15-2.17-14.66-4.66.68-.68,2.85-.66,4.38-.05"/><g id="_组_5441" class="cls-34"><g id="_组_5440"><g class="cls-25"><g id="_组_5439"><path id="_路径_11410" class="cls-19" d="m239.45,279.57c-1.51,8.84,4.8,18.69-.76,26.77-.05.08-.11.16-.17.23.04-.11.07-.22.1-.33,2.09-9.51-.29-11.77-.69-21.41-.07-1.6-5.3-17.9-2.87-32.17l18.79,1.3c-.38,10.09-2.3,17.72-4.76,23.6-3.61,1.48-8.95-1-9.64,2"/></g></g></g></g><path id="_路径_11411" class="cls-21" d="m262.57,272.76c-2.57,3.33-7.2,3.91-10.98,4.21-5.75.43-11.53,0-17.16-1.27-.89-.57-1.58-1.41-1.98-2.4-.51-1.54-.68-3.16-.51-4.77.22-5.15,1.06-10.26,2.49-15.22.65-2.24,1.48-4.49,2.9-5.94,2.13-2.18,5.09-2.09,7.8-1.9,3.75.25,7.5.47,11.24.76,2.29.17,5.38-.09,6.65,3.06,1.14,2.84,1.05,7.16,1.36,10.24.25,2.44.51,4.94.54,7.42-.4,2.08-1.2,4.06-2.37,5.82"/><path id="_路径_11412" class="cls-19" d="m229.78,199.47l-7.59.69-3.11,1.92c-.28.21-1.75,1.14-1.69,2.13.03.65.66,4.33,1.87,3.88.8-.29,7.04-3.62,7.04-3.62.45-.18,1.9-.21,2.13-.49l1.58-1.87-.23-2.63Z"/><path id="_路径_11413" class="cls-3" d="m230.79,206.23c-.03.25-.41.46-.89.65l-5.36,2.15.07-.53c0-.05,0-.1-.02-.15l4.02-1.61c.08-.02.13-.08.15-.16.05-.38.11-.76.16-1.14,0-.08-.04-.15-.1-.19l-11.25-8.89c-.18-.13-.41-.16-.62-.09l-12.19,4.89c-.08.02-.14.09-.15.16l-.12.85-.28-.22c-.26-.17-.42-.47-.4-.78-.05.38-.11.76-.16,1.13-.02.31.14.61.4.78l11.66,9.21c.72.51,1.64.64,2.47.35l11.57-4.64c.48-.19.85-.4.89-.65.05-.38.11-.76.16-1.13"/><path id="_路径_11414" class="cls-11" d="m228.81,205.26l-11.25-8.89c-.18-.12-.41-.16-.62-.09l-12.19,4.9c-.1.02-.17.13-.15.23.01.05.05.1.09.13l11.25,8.89c.18.13.41.16.62.1l12.2-4.9c.1-.03.17-.13.14-.24-.01-.05-.05-.09-.09-.12"/><path id="_路径_11415" class="cls-8" d="m223.48,208.06c.33-.11.68-.06.97.14.25.19.2.44-.09.56l-1.07.43c-.33.11-.69.06-.97-.14-.24-.19-.2-.44.09-.56l1.08-.43Z"/><path id="_路径_11416" class="cls-13" d="m215.98,195.9c.83-.29,1.75-.15,2.47.35l12.05,9.52c.62.48.13.82-.61,1.11l-11.57,4.64c-.83.28-1.75.15-2.47-.35l-11.65-9.21c-.37-.19-.52-.65-.33-1.02.11-.21.31-.36.54-.4l11.57-4.64Zm12.82,9.36l-11.25-8.89c-.18-.12-.41-.16-.61-.09l-12.2,4.89c-.1.02-.17.13-.15.23.01.05.05.1.09.13l11.24,8.89c.18.13.41.16.62.09l12.2-4.89c.1-.03.17-.13.14-.24-.01-.05-.05-.09-.09-.12m-4.44,3.5c.16-.03.27-.19.24-.35-.02-.09-.08-.17-.16-.21-.28-.2-.64-.25-.97-.14l-1.07.43c-.16.03-.27.18-.25.35.02.09.07.17.16.22.28.2.65.25.97.14l1.07-.43Z"/><path id="_路径_11417" class="cls-18" d="m228.16,198.87c-2.03.41-2.33,5.29.88,5.75l12.31,2.17c3.2.45,6.15-1.78,6.6-4.97.45-3.2-1.78-6.15-4.97-6.6h0s-11.08,2.9-14.82,3.66"/><path id="_路径_11418" class="cls-22" d="m240.87,199.47c.66-1.03,6.32-3.03,11.08-3.03s7.13-4.23,7.13.52-.69,26.47-5.45,26.47-15.31-19.96-12.75-23.95"/><path id="_路径_11419" class="cls-14" d="m253.16,192.85c0,2.8-9.7.71-9.7.71v-5.3l9.5-.63.19,3.85s0,1.35,0,1.38"/><path id="_路径_11420" class="cls-9" d="m254.42,183.64c-4.65,4.88-6.48,4.8-11.11,1.53s-6.57-7.91-5.46-14.79c1.18-7.31,9.89-9.16,15.42-5.78,10.59,6.45,6.93,12.98,1.16,19.04"/><path id="_路径_11421" class="cls-14" d="m252.41,178.93c-.28,2.07.52,4.98-.46,6.38-4.53,6.43-11.67,3.61-11.67,3.61-3.19-2.53-4.03-7.94-4.03-14.57s5.58-7.81,9.23-4.98c3.66,2.83,7.8,3.02,6.93,9.56"/><g id="_组_5444" class="cls-34"><g id="_组_5443"><g class="cls-33"><g id="_组_5442"><path id="_路径_11422" class="cls-19" d="m240.13,168.1c-2.43,4.33-2.8,9.42-2.11,14.31.34,2.71,1.48,5.65,3.72,6.91-.5-.09-.99-.23-1.46-.4-3.18-2.53-4.03-7.94-4.03-14.57,0-3.69,1.72-5.69,3.88-6.25"/></g></g></g></g><path id="_路径_11423" class="cls-9" d="m259.9,172.23c-.4-2.87-7.29-3.15-7.29-3.15-.5-.39-3.54-11.44-15.04-2.45-2.39,1.87-1.02,9.1,1.44,12.91.31.44.79.72,1.33.77,2.19.34,5.82-1.51,6.33-1.1.59.47-2.06.97-.19,4.22.25.44.49.88.73,1.28.99,1.77,2.17,5.41,6.77,2.38.34-.28,8.02-8.27,5.93-14.86"/><path id="_路径_11424" class="cls-14" d="m247.39,180.74c-.88,1.39-1.82,2.11-2.76,1.76s-1.19-1.5-.61-3.04,2.26-2.37,3.19-2.02c.93.35,1.18,1.73.17,3.3"/><path id="_路径_11425" class="cls-5" d="m240.7,195.59c-.03-.61,2.22-4.81,2.75-4.39,1.98,1.57,6.98,1.18,8.38.45.76-.46,1.22-1.29,1.22-2.18,0,0,8.44,6.94-2.54,9.09-2.25.48-4.59.23-6.69-.7-1.72-.83-4.72-.69-3.13-2.27"/><path id="_路径_11426" class="cls-18" d="m265.96,264.88c-1.16,1.55-2.85,2.63-4.74,3.04-2.96.58-5.97.91-8.99.97-3.67.39-7.37.27-11.01-.35-3.79-.65-7.21-2.7-9.58-5.74l-.03-.04c-2.7-13.86,2.8-27.46,3.57-36.76.33-3.97-1.45-6.99-2.02-8.53-4.98-13.38-1.72-17.68,8.11-22.93,0,0,3,3.42,9.68,1.95,6.8-1.49,3.89-5.53,3.89-5.53,9.84-1.26,9.15,8.9,7.86,14.65-.48,2.17-3.63,12.05-1.85,20.26.89,4.12,1.29,3.73,2.91,9.04,2.95,9.52,3.82,19.56,2.55,29.44-.12.18-.24.35-.36.52"/><path id="_路径_11427" class="cls-19" d="m213.66,211.41c.08.5.55.84,1.05.76.49-.08.83-.54.75-1.04,0,0,0,0,0,0l-.76-4.94c-.09-.5-.57-.83-1.07-.73-.48.09-.8.53-.74,1.01l.77,4.95Z"/><path id="_路径_11428" class="cls-14" d="m215.21,212.57l-1.35-4.64-2.01-3.27c-.22-.3-1.19-1.83-2.22-1.78-.69.04-4.55.69-4.08,1.96.31.84,3.54,6.62,3.54,6.62,1.05.63,1.91,1.53,2.5,2.6l.23,2.07,3.4-3.56Z"/><path id="_路径_11429" class="cls-18" d="m215.3,209.26s6.01,6.79,8.05,6.79c1.76,0,9.11-15.62,9.11-15.62,1.92-2.74,5.7-3.4,8.44-1.48,0,0,0,0,0,0,2.73,1.93,2.04,7.57.1,10.31l-12.53,17.5c-1.58,2.25-4.48,3.15-7.06,2.21-1.09-.29-2.06-.93-2.76-1.82-2.6-3.55-9.14-14.62-9.32-14.95,2.8-2.73,2.77-2.44,5.98-2.93"/><path id="_路径_11430" class="cls-10" d="m256.12,169.21c1.06-2.26,4.72.18,6.37,2.35,2.44,3.21,3.43,7.46,3.99,11.36.55,3.76.54,7.59-.03,11.35-.42,2.69-1.68,5.13-1.67,7.93,0,1.47-.19,2.91.46,4.26,1.02,2.51,3.32,4.26,6.01,4.59-.88-.32-1.82.38-2.69.65-1.45.42-2.94.67-4.44.75-1.61.11-3.21.57-4.81.04-2.28-.75-4.19-3.28-5.55-5.13-2.06-2.81-2.36-6.1-2.26-9.48.07-2.42.32-5.64,1.84-7.57,1.66-2.1,2.52-5.04,3.12-7.61.35-1.24.61-2.51.76-3.79.05-.77-.05-1.56.04-2.33.26-2.3-2.3-4.87-1.13-7.37"/><g id="_组_5447" class="cls-34"><g id="_组_5446"><g class="cls-30"><g id="_组_5445"><path id="_路径_11431" class="cls-10" d="m271.25,211.05c-.18-.02-.36-.05-.54-.08.18,0,.37.02.54.08"/></g></g></g></g><g id="_组_5450" class="cls-28"><g id="_组_5449"><g class="cls-36"><g id="_组_5448"><path id="_路径_11432" class="cls-10" d="m251.49,197.88c.07-2.42.32-5.64,1.84-7.57,1.66-2.1,2.52-5.04,3.12-7.61.36-1.24.61-2.51.77-3.79.05-.77-.05-1.56.04-2.33.26-2.29-2.3-4.86-1.13-7.37l.03-.06c.74.65,1.19,1.58,1.23,2.57,1.01,5.05,1.77,9.85,0,14.65-1.51,4.8-4.54,9.1-3.79,14.4.99,5.27,4.55,9.7,9.49,11.79-1.25.27-2.54.25-3.79-.06-2.27-.75-4.19-3.28-5.55-5.12-2.06-2.82-2.36-6.11-2.26-9.49"/></g></g></g></g><g id="_组_5453" class="cls-34"><g id="_组_5452"><g class="cls-1"><g id="_组_5451"><path id="_路径_11433" class="cls-10" d="m263.2,204.8c-.76-7.58,1.51-14.9,1.26-22.48-.22-4.58-1.57-12.55-6.65-13.99,1.53.18,3.56,1.77,4.67,3.23,2.44,3.21,3.43,7.45,3.99,11.36.56,3.76.55,7.59-.02,11.35-.42,2.69-1.69,5.14-1.68,7.93,0,1.47-.19,2.91.46,4.26.96,2.32,3.01,4.01,5.47,4.51-.74.16-1.47.4-2.15.73-.42.13-.83.23-1.23.32-2.28-1.76-3.76-4.36-4.12-7.21"/></g></g></g></g><path id="_路径_11434" class="cls-8" d="m245.33,313.47s-.03.09-.04.13c-.26.83-.93,1.47-1.77,1.69-.34.06-.68.07-1.02.04-.37,0-.73-.05-1.09-.14-.37-.12-.72-.27-1.06-.46-.35-.22-.68-.48-.98-.76-.98-.62-2.12-.95-3.28-.95-1.16,0-2.31-.18-3.41-.55-.5-.21-3.96-1.49-4.66-3.23-.23-.68-.18-1.42.13-2.07.39-.73,1.14-1.18,1.96-1.2.81,0,1.61.13,2.36.42,1.17.36,2.04.71,3.22,1.07.35.11.69.25,1.37.45-1.35.28-2.9-.08-4.28-.01-.21-.01-.41.06-.57.19-.26.26-.1.72.16.99.29.27.63.48,1,.63,1.98.81,4.09,1.23,6.23,1.25.75.03,4.55.8,4.96-2.01.54.58.86,1.33.91,2.12.14.8.1,1.62-.11,2.41"/></g></g></g></g></g></g></g></svg>