<?xml version="1.0" encoding="UTF-8"?><svg id="_圖層_1" xmlns="http://www.w3.org/2000/svg" viewBox="0 0 400.3 393.5"><defs><style>.cls-1{fill:#d8d6df;}.cls-1,.cls-2,.cls-3,.cls-4,.cls-5,.cls-6,.cls-7,.cls-8,.cls-9,.cls-10,.cls-11,.cls-12,.cls-13,.cls-14,.cls-15{stroke-width:0px;}.cls-2{fill:#727272;}.cls-3{fill:#adadba;}.cls-4{fill:#797f8b;}.cls-5{fill:#2b303f;}.cls-6{fill:#166c7d;}.cls-7{fill:#464b58;}.cls-8{fill:#ebebef;}.cls-9{fill:#375770;}.cls-10{fill:#fff;}.cls-11{fill:#178eff;}.cls-12{fill:#0b90aa;}.cls-13{fill:#c2c2cc;}.cls-14{fill:#7c8689;}.cls-15{fill:#d8d8d8;}</style></defs><g id="_组_4993"><path id="_路径_10620" class="cls-1" d="m105.01,311.35v-2.11l28.82-16.64h0c4.13.77,8.38.49,12.37-.81,5.25-2.04,9.59-5.88,12.25-10.84,4.74-8.5,4.45-19.21,2.73-29.09-3.95-22.65-16.43-43.4-32.15-56.7-5.25-4.62-11.31-8.22-17.88-10.62-5.32-1.83-11.15-2.68-16.49-1.29-5.42,1.5-10.1,4.95-13.15,9.67-3.78,5.83-4.79,13.34-4.79,20.18,0,9.37,2.02,18.42,5.65,27.79l-24.55,14.17c-10.51-22.42-17.57-49.36-14.33-73.79,1.24-9.4,4.01-18.75,9.55-26.34,5.53-7.65,13.57-13.12,22.71-15.45,11.32-2.7,23.98.32,35.04,5.18,13.33,5.86,24.34,14.4,34.22,24.24,20.05,20.11,35.13,44.62,44.06,71.57,4.41,13.47,7.21,27.58,7.21,41.67,0,15.04-3.43,31.35-13.47,42.39-3.4,3.77-7.53,6.8-12.14,8.93-.67.37-1.13,1.04-1.22,1.81-.04.25-.06.51-.06.76v23.71l-21.27-12.28.02-6.75c-.14-2.71-1.57-5.18-3.84-6.67l-39.32-22.69Zm1.13-140.6l26.7,15.42c1.41.82,2.56.33,2.56-1.08v-13.08c-.17-1.68-1.12-3.18-2.56-4.04l-26.7-15.42c-1.42-.81-2.56-.33-2.56,1.08v13.07c.16,1.68,1.11,3.18,2.56,4.05m73.9,109.88c.93.45,1.97.59,2.98.39,1-.29,1.84-.97,2.34-1.87.6-1.24.79-2.64.55-3.99-.64-5.37-4.41-9.93-7.71-11.32-.93-.45-1.98-.58-2.99-.39-1,.3-1.84.97-2.34,1.87-.48.91-.69,1.93-.62,2.95.14,5.32,3.93,10.73,7.79,12.37"/><path id="_路径_10621" class="cls-15" d="m3.18,296.81v8.62l37.53,21.67,8.56,4.94v-8.62l-46.08-26.61"/><path id="_路径_10622" class="cls-12" d="m7.02,285.72c-2.14,1.23-2.11,3.22,0,4.43l46.08,26.6c2.41,1.23,5.27,1.23,7.68,0l99.88-57.15c-.18-16.4-8.02-35.73-19.83-50.63l-82.32,47.53-.88.51-50.61,28.71Z"/><path id="_联合_46" class="cls-2" d="m55.35,391.66v-.19c0-.49,0-2.07.02-6.58-.91-.53-40.47-23.36-41.96-24.22,0,.88-.01,6.51-.02,6.76-1.68-.97-3.18-2.5-3.18-4.43h0c0-2.27.01-4.52.01-6.78.08-2.91,1.73-5.55,4.31-6.9,9-5.2,17.23-9.95,26.17-15.11v1.84l-23.46,13.54c-2.12,1.22-2.13,3.21,0,4.44,2.62,1.51,33.52,19.35,41.96,24.22,2.42,1.22,5.27,1.22,7.68,0l77.44-44.2c2.27,1.48,3.7,3.96,3.84,6.67l-77.45,44.2h0l77.44-44.2-.02,6.75-77.44,44.2h0c-2.36,1.26-5,1.89-7.68,1.83-2.67.05-5.32-.58-7.68-1.83Z"/><path id="_路径_10624" class="cls-7" d="m13.39,367.44l41.95,24.22v-.19c0-.49,0-2.07.02-6.57-.91-.53-40.47-23.36-41.96-24.22,0,.89-.02,6.51-.02,6.76"/><path id="_路径_10625" class="cls-1" d="m40.71,334.21v1.84c0,4.2,0,8.39,0,12.59,0,.29.06.57.17.83.34.8.96,1.44,1.73,1.83l21.26,12.27c2.89,1.48,6.32,1.48,9.21,0v-36.43l-8.46,4.89c-4.83,2.45-10.53,2.45-15.36,0l-8.56-4.94v7.11Z"/><path id="_路径_10626" class="cls-9" d="m64.63,323.42v8.62l8.46-4.89,30.01-16.81,1.91-1.1,28.82-16.64h0l13.41-7.74,6.46-3.73h0c3.27-3.09,5.16-7.52,6.13-12.16l-95.21,54.45Z"/><path id="_路径_10628" class="cls-14" d="m73.09,363.58c-2.89,1.48-6.32,1.48-9.21,0l-21.26-12.27c-.78-.39-1.39-1.04-1.74-1.83-.11-.26-.17-.55-.17-.83,0-4.2,0-8.39,0-12.59l-23.46,13.54c-2.12,1.22-2.13,3.21,0,4.43,2.62,1.51,33.51,19.35,41.95,24.22,2.41,1.22,5.27,1.22,7.68,0l77.45-44.2-39.32-22.7v32.76c-.06.87-.5,1.66-1.2,2.18-.23.18-.46.34-.71.48l-30.01,16.81Z"/><path id="_路径_10629" class="cls-8" d="m177.1,336.05h0c.9-.43,1.79-.87,2.65-1.36,3.77-2.12,7.18-4.84,10.09-8.04,10.54-11.59,14.14-28.71,14.14-44.51,0-45.87-29.57-105.85-75.24-136.24-10.53-7.02-22.13-12.61-34.81-14.02-9.46-1.05-19.53.24-27.63,4.92-.59.34-1.17.7-1.74,1.07-11.29,7.27-18.03,19.26-21.18,32.53-2.82,11.84-3.42,27.34.37,46.06,2.81,13.52,7.24,26.65,13.19,39.12.29-.17.59-.33.88-.51-10.51-22.42-17.57-49.36-14.33-73.79,1.24-9.4,4.01-18.75,9.55-26.35,5.53-7.65,13.57-13.12,22.72-15.46,11.32-2.7,23.98.32,35.04,5.19,13.33,5.86,24.34,14.4,34.22,24.23,20.05,20.11,35.13,44.62,44.06,71.57,4.41,13.47,7.21,27.58,7.21,41.68,0,15.03-3.43,31.35-13.47,42.39-3.4,3.77-7.53,6.8-12.14,8.93-.67.38-1.12,1.05-1.22,1.81-.04.25-.06.51-.06.76v23.71c2.41,1.23,5.27,1.23,7.68,0v-23.69Z"/><path id="_路径_10630" class="cls-6" d="m4.31,285.45c50.7-29.27,2.06-.67,52.64-29.88.29-.17.59-.33.88-.51,8.18-4.72,16.36-9.45,24.55-14.17,2.22-1.28,4.44-2.57,6.67-3.85,16.91-9.77,33.84-19.54,50.78-29.32.34.41.68.83,1.01,1.25l-82.32,47.53-.88.5-50.61,28.71c-2.13,1.23-2.1,3.22,0,4.43,19.51,11.26,38.88,22.45,46.09,26.6,2.41,1.23,5.27,1.23,7.68,0l99.88-57.14c.02,1.51-.03,2.98-.14,4.43-.13,1.65-.36,3.29-.69,4.91l-95.21,54.45v8.62c-4.83,2.45-10.53,2.45-15.36,0v-8.62l-46.08-26.61v8.62c-1.67-.97-3.18-2.5-3.18-4.43v-8.62c.08-2.92,1.72-5.57,4.31-6.92"/><path id="_路径_10631" class="cls-3" d="m139.82,207.73c.34.41.68.83,1.01,1.25,11.81,14.9,19.65,34.24,19.83,50.63.02,1.51-.03,2.98-.14,4.43-.13,1.65-.36,3.29-.69,4.91-.97,4.64-2.86,9.07-6.13,12.16h0c-.86.82-1.82,1.54-2.84,2.13-1.15.66-2.36,1.2-3.62,1.6l-13.41,7.74c4.13.77,8.38.49,12.37-.81,5.24-2.04,9.59-5.88,12.25-10.84,4.74-8.5,4.45-19.21,2.73-29.09-3.94-22.65-16.43-43.4-32.15-56.7-5.25-4.62-11.31-8.23-17.88-10.63-5.32-1.83-11.15-2.68-16.49-1.29-5.42,1.5-10.1,4.95-13.15,9.67-3.78,5.84-4.79,13.35-4.79,20.18,0,9.38,2.02,18.42,5.65,27.8,2.21-1.28,4.44-2.57,6.66-3.85-2.92-7.65-4.48-15.76-4.63-23.95,0-2.42.17-4.83.5-7.23.67-4.81,2.59-9.37,5.56-13.21,1.44-1.93,3.26-3.55,5.34-4.75,4.27-2.46,9.34-2.52,14.08-1.41,4.89,1.26,9.52,3.37,13.68,6.24,6.12,4.18,11.6,9.23,16.25,15"/><path id="_路径_10632" class="cls-4" d="m84.91,205.86c-.33,2.4-.5,4.82-.5,7.24.15,8.19,1.72,16.29,4.63,23.95l50.78-29.32c-4.65-5.77-10.13-10.82-16.25-15-4.15-2.87-8.79-4.99-13.68-6.24-4.75-1.11-9.81-1.05-14.09,1.41-2.08,1.21-3.89,2.83-5.34,4.75-2.97,3.84-4.89,8.4-5.56,13.21"/><path id="_路径_10633" class="cls-13" d="m131.92,293.7l1.91-1.1v34.87c-.06.87-.5,1.66-1.2,2.18-.23.18-.46.34-.71.48l-58.83,33.45v-36.43l58.83-33.45Z"/><path id="_路径_10634" class="cls-7" d="m103.59,153.63v13.07c.16,1.68,1.11,3.18,2.56,4.04l26.7,15.42c1.42.82,2.56.34,2.56-1.08v-13.07c-.16-1.68-1.11-3.18-2.56-4.04l-26.7-15.42c-1.42-.81-2.56-.33-2.56,1.09"/><path id="_路径_10635" class="cls-5" d="m153.71,281.12l-6.47,3.74c1.26-.4,2.47-.94,3.62-1.6,1.03-.59,1.98-1.31,2.84-2.13"/><path id="_路径_10636" class="cls-13" d="m175.23,263.43c1.01-.2,2.06-.06,2.99.39,3.3,1.4,7.08,5.95,7.71,11.32.25,1.35.06,2.75-.55,3.99-.51.91-1.35,1.58-2.34,1.87-1.01.19-2.06.06-2.98-.39-3.86-1.64-7.65-7.05-7.79-12.37-.06-1.02.15-2.04.62-2.95.51-.9,1.35-1.58,2.34-1.87m5.86,10.96c.19-.39.25-.82.17-1.25-.18-1.51-1.08-2.83-2.42-3.55-.29-.14-.62-.18-.94-.12-.31.09-.58.3-.73.59-.15.28-.22.6-.2.92.08,2.72,3.07,5.22,4.12,3.41"/><path id="_路径_10637" class="cls-11" d="m177.17,270.06c-.15.28-.22.6-.2.92.08,2.72,3.07,5.23,4.12,3.41.19-.39.25-.82.17-1.25-.18-1.51-1.08-2.83-2.42-3.55-.29-.14-.62-.18-.94-.12-.31.09-.58.3-.73.59"/><path id="_路径_10638" class="cls-1" d="m179.76,334.69c-.87.49-1.75.94-2.65,1.36v23.7l66.63-38.47v-23.52c-12.54,7.25-25.08,14.49-37.62,21.72-8.58,4.96-17.17,9.91-25.76,14.87-.2.12-.41.23-.61.34"/><path id="_路径_10639" class="cls-13" d="m189.85,326.65c-2.91,3.21-6.32,5.92-10.09,8.04.2-.11.41-.22.61-.34,8.58-4.96,17.17-9.92,25.76-14.87h0c3.53-2.07,6.73-4.67,9.48-7.7,10.54-11.59,14.14-28.71,14.14-44.51,0-46.16-29.81-106.01-75.24-136.24-10.53-7.01-22.13-12.61-34.81-14.02-9.46-1.05-19.53.24-27.63,4.92-8.59,4.96-17.17,9.91-25.76,14.87,8.11-4.68,18.17-5.97,27.63-4.92,12.68,1.41,24.27,7.01,34.8,14.02,45.67,30.39,75.24,90.38,75.24,136.24,0,15.79-3.61,32.92-14.14,44.51"/><path id="_路径_10640" class="cls-1" d="m373.8,222.66v-94.2c-.08-2.92-1.72-5.57-4.31-6.92-7.09-4.1-13.33-7.7-20.27-11.71v1.84l17.56,10.14c.42.23.79.53,1.09.9.41.49.58,1.13.46,1.76-.27.77-.82,1.41-1.55,1.78l-69.12,39.91c-2.41,1.23-5.27,1.23-7.68,0l-61.81-35.69c-.97.56-.97,1.86-.76,2.95.51,2.59,2.45,5.75,4.1,7.85l54.62,31.54v172.94c1.15.66,2.4,1.14,3.7,1.41,3.8.81,8.32.52,11.66-1.41v-172.94l69.12-39.91v172.95c.41-.24.81-.51,1.19-.8,1.16-.87,1.88-2.19,1.99-3.63v-78.75Z"/><path id="_路径_10641" class="cls-8" d="m228.16,130.46l61.81,35.69c2.41,1.23,5.27,1.23,7.68,0l69.13-39.91c.73-.37,1.28-1.01,1.55-1.78.11-.63-.05-1.27-.46-1.76-.3-.37-.67-.68-1.09-.9l-17.56-10.13v12.36c-.11,1.44-.84,2.77-2,3.63-.38.29-.77.56-1.19.8l-44.55,25.72c-3.34,1.93-7.86,2.22-11.66,1.41-1.3-.28-2.55-.75-3.7-1.41l-19.61-11.32c-1.29-.64-2.32-1.73-2.89-3.05-.19-.44-.28-.91-.29-1.38v-28.26c-11.72,6.77-23.45,13.54-35.17,20.31"/><path id="_路径_10642" class="cls-13" d="m286.13,172.8l-54.62-31.54c22.36,28.42,39.11,67.24,39.11,102.4,0,9.76-1.34,19.9-4.88,29.08-3.74,9.67-9.86,18.01-18.75,23.13-.12.07-.23.13-.35.2-.97.56-1.94,1.12-2.91,1.68v23.52l42.39,24.48v-172.95Z"/><path id="_路径_10643" class="cls-8" d="m243.74,297.76c.97-.56,1.94-1.12,2.91-1.68.12-.07.23-.13.35-.2,8.89-5.13,15.01-13.46,18.75-23.13,3.54-9.18,4.87-19.32,4.87-29.08,0-35.17-16.75-73.98-39.11-102.41-1.66-2.1-3.6-5.25-4.1-7.85-.21-1.09-.21-2.39.76-2.95l35.17-20.31V32.11c.03-1,.38-1.97,1-2.75.6-.74,1.34-1.35,2.18-1.8l15.51-8.96c-7.38.15-14.6,2.14-21.01,5.78-5.15,2.98-10.31,5.95-15.46,8.93-51.16,29.54-102.33,59.08-153.49,88.62,8.1-4.68,18.17-5.97,27.63-4.92,12.68,1.41,24.27,7.01,34.81,14.02,45.43,30.23,75.24,90.08,75.24,136.24,0,15.79-3.6,32.92-14.14,44.51-2.75,3.03-5.95,5.63-9.48,7.69h0c12.54-7.23,25.08-14.47,37.62-21.71"/><path id="_路径_10644" class="cls-1" d="m263.34,110.16v28.26c0,.47.1.94.29,1.38.58,1.33,1.6,2.41,2.9,3.05l19.61,11.32c1.15.66,2.4,1.14,3.7,1.41,3.8.81,8.32.51,11.66-1.41V47.75c-1.15.66-2.4,1.14-3.7,1.41-3.8.81-8.33.51-11.66-1.41l-19.61-11.32c-1.45-.74-2.56-2.02-3.1-3.56-.06-.25-.08-.5-.08-.76v78.05Z"/><path id="_路径_10645" class="cls-8" d="m282.03,18.6l-15.51,8.96c-.84.45-1.58,1.07-2.18,1.81-.62.78-.98,1.75-1,2.75,0,.26.03.51.08.76.54,1.54,1.65,2.81,3.1,3.56l19.61,11.32c3.33,1.93,7.85,2.23,11.66,1.41,1.3-.27,2.55-.75,3.7-1.41l44.55-25.72c.84-.45,1.58-1.07,2.18-1.8.6-.75.94-1.67,1-2.63.01-.3-.02-.59-.08-.88-.54-1.54-1.65-2.81-3.1-3.56l-19.61-11.32c-3.33-1.92-7.85-2.22-11.66-1.41-1.3.27-2.55.75-3.7,1.41l-29.04,16.77Z"/><path id="_路径_10646" class="cls-13" d="m370.62,132.89v172.95l-69.13,39.91v-172.95l69.13-39.91Zm-58.65,170.49l48.17-27.81c1.38-.83,2.29-2.26,2.44-3.86v-72.38c0-1.35-1.09-1.81-2.44-1.03l-48.17,27.81c-1.38.83-2.29,2.26-2.44,3.86v72.38c0,1.35,1.09,1.82,2.44,1.04"/><path id="_路径_10647" class="cls-13" d="m349.22,111.67V17.59h0c-.05.96-.4,1.88-1,2.63-.6.74-1.34,1.35-2.18,1.8l-44.55,25.72v106.43l44.55-25.72c.41-.24.81-.51,1.19-.8,1.16-.87,1.88-2.19,1.99-3.63v-12.35Z"/><path id="_路径_10648" class="cls-13" d="m309.53,229.97v72.38c0,1.35,1.1,1.82,2.44,1.04l48.17-27.81c1.38-.83,2.29-2.26,2.44-3.86v-72.38c0-1.35-1.09-1.81-2.44-1.03l-48.17,27.81c-1.38.83-2.29,2.26-2.44,3.86"/><path id="_路径_10649" class="cls-13" d="m349.22,55.28v54.56c6.94,4.01,13.18,7.61,20.27,11.7,2.58,1.36,4.23,4,4.31,6.92v94.2l1.27-.72c10.89-6.29,17.89-16.85,21.64-28.91,2.46-8.28,3.66-16.88,3.58-25.52,0-39.58-21.36-85.07-51.07-115.28v3.05Z"/><path id="_路径_10651" class="cls-10" d="m64.6,140.29c4.13-2.27,8.63-3.79,13.29-4.46,4.64-.71,9.36-.79,14.02-.25,2.33.27,4.64.67,6.92,1.2,2.28.54,4.53,1.19,6.74,1.96,2.21.79,4.39,1.65,6.52,2.63s4.23,2.03,6.28,3.17c4.11,2.27,8.08,4.78,11.89,7.52,3.83,2.72,7.51,5.64,11.04,8.74,1.8,1.51,3.49,3.14,5.22,4.73.85.81,1.67,1.65,2.51,2.47l1.25,1.24c.41.41.81.85,1.22,1.27l2.42,2.56,2.34,2.64,1.17,1.32,1.13,1.36,2.25,2.71c5.88,7.34,11.18,15.13,15.86,23.29,4.69,8.16,8.76,16.66,12.18,25.43l1.24,3.3c.2.55.42,1.1.61,1.66l.57,1.67c.38,1.11.78,2.22,1.13,3.34l1.05,3.37c.36,1.12.65,2.26.98,3.39s.65,2.26.92,3.4l.86,3.42.76,3.45c.27,1.15.47,2.31.68,3.46s.45,2.31.62,3.47l.54,3.49.44,3.5c.53,4.68.82,9.38.86,14.09h.08c-.02-4.71-.28-9.42-.79-14.11l-.42-3.51-.53-3.49c-.16-1.17-.39-2.32-.6-3.48s-.41-2.32-.67-3.47l-.74-3.45-.84-3.43c-.27-1.15-.59-2.28-.9-3.42s-.6-2.28-.96-3.4l-1.04-3.38c-.35-1.13-.74-2.24-1.11-3.36l-.56-1.67c-.2-.56-.4-1.11-.6-1.66l-1.22-3.32c-3.4-8.8-7.44-17.34-12.11-25.53-4.66-8.21-9.94-16.04-15.81-23.43l-2.25-2.74-1.13-1.37-1.16-1.31-2.34-2.66-2.42-2.59c-.41-.43-.8-.87-1.22-1.28l-1.25-1.25c-.84-.83-1.66-1.68-2.51-2.5-1.73-1.61-3.42-3.26-5.22-4.79-3.55-3.12-7.25-6.05-11.1-8.79-3.84-2.76-7.83-5.29-11.97-7.57-2.07-1.14-4.2-2.18-6.35-3.15s-4.36-1.83-6.6-2.6c-2.24-.76-4.52-1.41-6.82-1.93-2.31-.52-4.65-.89-7-1.14-4.71-.49-9.46-.34-14.14.43-4.67.77-9.16,2.38-13.27,4.74l.05.07Z"/><path id="_路径_10652" class="cls-10" d="m289.1,169.04l-7.68-4.54-7.7-4.51-15.43-8.96-15.48-8.88-7.75-4.42-7.78-4.38,7.68,4.54,7.7,4.51,15.44,8.96,15.47,8.88,7.75,4.41,7.77,4.38Z"/></g></svg>