<?xml version="1.0" encoding="UTF-8"?><svg id="_圖層_1" xmlns="http://www.w3.org/2000/svg" xmlns:xlink="http://www.w3.org/1999/xlink" viewBox="0 0 340.29 234.19"><defs><style>.cls-1{clip-path:url(#clippath-20);}.cls-2{clip-path:url(#clippath-11);}.cls-3{clip-path:url(#clippath-16);}.cls-4{clip-path:url(#clippath-33);}.cls-5{fill:#aebfcf;}.cls-5,.cls-6,.cls-7,.cls-8,.cls-9,.cls-10,.cls-11,.cls-12,.cls-13,.cls-14,.cls-15,.cls-16,.cls-17,.cls-18,.cls-19,.cls-20,.cls-21,.cls-22,.cls-23,.cls-24,.cls-25,.cls-26,.cls-27,.cls-28,.cls-29,.cls-30,.cls-31,.cls-32,.cls-33,.cls-34,.cls-35,.cls-36,.cls-37,.cls-38,.cls-39,.cls-40,.cls-41,.cls-42,.cls-43,.cls-44,.cls-45,.cls-46{stroke-width:0px;}.cls-47{opacity:.5;}.cls-6{fill:#292a2d;}.cls-7{fill:#232426;}.cls-48{clip-path:url(#clippath-32);}.cls-8{fill:#333437;}.cls-9{fill:#ebf1f5;}.cls-10{fill:#e6e6e6;}.cls-49{clip-path:url(#clippath-2);}.cls-50{clip-path:url(#clippath-13);}.cls-11{fill:#1d404b;}.cls-51{clip-path:url(#clippath-25);}.cls-13{fill:#2f3033;}.cls-52{clip-path:url(#clippath-15);}.cls-53{clip-path:url(#clippath-6);}.cls-14{fill:#eeb04a;}.cls-15{fill:#4a0c00;}.cls-54{clip-path:url(#clippath-26);}.cls-16{fill:#5f1d0f;}.cls-17{fill:#b7b7b7;}.cls-18{fill:none;}.cls-19{fill:#fa4443;}.cls-20{fill:#b8b8b8;}.cls-21{fill:#dddee3;}.cls-55{clip-path:url(#clippath-7);}.cls-56{clip-path:url(#clippath-21);}.cls-22{fill:#5d372a;}.cls-57{clip-path:url(#clippath-1);}.cls-58{clip-path:url(#clippath-4);}.cls-23{fill:#f8f9fc;}.cls-24{fill:#ffd6bf;}.cls-59{clip-path:url(#clippath-27);}.cls-60{opacity:.3;}.cls-25{fill:#2b3336;}.cls-61{clip-path:url(#clippath-12);}.cls-26{fill:#fff;}.cls-27{fill:#664133;}.cls-28{fill:#939598;}.cls-29{fill:#0b7c92;}.cls-62{clip-path:url(#clippath-24);}.cls-63{clip-path:url(#clippath-30);}.cls-64{clip-path:url(#clippath-22);}.cls-30{fill:#224e5d;}.cls-31{fill:#24d2c1;}.cls-65{clip-path:url(#clippath-9);}.cls-66{clip-path:url(#clippath);}.cls-32{fill:#7d8086;}.cls-33{fill:#ebeff3;}.cls-34{fill:#d1d3d4;}.cls-35{fill:#f4f4f4;}.cls-67{clip-path:url(#clippath-19);}.cls-36{fill:#ffc89f;}.cls-68{clip-path:url(#clippath-31);}.cls-69{clip-path:url(#clippath-3);}.cls-70{opacity:.1;}.cls-37{fill:#462419;}.cls-38{fill:#c73d3d;}.cls-71{clip-path:url(#clippath-8);}.cls-39{fill:#f5c2a6;}.cls-40{fill:#2c556d;}.cls-41{fill:#0b90aa;}.cls-42{fill:#d7e0e9;}.cls-72{clip-path:url(#clippath-29);}.cls-73{opacity:.2;}.cls-74{clip-path:url(#clippath-18);}.cls-75{clip-path:url(#clippath-14);}.cls-76{clip-path:url(#clippath-17);}.cls-77{clip-path:url(#clippath-5);}.cls-43{fill:#c6c9cc;}.cls-44{fill:#ff6161;}.cls-78{clip-path:url(#clippath-10);}.cls-79{clip-path:url(#clippath-23);}.cls-80{clip-path:url(#clippath-28);}.cls-45{fill:#353f43;}.cls-46{fill:#f4f2f1;}</style><clipPath id="clippath"><rect class="cls-18" width="340.29" height="234.19"/></clipPath><clipPath id="clippath-1"><rect class="cls-18" y="0" width="340.29" height="234.19"/></clipPath><clipPath id="clippath-2"><rect class="cls-18" y="36.76" width="340.29" height="197.44"/></clipPath><clipPath id="clippath-3"><rect class="cls-18" x="23.38" y="63.17" width="187.45" height="108.23"/></clipPath><clipPath id="clippath-4"><rect class="cls-18" x="23.38" y="71.14" width="187.45" height="108.23"/></clipPath><clipPath id="clippath-5"><rect class="cls-18" x="291.74" y="97.96" width="15.86" height="45.5"/></clipPath><clipPath id="clippath-6"><rect class="cls-18" x="285.06" y="104.18" width="15.14" height="42.02"/></clipPath><clipPath id="clippath-7"><rect class="cls-18" x="286.48" y="38.27" width="4.28" height="16.54"/></clipPath><clipPath id="clippath-8"><rect class="cls-18" x="313.34" y="71.68" width=".42" height=".06"/></clipPath><clipPath id="clippath-9"><rect class="cls-18" x="298.35" y="39.09" width="9.05" height="33.98"/></clipPath><clipPath id="clippath-10"><rect class="cls-18" x="303.29" y="38.45" width="10.05" height="34.05"/></clipPath><clipPath id="clippath-11"><path class="cls-18" d="m148.82,149.07c-.66.34-1.44.34-2.11,0-.24-.11-.41-.34-.44-.61l-.15,2.26c.03.3.21.55.48.67.74.37,1.6.37,2.34,0,.27-.12.46-.39.49-.69l-.18-2.25c-.03.27-.19.5-.44.62Z"/></clipPath><clipPath id="clippath-12"><rect class="cls-18" y="0" width="340.29" height="234.19"/></clipPath><clipPath id="clippath-13"><path class="cls-18" d="m99.5,147.85c-.66.34-1.44.34-2.11,0-.24-.11-.41-.34-.43-.61l-.16,2.26c.03.3.21.56.48.68.73.37,1.6.37,2.34,0,.28-.12.47-.39.49-.69l-.18-2.25c-.03.27-.19.5-.44.62h0Z"/></clipPath><clipPath id="clippath-14"><rect class="cls-18" y="0" width="340.29" height="234.19"/></clipPath><clipPath id="clippath-15"><path class="cls-18" d="m125.24,162.76c-.66.34-1.44.34-2.1,0-.24-.11-.41-.34-.44-.6l-.16,2.26c.03.29.21.55.48.67.73.38,1.61.38,2.34,0,.27-.12.46-.38.49-.68l-.18-2.26c-.02.27-.19.51-.44.62h0Z"/></clipPath><clipPath id="clippath-16"><rect class="cls-18" y="0" width="340.29" height="234.19"/></clipPath><clipPath id="clippath-17"><path class="cls-18" d="m194.49,109.82l-1.12.66c.33-.15.71-.11,1.01.1l1.11-.67c-.19-.12-.4-.18-.63-.19-.13,0-.26.03-.37.1h0Z"/></clipPath><clipPath id="clippath-18"><rect class="cls-18" y="0" width="340.29" height="234.19"/></clipPath><clipPath id="clippath-19"><path class="cls-18" d="m194.37,110.58c.83.53,1.35,1.43,1.41,2.41.03.35-.13.69-.41.9l1.11-.67c.29-.2.45-.54.41-.89-.06-.99-.58-1.88-1.41-2.42l-1.11.67Z"/></clipPath><clipPath id="clippath-20"><rect class="cls-18" y="0" width="340.29" height="234.19"/></clipPath><clipPath id="clippath-21"><path class="cls-18" d="m213.41,109.82l-1.12.66c.33-.15.71-.11,1.01.1l1.11-.67c-.19-.12-.41-.18-.63-.19-.13,0-.26.03-.37.1h0Z"/></clipPath><clipPath id="clippath-22"><rect class="cls-18" y="0" width="340.29" height="234.19"/></clipPath><clipPath id="clippath-23"><path class="cls-18" d="m213.3,110.58c.83.53,1.35,1.43,1.4,2.41.03.35-.12.69-.41.9l1.11-.67c.29-.2.45-.54.41-.89-.06-.98-.58-1.88-1.41-2.42l-1.11.67Z"/></clipPath><clipPath id="clippath-24"><rect class="cls-18" y="0" width="340.29" height="234.19"/></clipPath><clipPath id="clippath-25"><path class="cls-18" d="m194.49,120.98l-1.12.66c.33-.15.71-.11,1.01.1l1.11-.67c-.19-.12-.4-.18-.63-.19-.13,0-.26.03-.37.1h0Z"/></clipPath><clipPath id="clippath-26"><rect class="cls-18" y="0" width="340.29" height="234.19"/></clipPath><clipPath id="clippath-27"><path class="cls-18" d="m194.37,121.73c.83.53,1.35,1.43,1.41,2.41.03.35-.12.69-.41.9l1.11-.67c.29-.2.45-.54.41-.89-.06-.99-.58-1.88-1.41-2.42l-1.11.67Z"/></clipPath><clipPath id="clippath-28"><rect class="cls-18" y="0" width="340.29" height="234.19"/></clipPath><clipPath id="clippath-29"><path class="cls-18" d="m213.41,120.98l-1.12.66c.33-.15.71-.11,1.01.1l1.11-.67c-.19-.12-.41-.18-.63-.19-.13,0-.26.03-.37.1h0Z"/></clipPath><clipPath id="clippath-30"><rect class="cls-18" y="0" width="340.29" height="234.19"/></clipPath><clipPath id="clippath-31"><path class="cls-18" d="m213.3,121.73c.82.53,1.35,1.43,1.4,2.41.03.35-.12.69-.41.9l1.11-.67c.29-.2.45-.54.41-.89-.06-.98-.58-1.88-1.41-2.42l-1.11.67Z"/></clipPath><clipPath id="clippath-32"><rect class="cls-18" y="0" width="340.29" height="234.19"/></clipPath><clipPath id="clippath-33"><rect class="cls-18" x="151.96" y="21.93" width="12.32" height="45.43"/></clipPath></defs><g class="cls-66"><g id="_组_5424"><g id="_组_5376"><g class="cls-57"><g id="_组_5375"><g id="_组_5350" class="cls-60"><g id="_组_5349"><g class="cls-49"><g id="_组_5348"><path id="_路径_11146" class="cls-12" d="m185.69,232.32L3.48,127.11c-2.24-1.29-3.48-3.07-3.48-4.99s1.23-3.7,3.47-5L138.99,38.63c4.9-2.5,10.7-2.5,15.61,0l182.22,105.2c2.24,1.3,3.48,3.07,3.48,5s-1.24,3.69-3.48,4.99l-135.51,78.5c-4.9,2.5-10.71,2.5-15.61,0"/></g></g></g></g><path id="_路径_11147" class="cls-34" d="m339.45,148.83h0v-8.4l-23.73.6L154.17,47.77c-4.08-2.35-10.69-2.35-14.77,0L25.48,113.8H.84s0,8.56,0,8.56h.04c.1,1.46,1.08,2.91,3.02,4.03l182.22,105.21c4.08,2.35,10.69,2.35,14.77,0l135.51-78.5c1.97-1.13,2.96-2.61,3.03-4.1h.03v-.16Z"/><path id="_路径_11148" class="cls-26" d="m336.39,144.77l-135.51,78.5c-4.08,2.36-10.69,2.36-14.77,0L3.9,118.06c-4.08-2.36-4.08-6.17,0-8.54L139.41,31.03c4.07-2.35,10.69-2.35,14.77,0l182.22,105.2c4.08,2.36,4.08,6.17,0,8.54"/><path id="_路径_11149" class="cls-12" d="m91.46,72.29c-2.37,1.2-5.17,1.2-7.54,0-2.08-1.21-2.08-3.16,0-4.36,2.37-1.2,5.17-1.2,7.54,0,2.08,1.2,2.08,3.15,0,4.36"/><path id="_路径_11150" class="cls-20" d="m312.65,126.74l-1.7.99L158.74,39.87,20.52,119.95l-1.69-.98L158.74,37.92l153.91,88.81Z"/><path id="_路径_11151" class="cls-31" d="m310.95,127.72l-138.21,80.08L20.52,119.95,158.74,39.87l152.21,87.85Z"/><path id="_路径_11152" class="cls-28" d="m268.81,173.12l-12.76,7.37c-1.61.83-3.52.83-5.13,0l-4.43-2.56c-1.42-.82-1.42-2.15,0-2.96l12.75-7.37c1.61-.82,3.52-.82,5.14,0l4.43,2.56c1.41.82,1.41,2.14,0,2.95"/><g id="_组_5353" class="cls-70"><g id="_组_5352"><g class="cls-69"><g id="_组_5351"><path id="_路径_11153" class="cls-26" d="m183.38,79.01c-36.6-21.13-95.95-21.13-132.55,0-36.6,21.13-36.6,55.4,0,76.53,36.6,21.13,95.95,21.13,132.55,0,36.6-21.13,36.6-55.4,0-76.53"/></g></g></g></g><g id="_组_5356" class="cls-70"><g id="_组_5355"><g class="cls-58"><g id="_组_5354"><path id="_路径_11154" class="cls-26" d="m183.38,86.99c-36.6-21.13-95.95-21.13-132.55,0-36.6,21.13-36.6,55.4,0,76.53,36.6,21.13,95.95,21.13,132.55,0,36.6-21.13,36.6-55.4,0-76.53"/></g></g></g></g><path id="_路径_11155" class="cls-36" d="m307.59,103.19c-.35,5.55-3.18,14.05-3.49,19.6,1.95,4.39.59,10.65-.06,14.83-.31,1.78-.74,3.53-1.27,5.26-.25.88-.51,1.76-.76,2.64-.15.63-.26,1.26-.35,1.9-.13.46-.52.8-1,.85-.47.04-.93-.03-1.37-.2-1.68-.57-3.31-1.26-4.89-2.05-.34-.14-.65-.34-.92-.59-.26-.27-.35-.66-.21-1.01.18-.35-.17-.68.22-.76,1.03-.23,4.48.87,4.48-.56-.63-4.03-.65-9.98-1.52-13.82-.28-1.19-3.77-15.1-3.98-17.35-.28-2.73-.53-5.46-.64-8.2,0-.19,0-.4-.01-.59-.02-.54-.05-1.07-.09-1.61,1.47-4.5,16.31-5.53,15.86,1.67"/><g id="_组_5359" class="cls-73"><g id="_组_5358"><g class="cls-77"><g id="_组_5357"><path id="_路径_11156" class="cls-36" d="m307.59,103.19c-.35,5.55-3.18,14.05-3.49,19.6.03.06.06.13.08.2-2.63,1.19-7.05.37-6.54,3.74.98,5.32.98,10.44.98,15.75-.08.43-.37.8-.77.98.08-.11.12-.24.11-.38-.63-4.03-.65-9.98-1.52-13.82-.28-1.19-3.77-15.1-3.98-17.35-.28-2.73-.53-5.46-.64-8.2,0-.19,0-.4-.01-.59-.02-.54-.05-1.07-.09-1.61,1.47-4.5,16.31-5.53,15.86,1.67"/></g></g></g></g><path id="_路径_11157" class="cls-12" d="m302.23,149.16s-.03.06-.05.09c-.29.61-.87,1.04-1.54,1.12-.27.01-.54-.02-.8-.08-.28-.04-.56-.12-.83-.22-.27-.13-.53-.28-.77-.46-.25-.21-.48-.44-.68-.69-.69-.58-1.54-.96-2.44-1.07-.9-.12-1.77-.38-2.58-.77-.37-.22-2.91-1.56-3.27-2.97-.13-.52,3.15-2.01,3.73-1.75.87.4,3.67,1.27,4.18,1.5-1.07.08-4.43-.31-4.55-.21-.23.18-.15.55.02.78.2.24.44.44.71.59,1.45.83,3.04,1.37,4.69,1.6.57.13,1.15.21,1.74.24.23,0,1.88-.17,2.27-1.5.37.58.55,1.26.51,1.95.03.63-.09,1.26-.33,1.85"/><path id="_路径_11158" class="cls-36" d="m284.76,146.92c1.37.54,3.19.73,3.57-.98,1.63-7.41-.23-9.17-.54-16.68-.05-1.25-4.13-13.95-2.23-25.08l14.64,1.02c-.32,8.57-2.06,14.86-4.23,19.59,3.73,10.67-2.24,19.01-3.28,22.55-.06.52,1.25,2.09.08,3.26-.45.45-13.36-1.69-11.43-3.63.53-.53,2.22-.51,3.41-.04"/><g id="_组_5362" class="cls-73"><g id="_组_5361"><g class="cls-53"><g id="_组_5360"><path id="_路径_11159" class="cls-36" d="m288.98,125.15c-1.18,6.89,3.74,14.57-.59,20.87-.04.06-.09.12-.14.18.03-.08.06-.17.08-.25,1.63-7.41-.23-9.18-.54-16.69-.05-1.25-4.13-13.95-2.24-25.08l14.64,1.02c-.29,7.87-1.79,13.81-3.71,18.4-2.82,1.15-6.97-.78-7.51,1.56"/></g></g></g></g><path id="_路径_11160" class="cls-41" d="m307,119.85c-2.01,2.59-5.61,3.05-8.55,3.28-4.48.34-8.99,0-13.37-.99-.7-.45-1.24-1.1-1.54-1.87-.4-1.2-.53-2.47-.4-3.72.17-4.02.82-8,1.94-11.86.51-1.75,1.15-3.5,2.26-4.64,1.66-1.7,3.97-1.63,6.08-1.49,2.92.2,5.85.36,8.76.59,1.78.14,4.19-.07,5.18,2.38.89,2.21.81,5.58,1.06,7.98.19,1.9.4,3.85.42,5.78-.39,1.56-.9,3.31-1.85,4.54"/><path id="_路径_11161" class="cls-36" d="m281.44,62.72l-5.92.54-2.42,1.5c-.22.16-1.36.89-1.32,1.66.03.51.51,3.37,1.45,3.03.63-.23,5.48-2.82,5.48-2.82.35-.14,1.48-.16,1.66-.38l1.23-1.46-.18-2.05Z"/><path id="_路径_11162" class="cls-5" d="m282.23,68c-.03.2-.32.36-.7.51l-4.18,1.68.06-.41s0-.08-.02-.11l3.13-1.26c.06-.02.1-.07.12-.13.04-.3.08-.59.13-.89,0-.06-.03-.12-.08-.15l-8.77-6.92c-.14-.1-.32-.12-.48-.07l-9.5,3.81c-.06.02-.11.07-.12.13l-.09.66-.22-.17c-.21-.13-.33-.37-.31-.61-.04.29-.08.59-.13.88-.01.25.11.48.31.61l9.08,7.17c.56.39,1.28.5,1.92.27l9.02-3.62c.37-.15.67-.31.69-.51.04-.29.08-.59.13-.88"/><path id="_路径_11163" class="cls-17" d="m280.69,67.24l-8.77-6.93c-.14-.1-.32-.12-.48-.07l-9.5,3.81c-.08.02-.13.09-.12.17,0,.04.04.08.08.1l8.77,6.92c.14.1.32.12.48.07l9.51-3.82c.08-.02.13-.1.11-.18,0-.04-.04-.08-.08-.1"/><path id="_路径_11164" class="cls-12" d="m276.53,69.42c.26-.09.54-.05.76.11.19.15.16.35-.06.44l-.84.34c-.26.09-.54.05-.76-.11-.19-.15-.16-.35.07-.44l.83-.33Z"/><path id="_路径_11165" class="cls-23" d="m270.69,59.94c.65-.22,1.37-.12,1.93.28l9.39,7.42c.48.38.1.64-.47.87l-9.02,3.62c-.65.22-1.36.12-1.92-.28l-9.08-7.17c-.29-.15-.4-.51-.25-.8.08-.16.24-.28.42-.31l9.02-3.62Zm9.99,7.3l-8.76-6.93c-.14-.1-.32-.12-.48-.07l-9.51,3.81c-.08.02-.13.1-.12.18,0,.04.04.08.07.1l8.77,6.92c.14.1.32.12.48.07l9.51-3.81c.08-.02.13-.1.11-.18,0-.04-.04-.08-.08-.1m-3.46,2.73c.13-.02.21-.15.19-.27-.01-.07-.06-.13-.12-.17-.22-.15-.5-.19-.75-.11l-.84.33c-.13.02-.21.14-.19.27.01.07.06.13.12.17.22.15.5.2.76.11l.84-.34Z"/><path id="_路径_11166" class="cls-33" d="m280.17,62.25c-1.58.32-1.82,4.13.69,4.48l9.59,1.69c2.49.35,4.79-1.38,5.15-3.87.35-2.49-1.38-4.79-3.87-5.15,0,0-8.64,2.26-11.55,2.85"/><path id="_路径_11167" class="cls-42" d="m290.09,62.72c.52-.8,4.93-2.36,8.63-2.36s5.55-3.3,5.55.41-.54,20.63-4.25,20.63-11.93-15.55-9.94-18.67"/><path id="_路径_11168" class="cls-36" d="m299.66,57.56c0,2.18-7.56.55-7.56.55v-4.13l7.41-.49.15,3s0,1.06,0,1.08"/><path id="_路径_11169" class="cls-15" d="m300.64,50.38c-3.63,3.8-5.05,3.74-8.66,1.19s-5.12-6.16-4.26-11.53c.92-5.69,7.71-7.14,12.02-4.5,8.26,5.03,5.4,10.12.9,14.84"/><path id="_路径_11170" class="cls-36" d="m299.08,46.72c-.22,1.62.41,3.88-.36,4.97-3.53,5.01-9.1,2.81-9.1,2.81-2.48-1.97-3.14-6.19-3.14-11.36s4.35-6.09,7.19-3.88c2.85,2.2,6.08,2.35,5.4,7.46"/><g id="_组_5365" class="cls-73"><g id="_组_5364"><g class="cls-55"><g id="_组_5363"><path id="_路径_11171" class="cls-36" d="m289.51,38.27c-1.9,3.37-2.19,7.34-1.64,11.15.27,2.11,1.15,4.41,2.9,5.39-.39-.07-.77-.18-1.14-.31-2.48-1.97-3.14-6.19-3.14-11.36,0-2.87,1.34-4.43,3.03-4.87"/></g></g></g></g><path id="_路径_11172" class="cls-15" d="m304.92,41.49c-.31-2.24-5.68-2.46-5.68-2.46-.39-.3-2.75-8.91-11.72-1.91-1.86,1.46-.8,7.09,1.12,10.06.24.34.62.56,1.03.6,1.71.26,4.54-1.18,4.93-.86.46.37-1.61.75-.15,3.29.19.34.38.68.57,1,.77,1.38,1.69,4.22,5.28,1.85.26-.22,6.25-6.44,4.62-11.58"/><path id="_路径_11173" class="cls-36" d="m295.16,48.13c-.69,1.08-1.42,1.64-2.15,1.37s-.93-1.17-.47-2.37,1.76-1.85,2.49-1.57.92,1.35.14,2.57"/><path id="_路径_11174" class="cls-9" d="m289.95,59.7c-.02-.47,1.74-3.75,2.15-3.42,1.55,1.22,5.44.92,6.53.35.59-.36.95-1,.95-1.7,0,0,6.57,5.41-1.98,7.08-1.75.37-3.57.18-5.21-.54-1.34-.64-3.68-.54-2.44-1.77"/><path id="_路径_11175" class="cls-33" d="m309.64,113.7c-.91,1.21-2.22,2.05-3.7,2.37-2.26.57-4.69.58-7.01.76-2.86.3-5.75.21-8.58-.27-2.96-.51-5.62-2.1-7.46-4.47l-.02-.03c-2.1-10.8,2.18-21.4,2.79-28.65.25-3.09-1.13-5.45-1.58-6.65-3.88-10.43-1.34-13.78,6.33-17.87,0,0,2.34,2.66,7.54,1.52,5.3-1.16,3.03-4.31,3.03-4.31,7.67-.99,7.13,6.94,6.13,11.42-.38,1.69-2.83,9.39-1.44,15.79.7,3.21,1.01,2.91,2.27,7.05,2.3,7.42,2.98,15.24,1.99,22.94-.09.14-.18.27-.28.41"/><path id="_路径_11176" class="cls-36" d="m268.88,72.03c.06.39.43.66.82.59.39-.06.65-.42.59-.81,0,0,0,0,0,0l-.6-3.85c-.07-.39-.44-.64-.83-.57-.37.07-.63.42-.58.79l.6,3.86Z"/><path id="_路径_11177" class="cls-36" d="m270.08,72.93l-1.05-3.62-1.57-2.55c-.17-.23-.93-1.42-1.73-1.39-.54.03-3.54.54-3.18,1.53.24.66,2.76,5.16,2.76,5.16.82.49,1.49,1.19,1.95,2.03l.18,1.62,2.65-2.78Z"/><path id="_路径_11178" class="cls-33" d="m270.16,70.35s4.68,5.29,6.27,5.29c1.37,0,7.1-12.18,7.1-12.18,1.5-2.13,4.44-2.65,6.58-1.15,0,0,0,0,0,0,2.13,1.5,1.59,5.9.08,8.04l-9.77,13.64c-1.23,1.75-3.49,2.46-5.5,1.72-.85-.23-1.61-.73-2.16-1.42-2.03-2.77-7.12-11.4-7.26-11.66,2.18-2.13,2.16-1.91,4.66-2.28"/><path id="_路径_11179" class="cls-16" d="m301.97,39.14c.82-1.76,3.68.14,4.96,1.83,1.9,2.5,2.67,5.81,3.11,8.85.43,2.93.42,5.92-.02,8.85-.33,2.1-1.31,4-1.31,6.18,0,1.15-.15,2.27.36,3.32.93,1.94,2.45,3.33,4.69,3.58-.68-.25-1.42.3-2.1.51-1.13.33-2.29.52-3.46.58-1.25.09-2.5.45-3.75.03-1.77-.59-3.27-2.56-4.33-4-1.61-2.19-1.84-4.76-1.76-7.39.05-1.89.25-4.4,1.43-5.9,1.29-1.64,1.97-3.93,2.43-5.93.28-.97.47-1.95.59-2.95.04-.6-.04-1.21.03-1.82.2-1.79-1.79-3.79-.88-5.74"/><g id="_组_5368" class="cls-73"><g id="_组_5367"><g class="cls-71"><g id="_组_5366"><path id="_路径_11180" class="cls-16" d="m313.76,71.74c-.14-.02-.28-.04-.42-.06.14,0,.29.02.42.06"/></g></g></g></g><g id="_组_5371" class="cls-60"><g id="_组_5370"><g class="cls-65"><g id="_组_5369"><path id="_路径_11181" class="cls-16" d="m298.37,61.48c.05-1.89.25-4.4,1.43-5.9,1.29-1.64,1.97-3.93,2.43-5.93.28-.97.48-1.95.6-2.95.04-.6-.04-1.21.03-1.82.2-1.79-1.79-3.79-.88-5.74l.03-.05c.58.51.92,1.23.96,2,.79,3.94,1.38,7.68,0,11.42-1.18,3.74-3.54,7.09-2.95,11.22.77,4.11,3.55,7.56,7.39,9.19-.97.21-1.98.19-2.95-.05-1.77-.59-3.27-2.56-4.32-3.99-1.61-2.19-1.84-4.76-1.76-7.39"/></g></g></g></g><g id="_组_5374" class="cls-73"><g id="_组_5373"><g class="cls-78"><g id="_组_5372"><path id="_路径_11182" class="cls-16" d="m307.49,66.88c-.59-5.91,1.18-11.62.98-17.52-.17-3.57-1.22-9.78-5.18-10.9,1.19.14,2.77,1.38,3.64,2.52,1.9,2.5,2.67,5.81,3.11,8.85.43,2.93.43,5.92-.02,8.85-.32,2.1-1.31,4-1.31,6.18,0,1.15-.15,2.27.36,3.32.75,1.81,2.35,3.13,4.27,3.52-.58.12-1.14.31-1.68.57-.33.1-.65.18-.96.25-1.78-1.37-2.93-3.4-3.21-5.62"/></g></g></g></g><path id="_路径_11183" class="cls-12" d="m293.56,151.57s-.02.06-.03.1c-.21.65-.73,1.14-1.38,1.32-.26.04-.53.05-.8.03-.29,0-.57-.04-.85-.11-.6-.18-1.15-.5-1.59-.95-.77-.49-1.65-.74-2.56-.74-.9,0-1.8-.14-2.66-.43-.39-.16-3.09-1.16-3.63-2.52-.18-.53-.14-1.11.1-1.61.3-.57.89-.92,1.53-.93.63,0,1.25.1,1.84.32.92.28,1.59.56,2.51.84.27.08.54.19,1.07.35-1.05.22-2.26-.06-3.34,0-.16,0-.32.04-.45.15-.2.2-.08.56.12.77.23.21.49.38.78.49,1.54.63,3.19.96,4.86.97.59.02,3.54.63,3.86-1.57.42.45.67,1.03.71,1.65.11.62.08,1.26-.09,1.88"/></g></g></g><g id="_组_5378"><g class="cls-2"><g id="_组_5377"><path id="_路径_11184" class="cls-7" d="m146.28,148.46l-.16,2.26s0,.07.01.11l.15-2.27s0-.07,0-.1"/><path id="_路径_11185" class="cls-6" d="m146.29,148.56l-.15,2.27c.07.24.23.44.45.55l.11-2.32c-.2-.1-.35-.28-.41-.5"/><path id="_路径_11186" class="cls-13" d="m146.69,149.06l-.11,2.32h.02c.12.08.24.13.36.17l.07-2.34c-.11-.04-.22-.08-.33-.14h-.02"/><path id="_路径_11187" class="cls-6" d="m147.04,149.21l-.07,2.34c.34.1.69.14,1.04.11l-.03-2.35c-.32.03-.63,0-.94-.1"/><path id="_路径_11188" class="cls-7" d="m147.98,149.31l.03,2.35c.33-.02.65-.11.94-.27.27-.12.46-.38.49-.68l-.18-2.26c-.02.27-.19.51-.44.62-.26.14-.55.23-.84.24"/></g></g></g><g id="_组_5380"><g class="cls-61"><g id="_组_5379"><path id="_路径_11190" class="cls-8" d="m146.72,147.85c-.34.11-.52.48-.4.82.06.19.21.34.4.4.66.34,1.44.34,2.11,0,.34-.11.52-.48.41-.82-.06-.19-.21-.34-.4-.4-.66-.34-1.45-.34-2.11,0"/><path id="_路径_11191" class="cls-7" d="m147.09,148.06c-.22.07-.34.31-.27.53.04.12.14.22.26.26.43.22.94.22,1.36,0,.22-.07.34-.31.26-.53-.04-.12-.14-.22-.26-.26-.43-.22-.94-.22-1.36,0"/></g></g></g><g id="_组_5382"><g class="cls-50"><g id="_组_5381"><path id="_路径_11192" class="cls-7" d="m96.96,147.24l-.16,2.26s0,.07.01.11l.15-2.27s-.01-.07-.01-.1"/><path id="_路径_11193" class="cls-6" d="m96.97,147.34l-.16,2.27c.07.24.23.44.45.55l.11-2.32c-.2-.1-.35-.28-.41-.5"/><path id="_路径_11194" class="cls-13" d="m97.37,147.83l-.11,2.32h.02c.12.08.24.13.36.17l.07-2.34c-.11-.04-.22-.08-.33-.14h-.02"/><path id="_路径_11195" class="cls-6" d="m97.71,147.99l-.07,2.34c.34.1.69.14,1.04.11l-.03-2.35c-.32.03-.63,0-.94-.1"/><path id="_路径_11196" class="cls-7" d="m98.65,148.09l.03,2.35c.33-.02.65-.11.94-.27.27-.12.46-.38.49-.68l-.17-2.26c-.02.27-.19.51-.44.62-.26.14-.55.22-.84.24"/></g></g></g><g id="_组_5384"><g class="cls-75"><g id="_组_5383"><path id="_路径_11198" class="cls-8" d="m97.39,146.63c-.34.11-.52.48-.4.82.06.19.21.34.4.4.66.34,1.44.34,2.1,0,.34-.11.52-.48.41-.82-.06-.19-.21-.34-.4-.41-.66-.34-1.45-.34-2.11,0"/><path id="_路径_11199" class="cls-7" d="m97.77,146.84c-.22.07-.34.31-.26.53.04.12.14.22.26.26.43.22.94.22,1.36,0,.22-.07.34-.31.26-.53-.04-.12-.14-.22-.26-.26-.43-.22-.94-.22-1.37,0"/></g></g></g><g id="_组_5386"><g class="cls-52"><g id="_组_5385"><path id="_路径_11200" class="cls-7" d="m122.7,162.15l-.16,2.26s0,.07.01.11l.15-2.27s-.01-.07-.01-.1"/><path id="_路径_11201" class="cls-6" d="m122.71,162.25l-.15,2.27c.07.24.23.44.45.55l.11-2.32c-.2-.1-.35-.28-.41-.5"/><path id="_路径_11202" class="cls-13" d="m123.11,162.75l-.11,2.32h.02c.12.08.24.13.36.17l.07-2.34c-.11-.04-.22-.08-.33-.14h-.02"/><path id="_路径_11203" class="cls-6" d="m123.46,162.9l-.07,2.34c.34.1.69.14,1.04.11l-.03-2.35c-.32.03-.63,0-.94-.1"/><path id="_路径_11204" class="cls-7" d="m124.39,163l.03,2.35c.33-.02.65-.11.94-.27.27-.12.46-.38.49-.68l-.18-2.26c-.02.27-.19.51-.44.62-.26.14-.55.22-.84.24"/></g></g></g><g id="_组_5388"><g class="cls-3"><g id="_组_5387"><path id="_路径_11206" class="cls-8" d="m123.14,161.54c-.34.11-.52.48-.4.82.06.19.21.34.4.4.66.34,1.44.34,2.1,0,.34-.11.52-.48.41-.82-.06-.19-.21-.34-.4-.41-.66-.34-1.45-.34-2.11,0"/><path id="_路径_11207" class="cls-7" d="m123.51,161.75c-.22.07-.34.31-.26.53.04.12.14.22.26.26.43.22.94.22,1.36,0,.22-.07.34-.31.26-.53-.04-.12-.14-.22-.26-.26-.43-.22-.94-.22-1.37,0"/><path id="_路径_11208" class="cls-24" d="m138.29,87.34c1,.24,1.77,1.04,1.98,2.04.18.88.07,2.14.51,2.93.85,1.53,1.07-.53,1.32-1.19.13.24.31.51.59.49.19-.03.35-.18.4-.37.04-.19.04-.38,0-.57-.23-1.77-.26-3.46-1.28-4.98-.21-.31-.44-.61-.68-.9-1.16.57-2.14,1.45-2.83,2.54"/><path id="_路径_11209" class="cls-26" d="m147.77,148.9h.03c.42-.02.74-.38.73-.8l-2.06-44.98c-.3-6.54-4.86-14.16-10.39-17.35l-1.6-.93c-2.86-1.66-5.61-1.93-7.73-.76-2.05,1.12-3.27,3.45-3.41,6.56l-2.06,42.6c0,.42.36.76.78.75.38,0,.7-.3.74-.68l2.06-42.6c.12-2.56,1.06-4.44,2.62-5.29,1.64-.89,3.86-.63,6.24.75l1.61.93c5.12,2.96,9.35,10.03,9.63,16.11l2.06,44.98c.02.41.35.72.76.73"/><path id="_路径_11210" class="cls-29" d="m141.82,93.5c.72,0,1.3-.58,1.31-1.3,0-.25-.07-.49-.2-.69-1.17-1.93-2.67-3.64-4.43-5.06l-1.46-1.14c-2.41-1.88-4.98-2.65-7.22-2.16-.7.17-1.13.88-.96,1.58.17.67.83,1.1,1.51.97,1.47-.32,3.27.28,5.06,1.67l1.46,1.14c1.52,1.23,2.81,2.71,3.82,4.38.24.38.66.62,1.11.62"/><path id="_路径_11211" class="cls-24" d="m141.12,84.8c-.72-.87-1.55-1.64-2.25-2.53-.31-.4-1.44-.14-1.85-.04-.63.16-1.25.4-1.83.7-.34.17-.32.84-.1,1.72.62,2.44,2.79,6.51,3.36,6.29.37-.19.56-.6.47-1-.1-.39-.26-.75-.48-1.08-.9-1.64,1.5-3.47,2.66-4.05"/><path id="_路径_11212" class="cls-33" d="m138.83,70.31c-.86-5.84,1.67-12.62.19-17.95-.34-.95-.93-1.78-1.7-2.43v.49h-2.39v12.19h-4.96c.34,1.55.68,3.17.94,5.01.73,5.5,1.77,10.95,3.13,16.32.37,2.07,6.34-.05,6.31-.56-.12-2.2-.28-4.64-1.52-13.07"/><path id="_路径_11213" class="cls-40" d="m111.25,145.83c.08.46.29.88.6,1.22.64.94.67,2.1.96,3.16.24,1.12.65,2.21,1.2,3.22.9,1.47,2.26,2.6,3.88,3.21.8.32,1.68.43,2.53.3.87-.13,1.63-.63,2.1-1.37.38-.75.46-1.62.22-2.43-.21-.7-.5-1.37-.88-2-.05-.09-.1-.18-.15-.27-.83-1.29-1.55-2.65-2.15-4.06-.37-1.03-.49-2.15-.92-3.17-.16-.42-.42-.79-.76-1.07-.09-.07-.19-.14-.3-.19-.22-.11-.46-.21-.7-.28-.5-.19-1.03-.33-1.56-.41-.21-.03-2.5.02-2.52-.05.18.95-.07,1.94-.67,2.7-.28.29-.53.6-.75.92-.1.17-.15.37-.15.57"/><path id="_路径_11214" class="cls-40" d="m129.23,140.16s-4.96-.92-4,5.11c.25,1.57,2.33,1.72,3.22,1.6.52-.16,1.07-.14,1.57.07.51.3.98.66,1.4,1.07,2.63,1.9,6.72.93,7.71-.4,1.42-1.91-1.94-3.49-5.21-4.97-1.64-.68-3.21-1.51-4.7-2.48"/><path id="_路径_11215" class="cls-22" d="m133.44,91.18c-.44-1.63-11.48-1.82-11.48-1.82l-1.93,1.48c-.06.76,3.09,14.34,4.13,17.09v.03c.94,2.45,1.72,4.44,2,5.25.05.13.08.23.1.29-.05.52-.18,1.58-.24,2.15-.81,8.28-2.47,27.54-2.52,27.68.28.08,11.95-.16,11.97-.19.95-6.73,2.52-23.39,3.01-27.73,0,0-3.3-17.9-5.02-24.22"/><path id="_路径_11216" class="cls-37" d="m128.95,120.97c1.54-6.52-2.56-11.38-3.97-17.52-1.29-6.08,4.16-8.74,9.11-9.64-.23-1-.46-1.89-.66-2.62-.44-1.63-11.48-1.82-11.48-1.82l-1.93,1.48c-.06.76,3.09,14.34,4.13,17.09v.03c.94,2.45,1.72,4.44,2,5.25.04.1.07.19.1.29-.05.52-.18,1.58-.24,2.15-.81,8.28-2.47,27.54-2.52,27.68.1.03,1.54.02,3.39,0-.67-1.9-1.13-3.86-1.38-5.85-.64-5.75,2.18-10.87,3.45-16.5"/><path id="_路径_11217" class="cls-27" d="m124.16,107.95c-.23-4.13-1.97-17.32-2.19-18.6-.11-.72-13.62-1.24-13.66-.65-.28,5.7,1.27,8.09,1.71,10.06,1.15,5.3,1.82,10.39,2.26,13.28-.05.52-.1,1.06-.15,1.63-1.01,12-2.31,31.65-2.54,32.62.44.16,11.69.02,11.85-.03h.02l.02-.02c.96-7.9,2.18-26.99,2.67-32.22.01-.02.02-.05.02-.08v-.03c.16-1.99.16-3.98,0-5.97"/><path id="_路径_11218" class="cls-22" d="m114.11,120.84c1.15-5.37,0-10.49-1.02-15.99-.64-3.2-.89-7.04,1.28-9.08,1.98-2.08,5.22-1.62,8.29-1.38-.33-2.57-.61-4.57-.69-5.03-.11-.71-13.62-1.23-13.66-.65-.28,5.71,1.27,8.09,1.71,10.06,1.15,5.3,1.82,10.39,2.26,13.28-.05.52-.1,1.06-.15,1.62-1.01,12-2.31,31.65-2.54,32.63.82.07,1.64.09,2.45.07-1.16-8.26.16-16.83,2.06-25.54"/><path id="_路径_11219" class="cls-41" d="m137.8,61.14c-1.32,6.58-1.22,13.41-1.71,20.13-.23,2.91-1.15,7.27-2.73,9.2-.32.21-.67.39-1.01.57-.49.25-1,.47-1.53.65-7.1,2.64-18.16.99-22.64-4.36-.11-1.34.08-2.68.55-3.93.76-2.42,2.03-5.07,2.62-7.19.91-3.08,1.44-6.26,1.59-9.46.02-1.37-.05-2.73-.13-4.1-.1-1.41-.2-2.83-.18-4.24.02-2.67-1.06-6.34.78-8.52.35-.36.78-.63,1.25-.8.08-.03.16-.06.26-.1.81-.26,1.64-.48,2.47-.65,1.49-.34,3.01-.68,4.52-.94,3.41-.62,7.66-.98,11.01-.05,2.31.65,4.88,1.64,5.54,4.18.83,3.07-.06,6.57-.67,9.61"/><path id="_路径_11220" class="cls-41" d="m120.38,64.94c1.54-4.22,2.43-9.21-.51-13.43-.81-1.3-1.99-2.32-3.39-2.95-.53.12-1.05.27-1.55.45-.1.03-.18.06-.26.1-.47.17-.9.44-1.25.8-1.84,2.18-.76,5.85-.78,8.52-.02,1.41.08,2.83.18,4.24.08,1.37.15,2.73.13,4.1-.15,3.21-.68,6.38-1.59,9.46-.58,2.11-1.86,4.76-2.62,7.18-.47,1.26-.66,2.6-.55,3.93,2.03,2.41,5.38,4.07,9.11,4.92-.07-.53-.11-1.06-.11-1.6,0-8.7,0-17.52,3.2-25.71"/><path id="_路径_11221" class="cls-39" d="m125.29,51.06c-1.58-.42-4.27-2.29-3.88-3.28.83-2.34,1.14-4.83.9-7.3l8.47,2.27s1.11,4.91.85,6.13c-.3,1.48-4.33,2.71-6.34,2.18"/><path id="_路径_11222" class="cls-24" d="m122.75,41.88c-.73.54-2.02.01-2.89-1.17s-.98-2.57-.25-3.1,2.02-.01,2.89,1.17.98,2.57.25,3.1"/><path id="_路径_11223" class="cls-24" d="m133.61,47.45c-1.14.76-2.54,1.04-3.88.78-1.85-.27-4.1-1.62-5.39-2.76-1.26-1.12-3.46-5.62-3.84-7.46-.06-.31-.11-.61-.14-.89-.54-5.02.06-8.4,3.57-10.96,3.71-2.71,12.23-.05,12.52,5.86s.4,13.01-2.84,15.43"/><path id="_路径_11224" class="cls-35" d="m123.58,25.85c-3.72,2.24-4.22,5.55-3.22,11.27l.04.29c.29.05,1.1.2,2.09,1.49.11-.02,1.46.36,1.36.2-1.25-2.04-1.75-4.45-1.4-6.82,2.07-10.67,11.46-4.73,12.43-3.76.87,1.02,1.31,2.33,1.23,3.67.12.13.24.24.36.37.33-5.43-7.12-10.17-12.87-6.71"/><path id="_路径_11225" class="cls-39" d="m121.95,40.79c-.35.26-.98,0-1.41-.57s-.48-1.25-.13-1.51.98,0,1.41.57c.42.58.48,1.25.13,1.51"/><path id="_路径_11226" class="cls-24" d="m109.1,93.31c.12-.56,1.39-.87,1.85-.98.73-.16,1.47-.23,2.21-.22.43,0,.75.68.97,1.7.62,2.78.49,8.01-.21,8.08-.47,0-.87-.33-.99-.78-.09-.44-.12-.89-.07-1.34.01-.61-.15-1.21-.46-1.74-.14.11-.28.23-.4.36-1.22-.63-2.44-1.41-3.7-2.14.27-.98.58-1.94.79-2.94"/><path id="_路径_11227" class="cls-26" d="m124.2,162.54h.03c.42-.02.74-.38.73-.8l-2.06-44.98c-.3-6.54-4.86-14.16-10.39-17.35l-1.61-.93c-2.86-1.66-5.61-1.93-7.73-.76-2.05,1.12-3.27,3.45-3.41,6.56l-2.06,42.6c0,.42.36.76.78.75.38,0,.7-.3.74-.68l2.06-42.6c.12-2.56,1.06-4.44,2.62-5.29,1.64-.9,3.86-.63,6.24.75l1.61.92c5.12,2.96,9.35,10.03,9.63,16.11l2.06,44.98c.02.41.35.72.76.73"/><path id="_路径_11228" class="cls-29" d="m116.87,105.48c.72,0,1.3-.58,1.3-1.3,0-.31-.11-.6-.3-.84-1.43-1.75-3.15-3.24-5.08-4.4l-1.61-.93c-2.65-1.53-5.29-1.94-7.45-1.15-.68.24-1.04.99-.79,1.67s.99,1.04,1.67.79c.01,0,.02,0,.03-.01,1.41-.52,3.27-.18,5.24.95l1.61.93c1.67,1.01,3.15,2.3,4.39,3.81.25.3.62.47,1,.47"/><path id="_路径_11229" class="cls-26" d="m122.97,129.74c.13,0,.27-.03.38-.1l23.01-13.29c.35-.24.44-.71.2-1.06-.21-.31-.62-.42-.96-.26l-23.01,13.28c-.36.21-.48.68-.27,1.05.14.23.38.37.65.38"/><path id="_路径_11230" class="cls-26" d="m122.18,115.89c.13,0,.27-.03.38-.1l23.01-13.28c.35-.24.44-.71.2-1.06-.21-.31-.62-.42-.96-.26l-23.01,13.28c-.36.21-.48.68-.27,1.05.14.23.38.37.65.38"/><path id="_路径_11231" class="cls-24" d="m111.31,100.99c.09.33,1.09.53,1.24.9-1.08.59-2.4.48-3.37-.27-.51-.36-.93-.84-1.24-1.38-.12-.65-.14-1.31-.06-1.96.1-.68.24-1.36.43-2.02,1.26.72,2.88,1.15,4.09,1.78-.7.75-1.37,1.96-1.09,2.96"/><path id="_路径_11232" class="cls-33" d="m120.28,54.12c-.7-4.29-3.88-5.52-3.88-5.52-6.08-.53-8.86,18.78-8.86,18.78-.57,3.74-.63,7.53-.19,11.29.48,3,.59,11.16.79,15.37,1.79,1.1,5.69-.07,6.39-.59.19-4.26.7-17.77,1.81-22.93.54-2.69,4.64-12.1,3.95-16.39"/><path id="_路径_11233" class="cls-21" d="m115.14,49.84c.38-.52.9-.91,1.5-1.14-.15-.08-.24-.11-.24-.11-6.08-.53-8.86,18.78-8.86,18.78-.57,3.74-.63,7.53-.19,11.29.48,3,.59,11.15.79,15.37.47.26.99.41,1.52.43-.53-3.38-.88-6.79-1.04-10.21-.51-11.64-.76-24.05,6.53-34.41"/><path id="_路径_11234" class="cls-26" d="m123.35,147.23c.3,0,.54-.24.54-.54v-5.79c-.19-3.38-1.97-6.48-4.81-8.33l-15.12-8.73c-1.39-.8-2.72-.92-3.76-.32s-1.6,1.81-1.6,3.41v5.79c0,.3.24.54.54.54s.54-.24.54-.54v-5.78c0-1.2.38-2.07,1.06-2.47s1.63-.28,2.67.32l15.12,8.73c2.52,1.64,4.1,4.39,4.27,7.39v5.79c0,.3.24.54.54.54"/><path id="_路径_11235" class="cls-43" d="m184.21,21.39c.16,1.19.53,2.31-.36,3.34-.6.63-1.39,1.04-2.25,1.16-.66.13-1.33.21-2,.25-1.13-.12-2.24-.35-3.32-.69h-.02c.2-1.05-7.6-5.81-7.36-6.84.57-2.39,9.41-1.06,10.96-2.96,1.39-1.71,3.34-3.02,4.2-5.05.3-.91.48-1.86.55-2.82.09-.58.4-.79,1-.59,1.38.46,1.66,2.8,1.68,4.01.02.97-.17,1.93-.55,2.82-.85,1.96-2.6,3.64-2.58,5.76-.04.53-.02,1.06.06,1.59"/><path id="_路径_11236" class="cls-32" d="m196.64,110.42l-.6,1.4c-.18.41-.62.16-.8-.46l-.6-2.09c-.18-.62.05-1.13.4-.93l1.2.69c.39.34.55.89.4,1.39"/><path id="_路径_11237" class="cls-25" d="m194.49,109.82l-1.12.66c.33-.15.71-.11,1.01.1l1.12-.67c-.29-.21-.68-.25-1-.09"/></g></g></g><g id="_组_5390"><g class="cls-76"><g id="_组_5389"><path id="_路径_11238" class="cls-25" d="m194.37,110.58l1.12-.66c-.14-.08-.28-.13-.43-.17l-1.11.66c.15.04.3.09.43.17"/><path id="_路径_11239" class="cls-25" d="m193.94,110.41l1.11-.66c-.18-.04-.38-.02-.55.06l-1.12.66c.17-.09.36-.11.55-.06"/><path id="_路径_11240" class="cls-25" d="m193.4,110.47l1.12-.66-.02.02-1.12.66h.03"/></g></g></g><g id="_组_5392"><g class="cls-74"><g id="_组_5391"><path id="_路径_11242" class="cls-25" d="m195.37,113.89l1.12-.67c.29-.2.45-.54.41-.89-.06-.98-.58-1.88-1.41-2.42l-1.11.67c.83.53,1.35,1.43,1.4,2.41.03.35-.13.69-.41.89"/></g></g></g><g id="_组_5394"><g class="cls-67"><g id="_组_5393"><path id="_路径_11243" class="cls-25" d="m195.37,113.89l1.12-.67c.29-.2.45-.54.41-.89,0-.37-.09-.73-.25-1.06l-1.12.67c.15.33.24.69.25,1.06.03.35-.13.69-.41.89"/><path id="_路径_11244" class="cls-25" d="m195.53,111.94l1.12-.67c-.13-.27-.28-.53-.47-.76l-1.11.66c.19.23.35.49.47.77"/><path id="_路径_11245" class="cls-25" d="m195.06,111.17l1.11-.66c-.19-.24-.42-.44-.68-.6l-1.12.67c.26.16.49.35.68.59"/></g></g></g><g id="_组_5396"><g class="cls-1"><g id="_组_5395"><path id="_路径_11247" class="cls-45" d="m194.37,110.58c-.78-.45-1.41-.09-1.41.8.05.98.57,1.88,1.4,2.41.78.45,1.41.09,1.42-.79-.05-.98-.58-1.88-1.41-2.41"/><path id="_路径_11248" class="cls-46" d="m194.93,111.22h0c-.51,0-.93-.42-.93-.93v-5.89c-.24-1.71.95-3.3,2.66-3.54.84-.12,1.7.11,2.37.63l5.82,3.36c.44.26.6.82.34,1.27s-.82.6-1.27.34l-5.82-3.36c-.47-.36-1.09-.45-1.64-.25-.45.38-.68.96-.6,1.55v5.89c0,.51-.42.93-.93.93"/><path id="_路径_11249" class="cls-32" d="m195.37,111.26l-.6,1.4c-.18.41-.62.16-.8-.46l-.6-2.09c-.18-.62.05-1.13.4-.93l1.2.69c.39.34.55.89.4,1.39"/><path id="_路径_11250" class="cls-32" d="m215.57,110.42l-.6,1.4c-.18.41-.62.16-.8-.46l-.6-2.09c-.18-.62.05-1.13.4-.93l1.2.69c.39.34.55.89.4,1.39"/><path id="_路径_11251" class="cls-25" d="m213.41,109.82l-1.12.66c.33-.15.71-.11,1.01.1l1.12-.67c-.29-.21-.68-.25-1-.09"/></g></g></g><g id="_组_5398"><g class="cls-56"><g id="_组_5397"><path id="_路径_11252" class="cls-25" d="m213.3,110.58l1.12-.66c-.14-.08-.28-.13-.43-.17l-1.11.66c.15.04.3.09.43.17"/><path id="_路径_11253" class="cls-25" d="m212.87,110.41l1.11-.66c-.18-.04-.38-.02-.55.06l-1.12.66c.17-.09.36-.11.55-.06"/><path id="_路径_11254" class="cls-25" d="m212.32,110.47l1.12-.66-.02.02-1.12.66h.03"/></g></g></g><g id="_组_5400"><g class="cls-64"><g id="_组_5399"><path id="_路径_11256" class="cls-25" d="m214.29,113.89l1.11-.67c.29-.2.45-.54.41-.89-.06-.98-.58-1.88-1.41-2.42l-1.11.67c.83.53,1.35,1.43,1.4,2.41.03.35-.13.69-.41.89"/></g></g></g><g id="_组_5402"><g class="cls-79"><g id="_组_5401"><path id="_路径_11257" class="cls-25" d="m214.29,113.89l1.11-.67c.29-.2.45-.54.41-.89,0-.37-.09-.73-.25-1.06l-1.12.67c.15.33.24.69.25,1.06.03.35-.13.69-.41.89"/><path id="_路径_11258" class="cls-25" d="m214.46,111.94l1.12-.67c-.13-.27-.28-.53-.47-.76l-1.11.66c.19.23.35.49.47.77"/><path id="_路径_11259" class="cls-25" d="m213.98,111.17l1.11-.66c-.19-.24-.42-.44-.68-.6l-1.12.67c.26.16.49.35.68.59"/></g></g></g><g id="_组_5404"><g class="cls-62"><g id="_组_5403"><path id="_路径_11261" class="cls-45" d="m213.3,110.58c-.78-.45-1.41-.09-1.41.8.05.98.57,1.88,1.4,2.41.78.45,1.41.09,1.42-.79-.05-.98-.58-1.88-1.41-2.41"/><path id="_路径_11262" class="cls-32" d="m196.64,121.57l-.6,1.4c-.18.41-.62.16-.8-.46l-.6-2.09c-.18-.62.05-1.13.4-.93l1.2.69c.39.34.55.89.4,1.39"/><path id="_路径_11263" class="cls-25" d="m194.49,120.98l-1.12.66c.33-.15.71-.11,1.01.1l1.12-.67c-.29-.21-.68-.25-1-.09"/></g></g></g><g id="_组_5406"><g class="cls-51"><g id="_组_5405"><path id="_路径_11264" class="cls-25" d="m194.37,121.74l1.12-.66c-.14-.08-.28-.13-.43-.17l-1.11.66c.15.04.3.09.43.17"/><path id="_路径_11265" class="cls-25" d="m193.94,121.56l1.11-.66c-.18-.05-.38-.03-.55.05l-1.12.67c.17-.09.36-.11.55-.06"/><path id="_路径_11266" class="cls-25" d="m193.4,121.62l1.12-.66-.02.02-1.12.66h.03"/></g></g></g><g id="_组_5408"><g class="cls-54"><g id="_组_5407"><path id="_路径_11268" class="cls-25" d="m195.37,125.04l1.12-.67c.29-.2.45-.54.41-.89-.06-.98-.58-1.88-1.41-2.42l-1.11.67c.83.53,1.35,1.43,1.4,2.41.03.35-.13.69-.41.89"/></g></g></g><g id="_组_5410"><g class="cls-59"><g id="_组_5409"><path id="_路径_11269" class="cls-25" d="m195.37,125.04l1.12-.67c.29-.2.45-.54.41-.89,0-.37-.09-.73-.25-1.06l-1.12.67c.15.33.24.69.25,1.06.03.35-.13.69-.41.89"/><path id="_路径_11270" class="cls-25" d="m195.53,123.09l1.12-.67c-.13-.27-.28-.53-.47-.76l-1.11.66c.19.23.35.49.47.77"/><path id="_路径_11271" class="cls-25" d="m195.06,122.32l1.11-.66c-.19-.24-.42-.44-.68-.6l-1.12.66c.26.16.49.35.68.59"/></g></g></g><g id="_组_5412"><g class="cls-80"><g id="_组_5411"><path id="_路径_11273" class="cls-45" d="m194.37,121.73c-.78-.45-1.41-.09-1.41.8.05.98.57,1.88,1.4,2.41.78.45,1.41.09,1.42-.79-.05-.98-.58-1.88-1.41-2.41"/><path id="_路径_11274" class="cls-46" d="m204.39,106.59c-.51,0-.93-.42-.93-.93v-33.32c0-.25.1-.49.28-.66l3.18-3.11c-.13-2.67-1.62-5.08-3.95-6.4l-10.68-5.9c-.45-.25-.6-.82-.35-1.27.25-.44.8-.6,1.25-.36l10.68,5.9c3.03,1.71,4.9,4.92,4.91,8.4,0,.25-.1.49-.28.66l-3.19,3.13v32.93c0,.51-.42.93-.93.93"/><path id="_路径_11275" class="cls-44" d="m199.96,61.16c-.28,0-.56-.07-.8-.22l-6.8-3.93c-.78-.42-1.08-1.39-.66-2.17.42-.78,1.39-1.08,2.17-.66.03.02.06.03.09.05l6.81,3.93c.77.44,1.03,1.43.59,2.19-.29.5-.82.8-1.39.8"/><path id="_路径_11276" class="cls-46" d="m194.93,122.14c-.51,0-.93-.42-.93-.93v-5.89c.14-2.89,1.67-5.54,4.1-7.11l11.65-6.73c1.36-1.07,3.33-.83,4.39.53.53.67.76,1.53.64,2.37v5.89c0,.51-.42.93-.93.93s-.93-.42-.93-.93h0v-5.89c.08-.59-.15-1.17-.6-1.55-.55-.2-1.17-.11-1.64.25l-11.65,6.73c-1.86,1.24-3.03,3.27-3.17,5.5v5.89c0,.51-.42.93-.93.93"/><path id="_路径_11277" class="cls-32" d="m214.29,111.26l-.6,1.4c-.18.41-.62.16-.8-.46l-.6-2.09c-.18-.62.05-1.13.4-.93l1.2.69c.39.34.55.89.4,1.39"/><path id="_路径_11278" class="cls-32" d="m195.37,122.42l-.6,1.4c-.18.41-.62.16-.8-.46l-.6-2.09c-.18-.62.05-1.13.4-.93l1.2.69c.39.34.55.89.4,1.39"/><path id="_路径_11279" class="cls-32" d="m215.57,121.57l-.6,1.4c-.18.41-.62.16-.8-.46l-.6-2.09c-.18-.62.05-1.13.4-.93l1.2.69c.39.34.55.89.4,1.39"/><path id="_路径_11280" class="cls-25" d="m213.41,120.98l-1.12.66c.33-.15.71-.11,1.01.1l1.12-.67c-.29-.21-.68-.25-1-.09"/></g></g></g><g id="_组_5414"><g class="cls-72"><g id="_组_5413"><path id="_路径_11281" class="cls-25" d="m213.3,121.74l1.12-.66c-.14-.08-.28-.13-.43-.17l-1.11.66c.15.04.3.09.43.17"/><path id="_路径_11282" class="cls-25" d="m212.87,121.56l1.11-.66c-.18-.05-.38-.03-.55.05l-1.12.67c.17-.09.36-.11.55-.06"/><path id="_路径_11283" class="cls-25" d="m212.32,121.62l1.12-.66-.02.02-1.12.66h.03"/></g></g></g><g id="_组_5416"><g class="cls-63"><g id="_组_5415"><path id="_路径_11285" class="cls-25" d="m214.29,125.04l1.11-.67c.29-.2.45-.54.41-.89-.06-.98-.58-1.88-1.41-2.42l-1.11.67c.83.53,1.35,1.43,1.4,2.41.03.35-.13.69-.41.89"/></g></g></g><g id="_组_5418"><g class="cls-68"><g id="_组_5417"><path id="_路径_11286" class="cls-25" d="m214.29,125.04l1.11-.67c.29-.2.45-.54.41-.89,0-.37-.09-.73-.25-1.06l-1.12.67c.15.33.24.69.25,1.06.03.35-.13.69-.41.89"/><path id="_路径_11287" class="cls-25" d="m214.46,123.09l1.12-.67c-.13-.27-.28-.53-.47-.76l-1.11.66c.19.23.35.49.47.77"/><path id="_路径_11288" class="cls-25" d="m213.98,122.32l1.11-.66c-.19-.24-.42-.44-.68-.6l-1.12.66c.26.16.49.35.68.59"/></g></g></g><g id="_组_5423"><g class="cls-48"><g id="_组_5422"><path id="_路径_11290" class="cls-45" d="m213.3,121.73c-.78-.45-1.41-.09-1.41.8.05.98.57,1.88,1.4,2.41.78.45,1.41.09,1.42-.79-.05-.98-.58-1.88-1.41-2.41"/><path id="_路径_11291" class="cls-46" d="m213.85,122.14c-.51,0-.93-.42-.93-.93v-5.89c-.14-2.23-1.31-4.26-3.17-5.5l-5.82-3.36c-.45-.25-.61-.81-.36-1.26.25-.45.81-.61,1.26-.36,0,0,.02,0,.03.02l5.83,3.36c2.44,1.57,3.97,4.21,4.1,7.11v5.89c0,.51-.42.93-.93.93"/><path id="_路径_11292" class="cls-32" d="m214.29,122.42l-.6,1.4c-.18.41-.62.16-.8-.46l-.6-2.09c-.18-.62.05-1.13.4-.93l1.2.69c.39.34.55.89.4,1.39"/><path id="_路径_11293" class="cls-24" d="m197.9,55.87c.08-1.23-1.5-2.81-2.44-3.51s-2.11-.8-3.18-1.24c-.35-.14-.7-.3-1.05-.46-1.09.55-1.9,1.52-2.25,2.69-.04.19,1.78.84,2.33,1.37.84.81,1.24,1.98,1.71,2.98.4.74,1.23,1.12,2.05.95,1.2-.22,2.75-1.52,2.83-2.78"/><path id="_路径_11294" class="cls-38" d="m183.32,30.66c-.46,3.69-.87,8.12-.28,8.9,1.03,1.38,11.02,11.15,11.02,11.15,0,0,.22,1.96-.87,3.15-1.04,1.15-1.85,1.75-2.56,1.46-.31-.13-13.81-10.09-13.81-10.09-.56-.43-.96-1.03-1.16-1.71-.06-.19-.1-.38-.11-.58h0v-.64h0c.04-3.1.58-9.04,1-13.12l6.77,1.47Z"/><path id="_路径_11295" class="cls-36" d="m153.39,101.14c0,.08.01.38.03.8.26,2.25.75,4.48,1.46,6.63.48,1.59.99,3.17,1.4,4.64.29,2.98-1.91,3.86-.38,6.92.35.54.85.96,1.44,1.2,1.01.34,1.8,1.12,2.17,2.11.24.56.59,1.07,1.03,1.5,1.78,1.5,5.79,1.24,6.61-.13,1.18-1.92-4.5-5.72-6.3-9.1-.04-.06-.08-.15-.13-.23.03-2.24.17-4.55.39-6.92.46-4.97,1.27-10.19,2.15-15.5.23-1.33,1.05-2.49,1.33-3.8.22-1.15.33-2.33.34-3.5.1-2.49.29-7.5.38-9.98.11-2.72.2-5.43.18-8.15h-11.47c.53,6.1,1.05,14.64,1.75,20.71-2.07,3.88-2.47,8.4-2.38,12.8"/><path id="_路径_11296" class="cls-40" d="m163.71,122.36c1.06-.53.42-1.49.47-2.53,1.91,2.01,3.68,3.85,2.97,5-.83,1.37-4.83,1.63-6.61.13-.44-.43-.79-.93-1.03-1.49-.37-1-1.17-1.77-2.17-2.11-.59-.25-1.09-.67-1.44-1.21-.95-1.91-.45-2.97-.01-4.22.7,1.23,1.34,2.5,1.9,3.8.66,1.98,3.29,3.29,5.93,2.63"/><path id="_路径_11297" class="cls-36" d="m167.53,86.65c.09-1.23.4-2.46.38-3.68-.07-2.15-.33-4.29-.76-6.4-.64-2.18-1.55-5.19-2.47-8.41l10.79-.67c.57,3.93,1.27,8.79,1.41,11.1.2,3.16-.53,14.65-1.49,20.67-.49,2.97.03,5.94.93,8.82,1.27,4.05,7.21,9.18,5.96,10.19-.66.46-1.43.74-2.24.8-1.68.21-3.71-.15-4.77-1.46-1.15-1.41-1.79-2.91-4-4.11-.61-.38-1.09-.96-1.35-1.63-.67-3.28.9-3.12,1.05-5.54.18-3.23-3.91-12.85-3.46-19.67"/><path id="_路径_11298" class="cls-40" d="m174.19,113.8c1.36.57,3.41,1.77,5.34.99.33-.76-.19-1.48-.6-2.21,1.99,2.67,4.17,5.03,3.36,5.68-.66.46-1.43.74-2.23.79-1.68.21-3.71-.15-4.77-1.46-1.15-1.41-1.79-2.91-4-4.11-.61-.38-1.09-.96-1.35-1.63-.51-2.49.28-3,.75-4.16.98,2.13,1.52,4.7,3.5,6.1"/><path id="_路径_11299" class="cls-30" d="m152.49,107.7c-.91-1.12-2.98-12.63-.99-25.83,1.53-10.17-1.72-16.01.86-24.68.89-2.98,4.22-11.62,4.22-11.9-.05-3.58,6.2-2.38,11.77-1.65,4.11.54,9.32,6.97,9.32,6.97,0,0,2.78,34.57,1.59,51.04-.45,6.24-23.03,10.65-26.77,6.06"/><path id="_路径_11300" class="cls-11" d="m151.49,81.86c1.53-10.17-1.72-16.01.86-24.68.89-2.98,4.22-11.62,4.22-11.9-.05-3.58,6.2-2.38,11.78-1.64,4.11.54,9.32,6.97,9.32,6.97,0,0,.3,3.7.66,9.24-4.99,2.06-10.87,1.68-16.01,3.65-1.17.5-2,1.55-2.23,2.79-.7,5.44-1.26,10.61-2.65,15.91-1.95,6.7-2.37,13.54-1.95,20.52.14,2.59.94,5.17,3.05,6.86-2.8-.1-5.06-.69-6.03-1.89-.91-1.12-2.98-12.63-.99-25.83"/><path id="_路径_11301" class="cls-14" d="m177.75,49.07c.02,2.32,2.07,6.97.95,9.12-4.22,3.5-13.15,3.12-18.69,2.21-2.45-.37-4.74-1.43-6.6-3.05l-.2-.64-.02-.12c-.14-.62-.21-1.25-.21-1.88v-.02c.02-3.22,1.09-6.3,1.79-9.42.73-3.25,1.58-6.52,2.17-9.76.47-2.58,1.15-5.1,1.83-7.66,2.06-7.82,10.77-9.11,12.84-8.81,3.28.42,6.41,1.62,9.13,3.49,2.22,1.6,3.75,5.78,2.85,8.92-.68,2.38-2.47,5.17-3.64,7.32-2.52,4.64-2.27,5.08-2.23,10.29"/><path id="_路径_11302" class="cls-19" d="m165.94,36.84c2.65-3.63,2.65-8.8.56-12.98-.5-1.23-1.49-2.2-2.73-2.68,3.11-1.94,6.64-2.31,7.86-2.14,3.28.42,6.41,1.62,9.13,3.49,2.22,1.61,3.74,5.78,2.85,8.92-.68,2.38-2.47,5.17-3.64,7.32-2.52,4.64-2.27,5.08-2.23,10.29.02,2.32,2.07,6.97.95,9.12-4.18,3.46-12.97,3.13-18.51,2.24.67-4.11,1.33-8.25,1.7-12.42.33-4.02,1.73-7.87,4.05-11.17"/><path id="_路径_11303" class="cls-38" d="m154.78,45.28c.73-3.25,1.58-6.52,2.17-9.76.47-2.58,1.15-5.1,1.83-7.67.72-2.79,2.51-5.19,4.98-6.68,1.24.48,2.23,1.44,2.73,2.68,2.1,4.19,2.1,9.35-.56,12.98-2.32,3.3-3.71,7.15-4.05,11.17-.37,4.17-1.02,8.31-1.7,12.42-.06,0-.12-.02-.18-.03-2.45-.37-4.73-1.43-6.6-3.05-.07-.21-.14-.42-.2-.64l-.02-.12c-.14-.62-.2-1.25-.21-1.88v-.02c.02-3.22,1.09-6.3,1.79-9.42"/><path id="_路径_11304" class="cls-39" d="m177.74,24.11c-1.24.28-2.53.18-3.7-.3-3.67-1.82-3.01-3.57-3.01-3.57l1.78-9.41,7.31,2.94s-.55,5.81-.97,7.81c-.27,1.28-.4,2.28-1.41,2.54"/><path id="_路径_11305" class="cls-24" d="m156.55,66.53c.04-.31.1-.79.18-1.39l-3.5-.49c.05,1.07,0,2.14-.15,3.21-.25,1.49-.78,2.92-.91,4.42-.16,1.82.63,3.32,1.28,4.99.06.18.15.35.28.49.13.15.34.2.53.13.25-.11.28-.45.28-.71.54.46,1.73,2.16,1.73.41,0-.91-.7-1.97-.97-2.82-.32-1.04.02-2.17.86-2.86.29.45.46.98.47,1.52-.03.4,0,.8.11,1.18.11.4.48.67.9.66.61-.08.55-4.71-.09-7.14-.19-.61-.53-1.16-.99-1.6"/><path id="_路径_11306" class="cls-44" d="m167.02,27.81c-.33-4.34-3.4-5.85-3.4-5.85-6.03-1.05-10.45,18-10.45,18-.89,3.68-1.28,7.47-1.16,11.25.23,3.03.28,11.37.12,15.6,1.69,1.25,4.69,0,5.44-.46.55-4.23,2.57-17.45,4.11-22.51.77-2.64,5.67-11.69,5.34-16.03"/><g id="_组_5421" class="cls-47"><g id="_组_5420"><g class="cls-4"><g id="_组_5419"><path id="_路径_11307" class="cls-19" d="m153.17,39.97s4.43-19.04,10.45-18c.24.13.46.27.67.44-11.86,9.63-11.44,26.89-10.49,40.81.1,1.38.24,2.76.4,4.13-.73.06-1.46-.13-2.06-.54.16-4.22.11-12.57-.12-15.6-.12-3.78.27-7.57,1.16-11.25"/></g></g></g></g><path id="_路径_11308" class="cls-24" d="m185.7,11.07c-1.3,5.03-3.07,10.03-6.41,11.22-1.17.31-2.42.11-3.44-.54-.23-.12-.45-.25-.67-.39-1.12-.73-2.12-1.62-2.97-2.64-.93-1.15-.83-6.02-.67-7.65.5-5.17,4.25-4.36,8.05-5.66,3.82-1.29,7.4.64,6.1,5.66"/><path id="_路径_11309" class="cls-10" d="m180.15,9.36c1.85.13,4.3.56,5.82-.82.3-.28.57-.6.79-.95-.1-2.21-.92-2.53-3.34-4.96-1.65-1.64-3.01-3.05-5.23-1.11-.38.34-1.1.37-.76.57.93,4.7-6.24,6.72-2.94,9.42.9-1.81,3.87-2.29,5.66-2.16"/><path id="_路径_11310" class="cls-10" d="m165.45,19.99c.85-.84,1.4-1.94,1.55-3.12.06-1.12-.48-2.18-.66-3.29-.13-1.29.02-2.58.43-3.81.87-3.12,1.38-8.06,8.48-9.66,3.82-.86,6.08,3.13,4.15,5.07-1.2,1.29-2.15,2.8-2.79,4.44.01.05.02.1.03.15.17,1.79.03,3.58-1.12,5.06-1.13,1.46-3.49,1.82-3.99,3.76-.13.78-.08,1.59.15,2.35.02.07.03.14.05.22.03,1.24-.74,2.35-1.9,2.77-2.06.82-4.11,1.85-5.29.08-1.08-1.63-1.96-1.15-1.97-1.33.21-.65,2.43-2.16,2.89-2.69"/></g></g></g></g></g></svg>