<?xml version="1.0" encoding="UTF-8"?><svg id="_圖層_1" xmlns="http://www.w3.org/2000/svg" xmlns:xlink="http://www.w3.org/1999/xlink" viewBox="0 0 282.8 167.24"><defs><style>.cls-1{fill:#e8e9ed;}.cls-1,.cls-2,.cls-3,.cls-4,.cls-5,.cls-6,.cls-7,.cls-8,.cls-9,.cls-10,.cls-11,.cls-12,.cls-13,.cls-14,.cls-15,.cls-16,.cls-17{stroke-width:0px;}.cls-2{fill:#ffccb1;}.cls-3,.cls-18,.cls-19{fill:none;}.cls-4{fill:#b8b8b8;}.cls-5{fill:#ffd6bf;}.cls-6{fill:#1c96bb;}.cls-7{fill:#fff;}.cls-8{fill:#595f6b;}.cls-9{fill:#24d2c1;}.cls-10{fill:#d0def0;}.cls-11{fill:#231f20;}.cls-18{stroke:#fff;stroke-linejoin:round;stroke-width:3.31px;}.cls-18,.cls-19{stroke-linecap:round;}.cls-20{clip-path:url(#clippath);}.cls-12{fill:#d1d3d4;}.cls-13{fill:#57dfff;}.cls-14{fill:#dbdbdb;}.cls-15{fill:#d32a17;}.cls-19{stroke:#260228;stroke-miterlimit:10;stroke-width:3px;}.cls-16{fill:#e8403f;}.cls-17{fill:#5d9ede;}</style><clipPath id="clippath"><rect class="cls-3" width="282.8" height="167.24"/></clipPath></defs><g class="cls-20"><g id="_组_5613"><g id="_组_5612"><line id="_直线_184" class="cls-19" x1="127.93" y1="107.83" x2="166.87" y2="52.21"/><line id="_直线_185" class="cls-19" x1="143.35" y1="111.85" x2="207.15" y2="88.62"/><line id="_直线_186" class="cls-19" x1="143.16" y1="107.83" x2="104.22" y2="52.21"/><line id="_直线_187" class="cls-19" x1="127.74" y1="111.85" x2="63.93" y2="88.62"/></g><g id="_组_5611"><path id="_路径_11547" class="cls-17" d="m252.69,86.4c0,16.28-13.2,29.48-29.48,29.48s-29.48-13.2-29.48-29.48,13.2-29.48,29.48-29.48,29.48,13.2,29.48,29.48h0"/><path id="_路径_11561" class="cls-17" d="m120.41,29.45c0,16.28-13.2,29.48-29.48,29.48s-29.48-13.2-29.48-29.48S74.65-.04,90.93-.04h0c16.28,0,29.48,13.2,29.48,29.48"/><path id="_路径_11573" class="cls-17" d="m208.55,29.45c0,16.28-13.2,29.48-29.48,29.48s-29.48-13.2-29.48-29.48S162.78-.04,179.06-.04s29.48,13.2,29.48,29.48h0"/><path id="_路径_11590" class="cls-17" d="m71.8,86.4c0,16.28-13.2,29.48-29.48,29.48s-29.48-13.2-29.48-29.48,13.2-29.48,29.48-29.48h0c16.28,0,29.48,13.2,29.48,29.48"/></g><path id="_路径_11548" class="cls-10" d="m236.13,104.62h-24.08c-1.13,0-2.04-.91-2.04-2.04v-29.3c0-1.13.91-2.04,2.04-2.04h24.08c1.13,0,2.04.91,2.04,2.04v29.3c0,1.13-.91,2.04-2.04,2.04"/><path id="_路径_11549" class="cls-7" d="m235.38,80.43v21.39h-22.57v-27.79h17.04l5.53,6.39h0Z"/><path id="_路径_11550" class="cls-1" d="m235.38,80.43h-5.53v-6.39l5.53,6.39Z"/><path id="_路径_11551" class="cls-8" d="m224.1,65.99c-1.93,0-3.49,1.56-3.49,3.49v2.93h6.98v-2.93c0-1.93-1.56-3.49-3.49-3.49m0,4.31c-.61,0-1.1-.49-1.1-1.1s.49-1.1,1.1-1.1,1.1.49,1.1,1.1-.49,1.1-1.1,1.1h0"/><path id="_路径_11552" class="cls-8" d="m228.4,75.43h-8.61c-.93,0-1.69-.76-1.69-1.69h0v-.35c0-.93.76-1.69,1.69-1.69h8.61c.93,0,1.69.76,1.69,1.69v.35c0,.93-.76,1.69-1.69,1.69"/><path id="_路径_11553" class="cls-8" d="m233.35,82.12h-13.08c-.22,0-.41-.18-.41-.41s.18-.41.41-.41h13.09c.22,0,.41.18.41.41s-.18.41-.41.41h0"/><path id="_路径_11554" class="cls-8" d="m233.35,87.29h-13.08c-.22,0-.41-.18-.41-.41s.18-.41.41-.41h13.09c.22,0,.41.18.41.41s-.18.41-.41.41h0"/><path id="_路径_11555" class="cls-8" d="m233.35,92.47h-13.08c-.22,0-.41-.18-.41-.41s.18-.41.41-.41h13.09c.22,0,.41.18.41.41s-.18.41-.41.41h0"/><path id="_路径_11556" class="cls-8" d="m233.35,97.64h-13.08c-.22,0-.41-.18-.41-.41s.18-.41.41-.41h13.09c.22,0,.41.18.41.41s-.18.41-.41.41h0"/><path id="_路径_11557" class="cls-16" d="m218,80.17c-.65.68-1.73.7-2.41.04-.02-.02-.03-.03-.04-.04-.53.16-.88.65-.87,1.21.03.54.31,1.04.76,1.36.74.74,1.94.74,2.67,0h0c.44-.31.72-.81.76-1.36.02-.55-.34-1.04-.87-1.21"/><path id="_路径_11558" class="cls-16" d="m218,85.34c-.65.68-1.73.7-2.41.04-.02-.02-.03-.03-.04-.04-.53.16-.88.65-.87,1.21.03.54.31,1.04.76,1.36.74.74,1.94.74,2.67,0h0c.44-.31.72-.81.76-1.36.02-.55-.34-1.04-.87-1.21"/><path id="_路径_11559" class="cls-16" d="m218,90.51c-.65.68-1.73.7-2.41.04-.02-.02-.03-.03-.04-.04-.53.16-.88.65-.87,1.21.03.54.31,1.04.76,1.36.74.74,1.94.74,2.67,0h0c.44-.31.72-.81.76-1.36.02-.55-.34-1.04-.87-1.21"/><path id="_路径_11560" class="cls-16" d="m218,95.69c-.65.68-1.73.7-2.41.04-.02-.02-.03-.03-.04-.04-.53.16-.88.65-.87,1.21.03.54.31,1.04.76,1.36.74.74,1.94.74,2.67,0h0c.44-.31.72-.81.76-1.36.02-.55-.34-1.04-.87-1.21"/><path id="_路径_11562" class="cls-7" d="m82.04,12.74l-.81,1.08v5.44h.81s0-6.52,0-6.52Z"/><path id="_路径_11563" class="cls-11" d="m83.76,21.02c0,1.38-.95,2.5-2.12,2.5s-2.12-1.11-2.12-2.5.95-2.5,2.12-2.5,2.12,1.11,2.12,2.5"/><path id="_路径_11564" class="cls-7" d="m84.33,38.34h-5.39c-1.23,0-2.22-.99-2.22-2.22v-13.21c0-1.23.99-2.22,2.22-2.22h5.39c1.23,0,2.22.99,2.22,2.22h0v13.21c0,1.23-.99,2.22-2.22,2.22h0"/><path id="_路径_11565" class="cls-7" d="m86.01,22.92v13.21c0,.93-.76,1.68-1.68,1.68h-5.39c-.93,0-1.69-.76-1.69-1.68v-13.21c0-.93.76-1.69,1.68-1.69h5.39c.93,0,1.68.76,1.68,1.69"/><rect id="_矩形_2217" class="cls-7" x="77.26" y="32.68" width="8.76" height="1.42"/><path id="_路径_11566" class="cls-7" d="m86.01,22.92v9.77h-8.76v-9.77c0-.93.76-1.69,1.68-1.69h5.39c.93,0,1.68.76,1.68,1.69"/><rect id="_矩形_2218" class="cls-7" x="80.53" y="32.68" width="2.22" height="12.33"/><path id="_路径_11567" class="cls-7" d="m83.34,46.16h-3.4c-.64,0-1.15-.51-1.15-1.15s.51-1.15,1.15-1.15h3.4c.64,0,1.15.51,1.15,1.15s-.51,1.15-1.15,1.15"/><path id="_路径_11568" class="cls-11" d="m80.19,25.23c0,.24-.2.43-.43.43h-2.5v-.87h2.5c.24,0,.43.2.43.43"/><path id="_路径_11569" class="cls-11" d="m80.19,29.07c0,.24-.2.43-.43.43h-2.5v-.87h2.5c.24,0,.43.2.43.43"/><path id="_路径_11570" class="cls-11" d="m80.19,32.92c0,.24-.2.43-.43.43h-2.5v-.87h2.5c.15,0,.29.08.37.2.04.07.07.15.07.24"/><path id="_路径_11571" class="cls-16" d="m98.89,45.01h0c-3.46,0-6.26-2.81-6.26-6.26v-16.49c0-3.46,2.81-6.26,6.26-6.26s6.26,2.81,6.26,6.26v16.49c0,3.46-2.81,6.26-6.26,6.26"/><path id="_路径_11572" class="cls-7" d="m105.15,30.26v-8c0-3.46-2.81-6.26-6.26-6.26s-6.26,2.81-6.26,6.26v8s12.53,0,12.53,0Z"/><path id="_路径_11574" class="cls-7" d="m177.27,50.29l-.77-.93c1.54-1.13,2.45-2.91,2.46-4.82-.14-2.3-1.26-4.43-3.06-5.87-4.32-3.36-6.2-7.74-5.01-11.71,1.2-4.01,5.17-6.67,10.64-7.12,9.52-.78,9.17-6.89,9.14-7.16l1.21-.09c0,.08.44,7.57-10.25,8.45-4.95.41-8.52,2.74-9.58,6.26-1.04,3.47.68,7.37,4.59,10.41,2.1,1.66,3.37,4.14,3.52,6.81,0,2.28-1.09,4.41-2.9,5.77"/><path id="_路径_11575" class="cls-7" d="m167.62,45.65l-1.17.28c-.48-1.72-.15-3.57.9-5.02,1.68-2.34,5.08-3.66,7.54-3.89,5.25-.48,8.8-2.38,10.01-5.32,1.15-2.83.06-6.44-3.11-10.2-7.21-8.55-2.59-12.74-2.39-12.92l.8.91-.4-.46.4.45c-.16.14-3.89,3.64,2.51,11.23,3.46,4.11,4.63,8.17,3.3,11.43-1.39,3.39-5.3,5.53-11.02,6.07-1.83.17-5.11,1.21-6.66,3.39-.83,1.17-1.1,2.65-.7,4.03"/><rect id="_矩形_2219" class="cls-7" x="184.97" y="6.04" width=".6" height="12.34" transform="translate(111.86 182.76) rotate(-70.48)"/><rect id="_矩形_2220" class="cls-7" x="183.79" y="8.74" width=".6" height="12.14" transform="translate(107.42 182.83) rotate(-70.07)"/><rect id="_矩形_2221" class="cls-7" x="182.54" y="13.46" width=".6" height="8.09" transform="translate(100.83 181.86) rotate(-68.95)"/><rect id="_矩形_2222" class="cls-7" x="179.62" y="18.85" width=".6" height="12.34" transform="translate(96.23 186.24) rotate(-70.48)"/><rect id="_矩形_2223" class="cls-7" x="176.66" y="27.53" width=".6" height="11.74" transform="translate(86.35 189.04) rotate(-70.48)"/><rect id="_矩形_2224" class="cls-7" x="175.91" y="33.26" width=".6" height="6.04" transform="translate(83.11 190.23) rotate(-70.47)"/><path id="_路径_11576" class="cls-7" d="m183.7,23.85l-6.69-2.38.2-.57,6.69,2.38-.2.57Z"/><rect id="_矩形_2225" class="cls-7" x="178.8" y="20.42" width=".6" height="14.38" transform="translate(96.88 189.09) rotate(-71.78)"/><rect id="_矩形_2226" class="cls-7" x="177.81" y="23.22" width=".6" height="14.52" transform="translate(91.16 188.89) rotate(-70.95)"/><rect id="_矩形_2227" class="cls-7" x="172.53" y="40.41" width=".6" height="11.75" transform="translate(72.25 194.26) rotate(-70.79)"/><path id="_路径_11577" class="cls-7" d="m179.54,43.28l-10.15-3.34.19-.58,10.15,3.34-.19.58Z"/><rect id="_矩形_2228" class="cls-7" x="172.98" y="37.16" width=".6" height="13.04" transform="translate(74.66 192.7) rotate(-70.65)"/><path id="_路径_11592" class="cls-12" d="m168.07,157.62c0,2.77-2.27,5-5.03,4.98h-55.31c-2.77,0-5.02-2.22-5.03-4.98h0v-76.03c.02-2.77,2.27-4.99,5.03-4.98h55.31c2.77-.02,5.02,2.22,5.03,4.98v76.03h0Z"/><path id="_路径_11578" class="cls-5" d="m189.23,167.84c-3.62-10.25-4.2-21.33-1.7-31.91,1.75-7.17,4.97-16.77-1.76-27.71-7.71-12.55-14.12-27.86-18.57-28.04s0,20.59,1.26,23.99,6.61,56.65,6.61,56.65l14.16,7.03h0Z"/><path id="_路径_11579" class="cls-2" d="m166.14,93.97s11.86,5.23,11.07,17.39c-.48,7.3,7.77,16.09,2.89,26.48-4.71,10.04-12.79-36.4-12.79-36.4l-1.17-7.45h0Z"/><path id="_路径_11580" class="cls-5" d="m81.88,167.84c3.62-10.25,4.2-21.33,1.7-31.91-1.75-7.17-4.97-16.77,1.76-27.71,7.71-12.55,14.12-27.86,18.58-28.04s0,20.59-1.26,23.99-6.61,56.65-6.61,56.65l-14.16,7.03h0Z"/><path id="_路径_11581" class="cls-2" d="m101.85,93.59s-8.79,10.45-9,17.77-6.63,16.03-2.89,26.48c3.74,10.44,12.79-36.4,12.79-36.4l-.89-7.84h0Z"/><path id="_路径_11582" class="cls-12" d="m165.43,155.54c0,2.77-2.27,5-5.03,4.98h-55.31c-2.77,0-5.02-2.22-5.03-4.98h0v-76.03c0-2.77,2.27-4.99,5.03-4.98h55.31c2.77-.02,5.02,2.22,5.03,4.98v76.03h0Z"/><path id="_路径_11583" class="cls-7" d="m168.07,155.54c0,2.77-2.27,5-5.03,4.98h-55.31c-2.77,0-5.02-2.22-5.03-4.98h0v-76.03c.02-2.77,2.27-4.99,5.03-4.98h55.31c2.77-.02,5.02,2.22,5.03,4.98v76.03h0Z"/><path id="_路径_11584" class="cls-4" d="m162.36,144.49c0,2.67-2.35,4.85-5.25,4.85h-45.21c-2.89,0-5.25-2.17-5.25-4.85v-57.44c0-2.67,2.34-4.85,5.25-4.85h45.21c2.89,0,5.25,2.17,5.25,4.85v57.44Z"/><path id="_路径_11585" class="cls-9" d="m160.49,144.49c-.07,2.73-2.33,4.91-5.07,4.85h-43.7c-2.73.06-5.01-2.11-5.07-4.85v-57.44c.06-2.73,2.33-4.91,5.07-4.85h43.7c2.74-.06,5.01,2.11,5.07,4.85v57.44Z"/><path id="_路径_11586" class="cls-7" d="m146.69,78.46c0,.37-.3.66-.67.66h-23.8c-.37,0-.66-.3-.66-.66s.3-.66.66-.66h23.8c.37,0,.67.3.67.66h0"/><path id="_路径_11587" class="cls-7" d="m137.81,156.16h-3.58c-.85,0-1.53-.69-1.53-1.54s.69-1.53,1.53-1.53h3.58c.85,0,1.54.68,1.54,1.53s-.68,1.54-1.53,1.54h0"/><path id="_路径_11588" class="cls-5" d="m90.69,146.25s-2.6-15.8,1.85-22.96,1.94-20.73,7.66-24.31,7.07,2.22,6.4,6.43-1.86,15.87,1.27,25.07c5.56,16.3,3.14,26.37-3.51,34.45,0,0-6.65,10.65-3.5,17.36h-24.89l14.71-36.04h0Z"/><path id="_路径_11589" class="cls-5" d="m180.96,147.6s6.57-11.67-2.41-24.31c-4.88-6.88-1.94-20.73-7.66-24.31-5.71-3.58-7.07,2.22-6.4,6.43s1.86,15.87-1.27,25.07c-5.56,16.3-3.14,26.37,3.51,34.45,0,0,6.71,10.65,3.57,17.36h24.83l-14.16-34.69h0Z"/><path id="_路径_11591" class="cls-18" d="m23.1,92.78l2.87-7.84,4.21,8.79,5.36-6.88,2.78,4.8,4.49-16.09,3.63,21.66,2.87-10.82,1.91,6.96,13.2.38"/></g><circle class="cls-6" cx="259.5" cy="10.26" r="5"/><circle class="cls-14" cx="268.53" cy="47.56" r="6.94"/><path class="cls-14" d="m236.24,22.07c0,1.68-1.36,3.04-3.04,3.04s-3.04-1.36-3.04-3.04,1.36-3.04,3.04-3.04,3.04,1.36,3.04,3.04Z"/><circle class="cls-6" cx="41.5" cy="161.99" r="5"/><circle class="cls-14" cx="16.84" cy="132.59" r="6.94"/><path class="cls-14" d="m57.09,141.07c-.75-1.5-.13-3.32,1.37-4.07s3.32-.13,4.07,1.37.13,3.32-1.37,4.07-3.32.13-4.07-1.37Z"/><circle class="cls-15" cx="2.27" cy="46.37" r="2.75"/><path class="cls-6" d="m49.08,15.54c-.69-1.88-2.77-2.83-4.65-2.14s-2.83,2.77-2.14,4.65,2.77,2.83,4.65,2.14,2.83-2.77,2.14-4.65Z"/><circle class="cls-14" cx="12.45" cy="18.64" r="4.66"/><circle class="cls-13" cx="260.48" cy="144.09" r="5.06"/><circle class="cls-14" cx="230.39" cy="130.34" r="3.77" transform="translate(64.83 336.87) rotate(-80.78)"/><path class="cls-6" d="m223.04,154.1c0,1.61-1.31,2.92-2.92,2.92s-2.92-1.31-2.92-2.92,1.31-2.92,2.92-2.92,2.92,1.31,2.92,2.92Z"/></g></svg>