<?xml version="1.0" encoding="UTF-8"?><svg id="_圖層_1" xmlns="http://www.w3.org/2000/svg" xmlns:xlink="http://www.w3.org/1999/xlink" viewBox="0 0 622.72 248.43"><defs><style>.cls-1{fill:#24d1c0;}.cls-1,.cls-2,.cls-3,.cls-4,.cls-5,.cls-6,.cls-7,.cls-8,.cls-9,.cls-10,.cls-11,.cls-12,.cls-13,.cls-14,.cls-15,.cls-16,.cls-17,.cls-18,.cls-19,.cls-20,.cls-21,.cls-22,.cls-23,.cls-24,.cls-25,.cls-26,.cls-27,.cls-28,.cls-29,.cls-30,.cls-31,.cls-32,.cls-33,.cls-34,.cls-35{stroke-width:0px;}.cls-2{fill:#ffb88d;}.cls-36{clip-path:url(#clippath-11);}.cls-3{fill:#734e6a;}.cls-4{fill:#ffd7b8;}.cls-5{fill:#0093ff;}.cls-6{fill:#060e51;}.cls-37{clip-path:url(#clippath-2);}.cls-38{clip-path:url(#clippath-6);}.cls-7{fill:#ef821d;}.cls-8,.cls-39{fill:none;}.cls-40{clip-path:url(#clippath-7);}.cls-9{fill:#9dfdff;}.cls-10{fill:#9e8cae;}.cls-41{clip-path:url(#clippath-1);}.cls-42{clip-path:url(#clippath-4);}.cls-39{stroke:#00d4d6;stroke-miterlimit:10;}.cls-11{fill:#1d3f70;}.cls-12{fill:#4fdacc;}.cls-13{fill:#ffdfcd;}.cls-43{clip-path:url(#clippath-12);}.cls-14{fill:#24effa;}.cls-15{fill:#fff;}.cls-16{fill:#1999f1;}.cls-17{fill:#bdd1f7;}.cls-18{fill:#b9dff6;}.cls-19{fill:#585c60;}.cls-20{fill:#19122b;}.cls-21{fill:#00a0b5;}.cls-22{fill:#59fcff;}.cls-23{fill:#d0def0;}.cls-24{fill:#97fdff;}.cls-25{fill:#ff8a5e;}.cls-44{clip-path:url(#clippath-9);}.cls-45{clip-path:url(#clippath);}.cls-26{fill:#deeeff;}.cls-27{fill:#3e0417;}.cls-46{clip-path:url(#clippath-3);}.cls-47{clip-path:url(#clippath-8);}.cls-28{fill:#e9edfb;}.cls-29{fill:#f5c2a6;}.cls-30{fill:#757e85;}.cls-31{fill:#062393;}.cls-32{fill:#fcd1b8;}.cls-33{fill:#5c3900;}.cls-48{clip-path:url(#clippath-5);}.cls-49{clip-path:url(#clippath-10);}.cls-34{fill:#878e94;}.cls-35{fill:#4f69b2;}</style><clipPath id="clippath"><rect class="cls-8" x="92.73" y="90.81" width="81.84" height="66.95"/></clipPath><clipPath id="clippath-1"><rect class="cls-8" x="92.73" y="104.83" width="68.68" height="21.14"/></clipPath><clipPath id="clippath-2"><rect class="cls-8" x="105.9" y="104.83" width="68.68" height="21.14"/></clipPath><clipPath id="clippath-3"><rect class="cls-8" x="98.61" y="90.81" width="71.51" height="54.21"/></clipPath><clipPath id="clippath-4"><rect class="cls-8" x="98.61" y="90.81" width="71.51" height="48.84"/></clipPath><clipPath id="clippath-5"><rect class="cls-8" x="121.06" y="146.37" width="26.88" height="5.78"/></clipPath><clipPath id="clippath-6"><rect class="cls-8" x="114" y="102.12" width="13.92" height="13.04"/></clipPath><clipPath id="clippath-7"><rect class="cls-8" x="117.16" y="105.1" width="7.6" height="7.1"/></clipPath><clipPath id="clippath-8"><rect class="cls-8" x="141.27" y="102.12" width="13.92" height="13.04"/></clipPath><clipPath id="clippath-9"><rect class="cls-8" x="144.43" y="105.1" width="7.6" height="7.1"/></clipPath><clipPath id="clippath-10"><rect class="cls-8" x="125.6" y="173.29" width="26.83" height="18.36"/></clipPath><clipPath id="clippath-11"><rect class="cls-8" x="130.74" y="177.04" width="16.57" height="10.86"/></clipPath><clipPath id="clippath-12"><rect class="cls-8" x="590.89" y="32.47" width="31.83" height="50.5"/></clipPath></defs><g id="_组_4833"><path id="_路径_10516" class="cls-29" d="m493.13,194.3c-.33,8.2-7.24,14.58-15.43,14.25-8.2-.33-14.58-7.24-14.25-15.43,0-.1,0-.21.02-.31l4.09-64.81c.35-8.2,7.28-14.55,15.47-14.2,8.2.35,14.55,7.28,14.2,15.47,0,.07,0,.15-.01.22l-4.09,64.82Z"/><path id="_路径_10517" class="cls-29" d="m455.87,227.89l23.76-16.26c-.03-10.2-2.18-22.52-5.28-33.46-1.32.69-2.52,1.57-3.57,2.63l-30.2,36.29c1.23,5.84,11.24,10.78,15.3,10.79"/><path id="_路径_10518" class="cls-33" d="m496.7,131.24c-.73-7.83-.3-15.72-.66-23.58s-1.6-15.86-5.35-22.78c-3.37-6.2-8.74-11.5-10.22-18.4-.68-3.16-.14-6.04-.06-9.2.05-1.89-.8-2.73-2.79-2.46-4.62.62-6.9,7.82-7.68,11.64-.63,3.04-.61,6.18.06,9.22.52,2.09,1.19,4.14,2.01,6.13,2.07,2.84,3.52,6.09,4.25,9.53,1.16,6.45-1.2,12.56-1.7,18.95-1.08,13.85,9.96,23.2,15.59,34.65.2.35.07.8-.28,1-.02,0-.04.02-.05.03,1.23,2.63,2.16,5.4,2.76,8.25,1.03,5.27-.16,10.68-1.8,15.69-.86,2.69-1.89,5.32-3.08,7.88,4.73-3.51,8.22-8.42,9.98-14.05,3.21-10.44.01-21.62-1-32.5"/><path id="_路径_10519" class="cls-13" d="m524.35,124.62c-.14,6.78-5.72,12.17-12.5,12.08l-29.78,13.76c-3.62-.06-3.29-15.82-5.52-18.36.91-.95,1.44-2.2,1.49-3.51.09-3.14,1-5.27,2.55-8.15,1.6-2.55,3.36-5,5.28-7.33l3.67-1.4h1.71s17.69-.09,17.69-.09c.27.16.51.32.74.45v.04c12.16,7.46,6.2,2.32,14.67,12.5"/><path id="_路径_10520" class="cls-13" d="m509.85,106.23l-.14,4.09-.03,1.79-.18,6.03c-.64.97-1.38,1.87-2.22,2.67l-.04.04c-.34.33-.7.62-1.09.89-1.11.91-2.39,1.58-3.77,1.97-1.6.48-3.24.79-4.9.92-.67.03-1.35.02-2.02-.03-.7,0-1.4-.12-2.06-.35-1.27-.31-2.36-1.11-3.03-2.24-.13-.16-.24-.34-.35-.52-.44-.86-.76-1.77-.95-2.72l.46-7.06.17-2.82.31-4.8,1.83.19,18.01,1.94Z"/><path id="_路径_10521" class="cls-7" d="m469.82,188.61c.48,15.57-4.45,31.59-8.9,48.06,1.69.85,3.31,1.96,4.84,2.82,4.06,2.27,8.61,3.53,13.26,3.66,3.32.23,7.76.14,10.53,2.32,1.81,1.43,4.58-3.88,6.28-2.32,2.11,1.93,6.96-.48,9.69,0,14.41,2.54,26.51,9.17,33.69-3.66,4.53-8.09-2.11-6.7-3.99-15.55-3.08-14.5-2.73-24.32-2.25-37.79.4-11.36,2.49-20.62,4.53-31.77.89-4.86,10.37-12.1,9.4-17.13-1.93-9.96-25.12-18.08-33.41-22-1.39,12.06-7.1,28.24-21.3,29.16-22.06,1.45-10.86-22.35-3.84-32.22-12.47.22-16.8,10.7-21.31,23.36-1.79,5.03-6.66,11.94-7.43,16.33-2.75,15.63,9.68,19.24,10.21,36.73"/><path id="_路径_10522" class="cls-32" d="m547.1,208.56c-.38,8.21-7.34,14.55-15.54,14.17,0,0-.02,0-.03,0-8.19-.41-12.98-7.29-12.57-15.55l2.57-64.93c.36-8.2,7.29-14.55,15.49-14.19,8.2.36,14.55,7.29,14.19,15.49,0,.06,0,.13,0,.19l-4.1,64.81Z"/><path id="_路径_10523" class="cls-32" d="m511.45,99.17l.57,9.92-1.72,6.91c-.63.87-1.37,1.66-2.18,2.35l-.03.04c-.32.3-.68.56-1.06.79-1.12.82-2.38,1.41-3.73,1.76-2.21.64-4.51.9-6.8.78-.69,0-1.38-.12-2.04-.32-1.4-.33-2.6-1.22-3.32-2.47-.42-.76-.74-1.57-.94-2.41l.59-8.74.31-4.24,20.33-4.37Z"/><path id="_路径_10524" class="cls-33" d="m543.31,113.96c-.96-4.1-2.49-8.07-3.11-12.23-.69-4.62-.27-9.33-.5-13.99-.4-6.02-1.61-11.96-3.6-17.66-.81-5.16-2.53-10.13-5.1-14.68l-.06.61-.14-.38c-.49-1.31-1.21-2.52-2.12-3.58-.56-.68-3.06-2.55-3.17-3.28l.78,4.98c-3.58-1.53-7.67.6-10.6,3.16-8.26,7.31-12.59,18.09-11.7,29.09.31,3.42,1.33,7.11,4.15,9.07,1.91,1.32,4.65,1.94,5.39,4.14.72,2.12-.95,4.22-2.34,5.98-1.88,2.22-3.24,4.84-3.97,7.66-.72,2.85-.19,5.87,1.46,8.31,1.5,2.04,3.84,3.25,5.85,4.78.76.44,1.28,1.2,1.42,2.06-.06.63-.33,1.23-.77,1.69-2.96,3.66-10.4,7.17-9.61,13.08.32,2.43,2,3.84,3.3,5.72,1.5,2.18,1.98,7.25,1.71,8.86-.36,2.08-1.76,3.71-3.23,5.29-1.77,3.9-3.2,8.03-2.67,12.32.88,7.01,6.53,9.47,11.66,13.13,3.13,2.37,5.53,5.57,6.92,9.24,1.79-4.28,4.65-6.93,4.64-10.63-.01-4.25-3.94-7.32-5.73-11.18-2.28-4.88-.67-10.86,3.1-14.54,1.84-1.81.81-4.87,4.02-7.21,2.44-1.78,5.5-1.26,7.21-3.75,7.18-10.55,9.64-23.61,6.81-36.06"/><path id="_路径_10525" class="cls-33" d="m476.24,57.74c1.96-18.51,25.33-23.04,40.8-15.6,20.07,9.66,20.4,31.64,9.05,44.28-.27.3-.53.59-.79.89-3-1.18-7.56-.61-10.06-.19-5.34,1.03-10.39,3.19-14.82,6.33-2.18,1.49-4.9,3.4-6.34,5.81-10.92-8.96-19.44-26.23-17.83-41.52"/><path id="_路径_10526" class="cls-13" d="m477.77,67.47c-1.21,16.72-.94,33.88,8.05,40.94,2.89,2.28,6.94,2.58,11.08,1.89.82-.13,1.65-.31,2.47-.51,4.17-1.08,8.15-2.78,11.82-5.03,4.02-2.54,8.72-17.57,9.92-22.72,3.78-16.33-8.5-17.73-18.82-25.61-10.34-7.89-23.31-5.67-24.51,11.03"/><path id="_路径_10527" class="cls-33" d="m495.12,67.89c-5.93-.68-13.88-.8-17.87-6.04-.79-1.06-1.44-2.23-1.92-3.46,1.62-6.92,4.4-7.44,13.48-13.64,6.15-4.19,11.29-7.84,17.14-.37,1.01,1.3,3.24,1.81,2.06,2.25-5.71,14.27,16.27,36.27,4.28,42.83-1.77-6.24-11.46-20.91-17.17-21.57"/><path id="_路径_10528" class="cls-33" d="m490.67,59.9c-.92,1.49-.34,3.51.83,4.8,1.27,1.2,2.77,2.14,4.4,2.77,4.24,2.03,12.61,6.71,15.28,10.58,3.25,4.72,3.73,16.58,3.57,22.27-.35,12.49-4.91,31.09,5.85,42.44,1.15,1.22,2.94,2.85,6.51-.27,6.71-5.87,10.2-14.73,11.4-23.56s.33-17.81-.35-26.7c-.67-8.76-1-17.4-13.37-26.92-9.79-7.48-21.8-11.45-34.12-11.28v5.85Z"/><path id="_路径_10529" class="cls-13" d="m518.37,94.06c-3.26,3.04-6.21,4.3-8.42,2.75s-2.15-4.73.45-8.39c2.56-3.68,7.51-4.72,9.75-3.16,2.19,1.55,1.93,5.32-1.78,8.8"/><path id="_路径_10530" class="cls-29" d="m516.68,92.54c-1.7,1.59-3.24,2.25-4.4,1.43s-1.12-2.47.24-4.38c1.33-1.92,3.92-2.46,5.09-1.65,1.14.81,1,2.78-.93,4.6"/><path id="_路径_10533" class="cls-29" d="m428.57,232.78c.68-5.52,6.74-11.58,12.67-16.2,3.29-2.58,6.79-4.88,10.45-6.88,2.24.74,6.56,3.79,9.38,7.64h-3.02v8.76c-7.32,6.01-14.77,19.35-20.94,19.54-5.16.15-10-1.06-8.54-12.85"/><path id="_路径_10283" class="cls-35" d="m163.06,186.06v55.62c0,1.82-.34,3.61-1.03,5.3h-49.9c-.69-1.68-1.04-3.48-1.03-5.3v-55.62c0-7.05,5.14-12.77,11.47-12.77h29.02c6.34,0,11.47,5.72,11.47,12.77"/><path id="_路径_10284" class="cls-26" d="m211.28,240.57c-2.75,0-5.29-1.46-6.66-3.84l-38.45-66.41c-2.13-3.68-.87-8.38,2.8-10.51s8.38-.87,10.51,2.8l38.45,66.42c2.13,3.68.87,8.38-2.8,10.51-1.17.68-2.49,1.03-3.84,1.03"/><path id="_路径_10285" class="cls-27" d="m184.69,166.46c-.07,15.51-23.66,15.51-23.72,0,.07-15.51,23.66-15.51,23.72,0"/><path id="_路径_10296" class="cls-11" d="m163.06,183.92v33.86h-51.96v-33.86c0-5.87,5.14-10.64,11.47-10.64h29.02c6.34,0,11.47,4.76,11.47,10.64"/><path id="_路径_10297" class="cls-26" d="m179.52,170.15v27.21c0,6.84-5.54,12.38-12.38,12.38h-60.12c-6.84,0-12.38-5.54-12.38-12.38h0v-27.21c0-6.84,5.54-12.38,12.38-12.38h60.13c6.84,0,12.38,5.54,12.38,12.38h0"/><path id="_路径_10298" class="cls-27" d="m108.75,163.01c-.07,15.51-23.66,15.51-23.72,0,.07-15.51,23.66-15.51,23.72,0"/><path id="_路径_10299" class="cls-26" d="m58.43,237.11c-5.72.13-9.7-6.61-6.65-11.54l38.45-66.41c5.19-8.64,18.24-1.15,13.31,7.71l-38.45,66.41c-1.38,2.38-3.92,3.84-6.66,3.84"/><path id="_路径_10300" class="cls-27" d="m70.3,229.42c-.07,15.51-23.65,15.51-23.72,0,.07-15.51,23.65-15.51,23.72,0"/><path id="_路径_10301" class="cls-26" d="m128.7,221.62l-11.9.02,2.5-2.74c3.42-3.64-2.37-8.92-5.68-5.18l-7.24,7.94-47.63.08c-4.25,0-7.69,3.44-7.69,7.69s3.44,7.69,7.69,7.69l69.98-.02c10.17-.19,10.15-15.33-.03-15.48"/><path id="_路径_10302" class="cls-34" d="m267.99,232.78h-86.49l17.22-63.4h85.96l-16.7,63.4Z"/><rect id="_矩形_1928" class="cls-30" x="181.51" y="232.46" width="86.49" height="4.3"/><path id="_路径_10303" class="cls-19" d="m200.03,169.38h-3.1l-16.87,63.08h-41.04v4.31h43.92v-3.85l17.08-63.54Z"/><path id="_路径_10327" class="cls-34" d="m377.38,232.64h86.86l-17.29-63.67h-86.33l16.77,63.67Z"/><rect id="_矩形_1929" class="cls-30" x="377.38" y="232.32" width="86.86" height="4.32"/><path id="_路径_10332" class="cls-23" d="m598.95,242.49c0,3.28-2.16,5.94-4.83,5.94H4.83c-1.34-.03-2.6-.67-3.42-1.74-.94-1.2-1.44-2.68-1.41-4.2,0-3.28,2.16-5.94,4.83-5.94h589.29c1.34.03,2.6.67,3.42,1.74.94,1.2,1.44,2.68,1.41,4.2"/><g id="_组_4901"><path id="_路径_10349" class="cls-12" d="m58.44,27.91v29.18c0,4.85,3.93,8.78,8.78,8.78h69.99c4.85,0,8.78-3.93,8.78-8.77h0v-29.18c0-4.85-3.93-8.77-8.78-8.78h-69.99c-4.85,0-8.77,3.93-8.78,8.78"/><path id="_路径_10350" class="cls-1" d="m145.97,57.09c0,4.85-3.93,8.77-8.78,8.77h-3.58v12.52l-16.91-12.52h-49.5c-4.85,0-8.78-3.93-8.78-8.77h0v-29.18c33.04,33.04,87.54,29.18,87.54,29.18"/><path id="_路径_10351" class="cls-15" d="m90.49,33.4h46.62c1.34,0,2.43-1.09,2.43-2.43s-1.09-2.43-2.43-2.43h-46.62c-3.16.01-3.19,4.85,0,4.86"/><path id="_路径_10352" class="cls-15" d="m118.3,44.93h18.8c3.17-.01,3.18-4.85,0-4.86h-18.8c-3.17.01-3.18,4.85,0,4.86"/><path id="_路径_10353" class="cls-15" d="m137.21,44.93h-39.7c-1.34,0-2.43-1.09-2.43-2.43s1.09-2.43,2.43-2.43h39.7c3.17.01,3.19,4.85,0,4.86"/><path id="_路径_10354" class="cls-15" d="m98.66,56.46h38.44c3.17-.01,3.19-4.85,0-4.86h-38.44c-3.17.01-3.19,4.85,0,4.86"/><path id="_路径_10355" class="cls-12" d="m71.3,19.14c59,0,72.71,9.84,74.67,11.57.73-5.82-2.41-11.53-8.78-11.57h-65.9"/></g><path id="_路径_10356" class="cls-12" d="m622.72,8.78v29.18c0,4.85-3.93,8.77-8.77,8.78h-69.99c-4.85,0-8.77-3.93-8.77-8.78V8.78C535.18,3.93,539.11,0,543.95,0c0,0,0,0,0,0h69.99c4.85,0,8.77,3.93,8.77,8.77"/><path id="_路径_10357" class="cls-1" d="m535.18,37.96c0,4.85,3.93,8.77,8.77,8.78h3.58v12.52l16.91-12.52h49.5c4.85,0,8.77-3.93,8.77-8.78V8.78c-33.04,33.04-87.54,29.18-87.54,29.18"/><path id="_路径_10358" class="cls-15" d="m590.66,14.27h-46.62c-1.34,0-2.43-1.09-2.43-2.43s1.09-2.43,2.43-2.43h46.62c3.16.01,3.19,4.85,0,4.86"/><path id="_路径_10359" class="cls-15" d="m562.85,25.8h-18.8c-3.17-.01-3.18-4.85,0-4.86h18.8c3.17.01,3.18,4.85,0,4.86"/><path id="_路径_10360" class="cls-15" d="m613.85,25.8h-39.7c-1.34,0-2.43-1.09-2.43-2.43s1.09-2.43,2.43-2.43h39.7c3.17.01,3.19,4.85,0,4.86"/><path id="_路径_10361" class="cls-15" d="m582.49,37.32h-38.44c-3.17-.01-3.19-4.85,0-4.86h38.44c3.17.01,3.19,4.85,0,4.86"/><path id="_路径_10362" class="cls-12" d="m609.85,0C550.85,0,537.14,9.84,535.18,11.57,534.45,5.76,537.59.05,543.95,0h65.9"/><g id="_组_4894"><g class="cls-45"><g id="_组_4893"><path id="_路径_10491" class="cls-21" d="m139.17,133.47v17.29c0,2.65-2.15,4.8-4.8,4.8-2.65,0-4.8-2.15-4.8-4.8h0v-17.29c0-2.65,2.15-4.8,4.8-4.8,2.65,0,4.8,2.15,4.8,4.8h0"/><g id="_组_4868"><g id="_组_4867"><g class="cls-41"><g id="_组_4866"><path id="_路径_10492" class="cls-14" d="m150.84,125.96h-47.54c-5.84,0-10.57-4.73-10.57-10.57s4.73-10.57,10.57-10.57h47.54c5.84,0,10.57,4.73,10.57,10.57s-4.73,10.57-10.57,10.57"/></g></g></g></g><path id="_路径_10493" class="cls-9" d="m93.19,115.49h0c0-6.49,6.55-11.8,14.56-11.8h-.45c-8.01,0-14.56,5.31-14.56,11.8s6.55,11.8,14.56,11.8h.45c-8.01,0-14.56-5.31-14.56-11.8"/><g id="_组_4871"><g id="_组_4870"><g class="cls-37"><g id="_组_4869"><path id="_路径_10494" class="cls-14" d="m164.01,125.96h-47.54c-5.84,0-10.57-4.73-10.57-10.57s4.73-10.57,10.57-10.57h47.54c5.84,0,10.57,4.73,10.57,10.57s-4.73,10.57-10.57,10.57"/></g></g></g></g><path id="_路径_10495" class="cls-24" d="m160.02,103.75h-.44c8.01,0,14.56,5.28,14.56,11.74s-6.55,11.74-14.56,11.74h.44c8.01,0,14.56-5.28,14.56-11.74s-6.55-11.74-14.56-11.74"/><g id="_组_4874"><g id="_组_4873"><g class="cls-46"><g id="_组_4872"><path id="_路径_10496" class="cls-10" d="m152.64,145.01h-36.55c-9.64-.03-17.45-7.84-17.48-17.48v-19.24c.03-9.64,7.84-17.45,17.48-17.48h36.55c9.64.03,17.45,7.84,17.48,17.48v19.24c-.03,9.64-7.84,17.45-17.48,17.48"/></g></g></g></g><g id="_组_4877"><g id="_组_4876"><g class="cls-42"><g id="_组_4875"><path id="_路径_10497" class="cls-28" d="m153.53,139.65h-38.32c-9.15-.03-16.57-7.44-16.59-16.59v-15.65c.03-9.15,7.44-16.57,16.59-16.59h38.32c9.15.03,16.57,7.44,16.59,16.59v15.65c-.03,9.15-7.44,16.57-16.59,16.59"/></g></g></g></g><path id="_路径_10498" class="cls-15" d="m150.04,93.89h-31.34c-7.23,0-13.12,7.13-13.12,15.89s5.88,17.46,13.12,17.46h31.34c7.23,0,13.12-8.7,13.12-17.46s-5.88-15.89-13.12-15.89"/><path id="_路径_10499" class="cls-18" d="m150.04,93.89h-31.34c-7.23,0-13.12,6.99-13.12,15.58s5.88,17.15,13.12,17.15h31.34c7.23,0,13.12-8.56,13.12-17.15s-5.88-15.58-13.12-15.58"/><path id="_路径_10500" class="cls-20" d="m147.57,124.65h-27.84c-6.89-.02-12.47-5.6-12.49-12.49v-3.81c.02-6.89,5.6-12.47,12.49-12.49h29.29c6.89.02,12.47,5.6,12.49,12.49v2.37c-.02,7.69-6.25,13.91-13.93,13.93"/><path id="_路径_10501" class="cls-27" d="m142.24,157.77h-15.48c-3.15,0-5.7-2.55-5.7-5.7s2.55-5.7,5.7-5.7h15.48c3.15,0,5.7,2.55,5.7,5.7s-2.55,5.7-5.7,5.7h0"/><g id="_组_4880"><g id="_组_4879"><g class="cls-48"><g id="_组_4878"><path id="_路径_10502" class="cls-3" d="m126.76,146.54h15.48c3.11,0,5.65,2.51,5.7,5.62v-.08c0-3.14-2.56-5.69-5.7-5.7h-15.48c-3.14,0-5.69,2.56-5.7,5.7v.08c.05-3.11,2.59-5.61,5.7-5.62"/></g></g></g></g><path id="_路径_10503" class="cls-15" d="m151.06,130.88h-33.75c-7.33-.02-13.27-5.96-13.29-13.29v-10.56c.02-7.33,5.96-13.27,13.29-13.29h33.75c7.33.02,13.27,5.96,13.29,13.29v10.56c-.02,7.33-5.96,13.27-13.29,13.29"/><path id="_路径_10504" class="cls-20" d="m150.28,130.03h-32.19c-6.99-.02-12.66-5.69-12.68-12.68v-10.07c.02-7,5.68-12.66,12.68-12.68h32.19c7,.02,12.66,5.69,12.68,12.68v10.07c-.02,6.99-5.69,12.66-12.68,12.68"/><g id="_组_4883"><g id="_组_4882"><g class="cls-38"><g id="_组_4881"><path id="_路径_10505" class="cls-15" d="m127.53,108.65c-.12,3.5-3.06,6.25-6.57,6.13-3.5.12-6.44-2.63-6.57-6.13.12-3.5,3.06-6.25,6.57-6.13,3.5-.12,6.44,2.63,6.57,6.13"/><ellipse id="_椭圆_136" class="cls-39" cx="120.96" cy="108.65" rx="6.57" ry="6.13"/></g></g></g></g><g id="_组_4886"><g id="_组_4885"><g class="cls-40"><g id="_组_4884"><path id="_路径_10506" class="cls-16" d="m124.76,108.65c-.15,2.1-1.98,3.68-4.08,3.52-1.89-.14-3.39-1.64-3.52-3.52.15-2.1,1.98-3.68,4.08-3.52,1.89.14,3.39,1.64,3.52,3.52"/></g></g></g></g><path id="_路径_10507" class="cls-15" d="m119.58,106.41c.06.81-.56,1.51-1.37,1.57-.81.06-1.51-.56-1.57-1.37-.06-.81.56-1.51,1.37-1.57.03,0,.07,0,.1,0,.78-.03,1.44.59,1.47,1.37"/><path id="_路径_10508" class="cls-15" d="m121.92,106.64c.02.36-.25.67-.61.69,0,0,0,0-.01,0-.36.04-.69-.22-.74-.58-.02-.36.25-.67.61-.69,0,0,0,0,.01,0,.36-.04.69.22.74.58"/><g id="_组_4889"><g id="_组_4888"><g class="cls-47"><g id="_组_4887"><path id="_路径_10509" class="cls-15" d="m154.79,108.65c-.25,3.63-3.4,6.36-7.02,6.11-3.27-.23-5.88-2.83-6.11-6.11.25-3.63,3.4-6.36,7.02-6.11,3.27.23,5.88,2.83,6.11,6.11"/><ellipse id="_椭圆_137" class="cls-39" cx="148.23" cy="108.65" rx="6.57" ry="6.13"/></g></g></g></g><g id="_组_4892"><g id="_组_4891"><g class="cls-44"><g id="_组_4890"><path id="_路径_10510" class="cls-16" d="m152.03,108.65c-.15,2.1-1.98,3.68-4.08,3.52-1.89-.14-3.39-1.64-3.52-3.52.15-2.1,1.98-3.68,4.08-3.52,1.89.14,3.39,1.64,3.52,3.52"/></g></g></g></g><path id="_路径_10511" class="cls-15" d="m146.84,106.41c.06.81-.56,1.51-1.37,1.57s-1.51-.56-1.57-1.37c-.06-.81.56-1.51,1.37-1.57.03,0,.07,0,.1,0,.78-.03,1.44.59,1.47,1.37"/><path id="_路径_10512" class="cls-15" d="m149.19,106.64c.02.36-.25.67-.61.69,0,0,0,0-.01,0-.36.04-.69-.22-.74-.58-.02-.36.25-.67.61-.69,0,0,0,0,.01,0,.36-.04.69.22.74.58"/></g></g></g><g id="_组_4899"><g class="cls-49"><g id="_组_4898"><path id="_路径_10513" class="cls-27" d="m145.98,173.29h-13.93c-3.56,0-6.45,2.89-6.45,6.45v5.45c0,3.56,2.89,6.45,6.45,6.45h13.93c3.56,0,6.45-2.89,6.45-6.45v-5.45c0-3.56-2.89-6.45-6.45-6.45"/><path id="_路径_10514" class="cls-17" d="m143.76,176.23h-9.47c-2.42,0-4.39,1.97-4.39,4.39v3.71c0,2.42,1.97,4.39,4.39,4.39h9.47c2.42,0,4.39-1.97,4.39-4.39v-3.71c0-2.42-1.97-4.39-4.39-4.39"/><g id="_组_4897"><g id="_组_4896"><g class="cls-36"><g id="_组_4895"><path id="_路径_10515" class="cls-22" d="m143.71,187.9h-9.38c-1.99,0-3.6-1.61-3.6-3.6v-3.67c0-1.99,1.61-3.6,3.6-3.6h9.38c1.99,0,3.6,1.61,3.6,3.6v3.67c0,1.99-1.61,3.6-3.6,3.6"/></g></g></g></g></g></g></g><g id="_组_4900"><path id="_路径_10531" class="cls-32" d="m487.18,239.3c2.64-5.78-3.09-13.04-5.33-15.72-4.17-.24-8.36-.15-12.51.3-7.49.77-15.83,2.7-19.33,7.02-7.48,9.22-4.02,12.82.43,15.43,6.73,3.92,28.46-6.74,36.74-7.02"/><path id="_路径_10532" class="cls-32" d="m549.26,216.45c-1.8-7.85-9.62-12.76-17.47-10.96-.03,0-.06.01-.09.02l-56.22,18.31,6.68,16.99,56.18-6.68c7.88-1.89,12.75-9.79,10.91-17.68"/></g><g id="_组_4903"><g class="cls-43"><g id="_组_4902"><path id="_路径_10534" class="cls-31" d="m599.22,81.49h-8.33v-12.01c0-.99.81-1.8,1.8-1.8h6.53v13.81Z"/><path id="_路径_10535" class="cls-5" d="m592.67,67.69c-.99,0-1.79.8-1.79,1.78,0,0,0,0,0,0v.16c0-.99.8-1.79,1.78-1.79h6.55v-.16h-6.55Z"/><path id="_路径_10536" class="cls-6" d="m596.4,78.31c0,1.06-.86,1.91-1.91,1.91s-1.91-.86-1.91-1.91c0-1.06.85-1.91,1.91-1.91,1.06,0,1.91.86,1.91,1.91h0"/><path id="_路径_10537" class="cls-2" d="m615.99,65.48h-10.27l.99-1.63c.18-.3.3-.63.36-.98l.63-4.04c.21-1.47-.82-2.83-2.29-3.04-1.44-.2-2.78.78-3.03,2.21l-.54,3.51-3.09,5.08c-.34.57-.46,1.24-.34,1.89v10.67c0,2.1,1.71,3.81,3.81,3.81h9.58c1.98,0,3.59-1.61,3.59-3.59h0v-8.14h.6c1.59.03,2.9-1.23,2.93-2.82s-1.23-2.9-2.82-2.93c-.04,0-.07,0-.11,0"/><path id="_路径_10538" class="cls-25" d="m615.39,71.23h-2.33l2.33.96v-.96Z"/><path id="_路径_10539" class="cls-4" d="m598.75,66.88l3.09-5.09.54-3.51c.22-1.47,1.59-2.48,3.06-2.25,1.24.19,2.18,1.21,2.28,2.45.05-1.48-1.12-2.72-2.6-2.77-1.36-.04-2.53.93-2.74,2.28l-.54,3.51-3.09,5.09c-.28.46-.41,1-.37,1.54.02-.44.14-.87.37-1.25"/><path id="_路径_10540" class="cls-4" d="m615.99,65.48h-10.27l-.17.28h10.44c1.53,0,2.79,1.21,2.86,2.74,0-.05.01-.09.01-.14,0-1.59-1.29-2.88-2.88-2.88h0"/><path id="_路径_10541" class="cls-31" d="m599.4,49.91h-5.64v-8.01c0-.74.6-1.33,1.33-1.33h4.3v9.34Z"/><path id="_路径_10542" class="cls-5" d="m594.97,40.57c-.67,0-1.21.54-1.21,1.21v.11c0-.67.54-1.21,1.21-1.21h4.43v-.11h-4.43Z"/><path id="_路径_10543" class="cls-6" d="m597.49,47.76c0,.71-.58,1.29-1.29,1.3-.71,0-1.29-.58-1.3-1.29s.58-1.29,1.29-1.3h0c.71,0,1.29.58,1.29,1.29"/><path id="_路径_10544" class="cls-2" d="m610.75,39.07h-6.95l.67-1.1c.12-.2.21-.43.24-.67l.42-2.73c.15-.99-.53-1.92-1.52-2.08-.99-.15-1.92.53-2.08,1.52l-.37,2.38-2.09,3.44c-.23.38-.31.84-.23,1.28v7.22c0,1.42,1.15,2.58,2.58,2.58h6.49c1.34,0,2.43-1.09,2.43-2.43v-5.51h.4c1.08,0,1.95-.87,1.95-1.95s-.87-1.95-1.95-1.95"/><path id="_路径_10545" class="cls-25" d="m610.35,42.96h-1.58l1.58.65v-.65Z"/><path id="_路径_10546" class="cls-4" d="m599.08,40.02l2.09-3.44.37-2.38c.15-.99,1.08-1.67,2.07-1.52.84.13,1.47.82,1.54,1.66.03-1-.76-1.84-1.76-1.87-.92-.03-1.71.63-1.85,1.54l-.37,2.38-2.09,3.44c-.19.31-.28.68-.25,1.04.01-.3.1-.59.25-.85"/><path id="_路径_10547" class="cls-4" d="m610.75,39.07h-6.95l-.12.19h7.07c1.04,0,1.89.82,1.94,1.85,0-.03.01-.06.01-.1,0-1.08-.87-1.95-1.95-1.95"/><path id="_路径_10548" class="cls-31" d="m613.84,58.91h-3.76v-5.4c0-.46.37-.84.84-.84h2.93v6.24Z"/><path id="_路径_10549" class="cls-5" d="m610.89,52.68c-.45,0-.81.36-.81.81v.08c0-.45.36-.81.81-.81h2.96v-.08h-2.96Z"/><path id="_路径_10550" class="cls-6" d="m612.57,57.48c0,.48-.39.86-.86.86-.48,0-.86-.39-.86-.86,0-.48.39-.86.86-.86.48,0,.86.39.86.86"/><path id="_路径_10551" class="cls-2" d="m621.42,51.67h-4.64l.45-.74c.08-.14.14-.29.16-.44l.28-1.82c.12-.66-.31-1.29-.97-1.42-.66-.12-1.29.31-1.42.97,0,.03,0,.05-.01.08l-.25,1.59-1.4,2.3c-.16.26-.21.56-.15.85v4.82c0,.95.77,1.72,1.72,1.72h4.33c.9,0,1.62-.73,1.62-1.62h0v-3.68h.27c.72,0,1.3-.58,1.3-1.3s-.58-1.3-1.3-1.3h0"/><path id="_路径_10552" class="cls-25" d="m621.15,54.28h-1.06l1.05.43v-.43Z"/><path id="_路径_10553" class="cls-4" d="m613.63,52.31l1.4-2.3.25-1.59c.1-.66.72-1.12,1.38-1.02.56.08.99.55,1.03,1.11.02-.67-.51-1.23-1.18-1.25-.61-.02-1.14.42-1.23,1.02l-.25,1.59-1.4,2.3c-.13.21-.18.45-.17.69,0-.2.07-.39.17-.57"/><path id="_路径_10554" class="cls-4" d="m621.41,51.68h-4.63l-.08.13h4.71c.69,0,1.27.54,1.3,1.23,0-.02,0-.04,0-.06,0-.72-.58-1.3-1.3-1.3"/></g></g></g></g></svg>