<?xml version="1.0" encoding="UTF-8"?><svg id="_圖層_1" xmlns="http://www.w3.org/2000/svg" xmlns:xlink="http://www.w3.org/1999/xlink" viewBox="0 0 521.81 542.33"><defs><style>.cls-1{fill:#24d1c0;}.cls-1,.cls-2,.cls-3,.cls-4,.cls-5,.cls-6,.cls-7,.cls-8,.cls-9,.cls-10,.cls-11,.cls-12,.cls-13,.cls-14,.cls-15,.cls-16,.cls-17,.cls-18,.cls-19,.cls-20,.cls-21,.cls-22,.cls-23,.cls-24,.cls-25,.cls-26,.cls-27,.cls-28,.cls-29{stroke-width:0px;}.cls-30{opacity:.13;}.cls-31{clip-path:url(#clippath-20);}.cls-32{clip-path:url(#clippath-11);}.cls-33{clip-path:url(#clippath-16);}.cls-2{fill:#734e6a;}.cls-3{fill:#8c8c8c;}.cls-34{clip-path:url(#clippath-2);}.cls-35{clip-path:url(#clippath-13);}.cls-4{fill:#060904;}.cls-36{stroke:#0b0f1a;}.cls-36,.cls-6,.cls-37,.cls-38{fill:none;}.cls-36,.cls-37{stroke-miterlimit:10;}.cls-39{clip-path:url(#clippath-15);}.cls-40{clip-path:url(#clippath-6);}.cls-5{fill:#ffeddb;}.cls-41{clip-path:url(#clippath-7);}.cls-42{clip-path:url(#clippath-21);}.cls-7{fill:#00d7d6;}.cls-8{fill:#9dfdff;}.cls-9{fill:#9e8cae;}.cls-10{fill:#181714;}.cls-43{clip-path:url(#clippath-1);}.cls-44{clip-path:url(#clippath-4);}.cls-37{stroke:#00d4d6;}.cls-11{fill:#bfccf3;}.cls-45{opacity:.3;}.cls-46{clip-path:url(#clippath-12);}.cls-12{fill:#24effa;}.cls-13{fill:#fff;}.cls-14{fill:#1999f1;}.cls-38{stroke:#deeeff;stroke-linecap:round;stroke-linejoin:round;stroke-width:17px;}.cls-47{opacity:.6;}.cls-15{fill:#00d3f3;}.cls-16{fill:#bdd1f7;}.cls-17{fill:#b9dff6;}.cls-48{clip-path:url(#clippath-22);}.cls-18{fill:#19122b;}.cls-19{fill:#00a0b5;}.cls-20{fill:#59fcff;}.cls-21{fill:#97fdff;}.cls-49{clip-path:url(#clippath-9);}.cls-50{clip-path:url(#clippath);}.cls-22{fill:#deeeff;}.cls-23{fill:#3e0417;}.cls-51{clip-path:url(#clippath-19);}.cls-52{clip-path:url(#clippath-3);}.cls-24{fill:#206c75;}.cls-25{fill:#181418;}.cls-53{clip-path:url(#clippath-8);}.cls-26{fill:#e9edfb;}.cls-54{clip-path:url(#clippath-18);}.cls-55{clip-path:url(#clippath-14);}.cls-56{clip-path:url(#clippath-17);}.cls-57{clip-path:url(#clippath-5);}.cls-27{fill:#0b0f1a;}.cls-58{clip-path:url(#clippath-10);}.cls-59{opacity:.25;}.cls-28{fill:#182336;}.cls-29{fill:#16445f;}</style><clipPath id="clippath"><rect class="cls-6" width="521.81" height="542.33"/></clipPath><clipPath id="clippath-1"><rect class="cls-6" x="18.46" y="1.17" width="506.04" height="481.99" transform="translate(-90.14 281.87) rotate(-48)"/></clipPath><clipPath id="clippath-2"><rect class="cls-6" x="18.46" y="1.17" width="506.04" height="481.99" transform="translate(-90.14 281.87) rotate(-48)"/></clipPath><clipPath id="clippath-3"><rect class="cls-6" x="18.46" y="1.17" width="506.04" height="481.99" transform="translate(-90.14 281.87) rotate(-48)"/></clipPath><clipPath id="clippath-4"><path class="cls-6" d="m280.32,73.8c101.11-148.86,252.36,40.72,238,180.93-14.37,140.21-139.67,242.21-279.88,227.85C98.23,468.23-23.19,339.55,10.58,202.71c44.64-180.92,190.56-12.31,269.74-128.9Z"/></clipPath><clipPath id="clippath-5"><rect class="cls-6" x="108.73" y="-14.95" width="325.5" height="551.02"/></clipPath><clipPath id="clippath-6"><rect class="cls-6" x="108.73" y="-14.34" width="325.5" height="333.77"/></clipPath><clipPath id="clippath-7"><rect class="cls-6" x="157.5" y="85.27" width="228.82" height="22.58"/></clipPath><clipPath id="clippath-8"><rect class="cls-6" x="304.67" y="92.46" width="4.58" height="4.56"/></clipPath><clipPath id="clippath-9"><rect class="cls-6" x="309.66" y="94.7" width="2.28" height="2.28"/></clipPath><clipPath id="clippath-10"><rect class="cls-6" x="308.48" y="97.04" width="1.5" height="1.5"/></clipPath><clipPath id="clippath-11"><rect class="cls-6" x="108.73" y="-14.95" width="325.5" height="163.3"/></clipPath><clipPath id="clippath-12"><rect class="cls-6" x="190.56" y="63.51" width="133.06" height="40.95"/></clipPath><clipPath id="clippath-13"><rect class="cls-6" x="216.06" y="63.51" width="133.06" height="40.95"/></clipPath><clipPath id="clippath-14"><rect class="cls-6" x="201.95" y="36.37" width="138.54" height="105.02"/></clipPath><clipPath id="clippath-15"><rect class="cls-6" x="201.95" y="36.37" width="138.54" height="94.62"/></clipPath><clipPath id="clippath-16"><rect class="cls-6" x="245.44" y="144" width="52.09" height="11.21"/></clipPath><clipPath id="clippath-17"><path class="cls-6" d="m125.35,147.81c0,80.7,65.43,146.12,146.12,146.12s146.12-65.43,146.12-146.12S352.17,1.69,271.48,1.69,125.35,67.1,125.35,147.81h0Z"/></clipPath><clipPath id="clippath-18"><rect class="cls-6" x="231.77" y="45.46" width="26.96" height="25.27"/></clipPath><clipPath id="clippath-19"><rect class="cls-6" x="237.88" y="51.21" width="14.73" height="13.74"/></clipPath><clipPath id="clippath-20"><rect class="cls-6" x="284.59" y="45.46" width="26.96" height="25.27"/></clipPath><clipPath id="clippath-21"><rect class="cls-6" x="290.71" y="51.21" width="14.73" height="13.74"/></clipPath><clipPath id="clippath-22"><rect class="cls-6" x="255.62" y="178.18" width="32.1" height="21.05"/></clipPath></defs><g class="cls-50"><g id="_组_5137"><g id="_组_4832"><g class="cls-43"><g id="_组_4831"><g id="_组_4830"><g class="cls-34"><g id="_组_4829"><g id="_组_4828"><g id="_组_4827"><g class="cls-52"><g id="_组_4826"><g id="_组_4825"><g class="cls-44"><g id="_组_4824"><rect id="_矩形_1953" class="cls-5" x="-143.44" y="-188.61" width="822.75" height="820.56" transform="translate(20.2 465.71) rotate(-84.17)"/></g></g></g></g></g></g></g></g></g></g></g></g></g><g id="_组_4765"><g class="cls-57"><g id="_组_4764"><path id="_路径_10363" class="cls-4" d="m398.78,213.75h0c-2.95-.01-5.33-2.41-5.33-5.36l.09-39.83c0-2.95,2.41-5.35,5.36-5.33,2.95,0,5.35,2.41,5.33,5.36l-.09,39.83c-.01,2.95-2.41,5.33-5.36,5.33"/><path id="_路径_10364" class="cls-28" d="m363.49,536.08h-185.02c-19.08-.1-34.5-15.59-34.51-34.67l.85-395.91c.09-19.08,15.58-34.51,34.67-34.53l185.03.4c19.08.1,34.5,15.59,34.51,34.67l-.85,395.53c-.1,19.08-15.59,34.5-34.67,34.51"/><path id="_路径_10365" class="cls-27" d="m361.49,523.59h-180.94c-13.19-.06-23.86-10.77-23.87-23.98l.83-390.46c.06-13.19,10.78-23.87,23.98-23.89l180.96.38c13.21.06,23.87,10.78,23.89,23.99l-.83,390.07c-.06,13.21-10.78,23.87-23.99,23.89"/><path id="_路径_10366" class="cls-36" d="m361.49,523.59h-180.94c-13.19-.06-23.86-10.77-23.87-23.98l.83-390.46c.06-13.19,10.78-23.87,23.98-23.89l180.96.38c13.21.06,23.87,10.78,23.89,23.99l-.83,390.07c-.06,13.21-10.78,23.87-23.99,23.89h-.01Z"/><path id="_路径_10367" class="cls-1" d="m361.49,523.59h-180.94c-13.19-.06-23.86-10.77-23.87-23.98l.83-390.46c.06-13.19,10.78-23.87,23.98-23.89l180.96.38c13.21.06,23.87,10.78,23.89,23.99l-.83,390.07c-.06,13.21-10.78,23.87-23.99,23.89"/></g></g></g><g id="_组_4782" class="cls-47"><g id="_组_4781"><g class="cls-40"><g id="_组_4780"><path id="_路径_10382" class="cls-13" d="m434.23,138.5c0-84.41-72.86-152.84-162.75-152.84S108.73,54.09,108.73,138.5c0,75.28,57.96,137.85,134.26,150.51l29.53,19.83,27.46-19.83c76.3-12.65,134.26-75.22,134.26-150.51"/></g></g></g></g><g id="_组_5133"><path id="_路径_10398" class="cls-13" d="m309.32,319.43h50.84c8.59-.01,15.55,6.94,15.56,15.53,0,4.12-1.62,8.06-4.53,10.99h0v11.97l-7.72-7.72c-1.09.24-2.22.37-3.33.37h-50.84c-8.6,0-15.56-6.97-15.56-15.56s6.97-15.56,15.56-15.56"/><path id="_路径_10399" class="cls-3" d="m311.27,328.97h-8.65c-.94,0-1.69-.76-1.69-1.69s.76-1.69,1.69-1.69h8.65c.94,0,1.69.76,1.69,1.69s-.76,1.69-1.69,1.69"/><path id="_路径_10400" class="cls-3" d="m326.21,328.97h-8.65c-.94,0-1.69-.76-1.69-1.69s.76-1.69,1.69-1.69h8.65c.94,0,1.69.76,1.69,1.69s-.76,1.69-1.69,1.69"/><path id="_路径_10401" class="cls-3" d="m326.21,344.05h-8.65c-.94,0-1.69-.76-1.69-1.69s.76-1.69,1.69-1.69h8.65c.94,0,1.69.76,1.69,1.69s-.76,1.69-1.69,1.69"/><path id="_路径_10402" class="cls-3" d="m362.9,336.51h-41.96c-.94,0-1.69-.76-1.69-1.69s.76-1.69,1.69-1.69h41.96c.94,0,1.69.76,1.69,1.69s-.76,1.69-1.69,1.69"/><path id="_路径_10403" class="cls-3" d="m312.02,336.51h-9.67c-.94,0-1.69-.76-1.69-1.69s.76-1.69,1.69-1.69h9.67c.94,0,1.69.76,1.69,1.69s-.76,1.69-1.69,1.69"/><path id="_路径_10404" class="cls-3" d="m351.36,328.97h-18.87c-.94,0-1.69-.76-1.69-1.69s.76-1.69,1.69-1.69h18.87c.94,0,1.69.76,1.69,1.69s-.76,1.69-1.69,1.69"/><path id="_路径_10405" class="cls-3" d="m362.9,328.97h-2.64c-.94,0-1.69-.76-1.69-1.69s.76-1.69,1.69-1.69h2.64c.94,0,1.69.76,1.69,1.69s-.76,1.69-1.69,1.69"/><path id="_路径_10406" class="cls-3" d="m310.13,344.05h-2.64c-.94,0-1.69-.76-1.69-1.69s.76-1.69,1.69-1.69h2.64c.94,0,1.69.76,1.69,1.69s-.76,1.69-1.69,1.69"/></g><g id="_组_5134"><path id="_路径_10409" class="cls-13" d="m317.36,460.33h-125.99c-8.59-.01-15.55,6.94-15.58,15.51,0,4.12,1.62,8.06,4.53,10.99h0v11.97l7.72-7.72c1.09.24,2.22.37,3.33.37h125.99c8.6,0,15.56-6.97,15.56-15.56s-6.97-15.56-15.56-15.56"/><path id="_路径_10410" class="cls-3" d="m270.67,470.68h-85.76c-.94,0-1.69-.76-1.69-1.69s.76-1.69,1.69-1.69h85.76c.94,0,1.69.76,1.69,1.69s-.76,1.69-1.69,1.69"/><path id="_路径_10411" class="cls-3" d="m285.6,470.68h-8.65c-.94,0-1.69-.76-1.69-1.69s.76-1.69,1.69-1.69h8.65c.94,0,1.69.76,1.69,1.69s-.76,1.69-1.69,1.69"/><path id="_路径_10412" class="cls-3" d="m304.95,485.74h-28.01c-.94,0-1.69-.76-1.69-1.69s.76-1.69,1.69-1.69h28.01c.94,0,1.69.76,1.69,1.69s-.76,1.69-1.69,1.69h0"/><path id="_路径_10413" class="cls-3" d="m322.29,478.2h-41.95c-.94,0-1.69-.76-1.69-1.69s.76-1.69,1.69-1.69h41.95c.94,0,1.69.76,1.69,1.69s-.76,1.69-1.69,1.69"/><path id="_路径_10414" class="cls-3" d="m271.41,478.2h-86.76c-.94,0-1.69-.76-1.69-1.69s.76-1.69,1.69-1.69h86.77c.94,0,1.69.76,1.69,1.69s-.76,1.69-1.69,1.69"/><path id="_路径_10415" class="cls-3" d="m310.76,470.68h-18.87c-.94,0-1.69-.76-1.69-1.69s.76-1.69,1.69-1.69h18.87c.94,0,1.69.76,1.69,1.69s-.76,1.69-1.69,1.69h0"/><path id="_路径_10416" class="cls-3" d="m322.29,470.68h-2.64c-.94,0-1.69-.76-1.69-1.69s.76-1.69,1.69-1.69h2.64c.94,0,1.69.76,1.69,1.69s-.76,1.69-1.69,1.69h0"/><path id="_路径_10417" class="cls-3" d="m269.53,485.74h-8.64c-.94,0-1.69-.76-1.69-1.69s.76-1.69,1.69-1.69h8.64c.94,0,1.69.76,1.69,1.69s-.76,1.69-1.69,1.69"/><path id="_路径_10418" class="cls-3" d="m322.29,485.74h-8.64c-.94,0-1.69-.76-1.69-1.69s.76-1.69,1.69-1.69h8.64c.94,0,1.69.76,1.69,1.69s-.76,1.69-1.69,1.69"/></g><g id="_组_5136"><path id="_路径_10372" class="cls-28" d="m205.37,85.33v9.1c0,7.44,6,13.46,13.42,13.5l106.2.23c7.44,0,13.46-6.01,13.5-13.45v-9.1l-133.13-.28h.01Z"/><g id="_组_4770" class="cls-59"><g id="_组_4769"><g class="cls-41"><g id="_组_4768"><path id="_路径_10373" class="cls-13" d="m365,85.66l-186.11-.4c-11.78,0-21.35,9.53-21.4,21.31v.77c.05-11.78,9.62-21.31,21.4-21.31l186.11.4c11.78.05,21.31,9.62,21.31,21.4v-.77c0-11.78-9.53-21.33-21.31-21.4"/></g></g></g></g><path id="_路径_10374" class="cls-29" d="m280.13,100.79l-55.55-.12c-2.28-.17-3.99-2.15-3.82-4.44.15-2.05,1.78-3.68,3.83-3.82l55.55.12c2.28.17,3.99,2.15,3.82,4.44-.15,2.05-1.78,3.68-3.83,3.82"/><path id="_路径_10375" class="cls-25" d="m280.13,100.23l-55.55-.12c-2.12-.12-3.74-1.94-3.62-4.06.12-1.96,1.68-3.51,3.64-3.63l55.55.12c2.12-.12,3.94,1.5,4.05,3.63.12,2.12-1.5,3.94-3.63,4.05h-.45"/><path id="_路径_10376" class="cls-24" d="m315.34,96.84c0,3.33-2.72,6.01-6.04,6.01s-6.01-2.72-6.01-6.04,2.71-6.01,6.04-6.01,6.03,2.71,6.01,6.04h0"/><path id="_路径_10377" class="cls-28" d="m314.04,96.84c0,2.62-2.13,4.74-4.74,4.74s-4.74-2.13-4.74-4.74,2.13-4.74,4.74-4.74h.01c2.62,0,4.73,2.13,4.73,4.74"/><path id="_路径_10378" class="cls-10" d="m313.21,96.84c0,2.15-1.76,3.9-3.91,3.9s-3.9-1.76-3.9-3.91,1.76-3.9,3.91-3.9h0c2.15,0,3.9,1.76,3.9,3.91"/><g id="_组_4773" class="cls-30"><g id="_组_4772"><g class="cls-53"><g id="_组_4771"><path id="_路径_10379" class="cls-13" d="m309.23,94.75c0,1.26-1.03,2.28-2.29,2.28s-2.28-1.03-2.28-2.29,1.03-2.28,2.29-2.28,2.28,1.03,2.28,2.29h0"/></g></g></g></g><g id="_组_4776" class="cls-30"><g id="_组_4775"><g class="cls-49"><g id="_组_4774"><path id="_路径_10380" class="cls-13" d="m311.94,95.84c0,.63-.51,1.14-1.14,1.14s-1.14-.51-1.14-1.14.51-1.14,1.14-1.14,1.14.51,1.14,1.14h0"/></g></g></g></g><g id="_组_4779" class="cls-30"><g id="_组_4778"><g class="cls-58"><g id="_组_4777"><path id="_路径_10381" class="cls-13" d="m309.98,97.79c0,.41-.33.74-.76.74s-.74-.33-.74-.74.33-.74.76-.74h0c.41,0,.74.33.74.74h0"/></g></g></g></g><g id="_组_4785" class="cls-45"><g id="_组_4784"><g class="cls-32"><g id="_组_4783"><path id="_路径_10383" class="cls-13" d="m271.48-13.84c89.67,0,162.44,72.53,162.74,162.2v-.55c-.56-89.89-73.89-162.29-163.76-161.72-89.08.56-161.16,72.64-161.72,161.72v.55c.31-89.67,73.08-162.2,162.75-162.2"/></g></g></g></g><path id="_路径_10421" class="cls-19" d="m280.53,119.01v33.49c-.01,5.13-4.17,9.28-9.3,9.3h0c-5.13-.01-9.28-4.17-9.3-9.3v-33.49c.01-5.13,4.17-9.28,9.3-9.3h0c5.13.01,9.28,4.17,9.3,9.3"/><g id="_组_4788"><g id="_组_4787"><g class="cls-46"><g id="_组_4786"><path id="_路径_10422" class="cls-12" d="m303.14,104.46h-92.11c-11.31,0-20.48-9.17-20.48-20.48s9.17-20.48,20.48-20.48h92.11c11.31,0,20.48,9.17,20.48,20.48s-9.17,20.48-20.48,20.48"/></g></g></g></g><path id="_路径_10423" class="cls-8" d="m191.45,84.16h0c0-12.56,12.69-22.86,28.21-22.86h-.87c-15.51,0-28.21,10.28-28.21,22.86s12.69,22.86,28.21,22.86h.87c-15.51,0-28.21-10.28-28.21-22.86"/><g id="_组_4791"><g id="_组_4790"><g class="cls-35"><g id="_组_4789"><path id="_路径_10424" class="cls-12" d="m328.66,104.46h-92.11c-11.31,0-20.48-9.17-20.48-20.48s9.17-20.48,20.48-20.48h92.11c11.31,0,20.48,9.17,20.48,20.48s-9.17,20.48-20.48,20.48"/></g></g></g></g><path id="_路径_10425" class="cls-21" d="m320.91,61.43h-.85c15.51,0,28.21,10.23,28.21,22.74s-12.69,22.73-28.21,22.73h.85c15.51,0,28.21-10.23,28.21-22.73s-12.69-22.74-28.21-22.74"/><g id="_组_4794"><g id="_组_4793"><g class="cls-55"><g id="_组_4792"><path id="_路径_10426" class="cls-9" d="m306.62,141.38h-70.8c-18.68-.05-33.81-15.19-33.87-33.87v-37.27c.05-18.68,15.19-33.81,33.87-33.87h70.8c18.68.05,33.81,15.19,33.87,33.87v37.27c-.05,18.68-15.19,33.81-33.87,33.87"/></g></g></g></g><g id="_组_4797"><g id="_组_4796"><g class="cls-39"><g id="_组_4795"><path id="_路径_10427" class="cls-26" d="m308.35,130.99h-74.25c-17.73-.05-32.1-14.41-32.16-32.16v-30.31c.05-17.73,14.41-32.1,32.16-32.16h74.25c17.73.05,32.1,14.41,32.16,32.16v30.31c-.05,17.73-14.41,32.09-32.16,32.16"/></g></g></g></g><path id="_路径_10429" class="cls-17" d="m303.61,42.33h-64.28c-14.83,0-26.9,13.54-26.9,30.18s12.06,33.22,26.9,33.22h64.28c14.83,0,26.9-16.58,26.9-33.22s-12.06-30.18-26.9-30.18"/><path id="_路径_10430" class="cls-18" d="m296.8,101.92h-53.95c-13.35-.04-24.17-10.85-24.21-24.21v-7.38c.04-13.35,10.85-24.17,24.21-24.21h56.75c13.35.04,24.17,10.85,24.21,24.21v4.59c-.04,14.89-12.1,26.95-27,27"/><path id="_路径_10431" class="cls-23" d="m286.48,166.09h-30c-6.1,0-11.05-4.94-11.05-11.04s4.94-11.05,11.04-11.05h30.01c6.1,0,11.05,4.94,11.05,11.04s-4.94,11.05-11.04,11.05h-.01"/><g id="_组_4800"><g id="_组_4799"><g class="cls-33"><g id="_组_4798"><path id="_路径_10432" class="cls-2" d="m256.48,144.31h30c6.03.03,10.94,4.86,11.04,10.89v-.15c-.01-6.09-4.95-11.03-11.04-11.04h-30c-6.09.01-11.03,4.95-11.04,11.04v.15c.1-6.03,5.01-10.86,11.04-10.89"/></g></g></g></g><g id="_组_4804"><g class="cls-56"><g id="_组_4803"><path id="_路径_10433" class="cls-38" d="m200.26,179.68s-35.51,41.04-33.42,115.47"/><path id="_路径_10434" class="cls-38" d="m344.44,179.68s35.51,41.03,33.42,115.47"/><path id="_路径_10435" class="cls-23" d="m316.79,225.68h-91.02c-18.5,0-33.5-15-33.5-33.5s15-33.5,33.5-33.5h91.02c18.5,0,33.5,15,33.5,33.5s-15,33.5-33.5,33.5"/><path id="_路径_10436" class="cls-7" d="m339.61,216.64c-4.17,3.9-9.26,6.67-14.8,8.05-2.09-.94-3.9-2.4-5.23-4.24l-1.6-15.41,7.21-29.51s11.65,10.33,14.44,41.12"/><path id="_路径_10437" class="cls-7" d="m202.96,216.64c4.17,3.9,9.26,6.67,14.8,8.05,2.09-.94,3.9-2.4,5.23-4.24l1.6-15.41-7.21-29.51s-11.65,10.33-14.44,41.12"/><path id="_路径_10438" class="cls-22" d="m210.43,302.48v-103.31c.08-24.27,19.72-43.91,43.99-43.99h34.12c24.27.08,43.91,19.72,43.99,43.99v103.31c-.08,24.26-19.72,43.91-43.99,43.99h-34.12c-24.27-.08-43.91-19.72-43.99-43.99"/><path id="_路径_10439" class="cls-11" d="m332.53,262.8c-50.87,52.66-101.14,21.09-122.09,3.19v36.48c0,6.58,1.47,13.08,4.35,19l56.27,6.88,50.44-3.92,7.99-5.91c2.03-5.1,3.06-10.55,3.06-16.04v-39.68h-.01Z"/><path id="_路径_10440" class="cls-13" d="m288.54,155.18h-34.12c-24.27.08-43.91,19.72-43.99,43.99v3.49c.08-24.27,19.72-43.91,43.99-43.99h34.12c24.27.08,43.91,19.72,43.99,43.99v-3.49c-.08-24.27-19.72-43.91-43.99-43.99"/></g></g></g><path id="_路径_10442" class="cls-13" d="m303.57,102.87h-65.39c-14.17,0-25.76-11.86-25.76-26.36v-20.94c0-14.5,11.59-26.36,25.76-26.36h65.39c14.17,0,25.76,11.86,25.76,26.36v20.94c0,14.5-11.59,26.36-25.76,26.36"/><path id="_路径_10443" class="cls-18" d="m302.05,99.51h-62.37c-13.55-.04-24.53-11.01-24.57-24.57v-19.51c.04-13.55,11.01-24.53,24.57-24.57h62.37c13.55.04,24.53,11.01,24.57,24.57v19.51c-.04,13.55-11.01,24.53-24.57,24.57"/><g class="cls-54"><g id="_组_4805"><path id="_路径_10444" class="cls-13" d="m257.98,58.1c0,6.56-5.69,11.87-12.72,11.87s-12.72-5.32-12.72-11.87,5.69-11.87,12.72-11.87,12.72,5.32,12.72,11.87"/><ellipse id="_椭圆_132" class="cls-37" cx="245.24" cy="58.1" rx="12.72" ry="11.87"/></g></g><g class="cls-51"><g id="_组_4808"><path id="_路径_10445" class="cls-14" d="m252.62,58.1c.28,4.06-2.79,7.59-6.86,7.87-4.06.28-7.59-2.79-7.87-6.86-.28-4.06,2.79-7.59,6.86-7.87.17,0,.33-.01.51-.01,3.94-.13,7.22,2.95,7.36,6.87"/></g></g><path id="_路径_10446" class="cls-13" d="m242.58,53.75c.1,1.58-1.08,2.94-2.65,3.04-1.58.1-2.94-1.08-3.04-2.65s1.08-2.94,2.65-3.04h.19c1.51-.05,2.79,1.14,2.85,2.65"/><path id="_路径_10447" class="cls-13" d="m247.12,54.2c.04.69-.49,1.29-1.18,1.35h-.01c-.71.08-1.35-.42-1.44-1.13-.04-.69.49-1.29,1.18-1.35h.03c.71-.08,1.35.42,1.44,1.13"/><g class="cls-31"><g id="_组_4811"><path id="_路径_10448" class="cls-13" d="m310.8,58.1c0,6.56-5.69,11.87-12.72,11.87s-12.72-5.32-12.72-11.87,5.69-11.87,12.72-11.87,12.72,5.32,12.72,11.87"/><ellipse id="_椭圆_133" class="cls-37" cx="298.08" cy="58.1" rx="12.72" ry="11.87"/></g></g><g class="cls-42"><g id="_组_4814"><path id="_路径_10449" class="cls-14" d="m305.44,58.1c.28,4.06-2.79,7.59-6.86,7.87s-7.59-2.79-7.87-6.86c-.28-4.06,2.79-7.59,6.86-7.87.17,0,.33-.01.51-.01,3.94-.13,7.22,2.95,7.36,6.87"/></g></g><path id="_路径_10450" class="cls-13" d="m295.4,53.75c.1,1.58-1.08,2.94-2.65,3.04s-2.94-1.08-3.04-2.65,1.08-2.94,2.65-3.04h.19c1.51-.05,2.79,1.14,2.85,2.65"/><path id="_路径_10451" class="cls-13" d="m299.94,54.2c.04.69-.49,1.29-1.18,1.35h-.01c-.71.08-1.35-.42-1.44-1.13-.04-.69.49-1.29,1.18-1.35h.03c.71-.08,1.35.42,1.44,1.13"/><path id="_路径_10452" class="cls-23" d="m285.16,170.91h-26.98c-6.9,0-12.5,5.6-12.5,12.5v10.56c0,6.9,5.6,12.5,12.5,12.5h26.98c6.9,0,12.5-5.6,12.5-12.5v-10.56c0-6.9-5.6-12.5-12.5-12.5"/><path id="_路径_10453" class="cls-16" d="m280.84,176.6h-18.35c-4.69,0-8.5,3.81-8.5,8.5v7.18c0,4.69,3.81,8.5,8.5,8.5h18.35c4.69,0,8.5-3.81,8.5-8.5v-7.18c0-4.69-3.81-8.5-8.5-8.5"/><g class="cls-48"><g id="_组_4817"><path id="_路径_10454" class="cls-20" d="m280.75,199.22h-18.17c-3.85,0-6.96-3.13-6.96-6.96v-7.12c0-3.85,3.13-6.96,6.96-6.96h18.17c3.85,0,6.96,3.13,6.96,6.96v7.12c0,3.85-3.13,6.96-6.96,6.96"/></g></g><path id="_路径_10455" class="cls-15" d="m280.9,177.82h-18.53c-4.09.19-7.26,3.63-7.1,7.72v.45c-.15-4.09,3.03-7.54,7.1-7.72h18.53c4.09.19,7.26,3.64,7.1,7.72v-.45c.15-4.09-3.03-7.54-7.1-7.72"/></g><g id="_组_5135"><path id="_路径_10384" class="cls-13" d="m288.19,389.59h-99.97c-8.59,0-15.55,6.94-15.56,15.53,0,4.12,1.62,8.06,4.53,10.97h0v11.97l7.72-7.72c1.09.24,2.22.37,3.33.37h99.97c8.6,0,15.56-6.97,15.56-15.56s-6.97-15.56-15.56-15.56"/><path id="_路径_10385" class="cls-3" d="m222.27,398.37h-36.66c-.94,0-1.69-.76-1.69-1.69s.76-1.69,1.69-1.69h36.66c.94,0,1.69.76,1.69,1.69s-.76,1.69-1.69,1.69"/><path id="_路径_10386" class="cls-3" d="m236.64,398.37h-8.65c-.94,0-1.69-.76-1.69-1.69s.76-1.69,1.69-1.69h8.65c.94,0,1.69.76,1.69,1.69s-.76,1.69-1.69,1.69h0"/><path id="_路径_10388" class="cls-3" d="m194.28,406.2h-8.65c-.94,0-1.69-.76-1.69-1.69s.76-1.69,1.69-1.69h8.65c.94,0,1.69.76,1.69,1.69s-.76,1.69-1.69,1.69"/><path id="_路径_10389" class="cls-3" d="m251.58,398.37h-8.65c-.94,0-1.69-.76-1.69-1.69s.76-1.69,1.69-1.69h8.65c.94,0,1.69.76,1.69,1.69s-.76,1.69-1.69,1.69"/><path id="_路径_10391" class="cls-3" d="m288.26,406.2h-41.96c-.94,0-1.69-.76-1.69-1.69s.76-1.69,1.69-1.69h41.95c.94,0,1.69.76,1.69,1.69s-.76,1.69-1.69,1.69"/><path id="_路径_10392" class="cls-3" d="m237.38,406.2h-31.74c-.94,0-1.69-.76-1.69-1.69s.76-1.69,1.69-1.69h31.74c.94,0,1.69.76,1.69,1.69s-.76,1.69-1.69,1.69"/><path id="_路径_10393" class="cls-3" d="m276.16,398.37h-18.87c-.94,0-1.69-.76-1.69-1.69s.76-1.69,1.69-1.69h18.87c.94,0,1.69.76,1.69,1.69s-.76,1.69-1.69,1.69h0"/><path id="_路径_10394" class="cls-3" d="m288.26,399.95h-2.64c-.94,0-1.69-.76-1.69-1.69s.76-1.69,1.69-1.69h2.64c.94,0,1.69.76,1.69,1.69s-.76,1.69-1.69,1.69"/><path id="_路径_10387" class="cls-3" d="m223.96,414.04h-38.35c-.94,0-1.69-.76-1.69-1.69s.76-1.69,1.69-1.69h38.35c.94,0,1.69.76,1.69,1.69s-.76,1.69-1.69,1.69h0"/><path id="_路径_10390" class="cls-3" d="m251.58,414.04h-8.65c-.94,0-1.69-.76-1.69-1.69s.76-1.69,1.69-1.69h8.65c.94,0,1.69.76,1.69,1.69s-.76,1.69-1.69,1.69h0"/><path id="_路径_10395" class="cls-3" d="m235.5,414.04h-2.64c-.94,0-1.69-.76-1.69-1.69s.76-1.69,1.69-1.69h2.64c.94,0,1.69.76,1.69,1.69s-.76,1.69-1.69,1.69h0"/></g></g></g></svg>