<?xml version="1.0" encoding="UTF-8"?><svg id="_圖層_1" xmlns="http://www.w3.org/2000/svg" xmlns:xlink="http://www.w3.org/1999/xlink" viewBox="0 0 201.61 198.82"><defs><style>.cls-1{clip-path:url(#clippath-20);}.cls-2{clip-path:url(#clippath-11);}.cls-3{clip-path:url(#clippath-16);}.cls-4{fill:#b3d6e0;}.cls-4,.cls-5,.cls-6,.cls-7,.cls-8,.cls-9,.cls-10,.cls-11,.cls-12,.cls-13,.cls-14,.cls-15,.cls-16,.cls-17,.cls-18,.cls-19,.cls-20,.cls-21,.cls-22,.cls-23,.cls-24,.cls-25,.cls-26,.cls-27,.cls-28,.cls-29,.cls-30,.cls-31,.cls-32,.cls-33,.cls-34{stroke-width:0px;}.cls-5{fill:#354658;}.cls-6{fill:#e6e7e8;}.cls-35{clip-path:url(#clippath-2);}.cls-36{clip-path:url(#clippath-13);}.cls-7{fill:#f7f7f7;}.cls-9{fill:#e0e0e0;}.cls-37{clip-path:url(#clippath-15);}.cls-38{clip-path:url(#clippath-6);}.cls-10{fill:#c2c2c2;}.cls-11{fill:#8a9193;}.cls-12{fill:#f5f5f5;}.cls-13{fill:none;}.cls-14{fill:#f1f5fa;}.cls-15{fill:#e31b25;}.cls-39{clip-path:url(#clippath-7);}.cls-40{clip-path:url(#clippath-21);}.cls-16{fill:#e9e9e9;}.cls-17{fill:#1c4b5f;}.cls-41{clip-path:url(#clippath-1);}.cls-42{clip-path:url(#clippath-4);}.cls-18{fill:#09c9ad;}.cls-43{opacity:.3;}.cls-44{clip-path:url(#clippath-12);}.cls-19{fill:#fff;}.cls-45{clip-path:url(#clippath-22);}.cls-20{fill:#24d2c1;}.cls-46{clip-path:url(#clippath-9);}.cls-47{clip-path:url(#clippath);}.cls-21{fill:#16a89f;}.cls-22{fill:#d1d3d4;}.cls-23{fill:#a6afb2;}.cls-24{fill:#535359;}.cls-48{clip-path:url(#clippath-19);}.cls-49{clip-path:url(#clippath-3);}.cls-50{opacity:.1;}.cls-25{fill:#1c9ae9;}.cls-26{fill:url(#_未命名漸層_3);}.cls-51{clip-path:url(#clippath-8);}.cls-52{opacity:.2;}.cls-53{clip-path:url(#clippath-18);}.cls-54{clip-path:url(#clippath-14);}.cls-55{clip-path:url(#clippath-17);}.cls-27{fill:#1b1823;}.cls-56{clip-path:url(#clippath-5);}.cls-28{fill:url(#_未命名漸層_2);}.cls-29{fill:#141e30;}.cls-30{fill:#d9e1ee;}.cls-31{fill:#fff7f2;}.cls-32{fill:#efeeed;}.cls-33{fill:#313747;}.cls-34{fill:#9ba3a5;}.cls-57{clip-path:url(#clippath-10);}.cls-58{clip-path:url(#clippath-23);}</style><clipPath id="clippath"><rect class="cls-13" x="0" width="201.61" height="198.82"/></clipPath><clipPath id="clippath-1"><rect class="cls-13" x="0" width="201.61" height="198.82"/></clipPath><clipPath id="clippath-2"><rect class="cls-13" x="60.94" y="83.22" width="35.21" height="20.33"/></clipPath><clipPath id="clippath-3"><rect class="cls-13" x="74.16" y="106.18" width="10.7" height="6.73"/></clipPath><clipPath id="clippath-4"><rect class="cls-13" x="82.57" y="108.72" width="6.68" height="3.85"/></clipPath><clipPath id="clippath-5"><rect class="cls-13" x="99.1" y="125.87" width="53.38" height="30.84"/></clipPath><clipPath id="clippath-6"><rect class="cls-13" x="135.18" width="40.2" height="128.19"/></clipPath><clipPath id="clippath-7"><rect class="cls-13" x="129.83" y="3.16" width="40.2" height="128.19"/></clipPath><clipPath id="clippath-8"><rect class="cls-13" x="123.75" y="6.08" width="40.2" height="128.19"/></clipPath><clipPath id="clippath-9"><path class="cls-13" d="m105.81,5.79l-6.08,3.53c.76-.44,1.81-.38,2.97.28l6.08-3.53c-.56-.35-1.2-.55-1.87-.57-.39,0-.77.09-1.11.28h0Z"/></clipPath><clipPath id="clippath-10"><rect class="cls-13" x="0" width="201.61" height="198.82"/></clipPath><clipPath id="clippath-11"><path class="cls-13" d="m147.05,35.21c2.46,1.61,4.01,4.29,4.17,7.22l6.08-3.53c-.16-2.93-1.71-5.61-4.17-7.22l-6.08,3.53Z"/></clipPath><linearGradient id="_未命名漸層_3" x1="-165.17" y1="480.56" x2="-165.11" y2="480.56" gradientTransform="translate(2980.94 9130.66) scale(18.05 -18.92)" gradientUnits="userSpaceOnUse"><stop offset="0" stop-color="#e4e9f2"/><stop offset="0" stop-color="#e4e9f2"/><stop offset="1" stop-color="#b4c2da"/></linearGradient><clipPath id="clippath-12"><rect class="cls-13" x="0" width="201.61" height="198.82"/></clipPath><clipPath id="clippath-13"><rect class="cls-13" x="98.22" y="115.12" width="52.73" height="36.77"/></clipPath><clipPath id="clippath-14"><rect class="cls-13" x="98.5" y="9.04" width="52.72" height="37.82"/></clipPath><clipPath id="clippath-15"><path class="cls-13" d="m143.88,29.8c-.75.44-.93,1.07-.54,1.62.14.19.33.35.54.46,1.13.57,2.47.57,3.6,0,.39-.18.66-.55.73-.98,0-.48-.28-.92-.73-1.11-1.13-.57-2.47-.57-3.6,0Z"/></clipPath><linearGradient id="_未命名漸層_2" x1="-169.52" y1="438.11" x2="-169.42" y2="438.11" gradientTransform="translate(1582.17 2405.46) scale(9.33 -5.42)" gradientUnits="userSpaceOnUse"><stop offset="0" stop-color="#aabad6"/><stop offset="1" stop-color="#96aac9"/></linearGradient><clipPath id="clippath-16"><rect class="cls-13" x="0" width="201.61" height="198.82"/></clipPath><clipPath id="clippath-17"><rect class="cls-13" x="117.52" y="22.31" width="18.7" height="12.6"/></clipPath><clipPath id="clippath-18"><rect class="cls-13" x="0" y="72.96" width="124.83" height="85.62"/></clipPath><clipPath id="clippath-19"><rect class="cls-13" x="0" width="201.61" height="198.82"/></clipPath><clipPath id="clippath-20"><rect class="cls-13" x="117.9" y="140.01" width="66.79" height="38.86"/></clipPath><clipPath id="clippath-21"><rect class="cls-13" x="140.29" y="188.82" width="6.56" height="4.34"/></clipPath><clipPath id="clippath-22"><rect class="cls-13" x="134.87" y="194.48" width="6.56" height="4.34"/></clipPath><clipPath id="clippath-23"><rect class="cls-13" x="144.93" y="193.28" width="6.56" height="4.34"/></clipPath></defs><g id="_组_5465"><g class="cls-47"><g id="_组_3905"><g id="_组_3867"><g class="cls-41"><g id="_组_3866"><g id="_组_3847" class="cls-43"><g id="_组_3846"><g class="cls-35"><g id="_组_3845"><path id="_路径_8661" class="cls-8" d="m66.1,86.19c6.86-3.96,18.01-3.96,24.89,0,6.88,3.97,6.88,10.42,0,14.38s-18.02,3.97-24.9,0c-6.86-3.96-6.86-10.41.02-14.38"/></g></g></g></g><path id="_路径_8662" class="cls-25" d="m94.42,92.45c0,2.36-1.55,4.7-4.66,6.5-6.2,3.58-16.26,3.58-22.46,0-3.1-1.8-4.66-4.14-4.66-6.5v-24.92h31.78v24.92Z"/><path id="_路径_8663" class="cls-19" d="m67.3,79.1c2.92,1.58,6.17,2.48,9.49,2.63v14.73c-3.32-.16-6.56-1.06-9.49-2.63-3.1-1.81-4.66-4.14-4.66-6.49v-14.75c0,2.36,1.56,4.71,4.66,6.51"/><path id="_路径_8664" class="cls-10" d="m96.38,66.09c0,2.64-1.74,5.29-5.24,7.31-6.99,4.03-18.32,4.03-25.32,0-3.48-2.03-5.22-4.67-5.22-7.31v-6.8h35.78v6.8Z"/><path id="_路径_8665" class="cls-19" d="m65.83,51.99c6.99-4.02,18.31-4.02,25.3,0,6.98,4.04,6.98,10.57,0,14.62-6.99,4.03-18.32,4.03-25.32,0-6.97-4.04-6.97-10.57.01-14.62"/><g id="_组_3850" class="cls-43"><g id="_组_3849"><g class="cls-49"><g id="_组_3848"><path id="_路径_8666" class="cls-8" d="m77.94,108.23l2.67-1.54h.01c1.18-.69,2.86-.66,3.72.07s.61,1.88-.59,2.57l-2.68,1.54-2.67,1.55h0c-1.19.69-2.86.66-3.73-.07s-.6-1.88.59-2.56l2.68-1.55Z"/></g></g></g></g><path id="_路径_8667" class="cls-19" d="m80.52,103.37h0c1.28-.76,2.93-.32,3.68.97s.31,2.93-.97,3.68h0l-2.89,1.68c-.44.2-.95.15-1.34-.13-1.13-.73-1.84-1.95-1.92-3.3-.05-.48.16-.95.56-1.22l2.88-1.67Z"/><path id="_路径_8668" class="cls-15" d="m74.75,106.71l2.89-1.66c.44-.21.96-.16,1.35.13,1.13.73,1.84,1.95,1.91,3.3.05.48-.16.95-.56,1.23l-2.88,1.66s-.01.01-.01.01c-1.29.74-2.93.31-3.68-.98s-.31-2.93.98-3.68"/><path id="_路径_8669" class="cls-12" d="m75.03,107.55c.14.12.03.47-.22.8-.27.32-.6.49-.74.38-.14-.12-.04-.48.23-.79.26-.34.59-.51.74-.39"/><g id="_组_3853" class="cls-43"><g id="_组_3852"><g class="cls-42"><g id="_组_3851"><path id="_路径_8670" class="cls-8" d="m83.55,109.28c1.48-.75,3.23-.75,4.72,0,1.31.76,1.31,1.98,0,2.72-1.48.76-3.24.76-4.72,0-1.31-.74-1.31-1.96,0-2.72"/></g></g></g></g><path id="_路径_8671" class="cls-19" d="m87.81,103.33c.44.2.74.62.79,1.1v3.33c0,1.48-1.2,2.69-2.69,2.69-1.48,0-2.69-1.2-2.69-2.69h0v-3.34c.04-.48.34-.9.79-1.1,1.2-.6,2.61-.6,3.81,0"/><path id="_路径_8672" class="cls-15" d="m85.91,98.41c1.48,0,2.69,1.2,2.69,2.69v3.34c-.04.48-.34.9-.79,1.1-1.19.61-2.61.61-3.8,0-.44-.2-.75-.62-.79-1.1v-3.34c0-1.48,1.2-2.68,2.68-2.69h0"/><path id="_路径_8673" class="cls-12" d="m87.78,100.09c.14.4.13.76-.04.83-.18.05-.43-.21-.58-.6s-.12-.76.04-.83c.18-.06.43.21.58.6"/><path id="_路径_8674" class="cls-4" d="m200.69,166.27l-19.61-11.32c-1.4-.71-3.05-.71-4.44,0l-46.35,26.94c-1.22.71-1.22,1.86.01,2.57l19.61,11.32c1.4.71,3.05.71,4.44,0l46.35-26.94c1.22-.71,1.22-1.86-.02-2.57"/><path id="_路径_8675" class="cls-9" d="m179.85,160.32v1.58c-.05.47-.34.89-.78,1.08-1.18.6-2.58.6-3.77,0-.44-.2-.74-.62-.79-1.1v-1.58c.05.48.35.9.79,1.1,1.18.6,2.58.6,3.77,0,.43-.2.73-.61.77-1.08"/><path id="_路径_8676" class="cls-19" d="m179.07,159.22c1.04.6,1.05,1.58.01,2.18-1.18.6-2.58.6-3.77,0-1.04-.6-1.05-1.58-.01-2.18,1.18-.6,2.58-.6,3.77,0"/><path id="_路径_8677" class="cls-9" d="m192.16,167.43v1.58c-.05.47-.34.89-.78,1.08-1.18.6-2.58.6-3.77,0-.44-.2-.74-.62-.79-1.1v-1.58c.05.48.35.9.79,1.1,1.18.6,2.58.6,3.77,0,.43-.2.73-.61.77-1.08"/><path id="_路径_8678" class="cls-19" d="m191.37,166.33c1.04.6,1.05,1.58.01,2.18-1.18.6-2.58.6-3.77,0-1.05-.6-1.05-1.58-.01-2.18,1.18-.6,2.58-.6,3.77,0"/><path id="_路径_8679" class="cls-9" d="m171.12,165.39v1.58c-.05.47-.34.89-.78,1.08-1.18.6-2.58.6-3.77,0-.44-.2-.74-.62-.79-1.1v-1.58c.05.48.35.9.79,1.1,1.18.6,2.58.6,3.77,0,.43-.2.73-.61.77-1.08"/><path id="_路径_8680" class="cls-19" d="m170.33,164.3c1.04.6,1.05,1.58.01,2.18-1.18.6-2.58.6-3.77,0-1.04-.6-1.05-1.58-.01-2.18,1.18-.6,2.58-.6,3.77,0"/><path id="_路径_8681" class="cls-9" d="m183.43,172.5v1.58c-.05.47-.34.89-.78,1.08-1.18.6-2.58.6-3.77,0-.44-.2-.74-.62-.79-1.1v-1.58c.05.48.35.9.79,1.1,1.18.6,2.58.6,3.77,0,.43-.2.73-.61.77-1.08"/><path id="_路径_8682" class="cls-19" d="m182.64,171.4c1.04.6,1.05,1.58.01,2.18-1.18.6-2.58.6-3.77,0-1.05-.6-1.05-1.58-.01-2.18,1.18-.6,2.58-.6,3.77,0"/><path id="_路径_8683" class="cls-9" d="m162.39,170.47v1.58c-.05.47-.34.89-.78,1.08-1.18.6-2.58.6-3.77,0-.44-.2-.74-.62-.79-1.1v-1.58c.05.48.35.9.79,1.1,1.18.6,2.58.6,3.77,0,.43-.2.73-.61.77-1.08"/><path id="_路径_8684" class="cls-19" d="m161.6,169.37c1.04.6,1.05,1.58.01,2.18-1.18.6-2.58.6-3.77,0-1.04-.6-1.05-1.58-.01-2.18,1.18-.6,2.58-.6,3.77,0"/><path id="_路径_8685" class="cls-9" d="m174.7,177.57v1.58c-.05.47-.34.89-.78,1.08-1.18.6-2.58.6-3.77,0-.44-.2-.74-.62-.79-1.1v-1.58c.05.48.35.9.79,1.1,1.18.6,2.58.6,3.77,0,.43-.2.73-.61.77-1.08"/><path id="_路径_8686" class="cls-19" d="m173.91,176.47c1.04.6,1.05,1.58.01,2.18-1.18.6-2.58.6-3.77,0-1.04-.6-1.05-1.58-.01-2.18,1.18-.6,2.58-.6,3.77,0"/><path id="_路径_8687" class="cls-9" d="m153.66,175.54v1.58c-.05.47-.34.89-.78,1.08-1.18.6-2.58.6-3.77,0-.44-.2-.74-.62-.79-1.1v-1.58c.05.48.35.9.79,1.1,1.18.6,2.58.6,3.77,0,.43-.2.73-.61.77-1.08"/><path id="_路径_8688" class="cls-19" d="m152.87,174.44c1.04.6,1.05,1.58.01,2.18-1.18.6-2.58.6-3.77,0-1.04-.6-1.05-1.58-.01-2.18,1.18-.6,2.58-.6,3.77,0"/><path id="_路径_8689" class="cls-9" d="m165.97,182.65v1.58c-.05.47-.35.89-.78,1.08-1.18.6-2.58.6-3.76,0-.44-.2-.74-.62-.79-1.1v-1.58c.05.48.35.9.79,1.1,1.18.6,2.58.6,3.77,0,.43-.2.73-.61.77-1.08"/><path id="_路径_8690" class="cls-19" d="m165.18,181.55c1.04.6,1.05,1.58.01,2.18-1.18.6-2.58.6-3.77,0-1.05-.6-1.05-1.58-.01-2.18,1.18-.6,2.58-.6,3.77,0"/><path id="_路径_8691" class="cls-9" d="m144.93,180.62v1.58c-.05.47-.34.89-.78,1.08-1.18.6-2.58.6-3.77,0-.44-.2-.74-.62-.78-1.1v-1.58c.05.48.35.9.79,1.1,1.18.6,2.58.6,3.77,0,.43-.2.73-.61.77-1.09"/><path id="_路径_8692" class="cls-19" d="m144.14,179.52c1.04.6,1.05,1.58.01,2.18-1.18.6-2.58.6-3.77,0-1.04-.6-1.05-1.58-.01-2.18,1.18-.6,2.58-.6,3.77,0"/><path id="_路径_8693" class="cls-9" d="m157.23,187.72v1.58c-.05.47-.34.89-.78,1.08-1.18.6-2.58.6-3.77,0-.44-.2-.74-.62-.79-1.1v-1.58c.05.48.35.9.79,1.1,1.18.6,2.58.6,3.77,0,.43-.2.73-.61.77-1.08"/><path id="_路径_8694" class="cls-19" d="m156.45,186.62c1.04.6,1.05,1.58.01,2.18-1.18.6-2.58.6-3.77,0-1.05-.6-1.05-1.58-.01-2.18,1.18-.6,2.58-.6,3.77,0"/><g id="_组_3856" class="cls-52"><g id="_组_3855"><g class="cls-56"><g id="_组_3854"><path id="_路径_8695" class="cls-17" d="m146.04,156.71l6.44-3.74-46.94-27.1-6.44,3.74,46.94,27.1Z"/></g></g></g></g><g id="_组_3859" class="cls-50"><g id="_组_3858"><g class="cls-38"><g id="_组_3857"><path id="_路径_8696" class="cls-14" d="m135.18,104.98l40.2,23.21V23.21L135.18,0v104.98Z"/></g></g></g></g><g id="_组_3862" class="cls-50"><g id="_组_3861"><g class="cls-39"><g id="_组_3860"><path id="_路径_8697" class="cls-14" d="m129.83,108.14l40.2,23.21V26.37L129.83,3.16v104.98Z"/></g></g></g></g><g id="_组_3865" class="cls-50"><g id="_组_3864"><g class="cls-51"><g id="_组_3863"><path id="_路径_8698" class="cls-14" d="m123.75,111.06l40.2,23.21V29.28L123.76,6.08v104.98Z"/></g></g></g></g><path id="_路径_8699" class="cls-31" d="m105.81,5.79l-6.08,3.53c.76-.44,1.81-.38,2.97.28l6.08-3.53c-1.16-.67-2.21-.73-2.97-.28"/></g></g></g><g id="_组_3869"><g class="cls-46"><g id="_组_3868"><path id="_路径_8700" class="cls-31" d="m102.7,9.6l6.08-3.53c-.39-.23-.82-.4-1.26-.5l-6.08,3.53c.44.1.87.27,1.26.5"/><path id="_路径_8701" class="cls-31" d="m101.44,9.1l6.08-3.53c-.55-.14-1.13-.07-1.63.18l-6.08,3.53c.51-.25,1.09-.31,1.63-.18"/><path id="_路径_8702" class="cls-31" d="m99.81,9.28l6.08-3.53-.08.04-6.08,3.53.08-.04"/></g></g></g><g id="_组_3871"><g class="cls-57"><g id="_组_3870"><path id="_路径_8704" class="cls-19" d="m147.05,35.21l6.08-3.53L108.78,6.07l-6.08,3.53,44.34,25.6Z"/></g></g></g><g id="_组_3873"><g class="cls-2"><g id="_组_3872"><rect id="_矩形_1509" class="cls-26" x="147.05" y="31.67" width="10.26" height="10.75"/><path id="_路径_8705" class="cls-30" d="m153.13,31.67c.77.47,1.46,1.07,2.02,1.77.57.7,1.04,1.47,1.41,2.29.46.99.71,2.07.74,3.16l-6.08,3.53c-.02-1.09-.28-2.17-.74-3.16-.37-.82-.84-1.59-1.41-2.29-.56-.71-1.25-1.31-2.02-1.77l6.08-3.53Z"/></g></g></g><g id="_组_3881"><g class="cls-44"><g id="_组_3880"><g id="_组_3876"><g id="_组_3875"><g class="cls-36"><g id="_组_3874"><path id="_路径_8707" class="cls-32" d="m98.21,118.5c.16,2.93,1.71,5.61,4.17,7.22l44.34,25.6c2.3,1.33,4.19.25,4.2-2.39l.02-3.38-52.71-30.43-.02,3.38Z"/></g></g></g></g><path id="_路径_8708" class="cls-20" d="m98.5,16.42l-.26,98.7,52.71,30.43.26-98.7-52.71-30.43Z"/><g id="_组_3879"><g id="_组_3878"><g class="cls-54"><g id="_组_3877"><path id="_路径_8709" class="cls-32" d="m151.22,42.43c-.16-2.93-1.71-5.62-4.17-7.22l-44.34-25.6c-2.3-1.33-4.19-.25-4.2,2.39v4.42s52.7,30.43,52.7,30.43v-4.42Z"/></g></g></g></g></g></g></g><g id="_组_3883"><g class="cls-37"><g id="_组_3882"><rect id="_矩形_1513" class="cls-28" x="142.95" y="29.37" width="5.3" height="3.08"/></g></g></g><g id="_组_3888"><g class="cls-3"><g id="_组_3887"><path id="_路径_8711" class="cls-29" d="m148.21,30.91c-.06.43-.34.79-.73.97-1.13.57-2.47.57-3.6,0-.21-.11-.39-.27-.53-.46.06-.43.34-.8.74-.98,1.13-.57,2.46-.57,3.59,0,.21.11.39.27.54.46"/><g id="_组_3886"><g id="_组_3885"><g class="cls-55"><g id="_组_3884"><path id="_路径_8712" class="cls-27" d="m118.78,25.4l16.17,9.33c.7.4,1.27.07,1.27-.73-.05-.89-.52-1.71-1.27-2.19l-16.17-9.33c-.7-.4-1.27-.07-1.27.73.05.89.52,1.71,1.27,2.19"/></g></g></g></g><path id="_路径_8713" class="cls-30" d="m150.92,148.93c0,1.31-.47,2.24-1.22,2.67l6.08-3.53c.75-.44,1.22-1.36,1.22-2.68l.02-3.06-6.08,3.51-.02,3.09Z"/><path id="_路径_8714" class="cls-30" d="m157.3,38.89l-6.08,3.53v4.42s6.07-3.51,6.07-3.51v-4.44Z"/><path id="_路径_8715" class="cls-30" d="m151.2,46.85l-.26,99,6.08-3.51.26-99-6.08,3.51Z"/><path id="_路径_8716" class="cls-18" d="m154.33,45.05l-3.13,1.8-.26,99,3.38-1.95V45.05Z"/></g></g></g><g id="_组_3890"><g class="cls-53"><g id="_组_3889"><path id="_路径_8717" class="cls-34" d="m121.33,73.45c-.98-.56-1.86-.62-2.5-.24l-.48.28c.64-.37,1.52-.32,2.5.24,2.07,1.35,3.37,3.6,3.5,6.07,0,1.11-.39,1.89-1.02,2.26l.48-.28c.63-.37,1.02-1.15,1.02-2.25-.13-2.47-1.43-4.72-3.5-6.07"/><path id="_路径_8718" class="cls-23" d="m120.85,73.72c2.07,1.35,3.37,3.6,3.5,6.07,0,2.23-1.58,3.13-3.53,2.01-2.07-1.35-3.37-3.6-3.5-6.07,0-2.23,1.59-3.13,3.53-2.01"/><path id="_路径_8719" class="cls-33" d="m122.16,80.35l-3.11-5.12-9.68,5.59c-10.8,6.24-19.56,21.41-19.53,33.94.04,12.99-9.13,28.86-20.43,35.38-4.92,2.84-9.45,3.45-13,2.15-2.84-2.41-4.55-6.55-4.56-12.13l-.05-15.91c-.02-8.85-3.05-15.44-8.51-18.55l-3-1.75c-5.46-3.11-12.71-2.38-20.41,2.07l-4.94,2.85c-.89.58-1.45,1.55-1.51,2.61-.04.38.13.75.44.97l3,1.75s-.03-.02-.05-.04c.36.2.8.17,1.12-.07l4.94-2.85c6.22-3.59,12.11-4.48,16.79-2.56,3.92,3.08,6.07,8.52,6.09,15.57l.05,15.91c.02,7.22,2.49,12.59,6.94,15.13l3,1.75c4.46,2.54,10.37,1.94,16.66-1.69,6.28-3.63,12.18-9.85,16.61-17.52s6.85-15.87,6.83-23.2c-.03-10.5,7.38-23.33,16.52-28.6l9.68-5.59s.09-.06.14-.09h-.05Z"/><path id="_路径_8720" class="cls-33" d="m120.62,75.34c1.26.82,2.05,2.19,2.13,3.69,0,1.36-.97,1.9-2.15,1.22-1.26-.82-2.05-2.19-2.13-3.69,0-1.36.97-1.91,2.14-1.22"/><path id="_路径_8721" class="cls-5" d="m19.44,98.52c-2.39-1.38-4.55-1.51-6.12-.6l-1.18.68h.01c-1.55.88-2.51,2.79-2.52,5.51-.02,5.45,3.82,12.1,8.57,14.84,2.4,1.38,4.57,1.51,6.13.59h-.02s1.18-.67,1.18-.67c1.54-.9,2.5-2.8,2.51-5.51.01-5.46-3.82-12.1-8.57-14.84"/><path id="_路径_8722" class="cls-34" d="m15.12,96.23c-3.69-2.13-7.03-2.33-9.44-.92l-1.81,1.05c2.41-1.4,5.75-1.2,9.44.93,7.33,4.23,13.25,14.49,13.22,22.91-.01,4.18-1.49,7.13-3.87,8.51l1.81-1.05c2.38-1.38,3.86-4.33,3.87-8.51.02-8.42-5.9-18.68-13.22-22.91"/><path id="_路径_8723" class="cls-23" d="m13.31,97.28c7.33,4.23,13.25,14.49,13.22,22.91-.02,8.42-5.98,11.82-13.31,7.58S-.02,113.29,0,104.87s5.99-11.82,13.31-7.59"/><path id="_路径_8724" class="cls-16" d="m19.18,127.88c-1.81-.08-3.56-.63-5.1-1.59-3.29-1.9-6.39-5.18-8.74-9.25s-3.64-8.39-3.63-12.16c.01-4.82,2.12-7.69,5.64-7.69,1.81.08,3.56.63,5.1,1.59,3.29,1.9,6.39,5.19,8.74,9.25s3.64,8.39,3.63,12.16c-.01,4.82-2.12,7.69-5.64,7.69"/><path id="_路径_8725" class="cls-11" d="m6.36,118.52c-2.42-4.2-3.75-8.65-3.74-12.55.01-4.97,2.19-7.94,5.82-7.94,1.86.08,3.67.65,5.26,1.64.33.19.65.4.98.61-.7-.56-1.45-1.07-2.22-1.52-1.53-.96-3.29-1.51-5.1-1.59-3.52,0-5.63,2.88-5.64,7.7-.01,3.77,1.28,8.09,3.63,12.16.55.95,1.15,1.87,1.8,2.76-.27-.41-.53-.83-.77-1.27"/></g></g></g><g id="_组_3904"><g class="cls-48"><g id="_组_3903"><g id="_组_3893" class="cls-43"><g id="_组_3892"><g class="cls-1"><g id="_组_3891"><path id="_路径_8726" class="cls-8" d="m119.59,178.87c-.39,0-.78-.09-1.12-.27-.47-.2-.69-.74-.5-1.21.09-.23.27-.4.5-.5l3.16-1.82c8.11-4.68,11.43-7.85,13.86-10.16,1.23-1.28,2.62-2.41,4.13-3.34l35.75-20.64c2.4-1.23,5.24-1.23,7.64,0,1.09.63,1.68,1.48,1.68,2.41s-.6,1.78-1.68,2.41l-35.75,20.64c-1.84.97-3.77,1.76-5.76,2.38-6.13,2.05-12.04,4.74-17.62,8.01l-3.16,1.82c-.35.19-.73.28-1.13.27"/></g></g></g></g><path id="_路径_8727" class="cls-6" d="m184.34,143.33h0v-2.08h-1.68v.83c-2.26-1.07-4.88-1.03-7.11.09l-5.92,3.42,7.28,3.26,5.92-3.42c1.01-.58,1.51-1.35,1.51-2.11"/><path id="_路径_8728" class="cls-6" d="m139.79,162.82c-2.72,1.57-9.61,6.89-9.61,6.89l-6.49,4.68v2.08c12.84-7.41,19.12-7.93,23.38-10.39l28.95-16.71v-2.09l-7.28-1.18-28.95,16.71Z"/><path id="_路径_8729" class="cls-21" d="m176.91,148.86l-.88.51v-2.09l.88-.51v2.08Z"/><path id="_路径_8730" class="cls-19" d="m175.54,139.15l-5.92,3.42,7.28,4.21,5.92-3.42c2.01-1.16,2.01-3.04,0-4.21-2.29-1.16-5-1.16-7.29,0"/><path id="_路径_8731" class="cls-19" d="m139.79,159.79c-4.26,2.46-5.15,6.09-17.99,13.5l1.9,1.09c12.84-7.41,19.12-7.93,23.38-10.39l28.95-16.71-7.28-4.21-28.95,16.71Z"/><path id="_路径_8732" class="cls-22" d="m118.25,175.68v2.07h0c.02.24.17.45.39.55.59.3,1.3.3,1.89,0l3.16-1.82v-2.08l-5.45,1.29Z"/><path id="_路径_8733" class="cls-6" d="m118.64,175.12c-.3.1-.47.43-.36.73.06.17.19.31.36.36.6.3,1.3.3,1.89,0l3.16-1.82-1.9-1.09-3.16,1.82Z"/><path id="_路径_8734" class="cls-20" d="m176.91,146.78l-.88.51-7.28-4.21.88-.51,7.28,4.21Z"/><path id="_路径_8735" class="cls-20" d="m162.65,147.38l-11.9,6.87c-1.64.94-1.64,2.47,0,3.42,1.86.94,4.06.94,5.92,0l11.9-6.87c1.64-.95,1.64-2.48,0-3.42-1.86-.94-4.06-.94-5.92,0"/><path id="_路径_8736" class="cls-21" d="m168.67,149.51c-.15-.57-.55-1.05-1.09-1.3-1.29-.74-3.19-.85-4.26-.23l-7.76,4.47c-.36.17-.61.51-.68.9-.04-.49.23-.96.68-1.16l7.76-4.48c1.07-.61,2.98-.51,4.26.23.78.45,1.16,1.03,1.09,1.56"/><path id="_路径_8737" class="cls-6" d="m168.67,149.51c-.07.39-.32.73-.68.9l-7.76,4.48c-1.06.62-2.97.51-4.26-.23-.54-.24-.94-.72-1.09-1.3.07-.39.32-.73.68-.9l7.76-4.47c1.07-.62,2.98-.51,4.26.23.54.25.94.73,1.09,1.3"/><path id="_路径_8738" class="cls-24" d="m158.29,151.85v.18l1.23.71h.32v-.18l-1.23-.71h-.32Z"/><path id="_路径_8739" class="cls-24" d="m159.84,152.75v.19l1.23.71h.32v-.19l-1.23-.71h-.32Z"/><path id="_路径_8740" class="cls-24" d="m158.29,153.64h.32l1.23-.71v-.19h-.32l-1.23.71v.19Z"/><path id="_路径_8741" class="cls-24" d="m156.74,152.75h.32l1.23-.71v-.18h-.32l-1.23.71v.18Z"/><g id="_组_4994"><path id="_路径_8742" class="cls-24" d="m166.15,150.19v.07l.47.27h.12v-.07l-.47-.27h-.12Z"/><path id="_路径_8743" class="cls-24" d="m166.74,150.53h.12l.47-.27v-.07h-.12l-.47.27v.07Z"/><path id="_路径_8744" class="cls-24" d="m166.15,150.19h.12l.47-.27v-.07h-.12l-.47.27v.07Z"/></g><path id="_路径_8745" class="cls-24" d="m159.84,154.54h.32l1.23-.71v-.18h-.32l-1.23.71v.18Z"/><path id="_路径_8746" class="cls-24" d="m163.19,149.03v.18l1.23.71h.32v-.19l-1.23-.71h-.32Z"/><path id="_路径_8747" class="cls-24" d="m164.74,149.92v.18l1.23.71h.32v-.18l-1.23-.71h-.32Z"/><path id="_路径_8748" class="cls-24" d="m163.19,150.82h.32l1.23-.71v-.18h-.32l-1.23.71v.18Z"/><path id="_路径_8749" class="cls-24" d="m161.64,149.93h.32l1.23-.71v-.18h-.32l-1.23.71v.19Z"/><path id="_路径_8750" class="cls-24" d="m164.74,151.71h.32l1.23-.71v-.18h-.32l-1.23.71v.18Z"/><path id="_路径_8751" class="cls-24" d="m158.96,151.47v.18l1.23.71h.32v-.19l-1.23-.71h-.32Z"/><path id="_路径_8752" class="cls-24" d="m160.51,150.57v.19l1.23.71h.32v-.19l-1.23-.71h-.32Z"/><path id="_路径_8753" class="cls-24" d="m162.06,151.47v.18l1.23.71h.32v-.19l-1.23-.71h-.32Z"/><path id="_路径_8754" class="cls-24" d="m160.51,152.36h.32l1.23-.71v-.18h-.32l-1.23.71v.19Z"/><path id="_路径_8755" class="cls-24" d="m158.96,151.47h.32l1.23-.71v-.19h-.32l-1.23.71v.19Z"/><path id="_路径_8756" class="cls-24" d="m162.06,153.26h.32l1.23-.71v-.18h-.32l-1.23.71v.18Z"/><path id="_路径_8757" class="cls-24" d="m161.4,150.19l-.32.18-.32-.18.32-.19.32.19Z"/><g id="_组_3896" class="cls-43"><g id="_组_3895"><g class="cls-40"><g id="_组_3894"><path id="_路径_8758" class="cls-8" d="m145.39,193.1c-1.68.22-3.37-.37-4.54-1.59-1-1.16-.59-2.34.92-2.62,1.68-.23,3.37.37,4.55,1.59,1,1.16.59,2.34-.92,2.62"/></g></g></g></g><path id="_路径_8759" class="cls-10" d="m145.37,192.8c.58-.04,1.1-.4,1.34-.94l.43-1.22-6.13-2.14-.43,1.22c-.14.57.03,1.16.45,1.57,1.12,1.17,2.73,1.73,4.33,1.52"/><path id="_路径_8760" class="cls-7" d="m145.8,191.58c.09-.02.18-.04.26-.06l.14.16.1-.24c1.03-.41,1.22-1.39.39-2.36-.99-1.03-2.36-1.6-3.78-1.58l-.08.24-.77.1-.14-.16c-1.07.4-1.29,1.39-.44,2.38,1.12,1.17,2.73,1.73,4.33,1.52"/><path id="_路径_8761" class="cls-10" d="m146.06,191.52l-3.24-3.77-.77.1,3.44,4.01c.24-.03.48-.09.71-.17l-.14-.17Z"/><g id="_组_3899" class="cls-43"><g id="_组_3898"><g class="cls-45"><g id="_组_3897"><path id="_路径_8762" class="cls-8" d="m139.96,198.76c-1.68.23-3.37-.37-4.55-1.59-1-1.16-.59-2.34.92-2.62,1.68-.22,3.37.37,4.55,1.59,1,1.16.59,2.34-.92,2.62"/></g></g></g></g><path id="_路径_8763" class="cls-10" d="m139.94,198.46c.59-.04,1.1-.4,1.34-.94l.42-1.22-6.12-2.14-.43,1.22c-.14.57.03,1.16.45,1.57,1.12,1.17,2.73,1.73,4.33,1.52"/><path id="_路径_8764" class="cls-7" d="m140.37,197.24c.09-.02.18-.04.26-.06l.14.16.1-.24c1.03-.41,1.22-1.39.38-2.36-.99-1.03-2.36-1.6-3.78-1.58l-.08.24-.77.1-.14-.16c-1.07.4-1.29,1.39-.44,2.38,1.12,1.17,2.73,1.73,4.33,1.52"/><path id="_路径_8765" class="cls-10" d="m140.63,197.17l-3.24-3.77-.77.1,3.44,4.01c.24-.03.48-.09.7-.17l-.14-.17Z"/><g id="_组_3902" class="cls-43"><g id="_组_3901"><g class="cls-58"><g id="_组_3900"><path id="_路径_8766" class="cls-8" d="m150.03,197.56c-1.68.22-3.37-.37-4.55-1.59-1-1.16-.59-2.34.92-2.62,1.68-.23,3.37.37,4.55,1.59,1,1.16.59,2.34-.92,2.62"/></g></g></g></g><path id="_路径_8767" class="cls-10" d="m145.68,195.75c-.43-.4-.61-1-.46-1.57l.43-1.22,6.12,2.15-.43,1.22c-.24.53-.75.89-1.33.94-1.6.21-3.21-.35-4.33-1.52"/><path id="_路径_8768" class="cls-7" d="m146.11,194.53c-.06-.07-.11-.14-.16-.21l-.21.04.08-.25c-.55-.96-.09-1.85,1.17-2.08,1.41-.19,2.84.22,3.94,1.13l-.09.24.54.56.21-.04c.59.98.14,1.89-1.14,2.13-1.6.21-3.21-.35-4.33-1.52"/><path id="_路径_8769" class="cls-10" d="m145.94,194.31l4.89-.92.54.56-5.19.98c-.17-.17-.32-.37-.44-.57l.21-.05Z"/></g></g></g></g></g></g></svg>