<?xml version="1.0" encoding="UTF-8"?><svg id="_圖層_1" xmlns="http://www.w3.org/2000/svg" viewBox="0 0 213.39 58"><defs><style>.cls-1{fill:#e95504;}.cls-1,.cls-2,.cls-3,.cls-4{stroke-width:0px;}.cls-2{fill:#ef821d;}.cls-3{fill:#0e357f;}.cls-4{fill:#3d62ac;}</style></defs><path class="cls-3" d="m6.02,54.67v-3.59h6.95v3.56l1.35.05c.31,0,.46-.14.46-.42v-4.02H4.67v-1.14h13.16v1.14h-1.7v4.11c0,.61-.11,1.01-.33,1.2-.23.2-.66.29-1.28.29h-1.69l-.34-1.2h-6.46Zm.01-5.69l-.68-1.12c2.14-.14,3.65-.69,4.54-1.62h-4.73v-1.11h5.22c.14-.29.22-.65.24-1.09h1.37c-.05.46-.11.82-.2,1.09h5.48v1.11h-4.74c.89.87,2.49,1.39,4.79,1.57l-.6,1.16c-2.58-.17-4.4-1.01-5.47-2.53-1,1.44-2.74,2.29-5.21,2.54Zm5.64,3.2h-4.35v1.39h4.35v-1.39Z"/><path class="cls-3" d="m30.19,54.98h-1.24v-.83h-1.33v1.23h-1.24v-10.26h3.81v2.53c1.3-1.12,2.15-2.32,2.55-3.59l1.26.29c-.4.88-.74,1.54-1.03,1.97h5.95v1.06h-2.82v1.49h2.53v1.05h-2.53v1.61h2.53v1.05h-2.53v1.8h3v1.07h-6.48v.63h-1.24v-7.84c-.28.3-.52.54-.73.73l-.46-1.2v7.23Zm-1.24-8.78h-1.33v6.92h1.33v-6.92Zm5.97,2.67v-1.49h-2.3v1.49h2.3Zm0,2.66v-1.61h-2.3v1.61h2.3Zm0,2.85v-1.8h-2.3v1.8h2.3Zm.39-8.08c-.22-.64-.53-1.27-.93-1.89l1.09-.34c.33.46.67,1.08,1.02,1.86l-1.17.37Z"/><path class="cls-3" d="m49.9,45.89c-.49.08-1.21.16-2.16.22l-.29-1.07c2.08-.09,3.87-.4,5.37-.92l.47,1.05c-.67.21-1.37.39-2.11.52v1.8h2.12v1.1h-2.12v.12c1.04.88,1.83,1.59,2.36,2.12l-.78,1.1c-.28-.36-.56-.68-.84-.97-.24-.26-.49-.55-.74-.85v5.92l-1.28.05v-5.25c-.35.82-.99,1.77-1.9,2.86l-.78-1.15c1.17-1.22,2.05-2.53,2.64-3.95h-2.55v-1.1h2.6v-1.6Zm3.24,7.32v-1.19l4.68-.64v-7.34h1.3v7.2l1.26-.19v1.16l-1.26.19v3.66h-1.3v-3.51l-4.68.65Zm3.03-2.59c-.96-.73-1.8-1.3-2.54-1.7l.82-.86c.7.33,1.56.86,2.58,1.57l-.87.98Zm.25-3.1c-1.03-.76-1.87-1.31-2.51-1.67l.84-.84c.6.31,1.46.83,2.55,1.56l-.88.96Z"/><path class="cls-3" d="m73.72,47.82h-1.65v2.26c.74-.22,1.29-.41,1.63-.56v1.25c-.29.14-.83.34-1.63.59v3.13c0,.6-.09,1-.28,1.2-.2.2-.64.31-1.34.31h-1.1l-.32-1.29,1.21.04c.31,0,.46-.14.46-.42v-2.6c-.79.19-1.41.33-1.87.43l-.34-1.38c.81-.09,1.54-.22,2.21-.38v-2.56h-2.07v-1.16h2.07v-2.62h1.38v2.62h1.65v-.82h3v-1.8h1.38v1.8h3.29v1.16h-3.29v1.71h2.82v1.06c-.12.46-.43,1.06-.92,1.8-.48.74-.99,1.32-1.52,1.75.93.7,1.98,1.2,3.15,1.49l-.71,1.2c-1.23-.37-2.38-1-3.46-1.9-1.47,1.03-2.87,1.67-4.21,1.93l-.77-1.16c1.34-.27,2.68-.82,4.02-1.65-.72-.66-1.42-1.57-2.11-2.72l1.16-.42c.64,1.04,1.28,1.85,1.93,2.44.95-.69,1.62-1.57,2.02-2.64h-5.54v-1.17h2.76v-1.71h-3v.82Z"/><path class="cls-3" d="m91.85,51.78c-.02,1.69-.35,3.1-.99,4.24l-1.1-.7c.24-.43.45-1.04.61-1.8.17-.77.25-2.43.25-4.98v-4.16h4.14v10.39c0,.72-.33,1.07-1,1.07h-1.4l-.22-1.16,1.1.05c.2,0,.29-.09.29-.25v-3.08c-.35.36-.72.74-1.12,1.14l-.57-.75Zm1.69-6.28h-1.69v1.52l.95-.28c.28.5.53,1.03.74,1.6v-2.83Zm-.06,3.14l-.87.36c-.23-.62-.49-1.24-.77-1.85v4.33c.54-.37,1.08-.89,1.63-1.53v-1.3Zm7.56-1.44c0,.46.22.69.66.69h1.06v1.16h-1.55c-.5,0-.88-.09-1.13-.28-.24-.19-.36-.62-.36-1.26v-2.02h-2.01v.43c0,1.51-.47,2.72-1.4,3.63l-1.17-.74c.37-.34.67-.76.91-1.25.22-.49.34-1.3.34-2.45v-.75h4.68v2.85Zm1.01,3.41c-.49,1.49-1.16,2.6-2,3.32.76.41,1.71.76,2.85,1.06l-.59,1.1c-1.23-.29-2.31-.72-3.24-1.3-.99.62-2.05,1.05-3.18,1.29l-.67-1.05c1.12-.25,2.05-.61,2.81-1.1-.58-.54-1.16-1.4-1.74-2.59l1.13-.34c.4.88.92,1.61,1.55,2.2.7-.66,1.22-1.46,1.58-2.41h-5.07v-1.14h6.57v.97Z"/><path class="cls-3" d="m111.02,49.35c1.3-1.29,2.39-3.05,3.25-5.3l1.33.5c-.37.93-.79,1.8-1.26,2.63v8.89h-1.38v-6.91c-.44.63-.9,1.22-1.38,1.76l-.56-1.57Zm6.29-5.21l1.3.4c-.44,1.81-1.37,3.22-2.81,4.22l-1.13-.91c1.4-.94,2.27-2.17,2.64-3.72Zm6.02,4.77c-.08,2.29-.19,3.88-.32,4.76-.13.88-.37,1.45-.73,1.71-.35.26-1.14.4-2.37.4h-.34l-.36-1.38c.49.04.94.07,1.34.07.51,0,.84-.2.98-.6h0c.21-.67.35-1.93.4-3.8h-2.3c-.11,2.67-1.41,4.66-3.91,5.96l-1-1.03c2.2-1.06,3.38-2.71,3.55-4.93h-2.54v-1.17l7.61.02Zm-1.59-4.56c.34,1.17,1.15,2.25,2.43,3.22l-.94,1.15c-1.25-.95-2.07-2.02-2.48-3.2h-1.47v-1.16h2.46Z"/><path class="cls-3" d="m135.14,50c-.66.57-1.35,1.09-2.07,1.57l-.8-1.15c1.96-1.13,3.39-2.37,4.28-3.73h-4.05v-1.16h4.76c.2-.29.45-.78.74-1.48l1.47.22c-.26.63-.46,1.05-.6,1.26h6.56v1.16h-7.22c-.32.51-.6.89-.84,1.12h6.84v6.47c0,.63-.13,1.06-.38,1.29-.24.24-.74.36-1.51.36h-1.72l-.28-1.23,1.74.06c.3,0,.48-.02.56-.08.08-.06.13-.24.13-.55v-.83h-6.18v2.76h-1.45v-6.08Zm1.45-1.05v1.06h6.17v-1.06h-6.17Zm0,2.13v1.14h6.17v-1.14h-6.17Z"/><path class="cls-3" d="m158.36,45.36c-.28,1.11-.63,2.17-1.06,3.18.74,1.31,1.12,2.29,1.12,2.95,0,1.18-.67,1.77-2.01,1.77-.18,0-.33,0-.45-.03l-.36-1.2c.28.03.55.05.81.05.5,0,.75-.21.75-.63,0-.61-.39-1.57-1.17-2.87.38-.85.73-1.83,1.05-2.95h-1.94v10.43h-1.28v-11.55h4.55v.84Zm4.54,4.79c.06.6.27,1.23.63,1.89.83-.53,1.46-1.05,1.9-1.58l.99.84c-.7.68-1.44,1.26-2.22,1.72.62.8,1.46,1.49,2.51,2.08l-.8.97c-2.45-1.43-3.87-3.41-4.25-5.92h-1.41v4.15c.42-.12.82-.23,1.21-.33.35-.09.74-.22,1.16-.38v1.21c-1.04.4-2.58.8-4.61,1.21l-.25-1.24c.4-.04.81-.11,1.21-.22v-10.06h6.95v5.66h-3.03Zm1.76-4.57h-4.41v1.17h4.41v-1.17Zm-4.41,3.47h4.41v-1.23h-4.41v1.23Z"/><path class="cls-3" d="m178.95,44.09l1.3.47c-.89,2.32-2.33,4.23-4.31,5.73l-1.1-.97c2.04-1.46,3.41-3.21,4.12-5.23Zm5.51,6.49c1.2,1.53,2.11,3.23,2.72,5.11l-1.45.38c-.28-.86-.45-1.29-.5-1.29-1.53.15-4.68.35-9.46.61l-.26-1.43c.37,0,.7.01.99.01.34,0,.66,0,.95-.02,1.23-1.46,2.21-3.42,2.96-5.89l1.46.35c-.78,2.26-1.69,4.08-2.73,5.48,1.92-.02,3.81-.13,5.66-.35-.42-.78-.94-1.61-1.58-2.48l1.24-.48Zm-.43-6.22c.66,1.7,1.98,3.2,3.95,4.51l-1.06,1.01c-1.73-1.25-2.97-2.72-3.73-4.39h-2.18v-1.12h3.01Z"/><path class="cls-3" d="m208.73,44.63v9.84c0,.59-.11.99-.32,1.19-.22.2-.66.31-1.31.31h-2.29l-.32-1.26,2.29.06c.34,0,.5-.15.5-.46v-8.5h-10.94v-1.19h12.39Zm-2.62,2.39v1.17h-9.28v-1.17h9.28Zm-8.74,2.39h7.77v4.25h-7.77v-4.25Zm6.41,1.12h-5.04v2.02h5.04v-2.02Z"/><path class="cls-2" d="m7.16,23.97c1.15,1.45,2.28,2.53,3.4,3.25,1.12.72,2.23,1.07,3.34,1.07,1.03,0,1.88-.31,2.54-.93.66-.62,1-1.4,1-2.34,0-1.05-.29-1.85-.86-2.42-.57-.57-1.87-1.15-3.9-1.75-2.77-.83-4.73-1.91-5.88-3.25-1.15-1.33-1.72-3.16-1.72-5.48,0-3.01.91-5.46,2.72-7.36,1.81-1.9,4.16-2.85,7.05-2.85,1.56,0,3.04.23,4.44.7,1.4.47,2.72,1.17,3.98,2.12l-2.42,6.17c-.88-.83-1.78-1.46-2.7-1.88-.92-.42-1.84-.63-2.74-.63s-1.68.25-2.26.74c-.58.49-.87,1.13-.87,1.9s.25,1.42.76,1.89c.51.47,1.49.92,2.95,1.35l.35.11c3.15.95,5.22,1.98,6.21,3.12.67.77,1.18,1.7,1.53,2.78.35,1.08.52,2.28.52,3.6,0,3.34-.99,6.02-2.96,8.05-1.97,2.03-4.6,3.04-7.89,3.04-1.97,0-3.77-.37-5.39-1.12-1.62-.74-3.18-1.91-4.67-3.5l3.48-6.39Z"/><path class="cls-2" d="m33.96,34.14v-14.36L24.05,2.67h8.86l3.81,8.11s.06.12.12.24c.4.85.68,1.66.83,2.43.13-.7.41-1.48.83-2.34.08-.16.13-.26.15-.32l3.77-8.11h8.88l-9.91,17.11v14.36h-7.45Z"/><path class="cls-2" d="m53.85,23.97c1.15,1.45,2.28,2.53,3.4,3.25,1.12.72,2.23,1.07,3.34,1.07,1.03,0,1.88-.31,2.54-.93.66-.62,1-1.4,1-2.34,0-1.05-.29-1.85-.86-2.42-.57-.57-1.87-1.15-3.9-1.75-2.77-.83-4.73-1.91-5.88-3.25-1.15-1.33-1.72-3.16-1.72-5.48,0-3.01.91-5.46,2.72-7.36,1.81-1.9,4.16-2.85,7.05-2.85,1.56,0,3.04.23,4.44.7,1.4.47,2.72,1.17,3.98,2.12l-2.42,6.17c-.88-.83-1.78-1.46-2.7-1.88-.92-.42-1.84-.63-2.74-.63s-1.68.25-2.26.74c-.58.49-.87,1.13-.87,1.9s.25,1.42.76,1.89c.51.47,1.49.92,2.95,1.35l.35.11c3.15.95,5.22,1.98,6.21,3.12.67.77,1.18,1.7,1.53,2.78.35,1.08.52,2.28.52,3.6,0,3.34-.99,6.02-2.96,8.05-1.97,2.03-4.6,3.04-7.89,3.04-1.97,0-3.77-.37-5.39-1.12-1.62-.74-3.18-1.91-4.67-3.5l3.48-6.39Z"/><path class="cls-4" d="m82.85,34.14h-7.24V2.67h8.07c3.16,0,5.38.17,6.66.52,1.28.34,2.36.93,3.25,1.76,1.04.96,1.84,2.16,2.39,3.6.55,1.44.82,3.04.82,4.8,0,1.88-.27,3.53-.81,4.95-.54,1.43-1.34,2.6-2.4,3.51-.8.69-1.74,1.18-2.82,1.48-1.08.3-2.82.45-5.2.45h-2.71v10.38Zm0-17.31h1.47c1.86,0,3.15-.28,3.89-.85.74-.57,1.1-1.53,1.1-2.89s-.36-2.26-1.08-2.82c-.72-.56-2-.84-3.83-.84h-1.55v7.39Z"/><path class="cls-4" d="m128.02,18.47c0,2.26-.35,4.39-1.06,6.36-.71,1.98-1.74,3.75-3.09,5.31-1.36,1.55-2.92,2.74-4.68,3.58-1.75.84-3.57,1.26-5.46,1.26s-3.74-.42-5.49-1.26c-1.75-.84-3.29-2.03-4.61-3.58-1.38-1.56-2.42-3.34-3.13-5.33-.71-1.99-1.07-4.11-1.07-6.34s.36-4.37,1.07-6.35c.71-1.98,1.76-3.76,3.13-5.32,1.33-1.55,2.87-2.74,4.61-3.58,1.75-.84,3.58-1.26,5.49-1.26s3.73.42,5.49,1.26c1.76.84,3.31,2.03,4.65,3.58,1.34,1.55,2.37,3.32,3.08,5.31.71,1.99,1.07,4.11,1.07,6.36Zm-14.29,9.24c2.02,0,3.69-.87,5.02-2.62,1.32-1.75,1.98-3.96,1.98-6.62s-.67-4.84-2.01-6.6c-1.34-1.76-3-2.64-4.99-2.64s-3.69.88-5.02,2.63c-1.32,1.76-1.98,3.96-1.98,6.61s.65,4.91,1.96,6.64c1.3,1.73,2.98,2.6,5.04,2.6Z"/><path class="cls-4" d="m148.33,2.67l2.97,14.96c.14.67.27,1.38.39,2.11.12.73.24,1.57.37,2.51.16-1.12.3-2.04.41-2.76.11-.72.22-1.34.33-1.86l2.77-14.96h6.5l-6.68,31.47h-5.97l-2.92-13.44c-.11-.47-.28-1.4-.53-2.77-.11-.62-.19-1.1-.26-1.44-.05.3-.13.72-.23,1.27-.25,1.39-.44,2.37-.56,2.94l-2.87,13.44h-5.98l-6.66-31.47h6.5l2.71,15.05c.13.77.26,1.55.38,2.32.12.77.24,1.57.35,2.39.1-.6.2-1.23.31-1.89.11-.66.28-1.6.51-2.82l2.97-15.05h5.19Z"/><path class="cls-4" d="m164.79,34.14V2.67h17.35v6.9h-9.83v5.46h9.27v6.75h-9.27v5.31h9.83v7.05h-17.35Z"/><path class="cls-4" d="m187.25,34.14V2.67h8.07c3.16,0,5.36.16,6.61.48,1.25.32,2.32.86,3.22,1.62,1.02.86,1.8,1.96,2.35,3.29.55,1.33.82,2.8.82,4.41,0,2.44-.54,4.42-1.61,5.94-1.08,1.53-2.65,2.54-4.71,3.04l7.72,12.68h-8.72l-6.5-12.32v12.32h-7.24Zm7.24-16.6h1.43c1.66,0,2.88-.32,3.65-.95.77-.63,1.15-1.62,1.15-2.97,0-1.58-.36-2.7-1.07-3.36-.71-.67-1.92-1-3.61-1h-1.55v8.28Z"/><path class="cls-2" d="m84.32,16.61c.88,0,1.62-.07,2.25-.19l-2.79.19h.54Z"/><path class="cls-1" d="m17.44,25.03c0,.95-.33,1.73-1,2.34-.66.62-1.51.93-2.54.93-1.11,0-2.22-.36-3.34-1.07-1.12-.72-2.25-1.8-3.4-3.25l-3.48,6.39c1.5,1.59,3.05,2.76,4.67,3.5,1.62.75,3.41,1.12,5.39,1.12,3.29,0,5.92-1.01,7.89-3.04,1.97-2.03,2.96-4.71,2.96-8.05,0-1.07-.12-2.06-.35-2.98l-9.51.65c.88.36,1.5.71,1.85,1.05.57.57.86,1.37.86,2.42Z"/><polygon class="cls-1" points="41.41 34.15 41.41 19.79 41.44 19.74 33.96 20.25 33.96 34.15 41.41 34.15"/><path class="cls-1" d="m63.26,22.61c.57.57.86,1.37.86,2.42,0,.95-.33,1.73-1,2.34-.66.62-1.51.93-2.54.93-1.11,0-2.22-.36-3.34-1.07-1.12-.72-2.25-1.8-3.4-3.25l-3.48,6.39c1.5,1.59,3.05,2.76,4.67,3.5,1.62.75,3.41,1.12,5.39,1.12,3.29,0,5.92-1.01,7.89-3.04,1.97-2.03,2.96-4.71,2.96-8.05,0-1.32-.17-2.52-.52-3.6-.3-.94-.74-1.76-1.29-2.47l-14.62,1c1.13.79,2.63,1.48,4.51,2.04,2.03.6,3.32,1.19,3.9,1.75Z"/><path class="cls-3" d="m82.85,34.15v-10.38h2.71c2.39,0,4.12-.15,5.2-.45,1.08-.3,2.03-.8,2.82-1.48,1.06-.92,1.86-2.09,2.4-3.51.28-.72.48-1.51.61-2.35l-10.03.69c-.63.13-1.37.19-2.25.19h-.54l-8.17.56v16.75h7.24Z"/><path class="cls-3" d="m100.49,24.82c.71,1.99,1.76,3.77,3.13,5.33,1.33,1.55,2.87,2.74,4.61,3.58,1.75.84,3.58,1.26,5.49,1.26s3.71-.42,5.46-1.26c1.75-.84,3.31-2.03,4.68-3.58,1.35-1.56,2.38-3.33,3.09-5.31.71-1.98,1.06-4.1,1.06-6.36,0-1.61-.19-3.15-.55-4.62l-7.41.51c.44,1.23.67,2.6.67,4.12,0,2.67-.66,4.87-1.98,6.62-1.32,1.75-2.99,2.62-5.02,2.62s-3.74-.87-5.04-2.6c-1.3-1.73-1.96-3.95-1.96-6.64,0-1.17.14-2.24.39-3.23l-7.5.51c-.12.89-.2,1.79-.2,2.72,0,2.24.36,4.35,1.07,6.34Z"/><path class="cls-3" d="m142.06,34.15l2.87-13.44c.13-.57.32-1.55.56-2.94.1-.55.17-.97.23-1.27.06.34.15.82.26,1.44.25,1.38.42,2.3.53,2.77l2.92,13.44h5.97l4.78-22.53-6.34.43-1.04,5.59c-.11.52-.22,1.14-.33,1.86-.11.72-.25,1.64-.41,2.76-.13-.95-.25-1.78-.37-2.51-.12-.73-.25-1.43-.39-2.11l-1.06-5.34-9.12.62-.95,4.8c-.23,1.22-.39,2.16-.51,2.82-.11.66-.22,1.29-.31,1.89-.11-.82-.22-1.61-.35-2.39-.12-.77-.25-1.55-.38-2.32l-.82-4.58-6.08.42,4.36,20.59h5.98Z"/><polygon class="cls-3" points="182.15 34.15 182.15 27.09 172.32 27.09 172.32 21.78 181.58 21.78 181.58 15.03 172.32 15.03 172.32 10.78 164.79 11.3 164.79 34.15 182.15 34.15"/><path class="cls-3" d="m202,21.46c2.06-.5,3.63-1.52,4.71-3.04,1.08-1.53,1.61-3.51,1.61-5.94,0-1.49-.25-2.85-.72-4.11l-20.35,1.39v24.39h7.24v-12.32l6.5,12.32h8.72l-7.72-12.68Zm-2.43-4.86c-.77.63-1.98.95-3.65.95h-1.43v-8.28h1.55c1.69,0,2.89.33,3.61,1,.72.67,1.07,1.79,1.07,3.36,0,1.35-.38,2.34-1.15,2.97Z"/></svg>