<?xml version="1.0" encoding="UTF-8"?><svg id="_圖層_1" xmlns="http://www.w3.org/2000/svg" viewBox="0 0 206.04 54.18"><defs><style>.cls-1{fill:#fff;stroke-width:0px;}</style></defs><path class="cls-1" d="m2.34,52.76v-3.59h6.95v3.56l1.35.05c.31,0,.46-.14.46-.42v-4.02H.99v-1.14h13.16v1.14h-1.7v4.11c0,.61-.11,1.01-.33,1.2-.23.2-.66.29-1.28.29h-1.69l-.34-1.2H2.35v.02Zm.01-5.69l-.68-1.12c2.14-.14,3.65-.69,4.54-1.62H1.48v-1.11h5.22c.14-.29.22-.65.24-1.09h1.37c-.05.46-.11.82-.2,1.09h5.48v1.11h-4.74c.89.87,2.49,1.39,4.79,1.57l-.6,1.16c-2.58-.17-4.4-1.01-5.47-2.53-1,1.44-2.74,2.29-5.21,2.54h0Zm5.64,3.2H3.64v1.39h4.35v-1.39Z"/><path class="cls-1" d="m26.51,53.07h-1.24v-.83h-1.33v1.23h-1.24v-10.26h3.81v2.53c1.3-1.12,2.15-2.32,2.55-3.59l1.26.29c-.4.88-.74,1.54-1.03,1.97h5.95v1.06h-2.82v1.49h2.53v1.05h-2.53v1.61h2.53v1.05h-2.53v1.8h3v1.07h-6.48v.63h-1.24v-7.84c-.28.3-.52.54-.73.73l-.46-1.2v7.23-.02Zm-1.24-8.78h-1.33v6.92h1.33v-6.92Zm5.97,2.67v-1.49h-2.3v1.49h2.3Zm0,2.66v-1.61h-2.3v1.61h2.3Zm0,2.85v-1.8h-2.3v1.8h2.3Zm.39-8.08c-.22-.64-.53-1.27-.93-1.89l1.09-.34c.33.46.67,1.08,1.02,1.86l-1.17.37h-.01Z"/><path class="cls-1" d="m46.22,43.98c-.49.08-1.21.16-2.16.22l-.29-1.07c2.08-.09,3.87-.4,5.37-.92l.47,1.05c-.67.21-1.37.39-2.11.52v1.8h2.12v1.1h-2.12v.12c1.04.88,1.83,1.59,2.36,2.12l-.78,1.1c-.28-.36-.56-.68-.84-.97-.24-.26-.49-.55-.74-.85v5.92l-1.28.05v-5.25c-.35.82-.99,1.77-1.9,2.86l-.78-1.15c1.17-1.22,2.05-2.53,2.64-3.95h-2.55v-1.1h2.6v-1.6h0Zm3.24,7.32v-1.19l4.68-.64v-7.34h1.3v7.2l1.26-.19v1.16l-1.26.19v3.66h-1.3v-3.51l-4.68.65h0Zm3.03-2.59c-.96-.73-1.8-1.3-2.54-1.7l.82-.86c.7.33,1.56.86,2.58,1.57l-.87.98h.01Zm.25-3.1c-1.03-.76-1.87-1.31-2.51-1.67l.84-.84c.6.31,1.46.83,2.55,1.56l-.88.96h0Z"/><path class="cls-1" d="m70.04,45.91h-1.65v2.26c.74-.22,1.29-.41,1.63-.56v1.25c-.29.14-.83.34-1.63.59v3.13c0,.6-.09,1-.28,1.2-.2.2-.64.31-1.34.31h-1.1l-.32-1.29,1.21.04c.31,0,.46-.14.46-.42v-2.6c-.79.19-1.41.33-1.87.43l-.34-1.38c.81-.09,1.54-.22,2.21-.38v-2.56h-2.07v-1.16h2.07v-2.62h1.38v2.62h1.65v-.82h3v-1.8h1.38v1.8h3.29v1.16h-3.29v1.71h2.82v1.06c-.12.46-.43,1.06-.92,1.8-.48.74-.99,1.32-1.52,1.75.93.7,1.98,1.2,3.15,1.49l-.71,1.2c-1.23-.37-2.38-1-3.46-1.9-1.47,1.03-2.87,1.67-4.21,1.93l-.77-1.16c1.34-.27,2.68-.82,4.02-1.65-.72-.66-1.42-1.57-2.11-2.72l1.16-.42c.64,1.04,1.28,1.85,1.93,2.44.95-.69,1.62-1.57,2.02-2.64h-5.54v-1.17h2.76v-1.71h-3v.82-.03Z"/><path class="cls-1" d="m88.17,49.87c-.02,1.69-.35,3.1-.99,4.24l-1.1-.7c.24-.43.45-1.04.61-1.8.17-.77.25-2.43.25-4.98v-4.16h4.14v10.39c0,.72-.33,1.07-1,1.07h-1.4l-.22-1.16,1.1.05c.2,0,.29-.09.29-.25v-3.08c-.35.36-.72.74-1.12,1.14l-.57-.75h.01Zm1.69-6.28h-1.69v1.52l.95-.28c.28.5.53,1.03.74,1.6v-2.83h0Zm-.06,3.14l-.87.36c-.23-.62-.49-1.24-.77-1.85v4.33c.54-.37,1.08-.89,1.63-1.53v-1.3h.01Zm7.56-1.44c0,.46.22.69.66.69h1.06v1.16h-1.55c-.5,0-.88-.09-1.13-.28-.24-.19-.36-.62-.36-1.26v-2.02h-2.01v.43c0,1.51-.47,2.72-1.4,3.63l-1.17-.74c.37-.34.67-.76.91-1.25.22-.49.34-1.3.34-2.45v-.75h4.68v2.85h-.03Zm1.01,3.41c-.49,1.49-1.16,2.6-2,3.32.76.41,1.71.76,2.85,1.06l-.59,1.1c-1.23-.29-2.31-.72-3.24-1.3-.99.62-2.05,1.05-3.18,1.29l-.67-1.05c1.12-.25,2.05-.61,2.81-1.1-.58-.54-1.16-1.4-1.74-2.59l1.13-.34c.4.88.92,1.61,1.55,2.2.7-.66,1.22-1.46,1.58-2.41h-5.07v-1.14h6.57v.97h0Z"/><path class="cls-1" d="m107.34,47.44c1.3-1.29,2.39-3.05,3.25-5.3l1.33.5c-.37.93-.79,1.8-1.26,2.63v8.89h-1.38v-6.91c-.44.63-.9,1.22-1.38,1.76,0,0-.56-1.57-.56-1.57Zm6.29-5.21l1.3.4c-.44,1.81-1.37,3.22-2.81,4.22l-1.13-.91c1.4-.94,2.27-2.17,2.64-3.72h0Zm6.02,4.77c-.08,2.29-.19,3.88-.32,4.76-.13.88-.37,1.45-.73,1.71-.35.26-1.14.4-2.37.4h-.34l-.36-1.38c.49.04.94.07,1.34.07.51,0,.84-.2.98-.6h0c.21-.67.35-1.93.4-3.8h-2.3c-.11,2.67-1.41,4.66-3.91,5.96l-1-1.03c2.2-1.06,3.38-2.71,3.55-4.93h-2.54v-1.17l7.61.02h0Zm-1.59-4.56c.34,1.17,1.15,2.25,2.43,3.22l-.94,1.15c-1.25-.95-2.07-2.02-2.48-3.2h-1.47v-1.16h2.46Z"/><path class="cls-1" d="m131.46,48.09c-.66.57-1.35,1.09-2.07,1.57l-.8-1.15c1.96-1.13,3.39-2.37,4.28-3.73h-4.05v-1.16h4.76c.2-.29.45-.78.74-1.48l1.47.22c-.26.63-.46,1.05-.6,1.26h6.56v1.16h-7.22c-.32.51-.6.89-.84,1.12h6.84v6.47c0,.63-.13,1.06-.38,1.29-.24.24-.74.36-1.51.36h-1.72l-.28-1.23,1.74.06c.3,0,.48-.02.56-.08s.13-.24.13-.55v-.83h-6.18v2.76h-1.45v-6.08l.02.02Zm1.45-1.05v1.06h6.17v-1.06h-6.17Zm0,2.13v1.14h6.17v-1.14h-6.17Z"/><path class="cls-1" d="m154.68,43.45c-.28,1.11-.63,2.17-1.06,3.18.74,1.31,1.12,2.29,1.12,2.95,0,1.18-.67,1.77-2.01,1.77-.18,0-.33,0-.45-.03l-.36-1.2c.28.03.55.05.81.05.5,0,.75-.21.75-.63,0-.61-.39-1.57-1.17-2.87.38-.85.73-1.83,1.05-2.95h-1.94v10.43h-1.28v-11.55h4.55v.84h-.01Zm4.54,4.79c.06.6.27,1.23.63,1.89.83-.53,1.46-1.05,1.9-1.58l.99.84c-.7.68-1.44,1.26-2.22,1.72.62.8,1.46,1.49,2.51,2.08l-.8.97c-2.45-1.43-3.87-3.41-4.25-5.92h-1.41v4.15c.42-.12.82-.23,1.21-.33.35-.09.74-.22,1.16-.38v1.21c-1.04.4-2.58.8-4.61,1.21l-.25-1.24c.4-.04.81-.11,1.21-.22v-10.06h6.95v5.66h-3.03,0Zm1.76-4.57h-4.41v1.17h4.41v-1.17Zm-4.41,3.47h4.41v-1.23h-4.41v1.23Z"/><path class="cls-1" d="m175.27,42.18l1.3.47c-.89,2.32-2.33,4.23-4.31,5.73l-1.1-.97c2.04-1.46,3.41-3.21,4.12-5.23h0Zm5.51,6.49c1.2,1.53,2.11,3.23,2.72,5.11l-1.45.38c-.28-.86-.45-1.29-.5-1.29-1.53.15-4.68.35-9.46.61l-.26-1.43c.37,0,.7,0,.99,0,.34,0,.66,0,.95-.02,1.23-1.46,2.21-3.42,2.96-5.89l1.46.35c-.78,2.26-1.69,4.08-2.73,5.48,1.92-.02,3.81-.13,5.66-.35-.42-.78-.94-1.61-1.58-2.48l1.24-.48h0Zm-.43-6.22c.66,1.7,1.98,3.2,3.95,4.51l-1.06,1.01c-1.73-1.25-2.97-2.72-3.73-4.39h-2.18v-1.12h3.02Z"/><path class="cls-1" d="m205.05,42.72v9.84c0,.59-.11.99-.32,1.19-.22.2-.66.31-1.31.31h-2.29l-.32-1.26,2.29.06c.34,0,.5-.15.5-.46v-8.5h-10.94v-1.19h12.39Zm-2.62,2.39v1.17h-9.28v-1.17h9.28Zm-8.74,2.39h7.77v4.25h-7.77v-4.25Zm6.41,1.12h-5.04v2.02h5.04v-2.02Z"/><path class="cls-1" d="m20.4,18.37c-.35-1.08-.86-2.01-1.53-2.78-.99-1.14-3.06-2.17-6.21-3.12l-.35-.11c-1.46-.43-2.44-.88-2.95-1.35s-.76-1.12-.76-1.89.29-1.41.87-1.9c.58-.49,1.36-.74,2.26-.74s1.82.21,2.74.63c.92.42,1.82,1.05,2.7,1.88l2.42-6.17c-1.26-.95-2.58-1.65-3.98-2.12-1.4-.47-2.88-.7-4.44-.7-2.89,0-5.24.95-7.05,2.85-1.81,1.9-2.72,4.35-2.72,7.36,0,2.32.57,4.15,1.72,5.48,1.15,1.34,3.11,2.42,5.88,3.25.82.24,1.51.48,2.09.72h-.04c.88.36,1.5.71,1.85,1.05.57.57.86,1.36.86,2.41,0,.94-.34,1.71-1,2.33-.66.62-1.51.93-2.54.93-1.11,0-2.22-.35-3.34-1.07-1.12-.72-2.25-1.8-3.4-3.25L.01,28.44s0,0,0,0v.02c1.49,1.59,3.04,2.76,4.66,3.5,1.62.75,3.41,1.12,5.39,1.12,3.29,0,5.92-1.01,7.89-3.04.74-.76,1.34-1.62,1.81-2.57.77-1.58,1.16-3.41,1.16-5.5,0-1.32-.17-2.52-.52-3.6Z"/><polygon class="cls-1" points="3.48 22.06 3.48 22.06 3.49 22.05 3.48 22.06"/><path class="cls-1" d="m47.62.77h-8.88l-3.77,8.11c-.02.06-.07.16-.15.32-.42.86-.7,1.64-.83,2.34-.15-.77-.43-1.58-.83-2.43l-.12-.24L29.23.76h-8.86l9.91,17.11v14.36h-.02s.02,0,.02,0h7.45v-14.36l.03-.05h-.02S47.62.77,47.62.77Z"/><path class="cls-1" d="m65.56,15.59c-.99-1.14-3.06-2.17-6.21-3.12l-.35-.11c-1.46-.43-2.44-.88-2.95-1.35-.51-.47-.76-1.12-.76-1.89s.29-1.41.87-1.9c.58-.49,1.36-.74,2.26-.74s1.82.21,2.74.63c.92.42,1.82,1.05,2.7,1.88l2.42-6.17c-1.26-.95-2.58-1.65-3.98-2.12-1.4-.47-2.88-.7-4.44-.7-2.89,0-5.24.95-7.05,2.85-1.81,1.9-2.72,4.35-2.72,7.36,0,2.32.57,4.15,1.72,5.48.38.44.85.84,1.39,1.23h-.04c1.13.79,2.63,1.48,4.51,2.04,2.03.6,3.32,1.19,3.9,1.75h.01c.57.56.86,1.36.86,2.41,0,.47-.08.9-.24,1.28-.16.37-.39.7-.7.99-.02.02-.03.04-.05.06-.66.62-1.51.93-2.54.93-1.11,0-2.22-.35-3.34-1.07-1.12-.72-2.25-1.8-3.4-3.25h0s0,0,0,0l-3.48,6.39c1.5,1.59,3.05,2.76,4.67,3.5,1.62.75,3.41,1.12,5.39,1.12,3.29,0,5.92-1.01,7.89-3.04,0,0,0,0,0,0,0,0,0,0,.01-.01,1.97-2.03,2.96-4.71,2.96-8.05,0-1.32-.17-2.52-.52-3.6-.35-1.08-.86-2.01-1.53-2.78Z"/><polygon class="cls-1" points="50.17 22.06 50.17 22.06 50.18 22.05 50.17 22.06"/><path class="cls-1" d="m89.91,3.04c-.89-.83-1.97-1.42-3.25-1.76-1.28-.35-3.5-.52-6.66-.52h-8.07v14.75h-.01v16.75h7.24v-.02s0,0,0,0v-.02s.01-10.35.01-10.35h2.7c2.39,0,4.12-.15,5.2-.45,1.08-.3,2.03-.8,2.82-1.48,1.06-.92,1.86-2.09,2.4-3.51,0,0,0-.02,0-.03,0,0,0,0,0,0,.54-1.42.81-3.07.81-4.95,0-1.76-.27-3.36-.82-4.8-.55-1.44-1.35-2.64-2.39-3.6Zm-10.74,11.87v-7.39h1.55c1.83,0,3.11.28,3.83.84.72.56,1.08,1.46,1.08,2.82s-.36,2.32-1.1,2.89-2.03.85-3.89.85h-1.47Z"/><path class="cls-1" d="m151.89.76l-2.77,14.96c-.11.52-.22,1.14-.33,1.86-.11.72-.25,1.64-.41,2.76-.13-.94-.25-1.78-.37-2.51s-.25-1.44-.39-2.11l-2.97-14.96h-5.19l-2.95,14.94-.02.11s0,.02,0,.04c-.23,1.2-.39,2.13-.5,2.78-.11.66-.21,1.29-.31,1.89-.11-.82-.23-1.62-.35-2.39s-.25-1.55-.38-2.32v-.06s-.82-4.52-.82-4.52h0s-1.89-10.47-1.89-10.47h-6.5l6.66,31.47h0s5.98,0,5.98,0l2.87-13.44c.13-.57.32-1.55.56-2.94.1-.54.17-.95.23-1.25.07.34.15.8.25,1.41.25,1.37.42,2.3.53,2.77l2.92,13.44h0s5.97,0,5.97,0l4.78-22.53h0s1.9-8.95,1.9-8.95h-6.5Z"/><path class="cls-1" d="m206.04,32.22l-7.71-12.67c2.06-.5,3.63-1.52,4.7-3.04,1.08-1.53,1.61-3.51,1.61-5.94,0,0,0,0,0,0,0,0,0,0,0,0,0-.25-.02-.5-.03-.74,0-.11,0-.23-.01-.34-.1-1.19-.35-2.3-.77-3.32-.55-1.33-1.33-2.43-2.35-3.29-.9-.76-1.97-1.3-3.22-1.62s-3.45-.48-6.61-.48h-8.07v31.47h0s7.24,0,7.24,0v-.02h.01v-12.28l6.49,12.3h8.72v-.02s.01,0,.01,0Zm-13.68-24.86c1.69,0,2.89.33,3.61,1,.54.5.87,1.26,1,2.26.02.16.02.35.03.53.01.19.03.36.03.56,0,1.35-.38,2.34-1.15,2.97-.77.63-1.99.95-3.65.95h-1.43V7.36h1.55Zm-1.55,0h.08-.08s0,0,0,0Z"/><path class="cls-1" d="m82.89,14.51l-2.79.19h.54c.88,0,1.62-.07,2.25-.19Z"/><path class="cls-1" d="m124.29,15.32c-.02-.34-.05-.68-.09-1.02,0-.07-.02-.15-.03-.22-.17-1.34-.46-2.64-.9-3.88-.71-1.99-1.74-3.76-3.08-5.31-1.34-1.55-2.89-2.74-4.65-3.58-1.76-.84-3.58-1.26-5.49-1.26s-3.74.42-5.49,1.26c-1.74.84-3.28,2.03-4.61,3.58-1.37,1.56-2.42,3.34-3.13,5.32-.42,1.16-.7,2.39-.87,3.65h-.02c-.12.89-.2,1.79-.2,2.72,0,2.24.36,4.35,1.07,6.34h.01c.71,1.98,1.76,3.76,3.13,5.32,1.33,1.55,2.87,2.74,4.61,3.58,1.75.84,3.58,1.26,5.49,1.26s3.71-.42,5.46-1.26c.44-.21.87-.45,1.29-.7,1.25-.76,2.38-1.72,3.4-2.89,1.35-1.56,2.38-3.33,3.09-5.31.71-1.97,1.06-4.1,1.06-6.36,0-.32-.02-.63-.04-.95,0-.1,0-.19-.01-.29Zm-19.26-5.37c1.33-1.75,3.03-2.63,5.02-2.63s3.65.88,4.99,2.64c.57.75,1.02,1.59,1.34,2.5h-.01c.44,1.23.67,2.6.67,4.12,0,1.67-.26,3.15-.77,4.46-.01.04-.03.07-.05.11-.09.22-.18.43-.29.64-.25.49-.53.96-.86,1.39-1.33,1.75-3,2.62-5.02,2.62s-3.74-.87-5.04-2.6c-1.31-1.73-1.96-3.99-1.96-6.64,0-.11,0-.21,0-.31,0-.39.03-.77.07-1.14.01-.1.02-.21.03-.31.06-.47.15-.93.26-1.37.32-1.3.86-2.47,1.61-3.48Z"/><polygon class="cls-1" points="168.64 25.18 168.64 19.87 177.9 19.87 177.9 13.12 168.64 13.12 168.64 8.87 168.63 8.87 168.63 7.66 178.46 7.66 178.46 .76 161.11 .76 161.11 9.39 161.11 32.23 161.11 32.24 178.47 32.24 178.47 25.18 178.46 25.18 168.64 25.18"/></svg>